<svg xmlns="http://www.w3.org/2000/svg" xmlns:xlink="http://www.w3.org/1999/xlink" contentStyleType="text/css" data-diagram-type="DESCRIPTION" height="583px" preserveAspectRatio="none" style="width:266px;height:583px;background:#FFFFFF;" version="1.1" viewBox="0 0 266 583" width="266px" zoomAndPan="magnify"><defs/><g><!--cluster raft--><g class="cluster" data-entity="raft" data-source-line="14" data-uid="ent0002" id="cluster_raft"><rect fill="#FFFFE0" height="565" rx="2.5" ry="2.5" style="stroke:#FF0000;stroke-width:1;" width="248" x="12" y="12"/><text fill="#000000" font-family="Verdana" font-size="14" font-weight="bold" lengthAdjust="spacing" textLength="28.6016" x="121.6992" y="28.0752">raft</text></g><!--cluster N1--><g class="cluster" data-entity="N1" data-source-line="15" data-uid="ent0003" id="cluster_N1"><polygon fill="#ADD8E6" points="36,66,46,56,236,56,236,543,226,553,36,553,36,66" style="stroke:#000000;stroke-width:1;"/><line style="stroke:#000000;stroke-width:1;" x1="226" x2="236" y1="66" y2="56"/><line style="stroke:#000000;stroke-width:1;" x1="36" x2="226" y1="66" y2="66"/><line style="stroke:#000000;stroke-width:1;" x1="226" x2="226" y1="66" y2="553"/><text fill="#000000" font-family="Verdana" font-size="14" font-weight="bold" lengthAdjust="spacing" textLength="124.1201" x="69.9399" y="83.0752">Node1 [Leader]</text></g><!--entity N1_1--><g class="entity" data-entity="N1_1" data-source-line="16" data-uid="ent0004" id="entity_N1_1"><rect fill="#FFFFFF" height="40.0146" rx="2.5" ry="2.5" style="stroke:#000000;stroke-width:1;" width="79.1846" x="96.5" y="97"/><polygon fill="#FFFFFF" points="158.6846,102,158.6846,116,170.6846,116,170.6846,108,164.6846,102,158.6846,102" style="stroke:#000000;stroke-width:1;"/><line style="stroke:#000000;stroke-width:1;" x1="164.6846" x2="164.6846" y1="102" y2="108"/><line style="stroke:#000000;stroke-width:1;" x1="170.6846" x2="164.6846" y1="108" y2="108"/><text fill="#000000" font-family="Verdana" font-size="14" lengthAdjust="spacing" textLength="49.1846" x="106.5" y="124.0752">Log=[]</text></g><!--entity N1_2--><g class="entity" data-entity="N1_2" data-source-line="17" data-uid="ent0005" id="entity_N1_2"><rect fill="#FFFFFF" height="40.0146" rx="2.5" ry="2.5" style="stroke:#000000;stroke-width:1;" width="86.916" x="92.5" y="197"/><polygon fill="#FFFFFF" points="162.416,202,162.416,216,174.416,216,174.416,208,168.416,202,162.416,202" style="stroke:#000000;stroke-width:1;"/><line style="stroke:#000000;stroke-width:1;" x1="168.416" x2="168.416" y1="202" y2="208"/><line style="stroke:#000000;stroke-width:1;" x1="174.416" x2="168.416" y1="208" y2="208"/><text fill="#000000" font-family="Verdana" font-size="14" lengthAdjust="spacing" textLength="56.916" x="102.5" y="224.0752">Term=0</text></g><!--entity N1_3--><g class="entity" data-entity="N1_3" data-source-line="18" data-uid="ent0006" id="entity_N1_3"><rect fill="#FFFFFF" height="40.0146" rx="2.5" ry="2.5" style="stroke:#000000;stroke-width:1;" width="145.3223" x="63.5" y="297"/><polygon fill="#FFFFFF" points="191.8223,302,191.8223,316,203.8223,316,203.8223,308,197.8223,302,191.8223,302" style="stroke:#000000;stroke-width:1;"/><line style="stroke:#000000;stroke-width:1;" x1="197.8223" x2="197.8223" y1="302" y2="308"/><line style="stroke:#000000;stroke-width:1;" x1="203.8223" x2="197.8223" y1="308" y2="308"/><text fill="#000000" font-family="Verdana" font-size="14" lengthAdjust="spacing" textLength="115.3223" x="73.5" y="324.0752">CommitIndex=0</text></g><!--entity N1_4--><g class="entity" data-entity="N1_4" data-source-line="19" data-uid="ent0007" id="entity_N1_4"><rect fill="#FFFFFF" height="40.0146" rx="2.5" ry="2.5" style="stroke:#000000;stroke-width:1;" width="129.5996" x="71" y="397"/><polygon fill="#FFFFFF" points="183.5996,402,183.5996,416,195.5996,416,195.5996,408,189.5996,402,183.5996,402" style="stroke:#000000;stroke-width:1;"/><line style="stroke:#000000;stroke-width:1;" x1="189.5996" x2="189.5996" y1="402" y2="408"/><line style="stroke:#000000;stroke-width:1;" x1="195.5996" x2="189.5996" y1="408" y2="408"/><text fill="#000000" font-family="Verdana" font-size="14" lengthAdjust="spacing" textLength="99.5996" x="81" y="424.0752">ApplyIndex=0</text></g><!--entity N1_5--><g class="entity" data-entity="N1_5" data-source-line="20" data-uid="ent0008" id="entity_N1_5"><rect fill="#FFFFFF" height="40.0146" rx="2.5" ry="2.5" style="stroke:#000000;stroke-width:1;" width="96.582" x="87.5" y="497"/><polygon fill="#FFFFFF" points="167.082,502,167.082,516,179.082,516,179.082,508,173.082,502,167.082,502" style="stroke:#000000;stroke-width:1;"/><line style="stroke:#000000;stroke-width:1;" x1="173.082" x2="173.082" y1="502" y2="508"/><line style="stroke:#000000;stroke-width:1;" x1="179.082" x2="173.082" y1="508" y2="508"/><text fill="#000000" font-family="Verdana" font-size="14" lengthAdjust="spacing" textLength="66.582" x="97.5" y="524.0752">State={}</text></g><!--link N1_1 to N1_2--><g class="link" data-entity-1="N1_1" data-entity-2="N1_2" data-source-line="22" data-uid="lnk9" id="link_N1_1_N1_2"><path d="M136,137.36 C136,154.54 136,179.51 136,196.68" fill="none" id="N1_1-N1_2" style="stroke:#000000;stroke-width:1;"/></g><!--link N1_2 to N1_3--><g class="link" data-entity-1="N1_2" data-entity-2="N1_3" data-source-line="23" data-uid="lnk10" id="link_N1_2_N1_3"><path d="M136,237.36 C136,254.54 136,279.51 136,296.68" fill="none" id="N1_2-N1_3" style="stroke:#000000;stroke-width:1;"/></g><!--link N1_3 to N1_4--><g class="link" data-entity-1="N1_3" data-entity-2="N1_4" data-source-line="24" data-uid="lnk11" id="link_N1_3_N1_4"><path d="M136,337.36 C136,354.54 136,379.51 136,396.68" fill="none" id="N1_3-N1_4" style="stroke:#000000;stroke-width:1;"/></g><!--link N1_4 to N1_5--><g class="link" data-entity-1="N1_4" data-entity-2="N1_5" data-source-line="25" data-uid="lnk12" id="link_N1_4_N1_5"><path d="M136,437.36 C136,454.54 136,479.51 136,496.68" fill="none" id="N1_4-N1_5" style="stroke:#000000;stroke-width:1;"/></g><!--SRC=[VOvDQy9048Rl-okcUnUQ9XvpQEob43pKNaIa3DanBkv765UiIFwxINH9QKFdC2plFFlmFeKzMOB6e7P270_QDSXeWQaAw6f3S1NGJO7LeMP_SchXZMSeTRqFQpB6d-ztpuhuVliW9TgVCkVLlvx2dEYFfJ0Tsdl4s4Koxe9yg0QhN7OxWKr9sFtSIi0ZB9C7qGzoq3ki0iZIr_ac4b_91F59RFFdIBnC40jlhGxlJj7t2AOJu6lJcCilBflWLW43vTSsClE1QOVTjuJPssmiqpzYaiOaZKaMaomcSz7U0000]--></g></svg>