<svg xmlns="http://www.w3.org/2000/svg" xmlns:xlink="http://www.w3.org/1999/xlink" contentStyleType="text/css" data-diagram-type="DESCRIPTION" height="655px" preserveAspectRatio="none" style="width:341px;height:655px;background:#FFFFFF;" version="1.1" viewBox="0 0 341 655" width="341px" zoomAndPan="magnify"><defs/><g><!--cluster raft--><g class="cluster" data-entity="raft" data-source-line="15" data-uid="ent0003" id="cluster_raft"><rect fill="#FFFFE0" height="637" rx="2.5" ry="2.5" style="stroke:#FF0000;stroke-width:1;" width="248" x="87.5" y="12"/><text fill="#000000" font-family="Verdana" font-size="14" font-weight="bold" lengthAdjust="spacing" textLength="28.6016" x="197.1992" y="28.0752">raft</text></g><!--cluster N1--><g class="cluster" data-entity="N1" data-source-line="16" data-uid="ent0004" id="cluster_N1"><polygon fill="#ADD8E6" points="111.5,66,121.5,56,311.5,56,311.5,615,301.5,625,111.5,625,111.5,66" style="stroke:#000000;stroke-width:1;"/><line style="stroke:#000000;stroke-width:1;" x1="301.5" x2="311.5" y1="66" y2="56"/><line style="stroke:#000000;stroke-width:1;" x1="111.5" x2="301.5" y1="66" y2="66"/><line style="stroke:#000000;stroke-width:1;" x1="301.5" x2="301.5" y1="66" y2="625"/><text fill="#000000" font-family="Verdana" font-size="14" font-weight="bold" lengthAdjust="spacing" textLength="124.1201" x="145.4399" y="83.0752">Node1 [Leader]</text></g><!--entity N1_1--><g class="entity" data-entity="N1_1" data-source-line="17" data-uid="ent0005" id="entity_N1_1"><rect fill="#90EE90" height="74.0439" rx="2.5" ry="2.5" style="stroke:#000000;stroke-width:1;" width="78.501" x="158" y="97"/><polygon fill="#90EE90" points="219.501,102,219.501,116,231.501,116,231.501,108,225.501,102,219.501,102" style="stroke:#000000;stroke-width:1;"/><line style="stroke:#000000;stroke-width:1;" x1="225.501" x2="225.501" y1="102" y2="108"/><line style="stroke:#000000;stroke-width:1;" x1="231.501" x2="225.501" y1="108" y2="108"/><text fill="#000000" font-family="Verdana" font-size="14" lengthAdjust="spacing" textLength="42.8271" x="168" y="124.0752">Log=[</text><text fill="#000000" font-family="Verdana" font-size="14" lengthAdjust="spacing" textLength="33.7354" x="177.8438" y="141.0898">x=1,</text><text fill="#000000" font-family="Verdana" font-size="14" lengthAdjust="spacing" textLength="6.3574" x="168" y="158.1045">]</text></g><!--entity N1_2--><g class="entity" data-entity="N1_2" data-source-line="18" data-uid="ent0006" id="entity_N1_2"><rect fill="#90EE90" height="40.0146" rx="2.5" ry="2.5" style="stroke:#000000;stroke-width:1;" width="86.916" x="155" y="232"/><polygon fill="#90EE90" points="224.916,237,224.916,251,236.916,251,236.916,243,230.916,237,224.916,237" style="stroke:#000000;stroke-width:1;"/><line style="stroke:#000000;stroke-width:1;" x1="230.916" x2="230.916" y1="237" y2="243"/><line style="stroke:#000000;stroke-width:1;" x1="236.916" x2="230.916" y1="243" y2="243"/><text fill="#000000" font-family="Verdana" font-size="14" lengthAdjust="spacing" textLength="56.916" x="165" y="259.0752">Term=1</text></g><!--entity N1_3--><g class="entity" data-entity="N1_3" data-source-line="19" data-uid="ent0007" id="entity_N1_3"><rect fill="#90EE90" height="40.0146" rx="2.5" ry="2.5" style="stroke:#000000;stroke-width:1;" width="145.3223" x="128" y="333"/><polygon fill="#90EE90" points="256.3223,338,256.3223,352,268.3223,352,268.3223,344,262.3223,338,256.3223,338" style="stroke:#000000;stroke-width:1;"/><line style="stroke:#000000;stroke-width:1;" x1="262.3223" x2="262.3223" y1="338" y2="344"/><line style="stroke:#000000;stroke-width:1;" x1="268.3223" x2="262.3223" y1="344" y2="344"/><text fill="#000000" font-family="Verdana" font-size="14" lengthAdjust="spacing" textLength="115.3223" x="138" y="360.0752">CommitIndex=1</text></g><!--entity N1_4--><g class="entity" data-entity="N1_4" data-source-line="20" data-uid="ent0008" id="entity_N1_4"><rect fill="#90EE90" height="40.0146" rx="2.5" ry="2.5" style="stroke:#000000;stroke-width:1;" width="129.5996" x="135.5" y="434"/><polygon fill="#90EE90" points="248.0996,439,248.0996,453,260.0996,453,260.0996,445,254.0996,439,248.0996,439" style="stroke:#000000;stroke-width:1;"/><line style="stroke:#000000;stroke-width:1;" x1="254.0996" x2="254.0996" y1="439" y2="445"/><line style="stroke:#000000;stroke-width:1;" x1="260.0996" x2="254.0996" y1="445" y2="445"/><text fill="#000000" font-family="Verdana" font-size="14" lengthAdjust="spacing" textLength="99.5996" x="145.5" y="461.0752">ApplyIndex=1</text></g><!--entity N1_5--><g class="entity" data-entity="N1_5" data-source-line="21" data-uid="ent0009" id="entity_N1_5"><rect fill="#90EE90" height="74.0439" rx="2.5" ry="2.5" style="stroke:#000000;stroke-width:1;" width="87.6953" x="156.5" y="535"/><polygon fill="#90EE90" points="227.1953,540,227.1953,554,239.1953,554,239.1953,546,233.1953,540,227.1953,540" style="stroke:#000000;stroke-width:1;"/><line style="stroke:#000000;stroke-width:1;" x1="233.1953" x2="233.1953" y1="540" y2="546"/><line style="stroke:#000000;stroke-width:1;" x1="239.1953" x2="233.1953" y1="546" y2="546"/><text fill="#000000" font-family="Verdana" font-size="14" lengthAdjust="spacing" textLength="57.6953" x="166.5" y="562.0752">State={</text><text fill="#000000" font-family="Verdana" font-size="14" lengthAdjust="spacing" textLength="33.5576" x="181.2656" y="579.0898">x: 1,</text><text fill="#000000" font-family="Verdana" font-size="14" lengthAdjust="spacing" textLength="8.8867" x="166.5" y="596.1045">}</text></g><!--entity cmd--><g class="entity" data-entity="cmd" data-source-line="13" data-uid="ent0002" id="entity_cmd"><rect fill="#90EE90" height="40.0146" rx="2.5" ry="2.5" style="stroke:#000000;stroke-width:1;" width="58.6426" x="12" y="114"/><polygon fill="#90EE90" points="53.6426,119,53.6426,133,65.6426,133,65.6426,125,59.6426,119,53.6426,119" style="stroke:#000000;stroke-width:1;"/><line style="stroke:#000000;stroke-width:1;" x1="59.6426" x2="59.6426" y1="119" y2="125"/><line style="stroke:#000000;stroke-width:1;" x1="65.6426" x2="59.6426" y1="125" y2="125"/><text fill="#000000" font-family="Verdana" font-size="14" lengthAdjust="spacing" textLength="28.6426" x="22" y="141.0752">x=1</text></g><!--link N1_1 to N1_2--><g class="link" data-entity-1="N1_1" data-entity-2="N1_2" data-source-line="23" data-uid="lnk10" id="link_N1_1_N1_2"><path d="M197.81,171.07 C197.98,191.15 198.19,215.35 198.33,231.83" fill="none" id="N1_1-N1_2" style="stroke:#000000;stroke-width:1;"/></g><!--link N1_2 to N1_3--><g class="link" data-entity-1="N1_2" data-entity-2="N1_3" data-source-line="24" data-uid="lnk11" id="link_N1_2_N1_3"><path d="M198.89,272.09 C199.24,289.62 199.76,315.46 200.12,332.97" fill="none" id="N1_2-N1_3" style="stroke:#000000;stroke-width:1;"/></g><!--link N1_3 to N1_4--><g class="link" data-entity-1="N1_3" data-entity-2="N1_4" data-source-line="25" data-uid="lnk12" id="link_N1_3_N1_4"><path d="M200.5,373.09 C200.5,390.62 200.5,416.46 200.5,433.97" fill="none" id="N1_3-N1_4" style="stroke:#000000;stroke-width:1;"/></g><!--link N1_4 to N1_5--><g class="link" data-entity-1="N1_4" data-entity-2="N1_5" data-source-line="26" data-uid="lnk13" id="link_N1_4_N1_5"><path d="M200.5,474.16 C200.5,490.63 200.5,514.84 200.5,534.93" fill="none" id="N1_4-N1_5" style="stroke:#000000;stroke-width:1;"/></g><!--link cmd to N1_1--><g class="link" data-entity-1="cmd" data-entity-2="N1_1" data-source-line="29" data-uid="lnk14" id="link_cmd_N1_1"><path d="M71.21,134 C95.79,134 124.91,134 151.87,134" fill="none" id="cmd-to-N1_1" style="stroke:#000000;stroke-width:1;"/><polygon fill="#000000" points="157.87,134,148.87,130,152.87,134,148.87,138,157.87,134" style="stroke:#000000;stroke-width:1;"/><text fill="#000000" font-family="Verdana" font-size="13" lengthAdjust="spacing" textLength="48.0771" x="90.5" y="128.0698">append</text></g><!--SRC=[XL5BIyD04BxdLupnQWvfqaiXWgaWGkYXUf5MPCbEqz1ziTrYfEI_kzbaYHemSvZ3DzzZXhanH-G8Yf5Q1C7vL0j5DE6WiJH4L0pX6e2jd9IdIikBe6l9f8QYhexc3HcJd_rSQegwdssH1krFCo7flpuvk-349MUMslaGRUe3AGs4JHQ7GCvGSWgtJlca4UtUuxQX9WSJ3c4kDzpO7iEkG6Aztvt19XuONOt-XQootLu0sA0xs0jF_eX_nKs5hwZvi9jbBsROQybvRPu5nMOK9JEY1wNOrnzDEgDvCSHWTkqkWcO5xgRMYvSJSUkwEpTwZDmb7bbu9F58uf7K8wb7bjtNkXz5s-Y-zri1KGe53Ru1]--></g></svg>