<svg xmlns="http://www.w3.org/2000/svg" xmlns:xlink="http://www.w3.org/1999/xlink" contentStyleType="text/css" data-diagram-type="DESCRIPTION" height="933px" preserveAspectRatio="none" style="width:792px;height:933px;background:#FFFFFF;" version="1.1" viewBox="0 0 792 933" width="792px" zoomAndPan="magnify"><defs/><g><!--cluster raft--><g class="cluster" data-entity="raft" data-source-line="13" data-uid="ent0002" id="cluster_raft"><rect fill="#FFFFE0" height="915" rx="2.5" ry="2.5" style="stroke:#FF0000;stroke-width:1;" width="774" x="12" y="12"/><text fill="#000000" font-family="Verdana" font-size="14" font-weight="bold" lengthAdjust="spacing" textLength="28.6016" x="384.6992" y="28.0752">raft</text></g><!--cluster N1--><g class="cluster" data-entity="N1" data-source-line="14" data-uid="ent0003" id="cluster_N1"><polygon fill="#ADD8E6" points="44,74,54,64,246,64,246,732,236,742,44,742,44,74" style="stroke:#000000;stroke-width:1;"/><line style="stroke:#000000;stroke-width:1;" x1="236" x2="246" y1="74" y2="64"/><line style="stroke:#000000;stroke-width:1;" x1="44" x2="236" y1="74" y2="74"/><line style="stroke:#000000;stroke-width:1;" x1="236" x2="236" y1="74" y2="742"/><text fill="#000000" font-family="Verdana" font-size="14" font-weight="bold" lengthAdjust="spacing" textLength="124.1201" x="78.9399" y="91.0752">Node1 [Leader]</text></g><!--cluster N2--><g class="cluster" data-entity="N2" data-source-line="26" data-uid="ent0013" id="cluster_N2"><polygon fill="#ADD8E6" points="286,268,296,258,500,258,500,885,490,895,286,895,286,268" style="stroke:#000000;stroke-width:1;"/><line style="stroke:#000000;stroke-width:1;" x1="490" x2="500" y1="268" y2="258"/><line style="stroke:#000000;stroke-width:1;" x1="286" x2="490" y1="268" y2="268"/><line style="stroke:#000000;stroke-width:1;" x1="490" x2="490" y1="268" y2="895"/><text fill="#000000" font-family="Verdana" font-size="14" font-weight="bold" lengthAdjust="spacing" textLength="138.373" x="319.8135" y="285.0752">Node2 [Follower]</text></g><!--cluster N3--><g class="cluster" data-entity="N3" data-source-line="38" data-uid="ent0023" id="cluster_N3"><polygon fill="#ADD8E6" points="540,268,550,258,754,258,754,885,744,895,540,895,540,268" style="stroke:#000000;stroke-width:1;"/><line style="stroke:#000000;stroke-width:1;" x1="744" x2="754" y1="268" y2="258"/><line style="stroke:#000000;stroke-width:1;" x1="540" x2="744" y1="268" y2="268"/><line style="stroke:#000000;stroke-width:1;" x1="744" x2="744" y1="268" y2="895"/><text fill="#000000" font-family="Verdana" font-size="14" font-weight="bold" lengthAdjust="spacing" textLength="138.373" x="573.8135" y="285.0752">Node3 [Follower]</text></g><!--entity N1_1--><g class="entity" data-entity="N1_1" data-source-line="15" data-uid="ent0004" id="entity_N1_1"><rect fill="#FFFFFF" height="74.0439" rx="2.5" ry="2.5" style="stroke:#000000;stroke-width:1;" width="78.501" x="101.5" y="113"/><polygon fill="#FFFFFF" points="163.001,118,163.001,132,175.001,132,175.001,124,169.001,118,163.001,118" style="stroke:#000000;stroke-width:1;"/><line style="stroke:#000000;stroke-width:1;" x1="169.001" x2="169.001" y1="118" y2="124"/><line style="stroke:#000000;stroke-width:1;" x1="175.001" x2="169.001" y1="124" y2="124"/><text fill="#000000" font-family="Verdana" font-size="14" lengthAdjust="spacing" textLength="42.8271" x="111.5" y="140.0752">Log=[</text><text fill="#000000" font-family="Verdana" font-size="14" lengthAdjust="spacing" textLength="33.7354" x="121.3438" y="157.0898">x=1,</text><text fill="#000000" font-family="Verdana" font-size="14" lengthAdjust="spacing" textLength="6.3574" x="111.5" y="174.1045">]</text></g><!--entity N1_2--><g class="entity" data-entity="N1_2" data-source-line="16" data-uid="ent0005" id="entity_N1_2"><rect fill="#FFFFFF" height="40.0146" rx="2.5" ry="2.5" style="stroke:#000000;stroke-width:1;" width="86.916" x="97.5" y="324"/><polygon fill="#FFFFFF" points="167.416,329,167.416,343,179.416,343,179.416,335,173.416,329,167.416,329" style="stroke:#000000;stroke-width:1;"/><line style="stroke:#000000;stroke-width:1;" x1="173.416" x2="173.416" y1="329" y2="335"/><line style="stroke:#000000;stroke-width:1;" x1="179.416" x2="173.416" y1="335" y2="335"/><text fill="#000000" font-family="Verdana" font-size="14" lengthAdjust="spacing" textLength="56.916" x="107.5" y="351.0752">Term=1</text></g><!--entity N1_3--><g class="entity" data-entity="N1_3" data-source-line="17" data-uid="ent0006" id="entity_N1_3"><rect fill="#FFFFFF" height="40.0146" rx="2.5" ry="2.5" style="stroke:#000000;stroke-width:1;" width="145.3223" x="68.5" y="442"/><polygon fill="#FFFFFF" points="196.8223,447,196.8223,461,208.8223,461,208.8223,453,202.8223,447,196.8223,447" style="stroke:#000000;stroke-width:1;"/><line style="stroke:#000000;stroke-width:1;" x1="202.8223" x2="202.8223" y1="447" y2="453"/><line style="stroke:#000000;stroke-width:1;" x1="208.8223" x2="202.8223" y1="453" y2="453"/><text fill="#000000" font-family="Verdana" font-size="14" lengthAdjust="spacing" textLength="115.3223" x="78.5" y="469.0752">CommitIndex=1</text></g><!--entity N1_4--><g class="entity" data-entity="N1_4" data-source-line="18" data-uid="ent0007" id="entity_N1_4"><rect fill="#FFFFFF" height="40.0146" rx="2.5" ry="2.5" style="stroke:#000000;stroke-width:1;" width="129.5996" x="76" y="543"/><polygon fill="#FFFFFF" points="188.5996,548,188.5996,562,200.5996,562,200.5996,554,194.5996,548,188.5996,548" style="stroke:#000000;stroke-width:1;"/><line style="stroke:#000000;stroke-width:1;" x1="194.5996" x2="194.5996" y1="548" y2="554"/><line style="stroke:#000000;stroke-width:1;" x1="200.5996" x2="194.5996" y1="554" y2="554"/><text fill="#000000" font-family="Verdana" font-size="14" lengthAdjust="spacing" textLength="99.5996" x="86" y="570.0752">ApplyIndex=1</text></g><!--entity N1_5--><g class="entity" data-entity="N1_5" data-source-line="19" data-uid="ent0008" id="entity_N1_5"><rect fill="#FFFFFF" height="74.0439" rx="2.5" ry="2.5" style="stroke:#000000;stroke-width:1;" width="87.6953" x="97" y="644"/><polygon fill="#FFFFFF" points="167.6953,649,167.6953,663,179.6953,663,179.6953,655,173.6953,649,167.6953,649" style="stroke:#000000;stroke-width:1;"/><line style="stroke:#000000;stroke-width:1;" x1="173.6953" x2="173.6953" y1="649" y2="655"/><line style="stroke:#000000;stroke-width:1;" x1="179.6953" x2="173.6953" y1="655" y2="655"/><text fill="#000000" font-family="Verdana" font-size="14" lengthAdjust="spacing" textLength="57.6953" x="107" y="671.0752">State={</text><text fill="#000000" font-family="Verdana" font-size="14" lengthAdjust="spacing" textLength="33.5576" x="121.7656" y="688.0898">x: 1,</text><text fill="#000000" font-family="Verdana" font-size="14" lengthAdjust="spacing" textLength="8.8867" x="107" y="705.1045">}</text></g><!--entity N2_1--><g class="entity" data-entity="N2_1" data-source-line="27" data-uid="ent0014" id="entity_N2_1"><rect fill="#90EE90" height="74.0439" rx="2.5" ry="2.5" style="stroke:#000000;stroke-width:1;" width="78.501" x="357.5" y="307"/><polygon fill="#90EE90" points="419.001,312,419.001,326,431.001,326,431.001,318,425.001,312,419.001,312" style="stroke:#000000;stroke-width:1;"/><line style="stroke:#000000;stroke-width:1;" x1="425.001" x2="425.001" y1="312" y2="318"/><line style="stroke:#000000;stroke-width:1;" x1="431.001" x2="425.001" y1="318" y2="318"/><text fill="#000000" font-family="Verdana" font-size="14" lengthAdjust="spacing" textLength="42.8271" x="367.5" y="334.0752">Log=[</text><text fill="#000000" font-family="Verdana" font-size="14" lengthAdjust="spacing" textLength="33.7354" x="377.3438" y="351.0898">x=1,</text><text fill="#000000" font-family="Verdana" font-size="14" lengthAdjust="spacing" textLength="6.3574" x="367.5" y="368.1045">]</text></g><!--entity N2_2--><g class="entity" data-entity="N2_2" data-source-line="28" data-uid="ent0015" id="entity_N2_2"><rect fill="#90EE90" height="40.0146" rx="2.5" ry="2.5" style="stroke:#000000;stroke-width:1;" width="86.916" x="353.5" y="442"/><polygon fill="#90EE90" points="423.416,447,423.416,461,435.416,461,435.416,453,429.416,447,423.416,447" style="stroke:#000000;stroke-width:1;"/><line style="stroke:#000000;stroke-width:1;" x1="429.416" x2="429.416" y1="447" y2="453"/><line style="stroke:#000000;stroke-width:1;" x1="435.416" x2="429.416" y1="453" y2="453"/><text fill="#000000" font-family="Verdana" font-size="14" lengthAdjust="spacing" textLength="56.916" x="363.5" y="469.0752">Term=1</text></g><!--entity N2_3--><g class="entity" data-entity="N2_3" data-source-line="29" data-uid="ent0016" id="entity_N2_3"><rect fill="#90EE90" height="40.0146" rx="2.5" ry="2.5" style="stroke:#000000;stroke-width:1;" width="145.3223" x="324.5" y="543"/><polygon fill="#90EE90" points="452.8223,548,452.8223,562,464.8223,562,464.8223,554,458.8223,548,452.8223,548" style="stroke:#000000;stroke-width:1;"/><line style="stroke:#000000;stroke-width:1;" x1="458.8223" x2="458.8223" y1="548" y2="554"/><line style="stroke:#000000;stroke-width:1;" x1="464.8223" x2="458.8223" y1="554" y2="554"/><text fill="#000000" font-family="Verdana" font-size="14" lengthAdjust="spacing" textLength="115.3223" x="334.5" y="570.0752">CommitIndex=1</text></g><!--entity N2_4--><g class="entity" data-entity="N2_4" data-source-line="30" data-uid="ent0017" id="entity_N2_4"><rect fill="#90EE90" height="40.0146" rx="2.5" ry="2.5" style="stroke:#000000;stroke-width:1;" width="129.5996" x="332" y="661"/><polygon fill="#90EE90" points="444.5996,666,444.5996,680,456.5996,680,456.5996,672,450.5996,666,444.5996,666" style="stroke:#000000;stroke-width:1;"/><line style="stroke:#000000;stroke-width:1;" x1="450.5996" x2="450.5996" y1="666" y2="672"/><line style="stroke:#000000;stroke-width:1;" x1="456.5996" x2="450.5996" y1="672" y2="672"/><text fill="#000000" font-family="Verdana" font-size="14" lengthAdjust="spacing" textLength="99.5996" x="342" y="688.0752">ApplyIndex=1</text></g><!--entity N2_5--><g class="entity" data-entity="N2_5" data-source-line="31" data-uid="ent0018" id="entity_N2_5"><rect fill="#90EE90" height="74.0439" rx="2.5" ry="2.5" style="stroke:#000000;stroke-width:1;" width="87.6953" x="353" y="797"/><polygon fill="#90EE90" points="423.6953,802,423.6953,816,435.6953,816,435.6953,808,429.6953,802,423.6953,802" style="stroke:#000000;stroke-width:1;"/><line style="stroke:#000000;stroke-width:1;" x1="429.6953" x2="429.6953" y1="802" y2="808"/><line style="stroke:#000000;stroke-width:1;" x1="435.6953" x2="429.6953" y1="808" y2="808"/><text fill="#000000" font-family="Verdana" font-size="14" lengthAdjust="spacing" textLength="57.6953" x="363" y="824.0752">State={</text><text fill="#000000" font-family="Verdana" font-size="14" lengthAdjust="spacing" textLength="33.5576" x="377.7656" y="841.0898">x: 1,</text><text fill="#000000" font-family="Verdana" font-size="14" lengthAdjust="spacing" textLength="8.8867" x="363" y="858.1045">}</text></g><!--entity N3_1--><g class="entity" data-entity="N3_1" data-source-line="39" data-uid="ent0024" id="entity_N3_1"><rect fill="#90EE90" height="74.0439" rx="2.5" ry="2.5" style="stroke:#000000;stroke-width:1;" width="78.501" x="611.5" y="307"/><polygon fill="#90EE90" points="673.001,312,673.001,326,685.001,326,685.001,318,679.001,312,673.001,312" style="stroke:#000000;stroke-width:1;"/><line style="stroke:#000000;stroke-width:1;" x1="679.001" x2="679.001" y1="312" y2="318"/><line style="stroke:#000000;stroke-width:1;" x1="685.001" x2="679.001" y1="318" y2="318"/><text fill="#000000" font-family="Verdana" font-size="14" lengthAdjust="spacing" textLength="42.8271" x="621.5" y="334.0752">Log=[</text><text fill="#000000" font-family="Verdana" font-size="14" lengthAdjust="spacing" textLength="33.7354" x="631.3438" y="351.0898">x=1,</text><text fill="#000000" font-family="Verdana" font-size="14" lengthAdjust="spacing" textLength="6.3574" x="621.5" y="368.1045">]</text></g><!--entity N3_2--><g class="entity" data-entity="N3_2" data-source-line="40" data-uid="ent0025" id="entity_N3_2"><rect fill="#90EE90" height="40.0146" rx="2.5" ry="2.5" style="stroke:#000000;stroke-width:1;" width="86.916" x="607.5" y="442"/><polygon fill="#90EE90" points="677.416,447,677.416,461,689.416,461,689.416,453,683.416,447,677.416,447" style="stroke:#000000;stroke-width:1;"/><line style="stroke:#000000;stroke-width:1;" x1="683.416" x2="683.416" y1="447" y2="453"/><line style="stroke:#000000;stroke-width:1;" x1="689.416" x2="683.416" y1="453" y2="453"/><text fill="#000000" font-family="Verdana" font-size="14" lengthAdjust="spacing" textLength="56.916" x="617.5" y="469.0752">Term=1</text></g><!--entity N3_3--><g class="entity" data-entity="N3_3" data-source-line="41" data-uid="ent0026" id="entity_N3_3"><rect fill="#90EE90" height="40.0146" rx="2.5" ry="2.5" style="stroke:#000000;stroke-width:1;" width="145.3223" x="578.5" y="543"/><polygon fill="#90EE90" points="706.8223,548,706.8223,562,718.8223,562,718.8223,554,712.8223,548,706.8223,548" style="stroke:#000000;stroke-width:1;"/><line style="stroke:#000000;stroke-width:1;" x1="712.8223" x2="712.8223" y1="548" y2="554"/><line style="stroke:#000000;stroke-width:1;" x1="718.8223" x2="712.8223" y1="554" y2="554"/><text fill="#000000" font-family="Verdana" font-size="14" lengthAdjust="spacing" textLength="115.3223" x="588.5" y="570.0752">CommitIndex=1</text></g><!--entity N3_4--><g class="entity" data-entity="N3_4" data-source-line="42" data-uid="ent0027" id="entity_N3_4"><rect fill="#90EE90" height="40.0146" rx="2.5" ry="2.5" style="stroke:#000000;stroke-width:1;" width="129.5996" x="586" y="661"/><polygon fill="#90EE90" points="698.5996,666,698.5996,680,710.5996,680,710.5996,672,704.5996,666,698.5996,666" style="stroke:#000000;stroke-width:1;"/><line style="stroke:#000000;stroke-width:1;" x1="704.5996" x2="704.5996" y1="666" y2="672"/><line style="stroke:#000000;stroke-width:1;" x1="710.5996" x2="704.5996" y1="672" y2="672"/><text fill="#000000" font-family="Verdana" font-size="14" lengthAdjust="spacing" textLength="99.5996" x="596" y="688.0752">ApplyIndex=1</text></g><!--entity N3_5--><g class="entity" data-entity="N3_5" data-source-line="43" data-uid="ent0028" id="entity_N3_5"><rect fill="#90EE90" height="74.0439" rx="2.5" ry="2.5" style="stroke:#000000;stroke-width:1;" width="87.6953" x="607" y="797"/><polygon fill="#90EE90" points="677.6953,802,677.6953,816,689.6953,816,689.6953,808,683.6953,802,677.6953,802" style="stroke:#000000;stroke-width:1;"/><line style="stroke:#000000;stroke-width:1;" x1="683.6953" x2="683.6953" y1="802" y2="808"/><line style="stroke:#000000;stroke-width:1;" x1="689.6953" x2="683.6953" y1="808" y2="808"/><text fill="#000000" font-family="Verdana" font-size="14" lengthAdjust="spacing" textLength="57.6953" x="617" y="824.0752">State={</text><text fill="#000000" font-family="Verdana" font-size="14" lengthAdjust="spacing" textLength="33.5576" x="631.7656" y="841.0898">x: 1,</text><text fill="#000000" font-family="Verdana" font-size="14" lengthAdjust="spacing" textLength="8.8867" x="617" y="858.1045">}</text></g><!--link N1_1 to N1_2--><g class="link" data-entity-1="N1_1" data-entity-2="N1_2" data-source-line="21" data-uid="lnk9" id="link_N1_1_N1_2"><path d="M141,187.11 C141,227.74 141,292.19 141,323.98" fill="none" id="N1_1-N1_2" style="stroke:#000000;stroke-width:1;"/></g><!--link N1_2 to N1_3--><g class="link" data-entity-1="N1_2" data-entity-2="N1_3" data-source-line="22" data-uid="lnk10" id="link_N1_2_N1_3"><path d="M141,364.16 C141,385.65 141,420.31 141,441.82" fill="none" id="N1_2-N1_3" style="stroke:#000000;stroke-width:1;"/></g><!--link N1_3 to N1_4--><g class="link" data-entity-1="N1_3" data-entity-2="N1_4" data-source-line="23" data-uid="lnk11" id="link_N1_3_N1_4"><path d="M141,482.09 C141,499.62 141,525.46 141,542.97" fill="none" id="N1_3-N1_4" style="stroke:#000000;stroke-width:1;"/></g><!--link N1_4 to N1_5--><g class="link" data-entity-1="N1_4" data-entity-2="N1_5" data-source-line="24" data-uid="lnk12" id="link_N1_4_N1_5"><path d="M141,583.16 C141,599.63 141,623.84 141,643.93" fill="none" id="N1_4-N1_5" style="stroke:#000000;stroke-width:1;"/></g><!--link N2_1 to N2_2--><g class="link" data-entity-1="N2_1" data-entity-2="N2_2" data-source-line="33" data-uid="lnk19" id="link_N2_1_N2_2"><path d="M397,381.07 C397,401.15 397,425.35 397,441.83" fill="none" id="N2_1-N2_2" style="stroke:#000000;stroke-width:1;"/></g><!--link N2_2 to N2_3--><g class="link" data-entity-1="N2_2" data-entity-2="N2_3" data-source-line="34" data-uid="lnk20" id="link_N2_2_N2_3"><path d="M397,482.09 C397,499.62 397,525.46 397,542.97" fill="none" id="N2_2-N2_3" style="stroke:#000000;stroke-width:1;"/></g><!--link N2_3 to N2_4--><g class="link" data-entity-1="N2_3" data-entity-2="N2_4" data-source-line="35" data-uid="lnk21" id="link_N2_3_N2_4"><path d="M397,583.16 C397,604.65 397,639.31 397,660.82" fill="none" id="N2_3-N2_4" style="stroke:#000000;stroke-width:1;"/></g><!--link N2_4 to N2_5--><g class="link" data-entity-1="N2_4" data-entity-2="N2_5" data-source-line="36" data-uid="lnk22" id="link_N2_4_N2_5"><path d="M397,701.12 C397,725.09 397,766.67 397,796.74" fill="none" id="N2_4-N2_5" style="stroke:#000000;stroke-width:1;"/></g><!--link N3_1 to N3_2--><g class="link" data-entity-1="N3_1" data-entity-2="N3_2" data-source-line="45" data-uid="lnk29" id="link_N3_1_N3_2"><path d="M651,381.07 C651,401.15 651,425.35 651,441.83" fill="none" id="N3_1-N3_2" style="stroke:#000000;stroke-width:1;"/></g><!--link N3_2 to N3_3--><g class="link" data-entity-1="N3_2" data-entity-2="N3_3" data-source-line="46" data-uid="lnk30" id="link_N3_2_N3_3"><path d="M651,482.09 C651,499.62 651,525.46 651,542.97" fill="none" id="N3_2-N3_3" style="stroke:#000000;stroke-width:1;"/></g><!--link N3_3 to N3_4--><g class="link" data-entity-1="N3_3" data-entity-2="N3_4" data-source-line="47" data-uid="lnk31" id="link_N3_3_N3_4"><path d="M651,583.16 C651,604.65 651,639.31 651,660.82" fill="none" id="N3_3-N3_4" style="stroke:#000000;stroke-width:1;"/></g><!--link N3_4 to N3_5--><g class="link" data-entity-1="N3_4" data-entity-2="N3_5" data-source-line="48" data-uid="lnk32" id="link_N3_4_N3_5"><path d="M651,701.12 C651,725.09 651,766.67 651,796.74" fill="none" id="N3_4-N3_5" style="stroke:#000000;stroke-width:1;"/></g><!--link N1 to N2--><g class="link" data-entity-1="N1" data-entity-2="N2" data-source-line="51" data-uid="lnk33" id="link_N1_N2"><path d="M246.0643,178.6479 C246.1414,178.9123 246.2189,179.178 246.2968,179.4452 C246.6085,180.5139 246.9269,181.6052 247.2514,182.7178 C252.4441,200.52 259.2281,223.7788 266.0113,247.035 C272.7944,270.2913 279.5766,293.545 284.7655,311.3372 C285.0898,312.4492 285.4079,313.5399 285.7193,314.6079 C285.7972,314.8749 284.1948,309.3804 284.2719,309.6446" fill="none" id="N1-to-N2" style="stroke:#000000;stroke-width:1;"/><polygon fill="#000000" points="285.9517,315.4046,287.272,305.6447,284.5518,310.6046,279.5919,307.8844,285.9517,315.4046" style="stroke:#000000;stroke-width:1;"/><text fill="#000000" font-family="Verdana" font-size="13" lengthAdjust="spacing" textLength="54.4565" x="262" y="231.0698">rpc sync</text></g><!--link N1 to N3--><g class="link" data-entity-1="N1" data-entity-2="N3" data-source-line="52" data-uid="lnk34" id="link_N1_N3"><path d="M246.0183,152.0049 C246.1656,152.0251 246.3148,152.0455 246.4659,152.0663 C251.3002,152.731 258.0448,153.7338 266.2833,155.1514 C282.7603,157.9866 305.2131,162.4806 330.3113,169.2462 C380.5075,182.7775 441.285,205.395 486,242 C506.06,258.42 521.3925,283.1425 531.7913,304.0175 C534.3909,309.2363 536.6823,314.2145 538.662,318.7625 C538.9095,319.331 539.1521,319.8928 539.3898,320.4474 C539.5087,320.7248 539.6263,321.0004 539.7427,321.2741 C539.8009,321.411 537.5182,316.0228 537.5758,316.1587" fill="none" id="N1-to-N3" style="stroke:#000000;stroke-width:1;"/><polygon fill="#000000" points="539.9165,321.6833,540.0885,311.836,537.9659,317.0795,532.7224,314.9569,539.9165,321.6833" style="stroke:#000000;stroke-width:1;"/><text fill="#000000" font-family="Verdana" font-size="13" lengthAdjust="spacing" textLength="54.4565" x="475" y="231.0698">rpc sync</text></g><!--SRC=[fPHHQy8m58NV-olkkjVvq5nz4JgOZes1-B3jPUYGqCPQR9CI8rF4_xwaUbUnNOUk3w6Sd7iu-L9wOnOY5r1aF9MUjrgcik2Qvw15PBXCCW4x3-mpuD4oqMejuw7Ab8PHcYpCXyWozNNOLpeM-h3tAc9lVnecLToQCyZMefOooApLvLHLVCtdnZycbQ7-sAu1J4Q2sy5F7_WAni7HuHwkJJhdaG5_f99mCfK0cp2uWwaayoneCByBdOS1ELY3OwZoF3KlCXQRoeWDneUYoBPdlcw3xyrm8yATQmYRFfGTzpJGAmVsvUegG-UnKpLpBwGWAKXAbvGkAJtlZ223oPDoT_d3a5t2aDb2j-LDFciXv1yycItRxcvWo-nvseVgd9azSVjC2tCswzM6Z_mPyMV4dn5_HlmPyMV4dn5_LkUFDVvu2N-yY3zUmn-lu8__uO-_yqVYZyGVYJyIVoJ-IFoH-DjazriPbo7txbFlWouYM6rbLAbugdu3]--></g></svg>