<svg xmlns="http://www.w3.org/2000/svg" xmlns:xlink="http://www.w3.org/1999/xlink" contentStyleType="text/css" data-diagram-type="DESCRIPTION" height="1001px" preserveAspectRatio="none" style="width:1300px;height:1001px;background:#FFFFFF;" version="1.1" viewBox="0 0 1300 1001" width="1300px" zoomAndPan="magnify"><defs/><g><!--cluster raft--><g class="cluster" data-entity="raft" data-source-line="13" data-uid="ent0002" id="cluster_raft"><rect fill="#FFFFE0" height="983" rx="2.5" ry="2.5" style="stroke:#FF0000;stroke-width:1;" width="1282" x="12" y="12"/><text fill="#000000" font-family="Verdana" font-size="14" font-weight="bold" lengthAdjust="spacing" textLength="28.6016" x="638.6992" y="28.0752">raft</text></g><!--cluster N5--><g class="cluster" data-entity="N5" data-source-line="14" data-uid="ent0003" id="cluster_N5"><polygon fill="#ADD8E6" points="286,285,296,275,500,275,500,953,490,963,286,963,286,285" style="stroke:#000000;stroke-width:1;"/><line style="stroke:#000000;stroke-width:1;" x1="490" x2="500" y1="285" y2="275"/><line style="stroke:#000000;stroke-width:1;" x1="286" x2="490" y1="285" y2="285"/><line style="stroke:#000000;stroke-width:1;" x1="490" x2="490" y1="285" y2="963"/><text fill="#000000" font-family="Verdana" font-size="14" font-weight="bold" lengthAdjust="spacing" textLength="138.373" x="319.8135" y="302.0752">Node5 [Follower]</text></g><!--cluster N4--><g class="cluster" data-entity="N4" data-source-line="26" data-uid="ent0013" id="cluster_N4"><polygon fill="#ADD8E6" points="540,285,550,275,754,275,754,953,744,963,540,963,540,285" style="stroke:#000000;stroke-width:1;"/><line style="stroke:#000000;stroke-width:1;" x1="744" x2="754" y1="285" y2="275"/><line style="stroke:#000000;stroke-width:1;" x1="540" x2="744" y1="285" y2="285"/><line style="stroke:#000000;stroke-width:1;" x1="744" x2="744" y1="285" y2="963"/><text fill="#000000" font-family="Verdana" font-size="14" font-weight="bold" lengthAdjust="spacing" textLength="138.373" x="573.8135" y="302.0752">Node4 [Follower]</text></g><!--cluster N3--><g class="cluster" data-entity="N3" data-source-line="38" data-uid="ent0023" id="cluster_N3"><polygon fill="#808080" points="794,293.5,804,283.5,1008,283.5,1008,944.5,998,954.5,794,954.5,794,293.5" style="stroke:#000000;stroke-width:1;"/><line style="stroke:#000000;stroke-width:1;" x1="998" x2="1008" y1="293.5" y2="283.5"/><line style="stroke:#000000;stroke-width:1;" x1="794" x2="998" y1="293.5" y2="293.5"/><line style="stroke:#000000;stroke-width:1;" x1="998" x2="998" y1="293.5" y2="954.5"/><text fill="#000000" font-family="Verdana" font-size="14" font-weight="bold" lengthAdjust="spacing" textLength="138.373" x="827.8135" y="310.5752">Node3 [Follower]</text></g><!--cluster N2--><g class="cluster" data-entity="N2" data-source-line="50" data-uid="ent0033" id="cluster_N2"><polygon fill="#ADD8E6" points="1048,285,1058,275,1262,275,1262,953,1252,963,1048,963,1048,285" style="stroke:#000000;stroke-width:1;"/><line style="stroke:#000000;stroke-width:1;" x1="1252" x2="1262" y1="285" y2="275"/><line style="stroke:#000000;stroke-width:1;" x1="1048" x2="1252" y1="285" y2="285"/><line style="stroke:#000000;stroke-width:1;" x1="1252" x2="1252" y1="285" y2="963"/><text fill="#000000" font-family="Verdana" font-size="14" font-weight="bold" lengthAdjust="spacing" textLength="138.373" x="1081.8135" y="302.0752">Node2 [Follower]</text></g><!--cluster N1--><g class="cluster" data-entity="N1" data-source-line="62" data-uid="ent0043" id="cluster_N1"><polygon fill="#ADD8E6" points="44,74,54,64,246,64,246,783,236,793,44,793,44,74" style="stroke:#000000;stroke-width:1;"/><line style="stroke:#000000;stroke-width:1;" x1="236" x2="246" y1="74" y2="64"/><line style="stroke:#000000;stroke-width:1;" x1="44" x2="236" y1="74" y2="74"/><line style="stroke:#000000;stroke-width:1;" x1="236" x2="236" y1="74" y2="793"/><text fill="#000000" font-family="Verdana" font-size="14" font-weight="bold" lengthAdjust="spacing" textLength="124.1201" x="78.9399" y="91.0752">Node1 [Leader]</text></g><!--entity N5_1--><g class="entity" data-entity="N5_1" data-source-line="15" data-uid="ent0004" id="entity_N5_1"><rect fill="#FFFFFF" height="91.0586" rx="2.5" ry="2.5" style="stroke:#000000;stroke-width:1;" width="78.501" x="357.5" y="324"/><polygon fill="#FFFFFF" points="419.001,329,419.001,343,431.001,343,431.001,335,425.001,329,419.001,329" style="stroke:#000000;stroke-width:1;"/><line style="stroke:#000000;stroke-width:1;" x1="425.001" x2="425.001" y1="329" y2="335"/><line style="stroke:#000000;stroke-width:1;" x1="431.001" x2="425.001" y1="335" y2="335"/><text fill="#000000" font-family="Verdana" font-size="14" lengthAdjust="spacing" textLength="42.8271" x="367.5" y="351.0752">Log=[</text><text fill="#000000" font-family="Verdana" font-size="14" lengthAdjust="spacing" textLength="33.7354" x="377.3438" y="368.0898">x=2,</text><text fill="#000000" font-family="Verdana" font-size="14" lengthAdjust="spacing" textLength="33.7354" x="377.3438" y="385.1045">y=2,</text><text fill="#000000" font-family="Verdana" font-size="14" lengthAdjust="spacing" textLength="6.3574" x="367.5" y="402.1191">]</text></g><!--entity N5_2--><g class="entity" data-entity="N5_2" data-source-line="16" data-uid="ent0005" id="entity_N5_2"><rect fill="#FFFFFF" height="40.0146" rx="2.5" ry="2.5" style="stroke:#000000;stroke-width:1;" width="86.916" x="353.5" y="476"/><polygon fill="#FFFFFF" points="423.416,481,423.416,495,435.416,495,435.416,487,429.416,481,423.416,481" style="stroke:#000000;stroke-width:1;"/><line style="stroke:#000000;stroke-width:1;" x1="429.416" x2="429.416" y1="481" y2="487"/><line style="stroke:#000000;stroke-width:1;" x1="435.416" x2="429.416" y1="487" y2="487"/><text fill="#000000" font-family="Verdana" font-size="14" lengthAdjust="spacing" textLength="56.916" x="363.5" y="503.0752">Term=2</text></g><!--entity N5_3--><g class="entity" data-entity="N5_3" data-source-line="17" data-uid="ent0006" id="entity_N5_3"><rect fill="#FFFFFF" height="40.0146" rx="2.5" ry="2.5" style="stroke:#000000;stroke-width:1;" width="145.3223" x="324.5" y="577"/><polygon fill="#FFFFFF" points="452.8223,582,452.8223,596,464.8223,596,464.8223,588,458.8223,582,452.8223,582" style="stroke:#000000;stroke-width:1;"/><line style="stroke:#000000;stroke-width:1;" x1="458.8223" x2="458.8223" y1="582" y2="588"/><line style="stroke:#000000;stroke-width:1;" x1="464.8223" x2="458.8223" y1="588" y2="588"/><text fill="#000000" font-family="Verdana" font-size="14" lengthAdjust="spacing" textLength="115.3223" x="334.5" y="604.0752">CommitIndex=4</text></g><!--entity N5_4--><g class="entity" data-entity="N5_4" data-source-line="18" data-uid="ent0007" id="entity_N5_4"><rect fill="#FFFFFF" height="40.0146" rx="2.5" ry="2.5" style="stroke:#000000;stroke-width:1;" width="129.5996" x="332" y="703.5"/><polygon fill="#FFFFFF" points="444.5996,708.5,444.5996,722.5,456.5996,722.5,456.5996,714.5,450.5996,708.5,444.5996,708.5" style="stroke:#000000;stroke-width:1;"/><line style="stroke:#000000;stroke-width:1;" x1="450.5996" x2="450.5996" y1="708.5" y2="714.5"/><line style="stroke:#000000;stroke-width:1;" x1="456.5996" x2="450.5996" y1="714.5" y2="714.5"/><text fill="#000000" font-family="Verdana" font-size="14" lengthAdjust="spacing" textLength="99.5996" x="342" y="730.5752">ApplyIndex=4</text></g><!--entity N5_5--><g class="entity" data-entity="N5_5" data-source-line="19" data-uid="ent0008" id="entity_N5_5"><rect fill="#FFFFFF" height="91.0586" rx="2.5" ry="2.5" style="stroke:#000000;stroke-width:1;" width="87.6953" x="353" y="848"/><polygon fill="#FFFFFF" points="423.6953,853,423.6953,867,435.6953,867,435.6953,859,429.6953,853,423.6953,853" style="stroke:#000000;stroke-width:1;"/><line style="stroke:#000000;stroke-width:1;" x1="429.6953" x2="429.6953" y1="853" y2="859"/><line style="stroke:#000000;stroke-width:1;" x1="435.6953" x2="429.6953" y1="859" y2="859"/><text fill="#000000" font-family="Verdana" font-size="14" lengthAdjust="spacing" textLength="57.6953" x="363" y="875.0752">State={</text><text fill="#000000" font-family="Verdana" font-size="14" lengthAdjust="spacing" textLength="33.5576" x="377.7656" y="892.0898">x: 2,</text><text fill="#000000" font-family="Verdana" font-size="14" lengthAdjust="spacing" textLength="33.5576" x="377.7656" y="909.1045">y: 2,</text><text fill="#000000" font-family="Verdana" font-size="14" lengthAdjust="spacing" textLength="8.8867" x="363" y="926.1191">}</text></g><!--entity N4_1--><g class="entity" data-entity="N4_1" data-source-line="27" data-uid="ent0014" id="entity_N4_1"><rect fill="#FFFFFF" height="91.0586" rx="2.5" ry="2.5" style="stroke:#000000;stroke-width:1;" width="78.501" x="611.5" y="324"/><polygon fill="#FFFFFF" points="673.001,329,673.001,343,685.001,343,685.001,335,679.001,329,673.001,329" style="stroke:#000000;stroke-width:1;"/><line style="stroke:#000000;stroke-width:1;" x1="679.001" x2="679.001" y1="329" y2="335"/><line style="stroke:#000000;stroke-width:1;" x1="685.001" x2="679.001" y1="335" y2="335"/><text fill="#000000" font-family="Verdana" font-size="14" lengthAdjust="spacing" textLength="42.8271" x="621.5" y="351.0752">Log=[</text><text fill="#000000" font-family="Verdana" font-size="14" lengthAdjust="spacing" textLength="33.7354" x="631.3438" y="368.0898">x=2,</text><text fill="#000000" font-family="Verdana" font-size="14" lengthAdjust="spacing" textLength="33.7354" x="631.3438" y="385.1045">y=2,</text><text fill="#000000" font-family="Verdana" font-size="14" lengthAdjust="spacing" textLength="6.3574" x="621.5" y="402.1191">]</text></g><!--entity N4_2--><g class="entity" data-entity="N4_2" data-source-line="28" data-uid="ent0015" id="entity_N4_2"><rect fill="#FFFFFF" height="40.0146" rx="2.5" ry="2.5" style="stroke:#000000;stroke-width:1;" width="86.916" x="607.5" y="476"/><polygon fill="#FFFFFF" points="677.416,481,677.416,495,689.416,495,689.416,487,683.416,481,677.416,481" style="stroke:#000000;stroke-width:1;"/><line style="stroke:#000000;stroke-width:1;" x1="683.416" x2="683.416" y1="481" y2="487"/><line style="stroke:#000000;stroke-width:1;" x1="689.416" x2="683.416" y1="487" y2="487"/><text fill="#000000" font-family="Verdana" font-size="14" lengthAdjust="spacing" textLength="56.916" x="617.5" y="503.0752">Term=2</text></g><!--entity N4_3--><g class="entity" data-entity="N4_3" data-source-line="29" data-uid="ent0016" id="entity_N4_3"><rect fill="#FFFFFF" height="40.0146" rx="2.5" ry="2.5" style="stroke:#000000;stroke-width:1;" width="145.3223" x="578.5" y="577"/><polygon fill="#FFFFFF" points="706.8223,582,706.8223,596,718.8223,596,718.8223,588,712.8223,582,706.8223,582" style="stroke:#000000;stroke-width:1;"/><line style="stroke:#000000;stroke-width:1;" x1="712.8223" x2="712.8223" y1="582" y2="588"/><line style="stroke:#000000;stroke-width:1;" x1="718.8223" x2="712.8223" y1="588" y2="588"/><text fill="#000000" font-family="Verdana" font-size="14" lengthAdjust="spacing" textLength="115.3223" x="588.5" y="604.0752">CommitIndex=4</text></g><!--entity N4_4--><g class="entity" data-entity="N4_4" data-source-line="30" data-uid="ent0017" id="entity_N4_4"><rect fill="#FFFFFF" height="40.0146" rx="2.5" ry="2.5" style="stroke:#000000;stroke-width:1;" width="129.5996" x="586" y="703.5"/><polygon fill="#FFFFFF" points="698.5996,708.5,698.5996,722.5,710.5996,722.5,710.5996,714.5,704.5996,708.5,698.5996,708.5" style="stroke:#000000;stroke-width:1;"/><line style="stroke:#000000;stroke-width:1;" x1="704.5996" x2="704.5996" y1="708.5" y2="714.5"/><line style="stroke:#000000;stroke-width:1;" x1="710.5996" x2="704.5996" y1="714.5" y2="714.5"/><text fill="#000000" font-family="Verdana" font-size="14" lengthAdjust="spacing" textLength="99.5996" x="596" y="730.5752">ApplyIndex=4</text></g><!--entity N4_5--><g class="entity" data-entity="N4_5" data-source-line="31" data-uid="ent0018" id="entity_N4_5"><rect fill="#FFFFFF" height="91.0586" rx="2.5" ry="2.5" style="stroke:#000000;stroke-width:1;" width="87.6953" x="607" y="848"/><polygon fill="#FFFFFF" points="677.6953,853,677.6953,867,689.6953,867,689.6953,859,683.6953,853,677.6953,853" style="stroke:#000000;stroke-width:1;"/><line style="stroke:#000000;stroke-width:1;" x1="683.6953" x2="683.6953" y1="853" y2="859"/><line style="stroke:#000000;stroke-width:1;" x1="689.6953" x2="683.6953" y1="859" y2="859"/><text fill="#000000" font-family="Verdana" font-size="14" lengthAdjust="spacing" textLength="57.6953" x="617" y="875.0752">State={</text><text fill="#000000" font-family="Verdana" font-size="14" lengthAdjust="spacing" textLength="33.5576" x="631.7656" y="892.0898">x: 2,</text><text fill="#000000" font-family="Verdana" font-size="14" lengthAdjust="spacing" textLength="33.5576" x="631.7656" y="909.1045">y: 2,</text><text fill="#000000" font-family="Verdana" font-size="14" lengthAdjust="spacing" textLength="8.8867" x="617" y="926.1191">}</text></g><!--entity N3_1--><g class="entity" data-entity="N3_1" data-source-line="39" data-uid="ent0024" id="entity_N3_1"><rect fill="#FFFFFF" height="74.0439" rx="2.5" ry="2.5" style="stroke:#000000;stroke-width:1;" width="78.501" x="865.5" y="332.5"/><polygon fill="#FFFFFF" points="927.001,337.5,927.001,351.5,939.001,351.5,939.001,343.5,933.001,337.5,927.001,337.5" style="stroke:#000000;stroke-width:1;"/><line style="stroke:#000000;stroke-width:1;" x1="933.001" x2="933.001" y1="337.5" y2="343.5"/><line style="stroke:#000000;stroke-width:1;" x1="939.001" x2="933.001" y1="343.5" y2="343.5"/><text fill="#000000" font-family="Verdana" font-size="14" lengthAdjust="spacing" textLength="42.8271" x="875.5" y="359.5752">Log=[</text><text fill="#000000" font-family="Verdana" font-size="14" lengthAdjust="spacing" textLength="33.7354" x="885.3438" y="376.5898">x=1,</text><text fill="#000000" font-family="Verdana" font-size="14" lengthAdjust="spacing" textLength="6.3574" x="875.5" y="393.6045">]</text></g><!--entity N3_2--><g class="entity" data-entity="N3_2" data-source-line="40" data-uid="ent0025" id="entity_N3_2"><rect fill="#FFFFFF" height="40.0146" rx="2.5" ry="2.5" style="stroke:#000000;stroke-width:1;" width="86.916" x="861.5" y="476"/><polygon fill="#FFFFFF" points="931.416,481,931.416,495,943.416,495,943.416,487,937.416,481,931.416,481" style="stroke:#000000;stroke-width:1;"/><line style="stroke:#000000;stroke-width:1;" x1="937.416" x2="937.416" y1="481" y2="487"/><line style="stroke:#000000;stroke-width:1;" x1="943.416" x2="937.416" y1="487" y2="487"/><text fill="#000000" font-family="Verdana" font-size="14" lengthAdjust="spacing" textLength="56.916" x="871.5" y="503.0752">Term=1</text></g><!--entity N3_3--><g class="entity" data-entity="N3_3" data-source-line="41" data-uid="ent0026" id="entity_N3_3"><rect fill="#FFFFFF" height="40.0146" rx="2.5" ry="2.5" style="stroke:#000000;stroke-width:1;" width="145.3223" x="832.5" y="577"/><polygon fill="#FFFFFF" points="960.8223,582,960.8223,596,972.8223,596,972.8223,588,966.8223,582,960.8223,582" style="stroke:#000000;stroke-width:1;"/><line style="stroke:#000000;stroke-width:1;" x1="966.8223" x2="966.8223" y1="582" y2="588"/><line style="stroke:#000000;stroke-width:1;" x1="972.8223" x2="966.8223" y1="588" y2="588"/><text fill="#000000" font-family="Verdana" font-size="14" lengthAdjust="spacing" textLength="115.3223" x="842.5" y="604.0752">CommitIndex=1</text></g><!--entity N3_4--><g class="entity" data-entity="N3_4" data-source-line="42" data-uid="ent0027" id="entity_N3_4"><rect fill="#FFFFFF" height="40.0146" rx="2.5" ry="2.5" style="stroke:#000000;stroke-width:1;" width="129.5996" x="840" y="703.5"/><polygon fill="#FFFFFF" points="952.5996,708.5,952.5996,722.5,964.5996,722.5,964.5996,714.5,958.5996,708.5,952.5996,708.5" style="stroke:#000000;stroke-width:1;"/><line style="stroke:#000000;stroke-width:1;" x1="958.5996" x2="958.5996" y1="708.5" y2="714.5"/><line style="stroke:#000000;stroke-width:1;" x1="964.5996" x2="958.5996" y1="714.5" y2="714.5"/><text fill="#000000" font-family="Verdana" font-size="14" lengthAdjust="spacing" textLength="99.5996" x="850" y="730.5752">ApplyIndex=1</text></g><!--entity N3_5--><g class="entity" data-entity="N3_5" data-source-line="43" data-uid="ent0028" id="entity_N3_5"><rect fill="#FFFFFF" height="74.0439" rx="2.5" ry="2.5" style="stroke:#000000;stroke-width:1;" width="87.6953" x="861" y="856.5"/><polygon fill="#FFFFFF" points="931.6953,861.5,931.6953,875.5,943.6953,875.5,943.6953,867.5,937.6953,861.5,931.6953,861.5" style="stroke:#000000;stroke-width:1;"/><line style="stroke:#000000;stroke-width:1;" x1="937.6953" x2="937.6953" y1="861.5" y2="867.5"/><line style="stroke:#000000;stroke-width:1;" x1="943.6953" x2="937.6953" y1="867.5" y2="867.5"/><text fill="#000000" font-family="Verdana" font-size="14" lengthAdjust="spacing" textLength="57.6953" x="871" y="883.5752">State={</text><text fill="#000000" font-family="Verdana" font-size="14" lengthAdjust="spacing" textLength="33.5576" x="885.7656" y="900.5898">x: 1,</text><text fill="#000000" font-family="Verdana" font-size="14" lengthAdjust="spacing" textLength="8.8867" x="871" y="917.6045">}</text></g><!--entity N2_1--><g class="entity" data-entity="N2_1" data-source-line="51" data-uid="ent0034" id="entity_N2_1"><rect fill="#FFFFFF" height="91.0586" rx="2.5" ry="2.5" style="stroke:#000000;stroke-width:1;" width="78.501" x="1119.5" y="324"/><polygon fill="#FFFFFF" points="1181.001,329,1181.001,343,1193.001,343,1193.001,335,1187.001,329,1181.001,329" style="stroke:#000000;stroke-width:1;"/><line style="stroke:#000000;stroke-width:1;" x1="1187.001" x2="1187.001" y1="329" y2="335"/><line style="stroke:#000000;stroke-width:1;" x1="1193.001" x2="1187.001" y1="335" y2="335"/><text fill="#000000" font-family="Verdana" font-size="14" lengthAdjust="spacing" textLength="42.8271" x="1129.5" y="351.0752">Log=[</text><text fill="#000000" font-family="Verdana" font-size="14" lengthAdjust="spacing" textLength="33.7354" x="1139.3438" y="368.0898">x=2,</text><text fill="#000000" font-family="Verdana" font-size="14" lengthAdjust="spacing" textLength="33.7354" x="1139.3438" y="385.1045">y=2,</text><text fill="#000000" font-family="Verdana" font-size="14" lengthAdjust="spacing" textLength="6.3574" x="1129.5" y="402.1191">]</text></g><!--entity N2_2--><g class="entity" data-entity="N2_2" data-source-line="52" data-uid="ent0035" id="entity_N2_2"><rect fill="#FFFFFF" height="40.0146" rx="2.5" ry="2.5" style="stroke:#000000;stroke-width:1;" width="86.916" x="1115.5" y="476"/><polygon fill="#FFFFFF" points="1185.416,481,1185.416,495,1197.416,495,1197.416,487,1191.416,481,1185.416,481" style="stroke:#000000;stroke-width:1;"/><line style="stroke:#000000;stroke-width:1;" x1="1191.416" x2="1191.416" y1="481" y2="487"/><line style="stroke:#000000;stroke-width:1;" x1="1197.416" x2="1191.416" y1="487" y2="487"/><text fill="#000000" font-family="Verdana" font-size="14" lengthAdjust="spacing" textLength="56.916" x="1125.5" y="503.0752">Term=2</text></g><!--entity N2_3--><g class="entity" data-entity="N2_3" data-source-line="53" data-uid="ent0036" id="entity_N2_3"><rect fill="#FFFFFF" height="40.0146" rx="2.5" ry="2.5" style="stroke:#000000;stroke-width:1;" width="145.3223" x="1086.5" y="577"/><polygon fill="#FFFFFF" points="1214.8223,582,1214.8223,596,1226.8223,596,1226.8223,588,1220.8223,582,1214.8223,582" style="stroke:#000000;stroke-width:1;"/><line style="stroke:#000000;stroke-width:1;" x1="1220.8223" x2="1220.8223" y1="582" y2="588"/><line style="stroke:#000000;stroke-width:1;" x1="1226.8223" x2="1220.8223" y1="588" y2="588"/><text fill="#000000" font-family="Verdana" font-size="14" lengthAdjust="spacing" textLength="115.3223" x="1096.5" y="604.0752">CommitIndex=4</text></g><!--entity N2_4--><g class="entity" data-entity="N2_4" data-source-line="54" data-uid="ent0037" id="entity_N2_4"><rect fill="#FFFFFF" height="40.0146" rx="2.5" ry="2.5" style="stroke:#000000;stroke-width:1;" width="129.5996" x="1094" y="703.5"/><polygon fill="#FFFFFF" points="1206.5996,708.5,1206.5996,722.5,1218.5996,722.5,1218.5996,714.5,1212.5996,708.5,1206.5996,708.5" style="stroke:#000000;stroke-width:1;"/><line style="stroke:#000000;stroke-width:1;" x1="1212.5996" x2="1212.5996" y1="708.5" y2="714.5"/><line style="stroke:#000000;stroke-width:1;" x1="1218.5996" x2="1212.5996" y1="714.5" y2="714.5"/><text fill="#000000" font-family="Verdana" font-size="14" lengthAdjust="spacing" textLength="99.5996" x="1104" y="730.5752">ApplyIndex=4</text></g><!--entity N2_5--><g class="entity" data-entity="N2_5" data-source-line="55" data-uid="ent0038" id="entity_N2_5"><rect fill="#FFFFFF" height="91.0586" rx="2.5" ry="2.5" style="stroke:#000000;stroke-width:1;" width="87.6953" x="1115" y="848"/><polygon fill="#FFFFFF" points="1185.6953,853,1185.6953,867,1197.6953,867,1197.6953,859,1191.6953,853,1185.6953,853" style="stroke:#000000;stroke-width:1;"/><line style="stroke:#000000;stroke-width:1;" x1="1191.6953" x2="1191.6953" y1="853" y2="859"/><line style="stroke:#000000;stroke-width:1;" x1="1197.6953" x2="1191.6953" y1="859" y2="859"/><text fill="#000000" font-family="Verdana" font-size="14" lengthAdjust="spacing" textLength="57.6953" x="1125" y="875.0752">State={</text><text fill="#000000" font-family="Verdana" font-size="14" lengthAdjust="spacing" textLength="33.5576" x="1139.7656" y="892.0898">x: 2,</text><text fill="#000000" font-family="Verdana" font-size="14" lengthAdjust="spacing" textLength="33.5576" x="1139.7656" y="909.1045">y: 2,</text><text fill="#000000" font-family="Verdana" font-size="14" lengthAdjust="spacing" textLength="8.8867" x="1125" y="926.1191">}</text></g><!--entity N1_1--><g class="entity" data-entity="N1_1" data-source-line="63" data-uid="ent0044" id="entity_N1_1"><rect fill="#FFFFFF" height="91.0586" rx="2.5" ry="2.5" style="stroke:#000000;stroke-width:1;" width="78.501" x="101.5" y="113"/><polygon fill="#FFFFFF" points="163.001,118,163.001,132,175.001,132,175.001,124,169.001,118,163.001,118" style="stroke:#000000;stroke-width:1;"/><line style="stroke:#000000;stroke-width:1;" x1="169.001" x2="169.001" y1="118" y2="124"/><line style="stroke:#000000;stroke-width:1;" x1="175.001" x2="169.001" y1="124" y2="124"/><text fill="#000000" font-family="Verdana" font-size="14" lengthAdjust="spacing" textLength="42.8271" x="111.5" y="140.0752">Log=[</text><text fill="#000000" font-family="Verdana" font-size="14" lengthAdjust="spacing" textLength="33.7354" x="121.3438" y="157.0898">x=2,</text><text fill="#000000" font-family="Verdana" font-size="14" lengthAdjust="spacing" textLength="33.7354" x="121.3438" y="174.1045">y=2,</text><text fill="#000000" font-family="Verdana" font-size="14" lengthAdjust="spacing" textLength="6.3574" x="111.5" y="191.1191">]</text></g><!--entity N1_2--><g class="entity" data-entity="N1_2" data-source-line="64" data-uid="ent0045" id="entity_N1_2"><rect fill="#FFFFFF" height="40.0146" rx="2.5" ry="2.5" style="stroke:#000000;stroke-width:1;" width="86.916" x="97.5" y="349.5"/><polygon fill="#FFFFFF" points="167.416,354.5,167.416,368.5,179.416,368.5,179.416,360.5,173.416,354.5,167.416,354.5" style="stroke:#000000;stroke-width:1;"/><line style="stroke:#000000;stroke-width:1;" x1="173.416" x2="173.416" y1="354.5" y2="360.5"/><line style="stroke:#000000;stroke-width:1;" x1="179.416" x2="173.416" y1="360.5" y2="360.5"/><text fill="#000000" font-family="Verdana" font-size="14" lengthAdjust="spacing" textLength="56.916" x="107.5" y="376.5752">Term=2</text></g><!--entity N1_3--><g class="entity" data-entity="N1_3" data-source-line="65" data-uid="ent0046" id="entity_N1_3"><rect fill="#FFFFFF" height="40.0146" rx="2.5" ry="2.5" style="stroke:#000000;stroke-width:1;" width="145.3223" x="68.5" y="476"/><polygon fill="#FFFFFF" points="196.8223,481,196.8223,495,208.8223,495,208.8223,487,202.8223,481,196.8223,481" style="stroke:#000000;stroke-width:1;"/><line style="stroke:#000000;stroke-width:1;" x1="202.8223" x2="202.8223" y1="481" y2="487"/><line style="stroke:#000000;stroke-width:1;" x1="208.8223" x2="202.8223" y1="487" y2="487"/><text fill="#000000" font-family="Verdana" font-size="14" lengthAdjust="spacing" textLength="115.3223" x="78.5" y="503.0752">CommitIndex=4</text></g><!--entity N1_4--><g class="entity" data-entity="N1_4" data-source-line="66" data-uid="ent0047" id="entity_N1_4"><rect fill="#FFFFFF" height="40.0146" rx="2.5" ry="2.5" style="stroke:#000000;stroke-width:1;" width="129.5996" x="76" y="577"/><polygon fill="#FFFFFF" points="188.5996,582,188.5996,596,200.5996,596,200.5996,588,194.5996,582,188.5996,582" style="stroke:#000000;stroke-width:1;"/><line style="stroke:#000000;stroke-width:1;" x1="194.5996" x2="194.5996" y1="582" y2="588"/><line style="stroke:#000000;stroke-width:1;" x1="200.5996" x2="194.5996" y1="588" y2="588"/><text fill="#000000" font-family="Verdana" font-size="14" lengthAdjust="spacing" textLength="99.5996" x="86" y="604.0752">ApplyIndex=4</text></g><!--entity N1_5--><g class="entity" data-entity="N1_5" data-source-line="67" data-uid="ent0048" id="entity_N1_5"><rect fill="#FFFFFF" height="91.0586" rx="2.5" ry="2.5" style="stroke:#000000;stroke-width:1;" width="87.6953" x="97" y="678"/><polygon fill="#FFFFFF" points="167.6953,683,167.6953,697,179.6953,697,179.6953,689,173.6953,683,167.6953,683" style="stroke:#000000;stroke-width:1;"/><line style="stroke:#000000;stroke-width:1;" x1="173.6953" x2="173.6953" y1="683" y2="689"/><line style="stroke:#000000;stroke-width:1;" x1="179.6953" x2="173.6953" y1="689" y2="689"/><text fill="#000000" font-family="Verdana" font-size="14" lengthAdjust="spacing" textLength="57.6953" x="107" y="705.0752">State={</text><text fill="#000000" font-family="Verdana" font-size="14" lengthAdjust="spacing" textLength="33.5576" x="121.7656" y="722.0898">x: 2,</text><text fill="#000000" font-family="Verdana" font-size="14" lengthAdjust="spacing" textLength="33.5576" x="121.7656" y="739.1045">y: 2,</text><text fill="#000000" font-family="Verdana" font-size="14" lengthAdjust="spacing" textLength="8.8867" x="107" y="756.1191">}</text></g><!--link N5_1 to N5_2--><g class="link" data-entity-1="N5_1" data-entity-2="N5_2" data-source-line="21" data-uid="lnk9" id="link_N5_1_N5_2"><path d="M397,415.1 C397,435.89 397,459.55 397,475.69" fill="none" id="N5_1-N5_2" style="stroke:#000000;stroke-width:1;"/></g><!--link N5_2 to N5_3--><g class="link" data-entity-1="N5_2" data-entity-2="N5_3" data-source-line="22" data-uid="lnk10" id="link_N5_2_N5_3"><path d="M397,516.09 C397,533.62 397,559.46 397,576.97" fill="none" id="N5_2-N5_3" style="stroke:#000000;stroke-width:1;"/></g><!--link N5_3 to N5_4--><g class="link" data-entity-1="N5_3" data-entity-2="N5_4" data-source-line="23" data-uid="lnk11" id="link_N5_3_N5_4"><path d="M397,617.18 C397,640.51 397,679.66 397,703.09" fill="none" id="N5_3-N5_4" style="stroke:#000000;stroke-width:1;"/></g><!--link N5_4 to N5_5--><g class="link" data-entity-1="N5_4" data-entity-2="N5_5" data-source-line="24" data-uid="lnk12" id="link_N5_4_N5_5"><path d="M397,743.77 C397,768.94 397,813.77 397,847.66" fill="none" id="N5_4-N5_5" style="stroke:#000000;stroke-width:1;"/></g><!--link N4_1 to N4_2--><g class="link" data-entity-1="N4_1" data-entity-2="N4_2" data-source-line="33" data-uid="lnk19" id="link_N4_1_N4_2"><path d="M651,415.1 C651,435.89 651,459.55 651,475.69" fill="none" id="N4_1-N4_2" style="stroke:#000000;stroke-width:1;"/></g><!--link N4_2 to N4_3--><g class="link" data-entity-1="N4_2" data-entity-2="N4_3" data-source-line="34" data-uid="lnk20" id="link_N4_2_N4_3"><path d="M651,516.09 C651,533.62 651,559.46 651,576.97" fill="none" id="N4_2-N4_3" style="stroke:#000000;stroke-width:1;"/></g><!--link N4_3 to N4_4--><g class="link" data-entity-1="N4_3" data-entity-2="N4_4" data-source-line="35" data-uid="lnk21" id="link_N4_3_N4_4"><path d="M651,617.18 C651,640.51 651,679.66 651,703.09" fill="none" id="N4_3-N4_4" style="stroke:#000000;stroke-width:1;"/></g><!--link N4_4 to N4_5--><g class="link" data-entity-1="N4_4" data-entity-2="N4_5" data-source-line="36" data-uid="lnk22" id="link_N4_4_N4_5"><path d="M651,743.77 C651,768.94 651,813.77 651,847.66" fill="none" id="N4_4-N4_5" style="stroke:#000000;stroke-width:1;"/></g><!--link N3_1 to N3_2--><g class="link" data-entity-1="N3_1" data-entity-2="N3_2" data-source-line="45" data-uid="lnk29" id="link_N3_1_N3_2"><path d="M905,406.51 C905,429.06 905,457.23 905,475.65" fill="none" id="N3_1-N3_2" style="stroke:#000000;stroke-width:1;"/></g><!--link N3_2 to N3_3--><g class="link" data-entity-1="N3_2" data-entity-2="N3_3" data-source-line="46" data-uid="lnk30" id="link_N3_2_N3_3"><path d="M905,516.09 C905,533.62 905,559.46 905,576.97" fill="none" id="N3_2-N3_3" style="stroke:#000000;stroke-width:1;"/></g><!--link N3_3 to N3_4--><g class="link" data-entity-1="N3_3" data-entity-2="N3_4" data-source-line="47" data-uid="lnk31" id="link_N3_3_N3_4"><path d="M905,617.18 C905,640.51 905,679.66 905,703.09" fill="none" id="N3_3-N3_4" style="stroke:#000000;stroke-width:1;"/></g><!--link N3_4 to N3_5--><g class="link" data-entity-1="N3_4" data-entity-2="N3_5" data-source-line="48" data-uid="lnk32" id="link_N3_4_N3_5"><path d="M905,743.77 C905,771.18 905,821.91 905,856.43" fill="none" id="N3_4-N3_5" style="stroke:#000000;stroke-width:1;"/></g><!--link N2_1 to N2_2--><g class="link" data-entity-1="N2_1" data-entity-2="N2_2" data-source-line="57" data-uid="lnk39" id="link_N2_1_N2_2"><path d="M1159,415.1 C1159,435.89 1159,459.55 1159,475.69" fill="none" id="N2_1-N2_2" style="stroke:#000000;stroke-width:1;"/></g><!--link N2_2 to N2_3--><g class="link" data-entity-1="N2_2" data-entity-2="N2_3" data-source-line="58" data-uid="lnk40" id="link_N2_2_N2_3"><path d="M1159,516.09 C1159,533.62 1159,559.46 1159,576.97" fill="none" id="N2_2-N2_3" style="stroke:#000000;stroke-width:1;"/></g><!--link N2_3 to N2_4--><g class="link" data-entity-1="N2_3" data-entity-2="N2_4" data-source-line="59" data-uid="lnk41" id="link_N2_3_N2_4"><path d="M1159,617.18 C1159,640.51 1159,679.66 1159,703.09" fill="none" id="N2_3-N2_4" style="stroke:#000000;stroke-width:1;"/></g><!--link N2_4 to N2_5--><g class="link" data-entity-1="N2_4" data-entity-2="N2_5" data-source-line="60" data-uid="lnk42" id="link_N2_4_N2_5"><path d="M1159,743.77 C1159,768.94 1159,813.77 1159,847.66" fill="none" id="N2_4-N2_5" style="stroke:#000000;stroke-width:1;"/></g><!--link N1_1 to N1_2--><g class="link" data-entity-1="N1_1" data-entity-2="N1_2" data-source-line="69" data-uid="lnk49" id="link_N1_1_N1_2"><path d="M141,204.08 C141,249.16 141,316.7 141,349.4" fill="none" id="N1_1-N1_2" style="stroke:#000000;stroke-width:1;"/></g><!--link N1_2 to N1_3--><g class="link" data-entity-1="N1_2" data-entity-2="N1_3" data-source-line="70" data-uid="lnk50" id="link_N1_2_N1_3"><path d="M141,389.68 C141,413.01 141,452.16 141,475.59" fill="none" id="N1_2-N1_3" style="stroke:#000000;stroke-width:1;"/></g><!--link N1_3 to N1_4--><g class="link" data-entity-1="N1_3" data-entity-2="N1_4" data-source-line="71" data-uid="lnk51" id="link_N1_3_N1_4"><path d="M141,516.09 C141,533.62 141,559.46 141,576.97" fill="none" id="N1_3-N1_4" style="stroke:#000000;stroke-width:1;"/></g><!--link N1_4 to N1_5--><g class="link" data-entity-1="N1_4" data-entity-2="N1_5" data-source-line="72" data-uid="lnk52" id="link_N1_4_N1_5"><path d="M141,617.18 C141,633.35 141,657.11 141,677.98" fill="none" id="N1_4-N1_5" style="stroke:#000000;stroke-width:1;"/></g><!--link N1 to N2--><g class="link" data-entity-1="N1" data-entity-2="N2" data-source-line="75" data-uid="lnk53" id="link_N1_N2"><path d="M246.6298,159.598 C251.6304,159.6651 258.7051,159.7734 267.5939,159.9433 C285.3713,160.283 310.4048,160.8688 340.6141,161.8633 C401.0325,163.8522 482.1538,167.4756 567.335,174.0338 C737.6975,187.15 924.3,212.005 994,259 C1016.825,274.39 1032.2,301.1575 1041.93,324.3738 C1043.1462,327.2758 1044.2743,330.1223 1045.3177,332.8842 C1045.8394,334.2652 1046.3399,335.625 1046.8197,336.9599 C1047.0595,337.6274 1047.2943,338.2887 1047.5238,338.9433 C1047.6386,339.2707 1045.7878,333.927 1045.9001,334.2509" fill="none" id="N1-to-N2" style="stroke:#000000;stroke-width:1;"/><polygon fill="#000000" points="1047.8644,339.9202,1048.6975,330.1067,1046.2275,335.1958,1041.1383,332.7258,1047.8644,339.9202" style="stroke:#000000;stroke-width:1;"/><text fill="#000000" font-family="Verdana" font-size="13" lengthAdjust="spacing" textLength="95.0562" x="975" y="248.0698">rpc batch sync</text></g><!--link N1 to N3--><g class="link" data-entity-1="N1" data-entity-2="N3" data-source-line="76" data-uid="lnk54" id="link_N1_N3"><path d="M246.4948,160.223 C247.4969,160.3101 248.5826,160.4052 249.7492,160.5081 C252.0823,160.7141 254.7389,160.9517 257.6973,161.2211 C269.5308,162.2986 286.1928,163.8837 306.2956,165.978 C346.5013,170.1666 400.47,176.3919 457.1,184.6663 C570.36,201.215 694.265,225.96 740,259 C762.315,275.12 777.6825,301.8975 787.5363,324.9363 C789.9997,330.6959 790.1135,330.5669 791.9102,335.6343" fill="none" id="N1-to-N3" style="stroke:#000000;stroke-width:1;"/><polygon fill="#000000" points="793.9151,341.2894,794.6777,331.4701,792.2443,336.5768,787.1376,334.1434,793.9151,341.2894" style="stroke:#000000;stroke-width:1;"/><text fill="#000000" font-family="Verdana" font-size="13" lengthAdjust="spacing" textLength="19.5127" x="721" y="248.0698">fail</text></g><!--link N1 to N4--><g class="link" data-entity-1="N1" data-entity-2="N4" data-source-line="77" data-uid="lnk55" id="link_N1_N4"><path d="M246.0944,160.7526 C246.2429,160.7771 246.3933,160.8021 246.5456,160.8275 C251.4187,161.6387 258.2148,162.8473 266.5097,164.5197 C283.0994,167.8644 305.6838,173.0637 330.8675,180.6475 C381.235,195.815 442,220.52 486,259 C506.72,277.12 522.0625,303.93 532.3025,326.4863 C534.8625,332.1253 537.1036,337.4985 539.0301,342.4036 C539.2709,343.0168 539.5068,343.6226 539.7378,344.2207 C539.7955,344.3702 537.6992,338.9191 537.7564,339.0677" fill="none" id="N1-to-N4" style="stroke:#000000;stroke-width:1;"/><polygon fill="#000000" points="539.9101,344.6678,540.4129,334.8318,538.1153,340.001,532.9461,337.7034,539.9101,344.6678" style="stroke:#000000;stroke-width:1;"/><text fill="#000000" font-family="Verdana" font-size="13" lengthAdjust="spacing" textLength="95.0562" x="475" y="248.0698">rpc batch sync</text></g><!--link N1 to N5--><g class="link" data-entity-1="N1" data-entity-2="N5" data-source-line="78" data-uid="lnk56" id="link_N1_N5"><path d="M246.0643,189.5953 C246.1414,189.883 246.2189,190.1723 246.2968,190.4632 C246.6085,191.6265 246.9269,192.8145 247.2514,194.0256 C252.4441,213.4044 259.2281,238.7225 266.0113,264.0375 C272.7944,289.3525 279.5766,314.6644 284.7655,334.0306 C285.0898,335.241 285.4079,336.4282 285.7193,337.5907 C285.7972,337.8813 284.3218,332.3748 284.3989,332.6623" fill="none" id="N1-to-N5" style="stroke:#000000;stroke-width:1;"/><polygon fill="#000000" points="285.9517,338.4579,287.4862,328.7293,284.6577,333.6282,279.7587,330.7997,285.9517,338.4579" style="stroke:#000000;stroke-width:1;"/><text fill="#000000" font-family="Verdana" font-size="13" lengthAdjust="spacing" textLength="95.0562" x="262" y="248.0698">rpc batch sync</text></g><!--SRC=[fPLDQzj048Rl-XLJzTeSTdTq2QWGfnGAneUqb-AMif7MieY-M6-8HV1_hzVswu_8YOIjmp8y- -umF0peavkRqb1JwBmAWiLJNZNQwfAiIPokiiBGQq3hRwIJfypMprLwNnUrfN6UpTrlKnJro_Q-jgcnsxi7amQhusPLdNxOPrGycqwNKR6E-Zw7KKAhPoxSTTeq3IVhCwBfzzfFOkpVaFI29j4kupzjNJxJYQDmN6Vnz4z5j8pb5_95kotmwfyuy-gNiMKiaP1d4lTrMURkHvMQPSm8gZF1kwOfsZSvFfFxwRGpyQkVa9Qtj1kMsbsvmjjeytQrEVtqTFFjvZ2aBq0KY09X40Q9WZTUkUELB_BAlLvvg5SUw9MlyCgdNXbUCQGlG1I80c4G1kbuLHslYZvdLhTzTiMHLFM-L854dzHzi4VgFZT0gZWogKvDAfZ4PBu0KI0AX44Of6DITapAYpPKzcwe7BgXSk26oYisL9vwbV2A8Nq1ea0K28CmICUheEdOw7HlLLnaLVHQ5KEjYe5MnHLMnQbL0QiOqXSW2aI1C0Y3HFxdDTaq-UeNyvPiaz2ZTicS5csL7ExK-cwcy-90-8DqrBtx3m00]--></g></svg>