<svg xmlns="http://www.w3.org/2000/svg" xmlns:xlink="http://www.w3.org/1999/xlink" contentStyleType="text/css" data-diagram-type="DESCRIPTION" height="1122px" preserveAspectRatio="none" style="width:1523px;height:1122px;background:#FFFFFF;" version="1.1" viewBox="0 0 1523 1122" width="1523px" zoomAndPan="magnify"><defs/><g><!--cluster raft--><g class="cluster" data-entity="raft" data-source-line="13" data-uid="ent0002" id="cluster_raft"><rect fill="#FFFFE0" height="1064.5" rx="2.5" ry="2.5" style="stroke:#FF0000;stroke-width:1;" width="1162" x="355" y="52.2295"/><text fill="#000000" font-family="Verdana" font-size="14" font-weight="bold" lengthAdjust="spacing" textLength="28.6016" x="921.6992" y="68.3047">raft</text></g><!--cluster N5--><g class="cluster" data-entity="N5" data-source-line="14" data-uid="ent0003" id="cluster_N5"><polygon fill="#ADD8E6" points="755,349.7295,765,339.7295,969,339.7295,969,1066.7295,959,1076.7295,755,1076.7295,755,349.7295" style="stroke:#000000;stroke-width:1;"/><line style="stroke:#000000;stroke-width:1;" x1="959" x2="969" y1="349.7295" y2="339.7295"/><line style="stroke:#000000;stroke-width:1;" x1="755" x2="959" y1="349.7295" y2="349.7295"/><line style="stroke:#000000;stroke-width:1;" x1="959" x2="959" y1="349.7295" y2="1076.7295"/><text fill="#000000" font-family="Verdana" font-size="14" font-weight="bold" lengthAdjust="spacing" textLength="138.373" x="788.8135" y="366.8047">Node5 [Follower]</text></g><!--cluster N4--><g class="cluster" data-entity="N4" data-source-line="26" data-uid="ent0013" id="cluster_N4"><polygon fill="#ADD8E6" points="1009,349.7295,1019,339.7295,1223,339.7295,1223,1066.7295,1213,1076.7295,1009,1076.7295,1009,349.7295" style="stroke:#000000;stroke-width:1;"/><line style="stroke:#000000;stroke-width:1;" x1="1213" x2="1223" y1="349.7295" y2="339.7295"/><line style="stroke:#000000;stroke-width:1;" x1="1009" x2="1213" y1="349.7295" y2="349.7295"/><line style="stroke:#000000;stroke-width:1;" x1="1213" x2="1213" y1="349.7295" y2="1076.7295"/><text fill="#000000" font-family="Verdana" font-size="14" font-weight="bold" lengthAdjust="spacing" textLength="138.373" x="1042.8135" y="366.8047">Node4 [Follower]</text></g><!--cluster N3--><g class="cluster" data-entity="N3" data-source-line="38" data-uid="ent0023" id="cluster_N3"><polygon fill="#808080" points="403,122.2295,413,112.2295,715,112.2295,715,864.2295,705,874.2295,403,874.2295,403,122.2295" style="stroke:#000000;stroke-width:1;"/><line style="stroke:#000000;stroke-width:1;" x1="705" x2="715" y1="122.2295" y2="112.2295"/><line style="stroke:#000000;stroke-width:1;" x1="403" x2="705" y1="122.2295" y2="122.2295"/><line style="stroke:#000000;stroke-width:1;" x1="705" x2="705" y1="122.2295" y2="874.2295"/><text fill="#000000" font-family="Verdana" font-size="14" font-weight="bold" lengthAdjust="spacing" textLength="149.3516" x="480.3242" y="139.3047">Node3 [Candidate]</text></g><!--cluster N2--><g class="cluster" data-entity="N2" data-source-line="50" data-uid="ent0033" id="cluster_N2"><polygon fill="#ADD8E6" points="1263,349.7295,1273,339.7295,1477,339.7295,1477,1066.7295,1467,1076.7295,1263,1076.7295,1263,349.7295" style="stroke:#000000;stroke-width:1;"/><line style="stroke:#000000;stroke-width:1;" x1="1467" x2="1477" y1="349.7295" y2="339.7295"/><line style="stroke:#000000;stroke-width:1;" x1="1263" x2="1467" y1="349.7295" y2="349.7295"/><line style="stroke:#000000;stroke-width:1;" x1="1467" x2="1467" y1="349.7295" y2="1076.7295"/><text fill="#000000" font-family="Verdana" font-size="14" font-weight="bold" lengthAdjust="spacing" textLength="138.373" x="1296.8135" y="366.8047">Node2 [Follower]</text></g><!--cluster raft1--><g class="cluster" data-entity="raft1" data-source-line="63" data-uid="ent0043" id="cluster_raft1"><rect fill="#FFFFE0" height="847" rx="2.5" ry="2.5" style="stroke:#FF0000;stroke-width:1;" width="303" x="12" y="59.7295"/><text fill="#000000" font-family="Verdana" font-size="14" font-weight="bold" lengthAdjust="spacing" textLength="28.6016" x="149.1992" y="75.8047">raft</text></g><!--cluster N1--><g class="cluster" data-entity="N1" data-source-line="64" data-uid="ent0044" id="cluster_N1"><polygon fill="#FFC0CB" points="52,121.7295,62,111.7295,283,111.7295,283,864.7295,273,874.7295,52,874.7295,52,121.7295" style="stroke:#000000;stroke-width:1;"/><line style="stroke:#000000;stroke-width:1;" x1="273" x2="283" y1="121.7295" y2="111.7295"/><line style="stroke:#000000;stroke-width:1;" x1="52" x2="273" y1="121.7295" y2="121.7295"/><line style="stroke:#000000;stroke-width:1;" x1="273" x2="273" y1="121.7295" y2="874.7295"/><text fill="#000000" font-family="Verdana" font-size="14" font-weight="bold" lengthAdjust="spacing" textLength="155.3809" x="85.8096" y="138.8047">Node1 [Old Leader]</text></g><!--entity N5_1--><g class="entity" data-entity="N5_1" data-source-line="15" data-uid="ent0004" id="entity_N5_1"><rect fill="#FFFFFF" height="91.0586" rx="2.5" ry="2.5" style="stroke:#000000;stroke-width:1;" width="78.501" x="826.5" y="413.7295"/><polygon fill="#FFFFFF" points="888.001,418.7295,888.001,432.7295,900.001,432.7295,900.001,424.7295,894.001,418.7295,888.001,418.7295" style="stroke:#000000;stroke-width:1;"/><line style="stroke:#000000;stroke-width:1;" x1="894.001" x2="894.001" y1="418.7295" y2="424.7295"/><line style="stroke:#000000;stroke-width:1;" x1="900.001" x2="894.001" y1="424.7295" y2="424.7295"/><text fill="#000000" font-family="Verdana" font-size="14" lengthAdjust="spacing" textLength="42.8271" x="836.5" y="440.8047">Log=[</text><text fill="#000000" font-family="Verdana" font-size="14" lengthAdjust="spacing" textLength="33.7354" x="846.3438" y="457.8193">x=2,</text><text fill="#000000" font-family="Verdana" font-size="14" lengthAdjust="spacing" textLength="33.7354" x="846.3438" y="474.834">y=2,</text><text fill="#000000" font-family="Verdana" font-size="14" lengthAdjust="spacing" textLength="6.3574" x="836.5" y="491.8486">]</text></g><!--entity N5_2--><g class="entity" data-entity="N5_2" data-source-line="16" data-uid="ent0005" id="entity_N5_2"><rect fill="#FFFFFF" height="40.0146" rx="2.5" ry="2.5" style="stroke:#000000;stroke-width:1;" width="86.916" x="822.5" y="565.7295"/><polygon fill="#FFFFFF" points="892.416,570.7295,892.416,584.7295,904.416,584.7295,904.416,576.7295,898.416,570.7295,892.416,570.7295" style="stroke:#000000;stroke-width:1;"/><line style="stroke:#000000;stroke-width:1;" x1="898.416" x2="898.416" y1="570.7295" y2="576.7295"/><line style="stroke:#000000;stroke-width:1;" x1="904.416" x2="898.416" y1="576.7295" y2="576.7295"/><text fill="#000000" font-family="Verdana" font-size="14" lengthAdjust="spacing" textLength="56.916" x="832.5" y="592.8047">Term=2</text></g><!--entity N5_3--><g class="entity" data-entity="N5_3" data-source-line="17" data-uid="ent0006" id="entity_N5_3"><rect fill="#FFFFFF" height="40.0146" rx="2.5" ry="2.5" style="stroke:#000000;stroke-width:1;" width="145.3223" x="793.5" y="666.7295"/><polygon fill="#FFFFFF" points="921.8223,671.7295,921.8223,685.7295,933.8223,685.7295,933.8223,677.7295,927.8223,671.7295,921.8223,671.7295" style="stroke:#000000;stroke-width:1;"/><line style="stroke:#000000;stroke-width:1;" x1="927.8223" x2="927.8223" y1="671.7295" y2="677.7295"/><line style="stroke:#000000;stroke-width:1;" x1="933.8223" x2="927.8223" y1="677.7295" y2="677.7295"/><text fill="#000000" font-family="Verdana" font-size="14" lengthAdjust="spacing" textLength="115.3223" x="803.5" y="693.8047">CommitIndex=4</text></g><!--entity N5_4--><g class="entity" data-entity="N5_4" data-source-line="18" data-uid="ent0007" id="entity_N5_4"><rect fill="#FFFFFF" height="40.0146" rx="2.5" ry="2.5" style="stroke:#000000;stroke-width:1;" width="129.5996" x="801" y="793.2295"/><polygon fill="#FFFFFF" points="913.5996,798.2295,913.5996,812.2295,925.5996,812.2295,925.5996,804.2295,919.5996,798.2295,913.5996,798.2295" style="stroke:#000000;stroke-width:1;"/><line style="stroke:#000000;stroke-width:1;" x1="919.5996" x2="919.5996" y1="798.2295" y2="804.2295"/><line style="stroke:#000000;stroke-width:1;" x1="925.5996" x2="919.5996" y1="804.2295" y2="804.2295"/><text fill="#000000" font-family="Verdana" font-size="14" lengthAdjust="spacing" textLength="99.5996" x="811" y="820.3047">ApplyIndex=4</text></g><!--entity N5_5--><g class="entity" data-entity="N5_5" data-source-line="19" data-uid="ent0008" id="entity_N5_5"><rect fill="#FFFFFF" height="91.0586" rx="2.5" ry="2.5" style="stroke:#000000;stroke-width:1;" width="87.6953" x="822" y="961.7295"/><polygon fill="#FFFFFF" points="892.6953,966.7295,892.6953,980.7295,904.6953,980.7295,904.6953,972.7295,898.6953,966.7295,892.6953,966.7295" style="stroke:#000000;stroke-width:1;"/><line style="stroke:#000000;stroke-width:1;" x1="898.6953" x2="898.6953" y1="966.7295" y2="972.7295"/><line style="stroke:#000000;stroke-width:1;" x1="904.6953" x2="898.6953" y1="972.7295" y2="972.7295"/><text fill="#000000" font-family="Verdana" font-size="14" lengthAdjust="spacing" textLength="57.6953" x="832" y="988.8047">State={</text><text fill="#000000" font-family="Verdana" font-size="14" lengthAdjust="spacing" textLength="33.5576" x="846.7656" y="1005.8193">x: 2,</text><text fill="#000000" font-family="Verdana" font-size="14" lengthAdjust="spacing" textLength="33.5576" x="846.7656" y="1022.834">y: 2,</text><text fill="#000000" font-family="Verdana" font-size="14" lengthAdjust="spacing" textLength="8.8867" x="832" y="1039.8486">}</text></g><!--entity N4_1--><g class="entity" data-entity="N4_1" data-source-line="27" data-uid="ent0014" id="entity_N4_1"><rect fill="#FFFFFF" height="91.0586" rx="2.5" ry="2.5" style="stroke:#000000;stroke-width:1;" width="78.501" x="1080.5" y="413.7295"/><polygon fill="#FFFFFF" points="1142.001,418.7295,1142.001,432.7295,1154.001,432.7295,1154.001,424.7295,1148.001,418.7295,1142.001,418.7295" style="stroke:#000000;stroke-width:1;"/><line style="stroke:#000000;stroke-width:1;" x1="1148.001" x2="1148.001" y1="418.7295" y2="424.7295"/><line style="stroke:#000000;stroke-width:1;" x1="1154.001" x2="1148.001" y1="424.7295" y2="424.7295"/><text fill="#000000" font-family="Verdana" font-size="14" lengthAdjust="spacing" textLength="42.8271" x="1090.5" y="440.8047">Log=[</text><text fill="#000000" font-family="Verdana" font-size="14" lengthAdjust="spacing" textLength="33.7354" x="1100.3438" y="457.8193">x=2,</text><text fill="#000000" font-family="Verdana" font-size="14" lengthAdjust="spacing" textLength="33.7354" x="1100.3438" y="474.834">y=2,</text><text fill="#000000" font-family="Verdana" font-size="14" lengthAdjust="spacing" textLength="6.3574" x="1090.5" y="491.8486">]</text></g><!--entity N4_2--><g class="entity" data-entity="N4_2" data-source-line="28" data-uid="ent0015" id="entity_N4_2"><rect fill="#FFFFFF" height="40.0146" rx="2.5" ry="2.5" style="stroke:#000000;stroke-width:1;" width="86.916" x="1076.5" y="565.7295"/><polygon fill="#FFFFFF" points="1146.416,570.7295,1146.416,584.7295,1158.416,584.7295,1158.416,576.7295,1152.416,570.7295,1146.416,570.7295" style="stroke:#000000;stroke-width:1;"/><line style="stroke:#000000;stroke-width:1;" x1="1152.416" x2="1152.416" y1="570.7295" y2="576.7295"/><line style="stroke:#000000;stroke-width:1;" x1="1158.416" x2="1152.416" y1="576.7295" y2="576.7295"/><text fill="#000000" font-family="Verdana" font-size="14" lengthAdjust="spacing" textLength="56.916" x="1086.5" y="592.8047">Term=2</text></g><!--entity N4_3--><g class="entity" data-entity="N4_3" data-source-line="29" data-uid="ent0016" id="entity_N4_3"><rect fill="#FFFFFF" height="40.0146" rx="2.5" ry="2.5" style="stroke:#000000;stroke-width:1;" width="145.3223" x="1047.5" y="666.7295"/><polygon fill="#FFFFFF" points="1175.8223,671.7295,1175.8223,685.7295,1187.8223,685.7295,1187.8223,677.7295,1181.8223,671.7295,1175.8223,671.7295" style="stroke:#000000;stroke-width:1;"/><line style="stroke:#000000;stroke-width:1;" x1="1181.8223" x2="1181.8223" y1="671.7295" y2="677.7295"/><line style="stroke:#000000;stroke-width:1;" x1="1187.8223" x2="1181.8223" y1="677.7295" y2="677.7295"/><text fill="#000000" font-family="Verdana" font-size="14" lengthAdjust="spacing" textLength="115.3223" x="1057.5" y="693.8047">CommitIndex=4</text></g><!--entity N4_4--><g class="entity" data-entity="N4_4" data-source-line="30" data-uid="ent0017" id="entity_N4_4"><rect fill="#FFFFFF" height="40.0146" rx="2.5" ry="2.5" style="stroke:#000000;stroke-width:1;" width="129.5996" x="1055" y="793.2295"/><polygon fill="#FFFFFF" points="1167.5996,798.2295,1167.5996,812.2295,1179.5996,812.2295,1179.5996,804.2295,1173.5996,798.2295,1167.5996,798.2295" style="stroke:#000000;stroke-width:1;"/><line style="stroke:#000000;stroke-width:1;" x1="1173.5996" x2="1173.5996" y1="798.2295" y2="804.2295"/><line style="stroke:#000000;stroke-width:1;" x1="1179.5996" x2="1173.5996" y1="804.2295" y2="804.2295"/><text fill="#000000" font-family="Verdana" font-size="14" lengthAdjust="spacing" textLength="99.5996" x="1065" y="820.3047">ApplyIndex=4</text></g><!--entity N4_5--><g class="entity" data-entity="N4_5" data-source-line="31" data-uid="ent0018" id="entity_N4_5"><rect fill="#FFFFFF" height="91.0586" rx="2.5" ry="2.5" style="stroke:#000000;stroke-width:1;" width="87.6953" x="1076" y="961.7295"/><polygon fill="#FFFFFF" points="1146.6953,966.7295,1146.6953,980.7295,1158.6953,980.7295,1158.6953,972.7295,1152.6953,966.7295,1146.6953,966.7295" style="stroke:#000000;stroke-width:1;"/><line style="stroke:#000000;stroke-width:1;" x1="1152.6953" x2="1152.6953" y1="966.7295" y2="972.7295"/><line style="stroke:#000000;stroke-width:1;" x1="1158.6953" x2="1152.6953" y1="972.7295" y2="972.7295"/><text fill="#000000" font-family="Verdana" font-size="14" lengthAdjust="spacing" textLength="57.6953" x="1086" y="988.8047">State={</text><text fill="#000000" font-family="Verdana" font-size="14" lengthAdjust="spacing" textLength="33.5576" x="1100.7656" y="1005.8193">x: 2,</text><text fill="#000000" font-family="Verdana" font-size="14" lengthAdjust="spacing" textLength="33.5576" x="1100.7656" y="1022.834">y: 2,</text><text fill="#000000" font-family="Verdana" font-size="14" lengthAdjust="spacing" textLength="8.8867" x="1086" y="1039.8486">}</text></g><!--entity N3_1--><g class="entity" data-entity="N3_1" data-source-line="39" data-uid="ent0024" id="entity_N3_1"><rect fill="#FFFFFF" height="74.0439" rx="2.5" ry="2.5" style="stroke:#000000;stroke-width:1;" width="78.501" x="460.5" y="186.2295"/><polygon fill="#FFFFFF" points="522.001,191.2295,522.001,205.2295,534.001,205.2295,534.001,197.2295,528.001,191.2295,522.001,191.2295" style="stroke:#000000;stroke-width:1;"/><line style="stroke:#000000;stroke-width:1;" x1="528.001" x2="528.001" y1="191.2295" y2="197.2295"/><line style="stroke:#000000;stroke-width:1;" x1="534.001" x2="528.001" y1="197.2295" y2="197.2295"/><text fill="#000000" font-family="Verdana" font-size="14" lengthAdjust="spacing" textLength="42.8271" x="470.5" y="213.3047">Log=[</text><text fill="#000000" font-family="Verdana" font-size="14" lengthAdjust="spacing" textLength="33.7354" x="480.3438" y="230.3193">x=1,</text><text fill="#000000" font-family="Verdana" font-size="14" lengthAdjust="spacing" textLength="6.3574" x="470.5" y="247.334">]</text></g><!--entity N3_2--><g class="entity" data-entity="N3_2" data-source-line="40" data-uid="ent0025" id="entity_N3_2"><rect fill="#90EE90" height="40.0146" rx="2.5" ry="2.5" style="stroke:#000000;stroke-width:1;" width="86.916" x="456.5" y="439.2295"/><polygon fill="#90EE90" points="526.416,444.2295,526.416,458.2295,538.416,458.2295,538.416,450.2295,532.416,444.2295,526.416,444.2295" style="stroke:#000000;stroke-width:1;"/><line style="stroke:#000000;stroke-width:1;" x1="532.416" x2="532.416" y1="444.2295" y2="450.2295"/><line style="stroke:#000000;stroke-width:1;" x1="538.416" x2="532.416" y1="450.2295" y2="450.2295"/><text fill="#000000" font-family="Verdana" font-size="14" lengthAdjust="spacing" textLength="56.916" x="466.5" y="466.3047">Term=2</text></g><!--entity N3_3--><g class="entity" data-entity="N3_3" data-source-line="41" data-uid="ent0026" id="entity_N3_3"><rect fill="#FFFFFF" height="40.0146" rx="2.5" ry="2.5" style="stroke:#000000;stroke-width:1;" width="145.3223" x="427.5" y="565.7295"/><polygon fill="#FFFFFF" points="555.8223,570.7295,555.8223,584.7295,567.8223,584.7295,567.8223,576.7295,561.8223,570.7295,555.8223,570.7295" style="stroke:#000000;stroke-width:1;"/><line style="stroke:#000000;stroke-width:1;" x1="561.8223" x2="561.8223" y1="570.7295" y2="576.7295"/><line style="stroke:#000000;stroke-width:1;" x1="567.8223" x2="561.8223" y1="576.7295" y2="576.7295"/><text fill="#000000" font-family="Verdana" font-size="14" lengthAdjust="spacing" textLength="115.3223" x="437.5" y="592.8047">CommitIndex=1</text></g><!--entity N3_4--><g class="entity" data-entity="N3_4" data-source-line="42" data-uid="ent0027" id="entity_N3_4"><rect fill="#FFFFFF" height="40.0146" rx="2.5" ry="2.5" style="stroke:#000000;stroke-width:1;" width="129.5996" x="435" y="666.7295"/><polygon fill="#FFFFFF" points="547.5996,671.7295,547.5996,685.7295,559.5996,685.7295,559.5996,677.7295,553.5996,671.7295,547.5996,671.7295" style="stroke:#000000;stroke-width:1;"/><line style="stroke:#000000;stroke-width:1;" x1="553.5996" x2="553.5996" y1="671.7295" y2="677.7295"/><line style="stroke:#000000;stroke-width:1;" x1="559.5996" x2="553.5996" y1="677.7295" y2="677.7295"/><text fill="#000000" font-family="Verdana" font-size="14" lengthAdjust="spacing" textLength="99.5996" x="445" y="693.8047">ApplyIndex=1</text></g><!--entity N3_5--><g class="entity" data-entity="N3_5" data-source-line="43" data-uid="ent0028" id="entity_N3_5"><rect fill="#FFFFFF" height="74.0439" rx="2.5" ry="2.5" style="stroke:#000000;stroke-width:1;" width="87.6953" x="456" y="776.2295"/><polygon fill="#FFFFFF" points="526.6953,781.2295,526.6953,795.2295,538.6953,795.2295,538.6953,787.2295,532.6953,781.2295,526.6953,781.2295" style="stroke:#000000;stroke-width:1;"/><line style="stroke:#000000;stroke-width:1;" x1="532.6953" x2="532.6953" y1="781.2295" y2="787.2295"/><line style="stroke:#000000;stroke-width:1;" x1="538.6953" x2="532.6953" y1="787.2295" y2="787.2295"/><text fill="#000000" font-family="Verdana" font-size="14" lengthAdjust="spacing" textLength="57.6953" x="466" y="803.3047">State={</text><text fill="#000000" font-family="Verdana" font-size="14" lengthAdjust="spacing" textLength="33.5576" x="480.7656" y="820.3193">x: 1,</text><text fill="#000000" font-family="Verdana" font-size="14" lengthAdjust="spacing" textLength="8.8867" x="466" y="837.334">}</text></g><!--entity N2_1--><g class="entity" data-entity="N2_1" data-source-line="51" data-uid="ent0034" id="entity_N2_1"><rect fill="#FFFFFF" height="91.0586" rx="2.5" ry="2.5" style="stroke:#000000;stroke-width:1;" width="78.501" x="1334.5" y="413.7295"/><polygon fill="#FFFFFF" points="1396.001,418.7295,1396.001,432.7295,1408.001,432.7295,1408.001,424.7295,1402.001,418.7295,1396.001,418.7295" style="stroke:#000000;stroke-width:1;"/><line style="stroke:#000000;stroke-width:1;" x1="1402.001" x2="1402.001" y1="418.7295" y2="424.7295"/><line style="stroke:#000000;stroke-width:1;" x1="1408.001" x2="1402.001" y1="424.7295" y2="424.7295"/><text fill="#000000" font-family="Verdana" font-size="14" lengthAdjust="spacing" textLength="42.8271" x="1344.5" y="440.8047">Log=[</text><text fill="#000000" font-family="Verdana" font-size="14" lengthAdjust="spacing" textLength="33.7354" x="1354.3438" y="457.8193">x=2,</text><text fill="#000000" font-family="Verdana" font-size="14" lengthAdjust="spacing" textLength="33.7354" x="1354.3438" y="474.834">y=2,</text><text fill="#000000" font-family="Verdana" font-size="14" lengthAdjust="spacing" textLength="6.3574" x="1344.5" y="491.8486">]</text></g><!--entity N2_2--><g class="entity" data-entity="N2_2" data-source-line="52" data-uid="ent0035" id="entity_N2_2"><rect fill="#FFFFFF" height="40.0146" rx="2.5" ry="2.5" style="stroke:#000000;stroke-width:1;" width="86.916" x="1330.5" y="565.7295"/><polygon fill="#FFFFFF" points="1400.416,570.7295,1400.416,584.7295,1412.416,584.7295,1412.416,576.7295,1406.416,570.7295,1400.416,570.7295" style="stroke:#000000;stroke-width:1;"/><line style="stroke:#000000;stroke-width:1;" x1="1406.416" x2="1406.416" y1="570.7295" y2="576.7295"/><line style="stroke:#000000;stroke-width:1;" x1="1412.416" x2="1406.416" y1="576.7295" y2="576.7295"/><text fill="#000000" font-family="Verdana" font-size="14" lengthAdjust="spacing" textLength="56.916" x="1340.5" y="592.8047">Term=3</text></g><!--entity N2_3--><g class="entity" data-entity="N2_3" data-source-line="53" data-uid="ent0036" id="entity_N2_3"><rect fill="#FFFFFF" height="40.0146" rx="2.5" ry="2.5" style="stroke:#000000;stroke-width:1;" width="145.3223" x="1301.5" y="666.7295"/><polygon fill="#FFFFFF" points="1429.8223,671.7295,1429.8223,685.7295,1441.8223,685.7295,1441.8223,677.7295,1435.8223,671.7295,1429.8223,671.7295" style="stroke:#000000;stroke-width:1;"/><line style="stroke:#000000;stroke-width:1;" x1="1435.8223" x2="1435.8223" y1="671.7295" y2="677.7295"/><line style="stroke:#000000;stroke-width:1;" x1="1441.8223" x2="1435.8223" y1="677.7295" y2="677.7295"/><text fill="#000000" font-family="Verdana" font-size="14" lengthAdjust="spacing" textLength="115.3223" x="1311.5" y="693.8047">CommitIndex=4</text></g><!--entity N2_4--><g class="entity" data-entity="N2_4" data-source-line="54" data-uid="ent0037" id="entity_N2_4"><rect fill="#FFFFFF" height="40.0146" rx="2.5" ry="2.5" style="stroke:#000000;stroke-width:1;" width="129.5996" x="1309" y="793.2295"/><polygon fill="#FFFFFF" points="1421.5996,798.2295,1421.5996,812.2295,1433.5996,812.2295,1433.5996,804.2295,1427.5996,798.2295,1421.5996,798.2295" style="stroke:#000000;stroke-width:1;"/><line style="stroke:#000000;stroke-width:1;" x1="1427.5996" x2="1427.5996" y1="798.2295" y2="804.2295"/><line style="stroke:#000000;stroke-width:1;" x1="1433.5996" x2="1427.5996" y1="804.2295" y2="804.2295"/><text fill="#000000" font-family="Verdana" font-size="14" lengthAdjust="spacing" textLength="99.5996" x="1319" y="820.3047">ApplyIndex=4</text></g><!--entity N2_5--><g class="entity" data-entity="N2_5" data-source-line="55" data-uid="ent0038" id="entity_N2_5"><rect fill="#FFFFFF" height="91.0586" rx="2.5" ry="2.5" style="stroke:#000000;stroke-width:1;" width="87.6953" x="1330" y="961.7295"/><polygon fill="#FFFFFF" points="1400.6953,966.7295,1400.6953,980.7295,1412.6953,980.7295,1412.6953,972.7295,1406.6953,966.7295,1400.6953,966.7295" style="stroke:#000000;stroke-width:1;"/><line style="stroke:#000000;stroke-width:1;" x1="1406.6953" x2="1406.6953" y1="966.7295" y2="972.7295"/><line style="stroke:#000000;stroke-width:1;" x1="1412.6953" x2="1406.6953" y1="972.7295" y2="972.7295"/><text fill="#000000" font-family="Verdana" font-size="14" lengthAdjust="spacing" textLength="57.6953" x="1340" y="988.8047">State={</text><text fill="#000000" font-family="Verdana" font-size="14" lengthAdjust="spacing" textLength="33.5576" x="1354.7656" y="1005.8193">x: 2,</text><text fill="#000000" font-family="Verdana" font-size="14" lengthAdjust="spacing" textLength="33.5576" x="1354.7656" y="1022.834">y: 2,</text><text fill="#000000" font-family="Verdana" font-size="14" lengthAdjust="spacing" textLength="8.8867" x="1340" y="1039.8486">}</text></g><!--entity N1_1--><g class="entity" data-entity="N1_1" data-source-line="65" data-uid="ent0045" id="entity_N1_1"><rect fill="#FFFFFF" height="91.0586" rx="2.5" ry="2.5" style="stroke:#000000;stroke-width:1;" width="78.501" x="127.5" y="177.7295"/><polygon fill="#FFFFFF" points="189.001,182.7295,189.001,196.7295,201.001,196.7295,201.001,188.7295,195.001,182.7295,189.001,182.7295" style="stroke:#000000;stroke-width:1;"/><line style="stroke:#000000;stroke-width:1;" x1="195.001" x2="195.001" y1="182.7295" y2="188.7295"/><line style="stroke:#000000;stroke-width:1;" x1="201.001" x2="195.001" y1="188.7295" y2="188.7295"/><text fill="#000000" font-family="Verdana" font-size="14" lengthAdjust="spacing" textLength="42.8271" x="137.5" y="204.8047">Log=[</text><text fill="#000000" font-family="Verdana" font-size="14" lengthAdjust="spacing" textLength="33.7354" x="147.3438" y="221.8193">x=2,</text><text fill="#000000" font-family="Verdana" font-size="14" lengthAdjust="spacing" textLength="33.7354" x="147.3438" y="238.834">y=2,</text><text fill="#000000" font-family="Verdana" font-size="14" lengthAdjust="spacing" textLength="6.3574" x="137.5" y="255.8486">]</text></g><!--entity N1_2--><g class="entity" data-entity="N1_2" data-source-line="66" data-uid="ent0046" id="entity_N1_2"><rect fill="#FFFFFF" height="40.0146" rx="2.5" ry="2.5" style="stroke:#000000;stroke-width:1;" width="86.916" x="123.5" y="439.2295"/><polygon fill="#FFFFFF" points="193.416,444.2295,193.416,458.2295,205.416,458.2295,205.416,450.2295,199.416,444.2295,193.416,444.2295" style="stroke:#000000;stroke-width:1;"/><line style="stroke:#000000;stroke-width:1;" x1="199.416" x2="199.416" y1="444.2295" y2="450.2295"/><line style="stroke:#000000;stroke-width:1;" x1="205.416" x2="199.416" y1="450.2295" y2="450.2295"/><text fill="#000000" font-family="Verdana" font-size="14" lengthAdjust="spacing" textLength="56.916" x="133.5" y="466.3047">Term=2</text></g><!--entity N1_3--><g class="entity" data-entity="N1_3" data-source-line="67" data-uid="ent0047" id="entity_N1_3"><rect fill="#FFFFFF" height="40.0146" rx="2.5" ry="2.5" style="stroke:#000000;stroke-width:1;" width="145.3223" x="94.5" y="565.7295"/><polygon fill="#FFFFFF" points="222.8223,570.7295,222.8223,584.7295,234.8223,584.7295,234.8223,576.7295,228.8223,570.7295,222.8223,570.7295" style="stroke:#000000;stroke-width:1;"/><line style="stroke:#000000;stroke-width:1;" x1="228.8223" x2="228.8223" y1="570.7295" y2="576.7295"/><line style="stroke:#000000;stroke-width:1;" x1="234.8223" x2="228.8223" y1="576.7295" y2="576.7295"/><text fill="#000000" font-family="Verdana" font-size="14" lengthAdjust="spacing" textLength="115.3223" x="104.5" y="592.8047">CommitIndex=4</text></g><!--entity N1_4--><g class="entity" data-entity="N1_4" data-source-line="68" data-uid="ent0048" id="entity_N1_4"><rect fill="#FFFFFF" height="40.0146" rx="2.5" ry="2.5" style="stroke:#000000;stroke-width:1;" width="129.5996" x="102" y="666.7295"/><polygon fill="#FFFFFF" points="214.5996,671.7295,214.5996,685.7295,226.5996,685.7295,226.5996,677.7295,220.5996,671.7295,214.5996,671.7295" style="stroke:#000000;stroke-width:1;"/><line style="stroke:#000000;stroke-width:1;" x1="220.5996" x2="220.5996" y1="671.7295" y2="677.7295"/><line style="stroke:#000000;stroke-width:1;" x1="226.5996" x2="220.5996" y1="677.7295" y2="677.7295"/><text fill="#000000" font-family="Verdana" font-size="14" lengthAdjust="spacing" textLength="99.5996" x="112" y="693.8047">ApplyIndex=4</text></g><!--entity N1_5--><g class="entity" data-entity="N1_5" data-source-line="69" data-uid="ent0049" id="entity_N1_5"><rect fill="#FFFFFF" height="91.0586" rx="2.5" ry="2.5" style="stroke:#000000;stroke-width:1;" width="87.6953" x="123" y="767.7295"/><polygon fill="#FFFFFF" points="193.6953,772.7295,193.6953,786.7295,205.6953,786.7295,205.6953,778.7295,199.6953,772.7295,193.6953,772.7295" style="stroke:#000000;stroke-width:1;"/><line style="stroke:#000000;stroke-width:1;" x1="199.6953" x2="199.6953" y1="772.7295" y2="778.7295"/><line style="stroke:#000000;stroke-width:1;" x1="205.6953" x2="199.6953" y1="778.7295" y2="778.7295"/><text fill="#000000" font-family="Verdana" font-size="14" lengthAdjust="spacing" textLength="57.6953" x="133" y="794.8047">State={</text><text fill="#000000" font-family="Verdana" font-size="14" lengthAdjust="spacing" textLength="33.5576" x="147.7656" y="811.8193">x: 2,</text><text fill="#000000" font-family="Verdana" font-size="14" lengthAdjust="spacing" textLength="33.5576" x="147.7656" y="828.834">y: 2,</text><text fill="#000000" font-family="Verdana" font-size="14" lengthAdjust="spacing" textLength="8.8867" x="133" y="845.8486">}</text></g><!--link N5_1 to N5_2--><g class="link" data-entity-1="N5_1" data-entity-2="N5_2" data-source-line="21" data-uid="lnk9" id="link_N5_1_N5_2"><path d="M866,504.8295 C866,525.6195 866,549.2795 866,565.4195" fill="none" id="N5_1-N5_2" style="stroke:#000000;stroke-width:1;"/></g><!--link N5_2 to N5_3--><g class="link" data-entity-1="N5_2" data-entity-2="N5_3" data-source-line="22" data-uid="lnk10" id="link_N5_2_N5_3"><path d="M866,605.8195 C866,623.3495 866,649.1895 866,666.6995" fill="none" id="N5_2-N5_3" style="stroke:#000000;stroke-width:1;"/></g><!--link N5_3 to N5_4--><g class="link" data-entity-1="N5_3" data-entity-2="N5_4" data-source-line="23" data-uid="lnk11" id="link_N5_3_N5_4"><path d="M866,706.9095 C866,730.2395 866,769.3895 866,792.8195" fill="none" id="N5_3-N5_4" style="stroke:#000000;stroke-width:1;"/></g><!--link N5_4 to N5_5--><g class="link" data-entity-1="N5_4" data-entity-2="N5_5" data-source-line="24" data-uid="lnk12" id="link_N5_4_N5_5"><path d="M866,833.3395 C866,863.0295 866,921.0295 866,961.6295" fill="none" id="N5_4-N5_5" style="stroke:#000000;stroke-width:1;"/></g><!--link N4_1 to N4_2--><g class="link" data-entity-1="N4_1" data-entity-2="N4_2" data-source-line="33" data-uid="lnk19" id="link_N4_1_N4_2"><path d="M1120,504.8295 C1120,525.6195 1120,549.2795 1120,565.4195" fill="none" id="N4_1-N4_2" style="stroke:#000000;stroke-width:1;"/></g><!--link N4_2 to N4_3--><g class="link" data-entity-1="N4_2" data-entity-2="N4_3" data-source-line="34" data-uid="lnk20" id="link_N4_2_N4_3"><path d="M1120,605.8195 C1120,623.3495 1120,649.1895 1120,666.6995" fill="none" id="N4_2-N4_3" style="stroke:#000000;stroke-width:1;"/></g><!--link N4_3 to N4_4--><g class="link" data-entity-1="N4_3" data-entity-2="N4_4" data-source-line="35" data-uid="lnk21" id="link_N4_3_N4_4"><path d="M1120,706.9095 C1120,730.2395 1120,769.3895 1120,792.8195" fill="none" id="N4_3-N4_4" style="stroke:#000000;stroke-width:1;"/></g><!--link N4_4 to N4_5--><g class="link" data-entity-1="N4_4" data-entity-2="N4_5" data-source-line="36" data-uid="lnk22" id="link_N4_4_N4_5"><path d="M1120,833.3395 C1120,863.0295 1120,921.0295 1120,961.6295" fill="none" id="N4_4-N4_5" style="stroke:#000000;stroke-width:1;"/></g><!--link N3_1 to N3_2--><g class="link" data-entity-1="N3_1" data-entity-2="N3_2" data-source-line="45" data-uid="lnk29" id="link_N3_1_N3_2"><path d="M500,260.2795 C500,310.5295 500,399.8695 500,438.9895" fill="none" id="N3_1-N3_2" style="stroke:#000000;stroke-width:1;"/></g><!--link N3_2 to N3_3--><g class="link" data-entity-1="N3_2" data-entity-2="N3_3" data-source-line="46" data-uid="lnk30" id="link_N3_2_N3_3"><path d="M500,479.4095 C500,502.7395 500,541.8895 500,565.3195" fill="none" id="N3_2-N3_3" style="stroke:#000000;stroke-width:1;"/></g><!--link N3_3 to N3_4--><g class="link" data-entity-1="N3_3" data-entity-2="N3_4" data-source-line="47" data-uid="lnk31" id="link_N3_3_N3_4"><path d="M500,605.8195 C500,623.3495 500,649.1895 500,666.6995" fill="none" id="N3_3-N3_4" style="stroke:#000000;stroke-width:1;"/></g><!--link N3_4 to N3_5--><g class="link" data-entity-1="N3_4" data-entity-2="N3_5" data-source-line="48" data-uid="lnk32" id="link_N3_4_N3_5"><path d="M500,706.9095 C500,725.3295 500,753.6095 500,776.2295" fill="none" id="N3_4-N3_5" style="stroke:#000000;stroke-width:1;"/></g><!--link N2_1 to N2_2--><g class="link" data-entity-1="N2_1" data-entity-2="N2_2" data-source-line="57" data-uid="lnk39" id="link_N2_1_N2_2"><path d="M1374,504.8295 C1374,525.6195 1374,549.2795 1374,565.4195" fill="none" id="N2_1-N2_2" style="stroke:#000000;stroke-width:1;"/></g><!--link N2_2 to N2_3--><g class="link" data-entity-1="N2_2" data-entity-2="N2_3" data-source-line="58" data-uid="lnk40" id="link_N2_2_N2_3"><path d="M1374,605.8195 C1374,623.3495 1374,649.1895 1374,666.6995" fill="none" id="N2_2-N2_3" style="stroke:#000000;stroke-width:1;"/></g><!--link N2_3 to N2_4--><g class="link" data-entity-1="N2_3" data-entity-2="N2_4" data-source-line="59" data-uid="lnk41" id="link_N2_3_N2_4"><path d="M1374,706.9095 C1374,730.2395 1374,769.3895 1374,792.8195" fill="none" id="N2_3-N2_4" style="stroke:#000000;stroke-width:1;"/></g><!--link N2_4 to N2_5--><g class="link" data-entity-1="N2_4" data-entity-2="N2_5" data-source-line="60" data-uid="lnk42" id="link_N2_4_N2_5"><path d="M1374,833.3395 C1374,863.0295 1374,921.0295 1374,961.6295" fill="none" id="N2_4-N2_5" style="stroke:#000000;stroke-width:1;"/></g><!--link N1_1 to N1_2--><g class="link" data-entity-1="N1_1" data-entity-2="N1_2" data-source-line="71" data-uid="lnk50" id="link_N1_1_N1_2"><path d="M167,268.7895 C167,320.1095 167,402.0795 167,439.0495" fill="none" id="N1_1-N1_2" style="stroke:#000000;stroke-width:1;"/></g><!--link N1_2 to N1_3--><g class="link" data-entity-1="N1_2" data-entity-2="N1_3" data-source-line="72" data-uid="lnk51" id="link_N1_2_N1_3"><path d="M167,479.4095 C167,502.7395 167,541.8895 167,565.3195" fill="none" id="N1_2-N1_3" style="stroke:#000000;stroke-width:1;"/></g><!--link N1_3 to N1_4--><g class="link" data-entity-1="N1_3" data-entity-2="N1_4" data-source-line="73" data-uid="lnk52" id="link_N1_3_N1_4"><path d="M167,605.8195 C167,623.3495 167,649.1895 167,666.6995" fill="none" id="N1_3-N1_4" style="stroke:#000000;stroke-width:1;"/></g><!--link N1_4 to N1_5--><g class="link" data-entity-1="N1_4" data-entity-2="N1_5" data-source-line="74" data-uid="lnk53" id="link_N1_4_N1_5"><path d="M167,706.9095 C167,723.0795 167,746.8395 167,767.7095" fill="none" id="N1_4-N1_5" style="stroke:#000000;stroke-width:1;"/></g><!--link raft1 to raft--><g class="link" data-entity-1="raft1" data-entity-2="raft" data-source-line="77" data-uid="lnk54" id="link_raft1_raft"><path d="M315.3314,123.7628 C315.5112,124.0183 315.6904,124.2741 315.8691,124.53 C317.2986,126.5774 318.694,128.637 320.0554,130.7039 C325.5011,138.9714 330.4038,147.3539 334.7775,155.5245 C343.525,171.8657 350.1569,187.3595 354.7863,199.3904 C354.8224,199.4844 354.8585,199.5782 354.8944,199.6718" fill="none" id="raft1-raft" style="stroke:#000000;stroke-width:1;"/><text fill="#000000" font-family="Verdana" font-size="13" lengthAdjust="spacing" textLength="27.1299" x="177.5" y="25.2993">split</text></g><!--link N3 to N3--><g class="link" data-entity-1="N3" data-entity-2="N3" data-source-line="79" data-uid="lnk55" id="link_N3_N3"><path d="M698,222.7395 C709.87,202.2295 733.08,202.3895 733.08,223.2295 C733.08,244.0695 712.8754,249.4225 701.0054,228.9125" fill="none" id="N3-to-N3" style="stroke:#000000;stroke-width:1;"/><polygon fill="#000000" points="698,223.7195,699.0461,233.5126,700.5045,228.047,705.9701,229.5054,698,223.7195" style="stroke:#000000;stroke-width:1;"/><text fill="#000000" font-family="Verdana" font-size="13" lengthAdjust="spacing" textLength="80.7295" x="739.08" y="228.7993">update term</text></g><!--link N3 to N2--><g class="link" data-entity-1="N3" data-entity-2="N2" data-source-line="80" data-uid="lnk56" id="link_N3_N2"><path d="M715.234,230.4043 C716.9819,230.5199 718.7432,230.6375 720.5177,230.7569 C734.7131,231.7127 749.7463,232.793 765.4037,234.01 C796.7186,236.4439 830.5306,239.4245 865.1325,243.0495 C1003.54,257.5495 1154.585,282.3595 1209,323.7295 C1234.79,343.3345 1250.2125,376.2245 1259.225,404.572 C1260.3516,408.1154 1261.378,411.5879 1262.3119,414.9546 C1262.5454,415.7962 1261.2188,410.8361 1261.4408,411.664" fill="none" id="N3-to-N2" style="stroke:#000000;stroke-width:1;"/><polygon fill="#000000" points="1262.9952,417.4592,1264.5271,407.7302,1261.6999,412.6299,1256.8002,409.8027,1262.9952,417.4592" style="stroke:#000000;stroke-width:1;"/><text fill="#000000" font-family="Verdana" font-size="13" lengthAdjust="spacing" textLength="19.5127" x="1195" y="312.7993">fail</text></g><!--link N3 to N4--><g class="link" data-entity-1="N3" data-entity-2="N4" data-source-line="81" data-uid="lnk57" id="link_N3_N4"><path d="M715.3133,231.8623 C715.8688,231.939 716.4255,232.0165 716.9832,232.0948 C721.445,232.7206 725.976,233.3947 730.5663,234.1207 C804.01,245.737 892.605,270.6395 955,323.7295 C979.675,344.7245 995.08,377.6345 1004.3625,405.6445 C1005.5228,409.1457 1006.5875,412.5704 1007.5626,415.8857 C1008.0502,417.5434 1006.9113,413.392 1007.3549,414.9909" fill="none" id="N3-to-N4" style="stroke:#000000;stroke-width:1;"/><polygon fill="#000000" points="1008.9589,420.7725,1010.4073,411.0307,1007.6222,415.9545,1002.6985,413.1694,1008.9589,420.7725" style="stroke:#000000;stroke-width:1;"/><text fill="#000000" font-family="Verdana" font-size="13" lengthAdjust="spacing" textLength="19.5127" x="940" y="312.7993">fail</text></g><!--link N3 to N5--><g class="link" data-entity-1="N3" data-entity-2="N5" data-source-line="82" data-uid="lnk58" id="link_N3_N5"><path d="M715.0782,390.6821 C715.3683,391.091 715.6576,391.4988 715.9463,391.9057 C718.2553,395.1605 720.5184,398.3505 722.7259,401.4623 C727.1411,407.6858 731.3345,413.5968 735.2306,419.0886 C743.0228,430.0721 749.6258,439.3793 754.4354,446.1583 C754.5857,446.3701 754.7342,446.5795 754.881,446.7864 C754.9177,446.8381 751.4824,441.9962 751.5189,442.0476" fill="none" id="N3-to-N5" style="stroke:#000000;stroke-width:1;"/><polygon fill="#000000" points="754.9908,446.9411,753.0453,437.2863,752.0976,442.8632,746.5207,441.9154,754.9908,446.9411" style="stroke:#000000;stroke-width:1;"/><text fill="#000000" font-family="Verdana" font-size="13" lengthAdjust="spacing" textLength="19.5127" x="661" y="312.7993">fail</text></g><!--SRC=[fPH1gzf04CVl-HHJlTR3xaukWeLgAHJ4mcilnPQoc3Klk2PXNQdoyBit6_q_zSKsGNC8mszd9iEFoRxppsPjgBGwowDeiyhoKZkz9cSMNkUfDVGIKVMCzMALkcAR9vF25ewcMVhiVnXhYp_7yy8bnXtFdamI7IwRvKNotpvZkpMDBcDRfOO-vr5wJYzzxzIfRjgRLU-Ovf-BC8bnltgaDpIBJpdXqSvdIxtmr9iMwMZ-CoVQZUHx2i7-6A3gjxXHzTsuzKWYGzx8c1JhTUQ_v8dPZHY9waRYnxAq-pTvV2FlczVUZ5x2XBGRqcbOsf_20shZklPGlyFqDFWqE0yP0X05ea0OX47Yw8rNRdZbkxnogrVkwfKxUkK7lFArLuPN31a240MYG1Y4GHfU5SqdEa-of9hcf4XHFtLwtwPNN5XLhLPLDMVVXXyiTSRaBOO5YbeCl-PrC2mkjAfhhGfQ5RGgQCK88G1X40PfQ9MDTPLthQlyjrY5Z8xhAZkkgtnWNUMrLmcl638480f4WJ08WyGtxzpgIo4GZSjNqFohJMXgTFBgNL2_pFBLNVP5wrgBhlP5H_lY0VlYshw0VGmP0X05ea0OX46EzclJWwT1xPo6j2bjvgDeLXT-2DV5aBPbk3_8LsRE1x8wMEhCdWatI0po5m00]--></g></svg>