<svg xmlns="http://www.w3.org/2000/svg" xmlns:xlink="http://www.w3.org/1999/xlink" contentStyleType="text/css" data-diagram-type="DESCRIPTION" height="1168px" preserveAspectRatio="none" style="width:1539px;height:1168px;background:#FFFFFF;" version="1.1" viewBox="0 0 1539 1168" width="1539px" zoomAndPan="magnify"><defs/><g><!--cluster raft--><g class="cluster" data-entity="raft" data-source-line="15" data-uid="ent0003" id="cluster_raft"><rect fill="#FFFFE0" height="1039" rx="2.5" ry="2.5" style="stroke:#FF0000;stroke-width:1;" width="1162" x="371" y="123"/><text fill="#000000" font-family="Verdana" font-size="14" font-weight="bold" lengthAdjust="spacing" textLength="28.6016" x="937.6992" y="139.0752">raft</text></g><!--cluster N5--><g class="cluster" data-entity="N5" data-source-line="16" data-uid="ent0004" id="cluster_N5"><polygon fill="#ADD8E6" points="771,404,781,394,985,394,985,1112,975,1122,771,1122,771,404" style="stroke:#000000;stroke-width:1;"/><line style="stroke:#000000;stroke-width:1;" x1="975" x2="985" y1="404" y2="394"/><line style="stroke:#000000;stroke-width:1;" x1="771" x2="975" y1="404" y2="404"/><line style="stroke:#000000;stroke-width:1;" x1="975" x2="975" y1="404" y2="1122"/><text fill="#000000" font-family="Verdana" font-size="14" font-weight="bold" lengthAdjust="spacing" textLength="138.373" x="804.8135" y="421.0752">Node5 [Follower]</text></g><!--cluster N4--><g class="cluster" data-entity="N4" data-source-line="28" data-uid="ent0014" id="cluster_N4"><polygon fill="#ADD8E6" points="1025,404,1035,394,1239,394,1239,1112,1229,1122,1025,1122,1025,404" style="stroke:#000000;stroke-width:1;"/><line style="stroke:#000000;stroke-width:1;" x1="1229" x2="1239" y1="404" y2="394"/><line style="stroke:#000000;stroke-width:1;" x1="1025" x2="1229" y1="404" y2="404"/><line style="stroke:#000000;stroke-width:1;" x1="1229" x2="1229" y1="404" y2="1122"/><text fill="#000000" font-family="Verdana" font-size="14" font-weight="bold" lengthAdjust="spacing" textLength="138.373" x="1058.8135" y="421.0752">Node4 [Follower]</text></g><!--cluster N3--><g class="cluster" data-entity="N3" data-source-line="40" data-uid="ent0024" id="cluster_N3"><polygon fill="#808080" points="1279,412.5,1289,402.5,1493,402.5,1493,1103.5,1483,1113.5,1279,1113.5,1279,412.5" style="stroke:#000000;stroke-width:1;"/><line style="stroke:#000000;stroke-width:1;" x1="1483" x2="1493" y1="412.5" y2="402.5"/><line style="stroke:#000000;stroke-width:1;" x1="1279" x2="1483" y1="412.5" y2="412.5"/><line style="stroke:#000000;stroke-width:1;" x1="1483" x2="1483" y1="412.5" y2="1113.5"/><text fill="#000000" font-family="Verdana" font-size="14" font-weight="bold" lengthAdjust="spacing" textLength="138.373" x="1312.8135" y="429.5752">Node3 [Follower]</text></g><!--cluster N2--><g class="cluster" data-entity="N2" data-source-line="52" data-uid="ent0034" id="cluster_N2"><polygon fill="#ADD8E6" points="419,193,429,183,731,183,731,902,721,912,419,912,419,193" style="stroke:#000000;stroke-width:1;"/><line style="stroke:#000000;stroke-width:1;" x1="721" x2="731" y1="193" y2="183"/><line style="stroke:#000000;stroke-width:1;" x1="419" x2="721" y1="193" y2="193"/><line style="stroke:#000000;stroke-width:1;" x1="721" x2="721" y1="193" y2="912"/><text fill="#000000" font-family="Verdana" font-size="14" font-weight="bold" lengthAdjust="spacing" textLength="149.3516" x="496.3242" y="210.0752">Node2 [Candidate]</text></g><!--cluster raft1--><g class="cluster" data-entity="raft1" data-source-line="65" data-uid="ent0044" id="cluster_raft1"><rect fill="#FFFFE0" height="829" rx="2.5" ry="2.5" style="stroke:#FF0000;stroke-width:1;" width="319" x="12" y="123"/><text fill="#000000" font-family="Verdana" font-size="14" font-weight="bold" lengthAdjust="spacing" textLength="28.6016" x="157.1992" y="139.0752">raft</text></g><!--cluster N1--><g class="cluster" data-entity="N1" data-source-line="66" data-uid="ent0045" id="cluster_N1"><polygon fill="#FFC0CB" points="60,193,70,183,291,183,291,902,281,912,60,912,60,193" style="stroke:#000000;stroke-width:1;"/><line style="stroke:#000000;stroke-width:1;" x1="281" x2="291" y1="193" y2="183"/><line style="stroke:#000000;stroke-width:1;" x1="60" x2="281" y1="193" y2="193"/><line style="stroke:#000000;stroke-width:1;" x1="281" x2="281" y1="193" y2="912"/><text fill="#000000" font-family="Verdana" font-size="14" font-weight="bold" lengthAdjust="spacing" textLength="155.3809" x="93.8096" y="210.0752">Node1 [Old Leader]</text></g><!--entity N5_1--><g class="entity" data-entity="N5_1" data-source-line="17" data-uid="ent0005" id="entity_N5_1"><rect fill="#FFFFFF" height="91.0586" rx="2.5" ry="2.5" style="stroke:#000000;stroke-width:1;" width="78.501" x="842.5" y="443"/><polygon fill="#FFFFFF" points="904.001,448,904.001,462,916.001,462,916.001,454,910.001,448,904.001,448" style="stroke:#000000;stroke-width:1;"/><line style="stroke:#000000;stroke-width:1;" x1="910.001" x2="910.001" y1="448" y2="454"/><line style="stroke:#000000;stroke-width:1;" x1="916.001" x2="910.001" y1="454" y2="454"/><text fill="#000000" font-family="Verdana" font-size="14" lengthAdjust="spacing" textLength="42.8271" x="852.5" y="470.0752">Log=[</text><text fill="#000000" font-family="Verdana" font-size="14" lengthAdjust="spacing" textLength="33.7354" x="862.3438" y="487.0898">x=2,</text><text fill="#000000" font-family="Verdana" font-size="14" lengthAdjust="spacing" textLength="33.7354" x="862.3438" y="504.1045">y=2,</text><text fill="#000000" font-family="Verdana" font-size="14" lengthAdjust="spacing" textLength="6.3574" x="852.5" y="521.1191">]</text></g><!--entity N5_2--><g class="entity" data-entity="N5_2" data-source-line="18" data-uid="ent0006" id="entity_N5_2"><rect fill="#FFFFFF" height="40.0146" rx="2.5" ry="2.5" style="stroke:#000000;stroke-width:1;" width="86.916" x="838.5" y="595"/><polygon fill="#FFFFFF" points="908.416,600,908.416,614,920.416,614,920.416,606,914.416,600,908.416,600" style="stroke:#000000;stroke-width:1;"/><line style="stroke:#000000;stroke-width:1;" x1="914.416" x2="914.416" y1="600" y2="606"/><line style="stroke:#000000;stroke-width:1;" x1="920.416" x2="914.416" y1="606" y2="606"/><text fill="#000000" font-family="Verdana" font-size="14" lengthAdjust="spacing" textLength="56.916" x="848.5" y="622.0752">Term=2</text></g><!--entity N5_3--><g class="entity" data-entity="N5_3" data-source-line="19" data-uid="ent0007" id="entity_N5_3"><rect fill="#FFFFFF" height="40.0146" rx="2.5" ry="2.5" style="stroke:#000000;stroke-width:1;" width="145.3223" x="809.5" y="696"/><polygon fill="#FFFFFF" points="937.8223,701,937.8223,715,949.8223,715,949.8223,707,943.8223,701,937.8223,701" style="stroke:#000000;stroke-width:1;"/><line style="stroke:#000000;stroke-width:1;" x1="943.8223" x2="943.8223" y1="701" y2="707"/><line style="stroke:#000000;stroke-width:1;" x1="949.8223" x2="943.8223" y1="707" y2="707"/><text fill="#000000" font-family="Verdana" font-size="14" lengthAdjust="spacing" textLength="115.3223" x="819.5" y="723.0752">CommitIndex=4</text></g><!--entity N5_4--><g class="entity" data-entity="N5_4" data-source-line="20" data-uid="ent0008" id="entity_N5_4"><rect fill="#FFFFFF" height="40.0146" rx="2.5" ry="2.5" style="stroke:#000000;stroke-width:1;" width="129.5996" x="817" y="822.5"/><polygon fill="#FFFFFF" points="929.5996,827.5,929.5996,841.5,941.5996,841.5,941.5996,833.5,935.5996,827.5,929.5996,827.5" style="stroke:#000000;stroke-width:1;"/><line style="stroke:#000000;stroke-width:1;" x1="935.5996" x2="935.5996" y1="827.5" y2="833.5"/><line style="stroke:#000000;stroke-width:1;" x1="941.5996" x2="935.5996" y1="833.5" y2="833.5"/><text fill="#000000" font-family="Verdana" font-size="14" lengthAdjust="spacing" textLength="99.5996" x="827" y="849.5752">ApplyIndex=4</text></g><!--entity N5_5--><g class="entity" data-entity="N5_5" data-source-line="21" data-uid="ent0009" id="entity_N5_5"><rect fill="#FFFFFF" height="91.0586" rx="2.5" ry="2.5" style="stroke:#000000;stroke-width:1;" width="87.6953" x="838" y="1007"/><polygon fill="#FFFFFF" points="908.6953,1012,908.6953,1026,920.6953,1026,920.6953,1018,914.6953,1012,908.6953,1012" style="stroke:#000000;stroke-width:1;"/><line style="stroke:#000000;stroke-width:1;" x1="914.6953" x2="914.6953" y1="1012" y2="1018"/><line style="stroke:#000000;stroke-width:1;" x1="920.6953" x2="914.6953" y1="1018" y2="1018"/><text fill="#000000" font-family="Verdana" font-size="14" lengthAdjust="spacing" textLength="57.6953" x="848" y="1034.0752">State={</text><text fill="#000000" font-family="Verdana" font-size="14" lengthAdjust="spacing" textLength="33.5576" x="862.7656" y="1051.0898">x: 2,</text><text fill="#000000" font-family="Verdana" font-size="14" lengthAdjust="spacing" textLength="33.5576" x="862.7656" y="1068.1045">y: 2,</text><text fill="#000000" font-family="Verdana" font-size="14" lengthAdjust="spacing" textLength="8.8867" x="848" y="1085.1191">}</text></g><!--entity N4_1--><g class="entity" data-entity="N4_1" data-source-line="29" data-uid="ent0015" id="entity_N4_1"><rect fill="#FFFFFF" height="91.0586" rx="2.5" ry="2.5" style="stroke:#000000;stroke-width:1;" width="78.501" x="1096.5" y="443"/><polygon fill="#FFFFFF" points="1158.001,448,1158.001,462,1170.001,462,1170.001,454,1164.001,448,1158.001,448" style="stroke:#000000;stroke-width:1;"/><line style="stroke:#000000;stroke-width:1;" x1="1164.001" x2="1164.001" y1="448" y2="454"/><line style="stroke:#000000;stroke-width:1;" x1="1170.001" x2="1164.001" y1="454" y2="454"/><text fill="#000000" font-family="Verdana" font-size="14" lengthAdjust="spacing" textLength="42.8271" x="1106.5" y="470.0752">Log=[</text><text fill="#000000" font-family="Verdana" font-size="14" lengthAdjust="spacing" textLength="33.7354" x="1116.3438" y="487.0898">x=2,</text><text fill="#000000" font-family="Verdana" font-size="14" lengthAdjust="spacing" textLength="33.7354" x="1116.3438" y="504.1045">y=2,</text><text fill="#000000" font-family="Verdana" font-size="14" lengthAdjust="spacing" textLength="6.3574" x="1106.5" y="521.1191">]</text></g><!--entity N4_2--><g class="entity" data-entity="N4_2" data-source-line="30" data-uid="ent0016" id="entity_N4_2"><rect fill="#FFFFFF" height="40.0146" rx="2.5" ry="2.5" style="stroke:#000000;stroke-width:1;" width="86.916" x="1092.5" y="595"/><polygon fill="#FFFFFF" points="1162.416,600,1162.416,614,1174.416,614,1174.416,606,1168.416,600,1162.416,600" style="stroke:#000000;stroke-width:1;"/><line style="stroke:#000000;stroke-width:1;" x1="1168.416" x2="1168.416" y1="600" y2="606"/><line style="stroke:#000000;stroke-width:1;" x1="1174.416" x2="1168.416" y1="606" y2="606"/><text fill="#000000" font-family="Verdana" font-size="14" lengthAdjust="spacing" textLength="56.916" x="1102.5" y="622.0752">Term=2</text></g><!--entity N4_3--><g class="entity" data-entity="N4_3" data-source-line="31" data-uid="ent0017" id="entity_N4_3"><rect fill="#FFFFFF" height="40.0146" rx="2.5" ry="2.5" style="stroke:#000000;stroke-width:1;" width="145.3223" x="1063.5" y="696"/><polygon fill="#FFFFFF" points="1191.8223,701,1191.8223,715,1203.8223,715,1203.8223,707,1197.8223,701,1191.8223,701" style="stroke:#000000;stroke-width:1;"/><line style="stroke:#000000;stroke-width:1;" x1="1197.8223" x2="1197.8223" y1="701" y2="707"/><line style="stroke:#000000;stroke-width:1;" x1="1203.8223" x2="1197.8223" y1="707" y2="707"/><text fill="#000000" font-family="Verdana" font-size="14" lengthAdjust="spacing" textLength="115.3223" x="1073.5" y="723.0752">CommitIndex=4</text></g><!--entity N4_4--><g class="entity" data-entity="N4_4" data-source-line="32" data-uid="ent0018" id="entity_N4_4"><rect fill="#FFFFFF" height="40.0146" rx="2.5" ry="2.5" style="stroke:#000000;stroke-width:1;" width="129.5996" x="1071" y="822.5"/><polygon fill="#FFFFFF" points="1183.5996,827.5,1183.5996,841.5,1195.5996,841.5,1195.5996,833.5,1189.5996,827.5,1183.5996,827.5" style="stroke:#000000;stroke-width:1;"/><line style="stroke:#000000;stroke-width:1;" x1="1189.5996" x2="1189.5996" y1="827.5" y2="833.5"/><line style="stroke:#000000;stroke-width:1;" x1="1195.5996" x2="1189.5996" y1="833.5" y2="833.5"/><text fill="#000000" font-family="Verdana" font-size="14" lengthAdjust="spacing" textLength="99.5996" x="1081" y="849.5752">ApplyIndex=4</text></g><!--entity N4_5--><g class="entity" data-entity="N4_5" data-source-line="33" data-uid="ent0019" id="entity_N4_5"><rect fill="#FFFFFF" height="91.0586" rx="2.5" ry="2.5" style="stroke:#000000;stroke-width:1;" width="87.6953" x="1092" y="1007"/><polygon fill="#FFFFFF" points="1162.6953,1012,1162.6953,1026,1174.6953,1026,1174.6953,1018,1168.6953,1012,1162.6953,1012" style="stroke:#000000;stroke-width:1;"/><line style="stroke:#000000;stroke-width:1;" x1="1168.6953" x2="1168.6953" y1="1012" y2="1018"/><line style="stroke:#000000;stroke-width:1;" x1="1174.6953" x2="1168.6953" y1="1018" y2="1018"/><text fill="#000000" font-family="Verdana" font-size="14" lengthAdjust="spacing" textLength="57.6953" x="1102" y="1034.0752">State={</text><text fill="#000000" font-family="Verdana" font-size="14" lengthAdjust="spacing" textLength="33.5576" x="1116.7656" y="1051.0898">x: 2,</text><text fill="#000000" font-family="Verdana" font-size="14" lengthAdjust="spacing" textLength="33.5576" x="1116.7656" y="1068.1045">y: 2,</text><text fill="#000000" font-family="Verdana" font-size="14" lengthAdjust="spacing" textLength="8.8867" x="1102" y="1085.1191">}</text></g><!--entity N3_1--><g class="entity" data-entity="N3_1" data-source-line="41" data-uid="ent0025" id="entity_N3_1"><rect fill="#FFFFFF" height="74.0439" rx="2.5" ry="2.5" style="stroke:#000000;stroke-width:1;" width="78.501" x="1350.5" y="451.5"/><polygon fill="#FFFFFF" points="1412.001,456.5,1412.001,470.5,1424.001,470.5,1424.001,462.5,1418.001,456.5,1412.001,456.5" style="stroke:#000000;stroke-width:1;"/><line style="stroke:#000000;stroke-width:1;" x1="1418.001" x2="1418.001" y1="456.5" y2="462.5"/><line style="stroke:#000000;stroke-width:1;" x1="1424.001" x2="1418.001" y1="462.5" y2="462.5"/><text fill="#000000" font-family="Verdana" font-size="14" lengthAdjust="spacing" textLength="42.8271" x="1360.5" y="478.5752">Log=[</text><text fill="#000000" font-family="Verdana" font-size="14" lengthAdjust="spacing" textLength="33.7354" x="1370.3438" y="495.5898">x=1,</text><text fill="#000000" font-family="Verdana" font-size="14" lengthAdjust="spacing" textLength="6.3574" x="1360.5" y="512.6045">]</text></g><!--entity N3_2--><g class="entity" data-entity="N3_2" data-source-line="42" data-uid="ent0026" id="entity_N3_2"><rect fill="#FFFFFF" height="40.0146" rx="2.5" ry="2.5" style="stroke:#000000;stroke-width:1;" width="86.916" x="1346.5" y="595"/><polygon fill="#FFFFFF" points="1416.416,600,1416.416,614,1428.416,614,1428.416,606,1422.416,600,1416.416,600" style="stroke:#000000;stroke-width:1;"/><line style="stroke:#000000;stroke-width:1;" x1="1422.416" x2="1422.416" y1="600" y2="606"/><line style="stroke:#000000;stroke-width:1;" x1="1428.416" x2="1422.416" y1="606" y2="606"/><text fill="#000000" font-family="Verdana" font-size="14" lengthAdjust="spacing" textLength="56.916" x="1356.5" y="622.0752">Term=1</text></g><!--entity N3_3--><g class="entity" data-entity="N3_3" data-source-line="43" data-uid="ent0027" id="entity_N3_3"><rect fill="#FFFFFF" height="40.0146" rx="2.5" ry="2.5" style="stroke:#000000;stroke-width:1;" width="145.3223" x="1317.5" y="696"/><polygon fill="#FFFFFF" points="1445.8223,701,1445.8223,715,1457.8223,715,1457.8223,707,1451.8223,701,1445.8223,701" style="stroke:#000000;stroke-width:1;"/><line style="stroke:#000000;stroke-width:1;" x1="1451.8223" x2="1451.8223" y1="701" y2="707"/><line style="stroke:#000000;stroke-width:1;" x1="1457.8223" x2="1451.8223" y1="707" y2="707"/><text fill="#000000" font-family="Verdana" font-size="14" lengthAdjust="spacing" textLength="115.3223" x="1327.5" y="723.0752">CommitIndex=1</text></g><!--entity N3_4--><g class="entity" data-entity="N3_4" data-source-line="44" data-uid="ent0028" id="entity_N3_4"><rect fill="#FFFFFF" height="40.0146" rx="2.5" ry="2.5" style="stroke:#000000;stroke-width:1;" width="129.5996" x="1325" y="822.5"/><polygon fill="#FFFFFF" points="1437.5996,827.5,1437.5996,841.5,1449.5996,841.5,1449.5996,833.5,1443.5996,827.5,1437.5996,827.5" style="stroke:#000000;stroke-width:1;"/><line style="stroke:#000000;stroke-width:1;" x1="1443.5996" x2="1443.5996" y1="827.5" y2="833.5"/><line style="stroke:#000000;stroke-width:1;" x1="1449.5996" x2="1443.5996" y1="833.5" y2="833.5"/><text fill="#000000" font-family="Verdana" font-size="14" lengthAdjust="spacing" textLength="99.5996" x="1335" y="849.5752">ApplyIndex=1</text></g><!--entity N3_5--><g class="entity" data-entity="N3_5" data-source-line="45" data-uid="ent0029" id="entity_N3_5"><rect fill="#FFFFFF" height="74.0439" rx="2.5" ry="2.5" style="stroke:#000000;stroke-width:1;" width="87.6953" x="1346" y="1015.5"/><polygon fill="#FFFFFF" points="1416.6953,1020.5,1416.6953,1034.5,1428.6953,1034.5,1428.6953,1026.5,1422.6953,1020.5,1416.6953,1020.5" style="stroke:#000000;stroke-width:1;"/><line style="stroke:#000000;stroke-width:1;" x1="1422.6953" x2="1422.6953" y1="1020.5" y2="1026.5"/><line style="stroke:#000000;stroke-width:1;" x1="1428.6953" x2="1422.6953" y1="1026.5" y2="1026.5"/><text fill="#000000" font-family="Verdana" font-size="14" lengthAdjust="spacing" textLength="57.6953" x="1356" y="1042.5752">State={</text><text fill="#000000" font-family="Verdana" font-size="14" lengthAdjust="spacing" textLength="33.5576" x="1370.7656" y="1059.5898">x: 1,</text><text fill="#000000" font-family="Verdana" font-size="14" lengthAdjust="spacing" textLength="8.8867" x="1356" y="1076.6045">}</text></g><!--entity N2_1--><g class="entity" data-entity="N2_1" data-source-line="53" data-uid="ent0035" id="entity_N2_1"><rect fill="#FFFFFF" height="91.0586" rx="2.5" ry="2.5" style="stroke:#000000;stroke-width:1;" width="78.501" x="476.5" y="232"/><polygon fill="#FFFFFF" points="538.001,237,538.001,251,550.001,251,550.001,243,544.001,237,538.001,237" style="stroke:#000000;stroke-width:1;"/><line style="stroke:#000000;stroke-width:1;" x1="544.001" x2="544.001" y1="237" y2="243"/><line style="stroke:#000000;stroke-width:1;" x1="550.001" x2="544.001" y1="243" y2="243"/><text fill="#000000" font-family="Verdana" font-size="14" lengthAdjust="spacing" textLength="42.8271" x="486.5" y="259.0752">Log=[</text><text fill="#000000" font-family="Verdana" font-size="14" lengthAdjust="spacing" textLength="33.7354" x="496.3438" y="276.0898">x=2,</text><text fill="#000000" font-family="Verdana" font-size="14" lengthAdjust="spacing" textLength="33.7354" x="496.3438" y="293.1045">y=2,</text><text fill="#000000" font-family="Verdana" font-size="14" lengthAdjust="spacing" textLength="6.3574" x="486.5" y="310.1191">]</text></g><!--entity N2_2--><g class="entity" data-entity="N2_2" data-source-line="54" data-uid="ent0036" id="entity_N2_2"><rect fill="#90EE90" height="40.0146" rx="2.5" ry="2.5" style="stroke:#000000;stroke-width:1;" width="86.916" x="472.5" y="468.5"/><polygon fill="#90EE90" points="542.416,473.5,542.416,487.5,554.416,487.5,554.416,479.5,548.416,473.5,542.416,473.5" style="stroke:#000000;stroke-width:1;"/><line style="stroke:#000000;stroke-width:1;" x1="548.416" x2="548.416" y1="473.5" y2="479.5"/><line style="stroke:#000000;stroke-width:1;" x1="554.416" x2="548.416" y1="479.5" y2="479.5"/><text fill="#000000" font-family="Verdana" font-size="14" lengthAdjust="spacing" textLength="56.916" x="482.5" y="495.5752">Term=3</text></g><!--entity N2_3--><g class="entity" data-entity="N2_3" data-source-line="55" data-uid="ent0037" id="entity_N2_3"><rect fill="#FFFFFF" height="40.0146" rx="2.5" ry="2.5" style="stroke:#000000;stroke-width:1;" width="145.3223" x="443.5" y="595"/><polygon fill="#FFFFFF" points="571.8223,600,571.8223,614,583.8223,614,583.8223,606,577.8223,600,571.8223,600" style="stroke:#000000;stroke-width:1;"/><line style="stroke:#000000;stroke-width:1;" x1="577.8223" x2="577.8223" y1="600" y2="606"/><line style="stroke:#000000;stroke-width:1;" x1="583.8223" x2="577.8223" y1="606" y2="606"/><text fill="#000000" font-family="Verdana" font-size="14" lengthAdjust="spacing" textLength="115.3223" x="453.5" y="622.0752">CommitIndex=4</text></g><!--entity N2_4--><g class="entity" data-entity="N2_4" data-source-line="56" data-uid="ent0038" id="entity_N2_4"><rect fill="#FFFFFF" height="40.0146" rx="2.5" ry="2.5" style="stroke:#000000;stroke-width:1;" width="129.5996" x="451" y="696"/><polygon fill="#FFFFFF" points="563.5996,701,563.5996,715,575.5996,715,575.5996,707,569.5996,701,563.5996,701" style="stroke:#000000;stroke-width:1;"/><line style="stroke:#000000;stroke-width:1;" x1="569.5996" x2="569.5996" y1="701" y2="707"/><line style="stroke:#000000;stroke-width:1;" x1="575.5996" x2="569.5996" y1="707" y2="707"/><text fill="#000000" font-family="Verdana" font-size="14" lengthAdjust="spacing" textLength="99.5996" x="461" y="723.0752">ApplyIndex=4</text></g><!--entity N2_5--><g class="entity" data-entity="N2_5" data-source-line="57" data-uid="ent0039" id="entity_N2_5"><rect fill="#FFFFFF" height="91.0586" rx="2.5" ry="2.5" style="stroke:#000000;stroke-width:1;" width="87.6953" x="472" y="797"/><polygon fill="#FFFFFF" points="542.6953,802,542.6953,816,554.6953,816,554.6953,808,548.6953,802,542.6953,802" style="stroke:#000000;stroke-width:1;"/><line style="stroke:#000000;stroke-width:1;" x1="548.6953" x2="548.6953" y1="802" y2="808"/><line style="stroke:#000000;stroke-width:1;" x1="554.6953" x2="548.6953" y1="808" y2="808"/><text fill="#000000" font-family="Verdana" font-size="14" lengthAdjust="spacing" textLength="57.6953" x="482" y="824.0752">State={</text><text fill="#000000" font-family="Verdana" font-size="14" lengthAdjust="spacing" textLength="33.5576" x="496.7656" y="841.0898">x: 2,</text><text fill="#000000" font-family="Verdana" font-size="14" lengthAdjust="spacing" textLength="33.5576" x="496.7656" y="858.1045">y: 2,</text><text fill="#000000" font-family="Verdana" font-size="14" lengthAdjust="spacing" textLength="8.8867" x="482" y="875.1191">}</text></g><!--entity N1_1--><g class="entity" data-entity="N1_1" data-source-line="67" data-uid="ent0046" id="entity_N1_1"><rect fill="#FFFFFF" height="91.0586" rx="2.5" ry="2.5" style="stroke:#000000;stroke-width:1;" width="78.501" x="146.5" y="232"/><polygon fill="#FFFFFF" points="208.001,237,208.001,251,220.001,251,220.001,243,214.001,237,208.001,237" style="stroke:#000000;stroke-width:1;"/><line style="stroke:#000000;stroke-width:1;" x1="214.001" x2="214.001" y1="237" y2="243"/><line style="stroke:#000000;stroke-width:1;" x1="220.001" x2="214.001" y1="243" y2="243"/><text fill="#000000" font-family="Verdana" font-size="14" lengthAdjust="spacing" textLength="42.8271" x="156.5" y="259.0752">Log=[</text><text fill="#000000" font-family="Verdana" font-size="14" lengthAdjust="spacing" textLength="33.7354" x="166.3438" y="276.0898">x=2,</text><text fill="#000000" font-family="Verdana" font-size="14" lengthAdjust="spacing" textLength="33.7354" x="166.3438" y="293.1045">y=2,</text><text fill="#000000" font-family="Verdana" font-size="14" lengthAdjust="spacing" textLength="6.3574" x="156.5" y="310.1191">]</text></g><!--entity N1_2--><g class="entity" data-entity="N1_2" data-source-line="68" data-uid="ent0047" id="entity_N1_2"><rect fill="#FFFFFF" height="40.0146" rx="2.5" ry="2.5" style="stroke:#000000;stroke-width:1;" width="86.916" x="142.5" y="468.5"/><polygon fill="#FFFFFF" points="212.416,473.5,212.416,487.5,224.416,487.5,224.416,479.5,218.416,473.5,212.416,473.5" style="stroke:#000000;stroke-width:1;"/><line style="stroke:#000000;stroke-width:1;" x1="218.416" x2="218.416" y1="473.5" y2="479.5"/><line style="stroke:#000000;stroke-width:1;" x1="224.416" x2="218.416" y1="479.5" y2="479.5"/><text fill="#000000" font-family="Verdana" font-size="14" lengthAdjust="spacing" textLength="56.916" x="152.5" y="495.5752">Term=2</text></g><!--entity N1_3--><g class="entity" data-entity="N1_3" data-source-line="69" data-uid="ent0048" id="entity_N1_3"><rect fill="#FFFFFF" height="40.0146" rx="2.5" ry="2.5" style="stroke:#000000;stroke-width:1;" width="145.3223" x="113.5" y="595"/><polygon fill="#FFFFFF" points="241.8223,600,241.8223,614,253.8223,614,253.8223,606,247.8223,600,241.8223,600" style="stroke:#000000;stroke-width:1;"/><line style="stroke:#000000;stroke-width:1;" x1="247.8223" x2="247.8223" y1="600" y2="606"/><line style="stroke:#000000;stroke-width:1;" x1="253.8223" x2="247.8223" y1="606" y2="606"/><text fill="#000000" font-family="Verdana" font-size="14" lengthAdjust="spacing" textLength="115.3223" x="123.5" y="622.0752">CommitIndex=4</text></g><!--entity N1_4--><g class="entity" data-entity="N1_4" data-source-line="70" data-uid="ent0049" id="entity_N1_4"><rect fill="#FFFFFF" height="40.0146" rx="2.5" ry="2.5" style="stroke:#000000;stroke-width:1;" width="129.5996" x="121" y="696"/><polygon fill="#FFFFFF" points="233.5996,701,233.5996,715,245.5996,715,245.5996,707,239.5996,701,233.5996,701" style="stroke:#000000;stroke-width:1;"/><line style="stroke:#000000;stroke-width:1;" x1="239.5996" x2="239.5996" y1="701" y2="707"/><line style="stroke:#000000;stroke-width:1;" x1="245.5996" x2="239.5996" y1="707" y2="707"/><text fill="#000000" font-family="Verdana" font-size="14" lengthAdjust="spacing" textLength="99.5996" x="131" y="723.0752">ApplyIndex=4</text></g><!--entity N1_5--><g class="entity" data-entity="N1_5" data-source-line="71" data-uid="ent0050" id="entity_N1_5"><rect fill="#FFFFFF" height="91.0586" rx="2.5" ry="2.5" style="stroke:#000000;stroke-width:1;" width="87.6953" x="142" y="797"/><polygon fill="#FFFFFF" points="212.6953,802,212.6953,816,224.6953,816,224.6953,808,218.6953,802,212.6953,802" style="stroke:#000000;stroke-width:1;"/><line style="stroke:#000000;stroke-width:1;" x1="218.6953" x2="218.6953" y1="802" y2="808"/><line style="stroke:#000000;stroke-width:1;" x1="224.6953" x2="218.6953" y1="808" y2="808"/><text fill="#000000" font-family="Verdana" font-size="14" lengthAdjust="spacing" textLength="57.6953" x="152" y="824.0752">State={</text><text fill="#000000" font-family="Verdana" font-size="14" lengthAdjust="spacing" textLength="33.5576" x="166.7656" y="841.0898">x: 2,</text><text fill="#000000" font-family="Verdana" font-size="14" lengthAdjust="spacing" textLength="33.5576" x="166.7656" y="858.1045">y: 2,</text><text fill="#000000" font-family="Verdana" font-size="14" lengthAdjust="spacing" textLength="8.8867" x="152" y="875.1191">}</text></g><!--entity cmd1--><g class="entity" data-entity="cmd1" data-source-line="13" data-uid="ent0002" id="entity_cmd1"><rect fill="#FFFFFF" height="40.0146" rx="2.5" ry="2.5" style="stroke:#000000;stroke-width:1;" width="58.6426" x="52.5" y="12"/><polygon fill="#FFFFFF" points="94.1426,17,94.1426,31,106.1426,31,106.1426,23,100.1426,17,94.1426,17" style="stroke:#000000;stroke-width:1;"/><line style="stroke:#000000;stroke-width:1;" x1="100.1426" x2="100.1426" y1="17" y2="23"/><line style="stroke:#000000;stroke-width:1;" x1="106.1426" x2="100.1426" y1="23" y2="23"/><text fill="#000000" font-family="Verdana" font-size="14" lengthAdjust="spacing" textLength="28.6426" x="62.5" y="39.0752">x=9</text></g><!--link N5_1 to N5_2--><g class="link" data-entity-1="N5_1" data-entity-2="N5_2" data-source-line="23" data-uid="lnk10" id="link_N5_1_N5_2"><path d="M882,534.1 C882,554.89 882,578.55 882,594.69" fill="none" id="N5_1-N5_2" style="stroke:#000000;stroke-width:1;"/></g><!--link N5_2 to N5_3--><g class="link" data-entity-1="N5_2" data-entity-2="N5_3" data-source-line="24" data-uid="lnk11" id="link_N5_2_N5_3"><path d="M882,635.09 C882,652.62 882,678.46 882,695.97" fill="none" id="N5_2-N5_3" style="stroke:#000000;stroke-width:1;"/></g><!--link N5_3 to N5_4--><g class="link" data-entity-1="N5_3" data-entity-2="N5_4" data-source-line="25" data-uid="lnk12" id="link_N5_3_N5_4"><path d="M882,736.18 C882,759.51 882,798.66 882,822.09" fill="none" id="N5_3-N5_4" style="stroke:#000000;stroke-width:1;"/></g><!--link N5_4 to N5_5--><g class="link" data-entity-1="N5_4" data-entity-2="N5_5" data-source-line="26" data-uid="lnk13" id="link_N5_4_N5_5"><path d="M882,862.7 C882,895.18 882,961.82 882,1006.59" fill="none" id="N5_4-N5_5" style="stroke:#000000;stroke-width:1;"/></g><!--link N4_1 to N4_2--><g class="link" data-entity-1="N4_1" data-entity-2="N4_2" data-source-line="35" data-uid="lnk20" id="link_N4_1_N4_2"><path d="M1136,534.1 C1136,554.89 1136,578.55 1136,594.69" fill="none" id="N4_1-N4_2" style="stroke:#000000;stroke-width:1;"/></g><!--link N4_2 to N4_3--><g class="link" data-entity-1="N4_2" data-entity-2="N4_3" data-source-line="36" data-uid="lnk21" id="link_N4_2_N4_3"><path d="M1136,635.09 C1136,652.62 1136,678.46 1136,695.97" fill="none" id="N4_2-N4_3" style="stroke:#000000;stroke-width:1;"/></g><!--link N4_3 to N4_4--><g class="link" data-entity-1="N4_3" data-entity-2="N4_4" data-source-line="37" data-uid="lnk22" id="link_N4_3_N4_4"><path d="M1136,736.18 C1136,759.51 1136,798.66 1136,822.09" fill="none" id="N4_3-N4_4" style="stroke:#000000;stroke-width:1;"/></g><!--link N4_4 to N4_5--><g class="link" data-entity-1="N4_4" data-entity-2="N4_5" data-source-line="38" data-uid="lnk23" id="link_N4_4_N4_5"><path d="M1136,862.7 C1136,895.18 1136,961.82 1136,1006.59" fill="none" id="N4_4-N4_5" style="stroke:#000000;stroke-width:1;"/></g><!--link N3_1 to N3_2--><g class="link" data-entity-1="N3_1" data-entity-2="N3_2" data-source-line="47" data-uid="lnk30" id="link_N3_1_N3_2"><path d="M1390,525.51 C1390,548.06 1390,576.23 1390,594.65" fill="none" id="N3_1-N3_2" style="stroke:#000000;stroke-width:1;"/></g><!--link N3_2 to N3_3--><g class="link" data-entity-1="N3_2" data-entity-2="N3_3" data-source-line="48" data-uid="lnk31" id="link_N3_2_N3_3"><path d="M1390,635.09 C1390,652.62 1390,678.46 1390,695.97" fill="none" id="N3_2-N3_3" style="stroke:#000000;stroke-width:1;"/></g><!--link N3_3 to N3_4--><g class="link" data-entity-1="N3_3" data-entity-2="N3_4" data-source-line="49" data-uid="lnk32" id="link_N3_3_N3_4"><path d="M1390,736.18 C1390,759.51 1390,798.66 1390,822.09" fill="none" id="N3_3-N3_4" style="stroke:#000000;stroke-width:1;"/></g><!--link N3_4 to N3_5--><g class="link" data-entity-1="N3_4" data-entity-2="N3_5" data-source-line="50" data-uid="lnk33" id="link_N3_4_N3_5"><path d="M1390,862.7 C1390,897.39 1390,971.06 1390,1015.42" fill="none" id="N3_4-N3_5" style="stroke:#000000;stroke-width:1;"/></g><!--link N2_1 to N2_2--><g class="link" data-entity-1="N2_1" data-entity-2="N2_2" data-source-line="59" data-uid="lnk40" id="link_N2_1_N2_2"><path d="M516,323.08 C516,368.16 516,435.7 516,468.4" fill="none" id="N2_1-N2_2" style="stroke:#000000;stroke-width:1;"/></g><!--link N2_2 to N2_3--><g class="link" data-entity-1="N2_2" data-entity-2="N2_3" data-source-line="60" data-uid="lnk41" id="link_N2_2_N2_3"><path d="M516,508.68 C516,532.01 516,571.16 516,594.59" fill="none" id="N2_2-N2_3" style="stroke:#000000;stroke-width:1;"/></g><!--link N2_3 to N2_4--><g class="link" data-entity-1="N2_3" data-entity-2="N2_4" data-source-line="61" data-uid="lnk42" id="link_N2_3_N2_4"><path d="M516,635.09 C516,652.62 516,678.46 516,695.97" fill="none" id="N2_3-N2_4" style="stroke:#000000;stroke-width:1;"/></g><!--link N2_4 to N2_5--><g class="link" data-entity-1="N2_4" data-entity-2="N2_5" data-source-line="62" data-uid="lnk43" id="link_N2_4_N2_5"><path d="M516,736.18 C516,752.35 516,776.11 516,796.98" fill="none" id="N2_4-N2_5" style="stroke:#000000;stroke-width:1;"/></g><!--link N1_1 to N1_2--><g class="link" data-entity-1="N1_1" data-entity-2="N1_2" data-source-line="73" data-uid="lnk51" id="link_N1_1_N1_2"><path d="M186,323.08 C186,368.16 186,435.7 186,468.4" fill="none" id="N1_1-N1_2" style="stroke:#000000;stroke-width:1;"/></g><!--link N1_2 to N1_3--><g class="link" data-entity-1="N1_2" data-entity-2="N1_3" data-source-line="74" data-uid="lnk52" id="link_N1_2_N1_3"><path d="M186,508.68 C186,532.01 186,571.16 186,594.59" fill="none" id="N1_2-N1_3" style="stroke:#000000;stroke-width:1;"/></g><!--link N1_3 to N1_4--><g class="link" data-entity-1="N1_3" data-entity-2="N1_4" data-source-line="75" data-uid="lnk53" id="link_N1_3_N1_4"><path d="M186,635.09 C186,652.62 186,678.46 186,695.97" fill="none" id="N1_3-N1_4" style="stroke:#000000;stroke-width:1;"/></g><!--link N1_4 to N1_5--><g class="link" data-entity-1="N1_4" data-entity-2="N1_5" data-source-line="76" data-uid="lnk54" id="link_N1_4_N1_5"><path d="M186,736.18 C186,752.35 186,776.11 186,796.98" fill="none" id="N1_4-N1_5" style="stroke:#000000;stroke-width:1;"/></g><!--link cmd1 to N1--><g class="link" data-entity-1="cmd1" data-entity-2="N1" data-source-line="79" data-uid="lnk55" id="link_cmd1_N1"><path d="M82,52.11 C82,66.235 82,86.9975 82,110.2752 C82,121.914 82,134.1816 82,146.5627 C82,152.7533 82,158.9722 82,165.1551 C82,168.2465 82,171.329 82,174.3944 C82,175.927 82,177.4555 82,178.9786 C82,179.7402 82,180.5005 82,181.2593 C82,181.6387 82,176.0177 82,176.3964" fill="none" id="cmd1-to-N1" style="stroke:#000000;stroke-width:1;"/><polygon fill="#000000" points="82,182.3964,86,173.3964,82,177.3964,78,173.3964,82,182.3964" style="stroke:#000000;stroke-width:1;"/><text fill="#000000" font-family="Verdana" font-size="13" lengthAdjust="spacing" textLength="95.2656" x="83" y="96.0698">new command</text></g><!--link raft1 to raft--><g class="link" data-entity-1="raft1" data-entity-2="raft" data-source-line="80" data-uid="lnk56" id="link_raft1_raft"><path d="M31.0673,122.343 C31.2095,122.0408 31.3528,121.7392 31.4971,121.4385 C31.7859,120.837 32.0792,120.2385 32.3771,119.6431 C33.5687,117.2616 34.8335,114.9301 36.1755,112.6559 C38.8595,108.1075 41.8521,103.7885 45.1843,99.7575 C51.8486,91.6956 59.8713,84.7863 69.5,79.5 C106.12,59.4 220.88,59.4 257.5,79.5 C301.34,103.565 331.215,150.7725 350.3688,193.0563 C355.1572,203.6272 359.2755,213.8904 362.7745,223.4073 C364.524,228.1658 366.1186,232.7377 367.5647,237.0682 C368.2878,239.2335 368.9737,241.3384 369.6233,243.3761 C369.9481,244.3949 370.2638,245.397 370.5706,246.3814 C370.6473,246.6275 370.7234,246.8725 370.7989,247.1164" fill="none" id="raft1-raft" style="stroke:#000000;stroke-width:1;"/></g><!--link N2 to N2--><g class="link" data-entity-1="N2" data-entity-2="N2" data-source-line="82" data-uid="lnk57" id="link_N2_N2"><path d="M714,277.01 C725.87,256.5 749.08,256.66 749.08,277.5 C749.08,298.34 728.8754,303.693 717.0054,283.183" fill="none" id="N2-to-N2" style="stroke:#000000;stroke-width:1;"/><polygon fill="#000000" points="714,277.99,715.0461,287.7831,716.5045,282.3175,721.9701,283.7759,714,277.99" style="stroke:#000000;stroke-width:1;"/><text fill="#000000" font-family="Verdana" font-size="13" lengthAdjust="spacing" textLength="80.7295" x="755.08" y="283.0698">update term</text></g><!--link N2 to N3--><g class="link" data-entity-1="N2" data-entity-2="N3" data-source-line="83" data-uid="lnk58" id="link_N2_N3"><path d="M733.182,285.7913 C734.0583,285.856 734.9379,285.9213 735.8208,285.987 C749.9466,287.0386 764.9095,288.2156 780.4984,289.5268 C811.6764,292.1491 845.3587,295.3081 879.8575,299.075 C1017.8525,314.1425 1168.91,338.935 1225,378 C1247.585,393.73 1262.9575,420.5025 1272.7463,443.6363 C1273.9698,446.528 1275.1062,449.3628 1276.1585,452.1122 C1276.6846,453.4868 1277.1897,454.8401 1277.6742,456.1684 C1277.9165,456.8326 1278.1536,457.4905 1278.3856,458.1417 C1278.5016,458.4674 1278.6163,458.7913 1278.7298,459.1135 C1278.7865,459.2746 1276.8605,453.7722 1276.9166,453.9325" fill="none" id="N2-to-N3" style="stroke:#000000;stroke-width:1;"/><polygon fill="#000000" points="1278.899,459.5955,1279.7008,449.7794,1277.247,454.8763,1272.15,452.4225,1278.899,459.5955" style="stroke:#000000;stroke-width:1;"/><text fill="#000000" font-family="Verdana" font-size="13" lengthAdjust="spacing" textLength="82.3926" x="1210" y="367.0698">RequestVote</text></g><!--link N2 to N4--><g class="link" data-entity-1="N2" data-entity-2="N4" data-source-line="84" data-uid="lnk59" id="link_N2_N4"><path d="M731.5783,288.27 C732.1272,288.3533 732.6772,288.4374 733.2282,288.5222 C737.6367,289.2005 742.1138,289.9245 746.65,290.6975 C819.23,303.065 906.955,327.95 971,378 C992.69,394.95 1008.0475,421.74 1018.0525,444.5788 C1020.5538,450.2884 1022.7205,455.7512 1024.568,460.7515 C1024.6834,461.064 1022.7364,455.7399 1022.8494,456.0487" fill="none" id="N2-to-N4" style="stroke:#000000;stroke-width:1;"/><polygon fill="#000000" points="1024.9106,461.6835,1025.5754,451.8571,1023.1929,456.9879,1018.0622,454.6054,1024.9106,461.6835" style="stroke:#000000;stroke-width:1;"/><text fill="#000000" font-family="Verdana" font-size="13" lengthAdjust="spacing" textLength="82.3926" x="955" y="367.0698">RequestVote</text></g><!--link N2 to N5--><g class="link" data-entity-1="N2" data-entity-2="N5" data-source-line="85" data-uid="lnk60" id="link_N2_N5"><path d="M731.716,427.9683 C732.0027,428.3293 732.2887,428.6894 732.574,429.0487 C734.8565,431.9224 737.0928,434.738 739.2737,437.484 C743.6356,442.9759 747.7762,448.1891 751.6216,453.0306 C759.3123,462.7138 765.8226,470.9105 770.5623,476.878 C770.6364,476.9712 770.71,477.0639 770.7832,477.1561 C770.8198,477.2021 767.1246,472.5497 767.1609,472.5955" fill="none" id="N2-to-N5" style="stroke:#000000;stroke-width:1;"/><polygon fill="#000000" points="770.8926,477.2939,768.4273,467.7586,767.7829,473.3786,762.1629,472.7342,770.8926,477.2939" style="stroke:#000000;stroke-width:1;"/><text fill="#000000" font-family="Verdana" font-size="13" lengthAdjust="spacing" textLength="82.3926" x="682" y="367.0698">RequestVote</text></g><!--SRC=[fPLDYzim48Rl_XLJvzeS98qFNN2XoL8eX1JIKYZPKeIjzPhOigieRCAI_rxByUJBoTeaFfZXdLVIvD5a_C6-g5n1cSbKUzvoaUfI6fc3KP6LEiaKl7bGFICPBH9Jh7GyBhB2m2HDNknlbMN5wovVc5YPNMwcOczxl9akudVt6MKhrTfbb5LMjuyqDdsMaGL_7NxoGIuXocFcUOSIVIEVhT-SK1_cJwjt0FElXQjGcJ_rkcdGUDnps7PI9E7yIGEiG_uHNB3P1RJgBxkmwgSoUSZ9mIyunaMUf_QRZjKwH3AA2yOlPPbjpdnumVV3Igl2DrSXh1-WAHOsJRYbjK6zTbk_NVKmV1mUYdG1AO8KGGgIWgG4tXbNR775cxXY9rVionLxSiKxkE8fLoIkLAGBI16a25AG52IbnLMqk0eO94PkkkYo8wZYEbH6ZYweUsC7rBsl1rHsH5ASaXH4aYfp0Ic2544AaeAaj4Xoc8-bZjEuAg7XmczgKNwTfY07Xq7cfbXYbDBzsfNtR5T-HxloKyYS87E2p0aoLUC2Kf0K92LmixWrSwkJNC1QmvV1_7iMmqJ9UD_E30PbgXSttGJh71Qixx1WFUcpE-YpK_gCw5EHBY15a298GLAGb9g- - -uvuRD3-G1QlK9K_RogqxtT9Gndm_ewF6_A6oElZAlI_H70Lh0E2L4bPkhVIYtjhyAgGmAl9OApn7y0]--></g></svg>