<svg xmlns="http://www.w3.org/2000/svg" xmlns:xlink="http://www.w3.org/1999/xlink" contentStyleType="text/css" data-diagram-type="DESCRIPTION" height="1082px" preserveAspectRatio="none" style="width:1413px;height:1082px;background:#FFFFFF;" version="1.1" viewBox="0 0 1413 1082" width="1413px" zoomAndPan="magnify"><defs/><g><!--cluster raft--><g class="cluster" data-entity="raft" data-source-line="13" data-uid="ent0002" id="cluster_raft"><rect fill="#FFFFE0" height="1023" rx="2.5" ry="2.5" style="stroke:#FF0000;stroke-width:1;" width="1052" x="355" y="53.03"/><text fill="#000000" font-family="Verdana" font-size="14" font-weight="bold" lengthAdjust="spacing" textLength="28.6016" x="866.6992" y="69.1052">raft</text></g><!--cluster N5--><g class="cluster" data-entity="N5" data-source-line="14" data-uid="ent0003" id="cluster_N5"><polygon fill="#ADD8E6" points="645,334.03,655,324.03,859,324.03,859,1026.03,849,1036.03,645,1036.03,645,334.03" style="stroke:#000000;stroke-width:1;"/><line style="stroke:#000000;stroke-width:1;" x1="849" x2="859" y1="334.03" y2="324.03"/><line style="stroke:#000000;stroke-width:1;" x1="645" x2="849" y1="334.03" y2="334.03"/><line style="stroke:#000000;stroke-width:1;" x1="849" x2="849" y1="334.03" y2="1036.03"/><text fill="#000000" font-family="Verdana" font-size="14" font-weight="bold" lengthAdjust="spacing" textLength="138.373" x="678.8135" y="351.1052">Node5 [Follower]</text></g><!--cluster N4--><g class="cluster" data-entity="N4" data-source-line="26" data-uid="ent0013" id="cluster_N4"><polygon fill="#ADD8E6" points="899,334.03,909,324.03,1113,324.03,1113,1026.03,1103,1036.03,899,1036.03,899,334.03" style="stroke:#000000;stroke-width:1;"/><line style="stroke:#000000;stroke-width:1;" x1="1103" x2="1113" y1="334.03" y2="324.03"/><line style="stroke:#000000;stroke-width:1;" x1="899" x2="1103" y1="334.03" y2="334.03"/><line style="stroke:#000000;stroke-width:1;" x1="1103" x2="1103" y1="334.03" y2="1036.03"/><text fill="#000000" font-family="Verdana" font-size="14" font-weight="bold" lengthAdjust="spacing" textLength="138.373" x="932.8135" y="351.1052">Node4 [Follower]</text></g><!--cluster N3--><g class="cluster" data-entity="N3" data-source-line="38" data-uid="ent0023" id="cluster_N3"><polygon fill="#808080" points="1153,342.53,1163,332.53,1367,332.53,1367,1017.53,1357,1027.53,1153,1027.53,1153,342.53" style="stroke:#000000;stroke-width:1;"/><line style="stroke:#000000;stroke-width:1;" x1="1357" x2="1367" y1="342.53" y2="332.53"/><line style="stroke:#000000;stroke-width:1;" x1="1153" x2="1357" y1="342.53" y2="342.53"/><line style="stroke:#000000;stroke-width:1;" x1="1357" x2="1357" y1="342.53" y2="1027.53"/><text fill="#000000" font-family="Verdana" font-size="14" font-weight="bold" lengthAdjust="spacing" textLength="138.373" x="1186.8135" y="359.6052">Node3 [Follower]</text></g><!--cluster N2--><g class="cluster" data-entity="N2" data-source-line="50" data-uid="ent0033" id="cluster_N2"><polygon fill="#ADD8E6" points="403,123.03,413,113.03,605,113.03,605,832.03,595,842.03,403,842.03,403,123.03" style="stroke:#000000;stroke-width:1;"/><line style="stroke:#000000;stroke-width:1;" x1="595" x2="605" y1="123.03" y2="113.03"/><line style="stroke:#000000;stroke-width:1;" x1="403" x2="595" y1="123.03" y2="123.03"/><line style="stroke:#000000;stroke-width:1;" x1="595" x2="595" y1="123.03" y2="842.03"/><text fill="#000000" font-family="Verdana" font-size="14" font-weight="bold" lengthAdjust="spacing" textLength="124.1201" x="437.9399" y="140.1052">Node2 [Leader]</text></g><!--cluster raft1--><g class="cluster" data-entity="raft1" data-source-line="63" data-uid="ent0043" id="cluster_raft1"><rect fill="#FFFFE0" height="797" rx="2.5" ry="2.5" style="stroke:#FF0000;stroke-width:1;" width="303" x="12" y="69.03"/><text fill="#000000" font-family="Verdana" font-size="14" font-weight="bold" lengthAdjust="spacing" textLength="28.6016" x="149.1992" y="85.1052">raft</text></g><!--cluster N1--><g class="cluster" data-entity="N1" data-source-line="64" data-uid="ent0044" id="cluster_N1"><polygon fill="#FFC0CB" points="52,131.03,62,121.03,283,121.03,283,824.03,273,834.03,52,834.03,52,131.03" style="stroke:#000000;stroke-width:1;"/><line style="stroke:#000000;stroke-width:1;" x1="273" x2="283" y1="131.03" y2="121.03"/><line style="stroke:#000000;stroke-width:1;" x1="52" x2="273" y1="131.03" y2="131.03"/><line style="stroke:#000000;stroke-width:1;" x1="273" x2="273" y1="131.03" y2="834.03"/><text fill="#000000" font-family="Verdana" font-size="14" font-weight="bold" lengthAdjust="spacing" textLength="155.3809" x="85.8096" y="148.1052">Node1 [Old Leader]</text></g><!--entity N5_1--><g class="entity" data-entity="N5_1" data-source-line="15" data-uid="ent0004" id="entity_N5_1"><rect fill="#FFFFFF" height="91.0586" rx="2.5" ry="2.5" style="stroke:#000000;stroke-width:1;" width="78.501" x="716.5" y="373.03"/><polygon fill="#FFFFFF" points="778.001,378.03,778.001,392.03,790.001,392.03,790.001,384.03,784.001,378.03,778.001,378.03" style="stroke:#000000;stroke-width:1;"/><line style="stroke:#000000;stroke-width:1;" x1="784.001" x2="784.001" y1="378.03" y2="384.03"/><line style="stroke:#000000;stroke-width:1;" x1="790.001" x2="784.001" y1="384.03" y2="384.03"/><text fill="#000000" font-family="Verdana" font-size="14" lengthAdjust="spacing" textLength="42.8271" x="726.5" y="400.1052">Log=[</text><text fill="#000000" font-family="Verdana" font-size="14" lengthAdjust="spacing" textLength="33.7354" x="736.3438" y="417.1198">x=2,</text><text fill="#000000" font-family="Verdana" font-size="14" lengthAdjust="spacing" textLength="33.7354" x="736.3438" y="434.1345">y=2,</text><text fill="#000000" font-family="Verdana" font-size="14" lengthAdjust="spacing" textLength="6.3574" x="726.5" y="451.1491">]</text></g><!--entity N5_2--><g class="entity" data-entity="N5_2" data-source-line="16" data-uid="ent0005" id="entity_N5_2"><rect fill="#90EE90" height="40.0146" rx="2.5" ry="2.5" style="stroke:#000000;stroke-width:1;" width="86.916" x="712.5" y="525.03"/><polygon fill="#90EE90" points="782.416,530.03,782.416,544.03,794.416,544.03,794.416,536.03,788.416,530.03,782.416,530.03" style="stroke:#000000;stroke-width:1;"/><line style="stroke:#000000;stroke-width:1;" x1="788.416" x2="788.416" y1="530.03" y2="536.03"/><line style="stroke:#000000;stroke-width:1;" x1="794.416" x2="788.416" y1="536.03" y2="536.03"/><text fill="#000000" font-family="Verdana" font-size="14" lengthAdjust="spacing" textLength="56.916" x="722.5" y="552.1052">Term=3</text></g><!--entity N5_3--><g class="entity" data-entity="N5_3" data-source-line="17" data-uid="ent0006" id="entity_N5_3"><rect fill="#FFFFFF" height="40.0146" rx="2.5" ry="2.5" style="stroke:#000000;stroke-width:1;" width="145.3223" x="683.5" y="626.03"/><polygon fill="#FFFFFF" points="811.8223,631.03,811.8223,645.03,823.8223,645.03,823.8223,637.03,817.8223,631.03,811.8223,631.03" style="stroke:#000000;stroke-width:1;"/><line style="stroke:#000000;stroke-width:1;" x1="817.8223" x2="817.8223" y1="631.03" y2="637.03"/><line style="stroke:#000000;stroke-width:1;" x1="823.8223" x2="817.8223" y1="637.03" y2="637.03"/><text fill="#000000" font-family="Verdana" font-size="14" lengthAdjust="spacing" textLength="115.3223" x="693.5" y="653.1052">CommitIndex=4</text></g><!--entity N5_4--><g class="entity" data-entity="N5_4" data-source-line="18" data-uid="ent0007" id="entity_N5_4"><rect fill="#FFFFFF" height="40.0146" rx="2.5" ry="2.5" style="stroke:#000000;stroke-width:1;" width="129.5996" x="691" y="752.53"/><polygon fill="#FFFFFF" points="803.5996,757.53,803.5996,771.53,815.5996,771.53,815.5996,763.53,809.5996,757.53,803.5996,757.53" style="stroke:#000000;stroke-width:1;"/><line style="stroke:#000000;stroke-width:1;" x1="809.5996" x2="809.5996" y1="757.53" y2="763.53"/><line style="stroke:#000000;stroke-width:1;" x1="815.5996" x2="809.5996" y1="763.53" y2="763.53"/><text fill="#000000" font-family="Verdana" font-size="14" lengthAdjust="spacing" textLength="99.5996" x="701" y="779.6052">ApplyIndex=4</text></g><!--entity N5_5--><g class="entity" data-entity="N5_5" data-source-line="19" data-uid="ent0008" id="entity_N5_5"><rect fill="#FFFFFF" height="91.0586" rx="2.5" ry="2.5" style="stroke:#000000;stroke-width:1;" width="87.6953" x="712" y="921.03"/><polygon fill="#FFFFFF" points="782.6953,926.03,782.6953,940.03,794.6953,940.03,794.6953,932.03,788.6953,926.03,782.6953,926.03" style="stroke:#000000;stroke-width:1;"/><line style="stroke:#000000;stroke-width:1;" x1="788.6953" x2="788.6953" y1="926.03" y2="932.03"/><line style="stroke:#000000;stroke-width:1;" x1="794.6953" x2="788.6953" y1="932.03" y2="932.03"/><text fill="#000000" font-family="Verdana" font-size="14" lengthAdjust="spacing" textLength="57.6953" x="722" y="948.1052">State={</text><text fill="#000000" font-family="Verdana" font-size="14" lengthAdjust="spacing" textLength="33.5576" x="736.7656" y="965.1198">x: 2,</text><text fill="#000000" font-family="Verdana" font-size="14" lengthAdjust="spacing" textLength="33.5576" x="736.7656" y="982.1345">y: 2,</text><text fill="#000000" font-family="Verdana" font-size="14" lengthAdjust="spacing" textLength="8.8867" x="722" y="999.1491">}</text></g><!--entity N4_1--><g class="entity" data-entity="N4_1" data-source-line="27" data-uid="ent0014" id="entity_N4_1"><rect fill="#FFFFFF" height="91.0586" rx="2.5" ry="2.5" style="stroke:#000000;stroke-width:1;" width="78.501" x="970.5" y="373.03"/><polygon fill="#FFFFFF" points="1032.001,378.03,1032.001,392.03,1044.001,392.03,1044.001,384.03,1038.001,378.03,1032.001,378.03" style="stroke:#000000;stroke-width:1;"/><line style="stroke:#000000;stroke-width:1;" x1="1038.001" x2="1038.001" y1="378.03" y2="384.03"/><line style="stroke:#000000;stroke-width:1;" x1="1044.001" x2="1038.001" y1="384.03" y2="384.03"/><text fill="#000000" font-family="Verdana" font-size="14" lengthAdjust="spacing" textLength="42.8271" x="980.5" y="400.1052">Log=[</text><text fill="#000000" font-family="Verdana" font-size="14" lengthAdjust="spacing" textLength="33.7354" x="990.3438" y="417.1198">x=2,</text><text fill="#000000" font-family="Verdana" font-size="14" lengthAdjust="spacing" textLength="33.7354" x="990.3438" y="434.1345">y=2,</text><text fill="#000000" font-family="Verdana" font-size="14" lengthAdjust="spacing" textLength="6.3574" x="980.5" y="451.1491">]</text></g><!--entity N4_2--><g class="entity" data-entity="N4_2" data-source-line="28" data-uid="ent0015" id="entity_N4_2"><rect fill="#90EE90" height="40.0146" rx="2.5" ry="2.5" style="stroke:#000000;stroke-width:1;" width="86.916" x="966.5" y="525.03"/><polygon fill="#90EE90" points="1036.416,530.03,1036.416,544.03,1048.416,544.03,1048.416,536.03,1042.416,530.03,1036.416,530.03" style="stroke:#000000;stroke-width:1;"/><line style="stroke:#000000;stroke-width:1;" x1="1042.416" x2="1042.416" y1="530.03" y2="536.03"/><line style="stroke:#000000;stroke-width:1;" x1="1048.416" x2="1042.416" y1="536.03" y2="536.03"/><text fill="#000000" font-family="Verdana" font-size="14" lengthAdjust="spacing" textLength="56.916" x="976.5" y="552.1052">Term=3</text></g><!--entity N4_3--><g class="entity" data-entity="N4_3" data-source-line="29" data-uid="ent0016" id="entity_N4_3"><rect fill="#FFFFFF" height="40.0146" rx="2.5" ry="2.5" style="stroke:#000000;stroke-width:1;" width="145.3223" x="937.5" y="626.03"/><polygon fill="#FFFFFF" points="1065.8223,631.03,1065.8223,645.03,1077.8223,645.03,1077.8223,637.03,1071.8223,631.03,1065.8223,631.03" style="stroke:#000000;stroke-width:1;"/><line style="stroke:#000000;stroke-width:1;" x1="1071.8223" x2="1071.8223" y1="631.03" y2="637.03"/><line style="stroke:#000000;stroke-width:1;" x1="1077.8223" x2="1071.8223" y1="637.03" y2="637.03"/><text fill="#000000" font-family="Verdana" font-size="14" lengthAdjust="spacing" textLength="115.3223" x="947.5" y="653.1052">CommitIndex=4</text></g><!--entity N4_4--><g class="entity" data-entity="N4_4" data-source-line="30" data-uid="ent0017" id="entity_N4_4"><rect fill="#FFFFFF" height="40.0146" rx="2.5" ry="2.5" style="stroke:#000000;stroke-width:1;" width="129.5996" x="945" y="752.53"/><polygon fill="#FFFFFF" points="1057.5996,757.53,1057.5996,771.53,1069.5996,771.53,1069.5996,763.53,1063.5996,757.53,1057.5996,757.53" style="stroke:#000000;stroke-width:1;"/><line style="stroke:#000000;stroke-width:1;" x1="1063.5996" x2="1063.5996" y1="757.53" y2="763.53"/><line style="stroke:#000000;stroke-width:1;" x1="1069.5996" x2="1063.5996" y1="763.53" y2="763.53"/><text fill="#000000" font-family="Verdana" font-size="14" lengthAdjust="spacing" textLength="99.5996" x="955" y="779.6052">ApplyIndex=4</text></g><!--entity N4_5--><g class="entity" data-entity="N4_5" data-source-line="31" data-uid="ent0018" id="entity_N4_5"><rect fill="#FFFFFF" height="91.0586" rx="2.5" ry="2.5" style="stroke:#000000;stroke-width:1;" width="87.6953" x="966" y="921.03"/><polygon fill="#FFFFFF" points="1036.6953,926.03,1036.6953,940.03,1048.6953,940.03,1048.6953,932.03,1042.6953,926.03,1036.6953,926.03" style="stroke:#000000;stroke-width:1;"/><line style="stroke:#000000;stroke-width:1;" x1="1042.6953" x2="1042.6953" y1="926.03" y2="932.03"/><line style="stroke:#000000;stroke-width:1;" x1="1048.6953" x2="1042.6953" y1="932.03" y2="932.03"/><text fill="#000000" font-family="Verdana" font-size="14" lengthAdjust="spacing" textLength="57.6953" x="976" y="948.1052">State={</text><text fill="#000000" font-family="Verdana" font-size="14" lengthAdjust="spacing" textLength="33.5576" x="990.7656" y="965.1198">x: 2,</text><text fill="#000000" font-family="Verdana" font-size="14" lengthAdjust="spacing" textLength="33.5576" x="990.7656" y="982.1345">y: 2,</text><text fill="#000000" font-family="Verdana" font-size="14" lengthAdjust="spacing" textLength="8.8867" x="976" y="999.1491">}</text></g><!--entity N3_1--><g class="entity" data-entity="N3_1" data-source-line="39" data-uid="ent0024" id="entity_N3_1"><rect fill="#FFFFFF" height="74.0439" rx="2.5" ry="2.5" style="stroke:#000000;stroke-width:1;" width="78.501" x="1224.5" y="381.53"/><polygon fill="#FFFFFF" points="1286.001,386.53,1286.001,400.53,1298.001,400.53,1298.001,392.53,1292.001,386.53,1286.001,386.53" style="stroke:#000000;stroke-width:1;"/><line style="stroke:#000000;stroke-width:1;" x1="1292.001" x2="1292.001" y1="386.53" y2="392.53"/><line style="stroke:#000000;stroke-width:1;" x1="1298.001" x2="1292.001" y1="392.53" y2="392.53"/><text fill="#000000" font-family="Verdana" font-size="14" lengthAdjust="spacing" textLength="42.8271" x="1234.5" y="408.6052">Log=[</text><text fill="#000000" font-family="Verdana" font-size="14" lengthAdjust="spacing" textLength="33.7354" x="1244.3438" y="425.6198">x=1,</text><text fill="#000000" font-family="Verdana" font-size="14" lengthAdjust="spacing" textLength="6.3574" x="1234.5" y="442.6345">]</text></g><!--entity N3_2--><g class="entity" data-entity="N3_2" data-source-line="40" data-uid="ent0025" id="entity_N3_2"><rect fill="#FFFFFF" height="40.0146" rx="2.5" ry="2.5" style="stroke:#000000;stroke-width:1;" width="86.916" x="1220.5" y="525.03"/><polygon fill="#FFFFFF" points="1290.416,530.03,1290.416,544.03,1302.416,544.03,1302.416,536.03,1296.416,530.03,1290.416,530.03" style="stroke:#000000;stroke-width:1;"/><line style="stroke:#000000;stroke-width:1;" x1="1296.416" x2="1296.416" y1="530.03" y2="536.03"/><line style="stroke:#000000;stroke-width:1;" x1="1302.416" x2="1296.416" y1="536.03" y2="536.03"/><text fill="#000000" font-family="Verdana" font-size="14" lengthAdjust="spacing" textLength="56.916" x="1230.5" y="552.1052">Term=1</text></g><!--entity N3_3--><g class="entity" data-entity="N3_3" data-source-line="41" data-uid="ent0026" id="entity_N3_3"><rect fill="#FFFFFF" height="40.0146" rx="2.5" ry="2.5" style="stroke:#000000;stroke-width:1;" width="145.3223" x="1191.5" y="626.03"/><polygon fill="#FFFFFF" points="1319.8223,631.03,1319.8223,645.03,1331.8223,645.03,1331.8223,637.03,1325.8223,631.03,1319.8223,631.03" style="stroke:#000000;stroke-width:1;"/><line style="stroke:#000000;stroke-width:1;" x1="1325.8223" x2="1325.8223" y1="631.03" y2="637.03"/><line style="stroke:#000000;stroke-width:1;" x1="1331.8223" x2="1325.8223" y1="637.03" y2="637.03"/><text fill="#000000" font-family="Verdana" font-size="14" lengthAdjust="spacing" textLength="115.3223" x="1201.5" y="653.1052">CommitIndex=1</text></g><!--entity N3_4--><g class="entity" data-entity="N3_4" data-source-line="42" data-uid="ent0027" id="entity_N3_4"><rect fill="#FFFFFF" height="40.0146" rx="2.5" ry="2.5" style="stroke:#000000;stroke-width:1;" width="129.5996" x="1199" y="752.53"/><polygon fill="#FFFFFF" points="1311.5996,757.53,1311.5996,771.53,1323.5996,771.53,1323.5996,763.53,1317.5996,757.53,1311.5996,757.53" style="stroke:#000000;stroke-width:1;"/><line style="stroke:#000000;stroke-width:1;" x1="1317.5996" x2="1317.5996" y1="757.53" y2="763.53"/><line style="stroke:#000000;stroke-width:1;" x1="1323.5996" x2="1317.5996" y1="763.53" y2="763.53"/><text fill="#000000" font-family="Verdana" font-size="14" lengthAdjust="spacing" textLength="99.5996" x="1209" y="779.6052">ApplyIndex=1</text></g><!--entity N3_5--><g class="entity" data-entity="N3_5" data-source-line="43" data-uid="ent0028" id="entity_N3_5"><rect fill="#FFFFFF" height="74.0439" rx="2.5" ry="2.5" style="stroke:#000000;stroke-width:1;" width="87.6953" x="1220" y="929.53"/><polygon fill="#FFFFFF" points="1290.6953,934.53,1290.6953,948.53,1302.6953,948.53,1302.6953,940.53,1296.6953,934.53,1290.6953,934.53" style="stroke:#000000;stroke-width:1;"/><line style="stroke:#000000;stroke-width:1;" x1="1296.6953" x2="1296.6953" y1="934.53" y2="940.53"/><line style="stroke:#000000;stroke-width:1;" x1="1302.6953" x2="1296.6953" y1="940.53" y2="940.53"/><text fill="#000000" font-family="Verdana" font-size="14" lengthAdjust="spacing" textLength="57.6953" x="1230" y="956.6052">State={</text><text fill="#000000" font-family="Verdana" font-size="14" lengthAdjust="spacing" textLength="33.5576" x="1244.7656" y="973.6198">x: 1,</text><text fill="#000000" font-family="Verdana" font-size="14" lengthAdjust="spacing" textLength="8.8867" x="1230" y="990.6345">}</text></g><!--entity N2_1--><g class="entity" data-entity="N2_1" data-source-line="51" data-uid="ent0034" id="entity_N2_1"><rect fill="#FFFFFF" height="91.0586" rx="2.5" ry="2.5" style="stroke:#000000;stroke-width:1;" width="78.501" x="460.5" y="162.03"/><polygon fill="#FFFFFF" points="522.001,167.03,522.001,181.03,534.001,181.03,534.001,173.03,528.001,167.03,522.001,167.03" style="stroke:#000000;stroke-width:1;"/><line style="stroke:#000000;stroke-width:1;" x1="528.001" x2="528.001" y1="167.03" y2="173.03"/><line style="stroke:#000000;stroke-width:1;" x1="534.001" x2="528.001" y1="173.03" y2="173.03"/><text fill="#000000" font-family="Verdana" font-size="14" lengthAdjust="spacing" textLength="42.8271" x="470.5" y="189.1052">Log=[</text><text fill="#000000" font-family="Verdana" font-size="14" lengthAdjust="spacing" textLength="33.7354" x="480.3438" y="206.1198">x=2,</text><text fill="#000000" font-family="Verdana" font-size="14" lengthAdjust="spacing" textLength="33.7354" x="480.3438" y="223.1345">y=2,</text><text fill="#000000" font-family="Verdana" font-size="14" lengthAdjust="spacing" textLength="6.3574" x="470.5" y="240.1491">]</text></g><!--entity N2_2--><g class="entity" data-entity="N2_2" data-source-line="52" data-uid="ent0035" id="entity_N2_2"><rect fill="#90EE90" height="40.0146" rx="2.5" ry="2.5" style="stroke:#000000;stroke-width:1;" width="86.916" x="456.5" y="398.53"/><polygon fill="#90EE90" points="526.416,403.53,526.416,417.53,538.416,417.53,538.416,409.53,532.416,403.53,526.416,403.53" style="stroke:#000000;stroke-width:1;"/><line style="stroke:#000000;stroke-width:1;" x1="532.416" x2="532.416" y1="403.53" y2="409.53"/><line style="stroke:#000000;stroke-width:1;" x1="538.416" x2="532.416" y1="409.53" y2="409.53"/><text fill="#000000" font-family="Verdana" font-size="14" lengthAdjust="spacing" textLength="56.916" x="466.5" y="425.6052">Term=3</text></g><!--entity N2_3--><g class="entity" data-entity="N2_3" data-source-line="53" data-uid="ent0036" id="entity_N2_3"><rect fill="#FFFFFF" height="40.0146" rx="2.5" ry="2.5" style="stroke:#000000;stroke-width:1;" width="145.3223" x="427.5" y="525.03"/><polygon fill="#FFFFFF" points="555.8223,530.03,555.8223,544.03,567.8223,544.03,567.8223,536.03,561.8223,530.03,555.8223,530.03" style="stroke:#000000;stroke-width:1;"/><line style="stroke:#000000;stroke-width:1;" x1="561.8223" x2="561.8223" y1="530.03" y2="536.03"/><line style="stroke:#000000;stroke-width:1;" x1="567.8223" x2="561.8223" y1="536.03" y2="536.03"/><text fill="#000000" font-family="Verdana" font-size="14" lengthAdjust="spacing" textLength="115.3223" x="437.5" y="552.1052">CommitIndex=4</text></g><!--entity N2_4--><g class="entity" data-entity="N2_4" data-source-line="54" data-uid="ent0037" id="entity_N2_4"><rect fill="#FFFFFF" height="40.0146" rx="2.5" ry="2.5" style="stroke:#000000;stroke-width:1;" width="129.5996" x="435" y="626.03"/><polygon fill="#FFFFFF" points="547.5996,631.03,547.5996,645.03,559.5996,645.03,559.5996,637.03,553.5996,631.03,547.5996,631.03" style="stroke:#000000;stroke-width:1;"/><line style="stroke:#000000;stroke-width:1;" x1="553.5996" x2="553.5996" y1="631.03" y2="637.03"/><line style="stroke:#000000;stroke-width:1;" x1="559.5996" x2="553.5996" y1="637.03" y2="637.03"/><text fill="#000000" font-family="Verdana" font-size="14" lengthAdjust="spacing" textLength="99.5996" x="445" y="653.1052">ApplyIndex=4</text></g><!--entity N2_5--><g class="entity" data-entity="N2_5" data-source-line="55" data-uid="ent0038" id="entity_N2_5"><rect fill="#FFFFFF" height="91.0586" rx="2.5" ry="2.5" style="stroke:#000000;stroke-width:1;" width="87.6953" x="456" y="727.03"/><polygon fill="#FFFFFF" points="526.6953,732.03,526.6953,746.03,538.6953,746.03,538.6953,738.03,532.6953,732.03,526.6953,732.03" style="stroke:#000000;stroke-width:1;"/><line style="stroke:#000000;stroke-width:1;" x1="532.6953" x2="532.6953" y1="732.03" y2="738.03"/><line style="stroke:#000000;stroke-width:1;" x1="538.6953" x2="532.6953" y1="738.03" y2="738.03"/><text fill="#000000" font-family="Verdana" font-size="14" lengthAdjust="spacing" textLength="57.6953" x="466" y="754.1052">State={</text><text fill="#000000" font-family="Verdana" font-size="14" lengthAdjust="spacing" textLength="33.5576" x="480.7656" y="771.1198">x: 2,</text><text fill="#000000" font-family="Verdana" font-size="14" lengthAdjust="spacing" textLength="33.5576" x="480.7656" y="788.1345">y: 2,</text><text fill="#000000" font-family="Verdana" font-size="14" lengthAdjust="spacing" textLength="8.8867" x="466" y="805.1491">}</text></g><!--entity N1_1--><g class="entity" data-entity="N1_1" data-source-line="65" data-uid="ent0045" id="entity_N1_1"><rect fill="#D3D3D3" height="91.0586" rx="2.5" ry="2.5" style="stroke:#000000;stroke-width:1;" width="78.501" x="127.5" y="162.03"/><polygon fill="#D3D3D3" points="189.001,167.03,189.001,181.03,201.001,181.03,201.001,173.03,195.001,167.03,189.001,167.03" style="stroke:#000000;stroke-width:1;"/><line style="stroke:#000000;stroke-width:1;" x1="195.001" x2="195.001" y1="167.03" y2="173.03"/><line style="stroke:#000000;stroke-width:1;" x1="201.001" x2="195.001" y1="173.03" y2="173.03"/><text fill="#000000" font-family="Verdana" font-size="14" lengthAdjust="spacing" textLength="42.8271" x="137.5" y="189.1052">Log=[</text><text fill="#000000" font-family="Verdana" font-size="14" lengthAdjust="spacing" textLength="33.7354" x="147.3438" y="206.1198">x=9,</text><text fill="#000000" font-family="Verdana" font-size="14" lengthAdjust="spacing" textLength="33.7354" x="147.3438" y="223.1345">y=2,</text><text fill="#000000" font-family="Verdana" font-size="14" lengthAdjust="spacing" textLength="6.3574" x="137.5" y="240.1491">]</text></g><!--entity N1_2--><g class="entity" data-entity="N1_2" data-source-line="66" data-uid="ent0046" id="entity_N1_2"><rect fill="#D3D3D3" height="40.0146" rx="2.5" ry="2.5" style="stroke:#000000;stroke-width:1;" width="86.916" x="123.5" y="398.53"/><polygon fill="#D3D3D3" points="193.416,403.53,193.416,417.53,205.416,417.53,205.416,409.53,199.416,403.53,193.416,403.53" style="stroke:#000000;stroke-width:1;"/><line style="stroke:#000000;stroke-width:1;" x1="199.416" x2="199.416" y1="403.53" y2="409.53"/><line style="stroke:#000000;stroke-width:1;" x1="205.416" x2="199.416" y1="409.53" y2="409.53"/><text fill="#000000" font-family="Verdana" font-size="14" lengthAdjust="spacing" textLength="56.916" x="133.5" y="425.6052">Term=2</text></g><!--entity N1_3--><g class="entity" data-entity="N1_3" data-source-line="67" data-uid="ent0047" id="entity_N1_3"><rect fill="#D3D3D3" height="40.0146" rx="2.5" ry="2.5" style="stroke:#000000;stroke-width:1;" width="145.3223" x="94.5" y="525.03"/><polygon fill="#D3D3D3" points="222.8223,530.03,222.8223,544.03,234.8223,544.03,234.8223,536.03,228.8223,530.03,222.8223,530.03" style="stroke:#000000;stroke-width:1;"/><line style="stroke:#000000;stroke-width:1;" x1="228.8223" x2="228.8223" y1="530.03" y2="536.03"/><line style="stroke:#000000;stroke-width:1;" x1="234.8223" x2="228.8223" y1="536.03" y2="536.03"/><text fill="#000000" font-family="Verdana" font-size="14" lengthAdjust="spacing" textLength="115.3223" x="104.5" y="552.1052">CommitIndex=5</text></g><!--entity N1_4--><g class="entity" data-entity="N1_4" data-source-line="68" data-uid="ent0048" id="entity_N1_4"><rect fill="#D3D3D3" height="40.0146" rx="2.5" ry="2.5" style="stroke:#000000;stroke-width:1;" width="129.5996" x="102" y="626.03"/><polygon fill="#D3D3D3" points="214.5996,631.03,214.5996,645.03,226.5996,645.03,226.5996,637.03,220.5996,631.03,214.5996,631.03" style="stroke:#000000;stroke-width:1;"/><line style="stroke:#000000;stroke-width:1;" x1="220.5996" x2="220.5996" y1="631.03" y2="637.03"/><line style="stroke:#000000;stroke-width:1;" x1="226.5996" x2="220.5996" y1="637.03" y2="637.03"/><text fill="#000000" font-family="Verdana" font-size="14" lengthAdjust="spacing" textLength="99.5996" x="112" y="653.1052">ApplyIndex=5</text></g><!--entity N1_5--><g class="entity" data-entity="N1_5" data-source-line="69" data-uid="ent0049" id="entity_N1_5"><rect fill="#D3D3D3" height="91.0586" rx="2.5" ry="2.5" style="stroke:#000000;stroke-width:1;" width="87.6953" x="123" y="727.03"/><polygon fill="#D3D3D3" points="193.6953,732.03,193.6953,746.03,205.6953,746.03,205.6953,738.03,199.6953,732.03,193.6953,732.03" style="stroke:#000000;stroke-width:1;"/><line style="stroke:#000000;stroke-width:1;" x1="199.6953" x2="199.6953" y1="732.03" y2="738.03"/><line style="stroke:#000000;stroke-width:1;" x1="205.6953" x2="199.6953" y1="738.03" y2="738.03"/><text fill="#000000" font-family="Verdana" font-size="14" lengthAdjust="spacing" textLength="57.6953" x="133" y="754.1052">State={</text><text fill="#000000" font-family="Verdana" font-size="14" lengthAdjust="spacing" textLength="33.5576" x="147.7656" y="771.1198">x: 9,</text><text fill="#000000" font-family="Verdana" font-size="14" lengthAdjust="spacing" textLength="33.5576" x="147.7656" y="788.1345">y: 2,</text><text fill="#000000" font-family="Verdana" font-size="14" lengthAdjust="spacing" textLength="8.8867" x="133" y="805.1491">}</text></g><!--link N5_1 to N5_2--><g class="link" data-entity-1="N5_1" data-entity-2="N5_2" data-source-line="21" data-uid="lnk9" id="link_N5_1_N5_2"><path d="M756,464.13 C756,484.92 756,508.58 756,524.72" fill="none" id="N5_1-N5_2" style="stroke:#000000;stroke-width:1;"/></g><!--link N5_2 to N5_3--><g class="link" data-entity-1="N5_2" data-entity-2="N5_3" data-source-line="22" data-uid="lnk10" id="link_N5_2_N5_3"><path d="M756,565.12 C756,582.65 756,608.49 756,626" fill="none" id="N5_2-N5_3" style="stroke:#000000;stroke-width:1;"/></g><!--link N5_3 to N5_4--><g class="link" data-entity-1="N5_3" data-entity-2="N5_4" data-source-line="23" data-uid="lnk11" id="link_N5_3_N5_4"><path d="M756,666.21 C756,689.54 756,728.69 756,752.12" fill="none" id="N5_3-N5_4" style="stroke:#000000;stroke-width:1;"/></g><!--link N5_4 to N5_5--><g class="link" data-entity-1="N5_4" data-entity-2="N5_5" data-source-line="24" data-uid="lnk12" id="link_N5_4_N5_5"><path d="M756,792.64 C756,822.33 756,880.33 756,920.93" fill="none" id="N5_4-N5_5" style="stroke:#000000;stroke-width:1;"/></g><!--link N4_1 to N4_2--><g class="link" data-entity-1="N4_1" data-entity-2="N4_2" data-source-line="33" data-uid="lnk19" id="link_N4_1_N4_2"><path d="M1010,464.13 C1010,484.92 1010,508.58 1010,524.72" fill="none" id="N4_1-N4_2" style="stroke:#000000;stroke-width:1;"/></g><!--link N4_2 to N4_3--><g class="link" data-entity-1="N4_2" data-entity-2="N4_3" data-source-line="34" data-uid="lnk20" id="link_N4_2_N4_3"><path d="M1010,565.12 C1010,582.65 1010,608.49 1010,626" fill="none" id="N4_2-N4_3" style="stroke:#000000;stroke-width:1;"/></g><!--link N4_3 to N4_4--><g class="link" data-entity-1="N4_3" data-entity-2="N4_4" data-source-line="35" data-uid="lnk21" id="link_N4_3_N4_4"><path d="M1010,666.21 C1010,689.54 1010,728.69 1010,752.12" fill="none" id="N4_3-N4_4" style="stroke:#000000;stroke-width:1;"/></g><!--link N4_4 to N4_5--><g class="link" data-entity-1="N4_4" data-entity-2="N4_5" data-source-line="36" data-uid="lnk22" id="link_N4_4_N4_5"><path d="M1010,792.64 C1010,822.33 1010,880.33 1010,920.93" fill="none" id="N4_4-N4_5" style="stroke:#000000;stroke-width:1;"/></g><!--link N3_1 to N3_2--><g class="link" data-entity-1="N3_1" data-entity-2="N3_2" data-source-line="45" data-uid="lnk29" id="link_N3_1_N3_2"><path d="M1264,455.54 C1264,478.09 1264,506.26 1264,524.68" fill="none" id="N3_1-N3_2" style="stroke:#000000;stroke-width:1;"/></g><!--link N3_2 to N3_3--><g class="link" data-entity-1="N3_2" data-entity-2="N3_3" data-source-line="46" data-uid="lnk30" id="link_N3_2_N3_3"><path d="M1264,565.12 C1264,582.65 1264,608.49 1264,626" fill="none" id="N3_2-N3_3" style="stroke:#000000;stroke-width:1;"/></g><!--link N3_3 to N3_4--><g class="link" data-entity-1="N3_3" data-entity-2="N3_4" data-source-line="47" data-uid="lnk31" id="link_N3_3_N3_4"><path d="M1264,666.21 C1264,689.54 1264,728.69 1264,752.12" fill="none" id="N3_3-N3_4" style="stroke:#000000;stroke-width:1;"/></g><!--link N3_4 to N3_5--><g class="link" data-entity-1="N3_4" data-entity-2="N3_5" data-source-line="48" data-uid="lnk32" id="link_N3_4_N3_5"><path d="M1264,792.64 C1264,824.42 1264,888.63 1264,929.22" fill="none" id="N3_4-N3_5" style="stroke:#000000;stroke-width:1;"/></g><!--link N2_1 to N2_2--><g class="link" data-entity-1="N2_1" data-entity-2="N2_2" data-source-line="57" data-uid="lnk39" id="link_N2_1_N2_2"><path d="M500,253.11 C500,298.19 500,365.73 500,398.43" fill="none" id="N2_1-N2_2" style="stroke:#000000;stroke-width:1;"/></g><!--link N2_2 to N2_3--><g class="link" data-entity-1="N2_2" data-entity-2="N2_3" data-source-line="58" data-uid="lnk40" id="link_N2_2_N2_3"><path d="M500,438.71 C500,462.04 500,501.19 500,524.62" fill="none" id="N2_2-N2_3" style="stroke:#000000;stroke-width:1;"/></g><!--link N2_3 to N2_4--><g class="link" data-entity-1="N2_3" data-entity-2="N2_4" data-source-line="59" data-uid="lnk41" id="link_N2_3_N2_4"><path d="M500,565.12 C500,582.65 500,608.49 500,626" fill="none" id="N2_3-N2_4" style="stroke:#000000;stroke-width:1;"/></g><!--link N2_4 to N2_5--><g class="link" data-entity-1="N2_4" data-entity-2="N2_5" data-source-line="60" data-uid="lnk42" id="link_N2_4_N2_5"><path d="M500,666.21 C500,682.38 500,706.14 500,727.01" fill="none" id="N2_4-N2_5" style="stroke:#000000;stroke-width:1;"/></g><!--link N1_1 to N1_2--><g class="link" data-entity-1="N1_1" data-entity-2="N1_2" data-source-line="71" data-uid="lnk50" id="link_N1_1_N1_2"><path d="M167,253.11 C167,298.19 167,365.73 167,398.43" fill="none" id="N1_1-N1_2" style="stroke:#000000;stroke-width:1;"/></g><!--link N1_2 to N1_3--><g class="link" data-entity-1="N1_2" data-entity-2="N1_3" data-source-line="72" data-uid="lnk51" id="link_N1_2_N1_3"><path d="M167,438.71 C167,462.04 167,501.19 167,524.62" fill="none" id="N1_2-N1_3" style="stroke:#000000;stroke-width:1;"/></g><!--link N1_3 to N1_4--><g class="link" data-entity-1="N1_3" data-entity-2="N1_4" data-source-line="73" data-uid="lnk52" id="link_N1_3_N1_4"><path d="M167,565.12 C167,582.65 167,608.49 167,626" fill="none" id="N1_3-N1_4" style="stroke:#000000;stroke-width:1;"/></g><!--link N1_4 to N1_5--><g class="link" data-entity-1="N1_4" data-entity-2="N1_5" data-source-line="74" data-uid="lnk53" id="link_N1_4_N1_5"><path d="M167,666.21 C167,682.38 167,706.14 167,727.01" fill="none" id="N1_4-N1_5" style="stroke:#000000;stroke-width:1;"/></g><!--link raft1 to raft--><g class="link" data-entity-1="raft1" data-entity-2="raft" data-source-line="76" data-uid="lnk54" id="link_raft1_raft"><path d="M46.0911,68.3215 C46.2482,68.0291 46.4062,67.7373 46.5652,67.4463 C46.8831,66.8642 47.2047,66.2851 47.5301,65.7089 C48.1809,64.5565 48.8468,63.416 49.5281,62.2884 C60.4294,44.2475 75.2825,29.51 95.5,22.03 C125.3,11 208.7,11 238.5,22.03 C283.605,38.715 314.225,82.7575 333.81,123.7412 C338.7063,133.9872 342.9128,144.042 346.4836,153.4303 C348.269,158.1245 349.8954,162.652 351.3697,166.9536 C352.1068,169.1044 352.8059,171.1986 353.4677,173.229 C353.7986,174.2441 354.1203,175.2433 354.4327,176.2256 C354.5889,176.7167 354.7428,177.2037 354.8945,177.6862" fill="none" id="raft1-raft" style="stroke:#000000;stroke-width:1;"/></g><!--link N2 to N3--><g class="link" data-entity-1="N2" data-entity-2="N3" data-source-line="78" data-uid="lnk55" id="link_N2_N3"><path d="M605.4948,209.253 C606.4969,209.3401 607.5826,209.4352 608.7492,209.5381 C611.0823,209.7441 613.7389,209.9817 616.6973,210.2511 C628.5308,211.3286 645.1928,212.9137 665.2956,215.008 C705.5013,219.1966 759.47,225.4219 816.1,233.6962 C929.36,250.245 1053.265,274.99 1099,308.03 C1121.315,324.15 1136.6825,350.9275 1146.5363,373.9663 C1148.9997,379.7259 1149.1135,379.5969 1150.9102,384.6643" fill="none" id="N2-to-N3" style="stroke:#000000;stroke-width:1;"/><polygon fill="#000000" points="1152.9151,390.3194,1153.6777,380.5001,1151.2443,385.6068,1146.1376,383.1734,1152.9151,390.3194" style="stroke:#000000;stroke-width:1;"/><text fill="#000000" font-family="Verdana" font-size="13" lengthAdjust="spacing" textLength="19.5127" x="1080" y="297.0998">fail</text></g><!--link N2 to N4--><g class="link" data-entity-1="N2" data-entity-2="N4" data-source-line="79" data-uid="lnk56" id="link_N2_N4"><path d="M605.0944,209.7826 C605.2429,209.8071 605.3933,209.8321 605.5456,209.8575 C610.4187,210.6687 617.2148,211.8773 625.5097,213.5497 C642.0994,216.8944 664.6838,222.0937 689.8675,229.6775 C740.235,244.845 801,269.55 845,308.03 C865.72,326.15 881.0625,352.96 891.3025,375.5163 C893.8625,381.1553 896.1036,386.5285 898.0301,391.4336 C898.2709,392.0468 898.5068,392.6526 898.7378,393.2507 C898.7955,393.4002 896.6992,387.9491 896.7564,388.0977" fill="none" id="N2-to-N4" style="stroke:#000000;stroke-width:1;"/><polygon fill="#000000" points="898.9101,393.6978,899.4129,383.8618,897.1153,389.031,891.9461,386.7334,898.9101,393.6978" style="stroke:#000000;stroke-width:1;"/><text fill="#000000" font-family="Verdana" font-size="13" lengthAdjust="spacing" textLength="54.4565" x="834" y="297.0998">rpc sync</text></g><!--link N2 to N5--><g class="link" data-entity-1="N2" data-entity-2="N5" data-source-line="80" data-uid="lnk57" id="link_N2_N5"><path d="M605.0643,238.6253 C605.1414,238.913 605.2189,239.2023 605.2968,239.4932 C605.6085,240.6565 605.9269,241.8445 606.2514,243.0556 C611.4441,262.4344 618.2281,287.7525 625.0113,313.0675 C631.7944,338.3825 638.5766,363.6944 643.7655,383.0606 C644.0898,384.271 644.4079,385.4582 644.7193,386.6207 C644.7972,386.9113 643.3218,381.4048 643.3989,381.6923" fill="none" id="N2-to-N5" style="stroke:#000000;stroke-width:1;"/><polygon fill="#000000" points="644.9517,387.4879,646.4862,377.7593,643.6577,382.6582,638.7587,379.8297,644.9517,387.4879" style="stroke:#000000;stroke-width:1;"/><text fill="#000000" font-family="Verdana" font-size="13" lengthAdjust="spacing" textLength="54.4565" x="621" y="297.0998">rpc sync</text></g><!--SRC=[fPHHYzf058NVyojkusjzc9cRXrsmKBSK2c9XsvTYbsKmOpOOap1cgM7nlpSJFHfDreYRXt0vEVTw_SumdueNipAK9pfEFM-zZDDSMxqYQ-Q5JgF4q9j7rJFMysLaizSqVCYIpD8aZbwAFoP9id-xxvaDZTrzUpIXjsqEIxFmufnnycfQKyP9PNLpZgluLYyAVp-f7kfFgtT0i- -PsyJO9v_qcgR1tkCUROjueUS5-PCi6it-faIRaVnChYXt1RgUHKVNRsDN8mM7f47YLewiCMc7-o5RhUBYHngQpOZHf3gCN_CyASzytE7xLUZ2ZDxSjhIvf_tYLExBBNg3kdTRlzq_eU6tORqm50b5GL5G60f32RmpnjnYp3Snvbx6V0jZlf8nVu0ndp9cC6OmPZ36Dgw0mb0OIeknQZ5MD8YiBlj8YmPWzJvW0OViWNemza0z-Aw0AXearIb91PBOp1LG51G5XQ4mb1P9IRE9qU61expfhChUioflEQloohCgFt1MvIbX2S8IX2K8OnjNG64e32Nel8YhNtA5QDt8WcO_av1ECX0qoEDqsPV4NLSIejeVd7NvNYWIPddPtCmaG8-wtDE8vz32brlEahhhJaey1-TZzg49X2OGca1e0g49X2OGca1eeWvjby_mSLWdvNdJUi8NTxNSqqB7oL7XIh7vdDPbEZ-gGLFz3m00]--></g></svg>