<svg xmlns="http://www.w3.org/2000/svg" xmlns:xlink="http://www.w3.org/1999/xlink" contentStyleType="text/css" data-diagram-type="DESCRIPTION" height="1090px" preserveAspectRatio="none" style="width:1300px;height:1090px;background:#FFFFFF;" version="1.1" viewBox="0 0 1300 1090" width="1300px" zoomAndPan="magnify"><defs/><g><!--cluster raft--><g class="cluster" data-entity="raft" data-source-line="13" data-uid="ent0002" id="cluster_raft"><rect fill="#FFFFE0" height="1033" rx="2.5" ry="2.5" style="stroke:#FF0000;stroke-width:1;" width="1282" x="12" y="51.99"/><text fill="#000000" font-family="Verdana" font-size="14" font-weight="bold" lengthAdjust="spacing" textLength="28.6016" x="638.6992" y="68.0652">raft</text></g><!--cluster N5--><g class="cluster" data-entity="N5" data-source-line="14" data-uid="ent0003" id="cluster_N5"><polygon fill="#ADD8E6" points="540,349.99,550,339.99,754,339.99,754,1042.99,744,1052.99,540,1052.99,540,349.99" style="stroke:#000000;stroke-width:1;"/><line style="stroke:#000000;stroke-width:1;" x1="744" x2="754" y1="349.99" y2="339.99"/><line style="stroke:#000000;stroke-width:1;" x1="540" x2="744" y1="349.99" y2="349.99"/><line style="stroke:#000000;stroke-width:1;" x1="744" x2="744" y1="349.99" y2="1052.99"/><text fill="#000000" font-family="Verdana" font-size="14" font-weight="bold" lengthAdjust="spacing" textLength="138.373" x="573.8135" y="367.0652">Node5 [Follower]</text></g><!--cluster N4--><g class="cluster" data-entity="N4" data-source-line="26" data-uid="ent0013" id="cluster_N4"><polygon fill="#ADD8E6" points="794,349.99,804,339.99,1008,339.99,1008,1042.99,998,1052.99,794,1052.99,794,349.99" style="stroke:#000000;stroke-width:1;"/><line style="stroke:#000000;stroke-width:1;" x1="998" x2="1008" y1="349.99" y2="339.99"/><line style="stroke:#000000;stroke-width:1;" x1="794" x2="998" y1="349.99" y2="349.99"/><line style="stroke:#000000;stroke-width:1;" x1="998" x2="998" y1="349.99" y2="1052.99"/><text fill="#000000" font-family="Verdana" font-size="14" font-weight="bold" lengthAdjust="spacing" textLength="138.373" x="827.8135" y="367.0652">Node4 [Follower]</text></g><!--cluster N3--><g class="cluster" data-entity="N3" data-source-line="38" data-uid="ent0023" id="cluster_N3"><polygon fill="#ADD8E6" points="1048,349.99,1058,339.99,1262,339.99,1262,1042.99,1252,1052.99,1048,1052.99,1048,349.99" style="stroke:#000000;stroke-width:1;"/><line style="stroke:#000000;stroke-width:1;" x1="1252" x2="1262" y1="349.99" y2="339.99"/><line style="stroke:#000000;stroke-width:1;" x1="1048" x2="1252" y1="349.99" y2="349.99"/><line style="stroke:#000000;stroke-width:1;" x1="1252" x2="1252" y1="349.99" y2="1052.99"/><text fill="#000000" font-family="Verdana" font-size="14" font-weight="bold" lengthAdjust="spacing" textLength="138.373" x="1081.8135" y="367.0652">Node3 [Follower]</text></g><!--cluster N2--><g class="cluster" data-entity="N2" data-source-line="50" data-uid="ent0033" id="cluster_N2"><polygon fill="#ADD8E6" points="298,113.99,308,103.99,500,103.99,500,872.99,490,882.99,298,882.99,298,113.99" style="stroke:#000000;stroke-width:1;"/><line style="stroke:#000000;stroke-width:1;" x1="490" x2="500" y1="113.99" y2="103.99"/><line style="stroke:#000000;stroke-width:1;" x1="298" x2="490" y1="113.99" y2="113.99"/><line style="stroke:#000000;stroke-width:1;" x1="490" x2="490" y1="113.99" y2="882.99"/><text fill="#000000" font-family="Verdana" font-size="14" font-weight="bold" lengthAdjust="spacing" textLength="124.1201" x="332.9399" y="131.0652">Node2 [Leader]</text></g><!--cluster N1--><g class="cluster" data-entity="N1" data-source-line="62" data-uid="ent0043" id="cluster_N1"><polygon fill="#ADD8E6" points="44,113.99,54,103.99,258,103.99,258,872.99,248,882.99,44,882.99,44,113.99" style="stroke:#000000;stroke-width:1;"/><line style="stroke:#000000;stroke-width:1;" x1="248" x2="258" y1="113.99" y2="103.99"/><line style="stroke:#000000;stroke-width:1;" x1="44" x2="248" y1="113.99" y2="113.99"/><line style="stroke:#000000;stroke-width:1;" x1="248" x2="248" y1="113.99" y2="882.99"/><text fill="#000000" font-family="Verdana" font-size="14" font-weight="bold" lengthAdjust="spacing" textLength="138.373" x="77.8135" y="131.0652">Node1 [Follower]</text></g><!--entity N5_1--><g class="entity" data-entity="N5_1" data-source-line="15" data-uid="ent0004" id="entity_N5_1"><rect fill="#FFFFFF" height="91.0586" rx="2.5" ry="2.5" style="stroke:#000000;stroke-width:1;" width="78.501" x="611.5" y="413.99"/><polygon fill="#FFFFFF" points="673.001,418.99,673.001,432.99,685.001,432.99,685.001,424.99,679.001,418.99,673.001,418.99" style="stroke:#000000;stroke-width:1;"/><line style="stroke:#000000;stroke-width:1;" x1="679.001" x2="679.001" y1="418.99" y2="424.99"/><line style="stroke:#000000;stroke-width:1;" x1="685.001" x2="679.001" y1="424.99" y2="424.99"/><text fill="#000000" font-family="Verdana" font-size="14" lengthAdjust="spacing" textLength="42.8271" x="621.5" y="441.0652">Log=[</text><text fill="#000000" font-family="Verdana" font-size="14" lengthAdjust="spacing" textLength="33.7354" x="631.3438" y="458.0798">x=2,</text><text fill="#000000" font-family="Verdana" font-size="14" lengthAdjust="spacing" textLength="33.7354" x="631.3438" y="475.0945">y=2,</text><text fill="#000000" font-family="Verdana" font-size="14" lengthAdjust="spacing" textLength="6.3574" x="621.5" y="492.1091">]</text></g><!--entity N5_2--><g class="entity" data-entity="N5_2" data-source-line="16" data-uid="ent0005" id="entity_N5_2"><rect fill="#FFFFFF" height="40.0146" rx="2.5" ry="2.5" style="stroke:#000000;stroke-width:1;" width="86.916" x="607.5" y="565.99"/><polygon fill="#FFFFFF" points="677.416,570.99,677.416,584.99,689.416,584.99,689.416,576.99,683.416,570.99,677.416,570.99" style="stroke:#000000;stroke-width:1;"/><line style="stroke:#000000;stroke-width:1;" x1="683.416" x2="683.416" y1="570.99" y2="576.99"/><line style="stroke:#000000;stroke-width:1;" x1="689.416" x2="683.416" y1="576.99" y2="576.99"/><text fill="#000000" font-family="Verdana" font-size="14" lengthAdjust="spacing" textLength="56.916" x="617.5" y="593.0652">Term=3</text></g><!--entity N5_3--><g class="entity" data-entity="N5_3" data-source-line="17" data-uid="ent0006" id="entity_N5_3"><rect fill="#FFFFFF" height="40.0146" rx="2.5" ry="2.5" style="stroke:#000000;stroke-width:1;" width="145.3223" x="578.5" y="666.99"/><polygon fill="#FFFFFF" points="706.8223,671.99,706.8223,685.99,718.8223,685.99,718.8223,677.99,712.8223,671.99,706.8223,671.99" style="stroke:#000000;stroke-width:1;"/><line style="stroke:#000000;stroke-width:1;" x1="712.8223" x2="712.8223" y1="671.99" y2="677.99"/><line style="stroke:#000000;stroke-width:1;" x1="718.8223" x2="712.8223" y1="677.99" y2="677.99"/><text fill="#000000" font-family="Verdana" font-size="14" lengthAdjust="spacing" textLength="115.3223" x="588.5" y="694.0652">CommitIndex=4</text></g><!--entity N5_4--><g class="entity" data-entity="N5_4" data-source-line="18" data-uid="ent0007" id="entity_N5_4"><rect fill="#FFFFFF" height="40.0146" rx="2.5" ry="2.5" style="stroke:#000000;stroke-width:1;" width="129.5996" x="586" y="793.49"/><polygon fill="#FFFFFF" points="698.5996,798.49,698.5996,812.49,710.5996,812.49,710.5996,804.49,704.5996,798.49,698.5996,798.49" style="stroke:#000000;stroke-width:1;"/><line style="stroke:#000000;stroke-width:1;" x1="704.5996" x2="704.5996" y1="798.49" y2="804.49"/><line style="stroke:#000000;stroke-width:1;" x1="710.5996" x2="704.5996" y1="804.49" y2="804.49"/><text fill="#000000" font-family="Verdana" font-size="14" lengthAdjust="spacing" textLength="99.5996" x="596" y="820.5652">ApplyIndex=4</text></g><!--entity N5_5--><g class="entity" data-entity="N5_5" data-source-line="19" data-uid="ent0008" id="entity_N5_5"><rect fill="#FFFFFF" height="91.0586" rx="2.5" ry="2.5" style="stroke:#000000;stroke-width:1;" width="87.6953" x="607" y="937.99"/><polygon fill="#FFFFFF" points="677.6953,942.99,677.6953,956.99,689.6953,956.99,689.6953,948.99,683.6953,942.99,677.6953,942.99" style="stroke:#000000;stroke-width:1;"/><line style="stroke:#000000;stroke-width:1;" x1="683.6953" x2="683.6953" y1="942.99" y2="948.99"/><line style="stroke:#000000;stroke-width:1;" x1="689.6953" x2="683.6953" y1="948.99" y2="948.99"/><text fill="#000000" font-family="Verdana" font-size="14" lengthAdjust="spacing" textLength="57.6953" x="617" y="965.0652">State={</text><text fill="#000000" font-family="Verdana" font-size="14" lengthAdjust="spacing" textLength="33.5576" x="631.7656" y="982.0798">x: 2,</text><text fill="#000000" font-family="Verdana" font-size="14" lengthAdjust="spacing" textLength="33.5576" x="631.7656" y="999.0945">y: 2,</text><text fill="#000000" font-family="Verdana" font-size="14" lengthAdjust="spacing" textLength="8.8867" x="617" y="1016.1091">}</text></g><!--entity N4_1--><g class="entity" data-entity="N4_1" data-source-line="27" data-uid="ent0014" id="entity_N4_1"><rect fill="#FFFFFF" height="91.0586" rx="2.5" ry="2.5" style="stroke:#000000;stroke-width:1;" width="78.501" x="865.5" y="413.99"/><polygon fill="#FFFFFF" points="927.001,418.99,927.001,432.99,939.001,432.99,939.001,424.99,933.001,418.99,927.001,418.99" style="stroke:#000000;stroke-width:1;"/><line style="stroke:#000000;stroke-width:1;" x1="933.001" x2="933.001" y1="418.99" y2="424.99"/><line style="stroke:#000000;stroke-width:1;" x1="939.001" x2="933.001" y1="424.99" y2="424.99"/><text fill="#000000" font-family="Verdana" font-size="14" lengthAdjust="spacing" textLength="42.8271" x="875.5" y="441.0652">Log=[</text><text fill="#000000" font-family="Verdana" font-size="14" lengthAdjust="spacing" textLength="33.7354" x="885.3438" y="458.0798">x=2,</text><text fill="#000000" font-family="Verdana" font-size="14" lengthAdjust="spacing" textLength="33.7354" x="885.3438" y="475.0945">y=2,</text><text fill="#000000" font-family="Verdana" font-size="14" lengthAdjust="spacing" textLength="6.3574" x="875.5" y="492.1091">]</text></g><!--entity N4_2--><g class="entity" data-entity="N4_2" data-source-line="28" data-uid="ent0015" id="entity_N4_2"><rect fill="#FFFFFF" height="40.0146" rx="2.5" ry="2.5" style="stroke:#000000;stroke-width:1;" width="86.916" x="861.5" y="565.99"/><polygon fill="#FFFFFF" points="931.416,570.99,931.416,584.99,943.416,584.99,943.416,576.99,937.416,570.99,931.416,570.99" style="stroke:#000000;stroke-width:1;"/><line style="stroke:#000000;stroke-width:1;" x1="937.416" x2="937.416" y1="570.99" y2="576.99"/><line style="stroke:#000000;stroke-width:1;" x1="943.416" x2="937.416" y1="576.99" y2="576.99"/><text fill="#000000" font-family="Verdana" font-size="14" lengthAdjust="spacing" textLength="56.916" x="871.5" y="593.0652">Term=3</text></g><!--entity N4_3--><g class="entity" data-entity="N4_3" data-source-line="29" data-uid="ent0016" id="entity_N4_3"><rect fill="#FFFFFF" height="40.0146" rx="2.5" ry="2.5" style="stroke:#000000;stroke-width:1;" width="145.3223" x="832.5" y="666.99"/><polygon fill="#FFFFFF" points="960.8223,671.99,960.8223,685.99,972.8223,685.99,972.8223,677.99,966.8223,671.99,960.8223,671.99" style="stroke:#000000;stroke-width:1;"/><line style="stroke:#000000;stroke-width:1;" x1="966.8223" x2="966.8223" y1="671.99" y2="677.99"/><line style="stroke:#000000;stroke-width:1;" x1="972.8223" x2="966.8223" y1="677.99" y2="677.99"/><text fill="#000000" font-family="Verdana" font-size="14" lengthAdjust="spacing" textLength="115.3223" x="842.5" y="694.0652">CommitIndex=4</text></g><!--entity N4_4--><g class="entity" data-entity="N4_4" data-source-line="30" data-uid="ent0017" id="entity_N4_4"><rect fill="#FFFFFF" height="40.0146" rx="2.5" ry="2.5" style="stroke:#000000;stroke-width:1;" width="129.5996" x="840" y="793.49"/><polygon fill="#FFFFFF" points="952.5996,798.49,952.5996,812.49,964.5996,812.49,964.5996,804.49,958.5996,798.49,952.5996,798.49" style="stroke:#000000;stroke-width:1;"/><line style="stroke:#000000;stroke-width:1;" x1="958.5996" x2="958.5996" y1="798.49" y2="804.49"/><line style="stroke:#000000;stroke-width:1;" x1="964.5996" x2="958.5996" y1="804.49" y2="804.49"/><text fill="#000000" font-family="Verdana" font-size="14" lengthAdjust="spacing" textLength="99.5996" x="850" y="820.5652">ApplyIndex=4</text></g><!--entity N4_5--><g class="entity" data-entity="N4_5" data-source-line="31" data-uid="ent0018" id="entity_N4_5"><rect fill="#FFFFFF" height="91.0586" rx="2.5" ry="2.5" style="stroke:#000000;stroke-width:1;" width="87.6953" x="861" y="937.99"/><polygon fill="#FFFFFF" points="931.6953,942.99,931.6953,956.99,943.6953,956.99,943.6953,948.99,937.6953,942.99,931.6953,942.99" style="stroke:#000000;stroke-width:1;"/><line style="stroke:#000000;stroke-width:1;" x1="937.6953" x2="937.6953" y1="942.99" y2="948.99"/><line style="stroke:#000000;stroke-width:1;" x1="943.6953" x2="937.6953" y1="948.99" y2="948.99"/><text fill="#000000" font-family="Verdana" font-size="14" lengthAdjust="spacing" textLength="57.6953" x="871" y="965.0652">State={</text><text fill="#000000" font-family="Verdana" font-size="14" lengthAdjust="spacing" textLength="33.5576" x="885.7656" y="982.0798">x: 2,</text><text fill="#000000" font-family="Verdana" font-size="14" lengthAdjust="spacing" textLength="33.5576" x="885.7656" y="999.0945">y: 2,</text><text fill="#000000" font-family="Verdana" font-size="14" lengthAdjust="spacing" textLength="8.8867" x="871" y="1016.1091">}</text></g><!--entity N3_1--><g class="entity" data-entity="N3_1" data-source-line="39" data-uid="ent0024" id="entity_N3_1"><rect fill="#90EE90" height="91.0586" rx="2.5" ry="2.5" style="stroke:#000000;stroke-width:1;" width="78.501" x="1119.5" y="413.99"/><polygon fill="#90EE90" points="1181.001,418.99,1181.001,432.99,1193.001,432.99,1193.001,424.99,1187.001,418.99,1181.001,418.99" style="stroke:#000000;stroke-width:1;"/><line style="stroke:#000000;stroke-width:1;" x1="1187.001" x2="1187.001" y1="418.99" y2="424.99"/><line style="stroke:#000000;stroke-width:1;" x1="1193.001" x2="1187.001" y1="424.99" y2="424.99"/><text fill="#000000" font-family="Verdana" font-size="14" lengthAdjust="spacing" textLength="42.8271" x="1129.5" y="441.0652">Log=[</text><text fill="#000000" font-family="Verdana" font-size="14" lengthAdjust="spacing" textLength="33.7354" x="1139.3438" y="458.0798">x=2,</text><text fill="#000000" font-family="Verdana" font-size="14" lengthAdjust="spacing" textLength="33.7354" x="1139.3438" y="475.0945">y=2,</text><text fill="#000000" font-family="Verdana" font-size="14" lengthAdjust="spacing" textLength="6.3574" x="1129.5" y="492.1091">]</text></g><!--entity N3_2--><g class="entity" data-entity="N3_2" data-source-line="40" data-uid="ent0025" id="entity_N3_2"><rect fill="#90EE90" height="40.0146" rx="2.5" ry="2.5" style="stroke:#000000;stroke-width:1;" width="86.916" x="1115.5" y="565.99"/><polygon fill="#90EE90" points="1185.416,570.99,1185.416,584.99,1197.416,584.99,1197.416,576.99,1191.416,570.99,1185.416,570.99" style="stroke:#000000;stroke-width:1;"/><line style="stroke:#000000;stroke-width:1;" x1="1191.416" x2="1191.416" y1="570.99" y2="576.99"/><line style="stroke:#000000;stroke-width:1;" x1="1197.416" x2="1191.416" y1="576.99" y2="576.99"/><text fill="#000000" font-family="Verdana" font-size="14" lengthAdjust="spacing" textLength="56.916" x="1125.5" y="593.0652">Term=3</text></g><!--entity N3_3--><g class="entity" data-entity="N3_3" data-source-line="41" data-uid="ent0026" id="entity_N3_3"><rect fill="#90EE90" height="40.0146" rx="2.5" ry="2.5" style="stroke:#000000;stroke-width:1;" width="145.3223" x="1086.5" y="666.99"/><polygon fill="#90EE90" points="1214.8223,671.99,1214.8223,685.99,1226.8223,685.99,1226.8223,677.99,1220.8223,671.99,1214.8223,671.99" style="stroke:#000000;stroke-width:1;"/><line style="stroke:#000000;stroke-width:1;" x1="1220.8223" x2="1220.8223" y1="671.99" y2="677.99"/><line style="stroke:#000000;stroke-width:1;" x1="1226.8223" x2="1220.8223" y1="677.99" y2="677.99"/><text fill="#000000" font-family="Verdana" font-size="14" lengthAdjust="spacing" textLength="115.3223" x="1096.5" y="694.0652">CommitIndex=4</text></g><!--entity N3_4--><g class="entity" data-entity="N3_4" data-source-line="42" data-uid="ent0027" id="entity_N3_4"><rect fill="#90EE90" height="40.0146" rx="2.5" ry="2.5" style="stroke:#000000;stroke-width:1;" width="129.5996" x="1094" y="793.49"/><polygon fill="#90EE90" points="1206.5996,798.49,1206.5996,812.49,1218.5996,812.49,1218.5996,804.49,1212.5996,798.49,1206.5996,798.49" style="stroke:#000000;stroke-width:1;"/><line style="stroke:#000000;stroke-width:1;" x1="1212.5996" x2="1212.5996" y1="798.49" y2="804.49"/><line style="stroke:#000000;stroke-width:1;" x1="1218.5996" x2="1212.5996" y1="804.49" y2="804.49"/><text fill="#000000" font-family="Verdana" font-size="14" lengthAdjust="spacing" textLength="99.5996" x="1104" y="820.5652">ApplyIndex=4</text></g><!--entity N3_5--><g class="entity" data-entity="N3_5" data-source-line="43" data-uid="ent0028" id="entity_N3_5"><rect fill="#90EE90" height="91.0586" rx="2.5" ry="2.5" style="stroke:#000000;stroke-width:1;" width="87.6953" x="1115" y="937.99"/><polygon fill="#90EE90" points="1185.6953,942.99,1185.6953,956.99,1197.6953,956.99,1197.6953,948.99,1191.6953,942.99,1185.6953,942.99" style="stroke:#000000;stroke-width:1;"/><line style="stroke:#000000;stroke-width:1;" x1="1191.6953" x2="1191.6953" y1="942.99" y2="948.99"/><line style="stroke:#000000;stroke-width:1;" x1="1197.6953" x2="1191.6953" y1="948.99" y2="948.99"/><text fill="#000000" font-family="Verdana" font-size="14" lengthAdjust="spacing" textLength="57.6953" x="1125" y="965.0652">State={</text><text fill="#000000" font-family="Verdana" font-size="14" lengthAdjust="spacing" textLength="33.5576" x="1139.7656" y="982.0798">x: 2,</text><text fill="#000000" font-family="Verdana" font-size="14" lengthAdjust="spacing" textLength="33.5576" x="1139.7656" y="999.0945">y: 2,</text><text fill="#000000" font-family="Verdana" font-size="14" lengthAdjust="spacing" textLength="8.8867" x="1125" y="1016.1091">}</text></g><!--entity N2_1--><g class="entity" data-entity="N2_1" data-source-line="51" data-uid="ent0034" id="entity_N2_1"><rect fill="#FFFFFF" height="91.0586" rx="2.5" ry="2.5" style="stroke:#000000;stroke-width:1;" width="78.501" x="355.5" y="177.99"/><polygon fill="#FFFFFF" points="417.001,182.99,417.001,196.99,429.001,196.99,429.001,188.99,423.001,182.99,417.001,182.99" style="stroke:#000000;stroke-width:1;"/><line style="stroke:#000000;stroke-width:1;" x1="423.001" x2="423.001" y1="182.99" y2="188.99"/><line style="stroke:#000000;stroke-width:1;" x1="429.001" x2="423.001" y1="188.99" y2="188.99"/><text fill="#000000" font-family="Verdana" font-size="14" lengthAdjust="spacing" textLength="42.8271" x="365.5" y="205.0652">Log=[</text><text fill="#000000" font-family="Verdana" font-size="14" lengthAdjust="spacing" textLength="33.7354" x="375.3438" y="222.0798">x=2,</text><text fill="#000000" font-family="Verdana" font-size="14" lengthAdjust="spacing" textLength="33.7354" x="375.3438" y="239.0945">y=2,</text><text fill="#000000" font-family="Verdana" font-size="14" lengthAdjust="spacing" textLength="6.3574" x="365.5" y="256.1091">]</text></g><!--entity N2_2--><g class="entity" data-entity="N2_2" data-source-line="52" data-uid="ent0035" id="entity_N2_2"><rect fill="#FFFFFF" height="40.0146" rx="2.5" ry="2.5" style="stroke:#000000;stroke-width:1;" width="86.916" x="351.5" y="439.49"/><polygon fill="#FFFFFF" points="421.416,444.49,421.416,458.49,433.416,458.49,433.416,450.49,427.416,444.49,421.416,444.49" style="stroke:#000000;stroke-width:1;"/><line style="stroke:#000000;stroke-width:1;" x1="427.416" x2="427.416" y1="444.49" y2="450.49"/><line style="stroke:#000000;stroke-width:1;" x1="433.416" x2="427.416" y1="450.49" y2="450.49"/><text fill="#000000" font-family="Verdana" font-size="14" lengthAdjust="spacing" textLength="56.916" x="361.5" y="466.5652">Term=3</text></g><!--entity N2_3--><g class="entity" data-entity="N2_3" data-source-line="53" data-uid="ent0036" id="entity_N2_3"><rect fill="#FFFFFF" height="40.0146" rx="2.5" ry="2.5" style="stroke:#000000;stroke-width:1;" width="145.3223" x="322.5" y="565.99"/><polygon fill="#FFFFFF" points="450.8223,570.99,450.8223,584.99,462.8223,584.99,462.8223,576.99,456.8223,570.99,450.8223,570.99" style="stroke:#000000;stroke-width:1;"/><line style="stroke:#000000;stroke-width:1;" x1="456.8223" x2="456.8223" y1="570.99" y2="576.99"/><line style="stroke:#000000;stroke-width:1;" x1="462.8223" x2="456.8223" y1="576.99" y2="576.99"/><text fill="#000000" font-family="Verdana" font-size="14" lengthAdjust="spacing" textLength="115.3223" x="332.5" y="593.0652">CommitIndex=4</text></g><!--entity N2_4--><g class="entity" data-entity="N2_4" data-source-line="54" data-uid="ent0037" id="entity_N2_4"><rect fill="#FFFFFF" height="40.0146" rx="2.5" ry="2.5" style="stroke:#000000;stroke-width:1;" width="129.5996" x="330" y="666.99"/><polygon fill="#FFFFFF" points="442.5996,671.99,442.5996,685.99,454.5996,685.99,454.5996,677.99,448.5996,671.99,442.5996,671.99" style="stroke:#000000;stroke-width:1;"/><line style="stroke:#000000;stroke-width:1;" x1="448.5996" x2="448.5996" y1="671.99" y2="677.99"/><line style="stroke:#000000;stroke-width:1;" x1="454.5996" x2="448.5996" y1="677.99" y2="677.99"/><text fill="#000000" font-family="Verdana" font-size="14" lengthAdjust="spacing" textLength="99.5996" x="340" y="694.0652">ApplyIndex=4</text></g><!--entity N2_5--><g class="entity" data-entity="N2_5" data-source-line="55" data-uid="ent0038" id="entity_N2_5"><rect fill="#FFFFFF" height="91.0586" rx="2.5" ry="2.5" style="stroke:#000000;stroke-width:1;" width="87.6953" x="351" y="767.99"/><polygon fill="#FFFFFF" points="421.6953,772.99,421.6953,786.99,433.6953,786.99,433.6953,778.99,427.6953,772.99,421.6953,772.99" style="stroke:#000000;stroke-width:1;"/><line style="stroke:#000000;stroke-width:1;" x1="427.6953" x2="427.6953" y1="772.99" y2="778.99"/><line style="stroke:#000000;stroke-width:1;" x1="433.6953" x2="427.6953" y1="778.99" y2="778.99"/><text fill="#000000" font-family="Verdana" font-size="14" lengthAdjust="spacing" textLength="57.6953" x="361" y="795.0652">State={</text><text fill="#000000" font-family="Verdana" font-size="14" lengthAdjust="spacing" textLength="33.5576" x="375.7656" y="812.0798">x: 2,</text><text fill="#000000" font-family="Verdana" font-size="14" lengthAdjust="spacing" textLength="33.5576" x="375.7656" y="829.0945">y: 2,</text><text fill="#000000" font-family="Verdana" font-size="14" lengthAdjust="spacing" textLength="8.8867" x="361" y="846.1091">}</text></g><!--entity N1_1--><g class="entity" data-entity="N1_1" data-source-line="63" data-uid="ent0044" id="entity_N1_1"><rect fill="#90EE90" height="91.0586" rx="2.5" ry="2.5" style="stroke:#000000;stroke-width:1;" width="78.501" x="121.5" y="177.99"/><polygon fill="#90EE90" points="183.001,182.99,183.001,196.99,195.001,196.99,195.001,188.99,189.001,182.99,183.001,182.99" style="stroke:#000000;stroke-width:1;"/><line style="stroke:#000000;stroke-width:1;" x1="189.001" x2="189.001" y1="182.99" y2="188.99"/><line style="stroke:#000000;stroke-width:1;" x1="195.001" x2="189.001" y1="188.99" y2="188.99"/><text fill="#000000" font-family="Verdana" font-size="14" lengthAdjust="spacing" textLength="42.8271" x="131.5" y="205.0652">Log=[</text><text fill="#000000" font-family="Verdana" font-size="14" lengthAdjust="spacing" textLength="33.7354" x="141.3438" y="222.0798">x=2,</text><text fill="#000000" font-family="Verdana" font-size="14" lengthAdjust="spacing" textLength="33.7354" x="141.3438" y="239.0945">y=2,</text><text fill="#000000" font-family="Verdana" font-size="14" lengthAdjust="spacing" textLength="6.3574" x="131.5" y="256.1091">]</text></g><!--entity N1_2--><g class="entity" data-entity="N1_2" data-source-line="64" data-uid="ent0045" id="entity_N1_2"><rect fill="#90EE90" height="40.0146" rx="2.5" ry="2.5" style="stroke:#000000;stroke-width:1;" width="86.916" x="117.5" y="439.49"/><polygon fill="#90EE90" points="187.416,444.49,187.416,458.49,199.416,458.49,199.416,450.49,193.416,444.49,187.416,444.49" style="stroke:#000000;stroke-width:1;"/><line style="stroke:#000000;stroke-width:1;" x1="193.416" x2="193.416" y1="444.49" y2="450.49"/><line style="stroke:#000000;stroke-width:1;" x1="199.416" x2="193.416" y1="450.49" y2="450.49"/><text fill="#000000" font-family="Verdana" font-size="14" lengthAdjust="spacing" textLength="56.916" x="127.5" y="466.5652">Term=3</text></g><!--entity N1_3--><g class="entity" data-entity="N1_3" data-source-line="65" data-uid="ent0046" id="entity_N1_3"><rect fill="#90EE90" height="40.0146" rx="2.5" ry="2.5" style="stroke:#000000;stroke-width:1;" width="145.3223" x="88.5" y="565.99"/><polygon fill="#90EE90" points="216.8223,570.99,216.8223,584.99,228.8223,584.99,228.8223,576.99,222.8223,570.99,216.8223,570.99" style="stroke:#000000;stroke-width:1;"/><line style="stroke:#000000;stroke-width:1;" x1="222.8223" x2="222.8223" y1="570.99" y2="576.99"/><line style="stroke:#000000;stroke-width:1;" x1="228.8223" x2="222.8223" y1="576.99" y2="576.99"/><text fill="#000000" font-family="Verdana" font-size="14" lengthAdjust="spacing" textLength="115.3223" x="98.5" y="593.0652">CommitIndex=4</text></g><!--entity N1_4--><g class="entity" data-entity="N1_4" data-source-line="66" data-uid="ent0047" id="entity_N1_4"><rect fill="#90EE90" height="40.0146" rx="2.5" ry="2.5" style="stroke:#000000;stroke-width:1;" width="129.5996" x="96" y="666.99"/><polygon fill="#90EE90" points="208.5996,671.99,208.5996,685.99,220.5996,685.99,220.5996,677.99,214.5996,671.99,208.5996,671.99" style="stroke:#000000;stroke-width:1;"/><line style="stroke:#000000;stroke-width:1;" x1="214.5996" x2="214.5996" y1="671.99" y2="677.99"/><line style="stroke:#000000;stroke-width:1;" x1="220.5996" x2="214.5996" y1="677.99" y2="677.99"/><text fill="#000000" font-family="Verdana" font-size="14" lengthAdjust="spacing" textLength="99.5996" x="106" y="694.0652">ApplyIndex=4</text></g><!--entity N1_5--><g class="entity" data-entity="N1_5" data-source-line="67" data-uid="ent0048" id="entity_N1_5"><rect fill="#90EE90" height="91.0586" rx="2.5" ry="2.5" style="stroke:#000000;stroke-width:1;" width="87.6953" x="117" y="767.99"/><polygon fill="#90EE90" points="187.6953,772.99,187.6953,786.99,199.6953,786.99,199.6953,778.99,193.6953,772.99,187.6953,772.99" style="stroke:#000000;stroke-width:1;"/><line style="stroke:#000000;stroke-width:1;" x1="193.6953" x2="193.6953" y1="772.99" y2="778.99"/><line style="stroke:#000000;stroke-width:1;" x1="199.6953" x2="193.6953" y1="778.99" y2="778.99"/><text fill="#000000" font-family="Verdana" font-size="14" lengthAdjust="spacing" textLength="57.6953" x="127" y="795.0652">State={</text><text fill="#000000" font-family="Verdana" font-size="14" lengthAdjust="spacing" textLength="33.5576" x="141.7656" y="812.0798">x: 2,</text><text fill="#000000" font-family="Verdana" font-size="14" lengthAdjust="spacing" textLength="33.5576" x="141.7656" y="829.0945">y: 2,</text><text fill="#000000" font-family="Verdana" font-size="14" lengthAdjust="spacing" textLength="8.8867" x="127" y="846.1091">}</text></g><!--link N5_1 to N5_2--><g class="link" data-entity-1="N5_1" data-entity-2="N5_2" data-source-line="21" data-uid="lnk9" id="link_N5_1_N5_2"><path d="M651,505.09 C651,525.88 651,549.54 651,565.68" fill="none" id="N5_1-N5_2" style="stroke:#000000;stroke-width:1;"/></g><!--link N5_2 to N5_3--><g class="link" data-entity-1="N5_2" data-entity-2="N5_3" data-source-line="22" data-uid="lnk10" id="link_N5_2_N5_3"><path d="M651,606.08 C651,623.61 651,649.45 651,666.96" fill="none" id="N5_2-N5_3" style="stroke:#000000;stroke-width:1;"/></g><!--link N5_3 to N5_4--><g class="link" data-entity-1="N5_3" data-entity-2="N5_4" data-source-line="23" data-uid="lnk11" id="link_N5_3_N5_4"><path d="M651,707.17 C651,730.5 651,769.65 651,793.08" fill="none" id="N5_3-N5_4" style="stroke:#000000;stroke-width:1;"/></g><!--link N5_4 to N5_5--><g class="link" data-entity-1="N5_4" data-entity-2="N5_5" data-source-line="24" data-uid="lnk12" id="link_N5_4_N5_5"><path d="M651,833.76 C651,858.93 651,903.76 651,937.65" fill="none" id="N5_4-N5_5" style="stroke:#000000;stroke-width:1;"/></g><!--link N4_1 to N4_2--><g class="link" data-entity-1="N4_1" data-entity-2="N4_2" data-source-line="33" data-uid="lnk19" id="link_N4_1_N4_2"><path d="M905,505.09 C905,525.88 905,549.54 905,565.68" fill="none" id="N4_1-N4_2" style="stroke:#000000;stroke-width:1;"/></g><!--link N4_2 to N4_3--><g class="link" data-entity-1="N4_2" data-entity-2="N4_3" data-source-line="34" data-uid="lnk20" id="link_N4_2_N4_3"><path d="M905,606.08 C905,623.61 905,649.45 905,666.96" fill="none" id="N4_2-N4_3" style="stroke:#000000;stroke-width:1;"/></g><!--link N4_3 to N4_4--><g class="link" data-entity-1="N4_3" data-entity-2="N4_4" data-source-line="35" data-uid="lnk21" id="link_N4_3_N4_4"><path d="M905,707.17 C905,730.5 905,769.65 905,793.08" fill="none" id="N4_3-N4_4" style="stroke:#000000;stroke-width:1;"/></g><!--link N4_4 to N4_5--><g class="link" data-entity-1="N4_4" data-entity-2="N4_5" data-source-line="36" data-uid="lnk22" id="link_N4_4_N4_5"><path d="M905,833.76 C905,858.93 905,903.76 905,937.65" fill="none" id="N4_4-N4_5" style="stroke:#000000;stroke-width:1;"/></g><!--link N3_1 to N3_2--><g class="link" data-entity-1="N3_1" data-entity-2="N3_2" data-source-line="45" data-uid="lnk29" id="link_N3_1_N3_2"><path d="M1159,505.09 C1159,525.88 1159,549.54 1159,565.68" fill="none" id="N3_1-N3_2" style="stroke:#000000;stroke-width:1;"/></g><!--link N3_2 to N3_3--><g class="link" data-entity-1="N3_2" data-entity-2="N3_3" data-source-line="46" data-uid="lnk30" id="link_N3_2_N3_3"><path d="M1159,606.08 C1159,623.61 1159,649.45 1159,666.96" fill="none" id="N3_2-N3_3" style="stroke:#000000;stroke-width:1;"/></g><!--link N3_3 to N3_4--><g class="link" data-entity-1="N3_3" data-entity-2="N3_4" data-source-line="47" data-uid="lnk31" id="link_N3_3_N3_4"><path d="M1159,707.17 C1159,730.5 1159,769.65 1159,793.08" fill="none" id="N3_3-N3_4" style="stroke:#000000;stroke-width:1;"/></g><!--link N3_4 to N3_5--><g class="link" data-entity-1="N3_4" data-entity-2="N3_5" data-source-line="48" data-uid="lnk32" id="link_N3_4_N3_5"><path d="M1159,833.76 C1159,858.93 1159,903.76 1159,937.65" fill="none" id="N3_4-N3_5" style="stroke:#000000;stroke-width:1;"/></g><!--link N2_1 to N2_2--><g class="link" data-entity-1="N2_1" data-entity-2="N2_2" data-source-line="57" data-uid="lnk39" id="link_N2_1_N2_2"><path d="M395,269.05 C395,320.37 395,402.34 395,439.31" fill="none" id="N2_1-N2_2" style="stroke:#000000;stroke-width:1;"/></g><!--link N2_2 to N2_3--><g class="link" data-entity-1="N2_2" data-entity-2="N2_3" data-source-line="58" data-uid="lnk40" id="link_N2_2_N2_3"><path d="M395,479.67 C395,503 395,542.15 395,565.58" fill="none" id="N2_2-N2_3" style="stroke:#000000;stroke-width:1;"/></g><!--link N2_3 to N2_4--><g class="link" data-entity-1="N2_3" data-entity-2="N2_4" data-source-line="59" data-uid="lnk41" id="link_N2_3_N2_4"><path d="M395,606.08 C395,623.61 395,649.45 395,666.96" fill="none" id="N2_3-N2_4" style="stroke:#000000;stroke-width:1;"/></g><!--link N2_4 to N2_5--><g class="link" data-entity-1="N2_4" data-entity-2="N2_5" data-source-line="60" data-uid="lnk42" id="link_N2_4_N2_5"><path d="M395,707.17 C395,723.34 395,747.1 395,767.97" fill="none" id="N2_4-N2_5" style="stroke:#000000;stroke-width:1;"/></g><!--link N1_1 to N1_2--><g class="link" data-entity-1="N1_1" data-entity-2="N1_2" data-source-line="69" data-uid="lnk49" id="link_N1_1_N1_2"><path d="M161,269.05 C161,320.37 161,402.34 161,439.31" fill="none" id="N1_1-N1_2" style="stroke:#000000;stroke-width:1;"/></g><!--link N1_2 to N1_3--><g class="link" data-entity-1="N1_2" data-entity-2="N1_3" data-source-line="70" data-uid="lnk50" id="link_N1_2_N1_3"><path d="M161,479.67 C161,503 161,542.15 161,565.58" fill="none" id="N1_2-N1_3" style="stroke:#000000;stroke-width:1;"/></g><!--link N1_3 to N1_4--><g class="link" data-entity-1="N1_3" data-entity-2="N1_4" data-source-line="71" data-uid="lnk51" id="link_N1_3_N1_4"><path d="M161,606.08 C161,623.61 161,649.45 161,666.96" fill="none" id="N1_3-N1_4" style="stroke:#000000;stroke-width:1;"/></g><!--link N1_4 to N1_5--><g class="link" data-entity-1="N1_4" data-entity-2="N1_5" data-source-line="72" data-uid="lnk52" id="link_N1_4_N1_5"><path d="M161,707.17 C161,723.34 161,747.1 161,767.97" fill="none" id="N1_4-N1_5" style="stroke:#000000;stroke-width:1;"/></g><!--reverse link N1 to N2--><g class="link" data-entity-1="N1" data-entity-2="N2" data-source-line="75" data-uid="lnk54" id="link_N1_N2"><path d="M55.5079,98.1481 C56.7437,94.495 56.5649,95.958 58.2933,92.5454 C61.75,85.72 66.2463,79.4438 72,73.99 C138.45,11 417.55,11 484,73.99 C507.015,95.805 509.91,130.78 506.635,161.4175 C505.8162,169.0769 504.6119,176.4652 503.2398,183.3089 C502.5538,186.7308 501.8259,190.0166 501.0833,193.1321 C500.8977,193.911 500.7111,194.6792 500.524,195.4362 C500.4305,195.8147 500.3368,196.1905 500.2431,196.5633 C500.1963,196.7498 500.1494,196.9355 500.1025,197.1205" fill="none" id="N1-backto-N2" style="stroke:#000000;stroke-width:1;"/><polygon fill="#000000" points="53.6316,103.8472,60.2454,96.5494,55.1952,99.0979,52.6466,94.0477,53.6316,103.8472" style="stroke:#000000;stroke-width:1;"/><text fill="#000000" font-family="Verdana" font-size="13" lengthAdjust="spacing" textLength="54.4565" x="251" y="33.0598">rpc sync</text></g><!--link N2 to N3--><g class="link" data-entity-1="N2" data-entity-2="N3" data-source-line="76" data-uid="lnk55" id="link_N2_N3"><path d="M500.5603,225.1377 C501.569,225.2161 502.6617,225.3017 503.8358,225.3947 C506.1839,225.5805 508.8574,225.7955 511.8344,226.04 C523.7422,227.0182 540.5051,228.4689 560.7189,230.4153 C601.1466,234.3081 655.3781,240.1837 712.1813,248.2275 C825.7875,264.315 949.68,289.075 994,323.99 C1019.45,344.04 1034.8675,376.935 1043.9625,405.1738 C1045.0994,408.7036 1046.1375,412.1607 1047.084,415.5108 C1047.3206,416.3484 1047.5516,417.1792 1047.7769,418.0029 C1047.8332,418.2088 1046.3179,412.6236 1046.3735,412.8286" fill="none" id="N2-to-N3" style="stroke:#000000;stroke-width:1;"/><polygon fill="#000000" points="1047.9448,418.6192,1049.4482,408.8858,1046.6354,413.7937,1041.7274,410.9809,1047.9448,418.6192" style="stroke:#000000;stroke-width:1;"/><text fill="#000000" font-family="Verdana" font-size="13" lengthAdjust="spacing" textLength="54.4565" x="982" y="313.0598">rpc sync</text></g><!--link N2 to N4--><g class="link" data-entity-1="N2" data-entity-2="N4" data-source-line="77" data-uid="lnk56" id="link_N2_N4"><path d="M500.2493,225.5657 C500.4005,225.5873 500.5537,225.6092 500.7088,225.6315 C505.672,226.3448 512.5878,227.423 521.0131,228.9528 C537.8638,232.0125 560.7525,236.8788 586.135,244.245 C636.9,258.9775 697.64,283.71 740,323.99 C763.48,346.315 778.8675,379.245 788.44,406.9337 C789.6366,410.3948 790.7423,413.774 791.7616,417.0404 C792.2712,418.6736 792.7592,420.2785 793.2262,421.8514 C793.4597,422.6379 792.0184,417.6533 792.2415,418.4232" fill="none" id="N2-to-N4" style="stroke:#000000;stroke-width:1;"/><polygon fill="#000000" points="793.911,424.1862,795.2487,414.4286,792.5197,419.3837,787.5647,416.6547,793.911,424.1862" style="stroke:#000000;stroke-width:1;"/><text fill="#000000" font-family="Verdana" font-size="13" lengthAdjust="spacing" textLength="54.4565" x="730" y="313.0598">rpc sync</text></g><!--link N2 to N5--><g class="link" data-entity-1="N2" data-entity-2="N5" data-source-line="78" data-uid="lnk57" id="link_N2_N5"><path d="M500.1621,258.5945 C500.2402,258.9207 500.3187,259.2486 500.3976,259.5783 C500.5554,260.2377 500.7149,260.9041 500.8759,261.5772 C506.0306,283.1169 512.8413,311.5763 519.6775,340.1425 C526.5138,368.7088 533.3756,397.3819 538.6328,419.3491 C538.9614,420.722 539.2837,422.0688 539.5993,423.3877 C539.6782,423.7174 539.7567,424.0454 539.8348,424.3716 C539.8738,424.5347 538.5163,418.8621 538.5551,419.0244" fill="none" id="N2-to-N5" style="stroke:#000000;stroke-width:1;"/><polygon fill="#000000" points="539.9516,424.8596,541.747,415.1758,538.7878,419.9969,533.9667,417.0377,539.9516,424.8596" style="stroke:#000000;stroke-width:1;"/><text fill="#000000" font-family="Verdana" font-size="13" lengthAdjust="spacing" textLength="54.4565" x="515" y="313.0598">rpc sync</text></g><!--SRC=[hLLDQzj05BphLxmgr_gm-rQNW0fnGY1WScXx2Mu9YxHHHFJ5Mg4smVyzkxQc-P1ggqhsi3n6xpr6CoFqfRqtfQ6cq7aL1Ak7l6gqrILPaxIwoWf3Jm6vCzV9GsRhnoezhulQqYBFxjiRKnJrd_tpsgR6xfzzDscmVRsigjE3U-R5e-bjcHUkrUzveH9QVTU6tQRTql3QtH4jBslFnDZV8UaLNKTTZp_QjlcTJbeA5tKMBtzLHEjOVYLVRFO5fcx5mDHFOykOqI47EixhiipRgoerwrYXaGSQpvgcsBphKmDzFrhTclZ9CwJrANLaQTELMyn6kzdjxlRiQNOnUo7f2o0CX84e80f85BpJLVLqLPDqLKTrLMDrLIDrLH_GLRtLLK5NaFG540R2G1GG1QIdA_TqvKcwicDsKlWFABF6L4SqPiVwSFU0tknUxF1GNtjshtvuPfmFV1lrzdIUC3nXUCBmXE49mnE69mnFkE-9fEN2wFIl8tAI8_9eqkNOfCkHIPSVIBfyctG9LK7I5q0O20DHG1IGdggYbtGnILVnNqaNKv8k9YHTV5BInR-JBk29W2S2dWXu8k29W2S2dhZD_XVguZnRpBvv-K_9DWcjDbMoGoyyoeEe6aIZr-Wp]--></g></svg>