<svg xmlns="http://www.w3.org/2000/svg" xmlns:xlink="http://www.w3.org/1999/xlink" contentStyleType="text/css" data-diagram-type="DESCRIPTION" height="865px" preserveAspectRatio="none" style="width:792px;height:865px;background:#FFFFFF;" version="1.1" viewBox="0 0 792 865" width="792px" zoomAndPan="magnify"><defs/><g><!--cluster raft--><g class="cluster" data-entity="raft" data-source-line="14" data-uid="ent0002" id="cluster_raft"><rect fill="#FFFFE0" height="847" rx="2.5" ry="2.5" style="stroke:#FF0000;stroke-width:1;" width="774" x="12" y="12"/><text fill="#000000" font-family="Verdana" font-size="14" font-weight="bold" lengthAdjust="spacing" textLength="28.6016" x="384.6992" y="28.0752">raft</text></g><!--cluster N1--><g class="cluster" data-entity="N1" data-source-line="15" data-uid="ent0003" id="cluster_N1"><polygon fill="#ADD8E6" points="44,74,54,64,246,64,246,698,236,708,44,708,44,74" style="stroke:#000000;stroke-width:1;"/><line style="stroke:#000000;stroke-width:1;" x1="236" x2="246" y1="74" y2="64"/><line style="stroke:#000000;stroke-width:1;" x1="44" x2="236" y1="74" y2="74"/><line style="stroke:#000000;stroke-width:1;" x1="236" x2="236" y1="74" y2="708"/><text fill="#000000" font-family="Verdana" font-size="14" font-weight="bold" lengthAdjust="spacing" textLength="124.1201" x="78.9399" y="91.0752">Node1 [Leader]</text></g><!--cluster N2--><g class="cluster" data-entity="N2" data-source-line="27" data-uid="ent0013" id="cluster_N2"><polygon fill="#ADD8E6" points="286,268,296,258,500,258,500,817,490,827,286,827,286,268" style="stroke:#000000;stroke-width:1;"/><line style="stroke:#000000;stroke-width:1;" x1="490" x2="500" y1="268" y2="258"/><line style="stroke:#000000;stroke-width:1;" x1="286" x2="490" y1="268" y2="268"/><line style="stroke:#000000;stroke-width:1;" x1="490" x2="490" y1="268" y2="827"/><text fill="#000000" font-family="Verdana" font-size="14" font-weight="bold" lengthAdjust="spacing" textLength="138.373" x="319.8135" y="285.0752">Node2 [Follower]</text></g><!--cluster N3--><g class="cluster" data-entity="N3" data-source-line="39" data-uid="ent0023" id="cluster_N3"><polygon fill="#ADD8E6" points="540,268,550,258,754,258,754,817,744,827,540,827,540,268" style="stroke:#000000;stroke-width:1;"/><line style="stroke:#000000;stroke-width:1;" x1="744" x2="754" y1="268" y2="258"/><line style="stroke:#000000;stroke-width:1;" x1="540" x2="744" y1="268" y2="268"/><line style="stroke:#000000;stroke-width:1;" x1="744" x2="744" y1="268" y2="827"/><text fill="#000000" font-family="Verdana" font-size="14" font-weight="bold" lengthAdjust="spacing" textLength="138.373" x="573.8135" y="285.0752">Node3 [Follower]</text></g><!--entity N1_1--><g class="entity" data-entity="N1_1" data-source-line="16" data-uid="ent0004" id="entity_N1_1"><rect fill="#FFFFFF" height="74.0439" rx="2.5" ry="2.5" style="stroke:#000000;stroke-width:1;" width="78.501" x="101.5" y="113"/><polygon fill="#FFFFFF" points="163.001,118,163.001,132,175.001,132,175.001,124,169.001,118,163.001,118" style="stroke:#000000;stroke-width:1;"/><line style="stroke:#000000;stroke-width:1;" x1="169.001" x2="169.001" y1="118" y2="124"/><line style="stroke:#000000;stroke-width:1;" x1="175.001" x2="169.001" y1="124" y2="124"/><text fill="#000000" font-family="Verdana" font-size="14" lengthAdjust="spacing" textLength="42.8271" x="111.5" y="140.0752">Log=[</text><text fill="#000000" font-family="Verdana" font-size="14" lengthAdjust="spacing" textLength="33.7354" x="121.3438" y="157.0898">x=1,</text><text fill="#000000" font-family="Verdana" font-size="14" lengthAdjust="spacing" textLength="6.3574" x="111.5" y="174.1045">]</text></g><!--entity N1_2--><g class="entity" data-entity="N1_2" data-source-line="17" data-uid="ent0005" id="entity_N1_2"><rect fill="#FFFFFF" height="40.0146" rx="2.5" ry="2.5" style="stroke:#000000;stroke-width:1;" width="86.916" x="97.5" y="307"/><polygon fill="#FFFFFF" points="167.416,312,167.416,326,179.416,326,179.416,318,173.416,312,167.416,312" style="stroke:#000000;stroke-width:1;"/><line style="stroke:#000000;stroke-width:1;" x1="173.416" x2="173.416" y1="312" y2="318"/><line style="stroke:#000000;stroke-width:1;" x1="179.416" x2="173.416" y1="318" y2="318"/><text fill="#000000" font-family="Verdana" font-size="14" lengthAdjust="spacing" textLength="56.916" x="107.5" y="334.0752">Term=1</text></g><!--entity N1_3--><g class="entity" data-entity="N1_3" data-source-line="18" data-uid="ent0006" id="entity_N1_3"><rect fill="#FFFFFF" height="40.0146" rx="2.5" ry="2.5" style="stroke:#000000;stroke-width:1;" width="145.3223" x="68.5" y="408"/><polygon fill="#FFFFFF" points="196.8223,413,196.8223,427,208.8223,427,208.8223,419,202.8223,413,196.8223,413" style="stroke:#000000;stroke-width:1;"/><line style="stroke:#000000;stroke-width:1;" x1="202.8223" x2="202.8223" y1="413" y2="419"/><line style="stroke:#000000;stroke-width:1;" x1="208.8223" x2="202.8223" y1="419" y2="419"/><text fill="#000000" font-family="Verdana" font-size="14" lengthAdjust="spacing" textLength="115.3223" x="78.5" y="435.0752">CommitIndex=1</text></g><!--entity N1_4--><g class="entity" data-entity="N1_4" data-source-line="19" data-uid="ent0007" id="entity_N1_4"><rect fill="#FFFFFF" height="40.0146" rx="2.5" ry="2.5" style="stroke:#000000;stroke-width:1;" width="129.5996" x="76" y="509"/><polygon fill="#FFFFFF" points="188.5996,514,188.5996,528,200.5996,528,200.5996,520,194.5996,514,188.5996,514" style="stroke:#000000;stroke-width:1;"/><line style="stroke:#000000;stroke-width:1;" x1="194.5996" x2="194.5996" y1="514" y2="520"/><line style="stroke:#000000;stroke-width:1;" x1="200.5996" x2="194.5996" y1="520" y2="520"/><text fill="#000000" font-family="Verdana" font-size="14" lengthAdjust="spacing" textLength="99.5996" x="86" y="536.0752">ApplyIndex=1</text></g><!--entity N1_5--><g class="entity" data-entity="N1_5" data-source-line="20" data-uid="ent0008" id="entity_N1_5"><rect fill="#FFFFFF" height="74.0439" rx="2.5" ry="2.5" style="stroke:#000000;stroke-width:1;" width="87.6953" x="97" y="610"/><polygon fill="#FFFFFF" points="167.6953,615,167.6953,629,179.6953,629,179.6953,621,173.6953,615,167.6953,615" style="stroke:#000000;stroke-width:1;"/><line style="stroke:#000000;stroke-width:1;" x1="173.6953" x2="173.6953" y1="615" y2="621"/><line style="stroke:#000000;stroke-width:1;" x1="179.6953" x2="173.6953" y1="621" y2="621"/><text fill="#000000" font-family="Verdana" font-size="14" lengthAdjust="spacing" textLength="57.6953" x="107" y="637.0752">State={</text><text fill="#000000" font-family="Verdana" font-size="14" lengthAdjust="spacing" textLength="33.5576" x="121.7656" y="654.0898">x: 1,</text><text fill="#000000" font-family="Verdana" font-size="14" lengthAdjust="spacing" textLength="8.8867" x="107" y="671.1045">}</text></g><!--entity N2_1--><g class="entity" data-entity="N2_1" data-source-line="28" data-uid="ent0014" id="entity_N2_1"><rect fill="#FFFFFF" height="40.0146" rx="2.5" ry="2.5" style="stroke:#000000;stroke-width:1;" width="79.1846" x="357.5" y="307"/><polygon fill="#FFFFFF" points="419.6846,312,419.6846,326,431.6846,326,431.6846,318,425.6846,312,419.6846,312" style="stroke:#000000;stroke-width:1;"/><line style="stroke:#000000;stroke-width:1;" x1="425.6846" x2="425.6846" y1="312" y2="318"/><line style="stroke:#000000;stroke-width:1;" x1="431.6846" x2="425.6846" y1="318" y2="318"/><text fill="#000000" font-family="Verdana" font-size="14" lengthAdjust="spacing" textLength="49.1846" x="367.5" y="334.0752">Log=[]</text></g><!--entity N2_2--><g class="entity" data-entity="N2_2" data-source-line="29" data-uid="ent0015" id="entity_N2_2"><rect fill="#FFFFFF" height="40.0146" rx="2.5" ry="2.5" style="stroke:#000000;stroke-width:1;" width="86.916" x="353.5" y="408"/><polygon fill="#FFFFFF" points="423.416,413,423.416,427,435.416,427,435.416,419,429.416,413,423.416,413" style="stroke:#000000;stroke-width:1;"/><line style="stroke:#000000;stroke-width:1;" x1="429.416" x2="429.416" y1="413" y2="419"/><line style="stroke:#000000;stroke-width:1;" x1="435.416" x2="429.416" y1="419" y2="419"/><text fill="#000000" font-family="Verdana" font-size="14" lengthAdjust="spacing" textLength="56.916" x="363.5" y="435.0752">Term=0</text></g><!--entity N2_3--><g class="entity" data-entity="N2_3" data-source-line="30" data-uid="ent0016" id="entity_N2_3"><rect fill="#FFFFFF" height="40.0146" rx="2.5" ry="2.5" style="stroke:#000000;stroke-width:1;" width="145.3223" x="324.5" y="509"/><polygon fill="#FFFFFF" points="452.8223,514,452.8223,528,464.8223,528,464.8223,520,458.8223,514,452.8223,514" style="stroke:#000000;stroke-width:1;"/><line style="stroke:#000000;stroke-width:1;" x1="458.8223" x2="458.8223" y1="514" y2="520"/><line style="stroke:#000000;stroke-width:1;" x1="464.8223" x2="458.8223" y1="520" y2="520"/><text fill="#000000" font-family="Verdana" font-size="14" lengthAdjust="spacing" textLength="115.3223" x="334.5" y="536.0752">CommitIndex=0</text></g><!--entity N2_4--><g class="entity" data-entity="N2_4" data-source-line="31" data-uid="ent0017" id="entity_N2_4"><rect fill="#FFFFFF" height="40.0146" rx="2.5" ry="2.5" style="stroke:#000000;stroke-width:1;" width="129.5996" x="332" y="627"/><polygon fill="#FFFFFF" points="444.5996,632,444.5996,646,456.5996,646,456.5996,638,450.5996,632,444.5996,632" style="stroke:#000000;stroke-width:1;"/><line style="stroke:#000000;stroke-width:1;" x1="450.5996" x2="450.5996" y1="632" y2="638"/><line style="stroke:#000000;stroke-width:1;" x1="456.5996" x2="450.5996" y1="638" y2="638"/><text fill="#000000" font-family="Verdana" font-size="14" lengthAdjust="spacing" textLength="99.5996" x="342" y="654.0752">ApplyIndex=0</text></g><!--entity N2_5--><g class="entity" data-entity="N2_5" data-source-line="32" data-uid="ent0018" id="entity_N2_5"><rect fill="#FFFFFF" height="40.0146" rx="2.5" ry="2.5" style="stroke:#000000;stroke-width:1;" width="96.582" x="348.5" y="763"/><polygon fill="#FFFFFF" points="428.082,768,428.082,782,440.082,782,440.082,774,434.082,768,428.082,768" style="stroke:#000000;stroke-width:1;"/><line style="stroke:#000000;stroke-width:1;" x1="434.082" x2="434.082" y1="768" y2="774"/><line style="stroke:#000000;stroke-width:1;" x1="440.082" x2="434.082" y1="774" y2="774"/><text fill="#000000" font-family="Verdana" font-size="14" lengthAdjust="spacing" textLength="66.582" x="358.5" y="790.0752">State={}</text></g><!--entity N3_1--><g class="entity" data-entity="N3_1" data-source-line="40" data-uid="ent0024" id="entity_N3_1"><rect fill="#FFFFFF" height="40.0146" rx="2.5" ry="2.5" style="stroke:#000000;stroke-width:1;" width="79.1846" x="611.5" y="307"/><polygon fill="#FFFFFF" points="673.6846,312,673.6846,326,685.6846,326,685.6846,318,679.6846,312,673.6846,312" style="stroke:#000000;stroke-width:1;"/><line style="stroke:#000000;stroke-width:1;" x1="679.6846" x2="679.6846" y1="312" y2="318"/><line style="stroke:#000000;stroke-width:1;" x1="685.6846" x2="679.6846" y1="318" y2="318"/><text fill="#000000" font-family="Verdana" font-size="14" lengthAdjust="spacing" textLength="49.1846" x="621.5" y="334.0752">Log=[]</text></g><!--entity N3_2--><g class="entity" data-entity="N3_2" data-source-line="41" data-uid="ent0025" id="entity_N3_2"><rect fill="#FFFFFF" height="40.0146" rx="2.5" ry="2.5" style="stroke:#000000;stroke-width:1;" width="86.916" x="607.5" y="408"/><polygon fill="#FFFFFF" points="677.416,413,677.416,427,689.416,427,689.416,419,683.416,413,677.416,413" style="stroke:#000000;stroke-width:1;"/><line style="stroke:#000000;stroke-width:1;" x1="683.416" x2="683.416" y1="413" y2="419"/><line style="stroke:#000000;stroke-width:1;" x1="689.416" x2="683.416" y1="419" y2="419"/><text fill="#000000" font-family="Verdana" font-size="14" lengthAdjust="spacing" textLength="56.916" x="617.5" y="435.0752">Term=0</text></g><!--entity N3_3--><g class="entity" data-entity="N3_3" data-source-line="42" data-uid="ent0026" id="entity_N3_3"><rect fill="#FFFFFF" height="40.0146" rx="2.5" ry="2.5" style="stroke:#000000;stroke-width:1;" width="145.3223" x="578.5" y="509"/><polygon fill="#FFFFFF" points="706.8223,514,706.8223,528,718.8223,528,718.8223,520,712.8223,514,706.8223,514" style="stroke:#000000;stroke-width:1;"/><line style="stroke:#000000;stroke-width:1;" x1="712.8223" x2="712.8223" y1="514" y2="520"/><line style="stroke:#000000;stroke-width:1;" x1="718.8223" x2="712.8223" y1="520" y2="520"/><text fill="#000000" font-family="Verdana" font-size="14" lengthAdjust="spacing" textLength="115.3223" x="588.5" y="536.0752">CommitIndex=0</text></g><!--entity N3_4--><g class="entity" data-entity="N3_4" data-source-line="43" data-uid="ent0027" id="entity_N3_4"><rect fill="#FFFFFF" height="40.0146" rx="2.5" ry="2.5" style="stroke:#000000;stroke-width:1;" width="129.5996" x="586" y="627"/><polygon fill="#FFFFFF" points="698.5996,632,698.5996,646,710.5996,646,710.5996,638,704.5996,632,698.5996,632" style="stroke:#000000;stroke-width:1;"/><line style="stroke:#000000;stroke-width:1;" x1="704.5996" x2="704.5996" y1="632" y2="638"/><line style="stroke:#000000;stroke-width:1;" x1="710.5996" x2="704.5996" y1="638" y2="638"/><text fill="#000000" font-family="Verdana" font-size="14" lengthAdjust="spacing" textLength="99.5996" x="596" y="654.0752">ApplyIndex=0</text></g><!--entity N3_5--><g class="entity" data-entity="N3_5" data-source-line="44" data-uid="ent0028" id="entity_N3_5"><rect fill="#FFFFFF" height="40.0146" rx="2.5" ry="2.5" style="stroke:#000000;stroke-width:1;" width="96.582" x="602.5" y="763"/><polygon fill="#FFFFFF" points="682.082,768,682.082,782,694.082,782,694.082,774,688.082,768,682.082,768" style="stroke:#000000;stroke-width:1;"/><line style="stroke:#000000;stroke-width:1;" x1="688.082" x2="688.082" y1="768" y2="774"/><line style="stroke:#000000;stroke-width:1;" x1="694.082" x2="688.082" y1="774" y2="774"/><text fill="#000000" font-family="Verdana" font-size="14" lengthAdjust="spacing" textLength="66.582" x="612.5" y="790.0752">State={}</text></g><!--link N1_1 to N1_2--><g class="link" data-entity-1="N1_1" data-entity-2="N1_2" data-source-line="22" data-uid="lnk9" id="link_N1_1_N1_2"><path d="M141,187.26 C141,223.5 141,277.85 141,306.58" fill="none" id="N1_1-N1_2" style="stroke:#000000;stroke-width:1;"/></g><!--link N1_2 to N1_3--><g class="link" data-entity-1="N1_2" data-entity-2="N1_3" data-source-line="23" data-uid="lnk10" id="link_N1_2_N1_3"><path d="M141,347.09 C141,364.62 141,390.46 141,407.97" fill="none" id="N1_2-N1_3" style="stroke:#000000;stroke-width:1;"/></g><!--link N1_3 to N1_4--><g class="link" data-entity-1="N1_3" data-entity-2="N1_4" data-source-line="24" data-uid="lnk11" id="link_N1_3_N1_4"><path d="M141,448.09 C141,465.62 141,491.46 141,508.97" fill="none" id="N1_3-N1_4" style="stroke:#000000;stroke-width:1;"/></g><!--link N1_4 to N1_5--><g class="link" data-entity-1="N1_4" data-entity-2="N1_5" data-source-line="25" data-uid="lnk12" id="link_N1_4_N1_5"><path d="M141,549.16 C141,565.63 141,589.84 141,609.93" fill="none" id="N1_4-N1_5" style="stroke:#000000;stroke-width:1;"/></g><!--link N2_1 to N2_2--><g class="link" data-entity-1="N2_1" data-entity-2="N2_2" data-source-line="34" data-uid="lnk19" id="link_N2_1_N2_2"><path d="M397,347.09 C397,364.62 397,390.46 397,407.97" fill="none" id="N2_1-N2_2" style="stroke:#000000;stroke-width:1;"/></g><!--link N2_2 to N2_3--><g class="link" data-entity-1="N2_2" data-entity-2="N2_3" data-source-line="35" data-uid="lnk20" id="link_N2_2_N2_3"><path d="M397,448.09 C397,465.62 397,491.46 397,508.97" fill="none" id="N2_2-N2_3" style="stroke:#000000;stroke-width:1;"/></g><!--link N2_3 to N2_4--><g class="link" data-entity-1="N2_3" data-entity-2="N2_4" data-source-line="36" data-uid="lnk21" id="link_N2_3_N2_4"><path d="M397,549.16 C397,570.65 397,605.31 397,626.82" fill="none" id="N2_3-N2_4" style="stroke:#000000;stroke-width:1;"/></g><!--link N2_4 to N2_5--><g class="link" data-entity-1="N2_4" data-entity-2="N2_5" data-source-line="37" data-uid="lnk22" id="link_N2_4_N2_5"><path d="M397,667.2 C397,692.67 397,737.38 397,762.84" fill="none" id="N2_4-N2_5" style="stroke:#000000;stroke-width:1;"/></g><!--link N3_1 to N3_2--><g class="link" data-entity-1="N3_1" data-entity-2="N3_2" data-source-line="46" data-uid="lnk29" id="link_N3_1_N3_2"><path d="M651,347.09 C651,364.62 651,390.46 651,407.97" fill="none" id="N3_1-N3_2" style="stroke:#000000;stroke-width:1;"/></g><!--link N3_2 to N3_3--><g class="link" data-entity-1="N3_2" data-entity-2="N3_3" data-source-line="47" data-uid="lnk30" id="link_N3_2_N3_3"><path d="M651,448.09 C651,465.62 651,491.46 651,508.97" fill="none" id="N3_2-N3_3" style="stroke:#000000;stroke-width:1;"/></g><!--link N3_3 to N3_4--><g class="link" data-entity-1="N3_3" data-entity-2="N3_4" data-source-line="48" data-uid="lnk31" id="link_N3_3_N3_4"><path d="M651,549.16 C651,570.65 651,605.31 651,626.82" fill="none" id="N3_3-N3_4" style="stroke:#000000;stroke-width:1;"/></g><!--link N3_4 to N3_5--><g class="link" data-entity-1="N3_4" data-entity-2="N3_5" data-source-line="49" data-uid="lnk32" id="link_N3_4_N3_5"><path d="M651,667.2 C651,692.67 651,737.38 651,762.84" fill="none" id="N3_4-N3_5" style="stroke:#000000;stroke-width:1;"/></g><!--reverse link N1 to N2--><g class="link" data-entity-1="N1" data-entity-2="N2" data-source-line="52" data-uid="lnk33" id="link_N1_N2"><path d="M247.8931,181.9149 C248.2048,182.889 246.9269,178.8958 247.2514,179.9098 C252.4441,196.1353 259.2281,217.3344 266.0113,238.5313 C272.7944,259.7281 279.5766,280.9228 284.7655,297.1395 C285.0898,298.1531 285.4079,299.1472 285.7193,300.1206 C285.7972,300.364 285.8747,300.606 285.9517,300.8468" fill="none" id="N1-backto-N2" style="stroke:#000000;stroke-width:1;"/><polygon fill="#000000" points="246.0643,176.2004,244.9979,185.9914,247.5883,180.9625,252.6172,183.553,246.0643,176.2004" style="stroke:#000000;stroke-width:1;"/><text fill="#000000" font-family="Verdana" font-size="13" lengthAdjust="spacing" textLength="24.1592" x="266" y="231.0698">join</text></g><!--reverse link N1 to N3--><g class="link" data-entity-1="N1" data-entity-2="N3" data-source-line="53" data-uid="lnk34" id="link_N1_N3"><path d="M252.2378,153.2307 C256.9888,154.0019 257.7002,154.1846 265.8178,155.7561 C282.0531,158.8991 304.2238,163.7519 329.1375,170.7512 C378.965,184.75 439.765,207.335 486,242 C503.985,255.48 519.0925,275.61 529.8913,292.785 C532.5909,297.0788 535.0213,301.1878 537.1601,304.9621 C537.6947,305.9057 538.2112,306.8283 538.7091,307.7277 C538.958,308.1774 539.2023,308.6213 539.4419,309.059 C539.5617,309.2779 539.6803,309.4953 539.7978,309.7111 C539.8565,309.819 539.915,309.9265 539.9731,310.0336" fill="none" id="N1-backto-N3" style="stroke:#000000;stroke-width:1;"/><polygon fill="#000000" points="246.3154,152.2694,254.5582,157.6597,251.2508,153.0705,255.84,149.7631,246.3154,152.2694" style="stroke:#000000;stroke-width:1;"/><text fill="#000000" font-family="Verdana" font-size="13" lengthAdjust="spacing" textLength="24.1592" x="475" y="231.0698">join</text></g><!--SRC=[ZPJFQy8m5CVl_IlUUfwmziMBh8Vf60p4mxRBq362ZRKpJKgCp27ztzTKN_rLhJc4noVVF1wVajxPkSW4v9AdolEMYrJbtF0CZ9XQhX8fOED1kVfykaYCNgbueAKsC4oJkVqKKkhVxRasiJ3RipSHUyLXCwNZgttwSYNEklHb6NLzlFqilk4pw-zQLLtzKRa7C1uANjxyye4lOHJi4cvnOzCPdrhmXpg9nXC5i8w2UvWe2dy73U4FOR8ee4JOa1ZeB4ljguh5UX_4Xk1Jdik_annhoBrRRaMqSHF2kWVLZ0LTw5ONYcft8qFdkREVp1L4a0WIOKGOaQvtOZ24yOjs7xDs65vsI8dBuXueqIQk3hQ8gtDNn1MKEN8LaYiQnXL4a0WIOKGOaJDNUEOAMrrXgokyrHNUw0flS8N7hf1SqJ2k8894a0WZmeXqtNijdz_ZrXtqu4UN_vMQ895_]--></g></svg>