<svg xmlns="http://www.w3.org/2000/svg" xmlns:xlink="http://www.w3.org/1999/xlink" contentStyleType="text/css" data-diagram-type="DESCRIPTION" height="824px" preserveAspectRatio="none" style="width:1409px;height:824px;background:#FFFFFF;" version="1.1" viewBox="0 0 1409 824" width="1409px" zoomAndPan="magnify"><defs/><g><!--cluster raft--><g class="cluster" data-entity="raft" data-source-line="17" data-uid="ent0005" id="cluster_raft"><rect fill="#FFFFE0" height="703" rx="2.5" ry="2.5" style="stroke:#FF0000;stroke-width:1;" width="1218" x="185" y="115"/><text fill="#000000" font-family="Verdana" font-size="14" font-weight="bold" lengthAdjust="spacing" textLength="28.6016" x="779.6992" y="131.0752">raft</text></g><!--cluster N5--><g class="cluster" data-entity="N5" data-source-line="18" data-uid="ent0006" id="cluster_N5"><polygon fill="#ADD8E6" points="1165,193.5,1175,183.5,1379,183.5,1379,759.5,1369,769.5,1165,769.5,1165,193.5" style="stroke:#000000;stroke-width:1;"/><line style="stroke:#000000;stroke-width:1;" x1="1369" x2="1379" y1="193.5" y2="183.5"/><line style="stroke:#000000;stroke-width:1;" x1="1165" x2="1369" y1="193.5" y2="193.5"/><line style="stroke:#000000;stroke-width:1;" x1="1369" x2="1369" y1="193.5" y2="769.5"/><text fill="#000000" font-family="Verdana" font-size="14" font-weight="bold" lengthAdjust="spacing" textLength="138.373" x="1198.8135" y="210.5752">Node5 [Follower]</text></g><!--cluster N4--><g class="cluster" data-entity="N4" data-source-line="30" data-uid="ent0016" id="cluster_N4"><polygon fill="#ADD8E6" points="927,193.5,937,183.5,1141,183.5,1141,759.5,1131,769.5,927,769.5,927,193.5" style="stroke:#000000;stroke-width:1;"/><line style="stroke:#000000;stroke-width:1;" x1="1131" x2="1141" y1="193.5" y2="183.5"/><line style="stroke:#000000;stroke-width:1;" x1="927" x2="1131" y1="193.5" y2="193.5"/><line style="stroke:#000000;stroke-width:1;" x1="1131" x2="1131" y1="193.5" y2="769.5"/><text fill="#000000" font-family="Verdana" font-size="14" font-weight="bold" lengthAdjust="spacing" textLength="138.373" x="960.8135" y="210.5752">Node4 [Follower]</text></g><!--cluster N3--><g class="cluster" data-entity="N3" data-source-line="42" data-uid="ent0026" id="cluster_N3"><polygon fill="#ADD8E6" points="689,193.5,699,183.5,903,183.5,903,759.5,893,769.5,689,769.5,689,193.5" style="stroke:#000000;stroke-width:1;"/><line style="stroke:#000000;stroke-width:1;" x1="893" x2="903" y1="193.5" y2="183.5"/><line style="stroke:#000000;stroke-width:1;" x1="689" x2="893" y1="193.5" y2="193.5"/><line style="stroke:#000000;stroke-width:1;" x1="893" x2="893" y1="193.5" y2="769.5"/><text fill="#000000" font-family="Verdana" font-size="14" font-weight="bold" lengthAdjust="spacing" textLength="138.373" x="722.8135" y="210.5752">Node3 [Follower]</text></g><!--cluster N2--><g class="cluster" data-entity="N2" data-source-line="54" data-uid="ent0036" id="cluster_N2"><polygon fill="#ADD8E6" points="451,193.5,461,183.5,665,183.5,665,759.5,655,769.5,451,769.5,451,193.5" style="stroke:#000000;stroke-width:1;"/><line style="stroke:#000000;stroke-width:1;" x1="655" x2="665" y1="193.5" y2="183.5"/><line style="stroke:#000000;stroke-width:1;" x1="451" x2="655" y1="193.5" y2="193.5"/><line style="stroke:#000000;stroke-width:1;" x1="655" x2="655" y1="193.5" y2="769.5"/><text fill="#000000" font-family="Verdana" font-size="14" font-weight="bold" lengthAdjust="spacing" textLength="138.373" x="484.8135" y="210.5752">Node2 [Follower]</text></g><!--cluster N1--><g class="cluster" data-entity="N1" data-source-line="66" data-uid="ent0046" id="cluster_N1"><polygon fill="#ADD8E6" points="217,177,227,167,419,167,419,776,409,786,217,786,217,177" style="stroke:#000000;stroke-width:1;"/><line style="stroke:#000000;stroke-width:1;" x1="409" x2="419" y1="177" y2="167"/><line style="stroke:#000000;stroke-width:1;" x1="217" x2="409" y1="177" y2="177"/><line style="stroke:#000000;stroke-width:1;" x1="409" x2="409" y1="177" y2="786"/><text fill="#000000" font-family="Verdana" font-size="14" font-weight="bold" lengthAdjust="spacing" textLength="124.1201" x="251.9399" y="194.0752">Node1 [Leader]</text></g><!--entity N5_1--><g class="entity" data-entity="N5_1" data-source-line="19" data-uid="ent0007" id="entity_N5_1"><rect fill="#FFFFFF" height="74.0439" rx="2.5" ry="2.5" style="stroke:#000000;stroke-width:1;" width="78.501" x="1232.5" y="224.5"/><polygon fill="#FFFFFF" points="1294.001,229.5,1294.001,243.5,1306.001,243.5,1306.001,235.5,1300.001,229.5,1294.001,229.5" style="stroke:#000000;stroke-width:1;"/><line style="stroke:#000000;stroke-width:1;" x1="1300.001" x2="1300.001" y1="229.5" y2="235.5"/><line style="stroke:#000000;stroke-width:1;" x1="1306.001" x2="1300.001" y1="235.5" y2="235.5"/><text fill="#000000" font-family="Verdana" font-size="14" lengthAdjust="spacing" textLength="42.8271" x="1242.5" y="251.5752">Log=[</text><text fill="#000000" font-family="Verdana" font-size="14" lengthAdjust="spacing" textLength="33.7354" x="1252.3438" y="268.5898">x=1,</text><text fill="#000000" font-family="Verdana" font-size="14" lengthAdjust="spacing" textLength="6.3574" x="1242.5" y="285.6045">]</text></g><!--entity N5_2--><g class="entity" data-entity="N5_2" data-source-line="20" data-uid="ent0008" id="entity_N5_2"><rect fill="#FFFFFF" height="40.0146" rx="2.5" ry="2.5" style="stroke:#000000;stroke-width:1;" width="86.916" x="1228.5" y="368"/><polygon fill="#FFFFFF" points="1298.416,373,1298.416,387,1310.416,387,1310.416,379,1304.416,373,1298.416,373" style="stroke:#000000;stroke-width:1;"/><line style="stroke:#000000;stroke-width:1;" x1="1304.416" x2="1304.416" y1="373" y2="379"/><line style="stroke:#000000;stroke-width:1;" x1="1310.416" x2="1304.416" y1="379" y2="379"/><text fill="#000000" font-family="Verdana" font-size="14" lengthAdjust="spacing" textLength="56.916" x="1238.5" y="395.0752">Term=1</text></g><!--entity N5_3--><g class="entity" data-entity="N5_3" data-source-line="21" data-uid="ent0009" id="entity_N5_3"><rect fill="#FFFFFF" height="40.0146" rx="2.5" ry="2.5" style="stroke:#000000;stroke-width:1;" width="145.3223" x="1199.5" y="469"/><polygon fill="#FFFFFF" points="1327.8223,474,1327.8223,488,1339.8223,488,1339.8223,480,1333.8223,474,1327.8223,474" style="stroke:#000000;stroke-width:1;"/><line style="stroke:#000000;stroke-width:1;" x1="1333.8223" x2="1333.8223" y1="474" y2="480"/><line style="stroke:#000000;stroke-width:1;" x1="1339.8223" x2="1333.8223" y1="480" y2="480"/><text fill="#000000" font-family="Verdana" font-size="14" lengthAdjust="spacing" textLength="115.3223" x="1209.5" y="496.0752">CommitIndex=1</text></g><!--entity N5_4--><g class="entity" data-entity="N5_4" data-source-line="22" data-uid="ent0010" id="entity_N5_4"><rect fill="#FFFFFF" height="40.0146" rx="2.5" ry="2.5" style="stroke:#000000;stroke-width:1;" width="129.5996" x="1207" y="570"/><polygon fill="#FFFFFF" points="1319.5996,575,1319.5996,589,1331.5996,589,1331.5996,581,1325.5996,575,1319.5996,575" style="stroke:#000000;stroke-width:1;"/><line style="stroke:#000000;stroke-width:1;" x1="1325.5996" x2="1325.5996" y1="575" y2="581"/><line style="stroke:#000000;stroke-width:1;" x1="1331.5996" x2="1325.5996" y1="581" y2="581"/><text fill="#000000" font-family="Verdana" font-size="14" lengthAdjust="spacing" textLength="99.5996" x="1217" y="597.0752">ApplyIndex=1</text></g><!--entity N5_5--><g class="entity" data-entity="N5_5" data-source-line="23" data-uid="ent0011" id="entity_N5_5"><rect fill="#FFFFFF" height="74.0439" rx="2.5" ry="2.5" style="stroke:#000000;stroke-width:1;" width="87.6953" x="1228" y="679.5"/><polygon fill="#FFFFFF" points="1298.6953,684.5,1298.6953,698.5,1310.6953,698.5,1310.6953,690.5,1304.6953,684.5,1298.6953,684.5" style="stroke:#000000;stroke-width:1;"/><line style="stroke:#000000;stroke-width:1;" x1="1304.6953" x2="1304.6953" y1="684.5" y2="690.5"/><line style="stroke:#000000;stroke-width:1;" x1="1310.6953" x2="1304.6953" y1="690.5" y2="690.5"/><text fill="#000000" font-family="Verdana" font-size="14" lengthAdjust="spacing" textLength="57.6953" x="1238" y="706.5752">State={</text><text fill="#000000" font-family="Verdana" font-size="14" lengthAdjust="spacing" textLength="33.5576" x="1252.7656" y="723.5898">x: 1,</text><text fill="#000000" font-family="Verdana" font-size="14" lengthAdjust="spacing" textLength="8.8867" x="1238" y="740.6045">}</text></g><!--entity N4_1--><g class="entity" data-entity="N4_1" data-source-line="31" data-uid="ent0017" id="entity_N4_1"><rect fill="#FFFFFF" height="74.0439" rx="2.5" ry="2.5" style="stroke:#000000;stroke-width:1;" width="78.501" x="994.5" y="224.5"/><polygon fill="#FFFFFF" points="1056.001,229.5,1056.001,243.5,1068.001,243.5,1068.001,235.5,1062.001,229.5,1056.001,229.5" style="stroke:#000000;stroke-width:1;"/><line style="stroke:#000000;stroke-width:1;" x1="1062.001" x2="1062.001" y1="229.5" y2="235.5"/><line style="stroke:#000000;stroke-width:1;" x1="1068.001" x2="1062.001" y1="235.5" y2="235.5"/><text fill="#000000" font-family="Verdana" font-size="14" lengthAdjust="spacing" textLength="42.8271" x="1004.5" y="251.5752">Log=[</text><text fill="#000000" font-family="Verdana" font-size="14" lengthAdjust="spacing" textLength="33.7354" x="1014.3438" y="268.5898">x=1,</text><text fill="#000000" font-family="Verdana" font-size="14" lengthAdjust="spacing" textLength="6.3574" x="1004.5" y="285.6045">]</text></g><!--entity N4_2--><g class="entity" data-entity="N4_2" data-source-line="32" data-uid="ent0018" id="entity_N4_2"><rect fill="#FFFFFF" height="40.0146" rx="2.5" ry="2.5" style="stroke:#000000;stroke-width:1;" width="86.916" x="990.5" y="368"/><polygon fill="#FFFFFF" points="1060.416,373,1060.416,387,1072.416,387,1072.416,379,1066.416,373,1060.416,373" style="stroke:#000000;stroke-width:1;"/><line style="stroke:#000000;stroke-width:1;" x1="1066.416" x2="1066.416" y1="373" y2="379"/><line style="stroke:#000000;stroke-width:1;" x1="1072.416" x2="1066.416" y1="379" y2="379"/><text fill="#000000" font-family="Verdana" font-size="14" lengthAdjust="spacing" textLength="56.916" x="1000.5" y="395.0752">Term=1</text></g><!--entity N4_3--><g class="entity" data-entity="N4_3" data-source-line="33" data-uid="ent0019" id="entity_N4_3"><rect fill="#FFFFFF" height="40.0146" rx="2.5" ry="2.5" style="stroke:#000000;stroke-width:1;" width="145.3223" x="961.5" y="469"/><polygon fill="#FFFFFF" points="1089.8223,474,1089.8223,488,1101.8223,488,1101.8223,480,1095.8223,474,1089.8223,474" style="stroke:#000000;stroke-width:1;"/><line style="stroke:#000000;stroke-width:1;" x1="1095.8223" x2="1095.8223" y1="474" y2="480"/><line style="stroke:#000000;stroke-width:1;" x1="1101.8223" x2="1095.8223" y1="480" y2="480"/><text fill="#000000" font-family="Verdana" font-size="14" lengthAdjust="spacing" textLength="115.3223" x="971.5" y="496.0752">CommitIndex=1</text></g><!--entity N4_4--><g class="entity" data-entity="N4_4" data-source-line="34" data-uid="ent0020" id="entity_N4_4"><rect fill="#FFFFFF" height="40.0146" rx="2.5" ry="2.5" style="stroke:#000000;stroke-width:1;" width="129.5996" x="969" y="570"/><polygon fill="#FFFFFF" points="1081.5996,575,1081.5996,589,1093.5996,589,1093.5996,581,1087.5996,575,1081.5996,575" style="stroke:#000000;stroke-width:1;"/><line style="stroke:#000000;stroke-width:1;" x1="1087.5996" x2="1087.5996" y1="575" y2="581"/><line style="stroke:#000000;stroke-width:1;" x1="1093.5996" x2="1087.5996" y1="581" y2="581"/><text fill="#000000" font-family="Verdana" font-size="14" lengthAdjust="spacing" textLength="99.5996" x="979" y="597.0752">ApplyIndex=1</text></g><!--entity N4_5--><g class="entity" data-entity="N4_5" data-source-line="35" data-uid="ent0021" id="entity_N4_5"><rect fill="#FFFFFF" height="74.0439" rx="2.5" ry="2.5" style="stroke:#000000;stroke-width:1;" width="87.6953" x="990" y="679.5"/><polygon fill="#FFFFFF" points="1060.6953,684.5,1060.6953,698.5,1072.6953,698.5,1072.6953,690.5,1066.6953,684.5,1060.6953,684.5" style="stroke:#000000;stroke-width:1;"/><line style="stroke:#000000;stroke-width:1;" x1="1066.6953" x2="1066.6953" y1="684.5" y2="690.5"/><line style="stroke:#000000;stroke-width:1;" x1="1072.6953" x2="1066.6953" y1="690.5" y2="690.5"/><text fill="#000000" font-family="Verdana" font-size="14" lengthAdjust="spacing" textLength="57.6953" x="1000" y="706.5752">State={</text><text fill="#000000" font-family="Verdana" font-size="14" lengthAdjust="spacing" textLength="33.5576" x="1014.7656" y="723.5898">x: 1,</text><text fill="#000000" font-family="Verdana" font-size="14" lengthAdjust="spacing" textLength="8.8867" x="1000" y="740.6045">}</text></g><!--entity N3_1--><g class="entity" data-entity="N3_1" data-source-line="43" data-uid="ent0027" id="entity_N3_1"><rect fill="#FFFFFF" height="74.0439" rx="2.5" ry="2.5" style="stroke:#000000;stroke-width:1;" width="78.501" x="756.5" y="224.5"/><polygon fill="#FFFFFF" points="818.001,229.5,818.001,243.5,830.001,243.5,830.001,235.5,824.001,229.5,818.001,229.5" style="stroke:#000000;stroke-width:1;"/><line style="stroke:#000000;stroke-width:1;" x1="824.001" x2="824.001" y1="229.5" y2="235.5"/><line style="stroke:#000000;stroke-width:1;" x1="830.001" x2="824.001" y1="235.5" y2="235.5"/><text fill="#000000" font-family="Verdana" font-size="14" lengthAdjust="spacing" textLength="42.8271" x="766.5" y="251.5752">Log=[</text><text fill="#000000" font-family="Verdana" font-size="14" lengthAdjust="spacing" textLength="33.7354" x="776.3438" y="268.5898">x=1,</text><text fill="#000000" font-family="Verdana" font-size="14" lengthAdjust="spacing" textLength="6.3574" x="766.5" y="285.6045">]</text></g><!--entity N3_2--><g class="entity" data-entity="N3_2" data-source-line="44" data-uid="ent0028" id="entity_N3_2"><rect fill="#FFFFFF" height="40.0146" rx="2.5" ry="2.5" style="stroke:#000000;stroke-width:1;" width="86.916" x="752.5" y="368"/><polygon fill="#FFFFFF" points="822.416,373,822.416,387,834.416,387,834.416,379,828.416,373,822.416,373" style="stroke:#000000;stroke-width:1;"/><line style="stroke:#000000;stroke-width:1;" x1="828.416" x2="828.416" y1="373" y2="379"/><line style="stroke:#000000;stroke-width:1;" x1="834.416" x2="828.416" y1="379" y2="379"/><text fill="#000000" font-family="Verdana" font-size="14" lengthAdjust="spacing" textLength="56.916" x="762.5" y="395.0752">Term=1</text></g><!--entity N3_3--><g class="entity" data-entity="N3_3" data-source-line="45" data-uid="ent0029" id="entity_N3_3"><rect fill="#FFFFFF" height="40.0146" rx="2.5" ry="2.5" style="stroke:#000000;stroke-width:1;" width="145.3223" x="723.5" y="469"/><polygon fill="#FFFFFF" points="851.8223,474,851.8223,488,863.8223,488,863.8223,480,857.8223,474,851.8223,474" style="stroke:#000000;stroke-width:1;"/><line style="stroke:#000000;stroke-width:1;" x1="857.8223" x2="857.8223" y1="474" y2="480"/><line style="stroke:#000000;stroke-width:1;" x1="863.8223" x2="857.8223" y1="480" y2="480"/><text fill="#000000" font-family="Verdana" font-size="14" lengthAdjust="spacing" textLength="115.3223" x="733.5" y="496.0752">CommitIndex=1</text></g><!--entity N3_4--><g class="entity" data-entity="N3_4" data-source-line="46" data-uid="ent0030" id="entity_N3_4"><rect fill="#FFFFFF" height="40.0146" rx="2.5" ry="2.5" style="stroke:#000000;stroke-width:1;" width="129.5996" x="731" y="570"/><polygon fill="#FFFFFF" points="843.5996,575,843.5996,589,855.5996,589,855.5996,581,849.5996,575,843.5996,575" style="stroke:#000000;stroke-width:1;"/><line style="stroke:#000000;stroke-width:1;" x1="849.5996" x2="849.5996" y1="575" y2="581"/><line style="stroke:#000000;stroke-width:1;" x1="855.5996" x2="849.5996" y1="581" y2="581"/><text fill="#000000" font-family="Verdana" font-size="14" lengthAdjust="spacing" textLength="99.5996" x="741" y="597.0752">ApplyIndex=1</text></g><!--entity N3_5--><g class="entity" data-entity="N3_5" data-source-line="47" data-uid="ent0031" id="entity_N3_5"><rect fill="#FFFFFF" height="74.0439" rx="2.5" ry="2.5" style="stroke:#000000;stroke-width:1;" width="87.6953" x="752" y="679.5"/><polygon fill="#FFFFFF" points="822.6953,684.5,822.6953,698.5,834.6953,698.5,834.6953,690.5,828.6953,684.5,822.6953,684.5" style="stroke:#000000;stroke-width:1;"/><line style="stroke:#000000;stroke-width:1;" x1="828.6953" x2="828.6953" y1="684.5" y2="690.5"/><line style="stroke:#000000;stroke-width:1;" x1="834.6953" x2="828.6953" y1="690.5" y2="690.5"/><text fill="#000000" font-family="Verdana" font-size="14" lengthAdjust="spacing" textLength="57.6953" x="762" y="706.5752">State={</text><text fill="#000000" font-family="Verdana" font-size="14" lengthAdjust="spacing" textLength="33.5576" x="776.7656" y="723.5898">x: 1,</text><text fill="#000000" font-family="Verdana" font-size="14" lengthAdjust="spacing" textLength="8.8867" x="762" y="740.6045">}</text></g><!--entity N2_1--><g class="entity" data-entity="N2_1" data-source-line="55" data-uid="ent0037" id="entity_N2_1"><rect fill="#FFFFFF" height="74.0439" rx="2.5" ry="2.5" style="stroke:#000000;stroke-width:1;" width="78.501" x="518.5" y="224.5"/><polygon fill="#FFFFFF" points="580.001,229.5,580.001,243.5,592.001,243.5,592.001,235.5,586.001,229.5,580.001,229.5" style="stroke:#000000;stroke-width:1;"/><line style="stroke:#000000;stroke-width:1;" x1="586.001" x2="586.001" y1="229.5" y2="235.5"/><line style="stroke:#000000;stroke-width:1;" x1="592.001" x2="586.001" y1="235.5" y2="235.5"/><text fill="#000000" font-family="Verdana" font-size="14" lengthAdjust="spacing" textLength="42.8271" x="528.5" y="251.5752">Log=[</text><text fill="#000000" font-family="Verdana" font-size="14" lengthAdjust="spacing" textLength="33.7354" x="538.3438" y="268.5898">x=1,</text><text fill="#000000" font-family="Verdana" font-size="14" lengthAdjust="spacing" textLength="6.3574" x="528.5" y="285.6045">]</text></g><!--entity N2_2--><g class="entity" data-entity="N2_2" data-source-line="56" data-uid="ent0038" id="entity_N2_2"><rect fill="#FFFFFF" height="40.0146" rx="2.5" ry="2.5" style="stroke:#000000;stroke-width:1;" width="86.916" x="514.5" y="368"/><polygon fill="#FFFFFF" points="584.416,373,584.416,387,596.416,387,596.416,379,590.416,373,584.416,373" style="stroke:#000000;stroke-width:1;"/><line style="stroke:#000000;stroke-width:1;" x1="590.416" x2="590.416" y1="373" y2="379"/><line style="stroke:#000000;stroke-width:1;" x1="596.416" x2="590.416" y1="379" y2="379"/><text fill="#000000" font-family="Verdana" font-size="14" lengthAdjust="spacing" textLength="56.916" x="524.5" y="395.0752">Term=1</text></g><!--entity N2_3--><g class="entity" data-entity="N2_3" data-source-line="57" data-uid="ent0039" id="entity_N2_3"><rect fill="#FFFFFF" height="40.0146" rx="2.5" ry="2.5" style="stroke:#000000;stroke-width:1;" width="145.3223" x="485.5" y="469"/><polygon fill="#FFFFFF" points="613.8223,474,613.8223,488,625.8223,488,625.8223,480,619.8223,474,613.8223,474" style="stroke:#000000;stroke-width:1;"/><line style="stroke:#000000;stroke-width:1;" x1="619.8223" x2="619.8223" y1="474" y2="480"/><line style="stroke:#000000;stroke-width:1;" x1="625.8223" x2="619.8223" y1="480" y2="480"/><text fill="#000000" font-family="Verdana" font-size="14" lengthAdjust="spacing" textLength="115.3223" x="495.5" y="496.0752">CommitIndex=1</text></g><!--entity N2_4--><g class="entity" data-entity="N2_4" data-source-line="58" data-uid="ent0040" id="entity_N2_4"><rect fill="#FFFFFF" height="40.0146" rx="2.5" ry="2.5" style="stroke:#000000;stroke-width:1;" width="129.5996" x="493" y="570"/><polygon fill="#FFFFFF" points="605.5996,575,605.5996,589,617.5996,589,617.5996,581,611.5996,575,605.5996,575" style="stroke:#000000;stroke-width:1;"/><line style="stroke:#000000;stroke-width:1;" x1="611.5996" x2="611.5996" y1="575" y2="581"/><line style="stroke:#000000;stroke-width:1;" x1="617.5996" x2="611.5996" y1="581" y2="581"/><text fill="#000000" font-family="Verdana" font-size="14" lengthAdjust="spacing" textLength="99.5996" x="503" y="597.0752">ApplyIndex=1</text></g><!--entity N2_5--><g class="entity" data-entity="N2_5" data-source-line="59" data-uid="ent0041" id="entity_N2_5"><rect fill="#FFFFFF" height="74.0439" rx="2.5" ry="2.5" style="stroke:#000000;stroke-width:1;" width="87.6953" x="514" y="679.5"/><polygon fill="#FFFFFF" points="584.6953,684.5,584.6953,698.5,596.6953,698.5,596.6953,690.5,590.6953,684.5,584.6953,684.5" style="stroke:#000000;stroke-width:1;"/><line style="stroke:#000000;stroke-width:1;" x1="590.6953" x2="590.6953" y1="684.5" y2="690.5"/><line style="stroke:#000000;stroke-width:1;" x1="596.6953" x2="590.6953" y1="690.5" y2="690.5"/><text fill="#000000" font-family="Verdana" font-size="14" lengthAdjust="spacing" textLength="57.6953" x="524" y="706.5752">State={</text><text fill="#000000" font-family="Verdana" font-size="14" lengthAdjust="spacing" textLength="33.5576" x="538.7656" y="723.5898">x: 1,</text><text fill="#000000" font-family="Verdana" font-size="14" lengthAdjust="spacing" textLength="8.8867" x="524" y="740.6045">}</text></g><!--entity N1_1--><g class="entity" data-entity="N1_1" data-source-line="67" data-uid="ent0047" id="entity_N1_1"><rect fill="#90EE90" height="91.0586" rx="2.5" ry="2.5" style="stroke:#000000;stroke-width:1;" width="78.501" x="282.5" y="216"/><polygon fill="#90EE90" points="344.001,221,344.001,235,356.001,235,356.001,227,350.001,221,344.001,221" style="stroke:#000000;stroke-width:1;"/><line style="stroke:#000000;stroke-width:1;" x1="350.001" x2="350.001" y1="221" y2="227"/><line style="stroke:#000000;stroke-width:1;" x1="356.001" x2="350.001" y1="227" y2="227"/><text fill="#000000" font-family="Verdana" font-size="14" lengthAdjust="spacing" textLength="42.8271" x="292.5" y="243.0752">Log=[</text><text fill="#000000" font-family="Verdana" font-size="14" lengthAdjust="spacing" textLength="33.7354" x="302.3438" y="260.0898">x=2,</text><text fill="#000000" font-family="Verdana" font-size="14" lengthAdjust="spacing" textLength="33.7354" x="302.3438" y="277.1045">y=2,</text><text fill="#000000" font-family="Verdana" font-size="14" lengthAdjust="spacing" textLength="6.3574" x="292.5" y="294.1191">]</text></g><!--entity N1_2--><g class="entity" data-entity="N1_2" data-source-line="68" data-uid="ent0048" id="entity_N1_2"><rect fill="#FFFF00" height="40.0146" rx="2.5" ry="2.5" style="stroke:#000000;stroke-width:1;" width="86.916" x="278.5" y="368"/><polygon fill="#FFFF00" points="348.416,373,348.416,387,360.416,387,360.416,379,354.416,373,348.416,373" style="stroke:#000000;stroke-width:1;"/><line style="stroke:#000000;stroke-width:1;" x1="354.416" x2="354.416" y1="373" y2="379"/><line style="stroke:#000000;stroke-width:1;" x1="360.416" x2="354.416" y1="379" y2="379"/><text fill="#000000" font-family="Verdana" font-size="14" lengthAdjust="spacing" textLength="56.916" x="288.5" y="395.0752">Term=2</text></g><!--entity N1_3--><g class="entity" data-entity="N1_3" data-source-line="69" data-uid="ent0049" id="entity_N1_3"><rect fill="#90EE90" height="40.0146" rx="2.5" ry="2.5" style="stroke:#000000;stroke-width:1;" width="145.3223" x="249.5" y="469"/><polygon fill="#90EE90" points="377.8223,474,377.8223,488,389.8223,488,389.8223,480,383.8223,474,377.8223,474" style="stroke:#000000;stroke-width:1;"/><line style="stroke:#000000;stroke-width:1;" x1="383.8223" x2="383.8223" y1="474" y2="480"/><line style="stroke:#000000;stroke-width:1;" x1="389.8223" x2="383.8223" y1="480" y2="480"/><text fill="#000000" font-family="Verdana" font-size="14" lengthAdjust="spacing" textLength="115.3223" x="259.5" y="496.0752">CommitIndex=4</text></g><!--entity N1_4--><g class="entity" data-entity="N1_4" data-source-line="70" data-uid="ent0050" id="entity_N1_4"><rect fill="#90EE90" height="40.0146" rx="2.5" ry="2.5" style="stroke:#000000;stroke-width:1;" width="129.5996" x="257" y="570"/><polygon fill="#90EE90" points="369.5996,575,369.5996,589,381.5996,589,381.5996,581,375.5996,575,369.5996,575" style="stroke:#000000;stroke-width:1;"/><line style="stroke:#000000;stroke-width:1;" x1="375.5996" x2="375.5996" y1="575" y2="581"/><line style="stroke:#000000;stroke-width:1;" x1="381.5996" x2="375.5996" y1="581" y2="581"/><text fill="#000000" font-family="Verdana" font-size="14" lengthAdjust="spacing" textLength="99.5996" x="267" y="597.0752">ApplyIndex=4</text></g><!--entity N1_5--><g class="entity" data-entity="N1_5" data-source-line="71" data-uid="ent0051" id="entity_N1_5"><rect fill="#90EE90" height="91.0586" rx="2.5" ry="2.5" style="stroke:#000000;stroke-width:1;" width="87.6953" x="278" y="671"/><polygon fill="#90EE90" points="348.6953,676,348.6953,690,360.6953,690,360.6953,682,354.6953,676,348.6953,676" style="stroke:#000000;stroke-width:1;"/><line style="stroke:#000000;stroke-width:1;" x1="354.6953" x2="354.6953" y1="676" y2="682"/><line style="stroke:#000000;stroke-width:1;" x1="360.6953" x2="354.6953" y1="682" y2="682"/><text fill="#000000" font-family="Verdana" font-size="14" lengthAdjust="spacing" textLength="57.6953" x="288" y="698.0752">State={</text><text fill="#000000" font-family="Verdana" font-size="14" lengthAdjust="spacing" textLength="33.5576" x="302.7656" y="715.0898">x: 2,</text><text fill="#000000" font-family="Verdana" font-size="14" lengthAdjust="spacing" textLength="33.5576" x="302.7656" y="732.1045">y: 2,</text><text fill="#000000" font-family="Verdana" font-size="14" lengthAdjust="spacing" textLength="8.8867" x="288" y="749.1191">}</text></g><!--entity cmd1--><g class="entity" data-entity="cmd1" data-source-line="13" data-uid="ent0002" id="entity_cmd1"><rect fill="#FFFFFF" height="40.0146" rx="2.5" ry="2.5" style="stroke:#000000;stroke-width:1;" width="58.6426" x="65.5" y="12"/><polygon fill="#FFFFFF" points="107.1426,17,107.1426,31,119.1426,31,119.1426,23,113.1426,17,107.1426,17" style="stroke:#000000;stroke-width:1;"/><line style="stroke:#000000;stroke-width:1;" x1="113.1426" x2="113.1426" y1="17" y2="23"/><line style="stroke:#000000;stroke-width:1;" x1="119.1426" x2="113.1426" y1="23" y2="23"/><text fill="#000000" font-family="Verdana" font-size="14" lengthAdjust="spacing" textLength="28.6426" x="75.5" y="39.0752">x=2</text></g><!--entity cmd2--><g class="entity" data-entity="cmd2" data-source-line="14" data-uid="ent0003" id="entity_cmd2"><rect fill="#FFFFFF" height="40.0146" rx="2.5" ry="2.5" style="stroke:#000000;stroke-width:1;" width="58.6426" x="195.5" y="12"/><polygon fill="#FFFFFF" points="237.1426,17,237.1426,31,249.1426,31,249.1426,23,243.1426,17,237.1426,17" style="stroke:#000000;stroke-width:1;"/><line style="stroke:#000000;stroke-width:1;" x1="243.1426" x2="243.1426" y1="17" y2="23"/><line style="stroke:#000000;stroke-width:1;" x1="249.1426" x2="243.1426" y1="23" y2="23"/><text fill="#000000" font-family="Verdana" font-size="14" lengthAdjust="spacing" textLength="28.6426" x="205.5" y="39.0752">y=1</text></g><!--entity cmd3--><g class="entity" data-entity="cmd3" data-source-line="15" data-uid="ent0004" id="entity_cmd3"><rect fill="#FFFFFF" height="40.0146" rx="2.5" ry="2.5" style="stroke:#000000;stroke-width:1;" width="58.6426" x="325.5" y="12"/><polygon fill="#FFFFFF" points="367.1426,17,367.1426,31,379.1426,31,379.1426,23,373.1426,17,367.1426,17" style="stroke:#000000;stroke-width:1;"/><line style="stroke:#000000;stroke-width:1;" x1="373.1426" x2="373.1426" y1="17" y2="23"/><line style="stroke:#000000;stroke-width:1;" x1="379.1426" x2="373.1426" y1="23" y2="23"/><text fill="#000000" font-family="Verdana" font-size="14" lengthAdjust="spacing" textLength="28.6426" x="335.5" y="39.0752">y=2</text></g><g class="entity" data-entity="GMN56" data-source-line="79" data-uid="ent0057" id="entity_GMN56"><path d="M11,248.5 L11,274.2993 L168.9063,274.2993 L168.9063,258.5 L158.9063,248.5 L11,248.5" fill="#D3D3D3" style="stroke:#000000;stroke-width:1;"/><path d="M158.9063,248.5 L158.9063,258.5 L168.9063,258.5 L158.9063,248.5" fill="#D3D3D3" style="stroke:#000000;stroke-width:1;"/><text fill="#000000" font-family="Verdana" font-size="13" lengthAdjust="spacing" textLength="136.9063" x="17" y="266.5698">commit 3 commands</text></g><!--link N5_1 to N5_2--><g class="link" data-entity-1="N5_1" data-entity-2="N5_2" data-source-line="25" data-uid="lnk12" id="link_N5_1_N5_2"><path d="M1272,298.51 C1272,321.06 1272,349.23 1272,367.65" fill="none" id="N5_1-N5_2" style="stroke:#000000;stroke-width:1;"/></g><!--link N5_2 to N5_3--><g class="link" data-entity-1="N5_2" data-entity-2="N5_3" data-source-line="26" data-uid="lnk13" id="link_N5_2_N5_3"><path d="M1272,408.09 C1272,425.62 1272,451.46 1272,468.97" fill="none" id="N5_2-N5_3" style="stroke:#000000;stroke-width:1;"/></g><!--link N5_3 to N5_4--><g class="link" data-entity-1="N5_3" data-entity-2="N5_4" data-source-line="27" data-uid="lnk14" id="link_N5_3_N5_4"><path d="M1272,509.09 C1272,526.62 1272,552.46 1272,569.97" fill="none" id="N5_3-N5_4" style="stroke:#000000;stroke-width:1;"/></g><!--link N5_4 to N5_5--><g class="link" data-entity-1="N5_4" data-entity-2="N5_5" data-source-line="28" data-uid="lnk15" id="link_N5_4_N5_5"><path d="M1272,610.18 C1272,628.6 1272,656.88 1272,679.5" fill="none" id="N5_4-N5_5" style="stroke:#000000;stroke-width:1;"/></g><!--link N4_1 to N4_2--><g class="link" data-entity-1="N4_1" data-entity-2="N4_2" data-source-line="37" data-uid="lnk22" id="link_N4_1_N4_2"><path d="M1034,298.51 C1034,321.06 1034,349.23 1034,367.65" fill="none" id="N4_1-N4_2" style="stroke:#000000;stroke-width:1;"/></g><!--link N4_2 to N4_3--><g class="link" data-entity-1="N4_2" data-entity-2="N4_3" data-source-line="38" data-uid="lnk23" id="link_N4_2_N4_3"><path d="M1034,408.09 C1034,425.62 1034,451.46 1034,468.97" fill="none" id="N4_2-N4_3" style="stroke:#000000;stroke-width:1;"/></g><!--link N4_3 to N4_4--><g class="link" data-entity-1="N4_3" data-entity-2="N4_4" data-source-line="39" data-uid="lnk24" id="link_N4_3_N4_4"><path d="M1034,509.09 C1034,526.62 1034,552.46 1034,569.97" fill="none" id="N4_3-N4_4" style="stroke:#000000;stroke-width:1;"/></g><!--link N4_4 to N4_5--><g class="link" data-entity-1="N4_4" data-entity-2="N4_5" data-source-line="40" data-uid="lnk25" id="link_N4_4_N4_5"><path d="M1034,610.18 C1034,628.6 1034,656.88 1034,679.5" fill="none" id="N4_4-N4_5" style="stroke:#000000;stroke-width:1;"/></g><!--link N3_1 to N3_2--><g class="link" data-entity-1="N3_1" data-entity-2="N3_2" data-source-line="49" data-uid="lnk32" id="link_N3_1_N3_2"><path d="M796,298.51 C796,321.06 796,349.23 796,367.65" fill="none" id="N3_1-N3_2" style="stroke:#000000;stroke-width:1;"/></g><!--link N3_2 to N3_3--><g class="link" data-entity-1="N3_2" data-entity-2="N3_3" data-source-line="50" data-uid="lnk33" id="link_N3_2_N3_3"><path d="M796,408.09 C796,425.62 796,451.46 796,468.97" fill="none" id="N3_2-N3_3" style="stroke:#000000;stroke-width:1;"/></g><!--link N3_3 to N3_4--><g class="link" data-entity-1="N3_3" data-entity-2="N3_4" data-source-line="51" data-uid="lnk34" id="link_N3_3_N3_4"><path d="M796,509.09 C796,526.62 796,552.46 796,569.97" fill="none" id="N3_3-N3_4" style="stroke:#000000;stroke-width:1;"/></g><!--link N3_4 to N3_5--><g class="link" data-entity-1="N3_4" data-entity-2="N3_5" data-source-line="52" data-uid="lnk35" id="link_N3_4_N3_5"><path d="M796,610.18 C796,628.6 796,656.88 796,679.5" fill="none" id="N3_4-N3_5" style="stroke:#000000;stroke-width:1;"/></g><!--link N2_1 to N2_2--><g class="link" data-entity-1="N2_1" data-entity-2="N2_2" data-source-line="61" data-uid="lnk42" id="link_N2_1_N2_2"><path d="M558,298.51 C558,321.06 558,349.23 558,367.65" fill="none" id="N2_1-N2_2" style="stroke:#000000;stroke-width:1;"/></g><!--link N2_2 to N2_3--><g class="link" data-entity-1="N2_2" data-entity-2="N2_3" data-source-line="62" data-uid="lnk43" id="link_N2_2_N2_3"><path d="M558,408.09 C558,425.62 558,451.46 558,468.97" fill="none" id="N2_2-N2_3" style="stroke:#000000;stroke-width:1;"/></g><!--link N2_3 to N2_4--><g class="link" data-entity-1="N2_3" data-entity-2="N2_4" data-source-line="63" data-uid="lnk44" id="link_N2_3_N2_4"><path d="M558,509.09 C558,526.62 558,552.46 558,569.97" fill="none" id="N2_3-N2_4" style="stroke:#000000;stroke-width:1;"/></g><!--link N2_4 to N2_5--><g class="link" data-entity-1="N2_4" data-entity-2="N2_5" data-source-line="64" data-uid="lnk45" id="link_N2_4_N2_5"><path d="M558,610.18 C558,628.6 558,656.88 558,679.5" fill="none" id="N2_4-N2_5" style="stroke:#000000;stroke-width:1;"/></g><!--link N1_1 to N1_2--><g class="link" data-entity-1="N1_1" data-entity-2="N1_2" data-source-line="73" data-uid="lnk52" id="link_N1_1_N1_2"><path d="M322,307.1 C322,327.89 322,351.55 322,367.69" fill="none" id="N1_1-N1_2" style="stroke:#000000;stroke-width:1;"/></g><!--link N1_2 to N1_3--><g class="link" data-entity-1="N1_2" data-entity-2="N1_3" data-source-line="74" data-uid="lnk53" id="link_N1_2_N1_3"><path d="M322,408.09 C322,425.62 322,451.46 322,468.97" fill="none" id="N1_2-N1_3" style="stroke:#000000;stroke-width:1;"/></g><!--link N1_3 to N1_4--><g class="link" data-entity-1="N1_3" data-entity-2="N1_4" data-source-line="75" data-uid="lnk54" id="link_N1_3_N1_4"><path d="M322,509.09 C322,526.62 322,552.46 322,569.97" fill="none" id="N1_3-N1_4" style="stroke:#000000;stroke-width:1;"/></g><!--link N1_4 to N1_5--><g class="link" data-entity-1="N1_4" data-entity-2="N1_5" data-source-line="76" data-uid="lnk55" id="link_N1_4_N1_5"><path d="M322,610.18 C322,626.35 322,650.11 322,670.98" fill="none" id="N1_4-N1_5" style="stroke:#000000;stroke-width:1;"/></g><!--link GMN56 to N1--><g class="link" data-entity-1="GMN56" data-entity-2="N1" data-source-line="79" data-uid="lnk58" id="link_GMN56_N1"><path d="M169.1,261.5 C178.345,261.5 187.59,261.5 196.8338,261.5 C201.4556,261.5 206.0772,261.5 210.6983,261.5 C211.8536,261.5 213.0088,261.5 214.164,261.5 C214.7416,261.5 215.3192,261.5 215.8968,261.5 C216.1856,261.5 216.4744,261.5 216.7632,261.5 C216.8354,261.5 216.9076,261.5 216.9798,261.5" fill="none" id="GMN56-N1" style="stroke:#000000;stroke-width:1;stroke-dasharray:7,7;"/></g><!--link cmd1 to N1--><g class="link" data-entity-1="cmd1" data-entity-2="N1" data-source-line="81" data-uid="lnk59" id="link_cmd1_N1"><path d="M97.83,52.09 C101.14,67.3 108.2,87.82 123,99 C145.87,116.28 165.57,87.96 187,107 C199.9325,118.485 208.8013,133.6138 214.8231,149.8972 C216.3286,153.968 217.6561,158.1111 218.8248,162.2874 C219.1169,163.3315 219.3991,164.3776 219.6717,165.4252 C219.808,165.9491 218.4826,160.6534 218.6141,161.1779" fill="none" id="cmd1-to-N1" style="stroke:#000000;stroke-width:1;"/><polygon fill="#000000" points="220.0734,166.9977,221.7643,157.2951,218.8573,162.1479,214.0045,159.2409,220.0734,166.9977" style="stroke:#000000;stroke-width:1;"/><text fill="#000000" font-family="Verdana" font-size="13" lengthAdjust="spacing" textLength="88.8291" x="124" y="96.0698">client request</text></g><!--link cmd2 to N1--><g class="link" data-entity-1="cmd2" data-entity-2="N1" data-source-line="82" data-uid="lnk60" id="link_cmd2_N1"><path d="M223.56,52.07 C222.95,61.13 222.3,72.12 222,82 C221.4025,101.5175 221.2806,122.2394 221.4366,142.3908 C221.4755,147.4286 221.5319,152.4308 221.6025,157.3696 C221.6378,159.839 221.6767,162.2926 221.7188,164.7269 C221.7293,165.3354 221.632,159.9437 221.6429,160.5498" fill="none" id="cmd2-to-N1" style="stroke:#000000;stroke-width:1;"/><polygon fill="#000000" points="221.7509,166.5489,225.5883,157.4783,221.6609,161.5497,217.5896,157.6223,221.7509,166.5489" style="stroke:#000000;stroke-width:1;"/><text fill="#000000" font-family="Verdana" font-size="13" lengthAdjust="spacing" textLength="88.8291" x="223" y="96.0698">client request</text></g><!--link cmd3 to N1--><g class="link" data-entity-1="cmd3" data-entity-2="N1" data-source-line="83" data-uid="lnk61" id="link_cmd3_N1"><path d="M349.14,52.06 C343.34,67.47 332.84,88.28 316,99 C300.37,108.95 245.81,93.61 233,107 C209.755,131.295 207.455,168.86 211.1125,200.7463 C212.0269,208.7178 213.3136,216.3345 214.7385,223.3001 C215.4509,226.7829 214.7917,224.2701 215.5439,227.3904" fill="none" id="cmd3-to-N1" style="stroke:#000000;stroke-width:1;"/><polygon fill="#000000" points="216.9502,233.2233,218.7294,223.5365,215.7783,228.3626,210.9523,225.4114,216.9502,233.2233" style="stroke:#000000;stroke-width:1;"/><text fill="#000000" font-family="Verdana" font-size="13" lengthAdjust="spacing" textLength="88.8291" x="333" y="96.0698">client request</text></g><!--SRC=[bPLFYzim4CNl_XHJvzezI2DV5b9ejhGKmXxQNagsBC9Ml6PbALKK6hFakzToFFddP6txO8QdDvFdtq3qmR-eKi5Aoy94qVgrC2lfP0bEfLwQN2juYw1-PZ9zpPtTcEp1QkjWNkGl_hVIslxRdrkNARS_-w6oQ7SwpDZitJaplL6TAJDTMyCSwNonbAc7U3lbCSWrf6N6JkHgoaZcP_B1ZL5q_A3OoQMFspnDjFYnVYUm-6h3zoZtf-bxJ5fFU8vZvpQVBfuCm7RAFiAJ8VCpksB-fLpPfgiT_8hZmPPbuR-RJ6sFHhnY_BnQwUh29wxuVdhfrVGj98JjFJGPTzIGD0sxvXqYmzsNksEoK922f20fWXH1IX9TC1GTXc8CGz7BK0nbA0Oo56CPYdE6WXXIib2GWgGWAO8KGKg78NOOuXY6sCiGXpB4WGnnB4CyPuZ4a9A5WXGa1KaHf0XIEWnvXo4Vmv3tCkH36VA13FbOXloS8IU6b2mKf20fI8eWHP3IOSXWCLSoEn1aVGHvI0TGxGlggdDDcZ_vRqufSmih9pU7oScjSXkle0Ri6N-2-j0ZUdekiBSV1bLRxcXEqfdJReFHDXXjWz4s66s3qJOOROFHDkh9uU8prYlGQkd1BWF_YGu_bZjPmJsa3Gp0ff0cMqTHk1R3W4_1N3jqeOolR_A_6xNsuPI_UugtJ_y3]--></g></svg>