<svg xmlns="http://www.w3.org/2000/svg" xmlns:xlink="http://www.w3.org/1999/xlink" contentStyleType="text/css" data-diagram-type="DESCRIPTION" height="1090px" preserveAspectRatio="none" style="width:1317px;height:1090px;background:#FFFFFF;" version="1.1" viewBox="0 0 1317 1090" width="1317px" zoomAndPan="magnify"><defs/><g><!--cluster raft--><g class="cluster" data-entity="raft" data-source-line="13" data-uid="ent0002" id="cluster_raft"><rect fill="#FFFFE0" height="1033" rx="2.5" ry="2.5" style="stroke:#FF0000;stroke-width:1;" width="1299" x="12" y="51.99"/><text fill="#000000" font-family="Verdana" font-size="14" font-weight="bold" lengthAdjust="spacing" textLength="28.6016" x="647.1992" y="68.0652">raft</text></g><!--cluster N5--><g class="cluster" data-entity="N5" data-source-line="14" data-uid="ent0003" id="cluster_N5"><polygon fill="#ADD8E6" points="557,349.99,567,339.99,771,339.99,771,1042.99,761,1052.99,557,1052.99,557,349.99" style="stroke:#000000;stroke-width:1;"/><line style="stroke:#000000;stroke-width:1;" x1="761" x2="771" y1="349.99" y2="339.99"/><line style="stroke:#000000;stroke-width:1;" x1="557" x2="761" y1="349.99" y2="349.99"/><line style="stroke:#000000;stroke-width:1;" x1="761" x2="761" y1="349.99" y2="1052.99"/><text fill="#000000" font-family="Verdana" font-size="14" font-weight="bold" lengthAdjust="spacing" textLength="138.373" x="590.8135" y="367.0652">Node5 [Follower]</text></g><!--cluster N4--><g class="cluster" data-entity="N4" data-source-line="26" data-uid="ent0013" id="cluster_N4"><polygon fill="#ADD8E6" points="811,349.99,821,339.99,1025,339.99,1025,1042.99,1015,1052.99,811,1052.99,811,349.99" style="stroke:#000000;stroke-width:1;"/><line style="stroke:#000000;stroke-width:1;" x1="1015" x2="1025" y1="349.99" y2="339.99"/><line style="stroke:#000000;stroke-width:1;" x1="811" x2="1015" y1="349.99" y2="349.99"/><line style="stroke:#000000;stroke-width:1;" x1="1015" x2="1015" y1="349.99" y2="1052.99"/><text fill="#000000" font-family="Verdana" font-size="14" font-weight="bold" lengthAdjust="spacing" textLength="138.373" x="844.8135" y="367.0652">Node4 [Follower]</text></g><!--cluster N3--><g class="cluster" data-entity="N3" data-source-line="38" data-uid="ent0023" id="cluster_N3"><polygon fill="#90EE90" points="1065,358.49,1075,348.49,1279,348.49,1279,1034.49,1269,1044.49,1065,1044.49,1065,358.49" style="stroke:#000000;stroke-width:1;"/><line style="stroke:#000000;stroke-width:1;" x1="1269" x2="1279" y1="358.49" y2="348.49"/><line style="stroke:#000000;stroke-width:1;" x1="1065" x2="1269" y1="358.49" y2="358.49"/><line style="stroke:#000000;stroke-width:1;" x1="1269" x2="1269" y1="358.49" y2="1044.49"/><text fill="#000000" font-family="Verdana" font-size="14" font-weight="bold" lengthAdjust="spacing" textLength="138.373" x="1098.8135" y="375.5652">Node3 [Follower]</text></g><!--cluster N2--><g class="cluster" data-entity="N2" data-source-line="50" data-uid="ent0033" id="cluster_N2"><polygon fill="#ADD8E6" points="315,113.99,325,103.99,517,103.99,517,872.99,507,882.99,315,882.99,315,113.99" style="stroke:#000000;stroke-width:1;"/><line style="stroke:#000000;stroke-width:1;" x1="507" x2="517" y1="113.99" y2="103.99"/><line style="stroke:#000000;stroke-width:1;" x1="315" x2="507" y1="113.99" y2="113.99"/><line style="stroke:#000000;stroke-width:1;" x1="507" x2="507" y1="113.99" y2="882.99"/><text fill="#000000" font-family="Verdana" font-size="14" font-weight="bold" lengthAdjust="spacing" textLength="124.1201" x="349.9399" y="131.0652">Node2 [Leader]</text></g><!--cluster N1--><g class="cluster" data-entity="N1" data-source-line="62" data-uid="ent0043" id="cluster_N1"><polygon fill="#90EE90" points="44,113.99,54,103.99,275,103.99,275,872.99,265,882.99,44,882.99,44,113.99" style="stroke:#000000;stroke-width:1;"/><line style="stroke:#000000;stroke-width:1;" x1="265" x2="275" y1="113.99" y2="103.99"/><line style="stroke:#000000;stroke-width:1;" x1="44" x2="265" y1="113.99" y2="113.99"/><line style="stroke:#000000;stroke-width:1;" x1="265" x2="265" y1="113.99" y2="882.99"/><text fill="#000000" font-family="Verdana" font-size="14" font-weight="bold" lengthAdjust="spacing" textLength="155.3809" x="77.8096" y="131.0652">Node1 [Old Leader]</text></g><!--entity N5_1--><g class="entity" data-entity="N5_1" data-source-line="15" data-uid="ent0004" id="entity_N5_1"><rect fill="#FFFFFF" height="91.0586" rx="2.5" ry="2.5" style="stroke:#000000;stroke-width:1;" width="78.501" x="628.5" y="413.99"/><polygon fill="#FFFFFF" points="690.001,418.99,690.001,432.99,702.001,432.99,702.001,424.99,696.001,418.99,690.001,418.99" style="stroke:#000000;stroke-width:1;"/><line style="stroke:#000000;stroke-width:1;" x1="696.001" x2="696.001" y1="418.99" y2="424.99"/><line style="stroke:#000000;stroke-width:1;" x1="702.001" x2="696.001" y1="424.99" y2="424.99"/><text fill="#000000" font-family="Verdana" font-size="14" lengthAdjust="spacing" textLength="42.8271" x="638.5" y="441.0652">Log=[</text><text fill="#000000" font-family="Verdana" font-size="14" lengthAdjust="spacing" textLength="33.7354" x="648.3438" y="458.0798">x=2,</text><text fill="#000000" font-family="Verdana" font-size="14" lengthAdjust="spacing" textLength="33.7354" x="648.3438" y="475.0945">y=2,</text><text fill="#000000" font-family="Verdana" font-size="14" lengthAdjust="spacing" textLength="6.3574" x="638.5" y="492.1091">]</text></g><!--entity N5_2--><g class="entity" data-entity="N5_2" data-source-line="16" data-uid="ent0005" id="entity_N5_2"><rect fill="#FFFFFF" height="40.0146" rx="2.5" ry="2.5" style="stroke:#000000;stroke-width:1;" width="86.916" x="624.5" y="565.99"/><polygon fill="#FFFFFF" points="694.416,570.99,694.416,584.99,706.416,584.99,706.416,576.99,700.416,570.99,694.416,570.99" style="stroke:#000000;stroke-width:1;"/><line style="stroke:#000000;stroke-width:1;" x1="700.416" x2="700.416" y1="570.99" y2="576.99"/><line style="stroke:#000000;stroke-width:1;" x1="706.416" x2="700.416" y1="576.99" y2="576.99"/><text fill="#000000" font-family="Verdana" font-size="14" lengthAdjust="spacing" textLength="56.916" x="634.5" y="593.0652">Term=3</text></g><!--entity N5_3--><g class="entity" data-entity="N5_3" data-source-line="17" data-uid="ent0006" id="entity_N5_3"><rect fill="#FFFFFF" height="40.0146" rx="2.5" ry="2.5" style="stroke:#000000;stroke-width:1;" width="145.3223" x="595.5" y="666.99"/><polygon fill="#FFFFFF" points="723.8223,671.99,723.8223,685.99,735.8223,685.99,735.8223,677.99,729.8223,671.99,723.8223,671.99" style="stroke:#000000;stroke-width:1;"/><line style="stroke:#000000;stroke-width:1;" x1="729.8223" x2="729.8223" y1="671.99" y2="677.99"/><line style="stroke:#000000;stroke-width:1;" x1="735.8223" x2="729.8223" y1="677.99" y2="677.99"/><text fill="#000000" font-family="Verdana" font-size="14" lengthAdjust="spacing" textLength="115.3223" x="605.5" y="694.0652">CommitIndex=4</text></g><!--entity N5_4--><g class="entity" data-entity="N5_4" data-source-line="18" data-uid="ent0007" id="entity_N5_4"><rect fill="#FFFFFF" height="40.0146" rx="2.5" ry="2.5" style="stroke:#000000;stroke-width:1;" width="129.5996" x="603" y="793.49"/><polygon fill="#FFFFFF" points="715.5996,798.49,715.5996,812.49,727.5996,812.49,727.5996,804.49,721.5996,798.49,715.5996,798.49" style="stroke:#000000;stroke-width:1;"/><line style="stroke:#000000;stroke-width:1;" x1="721.5996" x2="721.5996" y1="798.49" y2="804.49"/><line style="stroke:#000000;stroke-width:1;" x1="727.5996" x2="721.5996" y1="804.49" y2="804.49"/><text fill="#000000" font-family="Verdana" font-size="14" lengthAdjust="spacing" textLength="99.5996" x="613" y="820.5652">ApplyIndex=4</text></g><!--entity N5_5--><g class="entity" data-entity="N5_5" data-source-line="19" data-uid="ent0008" id="entity_N5_5"><rect fill="#FFFFFF" height="91.0586" rx="2.5" ry="2.5" style="stroke:#000000;stroke-width:1;" width="87.6953" x="624" y="937.99"/><polygon fill="#FFFFFF" points="694.6953,942.99,694.6953,956.99,706.6953,956.99,706.6953,948.99,700.6953,942.99,694.6953,942.99" style="stroke:#000000;stroke-width:1;"/><line style="stroke:#000000;stroke-width:1;" x1="700.6953" x2="700.6953" y1="942.99" y2="948.99"/><line style="stroke:#000000;stroke-width:1;" x1="706.6953" x2="700.6953" y1="948.99" y2="948.99"/><text fill="#000000" font-family="Verdana" font-size="14" lengthAdjust="spacing" textLength="57.6953" x="634" y="965.0652">State={</text><text fill="#000000" font-family="Verdana" font-size="14" lengthAdjust="spacing" textLength="33.5576" x="648.7656" y="982.0798">x: 2,</text><text fill="#000000" font-family="Verdana" font-size="14" lengthAdjust="spacing" textLength="33.5576" x="648.7656" y="999.0945">y: 2,</text><text fill="#000000" font-family="Verdana" font-size="14" lengthAdjust="spacing" textLength="8.8867" x="634" y="1016.1091">}</text></g><!--entity N4_1--><g class="entity" data-entity="N4_1" data-source-line="27" data-uid="ent0014" id="entity_N4_1"><rect fill="#FFFFFF" height="91.0586" rx="2.5" ry="2.5" style="stroke:#000000;stroke-width:1;" width="78.501" x="882.5" y="413.99"/><polygon fill="#FFFFFF" points="944.001,418.99,944.001,432.99,956.001,432.99,956.001,424.99,950.001,418.99,944.001,418.99" style="stroke:#000000;stroke-width:1;"/><line style="stroke:#000000;stroke-width:1;" x1="950.001" x2="950.001" y1="418.99" y2="424.99"/><line style="stroke:#000000;stroke-width:1;" x1="956.001" x2="950.001" y1="424.99" y2="424.99"/><text fill="#000000" font-family="Verdana" font-size="14" lengthAdjust="spacing" textLength="42.8271" x="892.5" y="441.0652">Log=[</text><text fill="#000000" font-family="Verdana" font-size="14" lengthAdjust="spacing" textLength="33.7354" x="902.3438" y="458.0798">x=2,</text><text fill="#000000" font-family="Verdana" font-size="14" lengthAdjust="spacing" textLength="33.7354" x="902.3438" y="475.0945">y=2,</text><text fill="#000000" font-family="Verdana" font-size="14" lengthAdjust="spacing" textLength="6.3574" x="892.5" y="492.1091">]</text></g><!--entity N4_2--><g class="entity" data-entity="N4_2" data-source-line="28" data-uid="ent0015" id="entity_N4_2"><rect fill="#FFFFFF" height="40.0146" rx="2.5" ry="2.5" style="stroke:#000000;stroke-width:1;" width="86.916" x="878.5" y="565.99"/><polygon fill="#FFFFFF" points="948.416,570.99,948.416,584.99,960.416,584.99,960.416,576.99,954.416,570.99,948.416,570.99" style="stroke:#000000;stroke-width:1;"/><line style="stroke:#000000;stroke-width:1;" x1="954.416" x2="954.416" y1="570.99" y2="576.99"/><line style="stroke:#000000;stroke-width:1;" x1="960.416" x2="954.416" y1="576.99" y2="576.99"/><text fill="#000000" font-family="Verdana" font-size="14" lengthAdjust="spacing" textLength="56.916" x="888.5" y="593.0652">Term=3</text></g><!--entity N4_3--><g class="entity" data-entity="N4_3" data-source-line="29" data-uid="ent0016" id="entity_N4_3"><rect fill="#FFFFFF" height="40.0146" rx="2.5" ry="2.5" style="stroke:#000000;stroke-width:1;" width="145.3223" x="849.5" y="666.99"/><polygon fill="#FFFFFF" points="977.8223,671.99,977.8223,685.99,989.8223,685.99,989.8223,677.99,983.8223,671.99,977.8223,671.99" style="stroke:#000000;stroke-width:1;"/><line style="stroke:#000000;stroke-width:1;" x1="983.8223" x2="983.8223" y1="671.99" y2="677.99"/><line style="stroke:#000000;stroke-width:1;" x1="989.8223" x2="983.8223" y1="677.99" y2="677.99"/><text fill="#000000" font-family="Verdana" font-size="14" lengthAdjust="spacing" textLength="115.3223" x="859.5" y="694.0652">CommitIndex=4</text></g><!--entity N4_4--><g class="entity" data-entity="N4_4" data-source-line="30" data-uid="ent0017" id="entity_N4_4"><rect fill="#FFFFFF" height="40.0146" rx="2.5" ry="2.5" style="stroke:#000000;stroke-width:1;" width="129.5996" x="857" y="793.49"/><polygon fill="#FFFFFF" points="969.5996,798.49,969.5996,812.49,981.5996,812.49,981.5996,804.49,975.5996,798.49,969.5996,798.49" style="stroke:#000000;stroke-width:1;"/><line style="stroke:#000000;stroke-width:1;" x1="975.5996" x2="975.5996" y1="798.49" y2="804.49"/><line style="stroke:#000000;stroke-width:1;" x1="981.5996" x2="975.5996" y1="804.49" y2="804.49"/><text fill="#000000" font-family="Verdana" font-size="14" lengthAdjust="spacing" textLength="99.5996" x="867" y="820.5652">ApplyIndex=4</text></g><!--entity N4_5--><g class="entity" data-entity="N4_5" data-source-line="31" data-uid="ent0018" id="entity_N4_5"><rect fill="#FFFFFF" height="91.0586" rx="2.5" ry="2.5" style="stroke:#000000;stroke-width:1;" width="87.6953" x="878" y="937.99"/><polygon fill="#FFFFFF" points="948.6953,942.99,948.6953,956.99,960.6953,956.99,960.6953,948.99,954.6953,942.99,948.6953,942.99" style="stroke:#000000;stroke-width:1;"/><line style="stroke:#000000;stroke-width:1;" x1="954.6953" x2="954.6953" y1="942.99" y2="948.99"/><line style="stroke:#000000;stroke-width:1;" x1="960.6953" x2="954.6953" y1="948.99" y2="948.99"/><text fill="#000000" font-family="Verdana" font-size="14" lengthAdjust="spacing" textLength="57.6953" x="888" y="965.0652">State={</text><text fill="#000000" font-family="Verdana" font-size="14" lengthAdjust="spacing" textLength="33.5576" x="902.7656" y="982.0798">x: 2,</text><text fill="#000000" font-family="Verdana" font-size="14" lengthAdjust="spacing" textLength="33.5576" x="902.7656" y="999.0945">y: 2,</text><text fill="#000000" font-family="Verdana" font-size="14" lengthAdjust="spacing" textLength="8.8867" x="888" y="1016.1091">}</text></g><!--entity N3_1--><g class="entity" data-entity="N3_1" data-source-line="39" data-uid="ent0024" id="entity_N3_1"><rect fill="#FFFFFF" height="74.0439" rx="2.5" ry="2.5" style="stroke:#000000;stroke-width:1;" width="78.501" x="1136.5" y="422.49"/><polygon fill="#FFFFFF" points="1198.001,427.49,1198.001,441.49,1210.001,441.49,1210.001,433.49,1204.001,427.49,1198.001,427.49" style="stroke:#000000;stroke-width:1;"/><line style="stroke:#000000;stroke-width:1;" x1="1204.001" x2="1204.001" y1="427.49" y2="433.49"/><line style="stroke:#000000;stroke-width:1;" x1="1210.001" x2="1204.001" y1="433.49" y2="433.49"/><text fill="#000000" font-family="Verdana" font-size="14" lengthAdjust="spacing" textLength="42.8271" x="1146.5" y="449.5652">Log=[</text><text fill="#000000" font-family="Verdana" font-size="14" lengthAdjust="spacing" textLength="33.7354" x="1156.3438" y="466.5798">x=1,</text><text fill="#000000" font-family="Verdana" font-size="14" lengthAdjust="spacing" textLength="6.3574" x="1146.5" y="483.5945">]</text></g><!--entity N3_2--><g class="entity" data-entity="N3_2" data-source-line="40" data-uid="ent0025" id="entity_N3_2"><rect fill="#FFFFFF" height="40.0146" rx="2.5" ry="2.5" style="stroke:#000000;stroke-width:1;" width="86.916" x="1132.5" y="565.99"/><polygon fill="#FFFFFF" points="1202.416,570.99,1202.416,584.99,1214.416,584.99,1214.416,576.99,1208.416,570.99,1202.416,570.99" style="stroke:#000000;stroke-width:1;"/><line style="stroke:#000000;stroke-width:1;" x1="1208.416" x2="1208.416" y1="570.99" y2="576.99"/><line style="stroke:#000000;stroke-width:1;" x1="1214.416" x2="1208.416" y1="576.99" y2="576.99"/><text fill="#000000" font-family="Verdana" font-size="14" lengthAdjust="spacing" textLength="56.916" x="1142.5" y="593.0652">Term=1</text></g><!--entity N3_3--><g class="entity" data-entity="N3_3" data-source-line="41" data-uid="ent0026" id="entity_N3_3"><rect fill="#FFFFFF" height="40.0146" rx="2.5" ry="2.5" style="stroke:#000000;stroke-width:1;" width="145.3223" x="1103.5" y="666.99"/><polygon fill="#FFFFFF" points="1231.8223,671.99,1231.8223,685.99,1243.8223,685.99,1243.8223,677.99,1237.8223,671.99,1231.8223,671.99" style="stroke:#000000;stroke-width:1;"/><line style="stroke:#000000;stroke-width:1;" x1="1237.8223" x2="1237.8223" y1="671.99" y2="677.99"/><line style="stroke:#000000;stroke-width:1;" x1="1243.8223" x2="1237.8223" y1="677.99" y2="677.99"/><text fill="#000000" font-family="Verdana" font-size="14" lengthAdjust="spacing" textLength="115.3223" x="1113.5" y="694.0652">CommitIndex=1</text></g><!--entity N3_4--><g class="entity" data-entity="N3_4" data-source-line="42" data-uid="ent0027" id="entity_N3_4"><rect fill="#FFFFFF" height="40.0146" rx="2.5" ry="2.5" style="stroke:#000000;stroke-width:1;" width="129.5996" x="1111" y="793.49"/><polygon fill="#FFFFFF" points="1223.5996,798.49,1223.5996,812.49,1235.5996,812.49,1235.5996,804.49,1229.5996,798.49,1223.5996,798.49" style="stroke:#000000;stroke-width:1;"/><line style="stroke:#000000;stroke-width:1;" x1="1229.5996" x2="1229.5996" y1="798.49" y2="804.49"/><line style="stroke:#000000;stroke-width:1;" x1="1235.5996" x2="1229.5996" y1="804.49" y2="804.49"/><text fill="#000000" font-family="Verdana" font-size="14" lengthAdjust="spacing" textLength="99.5996" x="1121" y="820.5652">ApplyIndex=1</text></g><!--entity N3_5--><g class="entity" data-entity="N3_5" data-source-line="43" data-uid="ent0028" id="entity_N3_5"><rect fill="#FFFFFF" height="74.0439" rx="2.5" ry="2.5" style="stroke:#000000;stroke-width:1;" width="87.6953" x="1132" y="946.49"/><polygon fill="#FFFFFF" points="1202.6953,951.49,1202.6953,965.49,1214.6953,965.49,1214.6953,957.49,1208.6953,951.49,1202.6953,951.49" style="stroke:#000000;stroke-width:1;"/><line style="stroke:#000000;stroke-width:1;" x1="1208.6953" x2="1208.6953" y1="951.49" y2="957.49"/><line style="stroke:#000000;stroke-width:1;" x1="1214.6953" x2="1208.6953" y1="957.49" y2="957.49"/><text fill="#000000" font-family="Verdana" font-size="14" lengthAdjust="spacing" textLength="57.6953" x="1142" y="973.5652">State={</text><text fill="#000000" font-family="Verdana" font-size="14" lengthAdjust="spacing" textLength="33.5576" x="1156.7656" y="990.5798">x: 1,</text><text fill="#000000" font-family="Verdana" font-size="14" lengthAdjust="spacing" textLength="8.8867" x="1142" y="1007.5945">}</text></g><!--entity N2_1--><g class="entity" data-entity="N2_1" data-source-line="51" data-uid="ent0034" id="entity_N2_1"><rect fill="#FFFFFF" height="91.0586" rx="2.5" ry="2.5" style="stroke:#000000;stroke-width:1;" width="78.501" x="372.5" y="177.99"/><polygon fill="#FFFFFF" points="434.001,182.99,434.001,196.99,446.001,196.99,446.001,188.99,440.001,182.99,434.001,182.99" style="stroke:#000000;stroke-width:1;"/><line style="stroke:#000000;stroke-width:1;" x1="440.001" x2="440.001" y1="182.99" y2="188.99"/><line style="stroke:#000000;stroke-width:1;" x1="446.001" x2="440.001" y1="188.99" y2="188.99"/><text fill="#000000" font-family="Verdana" font-size="14" lengthAdjust="spacing" textLength="42.8271" x="382.5" y="205.0652">Log=[</text><text fill="#000000" font-family="Verdana" font-size="14" lengthAdjust="spacing" textLength="33.7354" x="392.3438" y="222.0798">x=2,</text><text fill="#000000" font-family="Verdana" font-size="14" lengthAdjust="spacing" textLength="33.7354" x="392.3438" y="239.0945">y=2,</text><text fill="#000000" font-family="Verdana" font-size="14" lengthAdjust="spacing" textLength="6.3574" x="382.5" y="256.1091">]</text></g><!--entity N2_2--><g class="entity" data-entity="N2_2" data-source-line="52" data-uid="ent0035" id="entity_N2_2"><rect fill="#FFFFFF" height="40.0146" rx="2.5" ry="2.5" style="stroke:#000000;stroke-width:1;" width="86.916" x="368.5" y="439.49"/><polygon fill="#FFFFFF" points="438.416,444.49,438.416,458.49,450.416,458.49,450.416,450.49,444.416,444.49,438.416,444.49" style="stroke:#000000;stroke-width:1;"/><line style="stroke:#000000;stroke-width:1;" x1="444.416" x2="444.416" y1="444.49" y2="450.49"/><line style="stroke:#000000;stroke-width:1;" x1="450.416" x2="444.416" y1="450.49" y2="450.49"/><text fill="#000000" font-family="Verdana" font-size="14" lengthAdjust="spacing" textLength="56.916" x="378.5" y="466.5652">Term=3</text></g><!--entity N2_3--><g class="entity" data-entity="N2_3" data-source-line="53" data-uid="ent0036" id="entity_N2_3"><rect fill="#FFFFFF" height="40.0146" rx="2.5" ry="2.5" style="stroke:#000000;stroke-width:1;" width="145.3223" x="339.5" y="565.99"/><polygon fill="#FFFFFF" points="467.8223,570.99,467.8223,584.99,479.8223,584.99,479.8223,576.99,473.8223,570.99,467.8223,570.99" style="stroke:#000000;stroke-width:1;"/><line style="stroke:#000000;stroke-width:1;" x1="473.8223" x2="473.8223" y1="570.99" y2="576.99"/><line style="stroke:#000000;stroke-width:1;" x1="479.8223" x2="473.8223" y1="576.99" y2="576.99"/><text fill="#000000" font-family="Verdana" font-size="14" lengthAdjust="spacing" textLength="115.3223" x="349.5" y="593.0652">CommitIndex=4</text></g><!--entity N2_4--><g class="entity" data-entity="N2_4" data-source-line="54" data-uid="ent0037" id="entity_N2_4"><rect fill="#FFFFFF" height="40.0146" rx="2.5" ry="2.5" style="stroke:#000000;stroke-width:1;" width="129.5996" x="347" y="666.99"/><polygon fill="#FFFFFF" points="459.5996,671.99,459.5996,685.99,471.5996,685.99,471.5996,677.99,465.5996,671.99,459.5996,671.99" style="stroke:#000000;stroke-width:1;"/><line style="stroke:#000000;stroke-width:1;" x1="465.5996" x2="465.5996" y1="671.99" y2="677.99"/><line style="stroke:#000000;stroke-width:1;" x1="471.5996" x2="465.5996" y1="677.99" y2="677.99"/><text fill="#000000" font-family="Verdana" font-size="14" lengthAdjust="spacing" textLength="99.5996" x="357" y="694.0652">ApplyIndex=4</text></g><!--entity N2_5--><g class="entity" data-entity="N2_5" data-source-line="55" data-uid="ent0038" id="entity_N2_5"><rect fill="#FFFFFF" height="91.0586" rx="2.5" ry="2.5" style="stroke:#000000;stroke-width:1;" width="87.6953" x="368" y="767.99"/><polygon fill="#FFFFFF" points="438.6953,772.99,438.6953,786.99,450.6953,786.99,450.6953,778.99,444.6953,772.99,438.6953,772.99" style="stroke:#000000;stroke-width:1;"/><line style="stroke:#000000;stroke-width:1;" x1="444.6953" x2="444.6953" y1="772.99" y2="778.99"/><line style="stroke:#000000;stroke-width:1;" x1="450.6953" x2="444.6953" y1="778.99" y2="778.99"/><text fill="#000000" font-family="Verdana" font-size="14" lengthAdjust="spacing" textLength="57.6953" x="378" y="795.0652">State={</text><text fill="#000000" font-family="Verdana" font-size="14" lengthAdjust="spacing" textLength="33.5576" x="392.7656" y="812.0798">x: 2,</text><text fill="#000000" font-family="Verdana" font-size="14" lengthAdjust="spacing" textLength="33.5576" x="392.7656" y="829.0945">y: 2,</text><text fill="#000000" font-family="Verdana" font-size="14" lengthAdjust="spacing" textLength="8.8867" x="378" y="846.1091">}</text></g><!--entity N1_1--><g class="entity" data-entity="N1_1" data-source-line="63" data-uid="ent0044" id="entity_N1_1"><rect fill="#D3D3D3" height="91.0586" rx="2.5" ry="2.5" style="stroke:#000000;stroke-width:1;" width="78.501" x="138.5" y="177.99"/><polygon fill="#D3D3D3" points="200.001,182.99,200.001,196.99,212.001,196.99,212.001,188.99,206.001,182.99,200.001,182.99" style="stroke:#000000;stroke-width:1;"/><line style="stroke:#000000;stroke-width:1;" x1="206.001" x2="206.001" y1="182.99" y2="188.99"/><line style="stroke:#000000;stroke-width:1;" x1="212.001" x2="206.001" y1="188.99" y2="188.99"/><text fill="#000000" font-family="Verdana" font-size="14" lengthAdjust="spacing" textLength="42.8271" x="148.5" y="205.0652">Log=[</text><text fill="#000000" font-family="Verdana" font-size="14" lengthAdjust="spacing" textLength="33.7354" x="158.3438" y="222.0798">x=9,</text><text fill="#000000" font-family="Verdana" font-size="14" lengthAdjust="spacing" textLength="33.7354" x="158.3438" y="239.0945">y=2,</text><text fill="#000000" font-family="Verdana" font-size="14" lengthAdjust="spacing" textLength="6.3574" x="148.5" y="256.1091">]</text></g><!--entity N1_2--><g class="entity" data-entity="N1_2" data-source-line="64" data-uid="ent0045" id="entity_N1_2"><rect fill="#D3D3D3" height="40.0146" rx="2.5" ry="2.5" style="stroke:#000000;stroke-width:1;" width="86.916" x="134.5" y="439.49"/><polygon fill="#D3D3D3" points="204.416,444.49,204.416,458.49,216.416,458.49,216.416,450.49,210.416,444.49,204.416,444.49" style="stroke:#000000;stroke-width:1;"/><line style="stroke:#000000;stroke-width:1;" x1="210.416" x2="210.416" y1="444.49" y2="450.49"/><line style="stroke:#000000;stroke-width:1;" x1="216.416" x2="210.416" y1="450.49" y2="450.49"/><text fill="#000000" font-family="Verdana" font-size="14" lengthAdjust="spacing" textLength="56.916" x="144.5" y="466.5652">Term=2</text></g><!--entity N1_3--><g class="entity" data-entity="N1_3" data-source-line="65" data-uid="ent0046" id="entity_N1_3"><rect fill="#FF0000" height="40.0146" rx="2.5" ry="2.5" style="stroke:#000000;stroke-width:1;" width="145.3223" x="105.5" y="565.99"/><polygon fill="#FF0000" points="233.8223,570.99,233.8223,584.99,245.8223,584.99,245.8223,576.99,239.8223,570.99,233.8223,570.99" style="stroke:#000000;stroke-width:1;"/><line style="stroke:#000000;stroke-width:1;" x1="239.8223" x2="239.8223" y1="570.99" y2="576.99"/><line style="stroke:#000000;stroke-width:1;" x1="245.8223" x2="239.8223" y1="576.99" y2="576.99"/><text fill="#000000" font-family="Verdana" font-size="14" lengthAdjust="spacing" textLength="115.3223" x="115.5" y="593.0652">CommitIndex=4</text></g><!--entity N1_4--><g class="entity" data-entity="N1_4" data-source-line="66" data-uid="ent0047" id="entity_N1_4"><rect fill="#FF0000" height="40.0146" rx="2.5" ry="2.5" style="stroke:#000000;stroke-width:1;" width="129.5996" x="113" y="666.99"/><polygon fill="#FF0000" points="225.5996,671.99,225.5996,685.99,237.5996,685.99,237.5996,677.99,231.5996,671.99,225.5996,671.99" style="stroke:#000000;stroke-width:1;"/><line style="stroke:#000000;stroke-width:1;" x1="231.5996" x2="231.5996" y1="671.99" y2="677.99"/><line style="stroke:#000000;stroke-width:1;" x1="237.5996" x2="231.5996" y1="677.99" y2="677.99"/><text fill="#000000" font-family="Verdana" font-size="14" lengthAdjust="spacing" textLength="99.5996" x="123" y="694.0652">ApplyIndex=4</text></g><!--entity N1_5--><g class="entity" data-entity="N1_5" data-source-line="67" data-uid="ent0048" id="entity_N1_5"><rect fill="#FF0000" height="91.0586" rx="2.5" ry="2.5" style="stroke:#000000;stroke-width:1;" width="87.6953" x="134" y="767.99"/><polygon fill="#FF0000" points="204.6953,772.99,204.6953,786.99,216.6953,786.99,216.6953,778.99,210.6953,772.99,204.6953,772.99" style="stroke:#000000;stroke-width:1;"/><line style="stroke:#000000;stroke-width:1;" x1="210.6953" x2="210.6953" y1="772.99" y2="778.99"/><line style="stroke:#000000;stroke-width:1;" x1="216.6953" x2="210.6953" y1="778.99" y2="778.99"/><text fill="#000000" font-family="Verdana" font-size="14" lengthAdjust="spacing" textLength="57.6953" x="144" y="795.0652">State={</text><text fill="#000000" font-family="Verdana" font-size="14" lengthAdjust="spacing" textLength="33.5576" x="158.7656" y="812.0798">x: 2,</text><text fill="#000000" font-family="Verdana" font-size="14" lengthAdjust="spacing" textLength="33.5576" x="158.7656" y="829.0945">y: 2,</text><text fill="#000000" font-family="Verdana" font-size="14" lengthAdjust="spacing" textLength="8.8867" x="144" y="846.1091">}</text></g><!--link N5_1 to N5_2--><g class="link" data-entity-1="N5_1" data-entity-2="N5_2" data-source-line="21" data-uid="lnk9" id="link_N5_1_N5_2"><path d="M668,505.09 C668,525.88 668,549.54 668,565.68" fill="none" id="N5_1-N5_2" style="stroke:#000000;stroke-width:1;"/></g><!--link N5_2 to N5_3--><g class="link" data-entity-1="N5_2" data-entity-2="N5_3" data-source-line="22" data-uid="lnk10" id="link_N5_2_N5_3"><path d="M668,606.08 C668,623.61 668,649.45 668,666.96" fill="none" id="N5_2-N5_3" style="stroke:#000000;stroke-width:1;"/></g><!--link N5_3 to N5_4--><g class="link" data-entity-1="N5_3" data-entity-2="N5_4" data-source-line="23" data-uid="lnk11" id="link_N5_3_N5_4"><path d="M668,707.17 C668,730.5 668,769.65 668,793.08" fill="none" id="N5_3-N5_4" style="stroke:#000000;stroke-width:1;"/></g><!--link N5_4 to N5_5--><g class="link" data-entity-1="N5_4" data-entity-2="N5_5" data-source-line="24" data-uid="lnk12" id="link_N5_4_N5_5"><path d="M668,833.76 C668,858.93 668,903.76 668,937.65" fill="none" id="N5_4-N5_5" style="stroke:#000000;stroke-width:1;"/></g><!--link N4_1 to N4_2--><g class="link" data-entity-1="N4_1" data-entity-2="N4_2" data-source-line="33" data-uid="lnk19" id="link_N4_1_N4_2"><path d="M922,505.09 C922,525.88 922,549.54 922,565.68" fill="none" id="N4_1-N4_2" style="stroke:#000000;stroke-width:1;"/></g><!--link N4_2 to N4_3--><g class="link" data-entity-1="N4_2" data-entity-2="N4_3" data-source-line="34" data-uid="lnk20" id="link_N4_2_N4_3"><path d="M922,606.08 C922,623.61 922,649.45 922,666.96" fill="none" id="N4_2-N4_3" style="stroke:#000000;stroke-width:1;"/></g><!--link N4_3 to N4_4--><g class="link" data-entity-1="N4_3" data-entity-2="N4_4" data-source-line="35" data-uid="lnk21" id="link_N4_3_N4_4"><path d="M922,707.17 C922,730.5 922,769.65 922,793.08" fill="none" id="N4_3-N4_4" style="stroke:#000000;stroke-width:1;"/></g><!--link N4_4 to N4_5--><g class="link" data-entity-1="N4_4" data-entity-2="N4_5" data-source-line="36" data-uid="lnk22" id="link_N4_4_N4_5"><path d="M922,833.76 C922,858.93 922,903.76 922,937.65" fill="none" id="N4_4-N4_5" style="stroke:#000000;stroke-width:1;"/></g><!--link N3_1 to N3_2--><g class="link" data-entity-1="N3_1" data-entity-2="N3_2" data-source-line="45" data-uid="lnk29" id="link_N3_1_N3_2"><path d="M1176,496.5 C1176,519.05 1176,547.22 1176,565.64" fill="none" id="N3_1-N3_2" style="stroke:#000000;stroke-width:1;"/></g><!--link N3_2 to N3_3--><g class="link" data-entity-1="N3_2" data-entity-2="N3_3" data-source-line="46" data-uid="lnk30" id="link_N3_2_N3_3"><path d="M1176,606.08 C1176,623.61 1176,649.45 1176,666.96" fill="none" id="N3_2-N3_3" style="stroke:#000000;stroke-width:1;"/></g><!--link N3_3 to N3_4--><g class="link" data-entity-1="N3_3" data-entity-2="N3_4" data-source-line="47" data-uid="lnk31" id="link_N3_3_N3_4"><path d="M1176,707.17 C1176,730.5 1176,769.65 1176,793.08" fill="none" id="N3_3-N3_4" style="stroke:#000000;stroke-width:1;"/></g><!--link N3_4 to N3_5--><g class="link" data-entity-1="N3_4" data-entity-2="N3_5" data-source-line="48" data-uid="lnk32" id="link_N3_4_N3_5"><path d="M1176,833.76 C1176,861.17 1176,911.9 1176,946.42" fill="none" id="N3_4-N3_5" style="stroke:#000000;stroke-width:1;"/></g><!--link N2_1 to N2_2--><g class="link" data-entity-1="N2_1" data-entity-2="N2_2" data-source-line="57" data-uid="lnk39" id="link_N2_1_N2_2"><path d="M412,269.05 C412,320.37 412,402.34 412,439.31" fill="none" id="N2_1-N2_2" style="stroke:#000000;stroke-width:1;"/></g><!--link N2_2 to N2_3--><g class="link" data-entity-1="N2_2" data-entity-2="N2_3" data-source-line="58" data-uid="lnk40" id="link_N2_2_N2_3"><path d="M412,479.67 C412,503 412,542.15 412,565.58" fill="none" id="N2_2-N2_3" style="stroke:#000000;stroke-width:1;"/></g><!--link N2_3 to N2_4--><g class="link" data-entity-1="N2_3" data-entity-2="N2_4" data-source-line="59" data-uid="lnk41" id="link_N2_3_N2_4"><path d="M412,606.08 C412,623.61 412,649.45 412,666.96" fill="none" id="N2_3-N2_4" style="stroke:#000000;stroke-width:1;"/></g><!--link N2_4 to N2_5--><g class="link" data-entity-1="N2_4" data-entity-2="N2_5" data-source-line="60" data-uid="lnk42" id="link_N2_4_N2_5"><path d="M412,707.17 C412,723.34 412,747.1 412,767.97" fill="none" id="N2_4-N2_5" style="stroke:#000000;stroke-width:1;"/></g><!--link N1_1 to N1_2--><g class="link" data-entity-1="N1_1" data-entity-2="N1_2" data-source-line="69" data-uid="lnk49" id="link_N1_1_N1_2"><path d="M178,269.05 C178,320.37 178,402.34 178,439.31" fill="none" id="N1_1-N1_2" style="stroke:#000000;stroke-width:1;"/></g><!--link N1_2 to N1_3--><g class="link" data-entity-1="N1_2" data-entity-2="N1_3" data-source-line="70" data-uid="lnk50" id="link_N1_2_N1_3"><path d="M178,479.67 C178,503 178,542.15 178,565.58" fill="none" id="N1_2-N1_3" style="stroke:#000000;stroke-width:1;"/></g><!--link N1_3 to N1_4--><g class="link" data-entity-1="N1_3" data-entity-2="N1_4" data-source-line="71" data-uid="lnk51" id="link_N1_3_N1_4"><path d="M178,606.08 C178,623.61 178,649.45 178,666.96" fill="none" id="N1_3-N1_4" style="stroke:#000000;stroke-width:1;"/></g><!--link N1_4 to N1_5--><g class="link" data-entity-1="N1_4" data-entity-2="N1_5" data-source-line="72" data-uid="lnk52" id="link_N1_4_N1_5"><path d="M178,707.17 C178,723.34 178,747.1 178,767.97" fill="none" id="N1_4-N1_5" style="stroke:#000000;stroke-width:1;"/></g><!--reverse link N1 to N2--><g class="link" data-entity-1="N1" data-entity-2="N2" data-source-line="75" data-uid="lnk54" id="link_N1_N2"><path d="M72.5079,98.1481 C73.7437,94.495 73.5649,95.958 75.2933,92.5454 C78.75,85.72 83.2463,79.4438 89,73.99 C155.45,11 434.55,11 501,73.99 C524.015,95.805 526.91,130.78 523.635,161.4175 C522.8163,169.0769 521.6119,176.4652 520.2398,183.3089 C519.5538,186.7308 518.8259,190.0166 518.0833,193.1321 C517.8977,193.911 517.7111,194.6792 517.524,195.4362 C517.4305,195.8147 517.3368,196.1905 517.2431,196.5633 C517.1963,196.7498 517.1494,196.9355 517.1025,197.1205" fill="none" id="N1-backto-N2" style="stroke:#000000;stroke-width:1;"/><polygon fill="#000000" points="70.6316,103.8472,77.2454,96.5494,72.1952,99.0979,69.6466,94.0477,70.6316,103.8472" style="stroke:#000000;stroke-width:1;"/><text fill="#000000" font-family="Verdana" font-size="13" lengthAdjust="spacing" textLength="91.5522" x="249.5" y="33.0598">force rpc sync</text></g><!--link N2 to N3--><g class="link" data-entity-1="N2" data-entity-2="N3" data-source-line="76" data-uid="lnk55" id="link_N2_N3"><path d="M517.5603,225.1377 C518.569,225.2161 519.6617,225.3017 520.8358,225.3947 C523.1839,225.5805 525.8574,225.7955 528.8344,226.04 C540.7422,227.0182 557.5051,228.4689 577.7189,230.4153 C618.1466,234.3081 672.3781,240.1837 729.1813,248.2275 C842.7875,264.315 966.68,289.075 1011,323.99 C1036.45,344.04 1051.8675,376.935 1060.9625,405.1738 C1062.0994,408.7036 1063.1375,412.1607 1064.084,415.5108 C1064.3206,416.3484 1064.5516,417.1792 1064.7769,418.0029 C1064.8332,418.2088 1063.3179,412.6236 1063.3735,412.8286" fill="none" id="N2-to-N3" style="stroke:#000000;stroke-width:1;"/><polygon fill="#000000" points="1064.9448,418.6192,1066.4482,408.8858,1063.6354,413.7937,1058.7274,410.9809,1064.9448,418.6192" style="stroke:#000000;stroke-width:1;"/><text fill="#000000" font-family="Verdana" font-size="13" lengthAdjust="spacing" textLength="95.0562" x="999" y="313.0598">rpc batch sync</text></g><!--link N2 to N4--><g class="link" data-entity-1="N2" data-entity-2="N4" data-source-line="77" data-uid="lnk56" id="link_N2_N4"><path d="M517.2493,225.5657 C517.4005,225.5873 517.5537,225.6092 517.7088,225.6315 C522.672,226.3448 529.5878,227.423 538.0131,228.9528 C554.8638,232.0125 577.7525,236.8788 603.135,244.245 C653.9,258.9775 714.64,283.71 757,323.99 C780.48,346.315 795.8675,379.245 805.44,406.9337 C806.6366,410.3948 807.7423,413.774 808.7616,417.0404 C809.2712,418.6736 809.7592,420.2785 810.2262,421.8514 C810.4597,422.6379 809.0184,417.6533 809.2415,418.4232" fill="none" id="N2-to-N4" style="stroke:#000000;stroke-width:1;"/><polygon fill="#000000" points="810.911,424.1862,812.2487,414.4286,809.5197,419.3837,804.5647,416.6547,810.911,424.1862" style="stroke:#000000;stroke-width:1;"/><text fill="#000000" font-family="Verdana" font-size="13" lengthAdjust="spacing" textLength="54.4565" x="747" y="313.0598">rpc sync</text></g><!--link N2 to N5--><g class="link" data-entity-1="N2" data-entity-2="N5" data-source-line="78" data-uid="lnk57" id="link_N2_N5"><path d="M517.1621,258.5945 C517.2402,258.9207 517.3187,259.2486 517.3976,259.5783 C517.5554,260.2377 517.7149,260.9041 517.8759,261.5772 C523.0306,283.1169 529.8413,311.5763 536.6775,340.1425 C543.5138,368.7088 550.3756,397.3819 555.6328,419.3491 C555.9614,420.722 556.2837,422.0688 556.5993,423.3877 C556.6782,423.7174 556.7567,424.0454 556.8348,424.3716 C556.8738,424.5347 555.5163,418.8621 555.5551,419.0244" fill="none" id="N2-to-N5" style="stroke:#000000;stroke-width:1;"/><polygon fill="#000000" points="556.9516,424.8596,558.747,415.1758,555.7878,419.9969,550.9667,417.0377,556.9516,424.8596" style="stroke:#000000;stroke-width:1;"/><text fill="#000000" font-family="Verdana" font-size="13" lengthAdjust="spacing" textLength="54.4565" x="532" y="313.0598">rpc sync</text></g><!--SRC=[fPN1Yjim48RlUOgfzzeS98qFNN2XsQLG25jeUobf2QgjE6PbooXQ6hFatMibdYIEdRMxwuCP_larZBuPutTkhN85fPPPCPbi7hEYb5RcO5NiP95g1SyJg9-PZ1zJQvwAvCveOs6UfMltKsbj_XxonYRA7dBVL3BPdHShJF9YdPb-KfqgCrrRVPrJAu6LAnSqbVP5WuVw7SBYi_6TAFix0Bc1Xx3n-4TQbwrax22OcpHQ_2e0jX5_3pwe3W6TMhAUKp-KpID13jxZk3DvdhalHQAs4P9Hz1W_bQMkBdpOu_lkf5FHi-yGjhVGD0jL4-xeRBW_kzk_VVSmlP-UclG1AO8KGGgIWgI4amkksE6Ah-AAWrnnB5SSoHNVm1NRN96uKfC-84MG8aX1Kf2K3bVHuIhWHliF8RLA5KECsHbQSHqj8ySGsgDn0EtHDm8jE-CfsZm5yQJEV42A84MGWgGWAHsU71Pp9PCZJVwgBUM3Myh7RYaVkQNy3LlAsrGvKQKcVK2A84MGWgGWAHsg31PVTG8jikn_zlH37sMsFDMGrJNWdCpyPNCFUrPVyiRMVw0n0s3r_Q-Onqs1BSDJWMOKZ4R1Q1ICHi5e58n6mMWKZ4PHb_H_lNgBf_FfHy_y5bR6nWfi6SEcAk9zxjxdH9tpwX_fulL53fjSMmtFrNy0]--></g></svg>