<svg xmlns="http://www.w3.org/2000/svg" xmlns:xlink="http://www.w3.org/1999/xlink" contentStyleType="text/css" data-diagram-type="SEQUENCE" height="730px" preserveAspectRatio="none" style="width:451px;height:730px;background:#FFFFFF;" version="1.1" viewBox="0 0 451 730" width="451px" zoomAndPan="magnify"><title>&#20195;&#29702;&#26381;&#21153;&#20132;&#20114;</title><defs/><g><text fill="#000000" font-family="sans-serif" font-size="14" font-weight="bold" lengthAdjust="spacing" textLength="86.625" x="181.0078" y="30.1074">&#20195;&#29702;&#26381;&#21153;&#20132;&#20114;</text><g><title>MODEL</title><rect fill="#000000" fill-opacity="0.00000" height="614.9473" width="8" x="36.8931" y="78.2422"/><line style="stroke:#181818;stroke-width:0.5;stroke-dasharray:5,5;" x1="40" x2="40" y1="78.2422" y2="693.1895"/></g><g><title>GFW</title><rect fill="#000000" fill-opacity="0.00000" height="614.9473" width="8" x="102.8931" y="78.2422"/><line style="stroke:#181818;stroke-width:0.5;stroke-dasharray:5,5;" x1="106.5654" x2="106.5654" y1="78.2422" y2="693.1895"/></g><g><title>ProxyServer</title><rect fill="#000000" fill-opacity="0.00000" height="614.9473" width="8" x="181.731" y="78.2422"/><line style="stroke:#181818;stroke-width:0.5;stroke-dasharray:5,5;" x1="185.2207" x2="185.2207" y1="78.2422" y2="693.1895"/></g><g><title>ProxyServerNode</title><rect fill="#000000" fill-opacity="0.00000" height="614.9473" width="8" x="299.4858" y="78.2422"/><line style="stroke:#181818;stroke-width:0.5;stroke-dasharray:5,5;" x1="303.2412" x2="303.2412" y1="78.2422" y2="693.1895"/></g><g><title>Provider</title><rect fill="#000000" fill-opacity="0.00000" height="614.9473" width="8" x="404.7959" y="78.2422"/><line style="stroke:#181818;stroke-width:0.5;stroke-dasharray:5,5;" x1="408.7305" x2="408.7305" y1="78.2422" y2="693.1895"/></g><g class="participant participant-head" data-participant="M"><rect fill="#E2E2F0" height="32.6211" rx="2.5" ry="2.5" style="stroke:#181818;stroke-width:0.5;" width="63.7861" x="9" y="44.6211"/><text fill="#000000" font-family="sans-serif" font-size="14" lengthAdjust="spacing" textLength="49.7861" x="16" y="66.7285">MODEL</text></g><g class="participant participant-tail" data-participant="M"><rect fill="#E2E2F0" height="32.6211" rx="2.5" ry="2.5" style="stroke:#181818;stroke-width:0.5;" width="63.7861" x="9" y="692.1895"/><text fill="#000000" font-family="sans-serif" font-size="14" lengthAdjust="spacing" textLength="49.7861" x="16" y="714.2969">MODEL</text></g><g class="participant participant-head" data-participant="G"><rect fill="#E2E2F0" height="32.6211" rx="2.5" ry="2.5" style="stroke:#181818;stroke-width:0.5;" width="46.6553" x="83.5654" y="44.6211"/><text fill="#000000" font-family="sans-serif" font-size="14" lengthAdjust="spacing" textLength="32.6553" x="90.5654" y="66.7285">GFW</text></g><g class="participant participant-tail" data-participant="G"><rect fill="#E2E2F0" height="32.6211" rx="2.5" ry="2.5" style="stroke:#181818;stroke-width:0.5;" width="46.6553" x="83.5654" y="692.1895"/><text fill="#000000" font-family="sans-serif" font-size="14" lengthAdjust="spacing" textLength="32.6553" x="90.5654" y="714.2969">GFW</text></g><g class="participant participant-head" data-participant="OP"><rect fill="#E2E2F0" height="32.6211" rx="2.5" ry="2.5" style="stroke:#181818;stroke-width:0.5;" width="91.0205" x="140.2207" y="44.6211"/><text fill="#000000" font-family="sans-serif" font-size="14" lengthAdjust="spacing" textLength="77.0205" x="147.2207" y="66.7285">ProxyServer</text></g><g class="participant participant-tail" data-participant="OP"><rect fill="#E2E2F0" height="32.6211" rx="2.5" ry="2.5" style="stroke:#181818;stroke-width:0.5;" width="91.0205" x="140.2207" y="692.1895"/><text fill="#000000" font-family="sans-serif" font-size="14" lengthAdjust="spacing" textLength="77.0205" x="147.2207" y="714.2969">ProxyServer</text></g><g class="participant participant-head" data-participant="ON"><rect fill="#E2E2F0" height="32.6211" rx="2.5" ry="2.5" style="stroke:#181818;stroke-width:0.5;" width="124.4893" x="241.2412" y="44.6211"/><text fill="#000000" font-family="sans-serif" font-size="14" lengthAdjust="spacing" textLength="110.4893" x="248.2412" y="66.7285">ProxyServerNode</text></g><g class="participant participant-tail" data-participant="ON"><rect fill="#E2E2F0" height="32.6211" rx="2.5" ry="2.5" style="stroke:#181818;stroke-width:0.5;" width="124.4893" x="241.2412" y="692.1895"/><text fill="#000000" font-family="sans-serif" font-size="14" lengthAdjust="spacing" textLength="110.4893" x="248.2412" y="714.2969">ProxyServerNode</text></g><g class="participant participant-head" data-participant="P"><rect fill="#E2E2F0" height="32.6211" rx="2.5" ry="2.5" style="stroke:#181818;stroke-width:0.5;" width="66.1309" x="375.7305" y="44.6211"/><text fill="#000000" font-family="sans-serif" font-size="14" lengthAdjust="spacing" textLength="52.1309" x="382.7305" y="66.7285">Provider</text></g><g class="participant participant-tail" data-participant="P"><rect fill="#E2E2F0" height="32.6211" rx="2.5" ry="2.5" style="stroke:#181818;stroke-width:0.5;" width="66.1309" x="375.7305" y="692.1895"/><text fill="#000000" font-family="sans-serif" font-size="14" lengthAdjust="spacing" textLength="52.1309" x="382.7305" y="714.2969">Provider</text></g><path d="M5,93.2422 L5,120.2422 L78,120.2422 L78,103.2422 L68,93.2422 L5,93.2422" fill="#FEFFDD" style="stroke:#181818;stroke-width:0.5;"/><path d="M68,93.2422 L68,103.2422 L78,103.2422 L68,93.2422" fill="#FEFFDD" style="stroke:#181818;stroke-width:0.5;"/><text fill="#000000" font-family="sans-serif" font-size="13" lengthAdjust="spacing" textLength="52" x="11" y="112.2705">&#20013;&#22269;&#22823;&#38470;</text><path d="M148,130.5332 L148,157.5332 L444,157.5332 L444,140.5332 L434,130.5332 L148,130.5332" fill="#FEFFDD" style="stroke:#181818;stroke-width:0.5;"/><path d="M434,130.5332 L434,140.5332 L444,140.5332 L434,130.5332" fill="#FEFFDD" style="stroke:#181818;stroke-width:0.5;"/><text fill="#000000" font-family="sans-serif" font-size="13" lengthAdjust="spacing" textLength="26" x="278.8203" y="149.5615">&#28023;&#22806;</text><path d="M10,167.8242 L10,194.8242 L437,194.8242 L437,177.8242 L427,167.8242 L10,167.8242" fill="#FEFFDD" style="stroke:#181818;stroke-width:0.5;"/><path d="M427,167.8242 L427,177.8242 L437,177.8242 L427,167.8242" fill="#FEFFDD" style="stroke:#181818;stroke-width:0.5;"/><text fill="#000000" font-family="sans-serif" font-size="13" lengthAdjust="spacing" textLength="52" x="193.4307" y="186.8525">&#25968;&#25454;&#19978;&#20256;</text><g class="message" data-participant-1="M" data-participant-2="M"><line style="stroke:#181818;stroke-width:1;" x1="40.8931" x2="82.8931" y1="223.4063" y2="223.4063"/><line style="stroke:#181818;stroke-width:1;" x1="82.8931" x2="82.8931" y1="223.4063" y2="236.4063"/><line style="stroke:#181818;stroke-width:1;" x1="41.8931" x2="82.8931" y1="236.4063" y2="236.4063"/><polygon fill="#181818" points="51.8931,232.4063,41.8931,236.4063,51.8931,240.4063,47.8931,236.4063" style="stroke:#181818;stroke-width:1;"/><text fill="#000000" font-family="sans-serif" font-size="13" lengthAdjust="spacing" textLength="52" x="47.8931" y="218.1436">&#29983;&#25104;&#25968;&#25454;</text></g><g class="message" data-participant-1="M" data-participant-2="OP"><polygon fill="#181818" points="173.731,263.6973,183.731,267.6973,173.731,271.6973,177.731,267.6973" style="stroke:#181818;stroke-width:1;"/><line style="stroke:#181818;stroke-width:1;" x1="40.8931" x2="179.731" y1="267.6973" y2="267.6973"/><text fill="#000000" font-family="sans-serif" font-size="13" lengthAdjust="spacing" textLength="104" x="47.8931" y="262.4346">&#21152;&#23494;&#25968;&#25454;&#20869;&#32593;&#20256;&#36755;</text></g><g class="message" data-participant-1="OP" data-participant-2="OP"><line style="stroke:#181818;stroke-width:1;" x1="185.731" x2="227.731" y1="298.9883" y2="298.9883"/><line style="stroke:#181818;stroke-width:1;" x1="227.731" x2="227.731" y1="298.9883" y2="311.9883"/><line style="stroke:#181818;stroke-width:1;" x1="186.731" x2="227.731" y1="311.9883" y2="311.9883"/><polygon fill="#181818" points="196.731,307.9883,186.731,311.9883,196.731,315.9883,192.731,311.9883" style="stroke:#181818;stroke-width:1;"/><text fill="#000000" font-family="sans-serif" font-size="13" lengthAdjust="spacing" textLength="52" x="192.731" y="293.7256">&#25968;&#25454;&#35299;&#23494;</text></g><g class="message" data-participant-1="OP" data-participant-2="ON"><polygon fill="#181818" points="291.4858,339.2793,301.4858,343.2793,291.4858,347.2793,295.4858,343.2793" style="stroke:#181818;stroke-width:1;"/><line style="stroke:#181818;stroke-width:1;" x1="185.731" x2="297.4858" y1="343.2793" y2="343.2793"/><text fill="#000000" font-family="sans-serif" font-size="13" lengthAdjust="spacing" textLength="78" x="192.731" y="338.0166">&#26126;&#25991;&#25968;&#25454;&#33853;&#30424;</text></g><g class="message" data-participant-1="ON" data-participant-2="OP"><polygon fill="#181818" points="196.731,370.5703,186.731,374.5703,196.731,378.5703,192.731,374.5703" style="stroke:#181818;stroke-width:1;"/><line style="stroke:#181818;stroke-width:1;" x1="190.731" x2="302.4858" y1="374.5703" y2="374.5703"/><text fill="#000000" font-family="sans-serif" font-size="13" lengthAdjust="spacing" textLength="52" x="202.731" y="369.3076">&#25968;&#25454;&#35835;&#30424;</text></g><g class="message" data-participant-1="OP" data-participant-2="P"><polygon fill="#181818" points="396.7959,401.8613,406.7959,405.8613,396.7959,409.8613,400.7959,405.8613" style="stroke:#181818;stroke-width:1;"/><line style="stroke:#181818;stroke-width:1;" x1="185.731" x2="402.7959" y1="405.8613" y2="405.8613"/><text fill="#000000" font-family="sans-serif" font-size="13" lengthAdjust="spacing" textLength="98.2173" x="192.731" y="400.5986">`&#20869;&#32593;or&#22806;&#32593;`&#20256;&#36755;</text></g><g class="message" data-participant-1="P" data-participant-2="OP"><polygon fill="#181818" points="196.731,433.1523,186.731,437.1523,196.731,441.1523,192.731,437.1523" style="stroke:#181818;stroke-width:1;"/><line style="stroke:#181818;stroke-width:1;stroke-dasharray:2,2;" x1="190.731" x2="407.7959" y1="437.1523" y2="437.1523"/><text fill="#000000" font-family="sans-serif" font-size="13" lengthAdjust="spacing" textLength="78" x="202.731" y="431.8896">&#20256;&#36755;&#25104;&#21151;&#36820;&#22238;</text></g><g class="message" data-participant-1="OP" data-participant-2="M"><polygon fill="#181818" points="51.8931,464.4434,41.8931,468.4434,51.8931,472.4434,47.8931,468.4434" style="stroke:#181818;stroke-width:1;"/><line style="stroke:#181818;stroke-width:1;stroke-dasharray:2,2;" x1="45.8931" x2="184.731" y1="468.4434" y2="468.4434"/><text fill="#000000" font-family="sans-serif" font-size="13" lengthAdjust="spacing" textLength="78" x="57.8931" y="463.1807">&#20256;&#36755;&#25104;&#21151;&#36820;&#22238;</text></g><path d="M10,481.4434 L10,508.4434 L437,508.4434 L437,491.4434 L427,481.4434 L10,481.4434" fill="#FEFFDD" style="stroke:#181818;stroke-width:0.5;"/><path d="M427,481.4434 L427,491.4434 L437,491.4434 L427,481.4434" fill="#FEFFDD" style="stroke:#181818;stroke-width:0.5;"/><text fill="#000000" font-family="sans-serif" font-size="13" lengthAdjust="spacing" textLength="52" x="193.4307" y="500.4717">&#25968;&#25454;&#19979;&#36733;</text><g class="message" data-participant-1="M" data-participant-2="OP"><polygon fill="#181818" points="173.731,533.0254,183.731,537.0254,173.731,541.0254,177.731,537.0254" style="stroke:#181818;stroke-width:1;"/><line style="stroke:#181818;stroke-width:1;" x1="40.8931" x2="179.731" y1="537.0254" y2="537.0254"/><text fill="#000000" font-family="sans-serif" font-size="13" lengthAdjust="spacing" textLength="52" x="47.8931" y="531.7627">&#19979;&#36733;&#35831;&#27714;</text></g><g class="message" data-participant-1="OP" data-participant-2="P"><polygon fill="#181818" points="396.7959,564.3164,406.7959,568.3164,396.7959,572.3164,400.7959,568.3164" style="stroke:#181818;stroke-width:1;"/><line style="stroke:#181818;stroke-width:1;" x1="185.731" x2="402.7959" y1="568.3164" y2="568.3164"/><text fill="#000000" font-family="sans-serif" font-size="13" lengthAdjust="spacing" textLength="52" x="192.731" y="563.0537">&#19979;&#36733;&#35831;&#27714;</text></g><g class="message" data-participant-1="P" data-participant-2="OP"><polygon fill="#181818" points="196.731,595.6074,186.731,599.6074,196.731,603.6074,192.731,599.6074" style="stroke:#181818;stroke-width:1;"/><line style="stroke:#181818;stroke-width:1;stroke-dasharray:2,2;" x1="190.731" x2="407.7959" y1="599.6074" y2="599.6074"/><text fill="#000000" font-family="sans-serif" font-size="13" lengthAdjust="spacing" textLength="163.2173" x="202.731" y="594.3447">&#26126;&#25991;&#25968;&#25454;&#27969;`&#20869;&#32593;or&#22806;&#32593;`&#20256;&#36755;</text></g><g class="message" data-participant-1="OP" data-participant-2="OP"><line style="stroke:#181818;stroke-width:1;" x1="185.731" x2="227.731" y1="630.8984" y2="630.8984"/><line style="stroke:#181818;stroke-width:1;" x1="227.731" x2="227.731" y1="630.8984" y2="643.8984"/><line style="stroke:#181818;stroke-width:1;" x1="186.731" x2="227.731" y1="643.8984" y2="643.8984"/><polygon fill="#181818" points="196.731,639.8984,186.731,643.8984,196.731,647.8984,192.731,643.8984" style="stroke:#181818;stroke-width:1;"/><text fill="#000000" font-family="sans-serif" font-size="13" lengthAdjust="spacing" textLength="65" x="192.731" y="625.6357">&#25968;&#25454;&#27969;&#21152;&#23494;</text></g><g class="message" data-participant-1="OP" data-participant-2="M"><polygon fill="#181818" points="51.8931,671.1895,41.8931,675.1895,51.8931,679.1895,47.8931,675.1895" style="stroke:#181818;stroke-width:1;"/><line style="stroke:#181818;stroke-width:1;stroke-dasharray:2,2;" x1="45.8931" x2="184.731" y1="675.1895" y2="675.1895"/><text fill="#000000" font-family="sans-serif" font-size="13" lengthAdjust="spacing" textLength="117" x="57.8931" y="669.9268">&#21152;&#23494;&#25968;&#25454;&#27969;&#20869;&#32593;&#20256;&#36755;</text></g><!--SRC=[TP11IiD068NtSuevW5wW2rTgDoOpuC9jWyqY84s9eUYo1QD4Ab5hgKHifO6kD7LHMbgZbybCuYsSP58o2MOryBtt_dd_RshccLg3uMOQEHPzwHFxBLnxuVe1WBPYcDgfrbPQ9fJG_i4HLCwXLC3rmvC4rWiG6_h5vR5gT5GZ4H6kKcMzgQOEkUpeQ4qUnW2qT5E5UZ9COZrNxyGDY3VxVRO41U4TY6kGBfR46ue9Zf_cjFyHhkpmQmA017Vtab7HO4nl7AvnY9YNs1FYMvmIwoeAxbae_du426yjN8ndKsRSOfdXqHqTNcUY4qJk222vbF4tAKupZ3Ru3xh1MhEtaNt5v2p60Qj9x77yCo3kQnhc2_mZLgv-6mS1oBVa8FQNzBENrodGl8Iu65rqAqgNxyES_9P2O_6uYIxSzmy0]--></g></svg>