<svg xmlns="http://www.w3.org/2000/svg" xmlns:xlink="http://www.w3.org/1999/xlink" contentStyleType="text/css" data-diagram-type="DESCRIPTION" height="582px" preserveAspectRatio="none" style="width:1204px;height:582px;background:#FFFFFF;" version="1.1" viewBox="0 0 1204 582" width="1204px" zoomAndPan="magnify"><title>Single Index B+Tree (ID Column)</title><defs/><g><g class="title" data-source-line="3"><text fill="#000000" font-family="Verdana" font-size="22" font-weight="bold" lengthAdjust="spacing" textLength="417.1406" x="388.9297" y="37.1182">Single Index B+Tree (ID Column)</text></g><!--cluster Root Page--><g class="cluster" data-entity="Root Page" data-source-line="5" data-uid="ent0002" id="cluster_Root Page"><path d="M545.5,58.7373 L626.5352,58.7373 A3.75,3.75 0 0 1 629.0352,61.2373 L636.0352,81.752 L726.5,81.752 A2.5,2.5 0 0 1 729,84.252 L729,162.2373 A2.5,2.5 0 0 1 726.5,164.7373 L545.5,164.7373 A2.5,2.5 0 0 1 543,162.2373 L543,61.2373 A2.5,2.5 0 0 1 545.5,58.7373" fill="#FFFFFF" style="stroke:#000000;stroke-width:1;"/><line style="stroke:#000000;stroke-width:1;" x1="543" x2="636.0352" y1="81.752" y2="81.752"/><text fill="#000000" font-family="Verdana" font-size="14" font-weight="bold" lengthAdjust="spacing" textLength="80.0352" x="547" y="74.8125">Root Page</text></g><!--cluster Internal Pages--><g class="cluster" data-entity="Internal Pages" data-source-line="9" data-uid="ent0004" id="cluster_Internal Pages"><path d="M408.5,188.7373 L525.6494,188.7373 A3.75,3.75 0 0 1 528.1494,191.2373 L535.1494,211.752 L845.5,211.752 A2.5,2.5 0 0 1 848,214.252 L848,309.2373 A2.5,2.5 0 0 1 845.5,311.7373 L408.5,311.7373 A2.5,2.5 0 0 1 406,309.2373 L406,191.2373 A2.5,2.5 0 0 1 408.5,188.7373" fill="#FFFFFF" style="stroke:#000000;stroke-width:1;"/><line style="stroke:#000000;stroke-width:1;" x1="406" x2="535.1494" y1="211.752" y2="211.752"/><text fill="#000000" font-family="Verdana" font-size="14" font-weight="bold" lengthAdjust="spacing" textLength="116.1494" x="410" y="204.8125">Internal Pages</text></g><!--cluster Leaf Pages (Data)--><g class="cluster" data-entity="Leaf Pages .Data." data-source-line="15" data-uid="ent0008" id="cluster_Leaf Pages .Data."><path d="M13.5,335.7373 L156.4756,335.7373 A3.75,3.75 0 0 1 158.9756,338.2373 L165.9756,358.752 L1194.5,358.752 A2.5,2.5 0 0 1 1197,361.252 L1197,456.2373 A2.5,2.5 0 0 1 1194.5,458.7373 L13.5,458.7373 A2.5,2.5 0 0 1 11,456.2373 L11,338.2373 A2.5,2.5 0 0 1 13.5,335.7373" fill="#FFFFFF" style="stroke:#000000;stroke-width:1;"/><line style="stroke:#000000;stroke-width:1;" x1="11" x2="165.9756" y1="358.752" y2="358.752"/><text fill="#000000" font-family="Verdana" font-size="14" font-weight="bold" lengthAdjust="spacing" textLength="141.9756" x="15" y="351.8125">Leaf Pages (Data)</text></g><!--entity root--><g class="entity" data-entity="root" data-source-line="6" data-uid="ent0003" id="entity_root"><rect fill="#FFFFFF" height="54.0293" rx="2.5" ry="2.5" style="stroke:#000000;stroke-width:1;" width="152.7881" x="559.5" y="94.7373"/><text fill="#000000" font-family="Verdana" font-size="14" lengthAdjust="spacing" textLength="95.7578" x="569.5" y="118.8125">Keys: 50|100</text><text fill="#000000" font-family="Verdana" font-size="14" lengthAdjust="spacing" textLength="132.7881" x="569.5" y="135.8271">Pointers: P1|P2|P3</text></g><!--entity internal1--><g class="entity" data-entity="internal1" data-source-line="10" data-uid="ent0005" id="entity_internal1"><rect fill="#FFFFFF" height="71.0439" rx="2.5" ry="2.5" style="stroke:#000000;stroke-width:1;" width="106.8574" x="724.5" y="224.7373"/><text fill="#000000" font-family="Verdana" font-size="14" lengthAdjust="spacing" textLength="86.8574" x="734.5" y="248.8125">Keys: 25|35</text><text fill="#000000" font-family="Verdana" font-size="14" lengthAdjust="spacing" textLength="63.123" x="734.5" y="265.8271">Pointers:</text><text fill="#000000" font-family="Verdana" font-size="14" lengthAdjust="spacing" textLength="64.7432" x="734.5" y="282.8418">P4|P5|P6</text></g><!--entity internal2--><g class="entity" data-entity="internal2" data-source-line="11" data-uid="ent0006" id="entity_internal2"><rect fill="#FFFFFF" height="71.0439" rx="2.5" ry="2.5" style="stroke:#000000;stroke-width:1;" width="106.8574" x="582.5" y="224.7373"/><text fill="#000000" font-family="Verdana" font-size="14" lengthAdjust="spacing" textLength="86.8574" x="592.5" y="248.8125">Keys: 75|85</text><text fill="#000000" font-family="Verdana" font-size="14" lengthAdjust="spacing" textLength="63.123" x="592.5" y="265.8271">Pointers:</text><text fill="#000000" font-family="Verdana" font-size="14" lengthAdjust="spacing" textLength="64.7432" x="592.5" y="282.8418">P7|P8|P9</text></g><!--entity internal3--><g class="entity" data-entity="internal3" data-source-line="12" data-uid="ent0007" id="entity_internal3"><rect fill="#FFFFFF" height="71.0439" rx="2.5" ry="2.5" style="stroke:#000000;stroke-width:1;" width="124.6582" x="422.5" y="224.7373"/><text fill="#000000" font-family="Verdana" font-size="14" lengthAdjust="spacing" textLength="104.6582" x="432.5" y="248.8125">Keys: 125|135</text><text fill="#000000" font-family="Verdana" font-size="14" lengthAdjust="spacing" textLength="63.123" x="432.5" y="265.8271">Pointers:</text><text fill="#000000" font-family="Verdana" font-size="14" lengthAdjust="spacing" textLength="91.4443" x="432.5" y="282.8418">P10|P11|P12</text></g><!--entity leaf1--><g class="entity" data-entity="leaf1" data-source-line="16" data-uid="ent0009" id="entity_leaf1"><rect fill="#FFFFFF" height="71.0439" rx="2.5" ry="2.5" style="stroke:#000000;stroke-width:1;" width="86.1172" x="853" y="371.7373"/><text fill="#000000" font-family="Verdana" font-size="14" lengthAdjust="spacing" textLength="66.1172" x="863" y="395.8125">10|20|25</text><text fill="#000000" font-family="Verdana" font-size="14" lengthAdjust="spacing" textLength="41.1455" x="863" y="412.8271">+Row</text><text fill="#000000" font-family="Verdana" font-size="14" lengthAdjust="spacing" textLength="56.7656" x="863" y="429.8418">Pointers</text></g><!--entity leaf2--><g class="entity" data-entity="leaf2" data-source-line="17" data-uid="ent0010" id="entity_leaf2"><rect fill="#FFFFFF" height="71.0439" rx="2.5" ry="2.5" style="stroke:#000000;stroke-width:1;" width="86.1172" x="974" y="371.7373"/><text fill="#000000" font-family="Verdana" font-size="14" lengthAdjust="spacing" textLength="66.1172" x="984" y="395.8125">30|35|40</text><text fill="#000000" font-family="Verdana" font-size="14" lengthAdjust="spacing" textLength="41.1455" x="984" y="412.8271">+Row</text><text fill="#000000" font-family="Verdana" font-size="14" lengthAdjust="spacing" textLength="56.7656" x="984" y="429.8418">Pointers</text></g><!--entity leaf3--><g class="entity" data-entity="leaf3" data-source-line="18" data-uid="ent0011" id="entity_leaf3"><rect fill="#FFFFFF" height="71.0439" rx="2.5" ry="2.5" style="stroke:#000000;stroke-width:1;" width="86.1172" x="1095" y="371.7373"/><text fill="#000000" font-family="Verdana" font-size="14" lengthAdjust="spacing" textLength="66.1172" x="1105" y="395.8125">45|50|55</text><text fill="#000000" font-family="Verdana" font-size="14" lengthAdjust="spacing" textLength="41.1455" x="1105" y="412.8271">+Row</text><text fill="#000000" font-family="Verdana" font-size="14" lengthAdjust="spacing" textLength="56.7656" x="1105" y="429.8418">Pointers</text></g><!--entity leaf4--><g class="entity" data-entity="leaf4" data-source-line="19" data-uid="ent0012" id="entity_leaf4"><rect fill="#FFFFFF" height="71.0439" rx="2.5" ry="2.5" style="stroke:#000000;stroke-width:1;" width="86.1172" x="472" y="371.7373"/><text fill="#000000" font-family="Verdana" font-size="14" lengthAdjust="spacing" textLength="66.1172" x="482" y="395.8125">60|70|75</text><text fill="#000000" font-family="Verdana" font-size="14" lengthAdjust="spacing" textLength="41.1455" x="482" y="412.8271">+Row</text><text fill="#000000" font-family="Verdana" font-size="14" lengthAdjust="spacing" textLength="56.7656" x="482" y="429.8418">Pointers</text></g><!--entity leaf5--><g class="entity" data-entity="leaf5" data-source-line="20" data-uid="ent0013" id="entity_leaf5"><rect fill="#FFFFFF" height="71.0439" rx="2.5" ry="2.5" style="stroke:#000000;stroke-width:1;" width="86.1172" x="593" y="371.7373"/><text fill="#000000" font-family="Verdana" font-size="14" lengthAdjust="spacing" textLength="66.1172" x="603" y="395.8125">80|85|90</text><text fill="#000000" font-family="Verdana" font-size="14" lengthAdjust="spacing" textLength="41.1455" x="603" y="412.8271">+Row</text><text fill="#000000" font-family="Verdana" font-size="14" lengthAdjust="spacing" textLength="56.7656" x="603" y="429.8418">Pointers</text></g><!--entity leaf6--><g class="entity" data-entity="leaf6" data-source-line="21" data-uid="ent0014" id="entity_leaf6"><rect fill="#FFFFFF" height="71.0439" rx="2.5" ry="2.5" style="stroke:#000000;stroke-width:1;" width="103.918" x="714" y="371.7373"/><text fill="#000000" font-family="Verdana" font-size="14" lengthAdjust="spacing" textLength="83.918" x="724" y="395.8125">95|100|105</text><text fill="#000000" font-family="Verdana" font-size="14" lengthAdjust="spacing" textLength="41.1455" x="724" y="412.8271">+Row</text><text fill="#000000" font-family="Verdana" font-size="14" lengthAdjust="spacing" textLength="56.7656" x="724" y="429.8418">Pointers</text></g><!--entity leaf7--><g class="entity" data-entity="leaf7" data-source-line="22" data-uid="ent0015" id="entity_leaf7"><rect fill="#FFFFFF" height="71.0439" rx="2.5" ry="2.5" style="stroke:#000000;stroke-width:1;" width="112.8184" x="27.5" y="371.7373"/><text fill="#000000" font-family="Verdana" font-size="14" lengthAdjust="spacing" textLength="92.8184" x="37.5" y="395.8125">110|120|125</text><text fill="#000000" font-family="Verdana" font-size="14" lengthAdjust="spacing" textLength="41.1455" x="37.5" y="412.8271">+Row</text><text fill="#000000" font-family="Verdana" font-size="14" lengthAdjust="spacing" textLength="56.7656" x="37.5" y="429.8418">Pointers</text></g><!--entity leaf8--><g class="entity" data-entity="leaf8" data-source-line="23" data-uid="ent0016" id="entity_leaf8"><rect fill="#FFFFFF" height="71.0439" rx="2.5" ry="2.5" style="stroke:#000000;stroke-width:1;" width="112.8184" x="175.5" y="371.7373"/><text fill="#000000" font-family="Verdana" font-size="14" lengthAdjust="spacing" textLength="92.8184" x="185.5" y="395.8125">130|135|140</text><text fill="#000000" font-family="Verdana" font-size="14" lengthAdjust="spacing" textLength="41.1455" x="185.5" y="412.8271">+Row</text><text fill="#000000" font-family="Verdana" font-size="14" lengthAdjust="spacing" textLength="56.7656" x="185.5" y="429.8418">Pointers</text></g><!--entity leaf9--><g class="entity" data-entity="leaf9" data-source-line="24" data-uid="ent0017" id="entity_leaf9"><rect fill="#FFFFFF" height="71.0439" rx="2.5" ry="2.5" style="stroke:#000000;stroke-width:1;" width="112.8184" x="323.5" y="371.7373"/><text fill="#000000" font-family="Verdana" font-size="14" lengthAdjust="spacing" textLength="92.8184" x="333.5" y="395.8125">145|150|155</text><text fill="#000000" font-family="Verdana" font-size="14" lengthAdjust="spacing" textLength="41.1455" x="333.5" y="412.8271">+Row</text><text fill="#000000" font-family="Verdana" font-size="14" lengthAdjust="spacing" textLength="56.7656" x="333.5" y="429.8418">Pointers</text></g><g class="entity" data-entity="GMN38" data-source-line="55" data-uid="ent0039" id="entity_GMN38"><path d="M261,502.7373 L261,575.9346 A0,0 0 0 0 261,575.9346 L499.02,575.9346 A0,0 0 0 0 499.02,575.9346 L499.02,512.7373 L489.02,502.7373 L384,502.7373 L380,443.0773 L376,502.7373 L261,502.7373 A0,0 0 0 0 261,502.7373" fill="#FFFFFF" style="stroke:#000000;stroke-width:1;"/><path d="M489.02,502.7373 L489.02,512.7373 L499.02,512.7373 L489.02,502.7373" fill="#FFFFFF" style="stroke:#000000;stroke-width:1;"/><text fill="#000000" font-family="Verdana" font-size="13" lengthAdjust="spacing" textLength="183.1108" x="267" y="520.8071">- Single column index on ID</text><text fill="#000000" font-family="Verdana" font-size="13" lengthAdjust="spacing" textLength="217.02" x="267" y="536.6064">- Fast equality and range queries</text><text fill="#000000" font-family="Verdana" font-size="13" lengthAdjust="spacing" textLength="191.7754" x="267" y="552.4058">- Sequential leaf node linking</text><text fill="#000000" font-family="Verdana" font-size="13" lengthAdjust="spacing" textLength="193.3687" x="267" y="568.2051">- All data stored in leaf pages</text></g><!--link root to internal1--><g class="link" data-entity-1="root" data-entity-2="internal1" data-source-line="28" data-uid="lnk18" id="link_root_internal1"><path d="M670.11,148.8873 C682.11,158.5173 695.47,169.7673 707,180.7373 C721.38,194.4173 732.3013,206.0173 744.7013,220.0773" fill="none" id="root-to-internal1" style="stroke:#000000;stroke-width:1;"/><polygon fill="#000000" points="748.67,224.5773,745.717,215.1816,745.3628,220.8273,739.717,220.4731,748.67,224.5773" style="stroke:#000000;stroke-width:1;"/></g><!--link root to internal2--><g class="link" data-entity-1="root" data-entity-2="internal2" data-source-line="29" data-uid="lnk19" id="link_root_internal2"><path d="M636,149.0573 C636,170.5973 636,195.2273 636,218.7273" fill="none" id="root-to-internal2" style="stroke:#000000;stroke-width:1;"/><polygon fill="#000000" points="636,224.7273,640,215.7273,636,219.7273,632,215.7273,636,224.7273" style="stroke:#000000;stroke-width:1;"/></g><!--link root to internal3--><g class="link" data-entity-1="root" data-entity-2="internal3" data-source-line="30" data-uid="lnk20" id="link_root_internal3"><path d="M602.6,148.9773 C590.55,158.7173 576.97,170.0073 565,180.7373 C549.49,194.6273 537.2218,206.3838 523.2418,220.3038" fill="none" id="root-to-internal3" style="stroke:#000000;stroke-width:1;"/><polygon fill="#000000" points="518.99,224.5373,528.19,221.0215,522.5331,221.0094,522.5453,215.3525,518.99,224.5373" style="stroke:#000000;stroke-width:1;"/></g><!--link internal1 to leaf1--><g class="link" data-entity-1="internal1" data-entity-2="leaf1" data-source-line="32" data-uid="lnk21" id="link_internal1_leaf1"><path d="M809.13,296.0773 C817.95,306.1773 827.47,317.2973 836,327.7373 C847.5,341.8173 856.1495,352.9128 866.5695,366.6828" fill="none" id="internal1-to-leaf1" style="stroke:#000000;stroke-width:1;"/><polygon fill="#000000" points="870.19,371.4673,867.9489,361.8768,867.1729,367.4802,861.5695,366.7042,870.19,371.4673" style="stroke:#000000;stroke-width:1;"/></g><!--link internal1 to leaf2--><g class="link" data-entity-1="internal1" data-entity-2="leaf2" data-source-line="33" data-uid="lnk22" id="link_internal1_leaf2"><path d="M831.56,272.7173 C869.29,282.7073 919.56,300.0373 957,327.7373 C972.86,339.4673 983.2157,351.5293 993.5157,366.7393" fill="none" id="internal1-to-leaf2" style="stroke:#000000;stroke-width:1;"/><polygon fill="#000000" points="996.88,371.7073,995.1456,362.0124,994.0764,367.5673,988.5215,366.4981,996.88,371.7073" style="stroke:#000000;stroke-width:1;"/></g><!--link internal1 to leaf3--><g class="link" data-entity-1="internal1" data-entity-2="leaf3" data-source-line="34" data-uid="lnk23" id="link_internal1_leaf3"><path d="M831.5,262.2173 C894.98,265.7073 1001.78,279.0773 1078,327.7373 C1094.92,338.5373 1105.6209,350.8326 1115.8209,366.4626" fill="none" id="internal1-to-leaf3" style="stroke:#000000;stroke-width:1;"/><polygon fill="#000000" points="1119.1,371.4873,1117.5312,361.7642,1116.3674,367.3001,1110.8316,366.1363,1119.1,371.4873" style="stroke:#000000;stroke-width:1;"/></g><!--link internal2 to leaf4--><g class="link" data-entity-1="internal2" data-entity-2="leaf4" data-source-line="36" data-uid="lnk24" id="link_internal2_leaf4"><path d="M603.75,296.0173 C594.62,306.1073 584.79,317.2473 576,327.7373 C564.25,341.7573 555.4223,352.8669 544.8423,366.6569" fill="none" id="internal2-to-leaf4" style="stroke:#000000;stroke-width:1;"/><polygon fill="#000000" points="541.19,371.4173,549.842,366.7116,544.2335,367.4503,543.4948,361.8419,541.19,371.4173" style="stroke:#000000;stroke-width:1;"/></g><!--link internal2 to leaf5--><g class="link" data-entity-1="internal2" data-entity-2="leaf5" data-source-line="37" data-uid="lnk25" id="link_internal2_leaf5"><path d="M636,295.9673 C636,318.8373 636,342.6773 636,365.5373" fill="none" id="internal2-to-leaf5" style="stroke:#000000;stroke-width:1;"/><polygon fill="#000000" points="636,371.5373,640,362.5373,636,366.5373,632,362.5373,636,371.5373" style="stroke:#000000;stroke-width:1;"/></g><!--link internal2 to leaf6--><g class="link" data-entity-1="internal2" data-entity-2="leaf6" data-source-line="38" data-uid="lnk26" id="link_internal2_leaf6"><path d="M668.11,295.9673 C677.47,306.1673 687.68,317.3673 697,327.7373 C709.85,342.0473 719.9357,353.4547 731.9757,367.1947" fill="none" id="internal2-to-leaf6" style="stroke:#000000;stroke-width:1;"/><polygon fill="#000000" points="735.93,371.7073,733.007,362.3022,732.6348,367.9468,726.9902,367.5746,735.93,371.7073" style="stroke:#000000;stroke-width:1;"/></g><!--link internal3 to leaf7--><g class="link" data-entity-1="internal3" data-entity-2="leaf7" data-source-line="40" data-uid="lnk27" id="link_internal3_leaf7"><path d="M422.39,262.8373 C353.57,267.0273 241.66,281.1873 158,327.7373 C138.85,338.3873 125.5701,351.0806 112.6401,366.7406" fill="none" id="internal3-to-leaf7" style="stroke:#000000;stroke-width:1;"/><polygon fill="#000000" points="108.82,371.3673,117.6347,366.974,112.0035,367.5117,111.4657,361.8805,108.82,371.3673" style="stroke:#000000;stroke-width:1;"/></g><!--link internal3 to leaf8--><g class="link" data-entity-1="internal3" data-entity-2="leaf8" data-source-line="41" data-uid="lnk28" id="link_internal3_leaf8"><path d="M422.45,276.7773 C386.47,287.5373 341.51,304.2073 306,327.7373 C288.2,339.5373 275.4922,351.8382 262.5322,366.9082" fill="none" id="internal3-to-leaf8" style="stroke:#000000;stroke-width:1;"/><polygon fill="#000000" points="258.62,371.4573,267.5211,367.2417,261.8802,367.6664,261.4555,362.0255,258.62,371.4573" style="stroke:#000000;stroke-width:1;"/></g><!--link internal3 to leaf9--><g class="link" data-entity-1="internal3" data-entity-2="leaf9" data-source-line="42" data-uid="lnk29" id="link_internal3_leaf9"><path d="M459.85,295.9673 C443.29,318.8373 425.1985,343.8173 408.6485,366.6773" fill="none" id="internal3-to-leaf9" style="stroke:#000000;stroke-width:1;"/><polygon fill="#000000" points="405.13,371.5373,413.6478,366.5929,408.0621,367.4873,407.1678,361.9016,405.13,371.5373" style="stroke:#000000;stroke-width:1;"/></g><!--link leaf1 to leaf2--><g class="link" data-entity-1="leaf1" data-entity-2="leaf2" data-source-line="45" data-uid="lnk30" id="link_leaf1_leaf2"><path d="M939.01,407.2373 C950.59,407.2373 956.16,407.2373 967.74,407.2373" fill="none" id="leaf1-to-leaf2" style="stroke:#000000;stroke-width:1;"/><polygon fill="#000000" points="973.74,407.2373,964.74,403.2373,968.74,407.2373,964.74,411.2373,973.74,407.2373" style="stroke:#000000;stroke-width:1;"/></g><!--link leaf2 to leaf3--><g class="link" data-entity-1="leaf2" data-entity-2="leaf3" data-source-line="46" data-uid="lnk31" id="link_leaf2_leaf3"><path d="M1060.01,407.2373 C1071.59,407.2373 1077.16,407.2373 1088.74,407.2373" fill="none" id="leaf2-to-leaf3" style="stroke:#000000;stroke-width:1;"/><polygon fill="#000000" points="1094.74,407.2373,1085.74,403.2373,1089.74,407.2373,1085.74,411.2373,1094.74,407.2373" style="stroke:#000000;stroke-width:1;"/></g><!--link leaf3 to leaf4--><g class="link" data-entity-1="leaf3" data-entity-2="leaf4" data-source-line="47" data-uid="lnk32" id="link_leaf3_leaf4"><path d="M1118.9,371.6973 C1108.74,355.9773 1094.84,338.6373 1078,327.7373 C1071.3,323.3973 1068.43,324.6273 1060.5,323.7373 C1034.72,320.8273 619.28,320.8273 593.5,323.7373 C585.57,324.6273 582.71,323.4273 576,327.7373 C559.02,338.6373 548.2017,350.9674 537.8417,366.6874" fill="none" id="leaf3-to-leaf4" style="stroke:#000000;stroke-width:1;"/><polygon fill="#000000" points="534.54,371.6973,542.8324,366.3836,537.2914,367.5224,536.1526,361.9814,534.54,371.6973" style="stroke:#000000;stroke-width:1;"/></g><!--link leaf4 to leaf5--><g class="link" data-entity-1="leaf4" data-entity-2="leaf5" data-source-line="48" data-uid="lnk33" id="link_leaf4_leaf5"><path d="M558.01,407.2373 C569.59,407.2373 575.16,407.2373 586.74,407.2373" fill="none" id="leaf4-to-leaf5" style="stroke:#000000;stroke-width:1;"/><polygon fill="#000000" points="592.74,407.2373,583.74,403.2373,587.74,407.2373,583.74,411.2373,592.74,407.2373" style="stroke:#000000;stroke-width:1;"/></g><!--link leaf5 to leaf6--><g class="link" data-entity-1="leaf5" data-entity-2="leaf6" data-source-line="49" data-uid="lnk34" id="link_leaf5_leaf6"><path d="M679.16,407.2373 C690.7,407.2373 696.23,407.2373 707.76,407.2373" fill="none" id="leaf5-to-leaf6" style="stroke:#000000;stroke-width:1;"/><polygon fill="#000000" points="713.76,407.2373,704.76,403.2373,708.76,407.2373,704.76,411.2373,713.76,407.2373" style="stroke:#000000;stroke-width:1;"/></g><!--link leaf6 to leaf7--><g class="link" data-entity-1="leaf6" data-entity-2="leaf7" data-source-line="50" data-uid="lnk35" id="link_leaf6_leaf7"><path d="M742.97,371.6973 C731.05,355.9873 715.18,338.6473 697,327.7373 C690.16,323.6373 687.43,324.6273 679.5,323.7373 C651.68,320.5973 203.32,320.5973 175.5,323.7373 C167.57,324.6273 164.91,323.7573 158,327.7373 C139.05,338.6573 125.8859,351.3688 112.9959,367.0788" fill="none" id="leaf6-to-leaf7" style="stroke:#000000;stroke-width:1;"/><polygon fill="#000000" points="109.19,371.7173,117.9911,367.2968,112.3615,367.8519,111.8065,362.2224,109.19,371.7173" style="stroke:#000000;stroke-width:1;"/></g><!--link leaf7 to leaf8--><g class="link" data-entity-1="leaf7" data-entity-2="leaf8" data-source-line="51" data-uid="lnk36" id="link_leaf7_leaf8"><path d="M140.66,407.2373 C152.19,407.2373 157.73,407.2373 169.27,407.2373" fill="none" id="leaf7-to-leaf8" style="stroke:#000000;stroke-width:1;"/><polygon fill="#000000" points="175.27,407.2373,166.27,403.2373,170.27,407.2373,166.27,411.2373,175.27,407.2373" style="stroke:#000000;stroke-width:1;"/></g><!--link leaf8 to leaf9--><g class="link" data-entity-1="leaf8" data-entity-2="leaf9" data-source-line="52" data-uid="lnk37" id="link_leaf8_leaf9"><path d="M288.66,407.2373 C300.19,407.2373 305.73,407.2373 317.27,407.2373" fill="none" id="leaf8-to-leaf9" style="stroke:#000000;stroke-width:1;"/><polygon fill="#000000" points="323.27,407.2373,314.27,403.2373,318.27,407.2373,314.27,411.2373,323.27,407.2373" style="stroke:#000000;stroke-width:1;"/></g><!--SRC=[VLHDZzCm4BtxLmoziAjLfJY9yy412QYGAZX42qSkfXcwrgPsDt6rh33_dR4BtJhKA-LBp_EUFMycyyhUuGvXFqYb6RFA3WXVbDxIQwrx_0dlRxwEY72rNi47Cnns-fgnlTpSoot2ujOO2nrzBk0N0nXnOsNWBZxXq_G6HEPubdtJdL7QuaX8nrsNkwvOW9nW93hxVQQtzb5Q3a5pIeZcmXNYJ9C-IzS9rrL1LFtLu9UujN3DZ5kxhd5T6t7pIrnE6_FvpZnp7QUSU1u9555Qdr7-EAO4LojfvVL_cP5CJXU9tzoQn-SjWkX0z5asHKOUk39BniyoA8MZMeYqVX77LvchwKh7bt5yav6lhasVHyJnhV2DGNTwXshc45d4St-dAVMCGYvHmHn_mQTcHY6ZkE_Q5wngVMrVG_Wj9ZiUDlOm8lEz3ClUFEhbsxCUl0Zdb-62iHFnj7Wi_cKyJ-1dGdcqK2PmaS2hPw4YMgWJU9F0M-zO-0q6fU-nfzTaMSWDbgFQtjbJIk4PWqK0YnWi0rZ6e0YWYC4gW5KCrW6iOx09O1E3T7PjBC9tOwtPKRyi_qt8JHY8L3y_A8s6zIgiVfIJ1Nmuo47P9v2wXv7Q2-7XWAF2wQX0wwYjebddzm1jUWpUa788U3SCqDEie1Op8nccz35mxyS8GnBrXs9_0000]--></g></svg>