<svg xmlns="http://www.w3.org/2000/svg" xmlns:xlink="http://www.w3.org/1999/xlink" contentStyleType="text/css" data-diagram-type="MINDMAP" height="490px" preserveAspectRatio="none" style="width:314px;height:490px;background:#FFFFFF;" version="1.1" viewBox="0 0 314 490" width="314px" zoomAndPan="magnify"><defs/><g><rect fill="#ADD8E6" height="38.6211" rx="12.5" ry="12.5" style="stroke:#181818;stroke-width:1.5;" width="35.5723" x="10" y="225.1738"/><text fill="#000000" font-family="sans-serif" font-size="14" lengthAdjust="spacing" textLength="15.5723" x="20" y="250.2813">50</text><rect fill="#90EE90" height="38.6211" rx="12.5" ry="12.5" style="stroke:#181818;stroke-width:1.5;" width="35.5723" x="95.5723" y="107.9316"/><text fill="#000000" font-family="sans-serif" font-size="14" lengthAdjust="spacing" textLength="15.5723" x="105.5723" y="133.0391">30</text><rect fill="#FFFFE0" height="38.6211" rx="12.5" ry="12.5" style="stroke:#181818;stroke-width:1.5;" width="35.5723" x="181.1445" y="49.3105"/><text fill="#000000" font-family="sans-serif" font-size="14" lengthAdjust="spacing" textLength="15.5723" x="191.1445" y="74.418">20</text><rect fill="#FFB6C1" height="38.6211" rx="12.5" ry="12.5" style="stroke:#181818;stroke-width:1.5;" width="35.5723" x="266.7168" y="20"/><text fill="#000000" font-family="sans-serif" font-size="14" lengthAdjust="spacing" textLength="15.5723" x="276.7168" y="45.1074">10</text><path d="M216.7168,68.6211 L226.7168,68.6211 C241.7168,68.6211 241.7168,39.3105 256.7168,39.3105 L266.7168,39.3105" fill="none" style="stroke:#181818;stroke-width:1;"/><rect fill="#FFB6C1" height="38.6211" rx="12.5" ry="12.5" style="stroke:#181818;stroke-width:1.5;" width="35.5723" x="266.7168" y="78.6211"/><text fill="#000000" font-family="sans-serif" font-size="14" lengthAdjust="spacing" textLength="15.5723" x="276.7168" y="103.7285">25</text><path d="M216.7168,68.6211 L226.7168,68.6211 C241.7168,68.6211 241.7168,97.9316 256.7168,97.9316 L266.7168,97.9316" fill="none" style="stroke:#181818;stroke-width:1;"/><path d="M131.1445,127.2422 L141.1445,127.2422 C156.1445,127.2422 156.1445,68.6211 171.1445,68.6211 L181.1445,68.6211" fill="none" style="stroke:#181818;stroke-width:1;"/><rect fill="#FFFFE0" height="38.6211" rx="12.5" ry="12.5" style="stroke:#181818;stroke-width:1.5;" width="35.5723" x="181.1445" y="166.5527"/><text fill="#000000" font-family="sans-serif" font-size="14" lengthAdjust="spacing" textLength="15.5723" x="191.1445" y="191.6602">40</text><rect fill="#FFB6C1" height="38.6211" rx="12.5" ry="12.5" style="stroke:#181818;stroke-width:1.5;" width="35.5723" x="266.7168" y="137.2422"/><text fill="#000000" font-family="sans-serif" font-size="14" lengthAdjust="spacing" textLength="15.5723" x="276.7168" y="162.3496">35</text><path d="M216.7168,185.8633 L226.7168,185.8633 C241.7168,185.8633 241.7168,156.5527 256.7168,156.5527 L266.7168,156.5527" fill="none" style="stroke:#181818;stroke-width:1;"/><rect fill="#FFB6C1" height="38.6211" rx="12.5" ry="12.5" style="stroke:#181818;stroke-width:1.5;" width="35.5723" x="266.7168" y="195.8633"/><text fill="#000000" font-family="sans-serif" font-size="14" lengthAdjust="spacing" textLength="15.5723" x="276.7168" y="220.9707">45</text><path d="M216.7168,185.8633 L226.7168,185.8633 C241.7168,185.8633 241.7168,215.1738 256.7168,215.1738 L266.7168,215.1738" fill="none" style="stroke:#181818;stroke-width:1;"/><path d="M131.1445,127.2422 L141.1445,127.2422 C156.1445,127.2422 156.1445,185.8633 171.1445,185.8633 L181.1445,185.8633" fill="none" style="stroke:#181818;stroke-width:1;"/><path d="M45.5723,244.4844 L55.5723,244.4844 C70.5723,244.4844 70.5723,127.2422 85.5723,127.2422 L95.5723,127.2422" fill="none" style="stroke:#181818;stroke-width:1;"/><rect fill="#90EE90" height="38.6211" rx="12.5" ry="12.5" style="stroke:#181818;stroke-width:1.5;" width="35.5723" x="95.5723" y="342.416"/><text fill="#000000" font-family="sans-serif" font-size="14" lengthAdjust="spacing" textLength="15.5723" x="105.5723" y="367.5234">70</text><rect fill="#FFFFE0" height="38.6211" rx="12.5" ry="12.5" style="stroke:#181818;stroke-width:1.5;" width="35.5723" x="181.1445" y="283.7949"/><text fill="#000000" font-family="sans-serif" font-size="14" lengthAdjust="spacing" textLength="15.5723" x="191.1445" y="308.9023">60</text><rect fill="#FFB6C1" height="38.6211" rx="12.5" ry="12.5" style="stroke:#181818;stroke-width:1.5;" width="35.5723" x="266.7168" y="254.4844"/><text fill="#000000" font-family="sans-serif" font-size="14" lengthAdjust="spacing" textLength="15.5723" x="276.7168" y="279.5918">55</text><path d="M216.7168,303.1055 L226.7168,303.1055 C241.7168,303.1055 241.7168,273.7949 256.7168,273.7949 L266.7168,273.7949" fill="none" style="stroke:#181818;stroke-width:1;"/><rect fill="#FFB6C1" height="38.6211" rx="12.5" ry="12.5" style="stroke:#181818;stroke-width:1.5;" width="35.5723" x="266.7168" y="313.1055"/><text fill="#000000" font-family="sans-serif" font-size="14" lengthAdjust="spacing" textLength="15.5723" x="276.7168" y="338.2129">65</text><path d="M216.7168,303.1055 L226.7168,303.1055 C241.7168,303.1055 241.7168,332.416 256.7168,332.416 L266.7168,332.416" fill="none" style="stroke:#181818;stroke-width:1;"/><path d="M131.1445,361.7266 L141.1445,361.7266 C156.1445,361.7266 156.1445,303.1055 171.1445,303.1055 L181.1445,303.1055" fill="none" style="stroke:#181818;stroke-width:1;"/><rect fill="#FFFFE0" height="38.6211" rx="12.5" ry="12.5" style="stroke:#181818;stroke-width:1.5;" width="35.5723" x="181.1445" y="401.0371"/><text fill="#000000" font-family="sans-serif" font-size="14" lengthAdjust="spacing" textLength="15.5723" x="191.1445" y="426.1445">80</text><rect fill="#FFB6C1" height="38.6211" rx="12.5" ry="12.5" style="stroke:#181818;stroke-width:1.5;" width="35.5723" x="266.7168" y="371.7266"/><text fill="#000000" font-family="sans-serif" font-size="14" lengthAdjust="spacing" textLength="15.5723" x="276.7168" y="396.834">75</text><path d="M216.7168,420.3477 L226.7168,420.3477 C241.7168,420.3477 241.7168,391.0371 256.7168,391.0371 L266.7168,391.0371" fill="none" style="stroke:#181818;stroke-width:1;"/><rect fill="#FFB6C1" height="38.6211" rx="12.5" ry="12.5" style="stroke:#181818;stroke-width:1.5;" width="35.5723" x="266.7168" y="430.3477"/><text fill="#000000" font-family="sans-serif" font-size="14" lengthAdjust="spacing" textLength="15.5723" x="276.7168" y="455.4551">90</text><path d="M216.7168,420.3477 L226.7168,420.3477 C241.7168,420.3477 241.7168,449.6582 256.7168,449.6582 L266.7168,449.6582" fill="none" style="stroke:#181818;stroke-width:1;"/><path d="M131.1445,361.7266 L141.1445,361.7266 C156.1445,361.7266 156.1445,420.3477 171.1445,420.3477 L181.1445,420.3477" fill="none" style="stroke:#181818;stroke-width:1;"/><path d="M45.5723,244.4844 L55.5723,244.4844 C70.5723,244.4844 70.5723,361.7266 85.5723,361.7266 L95.5723,361.7266" fill="none" style="stroke:#181818;stroke-width:1;"/><!--SRC=[VP5DRy8m38Rl-HK-GYLOMre-AZGXof3MhTiqFkw1UYLQcbHfmiGc_ljAcsdYmY5n_Bv-BCkPLPegNJ2H5RGaqqgVEDuJcoyOpHKju8S029bXym2Oq_rdhgGHMIovLC1PVj0xRh1rfSfGjSwErwMDkfH2Nsld-aGPblhGyRgtEkSAKLm3_atWX9pBhsjYS9CecMX7EfFfdTq1SI1qYUF0u78xu3V10Sz6FspamAQ3i8t19SAePORM3AqvR9cnbKTMdhY4pB1UkVq6yiQfq9lq6OweAYO5U7tVzSD-q5bH3OaHu8_1cqJk9F93Y5ThkDXTqaaVrr19e_O86QkqOZkZQxvB4dgay6w4PWL6y5gYI1PFVm8yY2DJKXGeD4cswN_1CEZDcOOLgdeIsAPaWH_KS5qJUvanaKUmMIzxO_9CHMveNlV-Ff2uNgzMfmZYbry0]--></g></svg>