<svg xmlns="http://www.w3.org/2000/svg" xmlns:xlink="http://www.w3.org/1999/xlink" contentStyleType="text/css" data-diagram-type="DESCRIPTION" height="314px" preserveAspectRatio="none" style="width:1158px;height:314px;background:#FFFFFF;" version="1.1" viewBox="0 0 1158 314" width="1158px" zoomAndPan="magnify"><title>Full-Text Index</title><defs/><g><g class="title" data-source-line="6"><text fill="#000000" font-family="Verdana" font-size="22" font-weight="bold" lengthAdjust="spacing" textLength="189.8359" x="479.582" y="37.1182">Full-Text Index</text></g><!--cluster B+Tree Index (Primary Key)--><g class="cluster" data-entity="B.Tree Index .Primary Key." data-source-line="10" data-uid="ent0002" id="cluster_B.Tree Index .Primary Key."><path d="M13.5,58.7373 L207.3438,58.7373 A3.75,3.75 0 0 1 209.8438,61.2373 L216.8438,79.3213 L1148.5,79.3213 A2.5,2.5 0 0 1 1151,81.8213 L1151,305.2373 A2.5,2.5 0 0 1 1148.5,307.7373 L13.5,307.7373 A2.5,2.5 0 0 1 11,305.2373 L11,61.2373 A2.5,2.5 0 0 1 13.5,58.7373" fill="#FFFFFF" style="stroke:#000000;stroke-width:1;"/><line style="stroke:#000000;stroke-width:1;" x1="11" x2="216.8438" y1="79.3213" y2="79.3213"/><text fill="#000000" font-family="Verdana" font-size="12" font-weight="bold" lengthAdjust="spacing" textLength="192.8438" x="15" y="72.8018">B+Tree Index (Primary Key)</text></g><!--entity btree_root--><g class="entity" data-entity="btree_root" data-source-line="11" data-uid="ent0003" id="entity_btree_root"><rect fill="#FFFFFF" height="34.584" rx="2.5" ry="2.5" style="stroke:#000000;stroke-width:1;" width="82.7422" x="33" y="142.2373"/><text fill="#000000" font-family="Verdana" font-size="12" lengthAdjust="spacing" textLength="62.7422" x="43" y="164.3018">Root Node</text></g><g class="entity" data-entity="GMN4" data-source-line="13" data-uid="ent0005" id="entity_GMN4"><path d="M27,212.2373 L27,236.8213 A0,0 0 0 0 27,236.8213 L121.5469,236.8213 A0,0 0 0 0 121.5469,236.8213 L121.5469,222.2373 L111.5469,212.2373 L78.5,212.2373 L74.5,177.3073 L70.5,212.2373 L27,212.2373 A0,0 0 0 0 27,212.2373" fill="#FFFFFF" style="stroke:#000000;stroke-width:1;"/><path d="M111.5469,212.2373 L111.5469,222.2373 L121.5469,222.2373 L111.5469,212.2373" fill="#FFFFFF" style="stroke:#000000;stroke-width:1;"/><text fill="#000000" font-family="Verdana" font-size="12" lengthAdjust="spacing" textLength="73.5469" x="33" y="229.3018">10 | 20 | 30</text></g><!--entity leaf1--><g class="entity" data-entity="leaf1" data-source-line="16" data-uid="ent0007" id="entity_leaf1"><rect fill="#FFFFFF" height="34.584" rx="2.5" ry="2.5" style="stroke:#000000;stroke-width:1;" width="92.2051" x="235" y="256.2373"/><text fill="#000000" font-family="Verdana" font-size="12" lengthAdjust="spacing" textLength="72.2051" x="245" y="278.3018">Leaf Node 1</text></g><!--entity leaf2--><g class="entity" data-entity="leaf2" data-source-line="17" data-uid="ent0008" id="entity_leaf2"><rect fill="#FFFFFF" height="34.584" rx="2.5" ry="2.5" style="stroke:#000000;stroke-width:1;" width="92.2051" x="551" y="239.2373"/><text fill="#000000" font-family="Verdana" font-size="12" lengthAdjust="spacing" textLength="72.2051" x="561" y="261.3018">Leaf Node 2</text></g><!--entity leaf3--><g class="entity" data-entity="leaf3" data-source-line="18" data-uid="ent0009" id="entity_leaf3"><rect fill="#FFFFFF" height="34.584" rx="2.5" ry="2.5" style="stroke:#000000;stroke-width:1;" width="92.2051" x="929" y="256.2373"/><text fill="#000000" font-family="Verdana" font-size="12" lengthAdjust="spacing" textLength="72.2051" x="939" y="278.3018">Leaf Node 3</text></g><g class="entity" data-entity="GMN10" data-source-line="21" data-uid="ent0011" id="entity_GMN10"><path d="M183,196.2373 L183,220.8213 A0,0 0 0 0 183,220.8213 L277,220.8213 L281,256.2173 L285,220.8213 L378.9434,220.8213 A0,0 0 0 0 378.9434,220.8213 L378.9434,206.2373 L368.9434,196.2373 L183,196.2373 A0,0 0 0 0 183,196.2373" fill="#FFFFFF" style="stroke:#000000;stroke-width:1;"/><path d="M368.9434,196.2373 L368.9434,206.2373 L378.9434,206.2373 L368.9434,196.2373" fill="#FFFFFF" style="stroke:#000000;stroke-width:1;"/><text fill="#000000" font-family="Verdana" font-size="12" lengthAdjust="spacing" textLength="174.9434" x="189" y="213.3018">id=5, name="Alice", age=25</text></g><g class="entity" data-entity="GMN13" data-source-line="24" data-uid="ent0014" id="entity_GMN13"><path d="M498,179.2373 L498,203.8213 A0,0 0 0 0 498,203.8213 L593,203.8213 L597,239.2173 L601,203.8213 L696.3691,203.8213 A0,0 0 0 0 696.3691,203.8213 L696.3691,189.2373 L686.3691,179.2373 L498,179.2373 A0,0 0 0 0 498,179.2373" fill="#FFFFFF" style="stroke:#000000;stroke-width:1;"/><path d="M686.3691,179.2373 L686.3691,189.2373 L696.3691,189.2373 L686.3691,179.2373" fill="#FFFFFF" style="stroke:#000000;stroke-width:1;"/><text fill="#000000" font-family="Verdana" font-size="12" lengthAdjust="spacing" textLength="177.3691" x="504" y="196.3018">id=15, name="Bob", age=30</text></g><g class="entity" data-entity="GMN16" data-source-line="27" data-uid="ent0017" id="entity_GMN16"><path d="M871.5,92.2373 L871.5,116.8213 L1078.166,116.8213 L1078.166,102.2373 L1068.166,92.2373 L871.5,92.2373" fill="#FFFFFF" style="stroke:#000000;stroke-width:1;"/><path d="M1068.166,92.2373 L1068.166,102.2373 L1078.166,102.2373 L1068.166,92.2373" fill="#FFFFFF" style="stroke:#000000;stroke-width:1;"/><text fill="#000000" font-family="Verdana" font-size="12" lengthAdjust="spacing" textLength="185.666" x="877.5" y="109.3018">id=25, name="Carol", age=35</text></g><g class="entity" data-entity="GMN24" data-source-line="38" data-uid="ent0025" id="entity_GMN24"><path d="M815,152.7373 L815,221.0732 A0,0 0 0 0 815,221.0732 L971,221.0732 L975,256.0673 L979,221.0732 L1134.8867,221.0732 A0,0 0 0 0 1134.8867,221.0732 L1134.8867,162.7373 L1124.8867,152.7373 L815,152.7373 A0,0 0 0 0 815,152.7373" fill="#FFFFFF" style="stroke:#000000;stroke-width:1;"/><path d="M1124.8867,152.7373 L1124.8867,162.7373 L1134.8867,162.7373 L1124.8867,152.7373" fill="#FFFFFF" style="stroke:#000000;stroke-width:1;"/><text fill="#000000" font-family="Verdana" font-size="12" font-weight="bold" lengthAdjust="spacing" textLength="117.416" x="821" y="169.8018">B+Tree Features:</text><text fill="#000000" font-family="Verdana" font-size="12" lengthAdjust="spacing" textLength="166.002" x="821" y="184.3857">&#8226; Stores complete row data</text><text fill="#000000" font-family="Verdana" font-size="12" lengthAdjust="spacing" textLength="165.5273" x="821" y="198.9697">&#8226; Good for: WHERE id = 15</text><text fill="#000000" font-family="Verdana" font-size="12" lengthAdjust="spacing" textLength="298.8867" x="821" y="213.5537">&#8226; Range queries: WHERE id BETWEEN 10 AND 20</text></g><!--link leaf3 to GMN16--><g class="link" data-entity-1="leaf3" data-entity-2="GMN16" data-source-line="27" data-uid="lnk18" id="link_leaf3_GMN16"><path d="M928.55,277.8373 C876.68,279.5073 794.86,272.8373 755.5,220.2373 C737.39,196.0373 737.39,176.4373 755.5,152.2373 C782.01,116.8073 828.16,103.4573 871.32,99.5673" fill="none" id="leaf3-GMN16" style="stroke:#000000;stroke-width:1;stroke-dasharray:7,7;"/></g><!--link btree_root to leaf1--><g class="link" data-entity-1="btree_root" data-entity-2="leaf1" data-source-line="30" data-uid="lnk19" id="link_btree_root_leaf1"><path d="M99.12,177.3573 C129.38,199.8973 178.5,236.3373 183,238.7373 C199.27,247.4173 212.4695,252.8454 229.2295,258.5454" fill="none" id="btree_root-to-leaf1" style="stroke:#000000;stroke-width:1;"/><polygon fill="#000000" points="234.91,260.4773,227.6772,253.7925,230.1763,258.8674,225.1014,261.3664,234.91,260.4773" style="stroke:#000000;stroke-width:1;"/></g><!--link btree_root to leaf2--><g class="link" data-entity-1="btree_root" data-entity-2="leaf2" data-source-line="31" data-uid="lnk20" id="link_btree_root_leaf2"><path d="M116.24,158.6473 C174.95,157.8973 286.47,159.5373 379,178.7373 C434.06,190.1673 445.08,202.7273 498,221.7373 C515.17,227.9073 528.3991,232.6406 544.9591,238.5506" fill="none" id="btree_root-to-leaf2" style="stroke:#000000;stroke-width:1;"/><polygon fill="#000000" points="550.61,240.5673,543.4781,233.7749,545.9009,238.8867,540.7891,241.3095,550.61,240.5673" style="stroke:#000000;stroke-width:1;"/></g><!--link btree_root to leaf3--><g class="link" data-entity-1="btree_root" data-entity-2="leaf3" data-source-line="32" data-uid="lnk21" id="link_btree_root_leaf3"><path d="M116.25,151.9673 C217.22,134.3973 486,97.8773 696,161.7373 C756.04,179.9973 757.09,213.5573 815,237.7373 C851.83,253.1173 890.3983,261.501 922.9383,266.811" fill="none" id="btree_root-to-leaf3" style="stroke:#000000;stroke-width:1;"/><polygon fill="#000000" points="928.86,267.7773,920.6217,262.38,923.9253,266.972,919.3333,270.2756,928.86,267.7773" style="stroke:#000000;stroke-width:1;"/></g><!--link leaf1 to leaf2--><g class="link" data-entity-1="leaf1" data-entity-2="leaf2" data-source-line="34" data-uid="lnk22" id="link_leaf1_leaf2"><path d="M327.32,271.2873 C387.02,268.0473 485.3887,262.7212 544.9587,259.5012" fill="none" id="leaf1-to-leaf2" style="stroke:#000000;stroke-width:1;"/><polygon fill="#000000" points="550.95,259.1773,541.7472,255.6689,545.9573,259.4472,542.179,263.6573,550.95,259.1773" style="stroke:#000000;stroke-width:1;"/><text fill="#000000" font-family="Verdana" font-size="12" lengthAdjust="spacing" textLength="57.6914" x="410" y="260.8018">linked list</text></g><!--link leaf2 to leaf3--><g class="link" data-entity-1="leaf2" data-entity-2="leaf3" data-source-line="35" data-uid="lnk23" id="link_leaf2_leaf3"><path d="M643.35,258.7873 C715.72,262.0573 850.4961,268.1562 922.7861,271.4262" fill="none" id="leaf2-to-leaf3" style="stroke:#000000;stroke-width:1;"/><polygon fill="#000000" points="928.78,271.6973,919.9699,267.2947,923.7851,271.4714,919.6084,275.2865,928.78,271.6973" style="stroke:#000000;stroke-width:1;"/><text fill="#000000" font-family="Verdana" font-size="12" lengthAdjust="spacing" textLength="57.6914" x="727" y="259.8018">linked list</text></g><!--SRC=[VPBTRjf048NlzobEVTNI8CL6t21HAQIchLgXYY3bibhZCQnOxxZBM4dw8-LP-cXzaYuE68YStjZop7VEpXplArbJIQYiDavjDyPLskiIcLvkLfvhbr-pPO-xjH4wwUTKwDhAb9qy0PaDYcxWnlmWn8bIOiGIfhMr_GNT2pwvdEwLibG8XE7DQYt8ZQUb67PALS5IhmZHvEt24ptnUFtLcrBx1tocXpSHVYfWfz1k5SoZERDWnZb5q5ja4dJVVAW5oh5GEAS25-SD8Bx4BoIxn-0o5CZb3QtElR-GBXfln8sx3T_nIqZI8ibBoA151kemNyOYNEv6FBW39XyFB-1qIUFeofebHHS8kOoJuUcidGR9mI1k7IQSxVNdktRg1mTzqkgljMTxS1W-I-kOA_hzT-qE7UMakzmaqSYE94Qmncqe3w-jxFl9KVAi_xzDUhtzNPgIbjhJTjJhDOs_Ztzm8nmgM79PMGe6dk-GQz4jy84vHy5-XDkFwJmDkM2CUDZsv-4N4xxNv4rmFaAJT76RfhFTDRkQlGyNxJIrt_y0]--></g></svg>