<svg xmlns="http://www.w3.org/2000/svg" xmlns:xlink="http://www.w3.org/1999/xlink" contentStyleType="text/css" data-diagram-type="DESCRIPTION" height="601px" preserveAspectRatio="none" style="width:784px;height:601px;background:#FFFFFF;" version="1.1" viewBox="0 0 784 601" width="784px" zoomAndPan="magnify"><title>Secondary Index vs Clustered Index Structure</title><defs/><g><g class="title" data-source-line="3"><text fill="#000000" font-family="Verdana" font-size="22" font-weight="bold" lengthAdjust="spacing" textLength="573.1924" x="100.9038" y="37.1182">Secondary Index vs Clustered Index Structure</text></g><!--cluster Secondary Index: idx_AB (A, B)--><g class="cluster" data-entity="Secondary Index. idx_AB .A. B." data-source-line="5" data-uid="ent0002" id="cluster_Secondary Index. idx_AB .A. B."><path d="M13.5,58.7373 L264.8525,58.7373 A3.75,3.75 0 0 1 267.3525,61.2373 L274.3525,81.752 L774.5,81.752 A2.5,2.5 0 0 1 777,84.252 L777,592.2373 A2.5,2.5 0 0 1 774.5,594.7373 L13.5,594.7373 A2.5,2.5 0 0 1 11,592.2373 L11,61.2373 A2.5,2.5 0 0 1 13.5,58.7373" fill="#FFFFFF" style="stroke:#000000;stroke-width:1;"/><line style="stroke:#000000;stroke-width:1;" x1="11" x2="274.3525" y1="81.752" y2="81.752"/><text fill="#000000" font-family="Verdana" font-size="14" font-weight="bold" lengthAdjust="spacing" textLength="250.3525" x="15" y="74.8125">Secondary Index: idx_AB (A, B)</text></g><!--cluster Root Page--><g class="cluster" data-entity="Root Page" data-source-line="6" data-uid="ent0003" id="cluster_Root Page"><rect fill="#FFFFFF" height="140" rx="2.5" ry="2.5" style="stroke:#000000;stroke-width:1;" width="154" x="406" y="102.7373"/><text fill="#000000" font-family="Verdana" font-size="14" font-weight="bold" lengthAdjust="spacing" textLength="80.0352" x="442.9824" y="118.8125">Root Page</text></g><!--cluster Internal Pages--><g class="cluster" data-entity="Internal Pages" data-source-line="10" data-uid="ent0005" id="cluster_Internal Pages"><rect fill="#FFFFFF" height="140" rx="2.5" ry="2.5" style="stroke:#000000;stroke-width:1;" width="532" x="217" y="266.7373"/><text fill="#000000" font-family="Verdana" font-size="14" font-weight="bold" lengthAdjust="spacing" textLength="116.1494" x="424.9253" y="282.8125">Internal Pages</text></g><!--cluster Leaf Pages (Index Data Only)--><g class="cluster" data-entity="Leaf Pages .Index Data Only." data-source-line="16" data-uid="ent0009" id="cluster_Leaf Pages .Index Data Only."><rect fill="#FFFFFF" height="140" rx="2.5" ry="2.5" style="stroke:#000000;stroke-width:1;" width="718" x="35" y="430.7373"/><text fill="#000000" font-family="Verdana" font-size="14" font-weight="bold" lengthAdjust="spacing" textLength="233.3857" x="277.3071" y="446.8125">Leaf Pages (Index Data Only)</text></g><!--entity sec_root--><g class="entity" data-entity="sec_root" data-source-line="7" data-uid="ent0004" id="entity_sec_root"><rect fill="#FFFFFF" height="88.0586" rx="2.5" ry="2.5" style="stroke:#000000;stroke-width:1;" width="121.5342" x="422" y="138.7373"/><text fill="#000000" font-family="Verdana" font-size="14" lengthAdjust="spacing" textLength="101.5342" x="432" y="162.8125">Keys: (A=2,*)</text><text fill="#000000" font-family="Verdana" font-size="14" lengthAdjust="spacing" textLength="56.6357" x="432" y="179.8271">(A=4,*)</text><text fill="#000000" font-family="Verdana" font-size="14" lengthAdjust="spacing" textLength="63.123" x="432" y="196.8418">Pointers:</text><text fill="#000000" font-family="Verdana" font-size="14" lengthAdjust="spacing" textLength="64.7432" x="432" y="213.8564">P1|P2|P3</text></g><!--entity sec_internal3--><g class="entity" data-entity="sec_internal3" data-source-line="11" data-uid="ent0006" id="entity_sec_internal3"><rect fill="#FFFFFF" height="88.0586" rx="2.5" ry="2.5" style="stroke:#000000;stroke-width:1;" width="142.5889" x="589.5" y="302.7373"/><text fill="#000000" font-family="Verdana" font-size="14" lengthAdjust="spacing" textLength="122.5889" x="599.5" y="326.8125">Keys: (A=4,B=2)</text><text fill="#000000" font-family="Verdana" font-size="14" lengthAdjust="spacing" textLength="77.6904" x="599.5" y="343.8271">(A=5,B=1)</text><text fill="#000000" font-family="Verdana" font-size="14" lengthAdjust="spacing" textLength="63.123" x="599.5" y="360.8418">Pointers:</text><text fill="#000000" font-family="Verdana" font-size="14" lengthAdjust="spacing" textLength="91.4443" x="599.5" y="377.8564">P10|P11|P12</text></g><!--entity sec_internal2--><g class="entity" data-entity="sec_internal2" data-source-line="12" data-uid="ent0007" id="entity_sec_internal2"><rect fill="#FFFFFF" height="88.0586" rx="2.5" ry="2.5" style="stroke:#000000;stroke-width:1;" width="142.5889" x="411.5" y="302.7373"/><text fill="#000000" font-family="Verdana" font-size="14" lengthAdjust="spacing" textLength="122.5889" x="421.5" y="326.8125">Keys: (A=2,B=2)</text><text fill="#000000" font-family="Verdana" font-size="14" lengthAdjust="spacing" textLength="77.6904" x="421.5" y="343.8271">(A=3,B=3)</text><text fill="#000000" font-family="Verdana" font-size="14" lengthAdjust="spacing" textLength="63.123" x="421.5" y="360.8418">Pointers:</text><text fill="#000000" font-family="Verdana" font-size="14" lengthAdjust="spacing" textLength="64.7432" x="421.5" y="377.8564">P7|P8|P9</text></g><!--entity sec_internal1--><g class="entity" data-entity="sec_internal1" data-source-line="13" data-uid="ent0008" id="entity_sec_internal1"><rect fill="#FFFFFF" height="88.0586" rx="2.5" ry="2.5" style="stroke:#000000;stroke-width:1;" width="142.5889" x="233.5" y="302.7373"/><text fill="#000000" font-family="Verdana" font-size="14" lengthAdjust="spacing" textLength="122.5889" x="243.5" y="326.8125">Keys: (A=1,B=2)</text><text fill="#000000" font-family="Verdana" font-size="14" lengthAdjust="spacing" textLength="77.6904" x="243.5" y="343.8271">(A=1,B=4)</text><text fill="#000000" font-family="Verdana" font-size="14" lengthAdjust="spacing" textLength="63.123" x="243.5" y="360.8418">Pointers:</text><text fill="#000000" font-family="Verdana" font-size="14" lengthAdjust="spacing" textLength="64.7432" x="243.5" y="377.8564">P4|P5|P6</text></g><!--entity sec_leaf1--><g class="entity" data-entity="sec_leaf1" data-source-line="17" data-uid="ent0010" id="entity_sec_leaf1"><rect fill="#FFFFFF" height="88.0586" rx="2.5" ry="2.5" style="stroke:#000000;stroke-width:1;" width="144.6055" x="51.5" y="466.7373"/><text fill="#000000" font-family="Verdana" font-size="14" lengthAdjust="spacing" textLength="124.6055" x="61.5" y="490.8125">(A=1,B=1,id=10)</text><text fill="#000000" font-family="Verdana" font-size="14" lengthAdjust="spacing" textLength="124.6055" x="61.5" y="507.8271">(A=1,B=2,id=25)</text><text fill="#000000" font-family="Verdana" font-size="14" lengthAdjust="spacing" textLength="124.6055" x="61.5" y="524.8418">(A=1,B=3,id=33)</text><text fill="#000000" font-family="Verdana" font-size="14" lengthAdjust="spacing" textLength="114.502" x="61.5" y="541.8564">&#8594;PK References</text></g><!--entity sec_leaf2--><g class="entity" data-entity="sec_leaf2" data-source-line="18" data-uid="ent0011" id="entity_sec_leaf2"><rect fill="#FFFFFF" height="88.0586" rx="2.5" ry="2.5" style="stroke:#000000;stroke-width:1;" width="144.6055" x="231.5" y="466.7373"/><text fill="#000000" font-family="Verdana" font-size="14" lengthAdjust="spacing" textLength="124.6055" x="241.5" y="490.8125">(A=1,B=4,id=45)</text><text fill="#000000" font-family="Verdana" font-size="14" lengthAdjust="spacing" textLength="124.6055" x="241.5" y="507.8271">(A=2,B=1,id=12)</text><text fill="#000000" font-family="Verdana" font-size="14" lengthAdjust="spacing" textLength="124.6055" x="241.5" y="524.8418">(A=2,B=2,id=28)</text><text fill="#000000" font-family="Verdana" font-size="14" lengthAdjust="spacing" textLength="114.502" x="241.5" y="541.8564">&#8594;PK References</text></g><!--entity sec_leaf3--><g class="entity" data-entity="sec_leaf3" data-source-line="19" data-uid="ent0012" id="entity_sec_leaf3"><rect fill="#FFFFFF" height="88.0586" rx="2.5" ry="2.5" style="stroke:#000000;stroke-width:1;" width="144.6055" x="411.5" y="466.7373"/><text fill="#000000" font-family="Verdana" font-size="14" lengthAdjust="spacing" textLength="124.6055" x="421.5" y="490.8125">(A=2,B=3,id=37)</text><text fill="#000000" font-family="Verdana" font-size="14" lengthAdjust="spacing" textLength="124.6055" x="421.5" y="507.8271">(A=3,B=1,id=19)</text><text fill="#000000" font-family="Verdana" font-size="14" lengthAdjust="spacing" textLength="124.6055" x="421.5" y="524.8418">(A=3,B=2,id=42)</text><text fill="#000000" font-family="Verdana" font-size="14" lengthAdjust="spacing" textLength="114.502" x="421.5" y="541.8564">&#8594;PK References</text></g><!--entity sec_leaf4--><g class="entity" data-entity="sec_leaf4" data-source-line="20" data-uid="ent0013" id="entity_sec_leaf4"><rect fill="#FFFFFF" height="88.0586" rx="2.5" ry="2.5" style="stroke:#000000;stroke-width:1;" width="144.6055" x="591.5" y="466.7373"/><text fill="#000000" font-family="Verdana" font-size="14" lengthAdjust="spacing" textLength="124.6055" x="601.5" y="490.8125">(A=3,B=3,id=51)</text><text fill="#000000" font-family="Verdana" font-size="14" lengthAdjust="spacing" textLength="124.6055" x="601.5" y="507.8271">(A=4,B=1,id=15)</text><text fill="#000000" font-family="Verdana" font-size="14" lengthAdjust="spacing" textLength="124.6055" x="601.5" y="524.8418">(A=4,B=2,id=39)</text><text fill="#000000" font-family="Verdana" font-size="14" lengthAdjust="spacing" textLength="114.502" x="601.5" y="541.8564">&#8594;PK References</text></g><!--link sec_root to sec_internal1--><g class="link" data-entity-1="sec_root" data-entity-2="sec_internal1" data-source-line="24" data-uid="lnk14" id="link_sec_root_sec_internal1"><path d="M430.21,227.1273 C418.16,237.3273 405.52,248.2773 394,258.7373 C378.64,272.6773 366.568,284.1903 352.118,298.4003" fill="none" id="sec_root-to-sec_internal1" style="stroke:#000000;stroke-width:1;"/><polygon fill="#000000" points="347.84,302.6073,357.0617,299.1489,351.405,299.1015,351.4524,293.4448,347.84,302.6073" style="stroke:#000000;stroke-width:1;"/></g><!--link sec_root to sec_internal2--><g class="link" data-entity-1="sec_root" data-entity-2="sec_internal2" data-source-line="25" data-uid="lnk15" id="link_sec_root_sec_internal2"><path d="M483,227.1473 C483,250.4873 483,273.1773 483,296.4873" fill="none" id="sec_root-to-sec_internal2" style="stroke:#000000;stroke-width:1;"/><polygon fill="#000000" points="483,302.4873,487,293.4873,483,297.4873,479,293.4873,483,302.4873" style="stroke:#000000;stroke-width:1;"/></g><!--link sec_root to sec_internal3--><g class="link" data-entity-1="sec_root" data-entity-2="sec_internal3" data-source-line="26" data-uid="lnk16" id="link_sec_root_sec_internal3"><path d="M535.79,227.1273 C547.84,237.3273 560.48,248.2773 572,258.7373 C587.36,272.6773 599.432,284.1903 613.882,298.4003" fill="none" id="sec_root-to-sec_internal3" style="stroke:#000000;stroke-width:1;"/><polygon fill="#000000" points="618.16,302.6073,614.5476,293.4448,614.595,299.1015,608.9383,299.1489,618.16,302.6073" style="stroke:#000000;stroke-width:1;"/></g><!--link sec_internal1 to sec_leaf1--><g class="link" data-entity-1="sec_internal1" data-entity-2="sec_leaf1" data-source-line="28" data-uid="lnk17" id="link_sec_internal1_sec_leaf1"><path d="M250.99,391.0673 C238.68,401.2673 225.76,412.2373 214,422.7373 C198.44,436.6373 186.1897,448.1525 171.5897,462.3625" fill="none" id="sec_internal1-to-sec_leaf1" style="stroke:#000000;stroke-width:1;"/><polygon fill="#000000" points="167.29,466.5473,176.5294,463.1365,170.8731,463.06,170.9496,457.4036,167.29,466.5473" style="stroke:#000000;stroke-width:1;"/></g><!--link sec_internal1 to sec_leaf2--><g class="link" data-entity-1="sec_internal1" data-entity-2="sec_leaf2" data-source-line="29" data-uid="lnk18" id="link_sec_internal1_sec_leaf2"><path d="M304.73,391.1473 C304.59,414.4873 304.446,437.1774 304.306,460.4874" fill="none" id="sec_internal1-to-sec_leaf2" style="stroke:#000000;stroke-width:1;"/><polygon fill="#000000" points="304.27,466.4873,308.324,457.5115,304.3,461.4874,300.3241,457.4634,304.27,466.4873" style="stroke:#000000;stroke-width:1;"/></g><!--link sec_internal2 to sec_leaf3--><g class="link" data-entity-1="sec_internal2" data-entity-2="sec_leaf3" data-source-line="30" data-uid="lnk19" id="link_sec_internal2_sec_leaf3"><path d="M483.27,391.1473 C483.41,414.4873 483.554,437.1774 483.694,460.4874" fill="none" id="sec_internal2-to-sec_leaf3" style="stroke:#000000;stroke-width:1;"/><polygon fill="#000000" points="483.73,466.4873,487.6759,457.4634,483.7,461.4874,479.676,457.5115,483.73,466.4873" style="stroke:#000000;stroke-width:1;"/></g><!--link sec_internal2 to sec_leaf4--><g class="link" data-entity-1="sec_internal2" data-entity-2="sec_leaf4" data-source-line="31" data-uid="lnk20" id="link_sec_internal2_sec_leaf4"><path d="M537.01,391.0673 C549.32,401.2673 562.24,412.2373 574,422.7373 C589.56,436.6373 601.8103,448.1525 616.4103,462.3625" fill="none" id="sec_internal2-to-sec_leaf4" style="stroke:#000000;stroke-width:1;"/><polygon fill="#000000" points="620.71,466.5473,617.0504,457.4036,617.1269,463.06,611.4706,463.1365,620.71,466.5473" style="stroke:#000000;stroke-width:1;"/></g><!--link sec_leaf1 to sec_leaf2--><g class="link" data-entity-1="sec_leaf1" data-entity-2="sec_leaf2" data-source-line="34" data-uid="lnk21" id="link_sec_leaf1_sec_leaf2"><path d="M196.77,510.7373 C208.22,510.7373 213.67,510.7373 225.12,510.7373" fill="none" id="sec_leaf1-to-sec_leaf2" style="stroke:#000000;stroke-width:1;"/><polygon fill="#000000" points="231.12,510.7373,222.12,506.7373,226.12,510.7373,222.12,514.7373,231.12,510.7373" style="stroke:#000000;stroke-width:1;"/></g><!--link sec_leaf2 to sec_leaf3--><g class="link" data-entity-1="sec_leaf2" data-entity-2="sec_leaf3" data-source-line="35" data-uid="lnk22" id="link_sec_leaf2_sec_leaf3"><path d="M376.77,510.7373 C388.22,510.7373 393.67,510.7373 405.12,510.7373" fill="none" id="sec_leaf2-to-sec_leaf3" style="stroke:#000000;stroke-width:1;"/><polygon fill="#000000" points="411.12,510.7373,402.12,506.7373,406.12,510.7373,402.12,514.7373,411.12,510.7373" style="stroke:#000000;stroke-width:1;"/></g><!--link sec_leaf3 to sec_leaf4--><g class="link" data-entity-1="sec_leaf3" data-entity-2="sec_leaf4" data-source-line="36" data-uid="lnk23" id="link_sec_leaf3_sec_leaf4"><path d="M556.77,510.7373 C568.22,510.7373 573.67,510.7373 585.12,510.7373" fill="none" id="sec_leaf3-to-sec_leaf4" style="stroke:#000000;stroke-width:1;"/><polygon fill="#000000" points="591.12,510.7373,582.12,506.7373,586.12,510.7373,582.12,514.7373,591.12,510.7373" style="stroke:#000000;stroke-width:1;"/></g><!--SRC=[XPHBJkD048RtFaMHpP1H8j4F3oHIHYB31e54AymI2RNi9hJmj96x0qIOBGVWY9naoczYctXN-glg_yfLdHouU_LFmMCajV4yfrsau5e5iGbbieLp4weNUBBm9zfOfn8LbjArIpQ1soJAynvby23N2aQjjZdeyENsT0c7fnDOZaVmwW4aAd3Ih14oMiMn0u6THMOdTw6sTewD2phvERun6F0y4B4sE8QTOqXIGLF1HY0jM1NS9kY7Fc_UBkOyQp0oob5s7ujFbWjQq7mCIPjtb0g2K49hf2wzsPxvQq-68Mjv7gVY91MpZY7zrf0qXbd8MuOy5NugVdKCISzcBfMyAxO2XyLLpwIJS6MYxRXdJoMHJ7Iu84VD23GJgDy8B1DOzgcVxn_Y0bRg3b-E2RBjbsD5Y2RV07ZMpai_MXDf8nJ4ao40xG7GUhxZvYe5ODO8EO3J8G3h0R0Au9FguLO0ln5o09iD0NXrjH_mDr4AyFTbaAPZOr6i7ZrCm_ZPJ7zt3hwtW0uLCA-ig2rtogeJxg-WhGhQgM235RpOGFvS8sqUy4yeqjQLVVaSC4tq-jxrWFEucsPVqgoRvjxRVm00]--></g></svg>