<svg xmlns="http://www.w3.org/2000/svg" xmlns:xlink="http://www.w3.org/1999/xlink" contentStyleType="text/css" height="1135px" preserveAspectRatio="none" style="width:562px;height:1135px;background:#FEFEFE;" version="1.1" viewBox="0 0 562 1135" width="562px" zoomAndPan="magnify"><title>Semi-Sync Timeout and Degradation</title><defs/><g><rect fill="#FEFEFE" height="1135" style="stroke:none;stroke-width:1.0;" width="562" x="0" y="0"/><text fill="#000000" font-family="Arial" font-size="22" font-weight="bold" lengthAdjust="spacing" textLength="383.8398" x="87.9839" y="35.6357">Semi-Sync Timeout and Degradation</text><line style="stroke:#000000;stroke-width:1.0;" x1="42" x2="42" y1="80.0967" y2="1102.458"/><line style="stroke:#000000;stroke-width:1.0;" x1="160.0283" x2="160.0283" y1="80.0967" y2="1102.458"/><line style="stroke:#000000;stroke-width:1.0;" x1="408.1104" x2="408.1104" y1="80.0967" y2="1102.458"/><line style="stroke:#000000;stroke-width:1.0;" x1="500.1279" x2="500.1279" y1="80.0967" y2="1102.458"/><rect fill="#FFFFFF" height="27.7988" rx="2.5" ry="2.5" style="stroke:#000000;stroke-width:1.0;" width="44.6797" x="20" y="51.2979"/><text fill="#000000" font-family="Arial" font-size="12" lengthAdjust="spacing" textLength="30.6797" x="27" y="69.5537">Client</text><rect fill="#FFFFFF" height="27.7988" rx="2.5" ry="2.5" style="stroke:#000000;stroke-width:1.0;" width="44.6797" x="20" y="1101.458"/><text fill="#000000" font-family="Arial" font-size="12" lengthAdjust="spacing" textLength="30.6797" x="27" y="1119.7139">Client</text><rect fill="#FFFFFF" height="27.7988" rx="2.5" ry="2.5" style="stroke:#000000;stroke-width:1.0;" width="50.6738" x="135.0283" y="51.2979"/><text fill="#000000" font-family="Arial" font-size="12" lengthAdjust="spacing" textLength="36.6738" x="142.0283" y="69.5537">Master</text><rect fill="#FFFFFF" height="27.7988" rx="2.5" ry="2.5" style="stroke:#000000;stroke-width:1.0;" width="50.6738" x="135.0283" y="1101.458"/><text fill="#000000" font-family="Arial" font-size="12" lengthAdjust="spacing" textLength="36.6738" x="142.0283" y="1119.7139">Master</text><rect fill="#FFFFFF" height="27.7988" rx="2.5" ry="2.5" style="stroke:#000000;stroke-width:1.0;" width="44.0176" x="386.1104" y="51.2979"/><text fill="#000000" font-family="Arial" font-size="12" lengthAdjust="spacing" textLength="30.0176" x="393.1104" y="69.5537">Slave</text><rect fill="#FFFFFF" height="27.7988" rx="2.5" ry="2.5" style="stroke:#000000;stroke-width:1.0;" width="44.0176" x="386.1104" y="1101.458"/><text fill="#000000" font-family="Arial" font-size="12" lengthAdjust="spacing" textLength="30.0176" x="393.1104" y="1119.7139">Slave</text><rect fill="#FFFFFF" height="27.7988" rx="2.5" ry="2.5" style="stroke:#000000;stroke-width:1.0;" width="80.6797" x="460.1279" y="51.2979"/><text fill="#000000" font-family="Arial" font-size="12" lengthAdjust="spacing" textLength="66.6797" x="467.1279" y="69.5537">&#160;&#160;&#160;&#160;&#160;&#160;&#160;&#160;&#160;&#160;&#160;&#160;&#160;&#160;&#160;&#160;&#160;&#160;&#160;&#160;</text><rect fill="#FFFFFF" height="27.7988" rx="2.5" ry="2.5" style="stroke:#000000;stroke-width:1.0;" width="80.6797" x="460.1279" y="1101.458"/><text fill="#000000" font-family="Arial" font-size="12" lengthAdjust="spacing" textLength="66.6797" x="467.1279" y="1119.7139">&#160;&#160;&#160;&#160;&#160;&#160;&#160;&#160;&#160;&#160;&#160;&#160;&#160;&#160;&#160;&#160;&#160;&#160;&#160;&#160;</text><rect fill="#FFFFFF" height="3" style="stroke:#FFFFFF;stroke-width:1.0;" width="550.8076" x="5" y="109.9961"/><line style="stroke:#000000;stroke-width:0.5;" x1="5" x2="555.8076" y1="109.9961" y2="109.9961"/><line style="stroke:#000000;stroke-width:0.5;" x1="5" x2="555.8076" y1="112.9961" y2="112.9961"/><rect fill="#FFFFFF" height="21.7988" style="stroke:#000000;stroke-width:1.0;" width="123.3711" x="218.7183" y="100.0967"/><text fill="#000000" font-family="Arial" font-size="12" font-weight="bold" lengthAdjust="spacing" textLength="106.0371" x="224.7183" y="115.3525">Normal Semi-Sync</text><polygon fill="#000000" points="148.3652,147.6943,158.3652,151.6943,148.3652,155.6943,152.3652,151.6943" style="stroke:#000000;stroke-width:1.0;"/><line style="stroke:#000000;stroke-width:1.0;" x1="42.3398" x2="154.3652" y1="151.6943" y2="151.6943"/><text fill="#000000" font-family="Arial" font-size="12" lengthAdjust="spacing" textLength="94.0254" x="54.3398" y="147.1514">Write Transaction</text><line style="stroke:#000000;stroke-width:1.0;" x1="160.3652" x2="202.3652" y1="179.4932" y2="179.4932"/><line style="stroke:#000000;stroke-width:1.0;" x1="202.3652" x2="202.3652" y1="179.4932" y2="192.4932"/><line style="stroke:#000000;stroke-width:1.0;" x1="161.3652" x2="202.3652" y1="192.4932" y2="192.4932"/><polygon fill="#000000" points="171.3652,188.4932,161.3652,192.4932,171.3652,196.4932,167.3652,192.4932" style="stroke:#000000;stroke-width:1.0;"/><text fill="#000000" font-family="Arial" font-size="12" lengthAdjust="spacing" textLength="78.0293" x="167.3652" y="174.9502">Write to Binlog</text><polygon fill="#000000" points="396.1191,216.292,406.1191,220.292,396.1191,224.292,400.1191,220.292" style="stroke:#000000;stroke-width:1.0;"/><line style="stroke:#000000;stroke-width:1.0;" x1="160.3652" x2="402.1191" y1="220.292" y2="220.292"/><text fill="#000000" font-family="Arial" font-size="12" lengthAdjust="spacing" textLength="64.7168" x="251.8838" y="215.749">Send Binlog</text><polygon fill="#000000" points="171.3652,244.0908,161.3652,248.0908,171.3652,252.0908,167.3652,248.0908" style="stroke:#000000;stroke-width:1.0;"/><line style="stroke:#000000;stroke-width:1.0;stroke-dasharray:2.0,2.0;" x1="165.3652" x2="407.1191" y1="248.0908" y2="248.0908"/><text fill="#000000" font-family="Arial" font-size="12" lengthAdjust="spacing" textLength="73.3652" x="247.5596" y="243.5479">ACK received</text><line style="stroke:#000000;stroke-width:1.0;" x1="160.3652" x2="202.3652" y1="275.8896" y2="275.8896"/><line style="stroke:#000000;stroke-width:1.0;" x1="202.3652" x2="202.3652" y1="275.8896" y2="288.8896"/><line style="stroke:#000000;stroke-width:1.0;" x1="161.3652" x2="202.3652" y1="288.8896" y2="288.8896"/><polygon fill="#000000" points="171.3652,284.8896,161.3652,288.8896,171.3652,292.8896,167.3652,288.8896" style="stroke:#000000;stroke-width:1.0;"/><text fill="#000000" font-family="Arial" font-size="12" lengthAdjust="spacing" textLength="98.0332" x="167.3652" y="271.3467">Commit to InnoDB</text><polygon fill="#000000" points="53.3398,312.6885,43.3398,316.6885,53.3398,320.6885,49.3398,316.6885" style="stroke:#000000;stroke-width:1.0;"/><line style="stroke:#000000;stroke-width:1.0;stroke-dasharray:2.0,2.0;" x1="47.3398" x2="159.3652" y1="316.6885" y2="316.6885"/><text fill="#000000" font-family="Arial" font-size="12" lengthAdjust="spacing" textLength="84.7031" x="59.001" y="312.1455">Return Success</text><rect fill="#FFFFFF" height="3" style="stroke:#FFFFFF;stroke-width:1.0;" width="550.8076" x="5" y="344.5879"/><line style="stroke:#000000;stroke-width:0.5;" x1="5" x2="555.8076" y1="344.5879" y2="344.5879"/><line style="stroke:#000000;stroke-width:0.5;" x1="5" x2="555.8076" y1="347.5879" y2="347.5879"/><rect fill="#FFFFFF" height="21.7988" style="stroke:#000000;stroke-width:1.0;" width="188.7266" x="186.0405" y="334.6885"/><text fill="#000000" font-family="Arial" font-size="12" font-weight="bold" lengthAdjust="spacing" textLength="171.3926" x="192.0405" y="349.9443">Slave Dies - Timeout Scenario</text><polygon fill="#000000" points="148.3652,382.2861,158.3652,386.2861,148.3652,390.2861,152.3652,386.2861" style="stroke:#000000;stroke-width:1.0;"/><line style="stroke:#000000;stroke-width:1.0;" x1="42.3398" x2="154.3652" y1="386.2861" y2="386.2861"/><text fill="#000000" font-family="Arial" font-size="12" lengthAdjust="spacing" textLength="94.0254" x="54.3398" y="381.7432">Write Transaction</text><line style="stroke:#000000;stroke-width:1.0;" x1="160.3652" x2="202.3652" y1="414.085" y2="414.085"/><line style="stroke:#000000;stroke-width:1.0;" x1="202.3652" x2="202.3652" y1="414.085" y2="427.085"/><line style="stroke:#000000;stroke-width:1.0;" x1="161.3652" x2="202.3652" y1="427.085" y2="427.085"/><polygon fill="#000000" points="171.3652,423.085,161.3652,427.085,171.3652,431.085,167.3652,427.085" style="stroke:#000000;stroke-width:1.0;"/><text fill="#000000" font-family="Arial" font-size="12" lengthAdjust="spacing" textLength="78.0293" x="167.3652" y="409.542">Write to Binlog</text><line style="stroke:#000000;stroke-width:2.0;" x1="390.1191" x2="400.1191" y1="449.8838" y2="459.8838"/><line style="stroke:#000000;stroke-width:2.0;" x1="390.1191" x2="400.1191" y1="459.8838" y2="449.8838"/><line style="stroke:#000000;stroke-width:1.0;" x1="160.3652" x2="395.1191" y1="454.8838" y2="454.8838"/><text fill="#000000" font-family="Arial" font-size="12" lengthAdjust="spacing" textLength="108.7266" x="229.8789" y="450.3408">Send Binlog (Failed)</text><path d="M413,467.8838 L413,532.8838 L536,532.8838 L536,477.8838 L526,467.8838 L413,467.8838 " fill="#FFA500" style="stroke:#000000;stroke-width:1.0;"/><path d="M526,467.8838 L526,477.8838 L536,477.8838 L526,467.8838 " fill="#FFA500" style="stroke:#000000;stroke-width:1.0;"/><text fill="#000000" font-family="Arial" font-size="12" lengthAdjust="spacing" textLength="102.7383" x="419" y="484.1396">Slave unreachable:</text><text fill="#000000" font-family="Arial" font-size="12" lengthAdjust="spacing" textLength="91.3652" x="419" y="497.9385">- Network broken</text><text fill="#000000" font-family="Arial" font-size="12" lengthAdjust="spacing" textLength="83.373" x="419" y="511.7373">- Slave crashed</text><text fill="#000000" font-family="Arial" font-size="12" lengthAdjust="spacing" textLength="66.6797" x="419" y="525.5361">- Disk failure</text><line style="stroke:#000000;stroke-width:1.0;" x1="160.3652" x2="202.3652" y1="557.8779" y2="557.8779"/><line style="stroke:#000000;stroke-width:1.0;" x1="202.3652" x2="202.3652" y1="557.8779" y2="570.8779"/><line style="stroke:#000000;stroke-width:1.0;" x1="161.3652" x2="202.3652" y1="570.8779" y2="570.8779"/><polygon fill="#000000" points="171.3652,566.8779,161.3652,570.8779,171.3652,574.8779,167.3652,570.8779" style="stroke:#000000;stroke-width:1.0;"/><text fill="#000000" font-family="Arial" font-size="12" lengthAdjust="spacing" textLength="95.3613" x="167.3652" y="553.335">Waiting for ACK...</text><path d="M165,583.8779 L165,620.8779 L352,620.8779 L352,593.8779 L342,583.8779 L165,583.8779 " fill="#FFFFFF" style="stroke:#000000;stroke-width:1.0;"/><path d="M342,583.8779 L342,593.8779 L352,593.8779 L342,583.8779 " fill="#FFFFFF" style="stroke:#000000;stroke-width:1.0;"/><text fill="#000000" font-family="Arial" font-size="12" lengthAdjust="spacing" textLength="166.0664" x="171" y="600.1338">rpl_semi_sync_master_timeout</text><text fill="#000000" font-family="Arial" font-size="12" lengthAdjust="spacing" textLength="112.0664" x="171" y="613.9326">(default: 10 seconds)</text><line style="stroke:#000000;stroke-width:1.0;" x1="160.3652" x2="202.3652" y1="646.2744" y2="646.2744"/><line style="stroke:#000000;stroke-width:1.0;" x1="202.3652" x2="202.3652" y1="646.2744" y2="659.2744"/><line style="stroke:#000000;stroke-width:1.0;" x1="161.3652" x2="202.3652" y1="659.2744" y2="659.2744"/><polygon fill="#000000" points="171.3652,655.2744,161.3652,659.2744,171.3652,663.2744,167.3652,659.2744" style="stroke:#000000;stroke-width:1.0;"/><text fill="#000000" font-family="Arial" font-size="12" lengthAdjust="spacing" textLength="120.7207" x="167.3652" y="641.7314">Timeout reached (10s)</text><line style="stroke:#000000;stroke-width:1.0;" x1="160.3652" x2="202.3652" y1="687.0732" y2="687.0732"/><line style="stroke:#000000;stroke-width:1.0;" x1="202.3652" x2="202.3652" y1="687.0732" y2="700.0732"/><line style="stroke:#000000;stroke-width:1.0;" x1="161.3652" x2="202.3652" y1="700.0732" y2="700.0732"/><polygon fill="#000000" points="171.3652,696.0732,161.3652,700.0732,171.3652,704.0732,167.3652,700.0732" style="stroke:#000000;stroke-width:1.0;"/><text fill="#000000" font-family="Arial" font-size="12" font-weight="bold" lengthAdjust="spacing" textLength="136.6934" x="167.3652" y="682.5303">Degrade to Async Mode</text><line style="stroke:#000000;stroke-width:1.0;" x1="160.3652" x2="202.3652" y1="727.8721" y2="727.8721"/><line style="stroke:#000000;stroke-width:1.0;" x1="202.3652" x2="202.3652" y1="727.8721" y2="740.8721"/><line style="stroke:#000000;stroke-width:1.0;" x1="161.3652" x2="202.3652" y1="740.8721" y2="740.8721"/><polygon fill="#000000" points="171.3652,736.8721,161.3652,740.8721,171.3652,744.8721,167.3652,740.8721" style="stroke:#000000;stroke-width:1.0;"/><text fill="#000000" font-family="Arial" font-size="12" lengthAdjust="spacing" textLength="78.0117" x="167.3652" y="723.3291">Commit locally</text><polygon fill="#000000" points="53.3398,764.6709,43.3398,768.6709,53.3398,772.6709,49.3398,768.6709" style="stroke:#000000;stroke-width:1.0;"/><line style="stroke:#000000;stroke-width:1.0;stroke-dasharray:2.0,2.0;" x1="47.3398" x2="159.3652" y1="768.6709" y2="768.6709"/><text fill="#000000" font-family="Arial" font-size="12" lengthAdjust="spacing" textLength="84.7031" x="59.001" y="764.1279">Return Success</text><path d="M76,781.6709 L76,832.6709 L243,832.6709 L243,791.6709 L233,781.6709 L76,781.6709 " fill="#FFC0CB" style="stroke:#000000;stroke-width:1.0;"/><path d="M233,781.6709 L233,791.6709 L243,791.6709 L233,781.6709 " fill="#FFC0CB" style="stroke:#000000;stroke-width:1.0;"/><text fill="#000000" font-family="Arial" font-size="12" font-weight="bold" lengthAdjust="spacing" textLength="111.3457" x="82" y="797.9268">Unprotected Period</text><text fill="#000000" font-family="Arial" font-size="12" lengthAdjust="spacing" textLength="146.7539" x="82" y="811.7256">All subsequent transactions</text><text fill="#000000" font-family="Arial" font-size="12" lengthAdjust="spacing" textLength="141.3809" x="82" y="825.5244">commit without Slave ACK</text><rect fill="#FFFFFF" height="3" style="stroke:#FFFFFF;stroke-width:1.0;" width="550.8076" x="5" y="857.9668"/><line style="stroke:#000000;stroke-width:0.5;" x1="5" x2="555.8076" y1="857.9668" y2="857.9668"/><line style="stroke:#000000;stroke-width:0.5;" x1="5" x2="555.8076" y1="860.9668" y2="860.9668"/><rect fill="#FFFFFF" height="21.7988" style="stroke:#000000;stroke-width:1.0;" width="106.0625" x="227.3726" y="848.0674"/><text fill="#000000" font-family="Arial" font-size="12" font-weight="bold" lengthAdjust="spacing" textLength="88.7285" x="233.3726" y="863.3232">Slave Recovers</text><polygon fill="#000000" points="171.3652,895.665,161.3652,899.665,171.3652,903.665,167.3652,899.665" style="stroke:#000000;stroke-width:1.0;"/><line style="stroke:#000000;stroke-width:1.0;" x1="165.3652" x2="407.1191" y1="899.665" y2="899.665"/><text fill="#000000" font-family="Arial" font-size="12" lengthAdjust="spacing" textLength="120.7266" x="223.8789" y="895.1221">IO Thread Reconnects</text><line style="stroke:#000000;stroke-width:1.0;" x1="160.3652" x2="202.3652" y1="927.4639" y2="927.4639"/><line style="stroke:#000000;stroke-width:1.0;" x1="202.3652" x2="202.3652" y1="927.4639" y2="940.4639"/><line style="stroke:#000000;stroke-width:1.0;" x1="161.3652" x2="202.3652" y1="940.4639" y2="940.4639"/><polygon fill="#000000" points="171.3652,936.4639,161.3652,940.4639,171.3652,944.4639,167.3652,940.4639" style="stroke:#000000;stroke-width:1.0;"/><text fill="#000000" font-family="Arial" font-size="12" lengthAdjust="spacing" textLength="223.7637" x="167.3652" y="922.9209">Detect Rpl_semi_sync_master_clients = 1</text><line style="stroke:#000000;stroke-width:1.0;" x1="160.3652" x2="202.3652" y1="968.2627" y2="968.2627"/><line style="stroke:#000000;stroke-width:1.0;" x1="202.3652" x2="202.3652" y1="968.2627" y2="981.2627"/><line style="stroke:#000000;stroke-width:1.0;" x1="161.3652" x2="202.3652" y1="981.2627" y2="981.2627"/><polygon fill="#000000" points="171.3652,977.2627,161.3652,981.2627,171.3652,985.2627,167.3652,981.2627" style="stroke:#000000;stroke-width:1.0;"/><text fill="#000000" font-family="Arial" font-size="12" lengthAdjust="spacing" textLength="233.7539" x="167.3652" y="963.7197">Switch Rpl_semi_sync_master_status = ON</text><polygon fill="#000000" points="171.3652,1005.0615,161.3652,1009.0615,171.3652,1013.0615,167.3652,1009.0615" style="stroke:#000000;stroke-width:1.0;"/><line style="stroke:#000000;stroke-width:1.0;" x1="165.3652" x2="407.1191" y1="1009.0615" y2="1009.0615"/><text fill="#000000" font-family="Arial" font-size="12" lengthAdjust="spacing" textLength="183.416" x="192.5342" y="1004.5186">Request Binlog (from last position)</text><polygon fill="#000000" points="396.1191,1032.8604,406.1191,1036.8604,396.1191,1040.8604,400.1191,1036.8604" style="stroke:#000000;stroke-width:1.0;"/><line style="stroke:#000000;stroke-width:1.0;" x1="160.3652" x2="402.1191" y1="1036.8604" y2="1036.8604"/><text fill="#000000" font-family="Arial" font-size="12" lengthAdjust="spacing" textLength="144.0938" x="212.1953" y="1032.3174">Send accumulated backlog</text><path d="M129,1049.8604 L129,1086.8604 L439,1086.8604 L439,1059.8604 L429,1049.8604 L129,1049.8604 " fill="#90EE90" style="stroke:#000000;stroke-width:1.0;"/><path d="M429,1049.8604 L429,1059.8604 L439,1059.8604 L429,1049.8604 " fill="#90EE90" style="stroke:#000000;stroke-width:1.0;"/><text fill="#000000" font-family="Arial" font-size="12" font-weight="bold" lengthAdjust="spacing" textLength="116.0332" x="181.5107" y="1066.1162">Protection Resumes</text><text fill="#000000" font-family="Arial" font-size="12" lengthAdjust="spacing" textLength="196.0781" x="181.5107" y="1079.915">Next transaction waits for Slave ACK</text><!--SRC=[jLH1Rjim4Bph5TlaaWXr4FTem0KSkoc2DavWfUZHM5DhYJ15gYGL9trzbvJYoeqQz5Bx8d26dDdT8T_vaYg2Mg7KYTj9NQF52ZOeTeKrZSxdHXaBfzUVmh_7o6cBZVBNHlibyWapAr4DuvdyIJ3-q0CT_MX82xebvx2WcPA51a7Qa-snBBdQQFV2kY9bzZDhpHwyRIX9lFIA8ADAZh9dBU11LcGQ3wXpM51XCKSlZKuIFivB8MlK7axcIhBG2Q034J-FuLjqx2B2LVmyXZE5ZnHH5xwEGHZujTmQ1P-KJAUmDBP2rNCzdIP9QmH67pjDcC1tApt1WqNjKCGoEkWroHkuabgPeaU9xfYH4JUZGzkrKV-0sVmBjrcGVAHyI61kgahwe72ZjLbS7JXCwanFO4M-iHgoHWYULAmojWaMaXoC3dF9UC9efVa_9JyDrGndroWLvUT9eWtlix8eFPXjnpszOx624kWCDzeIYX8tYYQyE88b-RsnEzXOioCTbrgciEXAxbbOMKYtWothD9QIe1saaa7pABtK1MpvId7hBouk_lJLPGx0rchjE2Hhno5PjyjhttQIuRFkVarWVCdNIHYTk_EtnL_644ka7Cx6bxnbW9YcxUs9RPu5VRWrEQNf6mbHHg1Ip_-KZrYnUMHQnpwzbth7HQNfDrrRHeLdV_V4MSbP5M2c5BXcqpuR7CVV4N6CYjR2NleonYmEYDlRQySXaYjk5IkxcC7kGlIgkRc3Xv8Rb4UYrkp43LMze60ILaD3Qkjc1HWFRStOfoY7jpgFlWaxxvO3vbQXVESFqTvQKu5Y56hZPEZ6-TzU01IYgHg5eQ_XRGytvzKSth_SYgyXZPyjnSIdwNqx4ZwVBRYc8XU7igIder70djFjOhO7Hl0B]--></g></svg>