<svg xmlns="http://www.w3.org/2000/svg" xmlns:xlink="http://www.w3.org/1999/xlink" contentStyleType="text/css" height="586px" preserveAspectRatio="none" style="width:565px;height:586px;background:#FEFEFE;" version="1.1" viewBox="0 0 565 586" width="565px" zoomAndPan="magnify"><title>Split-Brain Disaster Scenario</title><defs/><g><rect fill="#FEFEFE" height="586" style="stroke:none;stroke-width:1.0;" width="565" x="0" y="0"/><text fill="#000000" font-family="Arial" font-size="22" font-weight="bold" lengthAdjust="spacing" textLength="303.209" x="126.3955" y="35.6357">Split-Brain Disaster Scenario</text><!--cluster Zone A--><g id="cluster_Zone A"><path d="M428.5,57.2979 L470.1641,57.2979 A3.75,3.75 0 0 1 472.6641,59.7979 L479.6641,77.0967 L555.5,77.0967 A2.5,2.5 0 0 1 558,79.5967 L558,275.2979 A2.5,2.5 0 0 1 555.5,277.7979 L428.5,277.7979 A2.5,2.5 0 0 1 426,275.2979 L426,59.7979 A2.5,2.5 0 0 1 428.5,57.2979 " fill="#FFFFFF" style="stroke:#000000;stroke-width:1.0;"/><line style="stroke:#000000;stroke-width:1.0;" x1="426" x2="479.6641" y1="77.0967" y2="77.0967"/><text fill="#000000" font-family="Arial" font-size="12" font-weight="bold" lengthAdjust="spacing" textLength="40.6641" x="430" y="70.5537">Zone A</text></g><!--cluster Zone B--><g id="cluster_Zone B"><path d="M227.5,184.2979 L269.1641,184.2979 A3.75,3.75 0 0 1 271.6641,186.7979 L278.6641,204.0967 L399.5,204.0967 A2.5,2.5 0 0 1 402,206.5967 L402,577.2979 A2.5,2.5 0 0 1 399.5,579.7979 L227.5,579.7979 A2.5,2.5 0 0 1 225,577.2979 L225,186.7979 A2.5,2.5 0 0 1 227.5,184.2979 " fill="#FFFFFF" style="stroke:#000000;stroke-width:1.0;"/><line style="stroke:#000000;stroke-width:1.0;" x1="225" x2="278.6641" y1="204.0967" y2="204.0967"/><text fill="#000000" font-family="Arial" font-size="12" font-weight="bold" lengthAdjust="spacing" textLength="40.6641" x="229" y="197.5537">Zone B</text></g><!--entity partition--><g id="elem_partition"><rect fill="#FFC0CB" height="33.7988" rx="2.5" ry="2.5" style="stroke:#000000;stroke-width:1.0;" width="111.3652" x="298.5" y="89.2979"/><text fill="#000000" font-family="Arial" font-size="12" lengthAdjust="spacing" textLength="91.3652" x="308.5" y="110.5537">Network Partition</text></g><!--entity old_master--><g id="elem_old_master"><path d="M442.5,214.7979 C442.5,204.7979 491.8486,204.7979 491.8486,204.7979 C491.8486,204.7979 541.1973,204.7979 541.1973,214.7979 L541.1973,251.3955 C541.1973,261.3955 491.8486,261.3955 491.8486,261.3955 C491.8486,261.3955 442.5,261.3955 442.5,251.3955 L442.5,214.7979 " fill="#FF0000" style="stroke:#000000;stroke-width:1.0;"/><path d="M442.5,214.7979 C442.5,224.7979 491.8486,224.7979 491.8486,224.7979 C491.8486,224.7979 541.1973,224.7979 541.1973,214.7979 " fill="none" style="stroke:#000000;stroke-width:1.0;"/><text fill="#000000" font-family="Arial" font-size="12" lengthAdjust="spacing" textLength="58.6816" x="452.5" y="240.0537">Old Master</text><text fill="#000000" font-family="Arial" font-size="12" lengthAdjust="spacing" textLength="78.6973" x="452.5" y="253.8525">(Still Running!)</text></g><!--entity client_a--><g id="elem_client_a"><rect fill="#ADD8E6" height="33.7988" rx="2.5" ry="2.5" style="stroke:#000000;stroke-width:1.0;" width="62.0176" x="461" y="89.2979"/><text fill="#000000" font-family="Arial" font-size="12" lengthAdjust="spacing" textLength="42.0176" x="471" y="110.5537">Client A</text></g><!--entity new_master--><g id="elem_new_master"><path d="M260,380.7979 C260,370.7979 323.0127,370.7979 323.0127,370.7979 C323.0127,370.7979 386.0254,370.7979 386.0254,380.7979 L386.0254,417.3955 C386.0254,427.3955 323.0127,427.3955 323.0127,427.3955 C323.0127,427.3955 260,427.3955 260,417.3955 L260,380.7979 " fill="#FFA500" style="stroke:#000000;stroke-width:1.0;"/><path d="M260,380.7979 C260,390.7979 323.0127,390.7979 323.0127,390.7979 C323.0127,390.7979 386.0254,390.7979 386.0254,380.7979 " fill="none" style="stroke:#000000;stroke-width:1.0;"/><text fill="#000000" font-family="Arial" font-size="12" lengthAdjust="spacing" textLength="64.0137" x="270" y="406.0537">New Master</text><text fill="#000000" font-family="Arial" font-size="12" lengthAdjust="spacing" textLength="106.0254" x="270" y="419.8525">(Promoted by MHA)</text></g><!--entity slave--><g id="elem_slave"><path d="M298,530.7979 C298,520.7979 323.0088,520.7979 323.0088,520.7979 C323.0088,520.7979 348.0176,520.7979 348.0176,530.7979 L348.0176,553.5967 C348.0176,563.5967 323.0088,563.5967 323.0088,563.5967 C323.0088,563.5967 298,563.5967 298,553.5967 L298,530.7979 " fill="#FFFFE0" style="stroke:#000000;stroke-width:1.0;"/><path d="M298,530.7979 C298,540.7979 323.0088,540.7979 323.0088,540.7979 C323.0088,540.7979 348.0176,540.7979 348.0176,530.7979 " fill="none" style="stroke:#000000;stroke-width:1.0;"/><text fill="#000000" font-family="Arial" font-size="12" lengthAdjust="spacing" textLength="30.0176" x="308" y="556.0537">Slave</text></g><!--entity client_b--><g id="elem_client_b"><rect fill="#ADD8E6" height="33.7988" rx="2.5" ry="2.5" style="stroke:#000000;stroke-width:1.0;" width="62.0176" x="324" y="216.2979"/><text fill="#000000" font-family="Arial" font-size="12" lengthAdjust="spacing" textLength="42.0176" x="334" y="237.5537">Client B</text></g><!--entity mha--><g id="elem_mha"><rect fill="#FFC0CB" height="33.7988" rx="2.5" ry="2.5" style="stroke:#000000;stroke-width:1.0;" width="46.666" x="241.5" y="216.2979"/><text fill="#000000" font-family="Arial" font-size="12" lengthAdjust="spacing" textLength="26.666" x="251.5" y="237.5537">MHA</text></g><g id="elem_GMN15"><path d="M11,352.7979 L11,445.5908 A0,0 0 0 0 11,445.5908 L209.3809,445.5908 A0,0 0 0 0 209.3809,445.5908 L209.3809,362.7979 L199.3809,352.7979 L157.29,352.7979 L249.86,250.3179 L149.29,352.7979 L11,352.7979 A0,0 0 0 0 11,352.7979 " fill="#FFFFFF" style="stroke:#000000;stroke-width:1.0;"/><path d="M199.3809,352.7979 L199.3809,362.7979 L209.3809,362.7979 L199.3809,352.7979 " fill="#FFFFFF" style="stroke:#000000;stroke-width:1.0;"/><text fill="#000000" font-family="Arial" font-size="12" font-weight="bold" lengthAdjust="spacing" textLength="51.3574" x="17" y="369.0537">Disaster:</text><text fill="#000000" font-family="Arial" font-size="12" lengthAdjust="spacing" textLength="150.7148" x="17" y="382.8525">- MHA thinks Master is dead</text><text fill="#000000" font-family="Arial" font-size="12" lengthAdjust="spacing" textLength="170.7305" x="17" y="396.6514">- Promotes Slave to new Master</text><text fill="#000000" font-family="Arial" font-size="12" lengthAdjust="spacing" textLength="115.3594" x="17" y="410.4502">- Old Master recovers</text><text fill="#000000" font-family="Arial" font-size="12" lengthAdjust="spacing" textLength="3.9961" x="17" y="424.249">-</text><text fill="#000000" font-family="Arial" font-size="12" font-weight="bold" lengthAdjust="spacing" textLength="170.0508" x="24.3301" y="424.249">Two Masters accepting writes</text><text fill="#000000" font-family="Arial" font-size="12" lengthAdjust="spacing" textLength="3.9961" x="17" y="438.0479">-</text><text fill="#000000" font-family="Arial" font-size="12" font-weight="bold" lengthAdjust="spacing" textLength="96.7031" x="24.3301" y="438.0479">Data divergence!</text></g><!--link client_a to old_master--><g id="link_client_a_old_master"><path d="M492,123.3879 C492,143.8279 492,173.4379 492,198.3579 " fill="none" id="client_a-to-old_master" style="stroke:#000000;stroke-width:1.0;"/><polygon fill="#000000" points="492,204.3579,496,195.3579,492,199.3579,488,195.3579,492,204.3579" style="stroke:#000000;stroke-width:1.0;"/><text fill="#000000" font-family="Arial" font-size="12" lengthAdjust="spacing" textLength="33.9961" x="493" y="165.5537">Writes</text></g><!--link client_b to new_master--><g id="link_client_b_new_master"><path d="M351.87,250.3179 C346.43,278.2079 336.3091,330.0889 329.5691,364.6289 " fill="none" id="client_b-to-new_master" style="stroke:#000000;stroke-width:1.0;"/><polygon fill="#000000" points="328.42,370.5179,334.0697,362.4506,329.3776,365.6104,326.2178,360.9184,328.42,370.5179" style="stroke:#000000;stroke-width:1.0;"/><text fill="#000000" font-family="Arial" font-size="12" lengthAdjust="spacing" textLength="33.9961" x="343" y="313.0537">Writes</text></g><!--link new_master to slave--><g id="link_new_master_slave"><path d="M323,427.8179 C323,455.0679 323,490.1679 323,514.7079 " fill="none" id="new_master-to-slave" style="stroke:#000000;stroke-width:1.0;"/><polygon fill="#000000" points="323,520.7079,327,511.7079,323,515.7079,319,511.7079,323,520.7079" style="stroke:#000000;stroke-width:1.0;"/><text fill="#000000" font-family="Arial" font-size="12" lengthAdjust="spacing" textLength="59.3672" x="324" y="488.0537">Replication</text></g><!--link old_master to new_master--><g id="link_old_master_new_master"><path d="M459.0243,266.2965 C427.8543,296.5465 386.9451,336.2386 355.8351,366.4386 " fill="none" id="old_master-new_master" style="stroke:#FF0000;stroke-width:1.0;stroke-dasharray:7.0,7.0;"/><polygon fill="#FF0000" points="463.33,262.1179,454.0857,265.5153,459.7419,265.6,459.6572,271.2563,463.33,262.1179" style="stroke:#FF0000;stroke-width:1.0;"/><polygon fill="#FF0000" points="351.53,370.6179,360.7738,367.2191,355.1176,367.1352,355.2016,361.4789,351.53,370.6179" style="stroke:#FF0000;stroke-width:1.0;"/><text fill="#000000" font-family="Arial" font-size="12" lengthAdjust="spacing" textLength="44.0098" x="428.0059" y="306.0537">Network</text><text fill="#000000" font-family="Arial" font-size="12" lengthAdjust="spacing" textLength="44.0215" x="428" y="319.8525">Partition</text></g><!--SRC=[TP9HRzCm4CVV_IckpGj4z04UAuIq3YOUM5SrI6WmD5tY8xNgs95zNGI8xyxPpRgeW-QbFl_lxdT_tuntr17q5erJSMzSZm4xgB7Pjy4VdBxqrWSehZwaRwBGz0CFbg-yupLAXOjWqFxxlZA_25w_KOeDMuAgjuONgo0TuRs969a2L0qv3COh5QXXTAq8vslYmOSzR318gl5k3XYXVpn1iJ5k3x_L7wLw0SPMShvw9p1pYOByD3BM62L-OpLSvrvtxaN5nbhO7fmphfszp6MzrVVT4QROaixf4vPBQyXngYpQ9X_k4OfFfjtnoXuewq_nnUBTjE0IlWJ359-JhfwJhcbu8jq4ttac3VLFkFvuSKHrD9nGRu80qbc9ok83PMbC_qRCMxBM3_yPR3KTh3uVRA8NYYpjTdXy03KTlSwZJm1FeoVH99vaHxWbR4bMei7qficXYN5l5z-AGFgLnhWZ_VsyzBWWT-wq8KeviGjgp-mxwLcMZoksB4ivBvABm3lXZgFBOA9iA-fyE_eT8Li8x5F3KPW5JtkKJF4F56AEb-NdmOyt4R1fg6TPBXZoz6DleP4t0cqahINNq4mko6b8qEel]--></g></svg>