<svg xmlns="http://www.w3.org/2000/svg" xmlns:xlink="http://www.w3.org/1999/xlink" contentStyleType="text/css" height="605px" preserveAspectRatio="none" style="width:978px;height:605px;background:#FEFEFE;" version="1.1" viewBox="0 0 978 605" width="978px" zoomAndPan="magnify"><title>Horizontal Sharding Architecture</title><defs/><g><rect fill="#FEFEFE" height="605" style="stroke:none;stroke-width:1.0;" width="978" x="0" y="0"/><text fill="#000000" font-family="Arial" font-size="22" font-weight="bold" lengthAdjust="spacing" textLength="344.7061" x="312.147" y="35.6357">Horizontal Sharding Architecture</text><!--cluster middleware--><g id="cluster_middleware"><rect fill="#FFC0CB" height="136" rx="2.5" ry="2.5" style="stroke:#000000;stroke-width:1.0;" width="282" x="386" y="116.2979"/><text fill="#000000" font-family="Arial" font-size="12" font-weight="bold" lengthAdjust="spacing" textLength="120.6855" x="466.6572" y="129.5537">Sharding Middleware</text><text fill="#000000" font-family="Arial" font-size="12" font-weight="bold" lengthAdjust="spacing" textLength="146.6836" x="453.6582" y="143.3525">(ShardingSphere / MyCat)</text></g><!--cluster shard0--><g id="cluster_shard0"><path d="M13.5,292.2979 L58.5156,292.2979 A3.75,3.75 0 0 1 61.0156,294.7979 L68.0156,312.0967 L218.5,312.0967 A2.5,2.5 0 0 1 221,314.5967 L221,480.7979 A2.5,2.5 0 0 1 218.5,483.2979 L13.5,483.2979 A2.5,2.5 0 0 1 11,480.7979 L11,294.7979 A2.5,2.5 0 0 1 13.5,292.2979 " fill="#90EE90" style="stroke:#000000;stroke-width:1.0;"/><line style="stroke:#000000;stroke-width:1.0;" x1="11" x2="68.0156" y1="312.0967" y2="312.0967"/><text fill="#000000" font-family="Arial" font-size="12" font-weight="bold" lengthAdjust="spacing" textLength="44.0156" x="15" y="305.5537">Shard 0</text></g><!--cluster shard1--><g id="cluster_shard1"><path d="M263.5,292.2979 L308.5156,292.2979 A3.75,3.75 0 0 1 311.0156,294.7979 L318.0156,312.0967 L468.5,312.0967 A2.5,2.5 0 0 1 471,314.5967 L471,480.7979 A2.5,2.5 0 0 1 468.5,483.2979 L263.5,483.2979 A2.5,2.5 0 0 1 261,480.7979 L261,294.7979 A2.5,2.5 0 0 1 263.5,292.2979 " fill="#FFFFE0" style="stroke:#000000;stroke-width:1.0;"/><line style="stroke:#000000;stroke-width:1.0;" x1="261" x2="318.0156" y1="312.0967" y2="312.0967"/><text fill="#000000" font-family="Arial" font-size="12" font-weight="bold" lengthAdjust="spacing" textLength="44.0156" x="265" y="305.5537">Shard 1</text></g><!--cluster shard2--><g id="cluster_shard2"><path d="M513.5,292.2979 L558.5156,292.2979 A3.75,3.75 0 0 1 561.0156,294.7979 L568.0156,312.0967 L718.5,312.0967 A2.5,2.5 0 0 1 721,314.5967 L721,480.7979 A2.5,2.5 0 0 1 718.5,483.2979 L513.5,483.2979 A2.5,2.5 0 0 1 511,480.7979 L511,294.7979 A2.5,2.5 0 0 1 513.5,292.2979 " fill="#F08080" style="stroke:#000000;stroke-width:1.0;"/><line style="stroke:#000000;stroke-width:1.0;" x1="511" x2="568.0156" y1="312.0967" y2="312.0967"/><text fill="#000000" font-family="Arial" font-size="12" font-weight="bold" lengthAdjust="spacing" textLength="44.0156" x="515" y="305.5537">Shard 2</text></g><!--cluster shard3--><g id="cluster_shard3"><path d="M763.5,292.2979 L808.5156,292.2979 A3.75,3.75 0 0 1 811.0156,294.7979 L818.0156,312.0967 L968.5,312.0967 A2.5,2.5 0 0 1 971,314.5967 L971,480.7979 A2.5,2.5 0 0 1 968.5,483.2979 L763.5,483.2979 A2.5,2.5 0 0 1 761,480.7979 L761,294.7979 A2.5,2.5 0 0 1 763.5,292.2979 " fill="#ADD8E6" style="stroke:#000000;stroke-width:1.0;"/><line style="stroke:#000000;stroke-width:1.0;" x1="761" x2="818.0156" y1="312.0967" y2="312.0967"/><text fill="#000000" font-family="Arial" font-size="12" font-weight="bold" lengthAdjust="spacing" textLength="44.0156" x="765" y="305.5537">Shard 3</text></g><!--entity router--><g id="elem_router"><rect fill="#FFFFFF" height="43.7988" rx="2.5" ry="2.5" style="stroke:#000000;stroke-width:1.0;" width="76.0176" x="568" y="177.2979"/><rect fill="#FFFFFF" height="10" style="stroke:#000000;stroke-width:1.0;" width="15" x="624.0176" y="182.2979"/><rect fill="#FFFFFF" height="2" style="stroke:#000000;stroke-width:1.0;" width="4" x="622.0176" y="184.2979"/><rect fill="#FFFFFF" height="2" style="stroke:#000000;stroke-width:1.0;" width="4" x="622.0176" y="188.2979"/><text fill="#000000" font-family="Arial" font-size="12" lengthAdjust="spacing" textLength="36.0176" x="583" y="208.5537">Router</text></g><!--entity shard_key--><g id="elem_shard_key"><rect fill="#FFFFFF" height="57.5977" rx="2.5" ry="2.5" style="stroke:#000000;stroke-width:1.0;" width="103.3691" x="429.5" y="170.2979"/><rect fill="#FFFFFF" height="10" style="stroke:#000000;stroke-width:1.0;" width="15" x="512.8691" y="175.2979"/><rect fill="#FFFFFF" height="2" style="stroke:#000000;stroke-width:1.0;" width="4" x="510.8691" y="177.2979"/><rect fill="#FFFFFF" height="2" style="stroke:#000000;stroke-width:1.0;" width="4" x="510.8691" y="181.2979"/><text fill="#000000" font-family="Arial" font-size="12" lengthAdjust="spacing" textLength="59.3672" x="444.5" y="201.5537">Shard Key:</text><text fill="#000000" font-family="Arial" font-size="12" lengthAdjust="spacing" textLength="63.3691" x="444.5" y="215.3525">user_id % 4</text></g><!--entity m0--><g id="elem_m0"><path d="M139.5,342.2979 C139.5,332.2979 167.8369,332.2979 167.8369,332.2979 C167.8369,332.2979 196.1738,332.2979 196.1738,342.2979 L196.1738,365.0967 C196.1738,375.0967 167.8369,375.0967 167.8369,375.0967 C167.8369,375.0967 139.5,375.0967 139.5,365.0967 L139.5,342.2979 " fill="#FFFFFF" style="stroke:#000000;stroke-width:1.0;"/><path d="M139.5,342.2979 C139.5,352.2979 167.8369,352.2979 167.8369,352.2979 C167.8369,352.2979 196.1738,352.2979 196.1738,342.2979 " fill="none" style="stroke:#000000;stroke-width:1.0;"/><text fill="#000000" font-family="Arial" font-size="12" lengthAdjust="spacing" textLength="36.6738" x="149.5" y="367.5537">Master</text></g><!--entity s0--><g id="elem_s0"><path d="M54,342.2979 C54,332.2979 79.0088,332.2979 79.0088,332.2979 C79.0088,332.2979 104.0176,332.2979 104.0176,342.2979 L104.0176,365.0967 C104.0176,375.0967 79.0088,375.0967 79.0088,375.0967 C79.0088,375.0967 54,375.0967 54,365.0967 L54,342.2979 " fill="#FFFFFF" style="stroke:#000000;stroke-width:1.0;"/><path d="M54,342.2979 C54,352.2979 79.0088,352.2979 79.0088,352.2979 C79.0088,352.2979 104.0176,352.2979 104.0176,342.2979 " fill="none" style="stroke:#000000;stroke-width:1.0;"/><text fill="#000000" font-family="Arial" font-size="12" lengthAdjust="spacing" textLength="30.0176" x="64" y="367.5537">Slave</text></g><g id="elem_GMN9"><path d="M54.5,435.2979 L54.5,459.0967 A0,0 0 0 0 54.5,459.0967 L159.2188,459.0967 A0,0 0 0 0 159.2188,459.0967 L159.2188,445.2979 L149.2188,435.2979 L107.57,435.2979 L85.35,375.5579 L99.57,435.2979 L54.5,435.2979 A0,0 0 0 0 54.5,435.2979 " fill="#FFFFFF" style="stroke:#000000;stroke-width:1.0;"/><path d="M149.2188,435.2979 L149.2188,445.2979 L159.2188,445.2979 L149.2188,435.2979 " fill="#FFFFFF" style="stroke:#000000;stroke-width:1.0;"/><text fill="#000000" font-family="Arial" font-size="12" lengthAdjust="spacing" textLength="83.7188" x="60.5" y="451.5537">user_id % 4 = 0</text></g><!--entity m1--><g id="elem_m1"><path d="M389.5,342.2979 C389.5,332.2979 417.8369,332.2979 417.8369,332.2979 C417.8369,332.2979 446.1738,332.2979 446.1738,342.2979 L446.1738,365.0967 C446.1738,375.0967 417.8369,375.0967 417.8369,375.0967 C417.8369,375.0967 389.5,375.0967 389.5,365.0967 L389.5,342.2979 " fill="#FFFFFF" style="stroke:#000000;stroke-width:1.0;"/><path d="M389.5,342.2979 C389.5,352.2979 417.8369,352.2979 417.8369,352.2979 C417.8369,352.2979 446.1738,352.2979 446.1738,342.2979 " fill="none" style="stroke:#000000;stroke-width:1.0;"/><text fill="#000000" font-family="Arial" font-size="12" lengthAdjust="spacing" textLength="36.6738" x="399.5" y="367.5537">Master</text></g><!--entity s1--><g id="elem_s1"><path d="M304,342.2979 C304,332.2979 329.0088,332.2979 329.0088,332.2979 C329.0088,332.2979 354.0176,332.2979 354.0176,342.2979 L354.0176,365.0967 C354.0176,375.0967 329.0088,375.0967 329.0088,375.0967 C329.0088,375.0967 304,375.0967 304,365.0967 L304,342.2979 " fill="#FFFFFF" style="stroke:#000000;stroke-width:1.0;"/><path d="M304,342.2979 C304,352.2979 329.0088,352.2979 329.0088,352.2979 C329.0088,352.2979 354.0176,352.2979 354.0176,342.2979 " fill="none" style="stroke:#000000;stroke-width:1.0;"/><text fill="#000000" font-family="Arial" font-size="12" lengthAdjust="spacing" textLength="30.0176" x="314" y="367.5537">Slave</text></g><g id="elem_GMN15"><path d="M304.5,435.2979 L304.5,459.0967 A0,0 0 0 0 304.5,459.0967 L409.2188,459.0967 A0,0 0 0 0 409.2188,459.0967 L409.2188,445.2979 L399.2188,435.2979 L357.57,435.2979 L335.35,375.5579 L349.57,435.2979 L304.5,435.2979 A0,0 0 0 0 304.5,435.2979 " fill="#FFFFFF" style="stroke:#000000;stroke-width:1.0;"/><path d="M399.2188,435.2979 L399.2188,445.2979 L409.2188,445.2979 L399.2188,435.2979 " fill="#FFFFFF" style="stroke:#000000;stroke-width:1.0;"/><text fill="#000000" font-family="Arial" font-size="12" lengthAdjust="spacing" textLength="83.7188" x="310.5" y="451.5537">user_id % 4 = 1</text></g><!--entity m2--><g id="elem_m2"><path d="M639.5,342.2979 C639.5,332.2979 667.8369,332.2979 667.8369,332.2979 C667.8369,332.2979 696.1738,332.2979 696.1738,342.2979 L696.1738,365.0967 C696.1738,375.0967 667.8369,375.0967 667.8369,375.0967 C667.8369,375.0967 639.5,375.0967 639.5,365.0967 L639.5,342.2979 " fill="#FFFFFF" style="stroke:#000000;stroke-width:1.0;"/><path d="M639.5,342.2979 C639.5,352.2979 667.8369,352.2979 667.8369,352.2979 C667.8369,352.2979 696.1738,352.2979 696.1738,342.2979 " fill="none" style="stroke:#000000;stroke-width:1.0;"/><text fill="#000000" font-family="Arial" font-size="12" lengthAdjust="spacing" textLength="36.6738" x="649.5" y="367.5537">Master</text></g><!--entity s2--><g id="elem_s2"><path d="M554,342.2979 C554,332.2979 579.0088,332.2979 579.0088,332.2979 C579.0088,332.2979 604.0176,332.2979 604.0176,342.2979 L604.0176,365.0967 C604.0176,375.0967 579.0088,375.0967 579.0088,375.0967 C579.0088,375.0967 554,375.0967 554,365.0967 L554,342.2979 " fill="#FFFFFF" style="stroke:#000000;stroke-width:1.0;"/><path d="M554,342.2979 C554,352.2979 579.0088,352.2979 579.0088,352.2979 C579.0088,352.2979 604.0176,352.2979 604.0176,342.2979 " fill="none" style="stroke:#000000;stroke-width:1.0;"/><text fill="#000000" font-family="Arial" font-size="12" lengthAdjust="spacing" textLength="30.0176" x="564" y="367.5537">Slave</text></g><g id="elem_GMN21"><path d="M554.5,435.2979 L554.5,459.0967 A0,0 0 0 0 554.5,459.0967 L659.2188,459.0967 A0,0 0 0 0 659.2188,459.0967 L659.2188,445.2979 L649.2188,435.2979 L607.57,435.2979 L585.35,375.5579 L599.57,435.2979 L554.5,435.2979 A0,0 0 0 0 554.5,435.2979 " fill="#FFFFFF" style="stroke:#000000;stroke-width:1.0;"/><path d="M649.2188,435.2979 L649.2188,445.2979 L659.2188,445.2979 L649.2188,435.2979 " fill="#FFFFFF" style="stroke:#000000;stroke-width:1.0;"/><text fill="#000000" font-family="Arial" font-size="12" lengthAdjust="spacing" textLength="83.7188" x="560.5" y="451.5537">user_id % 4 = 2</text></g><!--entity m3--><g id="elem_m3"><path d="M889.5,342.2979 C889.5,332.2979 917.8369,332.2979 917.8369,332.2979 C917.8369,332.2979 946.1738,332.2979 946.1738,342.2979 L946.1738,365.0967 C946.1738,375.0967 917.8369,375.0967 917.8369,375.0967 C917.8369,375.0967 889.5,375.0967 889.5,365.0967 L889.5,342.2979 " fill="#FFFFFF" style="stroke:#000000;stroke-width:1.0;"/><path d="M889.5,342.2979 C889.5,352.2979 917.8369,352.2979 917.8369,352.2979 C917.8369,352.2979 946.1738,352.2979 946.1738,342.2979 " fill="none" style="stroke:#000000;stroke-width:1.0;"/><text fill="#000000" font-family="Arial" font-size="12" lengthAdjust="spacing" textLength="36.6738" x="899.5" y="367.5537">Master</text></g><!--entity s3--><g id="elem_s3"><path d="M804,342.2979 C804,332.2979 829.0088,332.2979 829.0088,332.2979 C829.0088,332.2979 854.0176,332.2979 854.0176,342.2979 L854.0176,365.0967 C854.0176,375.0967 829.0088,375.0967 829.0088,375.0967 C829.0088,375.0967 804,375.0967 804,365.0967 L804,342.2979 " fill="#FFFFFF" style="stroke:#000000;stroke-width:1.0;"/><path d="M804,342.2979 C804,352.2979 829.0088,352.2979 829.0088,352.2979 C829.0088,352.2979 854.0176,352.2979 854.0176,342.2979 " fill="none" style="stroke:#000000;stroke-width:1.0;"/><text fill="#000000" font-family="Arial" font-size="12" lengthAdjust="spacing" textLength="30.0176" x="814" y="367.5537">Slave</text></g><g id="elem_GMN27"><path d="M804.5,435.2979 L804.5,459.0967 L909.2188,459.0967 L909.2188,445.2979 L899.2188,435.2979 L804.5,435.2979 " fill="#FFFFFF" style="stroke:#000000;stroke-width:1.0;"/><path d="M899.2188,435.2979 L899.2188,445.2979 L909.2188,445.2979 L899.2188,435.2979 " fill="#FFFFFF" style="stroke:#000000;stroke-width:1.0;"/><text fill="#000000" font-family="Arial" font-size="12" lengthAdjust="spacing" textLength="83.7188" x="810.5" y="451.5537">user_id % 4 = 3</text></g><!--entity app--><g id="elem_app"><rect fill="#ADD8E6" height="33.7988" rx="2.5" ry="2.5" style="stroke:#000000;stroke-width:1.0;" width="78.7051" x="354.5" y="58.2979"/><text fill="#000000" font-family="Arial" font-size="12" lengthAdjust="spacing" textLength="58.7051" x="364.5" y="79.5537">Application</text></g><g id="elem_GMN35"><path d="M765,519.2979 L765,598.292 L949.3711,598.292 L949.3711,529.2979 L939.3711,519.2979 L765,519.2979 " fill="#FFFFFF" style="stroke:#000000;stroke-width:1.0;"/><path d="M939.3711,519.2979 L939.3711,529.2979 L949.3711,529.2979 L939.3711,519.2979 " fill="#FFFFFF" style="stroke:#000000;stroke-width:1.0;"/><text fill="#000000" font-family="Arial" font-size="12" font-weight="bold" lengthAdjust="spacing" textLength="69.3398" x="771" y="535.5537">Pain Points:</text><text fill="#000000" font-family="Arial" font-size="12" lengthAdjust="spacing" textLength="163.3711" x="771" y="549.3525">- Cross-shard JOIN impossible</text><text fill="#000000" font-family="Arial" font-size="12" lengthAdjust="spacing" textLength="138.0293" x="771" y="563.1514">- Distributed TX slow (XA)</text><text fill="#000000" font-family="Arial" font-size="12" lengthAdjust="spacing" textLength="140.0977" x="771" y="576.9502">- Global unique ID needed</text><text fill="#000000" font-family="Arial" font-size="12" lengthAdjust="spacing" textLength="137.3965" x="771" y="590.749">- Resharding is nightmare</text></g><!--link s3 to GMN27--><g id="link_s3_GMN27"><path d="M835.35,375.5579 C841,394.0179 849.04,420.2979 853.57,435.0779 " fill="none" id="s3-GMN27" style="stroke:#000000;stroke-width:1.0;stroke-dasharray:7.0,7.0;"/></g><!--link app to middleware--><g id="link_app_middleware"><path d="M394,92.4979 C394,96.5816 394,101.2622 394,106.331 C394,108.8654 394,111.4968 394,114.1992 C394,114.8748 394,109.5549 394,110.2389 " fill="none" id="app-to-middleware" style="stroke:#000000;stroke-width:1.0;"/><polygon fill="#000000" points="394,116.2389,398,107.2389,394,111.2389,390,107.2389,394,116.2389" style="stroke:#000000;stroke-width:1.0;"/></g><!--link middleware to shard0--><g id="link_middleware_shard0"><path d="M385.4695,200.9145 C383.7764,201.0434 381.8491,201.1928 379.7036,201.3634 C371.1216,202.0457 359.0483,203.0657 344.5091,204.4554 C315.4306,207.2347 276.4888,211.4929 235.8875,217.4854 C154.685,229.4704 66.845,248.3929 38,276.2979 C34.9513,279.2479 32.3622,282.6052 30.1662,286.228 C29.0682,288.0394 28.0685,289.9171 27.1587,291.8435 C27.1018,291.9639 29.5752,286.6439 29.5191,286.7647 " fill="none" id="middleware-to-shard0" style="stroke:#000000;stroke-width:1.0;"/><polygon fill="#000000" points="26.9891,292.2052,34.4111,285.731,29.0974,287.6714,27.157,282.3578,26.9891,292.2052" style="stroke:#000000;stroke-width:1.0;"/></g><!--link middleware to shard1--><g id="link_middleware_shard1"><path d="M385.7975,203.7295 C385.7006,203.7722 385.6029,203.8153 385.5044,203.8587 C385.3075,203.9457 385.1077,204.0342 384.905,204.1242 C384.4996,204.3043 384.0827,204.4906 383.6546,204.6831 C382.7984,205.0682 381.8978,205.4779 380.9559,205.9122 C373.4213,209.3866 363.2512,214.4304 352.15,220.9229 C329.9475,233.9079 304.02,252.6879 288,276.2979 C285.6188,279.8079 283.5356,283.5896 281.7133,287.5257 C281.2578,288.5098 280.8185,289.5035 280.395,290.505 C280.1832,291.0057 282.2247,285.946 282.0207,286.4505 " fill="none" id="middleware-to-shard1" style="stroke:#000000;stroke-width:1.0;"/><polygon fill="#000000" points="279.7713,292.0129,286.8537,285.1688,281.6458,287.3775,279.4371,282.1697,279.7713,292.0129" style="stroke:#000000;stroke-width:1.0;"/></g><!--link middleware to shard2--><g id="link_middleware_shard2"><path d="M401.707,252.5071 C401.7571,252.6155 401.8074,252.7237 401.8581,252.8317 C401.9594,253.0477 402.0619,253.2631 402.1657,253.4778 C402.3732,253.9072 402.5857,254.334 402.8031,254.7577 C403.6731,256.4528 404.6235,258.1006 405.6617,259.6849 C407.738,262.8535 410.165,265.7679 413,268.2979 C429.79,283.2779 443.8,264.5579 463,276.2979 C480.415,286.9429 494.0975,305.2229 503.5775,321.2441 C505.9475,325.2494 508.0548,329.1136 509.8922,332.6819 C510.1219,333.128 510.3473,333.5694 510.5685,334.0059 C510.6791,334.2242 508.0932,329.0807 508.2017,329.2965 " fill="none" id="middleware-to-shard2" style="stroke:#000000;stroke-width:1.0;"/><polygon fill="#000000" points="510.8972,334.6569,510.4276,324.8193,508.6509,330.1899,503.2803,328.4132,510.8972,334.6569" style="stroke:#000000;stroke-width:1.0;"/></g><!--link middleware to shard3--><g id="link_middleware_shard3"><path d="M400.8803,252.4873 C400.9305,252.5946 400.9811,252.7017 401.032,252.8086 C401.4392,253.664 401.8672,254.5076 402.3172,255.3373 C403.2172,256.9967 404.2047,258.6003 405.288,260.1308 C407.4545,263.1918 410.0037,265.9604 413,268.2979 C439.29,288.8079 683.47,260.8179 713,276.2979 C731.075,285.7729 744.7775,304.0179 754.1038,320.3141 C756.4353,324.3882 758.4934,328.3404 760.2778,332.0034 C760.5009,332.4613 758.1309,327.5019 758.3454,327.9504 " fill="none" id="middleware-to-shard3" style="stroke:#000000;stroke-width:1.0;"/><polygon fill="#000000" points="760.9342,333.3632,760.6595,323.5181,758.7769,328.8525,753.4425,326.9699,760.9342,333.3632" style="stroke:#000000;stroke-width:1.0;"/></g><!--link GMN27 to GMN35--><g id="link_GMN27_GMN35"><path d="M857,459.6079 C857,473.5879 857,498.1379 857,519.1879 " fill="none" id="GMN27-GMN35" style="stroke:#000000;stroke-width:1.0;stroke-dasharray:7.0,7.0;"/></g><!--SRC=[XPFHQzim4CRVzLVS4WPj82osznJO84lNhjlIXMOF7HJAsRevHsJ9a-ILTEn_d-maZLUSn7eHztqwVZf_UkMNL12K2baBjs9TeiK2KinMkJMLbbEZZ8N-vSTwjHoIVcAb_ANH_WP3XubbLDtwWfy8ebW8pruHV3AMdq8P5IoMQ2NhF9pEbkmfyvKb8MpOeCw3jpSfIyKPUZQw1-W0onBwNpbV-W-g-j_wt6p6KYfwH4lt-cnNNPHBiWHlOBQUeZzlcXNFHkZFMQ_WZu3mPQOeZIRjeNThAa-sCTjc-zBGj8Slj1xVwygHVM09h-5jSyBLsiEArkAl46MOAEOxJ1Zj7QFjXQuiaTuYIFIOeWls6ReTGJ5weIqK_gPDeusaZIT8ZVUc64CB1zx1g0CYsaD4MuWVf9HvF4eH7QQ8Jb547HJndYBUKaoD3Uau1X4VXeXFGSGT4CaU8ca5x2X3SfWXESMGr0nrc8V3zwqSYbOaQsKJaCvgr5cDEwk942sMm3OOpCE3XxbXxTruC0Yb8KojSMxO783FtwvlW4FCdUDKKQDViFEMq_0C97o_0rS7vUnkSjw8LygauPzLcd-5iLrVW2QI91ljbjpkRR83NG-tg2zBMZOp4ly0]--></g></svg>