<svg xmlns="http://www.w3.org/2000/svg" xmlns:xlink="http://www.w3.org/1999/xlink" contentStyleType="text/css" height="728px" preserveAspectRatio="none" style="width:650px;height:728px;background:#FEFEFE;" version="1.1" viewBox="0 0 650 728" width="650px" zoomAndPan="magnify"><title>MySQL Master-Slave Replication</title><defs/><g><rect fill="#FEFEFE" height="728" style="stroke:none;stroke-width:1.0;" width="650" x="0" y="0"/><text fill="#000000" font-family="Arial" font-size="22" font-weight="bold" lengthAdjust="spacing" textLength="342.3213" x="149.6744" y="35.6357">MySQL Master-Slave Replication</text><!--cluster master_pkg--><g id="cluster_master_pkg"><path d="M222.5,153.2979 L262.1836,153.2979 A3.75,3.75 0 0 1 264.6836,155.7979 L271.6836,173.0967 L523.5,173.0967 A2.5,2.5 0 0 1 526,175.5967 L526,343.7979 A2.5,2.5 0 0 1 523.5,346.2979 L222.5,346.2979 A2.5,2.5 0 0 1 220,343.7979 L220,155.7979 A2.5,2.5 0 0 1 222.5,153.2979 " fill="#90EE90" style="stroke:#000000;stroke-width:1.0;"/><line style="stroke:#000000;stroke-width:1.0;" x1="220" x2="271.6836" y1="173.0967" y2="173.0967"/><text fill="#000000" font-family="Arial" font-size="12" font-weight="bold" lengthAdjust="spacing" textLength="38.6836" x="224" y="166.5537">Master</text></g><!--cluster master--><g id="cluster_master"><path d="M373,211.2979 C373,201.2979 433.5,201.2979 433.5,201.2979 C433.5,201.2979 494,201.2979 494,211.2979 L494,304.2979 C494,314.2979 433.5,314.2979 433.5,314.2979 C433.5,314.2979 373,314.2979 373,304.2979 L373,211.2979 " fill="#FFFFFF" style="stroke:#000000;stroke-width:1.0;"/><path d="M373,211.2979 C373,221.2979 433.5,221.2979 433.5,221.2979 C433.5,221.2979 494,221.2979 494,211.2979 " fill="none" style="stroke:#000000;stroke-width:1.0;"/><text fill="#000000" font-family="Arial" font-size="12" font-weight="bold" lengthAdjust="spacing" textLength="38.6836" x="414.1582" y="234.5537">Master</text></g><!--cluster slave_pkg--><g id="cluster_slave_pkg"><path d="M227.5,415.2979 L259.8594,415.2979 A3.75,3.75 0 0 1 262.3594,417.7979 L269.3594,435.0967 L524.5,435.0967 A2.5,2.5 0 0 1 527,437.5967 L527,718.7979 A2.5,2.5 0 0 1 524.5,721.2979 L227.5,721.2979 A2.5,2.5 0 0 1 225,718.7979 L225,417.7979 A2.5,2.5 0 0 1 227.5,415.2979 " fill="#FFFFE0" style="stroke:#000000;stroke-width:1.0;"/><line style="stroke:#000000;stroke-width:1.0;" x1="225" x2="269.3594" y1="435.0967" y2="435.0967"/><text fill="#000000" font-family="Arial" font-size="12" font-weight="bold" lengthAdjust="spacing" textLength="31.3594" x="229" y="428.5537">Slave</text></g><!--cluster slave--><g id="cluster_slave"><path d="M333,578.2979 C333,568.2979 403.5,568.2979 403.5,568.2979 C403.5,568.2979 474,568.2979 474,578.2979 L474,671.2979 C474,681.2979 403.5,681.2979 403.5,681.2979 C403.5,681.2979 333,681.2979 333,671.2979 L333,578.2979 " fill="#FFFFFF" style="stroke:#000000;stroke-width:1.0;"/><path d="M333,578.2979 C333,588.2979 403.5,588.2979 403.5,588.2979 C403.5,588.2979 474,588.2979 474,578.2979 " fill="none" style="stroke:#000000;stroke-width:1.0;"/><text fill="#000000" font-family="Arial" font-size="12" font-weight="bold" lengthAdjust="spacing" textLength="31.3594" x="387.8203" y="601.5537">Slave</text></g><!--entity dump_thread--><g id="elem_dump_thread"><rect fill="#FFFFFF" height="57.5977" rx="2.5" ry="2.5" style="stroke:#000000;stroke-width:1.0;" width="108.7012" x="236.5" y="244.2979"/><rect fill="#FFFFFF" height="10" style="stroke:#000000;stroke-width:1.0;" width="15" x="325.2012" y="249.2979"/><rect fill="#FFFFFF" height="2" style="stroke:#000000;stroke-width:1.0;" width="4" x="323.2012" y="251.2979"/><rect fill="#FFFFFF" height="2" style="stroke:#000000;stroke-width:1.0;" width="4" x="323.2012" y="255.2979"/><text fill="#000000" font-family="Arial" font-size="12" lengthAdjust="spacing" textLength="68.7012" x="251.5" y="275.5537">Binlog Dump</text><text fill="#000000" font-family="Arial" font-size="12" lengthAdjust="spacing" textLength="38.0215" x="251.5" y="289.3525">Thread</text></g><!--entity m_binlog--><g id="elem_m_binlog"><rect fill="#FFFFFF" height="33.7988" rx="35" ry="35" style="stroke:#000000;stroke-width:1.0;" width="53.3574" x="416.5" y="256.2979"/><text fill="#000000" font-family="Arial" font-size="12" lengthAdjust="spacing" textLength="33.3574" x="426.5" y="277.5537">Binlog</text></g><!--entity io_thread--><g id="elem_io_thread"><rect fill="#FFFFFF" height="43.7988" rx="2.5" ry="2.5" style="stroke:#000000;stroke-width:1.0;" width="94.0234" x="409" y="455.2979"/><rect fill="#FFFFFF" height="10" style="stroke:#000000;stroke-width:1.0;" width="15" x="483.0234" y="460.2979"/><rect fill="#FFFFFF" height="2" style="stroke:#000000;stroke-width:1.0;" width="4" x="481.0234" y="462.2979"/><rect fill="#FFFFFF" height="2" style="stroke:#000000;stroke-width:1.0;" width="4" x="481.0234" y="466.2979"/><text fill="#000000" font-family="Arial" font-size="12" lengthAdjust="spacing" textLength="54.0234" x="424" y="486.5537">IO Thread</text></g><!--entity sql_thread--><g id="elem_sql_thread"><rect fill="#FFFFFF" height="43.7988" rx="2.5" ry="2.5" style="stroke:#000000;stroke-width:1.0;" width="105.3672" x="268.5" y="455.2979"/><rect fill="#FFFFFF" height="10" style="stroke:#000000;stroke-width:1.0;" width="15" x="353.8672" y="460.2979"/><rect fill="#FFFFFF" height="2" style="stroke:#000000;stroke-width:1.0;" width="4" x="351.8672" y="462.2979"/><rect fill="#FFFFFF" height="2" style="stroke:#000000;stroke-width:1.0;" width="4" x="351.8672" y="466.2979"/><text fill="#000000" font-family="Arial" font-size="12" lengthAdjust="spacing" textLength="65.3672" x="283.5" y="486.5537">SQL Thread</text></g><!--entity relay_log--><g id="elem_relay_log"><rect fill="#FFFFFF" height="33.7988" rx="35" ry="35" style="stroke:#000000;stroke-width:1.0;" width="74.0352" x="376" y="623.2979"/><text fill="#000000" font-family="Arial" font-size="12" lengthAdjust="spacing" textLength="54.0352" x="386" y="644.5537">Relay Log</text></g><!--entity app--><g id="elem_app"><rect fill="#ADD8E6" height="33.7988" rx="2.5" ry="2.5" style="stroke:#000000;stroke-width:1.0;" width="78.7051" x="431.5" y="58.2979"/><text fill="#000000" font-family="Arial" font-size="12" lengthAdjust="spacing" textLength="58.7051" x="441.5" y="79.5537">Application</text></g><g id="elem_GMN18"><path d="M11,600.7979 L11,679.792 L200.7559,679.792 L200.7559,610.7979 L190.7559,600.7979 L11,600.7979 " fill="#FFFFFF" style="stroke:#000000;stroke-width:1.0;"/><path d="M190.7559,600.7979 L190.7559,610.7979 L200.7559,610.7979 L190.7559,600.7979 " fill="#FFFFFF" style="stroke:#000000;stroke-width:1.0;"/><text fill="#000000" font-family="Arial" font-size="12" font-weight="bold" lengthAdjust="spacing" textLength="99.334" x="17" y="617.0537">Replication Flow:</text><text fill="#000000" font-family="Arial" font-size="12" lengthAdjust="spacing" textLength="121.377" x="17" y="630.8525">1. Master writes Binlog</text><text fill="#000000" font-family="Arial" font-size="12" lengthAdjust="spacing" textLength="168.7559" x="17" y="644.6514">2. Dump Thread sends to Slave</text><text fill="#000000" font-family="Arial" font-size="12" lengthAdjust="spacing" textLength="159.4043" x="17" y="658.4502">3. IO Thread writes Relay Log</text><text fill="#000000" font-family="Arial" font-size="12" lengthAdjust="spacing" textLength="159.416" x="17" y="672.249">4. SQL Thread replays events</text></g><!--link app to master--><g id="link_app_master"><path d="M447.59,92.5079 C431.48,104.9979 411.06,123.7379 400,145.2979 C393.5875,157.7929 389.1806,171.8291 386.1805,185.8913 C385.4304,189.4068 384.7683,192.924 384.1848,196.4191 C384.0389,197.2929 383.8979,198.1653 383.7617,199.0359 C383.6936,199.4713 383.6266,199.9062 383.5609,200.3406 C383.528,200.5578 384.3787,194.8402 384.3464,195.0572 " fill="none" id="app-to-master" style="stroke:#000000;stroke-width:1.0;"/><polygon fill="#000000" points="383.4632,200.9918,388.7444,192.6787,384.1992,196.0463,380.8316,191.501,383.4632,200.9918" style="stroke:#000000;stroke-width:1.0;"/><text fill="#000000" font-family="Arial" font-size="12" lengthAdjust="spacing" textLength="27.9961" x="416" y="134.5537">Write</text></g><!--link app to slave--><g id="link_app_slave"><path d="M480.17,92.3679 C516.67,158.6079 643.67,413.1979 519,544.2979 C506.81,557.1179 373.49,540.8579 360,552.2979 C356.285,555.4466 353.1966,559.1377 350.6367,563.19 C349.9968,564.2031 349.3899,565.2387 348.8145,566.2941 C348.5267,566.8218 348.2469,567.3545 347.9748,567.8917 C347.9067,568.026 350.5111,562.7883 350.444,562.9232 " fill="none" id="app-to-slave" style="stroke:#000000;stroke-width:1.0;"/><polygon fill="#000000" points="347.7721,568.2954,355.3614,562.0183,349.9987,563.8186,348.1984,558.4558,347.7721,568.2954" style="stroke:#000000;stroke-width:1.0;"/><text fill="#000000" font-family="Arial" font-size="12" lengthAdjust="spacing" textLength="28.6875" x="573" y="381.5537">Read</text></g><!--link dump_thread to io_thread--><g id="link_dump_thread_io_thread"><path d="M313.94,302.3879 C347.41,343.3579 405.0942,413.9812 434.9842,450.5712 " fill="none" id="dump_thread-to-io_thread" style="stroke:#000000;stroke-width:1.0;"/><polygon fill="#000000" points="438.78,455.2179,436.184,445.7173,435.6168,451.3456,429.9885,450.7784,438.78,455.2179" style="stroke:#000000;stroke-width:1.0;"/><text fill="#000000" font-family="Arial" font-size="12" lengthAdjust="spacing" textLength="73.377" x="384" y="374.5537">Binlog Events</text><text fill="#000000" font-family="Arial" font-size="12" lengthAdjust="spacing" textLength="40.6699" x="400.3535" y="388.3525">(Async)</text></g><!--link io_thread to relay_log--><g id="link_io_thread_relay_log"><path d="M450.38,499.3479 C441.68,531.9079 426.7099,587.9915 418.8699,617.3115 " fill="none" id="io_thread-to-relay_log" style="stroke:#000000;stroke-width:1.0;"/><polygon fill="#000000" points="417.32,623.1079,423.5091,615.4466,418.6116,618.2776,415.7806,613.38,417.32,623.1079" style="stroke:#000000;stroke-width:1.0;"/><text fill="#000000" font-family="Arial" font-size="12" lengthAdjust="spacing" textLength="27.9961" x="443" y="541.5537">Write</text></g><!--link relay_log to sql_thread--><g id="link_relay_log_sql_thread"><path d="M406.35,623.1879 C398.8,605.4179 385.74,576.1779 372,552.2979 C361.34,533.7679 351.0282,518.7236 340.4482,504.2336 " fill="none" id="relay_log-to-sql_thread" style="stroke:#000000;stroke-width:1.0;"/><polygon fill="#000000" points="336.91,499.3879,338.9868,509.0153,339.8585,503.426,345.4478,504.2977,336.91,499.3879" style="stroke:#000000;stroke-width:1.0;"/><text fill="#000000" font-family="Arial" font-size="12" lengthAdjust="spacing" textLength="28.6875" x="368" y="541.5537">Read</text></g><!--link sql_thread to slave--><g id="link_sql_thread_slave"><path d="M315.89,499.4979 C313.94,508.6179 311.96,519.4179 311,529.2979 C308.59,554.1229 315.82,581.1579 323.7838,602.2141 C325.7747,607.4782 327.8115,612.3686 329.755,616.7573 C330.7267,618.9517 331.6752,621.0207 332.5829,622.9483 C332.6963,623.1892 330.2382,618.0067 330.3503,618.2432 " fill="none" id="sql_thread-to-slave" style="stroke:#000000;stroke-width:1.0;"/><polygon fill="#000000" points="332.9213,623.6645,332.679,613.8186,330.7788,619.1467,325.4507,617.2465,332.9213,623.6645" style="stroke:#000000;stroke-width:1.0;"/><text fill="#000000" font-family="Arial" font-size="12" lengthAdjust="spacing" textLength="37.3535" x="312" y="541.5537">Replay</text></g><!--link slave_pkg to GMN18--><g id="link_slave_pkg_GMN18"><path d="M224.9583,488.4962 C224.8727,488.6048 224.7864,488.7142 224.6995,488.8243 C224.5257,489.0446 224.3496,489.2679 224.1712,489.4941 C223.4574,490.3989 222.7065,491.3508 221.9206,492.3471 C215.6338,500.3169 207.1125,511.1197 197.525,523.2741 C178.35,547.5829 154.91,577.2979 136.55,600.5679 " fill="none" id="slave_pkg-GMN18" style="stroke:#000000;stroke-width:1.0;stroke-dasharray:7.0,7.0;"/></g><!--SRC=[TLB1QXin4BthAwR9fJNOaBGd7mfE6vU2qz8uK0e1CzwTh8MraYgD4zoIV-z8tbshgQk5HPfvC_FqdbxnXbe2Rr1R5RVQUWpOmXghRHFSpjOVd741pkVNwIiGDJtWpl3SMVw2qc4MD9hJ-QN-HN1ngHHhDWGt- -Mt1TnWP0hZfS57WbloHbV8sbcb0bMCjX7asSmFyJF02EWzd2zqi-4hioEblD34He27RXdJvktARviE-YaGMVYjG5QDZ6kCfoewH5gHNSXjhxGrhZc0LkjyoA3d_AzSwvqbopqGFkvQVs_lDe6mpbMr15QSp-gvu9kldH4nxGgsFyWOz_GFtHS5fyZUai4zB3g-8PrM_oNy-IiKDBNhIRw09QSANFnfYjiaDyRZzxr-K_WUDDCGFX2TYha2LuKIEJkC54IdtlMZp8ptzlKixctrHXqXgM2uq33e6CdZ1cxzp2BoDnzvxNkbh6E2jMDsBRY7en6YmMXKl4YOYo7JqKZY5vFktS9JOX0xvfAvd6JpEx4WagqZi8Fic-JVJc2Gl2yU39FykmaSjPQx9eeHA2kYf1aajkeF]--></g></svg>