<svg xmlns="http://www.w3.org/2000/svg" xmlns:xlink="http://www.w3.org/1999/xlink" contentStyleType="text/css" height="503px" preserveAspectRatio="none" style="width:560px;height:503px;background:#FEFEFE;" version="1.1" viewBox="0 0 560 503" width="560px" zoomAndPan="magnify"><title>Semi-Synchronous Replication</title><defs/><g><rect fill="#FEFEFE" height="503" style="stroke:none;stroke-width:1.0;" width="560" x="0" y="0"/><text fill="#000000" font-family="Arial" font-size="22" font-weight="bold" lengthAdjust="spacing" textLength="325.166" x="119.6455" y="35.6357">Semi-Synchronous Replication</text><rect fill="#FFFFFF" height="240.3906" style="stroke:#000000;stroke-width:1.0;" width="10" x="218.0137" y="109.8955"/><line style="stroke:#000000;stroke-width:1.0;" x1="42" x2="42" y1="80.0967" y2="470.4814"/><line style="stroke:#000000;stroke-width:1.0;" x1="222.6768" x2="222.6768" y1="80.0967" y2="470.4814"/><line style="stroke:#000000;stroke-width:1.0;" x1="335.0303" x2="335.0303" y1="80.0967" y2="470.4814"/><line style="stroke:#000000;stroke-width:1.0;" x1="447.7373" x2="447.7373" y1="80.0967" y2="470.4814"/><rect fill="#FFFFFF" height="27.7988" rx="2.5" ry="2.5" style="stroke:#000000;stroke-width:1.0;" width="44.6797" x="20" y="51.2979"/><text fill="#000000" font-family="Arial" font-size="12" lengthAdjust="spacing" textLength="30.6797" x="27" y="69.5537">Client</text><rect fill="#FFFFFF" height="27.7988" rx="2.5" ry="2.5" style="stroke:#000000;stroke-width:1.0;" width="44.6797" x="20" y="469.4814"/><text fill="#000000" font-family="Arial" font-size="12" lengthAdjust="spacing" textLength="30.6797" x="27" y="487.7373">Client</text><rect fill="#FFFFFF" height="27.7988" rx="2.5" ry="2.5" style="stroke:#000000;stroke-width:1.0;" width="50.6738" x="197.6768" y="51.2979"/><text fill="#000000" font-family="Arial" font-size="12" lengthAdjust="spacing" textLength="36.6738" x="204.6768" y="69.5537">Master</text><rect fill="#FFFFFF" height="27.7988" rx="2.5" ry="2.5" style="stroke:#000000;stroke-width:1.0;" width="50.6738" x="197.6768" y="469.4814"/><text fill="#000000" font-family="Arial" font-size="12" lengthAdjust="spacing" textLength="36.6738" x="204.6768" y="487.7373">Master</text><rect fill="#FFFFFF" height="27.7988" rx="2.5" ry="2.5" style="stroke:#000000;stroke-width:1.0;" width="54.0254" x="308.0303" y="51.2979"/><text fill="#000000" font-family="Arial" font-size="12" lengthAdjust="spacing" textLength="40.0254" x="315.0303" y="69.5537">Slave 1</text><rect fill="#FFFFFF" height="27.7988" rx="2.5" ry="2.5" style="stroke:#000000;stroke-width:1.0;" width="54.0254" x="308.0303" y="469.4814"/><text fill="#000000" font-family="Arial" font-size="12" lengthAdjust="spacing" textLength="40.0254" x="315.0303" y="487.7373">Slave 1</text><rect fill="#FFFFFF" height="27.7988" rx="2.5" ry="2.5" style="stroke:#000000;stroke-width:1.0;" width="54.0254" x="420.7373" y="51.2979"/><text fill="#000000" font-family="Arial" font-size="12" lengthAdjust="spacing" textLength="40.0254" x="427.7373" y="69.5537">Slave 2</text><rect fill="#FFFFFF" height="27.7988" rx="2.5" ry="2.5" style="stroke:#000000;stroke-width:1.0;" width="54.0254" x="420.7373" y="469.4814"/><text fill="#000000" font-family="Arial" font-size="12" lengthAdjust="spacing" textLength="40.0254" x="427.7373" y="487.7373">Slave 2</text><rect fill="#FFFFFF" height="240.3906" style="stroke:#000000;stroke-width:1.0;" width="10" x="218.0137" y="109.8955"/><polygon fill="#000000" points="206.0137,105.8955,216.0137,109.8955,206.0137,113.8955,210.0137,109.8955" style="stroke:#000000;stroke-width:1.0;"/><line style="stroke:#000000;stroke-width:1.0;" x1="42.3398" x2="212.0137" y1="109.8955" y2="109.8955"/><text fill="#000000" font-family="Arial" font-size="12" lengthAdjust="spacing" textLength="156.6738" x="49.3398" y="105.3525">BEGIN; INSERT...; COMMIT;</text><line style="stroke:#000000;stroke-width:1.0;" x1="228.0137" x2="270.0137" y1="137.6943" y2="137.6943"/><line style="stroke:#000000;stroke-width:1.0;" x1="270.0137" x2="270.0137" y1="137.6943" y2="150.6943"/><line style="stroke:#000000;stroke-width:1.0;" x1="229.0137" x2="270.0137" y1="150.6943" y2="150.6943"/><polygon fill="#000000" points="239.0137,146.6943,229.0137,150.6943,239.0137,154.6943,235.0137,150.6943" style="stroke:#000000;stroke-width:1.0;"/><text fill="#000000" font-family="Arial" font-size="12" lengthAdjust="spacing" textLength="78.0293" x="235.0137" y="133.1514">Write to Binlog</text><polygon fill="#000000" points="323.043,174.4932,333.043,178.4932,323.043,182.4932,327.043,178.4932" style="stroke:#000000;stroke-width:1.0;"/><line style="stroke:#000000;stroke-width:1.0;" x1="228.0137" x2="329.043" y1="178.4932" y2="178.4932"/><text fill="#000000" font-family="Arial" font-size="12" lengthAdjust="spacing" textLength="64.7168" x="235.0137" y="173.9502">Send Binlog</text><polygon fill="#000000" points="435.75,202.292,445.75,206.292,435.75,210.292,439.75,206.292" style="stroke:#000000;stroke-width:1.0;"/><line style="stroke:#000000;stroke-width:1.0;" x1="228.0137" x2="441.75" y1="206.292" y2="206.292"/><text fill="#000000" font-family="Arial" font-size="12" lengthAdjust="spacing" textLength="64.7168" x="235.0137" y="201.749">Send Binlog</text><line style="stroke:#000000;stroke-width:1.0;" x1="335.043" x2="377.043" y1="234.0908" y2="234.0908"/><line style="stroke:#000000;stroke-width:1.0;" x1="377.043" x2="377.043" y1="234.0908" y2="247.0908"/><line style="stroke:#000000;stroke-width:1.0;" x1="336.043" x2="377.043" y1="247.0908" y2="247.0908"/><polygon fill="#000000" points="346.043,243.0908,336.043,247.0908,346.043,251.0908,342.043,247.0908" style="stroke:#000000;stroke-width:1.0;"/><text fill="#000000" font-family="Arial" font-size="12" lengthAdjust="spacing" textLength="98.707" x="342.043" y="229.5479">Write to Relay Log</text><polygon fill="#000000" points="239.0137,270.8896,229.0137,274.8896,239.0137,278.8896,235.0137,274.8896" style="stroke:#000000;stroke-width:1.0;"/><line style="stroke:#000000;stroke-width:1.0;stroke-dasharray:2.0,2.0;" x1="233.0137" x2="334.043" y1="274.8896" y2="274.8896"/><text fill="#000000" font-family="Arial" font-size="12" lengthAdjust="spacing" textLength="24.6738" x="245.0137" y="270.3467">ACK</text><path d="M147,287.8896 L147,324.8896 L297,324.8896 L297,297.8896 L287,287.8896 L147,287.8896 " fill="#FFFFFF" style="stroke:#000000;stroke-width:1.0;"/><path d="M287,287.8896 L287,297.8896 L297,297.8896 L287,287.8896 " fill="#FFFFFF" style="stroke:#000000;stroke-width:1.0;"/><text fill="#000000" font-family="Arial" font-size="12" lengthAdjust="spacing" textLength="41.3379" x="153" y="304.1455">Wait for</text><text fill="#000000" font-family="Arial" font-size="12" font-weight="bold" lengthAdjust="spacing" textLength="51.3633" x="197.6719" y="304.1455">at least 1</text><text fill="#000000" font-family="Arial" font-size="12" lengthAdjust="spacing" textLength="24.6738" x="252.3691" y="304.1455">ACK</text><text fill="#000000" font-family="Arial" font-size="12" lengthAdjust="spacing" textLength="129.4102" x="153" y="317.9443">before returning to client</text><polygon fill="#000000" points="53.3398,346.2861,43.3398,350.2861,53.3398,354.2861,49.3398,350.2861" style="stroke:#000000;stroke-width:1.0;"/><line style="stroke:#000000;stroke-width:1.0;stroke-dasharray:2.0,2.0;" x1="47.3398" x2="222.0137" y1="350.2861" y2="350.2861"/><text fill="#000000" font-family="Arial" font-size="12" lengthAdjust="spacing" textLength="118.6816" x="59.3398" y="345.7432">OK (Commit Success)</text><line style="stroke:#000000;stroke-width:1.0;" x1="447.75" x2="489.75" y1="378.085" y2="378.085"/><line style="stroke:#000000;stroke-width:1.0;" x1="489.75" x2="489.75" y1="378.085" y2="391.085"/><line style="stroke:#000000;stroke-width:1.0;" x1="448.75" x2="489.75" y1="391.085" y2="391.085"/><polygon fill="#000000" points="458.75,387.085,448.75,391.085,458.75,395.085,454.75,391.085" style="stroke:#000000;stroke-width:1.0;"/><text fill="#000000" font-family="Arial" font-size="12" lengthAdjust="spacing" textLength="98.707" x="454.75" y="373.542">Write to Relay Log</text><polygon fill="#000000" points="234.0137,431.6826,224.0137,435.6826,234.0137,439.6826,230.0137,435.6826" style="stroke:#000000;stroke-width:1.0;"/><line style="stroke:#000000;stroke-width:1.0;stroke-dasharray:2.0,2.0;" x1="228.0137" x2="446.75" y1="435.6826" y2="435.6826"/><text fill="#000000" font-family="Arial" font-size="12" lengthAdjust="spacing" textLength="137.6777" x="240.0137" y="431.1396">ACK (late, doesn't matter)</text><path d="M16,404.085 L16,455.085 L217,455.085 L217,414.085 L207,404.085 L16,404.085 " fill="#FFFFFF" style="stroke:#000000;stroke-width:1.0;"/><path d="M207,404.085 L207,414.085 L217,414.085 L207,404.085 " fill="#FFFFFF" style="stroke:#000000;stroke-width:1.0;"/><text fill="#000000" font-family="Arial" font-size="12" font-weight="bold" lengthAdjust="spacing" textLength="102.6855" x="22" y="420.3408">Degradation Risk:</text><text fill="#000000" font-family="Arial" font-size="12" lengthAdjust="spacing" textLength="180.082" x="22" y="434.1396">If no ACK received within timeout,</text><text fill="#000000" font-family="Arial" font-size="12" lengthAdjust="spacing" textLength="156.0762" x="22" y="447.9385">falls back to async replication</text><!--SRC=[TLDDJ-D03BtFhp3i0OYWKdjifPKWMrOLso8rI9pTYTjQdSnKCqvNyEjnGg3XIxbOVi_sUnxdHBPK4UmTiZTfntwF4IjOeTrjOgXzcGSN8lowdJPVZr7I6cidjy7B0hN3TMHqt-C5FnCCHyO8YoCegEAhuidRRGm-r0cMj7TiKJXuOxHQsF8UlS1fxfYyd08ci6tu4PvZ4eejNBNXHxXmUD31BPwQUFWTFZhYAl5r35pzxZh266wcVsUB2SmMnNJvC1WC9f3Vp-UpXub1Atn0eRVffglfLpz6Le84k67lmgP7UPMab89y-GCy-WIRhgXV_ZvXIGwVu9_ItbXz8TVvdJ4-A3KSDD591dX45bZh6sSP2ZZIF0ophEK3h4WXWaXIHyz-qypfdgAHrVGxsjPntVx6S7y7vtceAcrUrDPIIXUcf2yRwrps_VxaP_J53vmxxNK9PQ3apqGnKUoYixaA8g5I3rdsXpOHo_R2OCbfDyuopS_Mgh_j4yaI7wY4_onRzY1SKQZbKabhT2wr_qCZ2PFUhTAF1_k-XHS0]--></g></svg>