<svg xmlns="http://www.w3.org/2000/svg" xmlns:xlink="http://www.w3.org/1999/xlink" contentStyleType="text/css" height="851px" preserveAspectRatio="none" style="width:647px;height:851px;background:#FEFEFE;" version="1.1" viewBox="0 0 647 851" width="647px" zoomAndPan="magnify"><title>Semi-Sync: AFTER_COMMIT vs AFTER_SYNC</title><defs/><g><rect fill="#FEFEFE" height="851" style="stroke:none;stroke-width:1.0;" width="647" x="0" y="0"/><text fill="#000000" font-family="Arial" font-size="22" font-weight="bold" lengthAdjust="spacing" textLength="484.0752" x="80.1582" y="35.6357">Semi-Sync: AFTER_COMMIT vs AFTER_SYNC</text><line style="stroke:#000000;stroke-width:1.0;" x1="175" x2="175" y1="111.0967" y2="775.8682"/><line style="stroke:#000000;stroke-width:1.0;" x1="367.3193" x2="367.3193" y1="111.0967" y2="775.8682"/><line style="stroke:#000000;stroke-width:1.0;" x1="460.9912" x2="460.9912" y1="111.0967" y2="775.8682"/><line style="stroke:#000000;stroke-width:1.0;" x1="527.0166" x2="527.0166" y1="111.0967" y2="775.8682"/><line style="stroke:#000000;stroke-width:1.0;" x1="603.374" x2="603.374" y1="111.0967" y2="775.8682"/><rect fill="#FFFFFF" height="27.7988" rx="2.5" ry="2.5" style="stroke:#000000;stroke-width:1.0;" width="44.6797" x="153" y="82.2979"/><text fill="#000000" font-family="Arial" font-size="12" lengthAdjust="spacing" textLength="30.6797" x="160" y="100.5537">Client</text><rect fill="#FFFFFF" height="27.7988" rx="2.5" ry="2.5" style="stroke:#000000;stroke-width:1.0;" width="44.6797" x="153" y="774.8682"/><text fill="#000000" font-family="Arial" font-size="12" lengthAdjust="spacing" textLength="30.6797" x="160" y="793.124">Client</text><rect fill="#FFFFFF" height="27.7988" rx="2.5" ry="2.5" style="stroke:#000000;stroke-width:1.0;" width="50.6738" x="342.3193" y="82.2979"/><text fill="#000000" font-family="Arial" font-size="12" lengthAdjust="spacing" textLength="36.6738" x="349.3193" y="100.5537">Master</text><rect fill="#FFFFFF" height="27.7988" rx="2.5" ry="2.5" style="stroke:#000000;stroke-width:1.0;" width="50.6738" x="342.3193" y="774.8682"/><text fill="#000000" font-family="Arial" font-size="12" lengthAdjust="spacing" textLength="36.6738" x="349.3193" y="793.124">Master</text><text fill="#000000" font-family="Arial" font-size="12" lengthAdjust="spacing" textLength="40.0254" x="437.9912" y="108.5537">InnoDB</text><path d="M443.0039,61.2979 C443.0039,51.2979 461.0039,51.2979 461.0039,51.2979 C461.0039,51.2979 479.0039,51.2979 479.0039,61.2979 L479.0039,87.2979 C479.0039,97.2979 461.0039,97.2979 461.0039,97.2979 C461.0039,97.2979 443.0039,97.2979 443.0039,87.2979 L443.0039,61.2979 " fill="#FFFFFF" style="stroke:#000000;stroke-width:1.5;"/><path d="M443.0039,61.2979 C443.0039,71.2979 461.0039,71.2979 461.0039,71.2979 C461.0039,71.2979 479.0039,71.2979 479.0039,61.2979 " fill="none" style="stroke:#000000;stroke-width:1.5;"/><text fill="#000000" font-family="Arial" font-size="12" lengthAdjust="spacing" textLength="40.0254" x="437.9912" y="786.124">InnoDB</text><path d="M443.0039,798.667 C443.0039,788.667 461.0039,788.667 461.0039,788.667 C461.0039,788.667 479.0039,788.667 479.0039,798.667 L479.0039,824.667 C479.0039,834.667 461.0039,834.667 461.0039,834.667 C461.0039,834.667 443.0039,834.667 443.0039,824.667 L443.0039,798.667 " fill="#FFFFFF" style="stroke:#000000;stroke-width:1.5;"/><path d="M443.0039,798.667 C443.0039,808.667 461.0039,808.667 461.0039,808.667 C461.0039,808.667 479.0039,808.667 479.0039,798.667 " fill="none" style="stroke:#000000;stroke-width:1.5;"/><rect fill="#FFFFFF" height="27.7988" rx="2.5" ry="2.5" style="stroke:#000000;stroke-width:1.0;" width="47.3574" x="504.0166" y="82.2979"/><text fill="#000000" font-family="Arial" font-size="12" lengthAdjust="spacing" textLength="33.3574" x="511.0166" y="100.5537">Binlog</text><rect fill="#FFFFFF" height="27.7988" rx="2.5" ry="2.5" style="stroke:#000000;stroke-width:1.0;" width="47.3574" x="504.0166" y="774.8682"/><text fill="#000000" font-family="Arial" font-size="12" lengthAdjust="spacing" textLength="33.3574" x="511.0166" y="793.124">Binlog</text><rect fill="#FFFFFF" height="27.7988" rx="2.5" ry="2.5" style="stroke:#000000;stroke-width:1.0;" width="44.0176" x="581.374" y="82.2979"/><text fill="#000000" font-family="Arial" font-size="12" lengthAdjust="spacing" textLength="30.0176" x="588.374" y="100.5537">Slave</text><rect fill="#FFFFFF" height="27.7988" rx="2.5" ry="2.5" style="stroke:#000000;stroke-width:1.0;" width="44.0176" x="581.374" y="774.8682"/><text fill="#000000" font-family="Arial" font-size="12" lengthAdjust="spacing" textLength="30.0176" x="588.374" y="793.124">Slave</text><rect fill="#FFFFFF" height="3" style="stroke:#FFFFFF;stroke-width:1.0;" width="635.3916" x="5" y="140.9961"/><line style="stroke:#000000;stroke-width:0.5;" x1="5" x2="640.3916" y1="140.9961" y2="140.9961"/><line style="stroke:#000000;stroke-width:0.5;" x1="5" x2="640.3916" y1="143.9961" y2="143.9961"/><rect fill="#FFFFFF" height="21.7988" style="stroke:#000000;stroke-width:1.0;" width="206.0176" x="219.687" y="131.0967"/><text fill="#000000" font-family="Arial" font-size="12" font-weight="bold" lengthAdjust="spacing" textLength="188.6836" x="225.687" y="146.3525">AFTER_COMMIT (MySQL 5.5-5.6)</text><polygon fill="#000000" points="355.6563,178.6943,365.6563,182.6943,355.6563,186.6943,359.6563,182.6943" style="stroke:#000000;stroke-width:1.0;"/><line style="stroke:#000000;stroke-width:1.0;" x1="175.3398" x2="361.6563" y1="182.6943" y2="182.6943"/><text fill="#000000" font-family="Arial" font-size="12" lengthAdjust="spacing" textLength="168.3164" x="182.3398" y="178.1514">UPDATE user SET name='Bob'</text><polygon fill="#000000" points="449.0039,216.3926,459.0039,220.3926,449.0039,224.3926,453.0039,220.3926" style="stroke:#000000;stroke-width:1.0;"/><line style="stroke:#000000;stroke-width:1.0;" x1="367.6563" x2="455.0039" y1="220.3926" y2="220.3926"/><text fill="#000000" font-family="Arial" font-size="12" lengthAdjust="spacing" textLength="41.332" x="374.6563" y="215.8496">Commit</text><path d="M466,195.6943 L466,232.6943 L585,232.6943 L585,205.6943 L575,195.6943 L466,195.6943 " fill="#FFC0CB" style="stroke:#000000;stroke-width:1.0;"/><path d="M575,195.6943 L575,205.6943 L585,205.6943 L575,195.6943 " fill="#FFC0CB" style="stroke:#000000;stroke-width:1.0;"/><text fill="#000000" font-family="Arial" font-size="12" lengthAdjust="spacing" textLength="75.3691" x="472" y="211.9502">Data visible to</text><text fill="#000000" font-family="Arial" font-size="12" lengthAdjust="spacing" textLength="98.7188" x="472" y="225.749">other transactions!</text><polygon fill="#000000" points="515.6953,254.0908,525.6953,258.0908,515.6953,262.0908,519.6953,258.0908" style="stroke:#000000;stroke-width:1.0;"/><line style="stroke:#000000;stroke-width:1.0;" x1="367.6563" x2="521.6953" y1="258.0908" y2="258.0908"/><text fill="#000000" font-family="Arial" font-size="12" lengthAdjust="spacing" textLength="27.9961" x="374.6563" y="253.5479">Write</text><polygon fill="#000000" points="591.3828,281.8896,601.3828,285.8896,591.3828,289.8896,595.3828,285.8896" style="stroke:#000000;stroke-width:1.0;"/><line style="stroke:#000000;stroke-width:1.0;" x1="367.6563" x2="597.3828" y1="285.8896" y2="285.8896"/><text fill="#000000" font-family="Arial" font-size="12" lengthAdjust="spacing" textLength="63.3867" x="374.6563" y="281.3467">Send binlog</text><line style="stroke:#000000;stroke-width:1.0;" x1="367.6563" x2="409.6563" y1="313.6885" y2="313.6885"/><line style="stroke:#000000;stroke-width:1.0;" x1="409.6563" x2="409.6563" y1="313.6885" y2="326.6885"/><line style="stroke:#000000;stroke-width:1.0;" x1="368.6563" x2="409.6563" y1="326.6885" y2="326.6885"/><polygon fill="#000000" points="378.6563,322.6885,368.6563,326.6885,378.6563,330.6885,374.6563,326.6885" style="stroke:#000000;stroke-width:1.0;"/><text fill="#000000" font-family="Arial" font-size="12" lengthAdjust="spacing" textLength="79.3477" x="374.6563" y="309.1455">Wait for ACK...</text><path d="M296,339.6885 L296,408.6885 L437,408.6885 L437,349.6885 L427,339.6885 L296,339.6885 " fill="#FFA500" style="stroke:#000000;stroke-width:1.0;"/><path d="M427,339.6885 L427,349.6885 L437,349.6885 L427,339.6885 " fill="#FFA500" style="stroke:#000000;stroke-width:1.0;"/><text fill="#000000" font-family="Arial" font-size="12" lengthAdjust="spacing" textLength="120.709" x="302" y="355.9443">If Master crashes now:</text><text fill="#000000" font-family="Arial" font-size="12" lengthAdjust="spacing" textLength="112.5586" x="302" y="369.7432">Client saw "Success"</text><text fill="#000000" font-family="Arial" font-size="12" lengthAdjust="spacing" textLength="120.75" x="302" y="383.542">But Slave has no data!</text><text fill="#000000" font-family="Arial" font-size="16" font-weight="bold" lengthAdjust="spacing" textLength="107.5703" x="302" y="401.0928">Phantom Data</text><polygon fill="#000000" points="378.6563,430.2822,368.6563,434.2822,378.6563,438.2822,374.6563,434.2822" style="stroke:#000000;stroke-width:1.0;"/><line style="stroke:#000000;stroke-width:1.0;stroke-dasharray:2.0,2.0;" x1="372.6563" x2="602.3828" y1="434.2822" y2="434.2822"/><text fill="#000000" font-family="Arial" font-size="12" lengthAdjust="spacing" textLength="24.6738" x="384.6563" y="429.7393">ACK</text><polygon fill="#000000" points="186.3398,458.0811,176.3398,462.0811,186.3398,466.0811,182.3398,462.0811" style="stroke:#000000;stroke-width:1.0;"/><line style="stroke:#000000;stroke-width:1.0;stroke-dasharray:2.0,2.0;" x1="180.3398" x2="366.6563" y1="462.0811" y2="462.0811"/><text fill="#000000" font-family="Arial" font-size="12" lengthAdjust="spacing" textLength="45.3516" x="192.3398" y="457.5381">Success</text><rect fill="#FFFFFF" height="3" style="stroke:#FFFFFF;stroke-width:1.0;" width="635.3916" x="5" y="489.9805"/><line style="stroke:#000000;stroke-width:0.5;" x1="5" x2="640.3916" y1="489.9805" y2="489.9805"/><line style="stroke:#000000;stroke-width:0.5;" x1="5" x2="640.3916" y1="492.9805" y2="492.9805"/><rect fill="#FFFFFF" height="21.7988" style="stroke:#000000;stroke-width:1.0;" width="177.0313" x="234.1802" y="480.0811"/><text fill="#000000" font-family="Arial" font-size="12" font-weight="bold" lengthAdjust="spacing" textLength="159.6973" x="240.1802" y="495.3369">AFTER_SYNC (MySQL 5.7+)</text><polygon fill="#000000" points="355.6563,527.6787,365.6563,531.6787,355.6563,535.6787,359.6563,531.6787" style="stroke:#000000;stroke-width:1.0;"/><line style="stroke:#000000;stroke-width:1.0;" x1="175.3398" x2="361.6563" y1="531.6787" y2="531.6787"/><text fill="#000000" font-family="Arial" font-size="12" lengthAdjust="spacing" textLength="168.3164" x="182.3398" y="527.1357">UPDATE user SET name='Bob'</text><polygon fill="#000000" points="515.6953,555.4775,525.6953,559.4775,515.6953,563.4775,519.6953,559.4775" style="stroke:#000000;stroke-width:1.0;"/><line style="stroke:#000000;stroke-width:1.0;" x1="367.6563" x2="521.6953" y1="559.4775" y2="559.4775"/><text fill="#000000" font-family="Arial" font-size="12" lengthAdjust="spacing" textLength="27.9961" x="374.6563" y="554.9346">Write</text><polygon fill="#000000" points="591.3828,583.2764,601.3828,587.2764,591.3828,591.2764,595.3828,587.2764" style="stroke:#000000;stroke-width:1.0;"/><line style="stroke:#000000;stroke-width:1.0;" x1="367.6563" x2="597.3828" y1="587.2764" y2="587.2764"/><text fill="#000000" font-family="Arial" font-size="12" lengthAdjust="spacing" textLength="63.3867" x="374.6563" y="582.7334">Send binlog</text><line style="stroke:#000000;stroke-width:1.0;" x1="367.6563" x2="409.6563" y1="618.4746" y2="618.4746"/><line style="stroke:#000000;stroke-width:1.0;" x1="409.6563" x2="409.6563" y1="618.4746" y2="631.4746"/><line style="stroke:#000000;stroke-width:1.0;" x1="368.6563" x2="409.6563" y1="631.4746" y2="631.4746"/><polygon fill="#000000" points="378.6563,627.4746,368.6563,631.4746,378.6563,635.4746,374.6563,631.4746" style="stroke:#000000;stroke-width:1.0;"/><text fill="#000000" font-family="Arial" font-size="12" lengthAdjust="spacing" textLength="79.3477" x="374.6563" y="613.9316">Wait for ACK...</text><path d="M465.3477,600.2764 L465.3477,637.2764 L596.3477,637.2764 L596.3477,610.2764 L586.3477,600.2764 L465.3477,600.2764 " fill="#90EE90" style="stroke:#000000;stroke-width:1.0;"/><path d="M586.3477,600.2764 L586.3477,610.2764 L596.3477,610.2764 L586.3477,600.2764 " fill="#90EE90" style="stroke:#000000;stroke-width:1.0;"/><text fill="#000000" font-family="Arial" font-size="12" lengthAdjust="spacing" textLength="110.0332" x="471.3477" y="616.5322">Data NOT visible yet</text><text fill="#000000" font-family="Arial" font-size="12" lengthAdjust="spacing" textLength="83.3555" x="471.3477" y="630.3311">(not committed)</text><polygon fill="#000000" points="378.6563,658.6729,368.6563,662.6729,378.6563,666.6729,374.6563,662.6729" style="stroke:#000000;stroke-width:1.0;"/><line style="stroke:#000000;stroke-width:1.0;stroke-dasharray:2.0,2.0;" x1="372.6563" x2="602.3828" y1="662.6729" y2="662.6729"/><text fill="#000000" font-family="Arial" font-size="12" lengthAdjust="spacing" textLength="24.6738" x="384.6563" y="658.1299">ACK</text><polygon fill="#000000" points="449.0039,696.3711,459.0039,700.3711,449.0039,704.3711,453.0039,700.3711" style="stroke:#000000;stroke-width:1.0;"/><line style="stroke:#000000;stroke-width:1.0;" x1="367.6563" x2="455.0039" y1="700.3711" y2="700.3711"/><text fill="#000000" font-family="Arial" font-size="12" lengthAdjust="spacing" textLength="41.332" x="374.6563" y="695.8281">Commit</text><path d="M466,675.6729 L466,712.6729 L582,712.6729 L582,685.6729 L572,675.6729 L466,675.6729 " fill="#90EE90" style="stroke:#000000;stroke-width:1.0;"/><path d="M572,675.6729 L572,685.6729 L582,685.6729 L572,675.6729 " fill="#90EE90" style="stroke:#000000;stroke-width:1.0;"/><text fill="#000000" font-family="Arial" font-size="12" lengthAdjust="spacing" textLength="74.0273" x="472" y="691.9287">Now visible to</text><text fill="#000000" font-family="Arial" font-size="12" lengthAdjust="spacing" textLength="95.3848" x="472" y="705.7275">other transactions</text><polygon fill="#000000" points="186.3398,743.9688,176.3398,747.9688,186.3398,751.9688,182.3398,747.9688" style="stroke:#000000;stroke-width:1.0;"/><line style="stroke:#000000;stroke-width:1.0;stroke-dasharray:2.0,2.0;" x1="180.3398" x2="366.6563" y1="747.9688" y2="747.9688"/><text fill="#000000" font-family="Arial" font-size="12" lengthAdjust="spacing" textLength="45.3516" x="192.3398" y="743.4258">Success</text><path d="M10,723.2705 L10,760.2705 L170,760.2705 L170,733.2705 L160,723.2705 L10,723.2705 " fill="#FFFFFF" style="stroke:#000000;stroke-width:1.0;"/><path d="M160,723.2705 L160,733.2705 L170,733.2705 L160,723.2705 " fill="#FFFFFF" style="stroke:#000000;stroke-width:1.0;"/><text fill="#000000" font-family="Arial" font-size="12" lengthAdjust="spacing" textLength="121.7051" x="16" y="739.5264">AFTER_SYNC = Safer</text><text fill="#000000" font-family="Arial" font-size="12" lengthAdjust="spacing" textLength="139.4238" x="16" y="753.3252">No phantom data possible</text><!--SRC=[jLFlYzf04Fs-VyMe7-wEej22BGWfQDGYFN-qiHo5Wp99LhEOx8RiHF7- -ausgKOeTnzAoOVCxflCl7blqg54PXBo59KMzg1qZWLc469qs1UcrB5lKbD0RpwhdbP6B7TOfZGtcbR85SQ5mlJlUA1U9Bp_80GfIYK4CbFzuAoZ4OpdszdtN_vwkLniuMYRS_1pvGl1PKX5AaTDqFLJ9JLr0Ir4Bho5bsX95WxEN2XY90pHIkWkj3RJYSCKXt5u- -b4wTJi7Howy1OEKZnAXzeg4iBpRbdVBy_1jqSO3eRzuU3Z0tYU43L5w7zksC08Vcocu-qCIikdOBO5pPfvTnCJteacXxDhVfpjconJ9BGX2ONQ9mIzZTA74KnvB3Wggq8MaimpPoJyBHMeBKQaZBQTLi5w8YxuL2YIBS0Dm_U1rF6VkQ_eXVKJAe8T-p_slmu60r4pCaS6cvpUcbllfG1OxA2s0Q82RI8jQ7CQCL1x1nPFB6SPHTBQBbzFIWAdBYHOvK9bMOS13pO9QsyoDwse65PjXQX9zzi4cTU5DzytmlDSTP-MNTLINStwzExVdFe_mZPMFrQlBuMKkZ5yjTvUJ3zBUjRtd0wHMnAIySERqho-Mkr-AtDwOxzUrzlL3GsnVMnbIteF0jpnZmdS0lB6uCfoo8rr_QvE_mO0]--></g></svg>