<svg xmlns="http://www.w3.org/2000/svg" xmlns:xlink="http://www.w3.org/1999/xlink" contentStyleType="text/css" height="557px" preserveAspectRatio="none" style="width:619px;height:557px;background:#FEFEFE;" version="1.1" viewBox="0 0 619 557" width="619px" zoomAndPan="magnify"><title>MHA (Master High Availability) Architecture</title><defs/><g><rect fill="#FEFEFE" height="557" style="stroke:none;stroke-width:1.0;" width="619" x="0" y="0"/><text fill="#000000" font-family="Arial" font-size="22" font-weight="bold" lengthAdjust="spacing" textLength="454.749" x="77.8875" y="35.6357">MHA (Master High Availability) Architecture</text><!--cluster mha--><g id="cluster_mha"><rect fill="#FFC0CB" height="122" rx="2.5" ry="2.5" style="stroke:#000000;stroke-width:1.0;" width="266" x="154.7818" y="161.2979"/><text fill="#000000" font-family="Arial" font-size="12" font-weight="bold" lengthAdjust="spacing" textLength="80.0098" x="247.7769" y="174.5537">MHA Manager</text></g><!--entity monitor--><g id="elem_monitor"><rect fill="#FFFFFF" height="43.7988" rx="2.5" ry="2.5" style="stroke:#000000;stroke-width:1.0;" width="80.0137" x="316.7818" y="208.2979"/><rect fill="#FFFFFF" height="10" style="stroke:#000000;stroke-width:1.0;" width="15" x="376.7955" y="213.2979"/><rect fill="#FFFFFF" height="2" style="stroke:#000000;stroke-width:1.0;" width="4" x="374.7955" y="215.2979"/><rect fill="#FFFFFF" height="2" style="stroke:#000000;stroke-width:1.0;" width="4" x="374.7955" y="219.2979"/><text fill="#000000" font-family="Arial" font-size="12" lengthAdjust="spacing" textLength="40.0137" x="331.7818" y="239.5537">Monitor</text></g><!--entity failover--><g id="elem_failover"><rect fill="#FFFFFF" height="57.5977" rx="2.5" ry="2.5" style="stroke:#000000;stroke-width:1.0;" width="82.6797" x="198.2818" y="201.2979"/><rect fill="#FFFFFF" height="10" style="stroke:#000000;stroke-width:1.0;" width="15" x="260.9615" y="206.2979"/><rect fill="#FFFFFF" height="2" style="stroke:#000000;stroke-width:1.0;" width="4" x="258.9615" y="208.2979"/><rect fill="#FFFFFF" height="2" style="stroke:#000000;stroke-width:1.0;" width="4" x="258.9615" y="212.2979"/><text fill="#000000" font-family="Arial" font-size="12" lengthAdjust="spacing" textLength="42.6797" x="213.2818" y="232.5537">Failover</text><text fill="#000000" font-family="Arial" font-size="12" lengthAdjust="spacing" textLength="30.6738" x="213.2818" y="246.3525">Script</text></g><!--entity vip--><g id="elem_vip"><path d="M23.8639,217.0283 C26.4773,211.4847 30.3471,210.4406 34.5351,215.4337 C38.0604,209.1777 43.2484,207.1987 48.2292,213.8948 C50.0881,207.5883 55.6264,207.3245 59.2519,212.1446 C61.9703,206.9325 67.1533,206.4122 70.747,211.1314 C74.9476,205.4588 79.984,204.1992 84.4127,210.879 C89.4548,205.707 92.795,207.3614 96.0982,212.7951 C101.4214,207.0058 106.8652,208.3329 108.866,215.9575 C113.1501,210.8295 116.7852,210.4976 120.053,216.94 C127.5239,219.8517 130.8782,226.1496 123.3714,232.2976 C128.3926,238.0057 126.0823,242.8724 119.3742,244.8434 C117.2279,250.6311 112.6034,251.2811 108.6438,246.7244 C104.9395,252.269 100.1267,251.6278 96.5042,246.6303 C93.2412,253.4673 87.5151,253.0668 83.9418,246.9308 C81.3186,253.9753 76.6043,253.8097 72.1201,248.7481 C68.102,253.079 62.4425,252.175 60.5901,246.3012 C56.3433,251.5459 51.1558,251.344 47.5098,245.5868 C44.2559,251.992 39.8139,252.3118 35.8952,246.2038 C31.5184,251.8244 27.6758,251.1469 24.1812,245.3025 C15.5907,244.9745 12.6425,238.4942 16.0098,231.2251 C11,222.7735 14.998,217.8036 23.8639,217.0283 " fill="#ADD8E6" style="stroke:#000000;stroke-width:1.0;"/><text fill="#000000" font-family="Arial" font-size="12" lengthAdjust="spacing" textLength="82.7285" x="29.2818" y="234.5537">VIP: 10.0.0.100</text></g><!--entity master--><g id="elem_master"><path d="M293.2818,362.2979 C293.2818,352.2979 324.9674,352.2979 324.9674,352.2979 C324.9674,352.2979 356.6529,352.2979 356.6529,362.2979 L356.6529,398.8955 C356.6529,408.8955 324.9674,408.8955 324.9674,408.8955 C324.9674,408.8955 293.2818,408.8955 293.2818,398.8955 L293.2818,362.2979 " fill="#90EE90" style="stroke:#000000;stroke-width:1.0;"/><path d="M293.2818,362.2979 C293.2818,372.2979 324.9674,372.2979 324.9674,372.2979 C324.9674,372.2979 356.6529,372.2979 356.6529,362.2979 " fill="none" style="stroke:#000000;stroke-width:1.0;"/><text fill="#000000" font-family="Arial" font-size="12" lengthAdjust="spacing" textLength="36.6738" x="303.2818" y="387.5537">Master</text><text fill="#000000" font-family="Arial" font-size="12" lengthAdjust="spacing" textLength="43.3711" x="303.2818" y="401.3525">10.0.0.1</text></g><!--entity slave1--><g id="elem_slave1"><path d="M191.2818,494.2979 C191.2818,484.2979 222.9674,484.2979 222.9674,484.2979 C222.9674,484.2979 254.6529,484.2979 254.6529,494.2979 L254.6529,530.8955 C254.6529,540.8955 222.9674,540.8955 222.9674,540.8955 C222.9674,540.8955 191.2818,540.8955 191.2818,530.8955 L191.2818,494.2979 " fill="#FFFFE0" style="stroke:#000000;stroke-width:1.0;"/><path d="M191.2818,494.2979 C191.2818,504.2979 222.9674,504.2979 222.9674,504.2979 C222.9674,504.2979 254.6529,504.2979 254.6529,494.2979 " fill="none" style="stroke:#000000;stroke-width:1.0;"/><text fill="#000000" font-family="Arial" font-size="12" lengthAdjust="spacing" textLength="40.0254" x="201.2818" y="519.5537">Slave 1</text><text fill="#000000" font-family="Arial" font-size="12" lengthAdjust="spacing" textLength="43.3711" x="201.2818" y="533.3525">10.0.0.2</text></g><!--entity slave2--><g id="elem_slave2"><path d="M363.2818,494.2979 C363.2818,484.2979 394.9674,484.2979 394.9674,484.2979 C394.9674,484.2979 426.6529,484.2979 426.6529,494.2979 L426.6529,530.8955 C426.6529,540.8955 394.9674,540.8955 394.9674,540.8955 C394.9674,540.8955 363.2818,540.8955 363.2818,530.8955 L363.2818,494.2979 " fill="#FFFFE0" style="stroke:#000000;stroke-width:1.0;"/><path d="M363.2818,494.2979 C363.2818,504.2979 394.9674,504.2979 394.9674,504.2979 C394.9674,504.2979 426.6529,504.2979 426.6529,494.2979 " fill="none" style="stroke:#000000;stroke-width:1.0;"/><text fill="#000000" font-family="Arial" font-size="12" lengthAdjust="spacing" textLength="40.0254" x="373.2818" y="519.5537">Slave 2</text><text fill="#000000" font-family="Arial" font-size="12" lengthAdjust="spacing" textLength="43.3711" x="373.2818" y="533.3525">10.0.0.3</text></g><!--entity app--><g id="elem_app"><rect fill="#FFFFFF" height="33.7988" rx="2.5" ry="2.5" style="stroke:#000000;stroke-width:1.0;" width="78.7051" x="31.2818" y="58.2979"/><text fill="#000000" font-family="Arial" font-size="12" lengthAdjust="spacing" textLength="58.7051" x="41.2818" y="79.5537">Application</text></g><g id="elem_GMN17"><path d="M444.7818,190.7979 L444.7818,269.792 L612.524,269.792 L612.524,200.7979 L602.524,190.7979 L444.7818,190.7979 " fill="#FFFFFF" style="stroke:#000000;stroke-width:1.0;"/><path d="M602.524,190.7979 L602.524,200.7979 L612.524,200.7979 L602.524,190.7979 " fill="#FFFFFF" style="stroke:#000000;stroke-width:1.0;"/><text fill="#000000" font-family="Arial" font-size="12" font-weight="bold" lengthAdjust="spacing" textLength="86.0273" x="450.7818" y="207.0537">Failover Steps:</text><text fill="#000000" font-family="Arial" font-size="12" lengthAdjust="spacing" textLength="124.0488" x="450.7818" y="220.8525">1. Detect Master failure</text><text fill="#000000" font-family="Arial" font-size="12" lengthAdjust="spacing" textLength="146.7422" x="450.7818" y="234.6514">2. Compare Slave positions</text><text fill="#000000" font-family="Arial" font-size="12" lengthAdjust="spacing" textLength="118.0605" x="450.7818" y="248.4502">3. Promote best Slave</text><text fill="#000000" font-family="Arial" font-size="12" lengthAdjust="spacing" textLength="144.0586" x="450.7818" y="262.249">4. Move VIP to new Master</text></g><!--link app to vip--><g id="link_app_vip"><path d="M70.7818,92.3779 C70.7818,120.1579 70.7818,171.0979 70.7818,202.0779 " fill="none" id="app-to-vip" style="stroke:#000000;stroke-width:1.0;"/><polygon fill="#000000" points="70.7818,208.0779,74.7818,199.0779,70.7818,203.0779,66.7818,199.0779,70.7818,208.0779" style="stroke:#000000;stroke-width:1.0;"/><text fill="#000000" font-family="Arial" font-size="12" lengthAdjust="spacing" textLength="44.6953" x="71.7818" y="134.5537">Connect</text></g><!--link vip to master--><g id="link_vip_master"><path d="M90.9718,252.5079 C105.5218,266.9779 126.1618,285.8679 146.7818,299.2979 C172.2218,315.8679 243.5688,346.3212 287.5188,364.5312 " fill="none" id="vip-to-master" style="stroke:#000000;stroke-width:1.0;"/><polygon fill="#000000" points="293.0618,366.8279,286.2784,359.6875,288.4426,364.914,283.2162,367.0782,293.0618,366.8279" style="stroke:#000000;stroke-width:1.0;"/><text fill="#000000" font-family="Arial" font-size="12" lengthAdjust="spacing" textLength="32.0215" x="187.7818" y="319.5537">Route</text></g><!--link monitor to master--><g id="link_monitor_master"><path d="M352.2018,252.5779 C346.5418,278.7979 338.1957,317.5525 331.9857,346.3725 " fill="none" id="monitor-to-master" style="stroke:#000000;stroke-width:1.0;stroke-dasharray:7.0,7.0;"/><polygon fill="#000000" points="330.7218,352.2379,336.5279,344.2823,331.775,347.35,328.7073,342.5972,330.7218,352.2379" style="stroke:#000000;stroke-width:1.0;"/><text fill="#000000" font-family="Arial" font-size="12" lengthAdjust="spacing" textLength="52.6992" x="340.7818" y="319.5537">Heartbeat</text></g><!--link monitor to slave1--><g id="link_monitor_slave1"><path d="M341.0718,252.4879 C330.0718,266.5879 314.5718,285.0679 298.7818,299.2979 C267.9218,327.1179 241.1118,315.5279 221.7818,352.2979 C199.8118,394.0879 206.2142,445.1189 213.8342,478.4389 " fill="none" id="monitor-to-slave1" style="stroke:#000000;stroke-width:1.0;stroke-dasharray:7.0,7.0;"/><polygon fill="#000000" points="215.1718,484.2879,217.0647,474.6226,214.0571,479.4137,209.2661,476.4061,215.1718,484.2879" style="stroke:#000000;stroke-width:1.0;"/><text fill="#000000" font-family="Arial" font-size="12" lengthAdjust="spacing" textLength="52.6992" x="222.7818" y="385.5537">Heartbeat</text></g><!--link monitor to slave2--><g id="link_monitor_slave2"><path d="M372.6718,252.3579 C382.8218,266.9679 395.2418,287.3379 401.7818,307.2979 C422.1918,369.6279 425.7118,389.6279 414.7818,454.2979 C413.0918,464.2979 411.8955,469.2466 408.5155,478.5766 " fill="none" id="monitor-to-slave2" style="stroke:#000000;stroke-width:1.0;stroke-dasharray:7.0,7.0;"/><polygon fill="#000000" points="406.4718,484.2179,413.2981,477.1184,408.1749,479.5168,405.7765,474.3936,406.4718,484.2179" style="stroke:#000000;stroke-width:1.0;"/><text fill="#000000" font-family="Arial" font-size="12" lengthAdjust="spacing" textLength="52.6992" x="421.7818" y="385.5537">Heartbeat</text></g><!--link master to slave1--><g id="link_master_slave1"><path d="M299.2318,409.3279 C290.8918,418.6579 281.7318,429.2479 273.7818,439.2979 C262.4218,453.6579 253.9914,465.387 244.5914,479.117 " fill="none" id="master-to-slave1" style="stroke:#000000;stroke-width:1.0;"/><polygon fill="#000000" points="241.2018,484.0679,249.5867,478.9012,244.0264,479.9421,242.9855,474.3819,241.2018,484.0679" style="stroke:#000000;stroke-width:1.0;"/><text fill="#000000" font-family="Arial" font-size="12" lengthAdjust="spacing" textLength="59.3672" x="274.7818" y="451.5537">Replication</text></g><!--link master to slave2--><g id="link_master_slave2"><path d="M331.9918,409.5579 C336.1818,423.4579 342.1518,440.2579 349.7818,454.2979 C355.4118,464.6579 359.1487,470.3886 366.3887,479.4586 " fill="none" id="master-to-slave2" style="stroke:#000000;stroke-width:1.0;"/><polygon fill="#000000" points="370.1318,484.1479,367.6433,474.6186,367.0126,480.2401,361.391,479.6094,370.1318,484.1479" style="stroke:#000000;stroke-width:1.0;"/><text fill="#000000" font-family="Arial" font-size="12" lengthAdjust="spacing" textLength="59.3672" x="350.7818" y="451.5537">Replication</text></g><!--link mha to GMN17--><g id="link_mha_GMN17"><path d="M168.6269,161.1704 C168.7394,160.7986 168.8538,160.4274 168.97,160.0568 C169.2024,159.3156 169.4422,158.5768 169.6896,157.841 C170.1843,156.3693 170.7092,154.9095 171.2662,153.4654 C172.3801,150.5772 173.6219,147.752 175.0054,145.0211 C180.5393,134.0979 188.3393,124.6854 199.2818,118.7979 C237.6418,98.1579 354.3318,103.9479 395.2818,118.7979 C434.7418,133.1079 470.7118,164.7479 495.3418,190.6879 " fill="none" id="mha-GMN17" style="stroke:#000000;stroke-width:1.0;stroke-dasharray:7.0,7.0;"/></g><!--SRC=[VLB1Yjj03BtFLwZ9fGsiYRqzvL18jqrJQ4hOGA6m5yLMaY5ZpJ2MixIb_rwDxKsJtL8Rp5ZlFUb9erToe9eWEBHicgFbW15hs69vt4VVSdNddOymNdnCxmMZeXssJXQUvIjgXdcqwFwDR-nFWhmmHgmuWjLo3gzNs0X5MDhz0UOdj0wtrbdvyKOJbGShL4eRoPYe1-IzoaP9jqB6FSKHO0Fr0M6yjdo4NmRqANqTF1EBKZrRyGEjFp-dBBIcFr5yu4qPRP2Eknk2vhSnfVDj1QDldzSpoATPUlFfjAETR83n5xKkxrsh9YiKt6AJF7PjFV2Je7VGzzehFaKYlb1i79vqEcT9qKcQ5Cq7oNTopZ- -q1HdpUrVJN6jkPpVF0HdInJhkUDZ2CRe1svktdKjpU3ECwl0fByK7PpFuDwteeqEiuGiky2MX56sX7853nty5owkO3DaJ8NFwdiwctw15yzmmru8OceV_2xjXrxwPF9qqx0H2iriCj5edi47Iai6moAccqyB1r1aEePQbvYWdtFmZKtv6mLlCrX7NwSwMsgaPsZyRGOhhG6wBI0Uc1w7n8QuWkJB_040]--></g></svg>