<svg xmlns="http://www.w3.org/2000/svg" xmlns:xlink="http://www.w3.org/1999/xlink" contentStyleType="text/css" height="701px" preserveAspectRatio="none" style="width:551px;height:701px;background:#FEFEFE;" version="1.1" viewBox="0 0 551 701" width="551px" zoomAndPan="magnify"><title>MySQL Group Replication (MGR) Architecture</title><defs/><g><rect fill="#FEFEFE" height="701" style="stroke:none;stroke-width:1.0;" width="551" x="0" y="0"/><text fill="#000000" font-family="Arial" font-size="22" font-weight="bold" lengthAdjust="spacing" textLength="480.3691" x="31.1006" y="35.6357">MySQL Group Replication (MGR) Architecture</text><!--cluster mgr--><g id="cluster_mgr"><path d="M13.5,270.2979 L133.8555,270.2979 A3.75,3.75 0 0 1 136.3555,272.7979 L143.3555,290.0967 L282.5,290.0967 A2.5,2.5 0 0 1 285,292.5967 L285,691.7979 A2.5,2.5 0 0 1 282.5,694.2979 L13.5,694.2979 A2.5,2.5 0 0 1 11,691.7979 L11,272.7979 A2.5,2.5 0 0 1 13.5,270.2979 " fill="#90EE90" style="stroke:#000000;stroke-width:1.0;"/><line style="stroke:#000000;stroke-width:1.0;" x1="11" x2="143.3555" y1="290.0967" y2="290.0967"/><text fill="#000000" font-family="Arial" font-size="12" font-weight="bold" lengthAdjust="spacing" textLength="119.3555" x="15" y="283.5537">MGR Cluster (Paxos)</text></g><!--entity node1--><g id="elem_node1"><path d="M84.5,320.2979 C84.5,310.2979 119.1621,310.2979 119.1621,310.2979 C119.1621,310.2979 153.8242,310.2979 153.8242,320.2979 L153.8242,356.8955 C153.8242,366.8955 119.1621,366.8955 119.1621,366.8955 C119.1621,366.8955 84.5,366.8955 84.5,356.8955 L84.5,320.2979 " fill="#FFD700" style="stroke:#000000;stroke-width:1.0;"/><path d="M84.5,320.2979 C84.5,330.2979 119.1621,330.2979 119.1621,330.2979 C119.1621,330.2979 153.8242,330.2979 153.8242,320.2979 " fill="none" style="stroke:#000000;stroke-width:1.0;"/><text fill="#000000" font-family="Arial" font-size="12" lengthAdjust="spacing" textLength="38.6953" x="94.5" y="345.5537">Node 1</text><text fill="#000000" font-family="Arial" font-size="12" lengthAdjust="spacing" textLength="49.3242" x="94.5" y="359.3525">(Primary)</text></g><!--entity node2--><g id="elem_node2"><path d="M175.5,477.2979 C175.5,467.2979 218.1807,467.2979 218.1807,467.2979 C218.1807,467.2979 260.8613,467.2979 260.8613,477.2979 L260.8613,513.8955 C260.8613,523.8955 218.1807,523.8955 218.1807,523.8955 C218.1807,523.8955 175.5,523.8955 175.5,513.8955 L175.5,477.2979 " fill="#FFFFE0" style="stroke:#000000;stroke-width:1.0;"/><path d="M175.5,477.2979 C175.5,487.2979 218.1807,487.2979 218.1807,487.2979 C218.1807,487.2979 260.8613,487.2979 260.8613,477.2979 " fill="none" style="stroke:#000000;stroke-width:1.0;"/><text fill="#000000" font-family="Arial" font-size="12" lengthAdjust="spacing" textLength="38.6953" x="185.5" y="502.5537">Node 2</text><text fill="#000000" font-family="Arial" font-size="12" lengthAdjust="spacing" textLength="65.3613" x="185.5" y="516.3525">(Secondary)</text></g><!--entity node3--><g id="elem_node3"><path d="M156.5,623.2979 C156.5,613.2979 199.1807,613.2979 199.1807,613.2979 C199.1807,613.2979 241.8613,613.2979 241.8613,623.2979 L241.8613,659.8955 C241.8613,669.8955 199.1807,669.8955 199.1807,669.8955 C199.1807,669.8955 156.5,669.8955 156.5,659.8955 L156.5,623.2979 " fill="#FFFFE0" style="stroke:#000000;stroke-width:1.0;"/><path d="M156.5,623.2979 C156.5,633.2979 199.1807,633.2979 199.1807,633.2979 C199.1807,633.2979 241.8613,633.2979 241.8613,623.2979 " fill="none" style="stroke:#000000;stroke-width:1.0;"/><text fill="#000000" font-family="Arial" font-size="12" lengthAdjust="spacing" textLength="38.6953" x="166.5" y="648.5537">Node 3</text><text fill="#000000" font-family="Arial" font-size="12" lengthAdjust="spacing" textLength="65.3613" x="166.5" y="662.3525">(Secondary)</text></g><!--entity router--><g id="elem_router"><rect fill="#ADD8E6" height="33.7988" rx="2.5" ry="2.5" style="stroke:#000000;stroke-width:1.0;" width="99.3594" x="174.5" y="167.2979"/><text fill="#000000" font-family="Arial" font-size="12" lengthAdjust="spacing" textLength="79.3594" x="184.5" y="188.5537">MySQL Router</text></g><!--entity app--><g id="elem_app"><rect fill="#FFFFFF" height="33.7988" rx="2.5" ry="2.5" style="stroke:#000000;stroke-width:1.0;" width="78.7051" x="184.5" y="58.2979"/><text fill="#000000" font-family="Arial" font-size="12" lengthAdjust="spacing" textLength="58.7051" x="194.5" y="79.5537">Application</text></g><g id="elem_GMN15"><path d="M367.5,299.2979 L367.5,378.292 L544.5703,378.292 L544.5703,309.2979 L534.5703,299.2979 L367.5,299.2979 " fill="#FFFFFF" style="stroke:#000000;stroke-width:1.0;"/><path d="M534.5703,299.2979 L534.5703,309.2979 L544.5703,309.2979 L534.5703,299.2979 " fill="#FFFFFF" style="stroke:#000000;stroke-width:1.0;"/><text fill="#000000" font-family="Arial" font-size="12" font-weight="bold" lengthAdjust="spacing" textLength="120.6797" x="373.5" y="315.5537">Consensus Protocol:</text><text fill="#000000" font-family="Arial" font-size="12" lengthAdjust="spacing" textLength="156.0703" x="373.5" y="329.3525">- Write broadcast to all nodes</text><text fill="#000000" font-family="Arial" font-size="12" lengthAdjust="spacing" textLength="106.6816" x="373.5" y="343.1514">- Majority must ACK</text><text fill="#000000" font-family="Arial" font-size="12" lengthAdjust="spacing" textLength="154.0605" x="373.5" y="356.9502">- Conflicting TX auto-rollback</text><text fill="#000000" font-family="Arial" font-size="12" lengthAdjust="spacing" textLength="102.7031" x="373.5" y="370.749">- Automatic failover</text></g><!--link node1 to node2--><g id="link_node1_node2"><path d="M118.5055,373.4543 C119.2155,394.1743 122.73,416.4179 136,437.2979 C145.6,452.4179 155.6737,461.4792 170.3537,470.7292 " fill="none" id="node1-node2" style="stroke:#000000;stroke-width:1.0;"/><polygon fill="#000000" points="118.3,367.4579,114.6106,376.5896,118.4712,372.4549,122.6059,376.3156,118.3,367.4579" style="stroke:#000000;stroke-width:1.0;"/><polygon fill="#000000" points="175.43,473.9279,169.948,465.7457,171.1998,471.2623,165.6831,472.5141,175.43,473.9279" style="stroke:#000000;stroke-width:1.0;"/><text fill="#000000" font-family="Arial" font-size="12" lengthAdjust="spacing" textLength="33.3516" x="150.3418" y="420.5537">Paxos</text><text fill="#000000" font-family="Arial" font-size="12" lengthAdjust="spacing" textLength="60.0352" x="137" y="434.3525">Consensus</text></g><!--link node2 to node3--><g id="link_node2_node3"><path d="M213.5539,530.5061 C210.1839,556.0061 206.7947,581.6994 203.4347,607.1694 " fill="none" id="node2-node3" style="stroke:#000000;stroke-width:1.0;"/><polygon fill="#000000" points="214.34,524.5579,209.1953,532.9562,213.6849,529.5148,217.1264,534.0043,214.34,524.5579" style="stroke:#000000;stroke-width:1.0;"/><polygon fill="#000000" points="202.65,613.1179,207.7927,604.7183,203.3039,608.1608,199.8614,603.672,202.65,613.1179" style="stroke:#000000;stroke-width:1.0;"/><text fill="#000000" font-family="Arial" font-size="12" lengthAdjust="spacing" textLength="33.3516" x="224.3418" y="566.5537">Paxos</text><text fill="#000000" font-family="Arial" font-size="12" lengthAdjust="spacing" textLength="60.0352" x="211" y="580.3525">Consensus</text></g><!--link node1 to node3--><g id="link_node1_node3"><path d="M105.604,372.9746 C92.134,409.9046 75.94,471.3179 96,524.2979 C109.53,560.0279 135.0704,587.8788 159.2404,609.1988 " fill="none" id="node1-node3" style="stroke:#000000;stroke-width:1.0;"/><polygon fill="#000000" points="107.66,367.3379,100.8182,374.4223,105.9467,372.0351,108.3339,377.1636,107.66,367.3379" style="stroke:#000000;stroke-width:1.0;"/><polygon fill="#000000" points="163.74,613.1679,159.6366,604.2145,159.9903,609.8603,154.3445,610.214,163.74,613.1679" style="stroke:#000000;stroke-width:1.0;"/><text fill="#000000" font-family="Arial" font-size="12" lengthAdjust="spacing" textLength="33.3516" x="110.3418" y="493.5537">Paxos</text><text fill="#000000" font-family="Arial" font-size="12" lengthAdjust="spacing" textLength="60.0352" x="97" y="507.3525">Consensus</text></g><!--link app to router--><g id="link_app_router"><path d="M224,92.5479 C224,112.7779 224,141.1079 224,161.2479 " fill="none" id="app-to-router" style="stroke:#000000;stroke-width:1.0;"/><polygon fill="#000000" points="224,167.2479,228,158.2479,224,162.2479,220,158.2479,224,167.2479" style="stroke:#000000;stroke-width:1.0;"/><text fill="#000000" font-family="Arial" font-size="12" lengthAdjust="spacing" textLength="60.0176" x="225" y="134.5537">Read/Write</text></g><!--link router to node1--><g id="link_router_node1"><path d="M200.28,201.4679 C189.72,209.5279 177.74,219.9579 169,231.2979 C150.42,255.4079 138.6084,281.8993 130.2484,304.5393 " fill="none" id="router-to-node1" style="stroke:#000000;stroke-width:1.0;"/><polygon fill="#000000" points="128.17,310.1679,135.0399,303.1106,129.902,305.4774,127.5352,300.3395,128.17,310.1679" style="stroke:#000000;stroke-width:1.0;"/><text fill="#000000" font-family="Arial" font-size="12" lengthAdjust="spacing" textLength="27.9961" x="170" y="243.5537">Write</text></g><!--link router to node2--><g id="link_router_node2"><path d="M223.69,201.4979 C222.72,251.4979 219.8759,397.799 218.6559,460.929 " fill="none" id="router-to-node2" style="stroke:#000000;stroke-width:1.0;"/><polygon fill="#000000" points="218.54,466.9279,222.7131,458.0068,218.6366,461.9288,214.7146,457.8522,218.54,466.9279" style="stroke:#000000;stroke-width:1.0;"/><text fill="#000000" font-family="Arial" font-size="12" lengthAdjust="spacing" textLength="28.6875" x="223" y="343.5537">Read</text></g><!--link router to node3--><g id="link_router_node3"><path d="M234.84,201.5279 C243.26,215.0279 254.42,235.0979 260,254.2979 C300.85,394.9779 347.22,453.1379 280,583.2979 C271.69,599.3879 261.6744,608.7943 246.7344,618.0243 " fill="none" id="router-to-node3" style="stroke:#000000;stroke-width:1.0;"/><polygon fill="#000000" points="241.63,621.1779,251.389,619.8505,245.8837,618.5499,247.1843,613.0446,241.63,621.1779" style="stroke:#000000;stroke-width:1.0;"/><text fill="#000000" font-family="Arial" font-size="12" lengthAdjust="spacing" textLength="28.6875" x="313" y="427.5537">Read</text></g><!--link mgr to GMN15--><g id="link_mgr_GMN15"><path d="M17.427,270.264 C17.4639,270.0786 17.5012,269.8933 17.539,269.7082 C17.6147,269.3379 17.6922,268.9682 17.7717,268.5992 C17.9307,267.8611 18.0976,267.1257 18.2725,266.3932 C18.6224,264.9284 19.0048,263.4759 19.4217,262.0396 C20.2556,259.1671 21.228,256.3597 22.3563,253.6491 C26.8694,242.8066 33.8775,233.5129 44.5,227.7979 C98.9,198.5279 264.4,206.7979 322.5,227.7979 C361.76,241.9879 397.62,273.3179 422.26,299.0779 " fill="none" id="mgr-GMN15" style="stroke:#000000;stroke-width:1.0;stroke-dasharray:7.0,7.0;"/></g><!--SRC=[XPDHQzim4CVVzIbkpKiQ22FEMnY3BBH-Q5EoPD0D-dAn54Uhh3FIkLiszjrtLfni6MQrmOYxt_z_9vtrXlUcCb0xj5x5P-jh35Z15eldCb3ZzO8S1HZSthJlNuGsEsmStvBd1nI7UR3e-lCR-yF095EABJi3oyFcuptaubx3sjJE5iYMF0oN-VfQV8gzPLDm4unIGHReIr5T7MLhQjY4Ay088IrXS6_BFNzmZU2rj8rb2-ThMBWcji1mXTyfNYTDLPu4UJ36mqy5ycXat68KtGDfQVN93rV1LXWEHvMNw0G6EJdTnsV2Rqn1NbyeigxI5-CSVUiJJlk5qqjXKXvRU3SUl- -yPv2szUGNvAFniObdBll3JV_7JLxXVbsS_xm-ZofrYdMjb7oWzUXcCPE1edxx66I2gekTIamasvl8Ejc_yUafhZonWT0U2T2kdQ5iOJGwDmghG4m5kTbe99dniGni0w4kC38m0JgNJ6C2blYLX3b09Ry8p1TtAIg6EzaYMr_2fy-03TCua7FjPKZ0N2ALd401ExIENanGncjesrE_0G00]--></g></svg>