<svg xmlns="http://www.w3.org/2000/svg" xmlns:xlink="http://www.w3.org/1999/xlink" contentStyleType="text/css" height="599px" preserveAspectRatio="none" style="width:642px;height:599px;background:#FEFEFE;" version="1.1" viewBox="0 0 642 599" width="642px" zoomAndPan="magnify"><title>MGR Write Latency - Paxos Overhead</title><defs/><g><rect fill="#FEFEFE" height="599" style="stroke:none;stroke-width:1.0;" width="642" x="0" y="0"/><text fill="#000000" font-family="Arial" font-size="22" font-weight="bold" lengthAdjust="spacing" textLength="393.6689" x="126.3765" y="35.6357">MGR Write Latency - Paxos Overhead</text><rect fill="#FFFFFF" height="387.2842" style="stroke:#000000;stroke-width:1.0;" width="10" x="385.6914" y="123.6943"/><line style="stroke:#000000;stroke-width:1.0;" x1="243" x2="243" y1="93.8955" y2="552.6768"/><line style="stroke:#000000;stroke-width:1.0;" x1="390.0293" x2="390.0293" y1="93.8955" y2="552.6768"/><line style="stroke:#000000;stroke-width:1.0;" x1="492.041" x2="492.041" y1="93.8955" y2="552.6768"/><line style="stroke:#000000;stroke-width:1.0;" x1="574.7363" x2="574.7363" y1="93.8955" y2="552.6768"/><rect fill="#FFFFFF" height="27.7988" rx="2.5" ry="2.5" style="stroke:#000000;stroke-width:1.0;" width="44.6797" x="221" y="65.0967"/><text fill="#000000" font-family="Arial" font-size="12" lengthAdjust="spacing" textLength="30.6797" x="228" y="83.3525">Client</text><rect fill="#FFFFFF" height="27.7988" rx="2.5" ry="2.5" style="stroke:#000000;stroke-width:1.0;" width="44.6797" x="221" y="551.6768"/><text fill="#000000" font-family="Arial" font-size="12" lengthAdjust="spacing" textLength="30.6797" x="228" y="569.9326">Client</text><rect fill="#FFFFFF" height="41.5977" rx="2.5" ry="2.5" style="stroke:#000000;stroke-width:1.0;" width="63.3242" x="359.0293" y="51.2979"/><text fill="#000000" font-family="Arial" font-size="12" lengthAdjust="spacing" textLength="38.6953" x="371.3438" y="69.5537">Node 1</text><text fill="#000000" font-family="Arial" font-size="12" lengthAdjust="spacing" textLength="49.3242" x="366.0293" y="83.3525">(Primary)</text><rect fill="#FFFFFF" height="41.5977" rx="2.5" ry="2.5" style="stroke:#000000;stroke-width:1.0;" width="63.3242" x="359.0293" y="551.6768"/><text fill="#000000" font-family="Arial" font-size="12" lengthAdjust="spacing" textLength="38.6953" x="371.3438" y="569.9326">Node 1</text><text fill="#000000" font-family="Arial" font-size="12" lengthAdjust="spacing" textLength="49.3242" x="366.0293" y="583.7314">(Primary)</text><rect fill="#FFFFFF" height="27.7988" rx="2.5" ry="2.5" style="stroke:#000000;stroke-width:1.0;" width="52.6953" x="466.041" y="65.0967"/><text fill="#000000" font-family="Arial" font-size="12" lengthAdjust="spacing" textLength="38.6953" x="473.041" y="83.3525">Node 2</text><rect fill="#FFFFFF" height="27.7988" rx="2.5" ry="2.5" style="stroke:#000000;stroke-width:1.0;" width="52.6953" x="466.041" y="551.6768"/><text fill="#000000" font-family="Arial" font-size="12" lengthAdjust="spacing" textLength="38.6953" x="473.041" y="569.9326">Node 2</text><rect fill="#FFFFFF" height="27.7988" rx="2.5" ry="2.5" style="stroke:#000000;stroke-width:1.0;" width="52.6953" x="548.7363" y="65.0967"/><text fill="#000000" font-family="Arial" font-size="12" lengthAdjust="spacing" textLength="38.6953" x="555.7363" y="83.3525">Node 3</text><rect fill="#FFFFFF" height="27.7988" rx="2.5" ry="2.5" style="stroke:#000000;stroke-width:1.0;" width="52.6953" x="548.7363" y="551.6768"/><text fill="#000000" font-family="Arial" font-size="12" lengthAdjust="spacing" textLength="38.6953" x="555.7363" y="569.9326">Node 3</text><rect fill="#FFFFFF" height="387.2842" style="stroke:#000000;stroke-width:1.0;" width="10" x="385.6914" y="123.6943"/><polygon fill="#000000" points="373.6914,119.6943,383.6914,123.6943,373.6914,127.6943,377.6914,123.6943" style="stroke:#000000;stroke-width:1.0;"/><line style="stroke:#000000;stroke-width:1.0;" x1="243.3398" x2="379.6914" y1="123.6943" y2="123.6943"/><text fill="#000000" font-family="Arial" font-size="12" lengthAdjust="spacing" textLength="123.3516" x="250.3398" y="119.1514">INSERT INTO orders...</text><line style="stroke:#000000;stroke-width:1.0;" x1="395.6914" x2="437.6914" y1="151.4932" y2="151.4932"/><line style="stroke:#000000;stroke-width:1.0;" x1="437.6914" x2="437.6914" y1="151.4932" y2="164.4932"/><line style="stroke:#000000;stroke-width:1.0;" x1="396.6914" x2="437.6914" y1="164.4932" y2="164.4932"/><polygon fill="#000000" points="406.6914,160.4932,396.6914,164.4932,406.6914,168.4932,402.6914,164.4932" style="stroke:#000000;stroke-width:1.0;"/><text fill="#000000" font-family="Arial" font-size="12" lengthAdjust="spacing" textLength="61.3594" x="402.6914" y="146.9502">Prepare TX</text><polygon fill="#000000" points="480.3887,188.292,490.3887,192.292,480.3887,196.292,484.3887,192.292" style="stroke:#000000;stroke-width:1.0;"/><line style="stroke:#000000;stroke-width:1.0;" x1="395.6914" x2="486.3887" y1="192.292" y2="192.292"/><text fill="#000000" font-family="Arial" font-size="12" lengthAdjust="spacing" textLength="72.6973" x="402.6914" y="187.749">Broadcast TX</text><polygon fill="#000000" points="563.084,216.0908,573.084,220.0908,563.084,224.0908,567.084,220.0908" style="stroke:#000000;stroke-width:1.0;"/><line style="stroke:#000000;stroke-width:1.0;" x1="395.6914" x2="569.084" y1="220.0908" y2="220.0908"/><text fill="#000000" font-family="Arial" font-size="12" lengthAdjust="spacing" textLength="72.6973" x="402.6914" y="215.5479">Broadcast TX</text><line style="stroke:#000000;stroke-width:1.0;" x1="492.3887" x2="534.3887" y1="247.8896" y2="247.8896"/><line style="stroke:#000000;stroke-width:1.0;" x1="534.3887" x2="534.3887" y1="247.8896" y2="260.8896"/><line style="stroke:#000000;stroke-width:1.0;" x1="493.3887" x2="534.3887" y1="260.8896" y2="260.8896"/><polygon fill="#000000" points="503.3887,256.8896,493.3887,260.8896,503.3887,264.8896,499.3887,260.8896" style="stroke:#000000;stroke-width:1.0;"/><text fill="#000000" font-family="Arial" font-size="12" lengthAdjust="spacing" textLength="53.3379" x="499.3887" y="243.3467">Certify TX</text><polygon fill="#000000" points="406.6914,284.6885,396.6914,288.6885,406.6914,292.6885,402.6914,288.6885" style="stroke:#000000;stroke-width:1.0;"/><line style="stroke:#000000;stroke-width:1.0;stroke-dasharray:2.0,2.0;" x1="400.6914" x2="491.3887" y1="288.6885" y2="288.6885"/><text fill="#000000" font-family="Arial" font-size="12" lengthAdjust="spacing" textLength="24.6738" x="412.6914" y="284.1455">ACK</text><line style="stroke:#000000;stroke-width:1.0;" x1="575.084" x2="617.084" y1="316.4873" y2="316.4873"/><line style="stroke:#000000;stroke-width:1.0;" x1="617.084" x2="617.084" y1="316.4873" y2="329.4873"/><line style="stroke:#000000;stroke-width:1.0;" x1="576.084" x2="617.084" y1="329.4873" y2="329.4873"/><polygon fill="#000000" points="586.084,325.4873,576.084,329.4873,586.084,333.4873,582.084,329.4873" style="stroke:#000000;stroke-width:1.0;"/><text fill="#000000" font-family="Arial" font-size="12" lengthAdjust="spacing" textLength="53.3379" x="582.084" y="311.9443">Certify TX</text><polygon fill="#000000" points="406.6914,353.2861,396.6914,357.2861,406.6914,361.2861,402.6914,357.2861" style="stroke:#000000;stroke-width:1.0;"/><line style="stroke:#000000;stroke-width:1.0;stroke-dasharray:2.0,2.0;" x1="400.6914" x2="574.084" y1="357.2861" y2="357.2861"/><text fill="#000000" font-family="Arial" font-size="12" lengthAdjust="spacing" textLength="24.6738" x="412.6914" y="352.7432">ACK</text><path d="M312,370.2861 L312,421.2861 L467,421.2861 L467,380.2861 L457,370.2861 L312,370.2861 " fill="#FFFFFF" style="stroke:#000000;stroke-width:1.0;"/><path d="M457,370.2861 L457,380.2861 L467,380.2861 L457,370.2861 " fill="#FFFFFF" style="stroke:#000000;stroke-width:1.0;"/><text fill="#000000" font-family="Arial" font-size="12" font-weight="bold" lengthAdjust="spacing" textLength="122.0098" x="318" y="386.542">Wait for Majority (2/3)</text><text fill="#000000" font-family="Arial" font-size="12" lengthAdjust="spacing" textLength="113.0508" x="318" y="400.3408">LAN: +0.5ms ~ +2ms</text><text fill="#000000" font-family="Arial" font-size="12" lengthAdjust="spacing" textLength="134.3906" x="318" y="414.1396">WAN: +100ms ~ +300ms</text><line style="stroke:#000000;stroke-width:1.0;" x1="395.6914" x2="437.6914" y1="446.4814" y2="446.4814"/><line style="stroke:#000000;stroke-width:1.0;" x1="437.6914" x2="437.6914" y1="446.4814" y2="459.4814"/><line style="stroke:#000000;stroke-width:1.0;" x1="396.6914" x2="437.6914" y1="459.4814" y2="459.4814"/><polygon fill="#000000" points="406.6914,455.4814,396.6914,459.4814,406.6914,463.4814,402.6914,459.4814" style="stroke:#000000;stroke-width:1.0;"/><text fill="#000000" font-family="Arial" font-size="12" lengthAdjust="spacing" textLength="48.6563" x="402.6914" y="441.9385">COMMIT</text><polygon fill="#000000" points="254.3398,506.9785,244.3398,510.9785,254.3398,514.9785,250.3398,510.9785" style="stroke:#000000;stroke-width:1.0;"/><line style="stroke:#000000;stroke-width:1.0;stroke-dasharray:2.0,2.0;" x1="248.3398" x2="389.6914" y1="510.9785" y2="510.9785"/><text fill="#000000" font-family="Arial" font-size="12" lengthAdjust="spacing" textLength="17.3379" x="260.3398" y="506.4355">OK</text><path d="M10,472.4814 L10,537.4814 L238,537.4814 L238,482.4814 L228,472.4814 L10,472.4814 " fill="#FFFFFF" style="stroke:#000000;stroke-width:1.0;"/><path d="M228,472.4814 L228,482.4814 L238,482.4814 L228,472.4814 " fill="#FFFFFF" style="stroke:#000000;stroke-width:1.0;"/><text fill="#000000" font-family="Arial" font-size="12" font-weight="bold" lengthAdjust="spacing" textLength="125.373" x="16" y="488.7373">The Physics Problem:</text><text fill="#000000" font-family="Arial" font-size="12" lengthAdjust="spacing" textLength="207.7559" x="16" y="502.5361">Singapore &lt;-&gt; New York: ~200ms RTT</text><text fill="#000000" font-family="Arial" font-size="12" lengthAdjust="spacing" textLength="168.0586" x="16" y="516.335">Every write waits for consensus</text><text fill="#000000" font-family="Arial" font-size="12" lengthAdjust="spacing" textLength="182.0508" x="16" y="530.1338">TPS drops dramatically over WAN</text><!--SRC=[RLB1Rjim3BthAxZkqgPebjZOnHW6P4Ow56qS8p6G5jY5iPb6YomPajBCE_JRnzXfvxQ60PdWutlae_J9Rwaag1HABTnEwWejbh36VFTepLuNiL76mkVhwV7hL1IqmRtorqRx15bXOYMgVdmf_nAC0o6yz8fWzdC1AoizmHrwqdaDLv3Y7-DW_aHsIrW8mHfUvh92xU4iLfAqFmDqa3VXMpWn1Sl_qkUfbINQ-gAfr9mTznG6hsZGWuQlQ2X4smoklhTY4C5DifmkClvbSp2s8Ek6mw70tCidjdBgAThg3YsrnAq8ilktMC3O3skmoD7v3sZu7XKjfqEEYGriwXSgOvska_YsfOHTnNUKi8_2LWnVnSaFm62mGkbXmmzXXhyDtrqDvy6Ny68mOFHkaaHmEHf-BHqymsLGEawkckHuD6gJuJ4Gf0iuglUiA9xFPZVPIvw1q_8ZcD-AWZwkcEEryTwKpNpPbY3TraxcZhTjrehAg1bkAVKZLeQN_ur54ph0Wx6x29w3PhH5bd7HbCtMS6ZUv86TkiPgRhGZxVP7ErcwXCAQol699VAhGQNgTajizR-pVm00]--></g></svg>