<svg xmlns="http://www.w3.org/2000/svg" xmlns:xlink="http://www.w3.org/1999/xlink" contentStyleType="text/css" height="490px" preserveAspectRatio="none" style="width:1107px;height:490px;background:#FEFEFE;" version="1.1" viewBox="0 0 1107 490" width="1107px" zoomAndPan="magnify"><title>Correct Multi-Region MySQL Architecture</title><defs/><g><rect fill="#FEFEFE" height="490" style="stroke:none;stroke-width:1.0;" width="1107" x="0" y="0"/><text fill="#000000" font-family="Arial" font-size="22" font-weight="bold" lengthAdjust="spacing" textLength="435.1553" x="331.4224" y="35.6357">Correct Multi-Region MySQL Architecture</text><!--cluster sg--><g id="cluster_sg"><path d="M685.5,57.2979 L789.1738,57.2979 A3.75,3.75 0 0 1 791.6738,59.7979 L798.6738,77.0967 L1097.5,77.0967 A2.5,2.5 0 0 1 1100,79.5967 L1100,454.2979 A2.5,2.5 0 0 1 1097.5,456.7979 L685.5,456.7979 A2.5,2.5 0 0 1 683,454.2979 L683,59.7979 A2.5,2.5 0 0 1 685.5,57.2979 " fill="#90EE90" style="stroke:#000000;stroke-width:1.0;"/><line style="stroke:#000000;stroke-width:1.0;" x1="683" x2="798.6738" y1="77.0967" y2="77.0967"/><text fill="#000000" font-family="Arial" font-size="12" font-weight="bold" lengthAdjust="spacing" textLength="102.6738" x="687" y="70.5537">Singapore Region</text></g><!--cluster sg_mgr--><g id="cluster_sg_mgr"><path d="M717.5,192.2979 L791.1738,192.2979 A3.75,3.75 0 0 1 793.6738,194.7979 L800.6738,212.0967 L1065.5,212.0967 A2.5,2.5 0 0 1 1068,214.5967 L1068,296.7979 A2.5,2.5 0 0 1 1065.5,299.2979 L717.5,299.2979 A2.5,2.5 0 0 1 715,296.7979 L715,194.7979 A2.5,2.5 0 0 1 717.5,192.2979 " fill="#FFFFFF" style="stroke:#000000;stroke-width:1.0;"/><line style="stroke:#000000;stroke-width:1.0;" x1="715" x2="800.6738" y1="212.0967" y2="212.0967"/><text fill="#000000" font-family="Arial" font-size="12" font-weight="bold" lengthAdjust="spacing" textLength="72.6738" x="719" y="205.5537">MGR Cluster</text></g><!--cluster ny--><g id="cluster_ny"><path d="M295.5,204.7979 L395.1836,204.7979 A3.75,3.75 0 0 1 397.6836,207.2979 L404.6836,224.5967 L656.5,224.5967 A2.5,2.5 0 0 1 659,227.0967 L659,480.7979 A2.5,2.5 0 0 1 656.5,483.2979 L295.5,483.2979 A2.5,2.5 0 0 1 293,480.7979 L293,207.2979 A2.5,2.5 0 0 1 295.5,204.7979 " fill="#F08080" style="stroke:#000000;stroke-width:1.0;"/><line style="stroke:#000000;stroke-width:1.0;" x1="293" x2="404.6836" y1="224.5967" y2="224.5967"/><text fill="#000000" font-family="Arial" font-size="12" font-weight="bold" lengthAdjust="spacing" textLength="98.6836" x="297" y="218.0537">New York Region</text></g><!--cluster ny_mgr--><g id="cluster_ny_mgr"><path d="M319.5,368.2979 L393.1738,368.2979 A3.75,3.75 0 0 1 395.6738,370.7979 L402.6738,388.0967 L632.5,388.0967 A2.5,2.5 0 0 1 635,390.5967 L635,456.7979 A2.5,2.5 0 0 1 632.5,459.2979 L319.5,459.2979 A2.5,2.5 0 0 1 317,456.7979 L317,370.7979 A2.5,2.5 0 0 1 319.5,368.2979 " fill="#FFFFFF" style="stroke:#000000;stroke-width:1.0;"/><line style="stroke:#000000;stroke-width:1.0;" x1="317" x2="402.6738" y1="388.0967" y2="388.0967"/><text fill="#000000" font-family="Arial" font-size="12" font-weight="bold" lengthAdjust="spacing" textLength="72.6738" x="321" y="381.5537">MGR Cluster</text></g><!--entity sg_users--><g id="elem_sg_users"><rect fill="#ADD8E6" height="33.7988" rx="2.5" ry="2.5" style="stroke:#000000;stroke-width:1.0;" width="72.0078" x="958" y="89.2979"/><text fill="#000000" font-family="Arial" font-size="12" lengthAdjust="spacing" textLength="52.0078" x="968" y="110.5537">SG Users</text></g><g id="elem_GMN9"><path d="M962,402.7979 L962,440.3955 L1084.3848,440.3955 L1084.3848,412.7979 L1074.3848,402.7979 L962,402.7979 " fill="#FFFFFF" style="stroke:#000000;stroke-width:1.0;"/><path d="M1074.3848,402.7979 L1074.3848,412.7979 L1084.3848,412.7979 L1074.3848,402.7979 " fill="#FFFFFF" style="stroke:#000000;stroke-width:1.0;"/><text fill="#000000" font-family="Arial" font-size="12" lengthAdjust="spacing" textLength="93.0352" x="968" y="419.0537">AZ latency &lt; 2ms</text><text fill="#000000" font-family="Arial" font-size="12" lengthAdjust="spacing" textLength="101.3848" x="968" y="432.8525">Strong consistency</text></g><!--entity sg_p--><g id="elem_sg_p"><path d="M963.5,242.2979 C963.5,232.2979 994.166,232.2979 994.166,232.2979 C994.166,232.2979 1024.832,232.2979 1024.832,242.2979 L1024.832,265.0967 C1024.832,275.0967 994.166,275.0967 994.166,275.0967 C994.166,275.0967 963.5,275.0967 963.5,265.0967 L963.5,242.2979 " fill="#FFD700" style="stroke:#000000;stroke-width:1.0;"/><path d="M963.5,242.2979 C963.5,252.2979 994.166,252.2979 994.166,252.2979 C994.166,252.2979 1024.832,252.2979 1024.832,242.2979 " fill="none" style="stroke:#000000;stroke-width:1.0;"/><text fill="#000000" font-family="Arial" font-size="12" lengthAdjust="spacing" textLength="41.332" x="973.5" y="267.5537">Primary</text></g><!--entity sg_s1--><g id="elem_sg_s1"><path d="M851.5,242.2979 C851.5,232.2979 890.1846,232.2979 890.1846,232.2979 C890.1846,232.2979 928.8691,232.2979 928.8691,242.2979 L928.8691,265.0967 C928.8691,275.0967 890.1846,275.0967 890.1846,275.0967 C890.1846,275.0967 851.5,275.0967 851.5,265.0967 L851.5,242.2979 " fill="#FFFFE0" style="stroke:#000000;stroke-width:1.0;"/><path d="M851.5,242.2979 C851.5,252.2979 890.1846,252.2979 890.1846,252.2979 C890.1846,252.2979 928.8691,252.2979 928.8691,242.2979 " fill="none" style="stroke:#000000;stroke-width:1.0;"/><text fill="#000000" font-family="Arial" font-size="12" lengthAdjust="spacing" textLength="57.3691" x="861.5" y="267.5537">Secondary</text></g><!--entity sg_s2--><g id="elem_sg_s2"><path d="M739.5,242.2979 C739.5,232.2979 778.1846,232.2979 778.1846,232.2979 C778.1846,232.2979 816.8691,232.2979 816.8691,242.2979 L816.8691,265.0967 C816.8691,275.0967 778.1846,275.0967 778.1846,275.0967 C778.1846,275.0967 739.5,275.0967 739.5,265.0967 L739.5,242.2979 " fill="#FFFFE0" style="stroke:#000000;stroke-width:1.0;"/><path d="M739.5,242.2979 C739.5,252.2979 778.1846,252.2979 778.1846,252.2979 C778.1846,252.2979 816.8691,252.2979 816.8691,242.2979 " fill="none" style="stroke:#000000;stroke-width:1.0;"/><text fill="#000000" font-family="Arial" font-size="12" lengthAdjust="spacing" textLength="57.3691" x="749.5" y="267.5537">Secondary</text></g><!--entity ny_users--><g id="elem_ny_users"><rect fill="#ADD8E6" height="33.7988" rx="2.5" ry="2.5" style="stroke:#000000;stroke-width:1.0;" width="71.3398" x="427.5" y="236.7979"/><text fill="#000000" font-family="Arial" font-size="12" lengthAdjust="spacing" textLength="51.3398" x="437.5" y="258.0537">NY Users</text></g><!--entity ny_p--><g id="elem_ny_p"><path d="M557.5,410.2979 C557.5,400.2979 588.166,400.2979 588.166,400.2979 C588.166,400.2979 618.832,400.2979 618.832,410.2979 L618.832,433.0967 C618.832,443.0967 588.166,443.0967 588.166,443.0967 C588.166,443.0967 557.5,443.0967 557.5,433.0967 L557.5,410.2979 " fill="#FFD700" style="stroke:#000000;stroke-width:1.0;"/><path d="M557.5,410.2979 C557.5,420.2979 588.166,420.2979 588.166,420.2979 C588.166,420.2979 618.832,420.2979 618.832,410.2979 " fill="none" style="stroke:#000000;stroke-width:1.0;"/><text fill="#000000" font-family="Arial" font-size="12" lengthAdjust="spacing" textLength="41.332" x="567.5" y="435.5537">Primary</text></g><!--entity ny_s1--><g id="elem_ny_s1"><path d="M445.5,410.2979 C445.5,400.2979 484.1846,400.2979 484.1846,400.2979 C484.1846,400.2979 522.8691,400.2979 522.8691,410.2979 L522.8691,433.0967 C522.8691,443.0967 484.1846,443.0967 484.1846,443.0967 C484.1846,443.0967 445.5,443.0967 445.5,433.0967 L445.5,410.2979 " fill="#FFFFE0" style="stroke:#000000;stroke-width:1.0;"/><path d="M445.5,410.2979 C445.5,420.2979 484.1846,420.2979 484.1846,420.2979 C484.1846,420.2979 522.8691,420.2979 522.8691,410.2979 " fill="none" style="stroke:#000000;stroke-width:1.0;"/><text fill="#000000" font-family="Arial" font-size="12" lengthAdjust="spacing" textLength="57.3691" x="455.5" y="435.5537">Secondary</text></g><!--entity ny_s2--><g id="elem_ny_s2"><path d="M333.5,410.2979 C333.5,400.2979 372.1846,400.2979 372.1846,400.2979 C372.1846,400.2979 410.8691,400.2979 410.8691,410.2979 L410.8691,433.0967 C410.8691,443.0967 372.1846,443.0967 372.1846,443.0967 C372.1846,443.0967 333.5,443.0967 333.5,433.0967 L333.5,410.2979 " fill="#FFFFE0" style="stroke:#000000;stroke-width:1.0;"/><path d="M333.5,410.2979 C333.5,420.2979 372.1846,420.2979 372.1846,420.2979 C372.1846,420.2979 410.8691,420.2979 410.8691,410.2979 " fill="none" style="stroke:#000000;stroke-width:1.0;"/><text fill="#000000" font-family="Arial" font-size="12" lengthAdjust="spacing" textLength="57.3691" x="343.5" y="435.5537">Secondary</text></g><g id="elem_GMN21"><path d="M11,382.2979 L11,461.292 A0,0 0 0 0 11,461.292 L277.4434,461.292 A0,0 0 0 0 277.4434,461.292 L277.4434,392.2979 L267.4434,382.2979 L222.24,382.2979 L432.12,270.8679 L214.24,382.2979 L11,382.2979 A0,0 0 0 0 11,382.2979 " fill="#FFFFFF" style="stroke:#000000;stroke-width:1.0;"/><path d="M267.4434,382.2979 L267.4434,392.2979 L277.4434,392.2979 L267.4434,382.2979 " fill="#FFFFFF" style="stroke:#000000;stroke-width:1.0;"/><text fill="#000000" font-family="Arial" font-size="12" font-weight="bold" lengthAdjust="spacing" textLength="128.7012" x="17" y="398.5537">Architecture Principle:</text><text fill="#000000" font-family="Arial" font-size="12" lengthAdjust="spacing" textLength="211.4063" x="17" y="412.3525">- MGR within single region (low latency)</text><text fill="#000000" font-family="Arial" font-size="12" lengthAdjust="spacing" textLength="179.4082" x="17" y="426.1514">- Async replication across regions</text><text fill="#000000" font-family="Arial" font-size="12" lengthAdjust="spacing" textLength="245.4434" x="17" y="439.9502">- Accept eventual consistency for cross-region</text><text fill="#000000" font-family="Arial" font-size="12" lengthAdjust="spacing" textLength="165.4219" x="17" y="453.749">- Route users to nearest region</text></g><!--link sg_users to sg_p--><g id="link_sg_users_sg_p"><path d="M994,123.4279 C994,149.9179 994,196.6079 994,225.9179 " fill="none" id="sg_users-to-sg_p" style="stroke:#000000;stroke-width:1.0;"/><polygon fill="#000000" points="994,231.9179,998,222.9179,994,226.9179,990,222.9179,994,231.9179" style="stroke:#000000;stroke-width:1.0;"/><text fill="#000000" font-family="Arial" font-size="12" lengthAdjust="spacing" textLength="60.0176" x="995" y="165.5537">Read/Write</text></g><!--link sg_mgr to GMN9--><g id="link_sg_mgr_GMN9"><path d="M1050.024,299.5589 C1049.9734,299.7858 1049.9227,300.0132 1049.872,300.2411 C1049.6688,301.1528 1049.4638,302.0721 1049.2574,302.9984 C1048.4314,306.7038 1047.5803,310.5222 1046.7125,314.4154 C1039.77,345.5604 1031.76,381.4879 1027.05,402.6079 " fill="none" id="sg_mgr-GMN9" style="stroke:#000000;stroke-width:1.0;stroke-dasharray:7.0,7.0;"/></g><!--link ny_users to ny_p--><g id="link_ny_users_ny_p"><path d="M475.21,271.0179 C498.07,301.3679 543.6413,361.8844 568.8313,395.3444 " fill="none" id="ny_users-to-ny_p" style="stroke:#000000;stroke-width:1.0;"/><polygon fill="#000000" points="572.44,400.1379,570.2226,390.5419,569.4327,396.1433,563.8313,395.3535,572.44,400.1379" style="stroke:#000000;stroke-width:1.0;"/><text fill="#000000" font-family="Arial" font-size="12" lengthAdjust="spacing" textLength="60.0176" x="533" y="342.5537">Read/Write</text></g><!--link sg_p to ny_p--><g id="link_sg_p_ny_p"><path d="M983.68,275.5779 C975.53,289.5179 962.75,306.8179 946,315.2979 C924.87,325.9979 755.52,315.9679 733,323.2979 C684.25,339.1679 641.1664,372.6052 614.4664,396.1952 " fill="none" id="sg_p-to-ny_p" style="stroke:#0000FF;stroke-width:1.0;stroke-dasharray:7.0,7.0;"/><polygon fill="#0000FF" points="609.97,400.1679,619.3631,397.2064,613.717,396.8573,614.0662,391.2112,609.97,400.1679" style="stroke:#0000FF;stroke-width:1.0;"/><text fill="#000000" font-family="Arial" font-size="12" lengthAdjust="spacing" textLength="95.3789" x="734" y="335.5537">Async Replication</text><text fill="#000000" font-family="Arial" font-size="12" lengthAdjust="spacing" textLength="83.0391" x="740.1699" y="349.3525">(~200ms delay)</text></g><!--link ny_p to sg_p--><g id="link_ny_p_sg_p"><path d="M612.39,400.2279 C630.59,386.2079 656.74,368.7079 683,360.2979 C715,350.0479 802.39,363.6979 834,352.2979 C854.32,344.9679 852.9,331.1979 873,323.2979 C903.38,311.3679 917.43,331.0779 946,315.2979 C962.31,306.2879 971.9681,294.3698 980.2181,280.6498 " fill="none" id="ny_p-to-sg_p" style="stroke:#0000FF;stroke-width:1.0;stroke-dasharray:7.0,7.0;"/><polygon fill="#0000FF" points="983.31,275.5079,975.2441,281.1595,980.7334,279.7928,982.1001,285.2821,983.31,275.5079" style="stroke:#0000FF;stroke-width:1.0;"/><text fill="#000000" font-family="Arial" font-size="12" lengthAdjust="spacing" textLength="95.3789" x="874" y="342.5537">Async Replication</text></g><!--SRC=[bLHTYzim47pNhzXUNkv2JU_oU9H26dfvkOGsePJqWxAHDuw8B1b9Rd3BzRTtBIivbmIQsc2mTcOrdbdvHTXIIL1fL4RudJ8LEYnXZN9NE5kRV6ArTJ1uUDVUFKHE6wnrUB0cp94xZ9r2VRw-L3y9xaP211KqmSGwHpB0ZCigMr2Xh85Pi_pmo4taLWKkrew4g5W45WHNIsKAhAmZwD1NW1vy0OD7LMp3r14P-2M0hoDbDbt0HDS-a4lexsNX4ggzSWouHi_GzqwLw9e3h8B1rEhy3719qfgy1_LtISAAjBRxYoYZKyfJVBQUe2bqovh2Hq_E7qXr-v9uRtLD4NzSpx8tdUvxjWVpLvySMnWXnWQ2jGt1bc0toOEaSlmPD0Ooie7NC2fzMbu6Pqq1hDeh7yknG2QFtSHJBvOvxM5btQwVYccIJauPzRzICSr5gJ3iqbGO-h-fj9HBKfclUgamwMmgn_KsbQZxhrJOlXXLzcMmPihB7FsMyc_FsB5lZ6H6fPN4mAv-DTU_HxUtfUSJfR6v4H5uoayJSC8NeZS5B74ux1yoO9kDL9Mc- -6Ggncq4UrLs2e3NiKFTzq9lMPZ3YDp4w7TNkvvBq3fhFU9uJkGb5G5e1zaGiqJqPiisF2V9JAoZX492rkptix4OC4GEl8XzHJ7GVm3]--></g></svg>