<svg xmlns="http://www.w3.org/2000/svg" xmlns:xlink="http://www.w3.org/1999/xlink" contentStyleType="text/css" height="494px" preserveAspectRatio="none" style="width:514px;height:494px;background:#FEFEFE;" version="1.1" viewBox="0 0 514 494" width="514px" zoomAndPan="magnify"><title>Read Scaling - Adding Slave Nodes</title><defs/><g><rect fill="#FEFEFE" height="494" style="stroke:none;stroke-width:1.0;" width="514" x="0" y="0"/><text fill="#000000" font-family="Arial" font-size="22" font-weight="bold" lengthAdjust="spacing" textLength="370.4121" x="67.3066" y="35.6357">Read Scaling - Adding Slave Nodes</text><!--entity lb--><g id="elem_lb"><rect fill="#ADD8E6" height="47.5977" rx="2.5" ry="2.5" style="stroke:#000000;stroke-width:1.0;" width="97.3906" x="161.5" y="167.2979"/><text fill="#000000" font-family="Arial" font-size="12" lengthAdjust="spacing" textLength="77.3906" x="171.5" y="188.5537">Load Balancer</text><text fill="#000000" font-family="Arial" font-size="12" lengthAdjust="spacing" textLength="62.6777" x="171.5" y="202.3525">(ProxySQL)</text></g><!--entity master--><g id="elem_master"><path d="M262.5,300.2979 C262.5,290.2979 290.8369,290.2979 290.8369,290.2979 C290.8369,290.2979 319.1738,290.2979 319.1738,300.2979 L319.1738,323.0967 C319.1738,333.0967 290.8369,333.0967 290.8369,333.0967 C290.8369,333.0967 262.5,333.0967 262.5,323.0967 L262.5,300.2979 " fill="#90EE90" style="stroke:#000000;stroke-width:1.0;"/><path d="M262.5,300.2979 C262.5,310.2979 290.8369,310.2979 290.8369,310.2979 C290.8369,310.2979 319.1738,310.2979 319.1738,300.2979 " fill="none" style="stroke:#000000;stroke-width:1.0;"/><text fill="#000000" font-family="Arial" font-size="12" lengthAdjust="spacing" textLength="36.6738" x="272.5" y="325.5537">Master</text></g><!--entity slave1--><g id="elem_slave1"><path d="M301,436.2979 C301,426.2979 331.0127,426.2979 331.0127,426.2979 C331.0127,426.2979 361.0254,426.2979 361.0254,436.2979 L361.0254,459.0967 C361.0254,469.0967 331.0127,469.0967 331.0127,469.0967 C331.0127,469.0967 301,469.0967 301,459.0967 L301,436.2979 " fill="#FFFFE0" style="stroke:#000000;stroke-width:1.0;"/><path d="M301,436.2979 C301,446.2979 331.0127,446.2979 331.0127,446.2979 C331.0127,446.2979 361.0254,446.2979 361.0254,436.2979 " fill="none" style="stroke:#000000;stroke-width:1.0;"/><text fill="#000000" font-family="Arial" font-size="12" lengthAdjust="spacing" textLength="40.0254" x="311" y="461.5537">Slave 1</text></g><!--entity slave2--><g id="elem_slave2"><path d="M437,436.2979 C437,426.2979 467.0127,426.2979 467.0127,426.2979 C467.0127,426.2979 497.0254,426.2979 497.0254,436.2979 L497.0254,459.0967 C497.0254,469.0967 467.0127,469.0967 467.0127,469.0967 C467.0127,469.0967 437,469.0967 437,459.0967 L437,436.2979 " fill="#FFFFE0" style="stroke:#000000;stroke-width:1.0;"/><path d="M437,436.2979 C437,446.2979 467.0127,446.2979 467.0127,446.2979 C467.0127,446.2979 497.0254,446.2979 497.0254,436.2979 " fill="none" style="stroke:#000000;stroke-width:1.0;"/><text fill="#000000" font-family="Arial" font-size="12" lengthAdjust="spacing" textLength="40.0254" x="447" y="461.5537">Slave 2</text></g><!--entity slave3--><g id="elem_slave3"><path d="M11,429.2979 C11,419.2979 41.0127,419.2979 41.0127,419.2979 C41.0127,419.2979 71.0254,419.2979 71.0254,429.2979 L71.0254,465.8955 C71.0254,475.8955 41.0127,475.8955 41.0127,475.8955 C41.0127,475.8955 11,475.8955 11,465.8955 L11,429.2979 " fill="#FFA500" style="stroke:#000000;stroke-width:1.0;"/><path d="M11,429.2979 C11,439.2979 41.0127,439.2979 41.0127,439.2979 C41.0127,439.2979 71.0254,439.2979 71.0254,429.2979 " fill="none" style="stroke:#000000;stroke-width:1.0;"/><text fill="#000000" font-family="Arial" font-size="12" lengthAdjust="spacing" textLength="40.0254" x="21" y="454.5537">Slave 3</text><text fill="#000000" font-family="Arial" font-size="12" lengthAdjust="spacing" textLength="31.998" x="21" y="468.3525">(New)</text></g><!--entity app--><g id="elem_app"><rect fill="#FFFFFF" height="33.7988" rx="2.5" ry="2.5" style="stroke:#000000;stroke-width:1.0;" width="78.7051" x="170.5" y="58.2979"/><text fill="#000000" font-family="Arial" font-size="12" lengthAdjust="spacing" textLength="58.7051" x="180.5" y="79.5537">Application</text></g><g id="elem_GMN16"><path d="M106.5,408.2979 L106.5,443.7979 L71.02,447.7979 L106.5,451.7979 L106.5,487.292 A0,0 0 0 0 106.5,487.292 L265.5176,487.292 A0,0 0 0 0 265.5176,487.292 L265.5176,418.2979 L255.5176,408.2979 L106.5,408.2979 A0,0 0 0 0 106.5,408.2979 " fill="#FFFFFF" style="stroke:#000000;stroke-width:1.0;"/><path d="M255.5176,408.2979 L255.5176,418.2979 L265.5176,418.2979 L255.5176,408.2979 " fill="#FFFFFF" style="stroke:#000000;stroke-width:1.0;"/><text fill="#000000" font-family="Arial" font-size="12" font-weight="bold" lengthAdjust="spacing" textLength="131.3496" x="112.5" y="424.5537">Adding Read Capacity:</text><text fill="#000000" font-family="Arial" font-size="12" lengthAdjust="spacing" textLength="130.7402" x="112.5" y="438.3525">1. Backup existing Slave</text><text fill="#000000" font-family="Arial" font-size="12" lengthAdjust="spacing" textLength="130.7227" x="112.5" y="452.1514">2. Restore to new server</text><text fill="#000000" font-family="Arial" font-size="12" lengthAdjust="spacing" textLength="138.0176" x="112.5" y="465.9502">3. CHANGE MASTER TO</text><text fill="#000000" font-family="Arial" font-size="12" lengthAdjust="spacing" textLength="123.4219" x="112.5" y="479.749">4. Add to load balancer</text></g><!--link app to lb--><g id="link_app_lb"><path d="M210,92.6279 C210,112.2079 210,139.1479 210,161.2879 " fill="none" id="app-to-lb" style="stroke:#000000;stroke-width:1.0;"/><polygon fill="#000000" points="210,167.2879,214,158.2879,210,162.2879,206,158.2879,210,167.2879" style="stroke:#000000;stroke-width:1.0;"/><text fill="#000000" font-family="Arial" font-size="12" lengthAdjust="spacing" textLength="42.0176" x="211" y="134.5537">Queries</text></g><!--link lb to master--><g id="link_lb_master"><path d="M225.81,215.4279 C240.63,237.1179 259.2139,264.2946 273.4739,285.1546 " fill="none" id="lb-to-master" style="stroke:#000000;stroke-width:1.0;"/><polygon fill="#000000" points="276.86,290.1079,275.0831,280.4206,274.0383,285.9802,268.4787,284.9354,276.86,290.1079" style="stroke:#000000;stroke-width:1.0;"/><text fill="#000000" font-family="Arial" font-size="12" lengthAdjust="spacing" textLength="27.9961" x="257" y="257.5537">Write</text></g><!--link lb to slave1--><g id="link_lb_slave1"><path d="M197.54,215.4779 C179.01,253.4579 150.06,329.5579 186,378.2979 C212.78,414.6179 243.14,387.1379 283,408.2979 C292.06,413.1079 296.4484,415.8915 304.1784,422.2915 " fill="none" id="lb-to-slave1" style="stroke:#000000;stroke-width:1.0;"/><polygon fill="#000000" points="308.8,426.1179,304.4186,417.2972,304.9487,422.9292,299.3167,423.4593,308.8,426.1179" style="stroke:#000000;stroke-width:1.0;"/><text fill="#000000" font-family="Arial" font-size="12" lengthAdjust="spacing" textLength="28.6875" x="173" y="316.5537">Read</text></g><!--link lb to slave2--><g id="link_lb_slave2"><path d="M258.71,208.5679 C319.88,231.9379 422.12,281.4479 466,363.2979 C476.41,382.7179 475.8164,402.6029 472.7964,420.3529 " fill="none" id="lb-to-slave2" style="stroke:#000000;stroke-width:1.0;"/><polygon fill="#000000" points="471.79,426.2679,477.2429,418.0663,472.6287,421.3387,469.3562,416.7244,471.79,426.2679" style="stroke:#000000;stroke-width:1.0;"/><text fill="#000000" font-family="Arial" font-size="12" lengthAdjust="spacing" textLength="28.6875" x="446" y="316.5537">Read</text></g><!--link lb to slave3--><g id="link_lb_slave3"><path d="M189.44,215.6579 C172.82,235.0279 149.27,263.6079 131,290.2979 C101.35,333.6179 74.7619,381.937 57.9919,413.837 " fill="none" id="lb-to-slave3" style="stroke:#000000;stroke-width:1.0;"/><polygon fill="#000000" points="55.2,419.1479,62.9285,413.0429,57.5266,414.7221,55.8473,409.3203,55.2,419.1479" style="stroke:#000000;stroke-width:1.0;"/><text fill="#000000" font-family="Arial" font-size="12" lengthAdjust="spacing" textLength="28.6875" x="132" y="316.5537">Read</text></g><!--link master to slave1--><g id="link_master_slave1"><path d="M297.16,333.4379 C304.66,358.5479 315.5255,394.938 323.0455,420.158 " fill="none" id="master-to-slave1" style="stroke:#000000;stroke-width:1.0;"/><polygon fill="#000000" points="324.76,425.9079,326.0215,416.1401,323.3313,421.1163,318.3551,418.4261,324.76,425.9079" style="stroke:#000000;stroke-width:1.0;"/><text fill="#000000" font-family="Arial" font-size="12" lengthAdjust="spacing" textLength="59.3672" x="311" y="375.5537">Replication</text></g><!--link master to slave2--><g id="link_master_slave2"><path d="M319.81,327.0879 C337.54,336.4179 360.35,349.4079 379,363.2979 C404.68,382.4179 426.7344,403.9303 443.7944,421.7803 " fill="none" id="master-to-slave2" style="stroke:#000000;stroke-width:1.0;"/><polygon fill="#000000" points="447.94,426.1179,444.6133,416.8478,444.4854,422.5032,438.83,422.3753,447.94,426.1179" style="stroke:#000000;stroke-width:1.0;"/><text fill="#000000" font-family="Arial" font-size="12" lengthAdjust="spacing" textLength="59.3672" x="398" y="375.5537">Replication</text></g><!--link master to slave3--><g id="link_master_slave3"><path d="M262.47,323.7979 C222.33,339.8179 147.54,371.6879 89,408.2979 C83.02,412.0379 81.697,412.7512 75.947,417.1712 " fill="none" id="master-to-slave3" style="stroke:#000000;stroke-width:1.0;"/><polygon fill="#000000" points="71.19,420.8279,80.7632,418.5142,75.1541,417.7806,75.8877,412.1715,71.19,420.8279" style="stroke:#000000;stroke-width:1.0;"/><text fill="#000000" font-family="Arial" font-size="12" lengthAdjust="spacing" textLength="59.3672" x="171" y="375.5537">Replication</text></g><!--SRC=[XP9HJy8m4CVV-obEUT4bB67pQGycWm0-00eZCIQ-tBOJ6agxj9sedzvs3aGacYLBz___xdPtlGkxfYr19P1BPZPSLgXn2paMcvLMjIm7IYWDdT7GFqT4IIzO2pjIqixGPKWrHt7Up_W7GIzYp78h21Q49MG52YvNq8MqBFqX4_XAC5Cb6SOq5HRboi6N4-NeFWgK1UbdUVMWrTjxDfzSNm8Q43bq9dorjdrH4sCbMipHkB0f6akwORRDiUN6caWUSL-_xJMWyUTU2pwH46htYuo-oUXlCdR5pcXt_HqGG-TUkxReHuDfLGbUeELADYXM5MFk1TtkhUylWNbDchknk0-ljVqayAYvfRtQ5fyqu_qXHkV4U2-oDjr9ZaDDl_pe7py-yPbKba3xIO5wQHa640JjpJVxCC0A2sxVao1mNYzqLrviwWheZHjxs0zdHQ4BC5Pf0gj0qWuCwLVIpef36Dobi_4Gfccs72vWUU_Kcz2lc8U5NwMyNIL6iWHV6li4]--></g></svg>