<svg xmlns="http://www.w3.org/2000/svg" xmlns:xlink="http://www.w3.org/1999/xlink" contentStyleType="text/css" height="747px" preserveAspectRatio="none" style="width:633px;height:747px;background:#FEFEFE;" version="1.1" viewBox="0 0 633 747" width="633px" zoomAndPan="magnify"><title>Online Migration - Double Write Pattern</title><defs/><g><rect fill="#FEFEFE" height="747" style="stroke:none;stroke-width:1.0;" width="633" x="0" y="0"/><text fill="#000000" font-family="Arial" font-size="22" font-weight="bold" lengthAdjust="spacing" textLength="410.6738" x="110.0464" y="35.6357">Online Migration - Double Write Pattern</text><line style="stroke:#000000;stroke-width:1.0;" x1="209" x2="209" y1="80.0967" y2="714.8721"/><line style="stroke:#000000;stroke-width:1.0;" x1="301.7051" x2="301.7051" y1="80.0967" y2="714.8721"/><line style="stroke:#000000;stroke-width:1.0;" x1="387.3828" x2="387.3828" y1="80.0967" y2="714.8721"/><line style="stroke:#000000;stroke-width:1.0;" x1="489.3877" x2="489.3877" y1="80.0967" y2="714.8721"/><rect fill="#FFFFFF" height="27.7988" rx="2.5" ry="2.5" style="stroke:#000000;stroke-width:1.0;" width="72.7051" x="173" y="51.2979"/><text fill="#000000" font-family="Arial" font-size="12" lengthAdjust="spacing" textLength="58.7051" x="180" y="69.5537">Application</text><rect fill="#FFFFFF" height="27.7988" rx="2.5" ry="2.5" style="stroke:#000000;stroke-width:1.0;" width="72.7051" x="173" y="713.8721"/><text fill="#000000" font-family="Arial" font-size="12" lengthAdjust="spacing" textLength="58.7051" x="180" y="732.1279">Application</text><rect fill="#FFFFFF" height="27.7988" rx="2.5" ry="2.5" style="stroke:#000000;stroke-width:1.0;" width="52.6777" x="275.7051" y="51.2979"/><text fill="#000000" font-family="Arial" font-size="12" lengthAdjust="spacing" textLength="38.6777" x="282.7051" y="69.5537">Old DB</text><rect fill="#FFFFFF" height="27.7988" rx="2.5" ry="2.5" style="stroke:#000000;stroke-width:1.0;" width="52.6777" x="275.7051" y="713.8721"/><text fill="#000000" font-family="Arial" font-size="12" lengthAdjust="spacing" textLength="38.6777" x="282.7051" y="732.1279">Old DB</text><rect fill="#FFFFFF" height="27.7988" rx="2.5" ry="2.5" style="stroke:#000000;stroke-width:1.0;" width="58.0098" x="358.3828" y="51.2979"/><text fill="#000000" font-family="Arial" font-size="12" lengthAdjust="spacing" textLength="44.0098" x="365.3828" y="69.5537">New DB</text><rect fill="#FFFFFF" height="27.7988" rx="2.5" ry="2.5" style="stroke:#000000;stroke-width:1.0;" width="58.0098" x="358.3828" y="713.8721"/><text fill="#000000" font-family="Arial" font-size="12" lengthAdjust="spacing" textLength="44.0098" x="365.3828" y="732.1279">New DB</text><rect fill="#FFFFFF" height="27.7988" rx="2.5" ry="2.5" style="stroke:#000000;stroke-width:1.0;" width="63.3594" x="458.3877" y="51.2979"/><text fill="#000000" font-family="Arial" font-size="12" lengthAdjust="spacing" textLength="49.3594" x="465.3877" y="69.5537">Sync Job</text><rect fill="#FFFFFF" height="27.7988" rx="2.5" ry="2.5" style="stroke:#000000;stroke-width:1.0;" width="63.3594" x="458.3877" y="713.8721"/><text fill="#000000" font-family="Arial" font-size="12" lengthAdjust="spacing" textLength="49.3594" x="465.3877" y="732.1279">Sync Job</text><rect fill="#FFFFFF" height="3" style="stroke:#FFFFFF;stroke-width:1.0;" width="621.7666" x="5" y="109.9961"/><line style="stroke:#000000;stroke-width:0.5;" x1="5" x2="626.7666" y1="109.9961" y2="109.9961"/><line style="stroke:#000000;stroke-width:0.5;" x1="5" x2="626.7666" y1="112.9961" y2="112.9961"/><rect fill="#FFFFFF" height="21.7988" style="stroke:#000000;stroke-width:1.0;" width="186.7051" x="222.5308" y="100.0967"/><text fill="#000000" font-family="Arial" font-size="12" font-weight="bold" lengthAdjust="spacing" textLength="169.3711" x="228.5308" y="115.3525">Phase 1: Enable Double Write</text><polygon fill="#000000" points="290.0439,147.6943,300.0439,151.6943,290.0439,155.6943,294.0439,151.6943" style="stroke:#000000;stroke-width:1.0;"/><line style="stroke:#000000;stroke-width:1.0;" x1="209.3525" x2="296.0439" y1="151.6943" y2="151.6943"/><text fill="#000000" font-family="Arial" font-size="12" lengthAdjust="spacing" textLength="27.9961" x="216.3525" y="147.1514">Write</text><polygon fill="#000000" points="375.3877,175.4932,385.3877,179.4932,375.3877,183.4932,379.3877,179.4932" style="stroke:#000000;stroke-width:1.0;"/><line style="stroke:#000000;stroke-width:1.0;" x1="209.3525" x2="381.3877" y1="179.4932" y2="179.4932"/><text fill="#000000" font-family="Arial" font-size="12" lengthAdjust="spacing" textLength="95.3555" x="216.3525" y="174.9502">Write (same data)</text><rect fill="#FFFFFF" height="3" style="stroke:#FFFFFF;stroke-width:1.0;" width="621.7666" x="5" y="207.3926"/><line style="stroke:#000000;stroke-width:0.5;" x1="5" x2="626.7666" y1="207.3926" y2="207.3926"/><line style="stroke:#000000;stroke-width:0.5;" x1="5" x2="626.7666" y1="210.3926" y2="210.3926"/><rect fill="#FFFFFF" height="21.7988" style="stroke:#000000;stroke-width:1.0;" width="170.7324" x="230.5171" y="197.4932"/><text fill="#000000" font-family="Arial" font-size="12" font-weight="bold" lengthAdjust="spacing" textLength="153.3984" x="236.5171" y="212.749">Phase 2: Backfill Historical</text><polygon fill="#000000" points="313.0439,245.0908,303.0439,249.0908,313.0439,253.0908,309.0439,249.0908" style="stroke:#000000;stroke-width:1.0;"/><line style="stroke:#000000;stroke-width:1.0;" x1="307.0439" x2="489.0674" y1="249.0908" y2="249.0908"/><text fill="#000000" font-family="Arial" font-size="12" lengthAdjust="spacing" textLength="79.3711" x="319.0439" y="244.5479">Read historical</text><polygon fill="#000000" points="398.3877,282.7891,388.3877,286.7891,398.3877,290.7891,394.3877,286.7891" style="stroke:#000000;stroke-width:1.0;"/><line style="stroke:#000000;stroke-width:1.0;" x1="392.3877" x2="489.0674" y1="286.7891" y2="286.7891"/><text fill="#000000" font-family="Arial" font-size="12" lengthAdjust="spacing" textLength="78.6797" x="404.3877" y="282.2461">Write historical</text><path d="M495,262.0908 L495,299.0908 L616,299.0908 L616,272.0908 L606,262.0908 L495,262.0908 " fill="#FFFFFF" style="stroke:#000000;stroke-width:1.0;"/><path d="M606,262.0908 L606,272.0908 L616,272.0908 L606,262.0908 " fill="#FFFFFF" style="stroke:#000000;stroke-width:1.0;"/><text fill="#000000" font-family="Arial" font-size="12" lengthAdjust="spacing" textLength="70.0254" x="501" y="278.3467">Skip conflicts</text><text fill="#000000" font-family="Arial" font-size="12" lengthAdjust="spacing" textLength="100.6992" x="501" y="292.1455">(double-write wins)</text><rect fill="#FFFFFF" height="3" style="stroke:#FFFFFF;stroke-width:1.0;" width="621.7666" x="5" y="324.5879"/><line style="stroke:#000000;stroke-width:0.5;" x1="5" x2="626.7666" y1="324.5879" y2="324.5879"/><line style="stroke:#000000;stroke-width:0.5;" x1="5" x2="626.7666" y1="327.5879" y2="327.5879"/><rect fill="#FFFFFF" height="21.7988" style="stroke:#000000;stroke-width:1.0;" width="103.3789" x="264.1938" y="314.6885"/><text fill="#000000" font-family="Arial" font-size="12" font-weight="bold" lengthAdjust="spacing" textLength="86.0449" x="270.1938" y="329.9443">Phase 3: Verify</text><polygon fill="#000000" points="313.0439,362.2861,303.0439,366.2861,313.0439,370.2861,309.0439,366.2861" style="stroke:#000000;stroke-width:1.0;"/><line style="stroke:#000000;stroke-width:1.0;" x1="307.0439" x2="489.0674" y1="366.2861" y2="366.2861"/><text fill="#000000" font-family="Arial" font-size="12" lengthAdjust="spacing" textLength="56.6836" x="319.0439" y="361.7432">Checksum</text><polygon fill="#000000" points="398.3877,390.085,388.3877,394.085,398.3877,398.085,394.3877,394.085" style="stroke:#000000;stroke-width:1.0;"/><line style="stroke:#000000;stroke-width:1.0;" x1="392.3877" x2="489.0674" y1="394.085" y2="394.085"/><text fill="#000000" font-family="Arial" font-size="12" lengthAdjust="spacing" textLength="56.6836" x="404.3877" y="389.542">Checksum</text><line style="stroke:#000000;stroke-width:1.0;" x1="490.0674" x2="532.0674" y1="421.8838" y2="421.8838"/><line style="stroke:#000000;stroke-width:1.0;" x1="532.0674" x2="532.0674" y1="421.8838" y2="434.8838"/><line style="stroke:#000000;stroke-width:1.0;" x1="491.0674" x2="532.0674" y1="434.8838" y2="434.8838"/><polygon fill="#000000" points="501.0674,430.8838,491.0674,434.8838,501.0674,438.8838,497.0674,434.8838" style="stroke:#000000;stroke-width:1.0;"/><text fill="#000000" font-family="Arial" font-size="12" lengthAdjust="spacing" textLength="49.3535" x="497.0674" y="417.3408">Compare</text><rect fill="#FFFFFF" height="3" style="stroke:#FFFFFF;stroke-width:1.0;" width="621.7666" x="5" y="462.7832"/><line style="stroke:#000000;stroke-width:0.5;" x1="5" x2="626.7666" y1="462.7832" y2="462.7832"/><line style="stroke:#000000;stroke-width:0.5;" x1="5" x2="626.7666" y1="465.7832" y2="465.7832"/><rect fill="#FFFFFF" height="21.7988" style="stroke:#000000;stroke-width:1.0;" width="148.0508" x="241.8579" y="452.8838"/><text fill="#000000" font-family="Arial" font-size="12" font-weight="bold" lengthAdjust="spacing" textLength="130.7168" x="247.8579" y="468.1396">Phase 4: Switch Reads</text><polygon fill="#000000" points="375.3877,500.4814,385.3877,504.4814,375.3877,508.4814,379.3877,504.4814" style="stroke:#000000;stroke-width:1.0;"/><line style="stroke:#000000;stroke-width:1.0;" x1="209.3525" x2="381.3877" y1="504.4814" y2="504.4814"/><text fill="#000000" font-family="Arial" font-size="12" lengthAdjust="spacing" textLength="64.0313" x="216.3525" y="499.9385">Read (10%)</text><polygon fill="#000000" points="290.0439,538.1797,300.0439,542.1797,290.0439,546.1797,294.0439,542.1797" style="stroke:#000000;stroke-width:1.0;"/><line style="stroke:#000000;stroke-width:1.0;" x1="209.3525" x2="296.0439" y1="542.1797" y2="542.1797"/><text fill="#000000" font-family="Arial" font-size="12" lengthAdjust="spacing" textLength="64.0313" x="216.3525" y="537.6367">Read (90%)</text><path d="M307,517.4814 L307,554.4814 L433,554.4814 L433,527.4814 L423,517.4814 L307,517.4814 " fill="#FFFFFF" style="stroke:#000000;stroke-width:1.0;"/><path d="M423,517.4814 L423,527.4814 L433,527.4814 L423,517.4814 " fill="#FFFFFF" style="stroke:#000000;stroke-width:1.0;"/><text fill="#000000" font-family="Arial" font-size="12" lengthAdjust="spacing" textLength="100.0488" x="313" y="533.7373">Gradually increase</text><text fill="#000000" font-family="Arial" font-size="12" lengthAdjust="spacing" textLength="105.416" x="313" y="547.5361">new_db percentage</text><rect fill="#FFFFFF" height="3" style="stroke:#FFFFFF;stroke-width:1.0;" width="621.7666" x="5" y="579.9785"/><line style="stroke:#000000;stroke-width:0.5;" x1="5" x2="626.7666" y1="579.9785" y2="579.9785"/><line style="stroke:#000000;stroke-width:0.5;" x1="5" x2="626.7666" y1="582.9785" y2="582.9785"/><rect fill="#FFFFFF" height="21.7988" style="stroke:#000000;stroke-width:1.0;" width="115.3672" x="258.1997" y="570.0791"/><text fill="#000000" font-family="Arial" font-size="12" font-weight="bold" lengthAdjust="spacing" textLength="98.0332" x="264.1997" y="585.335">Phase 5: Cutover</text><polygon fill="#000000" points="375.3877,617.6768,385.3877,621.6768,375.3877,625.6768,379.3877,621.6768" style="stroke:#000000;stroke-width:1.0;"/><line style="stroke:#000000;stroke-width:1.0;" x1="209.3525" x2="381.3877" y1="621.6768" y2="621.6768"/><text fill="#000000" font-family="Arial" font-size="12" lengthAdjust="spacing" textLength="53.3438" x="216.3525" y="617.1338">Write only</text><line style="stroke:#FF0000;stroke-width:2.0;" x1="284.0439" x2="294.0439" y1="668.1738" y2="678.1738"/><line style="stroke:#FF0000;stroke-width:2.0;" x1="284.0439" x2="294.0439" y1="678.1738" y2="668.1738"/><line style="stroke:#FF0000;stroke-width:1.0;stroke-dasharray:2.0,2.0;" x1="209.3525" x2="289.0439" y1="673.1738" y2="673.1738"/><text fill="#000000" font-family="Arial" font-size="12" lengthAdjust="spacing" textLength="59.3555" x="216.3525" y="668.6309">Stop writes</text><path d="M10,634.6768 L10,699.6768 L204,699.6768 L204,644.6768 L194,634.6768 L10,634.6768 " fill="#FFFFFF" style="stroke:#000000;stroke-width:1.0;"/><path d="M194,634.6768 L194,644.6768 L204,644.6768 L194,634.6768 " fill="#FFFFFF" style="stroke:#000000;stroke-width:1.0;"/><text fill="#000000" font-family="Arial" font-size="12" font-weight="bold" lengthAdjust="spacing" textLength="147.9961" x="16" y="650.9326">Zero Downtime Migration:</text><text fill="#000000" font-family="Arial" font-size="12" lengthAdjust="spacing" textLength="127.3828" x="16" y="664.7314">- No service interruption</text><text fill="#000000" font-family="Arial" font-size="12" lengthAdjust="spacing" textLength="173.4258" x="16" y="678.5303">- Rollback possible until Phase 5</text><text fill="#000000" font-family="Arial" font-size="12" lengthAdjust="spacing" textLength="154.7402" x="16" y="692.3291">- Data verified before cutover</text><!--SRC=[RPDXQzim48Q_wrVSMWPfmB1ssuSPKcYRTcEmj3ImmTOnPEiI7v5FGfBZPRz-ifnapXBymLZl-RtdNfzVXGfh1AibiV0hOYkThA6GvMhfJCFgpcZZuFpXlhi65GeNij7XmN2OoUXmuqZgq_gS_Y1SNWaHA6Y4HzR425zewMGWmv31r3H5LBuv2WXFCWHqB4Gq2bIIbHpWxCPQJMLwuGoa1sdjOS6ZLZ2zJPhHwfSg3kKPjZkPiJsIvnikuRCfKe6F3q9C9l1KIH_HSxXdsG4US4ucGaGAoAwt3I7lbTrftsTt2YFVvQHaa1S3ywiSRcFO2z8QFf4FniKfTJBlC0xSdr4ggFP5-uB_6WqgsCHdHyigv31VaONIy2Bc6FmBZrIQ9clJIosn7tAzpU4hEbfiJgFSLLYkV5CVCnmfwHxFJHqJnq6BTv6ffL1MQJ0_37JlbaOUNRvvVN6KTIzzwAI3EJywgHgfzGQ8IuUnqmjl_Iow4Zd8vH3ZVMHhWbcZEqdGPsfORthfnxb3zJEx_lsFP1wCXHIZtw8K9WHJ2u3n-3iw4nUdvK3rOElpyJZA6SmCU7HhAZ7YnhrtZUtaf3qRhRi_4QpndhhDQwABtd6dccdS9rXtNufGGO4Bun3AVXw1hA3Z4Ny1]--></g></svg>