<svg xmlns="http://www.w3.org/2000/svg" xmlns:xlink="http://www.w3.org/1999/xlink" contentStyleType="text/css" height="779px" preserveAspectRatio="none" style="width:1174px;height:779px;background:#FEFEFE;" version="1.1" viewBox="0 0 1174 779" width="1174px" zoomAndPan="magnify"><title>Distributed Transaction Options</title><defs/><g><rect fill="#FEFEFE" height="779" style="stroke:none;stroke-width:1.0;" width="1174" x="0" y="0"/><text fill="#000000" font-family="Arial" font-size="22" font-weight="bold" lengthAdjust="spacing" textLength="336.1338" x="414.6284" y="35.6357">Distributed Transaction Options</text><!--cluster xa--><g id="cluster_xa"><path d="M13.5,57.2979 L113.8398,57.2979 A3.75,3.75 0 0 1 116.3398,59.7979 L123.3398,77.0967 L261.5,77.0967 A2.5,2.5 0 0 1 264,79.5967 L264,325.5179 A2.5,2.5 0 0 1 261.5,328.0179 L13.5,328.0179 A2.5,2.5 0 0 1 11,325.5179 L11,59.7979 A2.5,2.5 0 0 1 13.5,57.2979 " fill="#F08080" style="stroke:#000000;stroke-width:1.0;"/><line style="stroke:#000000;stroke-width:1.0;" x1="11" x2="123.3398" y1="77.0967" y2="77.0967"/><text fill="#000000" font-family="Arial" font-size="12" font-weight="bold" lengthAdjust="spacing" textLength="99.3398" x="15" y="70.5537">Option 1: XA/2PC</text></g><!--cluster tcc--><g id="cluster_tcc"><path d="M306.5,57.2979 L388.1543,57.2979 A3.75,3.75 0 0 1 390.6543,59.7979 L397.6543,77.0967 L580.5,77.0967 A2.5,2.5 0 0 1 583,79.5967 L583,452.5179 A2.5,2.5 0 0 1 580.5,455.0179 L306.5,455.0179 A2.5,2.5 0 0 1 304,452.5179 L304,59.7979 A2.5,2.5 0 0 1 306.5,57.2979 " fill="#FFFFE0" style="stroke:#000000;stroke-width:1.0;"/><line style="stroke:#000000;stroke-width:1.0;" x1="304" x2="397.6543" y1="77.0967" y2="77.0967"/><text fill="#000000" font-family="Arial" font-size="12" font-weight="bold" lengthAdjust="spacing" textLength="80.6543" x="308" y="70.5537">Option 2: TCC</text></g><!--cluster saga--><g id="cluster_saga"><path d="M625.5,57.2979 L711.1738,57.2979 A3.75,3.75 0 0 1 713.6738,59.7979 L720.6738,77.0967 L871.5,77.0967 A2.5,2.5 0 0 1 874,79.5967 L874,769.5179 A2.5,2.5 0 0 1 871.5,772.0179 L625.5,772.0179 A2.5,2.5 0 0 1 623,769.5179 L623,59.7979 A2.5,2.5 0 0 1 625.5,57.2979 " fill="#90EE90" style="stroke:#000000;stroke-width:1.0;"/><line style="stroke:#000000;stroke-width:1.0;" x1="623" x2="720.6738" y1="77.0967" y2="77.0967"/><text fill="#000000" font-family="Arial" font-size="12" font-weight="bold" lengthAdjust="spacing" textLength="84.6738" x="627" y="70.5537">Option 3: Saga</text></g><!--cluster lmt--><g id="cluster_lmt"><path d="M916.5,57.2979 L1093.5391,57.2979 A3.75,3.75 0 0 1 1096.0391,59.7979 L1103.0391,77.0967 L1162.5,77.0967 A2.5,2.5 0 0 1 1165,79.5967 L1165,452.5179 A2.5,2.5 0 0 1 1162.5,455.0179 L916.5,455.0179 A2.5,2.5 0 0 1 914,452.5179 L914,59.7979 A2.5,2.5 0 0 1 916.5,57.2979 " fill="#ADD8E6" style="stroke:#000000;stroke-width:1.0;"/><line style="stroke:#000000;stroke-width:1.0;" x1="914" x2="1103.0391" y1="77.0967" y2="77.0967"/><text fill="#000000" font-family="Arial" font-size="12" font-weight="bold" lengthAdjust="spacing" textLength="176.0391" x="918" y="70.5537">Option 4: Local Message Table</text></g><!--entity tm_xa--><g id="elem_tm_xa"><rect fill="#FFFFFF" height="33.7988" rx="2.5" ry="2.5" style="stroke:#000000;stroke-width:1.0;" width="37.3262" x="202.5" y="147.5179"/><text fill="#000000" font-family="Arial" font-size="12" lengthAdjust="spacing" textLength="17.3262" x="212.5" y="168.7737">TM</text></g><!--entity db1_xa--><g id="elem_db1_xa"><path d="M90.5,271.0179 C90.5,261.0179 112.1719,261.0179 112.1719,261.0179 C112.1719,261.0179 133.8438,261.0179 133.8438,271.0179 L133.8438,293.8167 C133.8438,303.8167 112.1719,303.8167 112.1719,303.8167 C112.1719,303.8167 90.5,303.8167 90.5,293.8167 L90.5,271.0179 " fill="#FFFFFF" style="stroke:#000000;stroke-width:1.0;"/><path d="M90.5,271.0179 C90.5,281.0179 112.1719,281.0179 112.1719,281.0179 C112.1719,281.0179 133.8438,281.0179 133.8438,271.0179 " fill="none" style="stroke:#000000;stroke-width:1.0;"/><text fill="#000000" font-family="Arial" font-size="12" lengthAdjust="spacing" textLength="23.3438" x="100.5" y="296.2737">DB1</text></g><!--entity db2_xa--><g id="elem_db2_xa"><path d="M174.5,271.0179 C174.5,261.0179 196.1719,261.0179 196.1719,261.0179 C196.1719,261.0179 217.8438,261.0179 217.8438,271.0179 L217.8438,293.8167 C217.8438,303.8167 196.1719,303.8167 196.1719,303.8167 C196.1719,303.8167 174.5,303.8167 174.5,293.8167 L174.5,271.0179 " fill="#FFFFFF" style="stroke:#000000;stroke-width:1.0;"/><path d="M174.5,271.0179 C174.5,281.0179 196.1719,281.0179 196.1719,281.0179 C196.1719,281.0179 217.8438,281.0179 217.8438,271.0179 " fill="none" style="stroke:#000000;stroke-width:1.0;"/><text fill="#000000" font-family="Arial" font-size="12" lengthAdjust="spacing" textLength="23.3438" x="184.5" y="296.2737">DB2</text></g><g id="elem_GMN8"><path d="M35,145.5179 L35,183.1155 L167.375,183.1155 L167.375,155.5179 L157.375,145.5179 L35,145.5179 " fill="#FFFFFF" style="stroke:#000000;stroke-width:1.0;"/><path d="M157.375,145.5179 L157.375,155.5179 L167.375,155.5179 L157.375,145.5179 " fill="#FFFFFF" style="stroke:#000000;stroke-width:1.0;"/><text fill="#000000" font-family="Arial" font-size="12" lengthAdjust="spacing" textLength="101.3848" x="41" y="161.7737">Strong consistency</text><text fill="#000000" font-family="Arial" font-size="12" lengthAdjust="spacing" textLength="111.375" x="41" y="175.5725">Terrible performance</text></g><!--entity app_tcc--><g id="elem_app_tcc"><rect fill="#FFFFFF" height="33.7988" rx="2.5" ry="2.5" style="stroke:#000000;stroke-width:1.0;" width="41.3516" x="517.5" y="147.5179"/><text fill="#000000" font-family="Arial" font-size="12" lengthAdjust="spacing" textLength="21.3516" x="527.5" y="168.7737">App</text></g><!--entity try_tcc--><g id="elem_try_tcc"><rect fill="#FFFFFF" height="33.7988" rx="2.5" ry="2.5" style="stroke:#000000;stroke-width:1.0;" width="37.3262" x="494.5" y="265.5179"/><text fill="#000000" font-family="Arial" font-size="12" lengthAdjust="spacing" textLength="17.3262" x="504.5" y="286.7737">Try</text></g><!--entity confirm_tcc--><g id="elem_confirm_tcc"><rect fill="#FFFFFF" height="33.7988" rx="2.5" ry="2.5" style="stroke:#000000;stroke-width:1.0;" width="62.0059" x="395" y="397.0179"/><text fill="#000000" font-family="Arial" font-size="12" lengthAdjust="spacing" textLength="42.0059" x="405" y="418.2737">Confirm</text></g><!--entity cancel_tcc--><g id="elem_cancel_tcc"><rect fill="#FFFFFF" height="33.7988" rx="2.5" ry="2.5" style="stroke:#000000;stroke-width:1.0;" width="57.3535" x="492.5" y="397.0179"/><text fill="#000000" font-family="Arial" font-size="12" lengthAdjust="spacing" textLength="37.3535" x="502.5" y="418.2737">Cancel</text></g><g id="elem_GMN19"><path d="M328,145.5179 L328,183.1155 L482.3828,183.1155 L482.3828,155.5179 L472.3828,145.5179 L328,145.5179 " fill="#FFFFFF" style="stroke:#000000;stroke-width:1.0;"/><path d="M472.3828,145.5179 L472.3828,155.5179 L482.3828,155.5179 L472.3828,145.5179 " fill="#FFFFFF" style="stroke:#000000;stroke-width:1.0;"/><text fill="#000000" font-family="Arial" font-size="12" lengthAdjust="spacing" textLength="102.7148" x="334" y="161.7737">Better performance</text><text fill="#000000" font-family="Arial" font-size="12" lengthAdjust="spacing" textLength="133.3828" x="334" y="175.5725">Massive code complexity</text></g><!--entity t1--><g id="elem_t1"><rect fill="#FFFFFF" height="33.7988" rx="2.5" ry="2.5" style="stroke:#000000;stroke-width:1.0;" width="34.0039" x="816" y="147.5179"/><text fill="#000000" font-family="Arial" font-size="12" lengthAdjust="spacing" textLength="14.0039" x="826" y="168.7737">T1</text></g><!--entity t2--><g id="elem_t2"><rect fill="#FFFFFF" height="33.7988" rx="2.5" ry="2.5" style="stroke:#000000;stroke-width:1.0;" width="34.0039" x="815" y="265.5179"/><text fill="#000000" font-family="Arial" font-size="12" lengthAdjust="spacing" textLength="14.0039" x="825" y="286.7737">T2</text></g><!--entity t3--><g id="elem_t3"><rect fill="#FFFFFF" height="33.7988" rx="2.5" ry="2.5" style="stroke:#000000;stroke-width:1.0;" width="34.0039" x="813" y="397.0179"/><text fill="#000000" font-family="Arial" font-size="12" lengthAdjust="spacing" textLength="14.0039" x="823" y="418.2737">T3</text></g><!--entity c3--><g id="elem_c3"><rect fill="#FFFFFF" height="33.7988" rx="2.5" ry="2.5" style="stroke:#000000;stroke-width:1.0;" width="35.3398" x="811.5" y="524.0179"/><text fill="#000000" font-family="Arial" font-size="12" lengthAdjust="spacing" textLength="15.3398" x="821.5" y="545.2737">C3</text></g><!--entity c2--><g id="elem_c2"><rect fill="#FFFFFF" height="33.7988" rx="2.5" ry="2.5" style="stroke:#000000;stroke-width:1.0;" width="35.3398" x="811.5" y="619.0179"/><text fill="#000000" font-family="Arial" font-size="12" lengthAdjust="spacing" textLength="15.3398" x="821.5" y="640.2737">C2</text></g><!--entity c1--><g id="elem_c1"><rect fill="#FFFFFF" height="33.7988" rx="2.5" ry="2.5" style="stroke:#000000;stroke-width:1.0;" width="35.3398" x="811.5" y="714.0179"/><text fill="#000000" font-family="Arial" font-size="12" lengthAdjust="spacing" textLength="15.3398" x="821.5" y="735.2737">C1</text></g><g id="elem_GMN34"><path d="M647,145.5179 L647,183.1155 L780.7285,183.1155 L780.7285,155.5179 L770.7285,145.5179 L647,145.5179 " fill="#FFFFFF" style="stroke:#000000;stroke-width:1.0;"/><path d="M770.7285,145.5179 L770.7285,155.5179 L780.7285,155.5179 L770.7285,145.5179 " fill="#FFFFFF" style="stroke:#000000;stroke-width:1.0;"/><text fill="#000000" font-family="Arial" font-size="12" lengthAdjust="spacing" textLength="91.377" x="653" y="161.7737">Chain of local TX</text><text fill="#000000" font-family="Arial" font-size="12" lengthAdjust="spacing" textLength="112.7285" x="653" y="175.5725">Eventual consistency</text></g><!--entity db_msg--><g id="elem_db_msg"><path d="M1067.5,153.0179 C1067.5,143.0179 1104.0078,143.0179 1104.0078,143.0179 C1104.0078,143.0179 1140.5156,143.0179 1140.5156,153.0179 L1140.5156,175.8167 C1140.5156,185.8167 1104.0078,185.8167 1104.0078,185.8167 C1104.0078,185.8167 1067.5,185.8167 1067.5,175.8167 L1067.5,153.0179 " fill="#FFFFFF" style="stroke:#000000;stroke-width:1.0;"/><path d="M1067.5,153.0179 C1067.5,163.0179 1104.0078,163.0179 1104.0078,163.0179 C1104.0078,163.0179 1140.5156,163.0179 1140.5156,153.0179 " fill="none" style="stroke:#000000;stroke-width:1.0;"/><text fill="#000000" font-family="Arial" font-size="12" lengthAdjust="spacing" textLength="53.0156" x="1077.5" y="178.2737">DB + Msg</text></g><!--entity mq--><g id="elem_mq"><path d="M1041.5,270.5179 L1070.8301,270.5179 C1075.8301,270.5179 1075.8301,282.4173 1075.8301,282.4173 C1075.8301,282.4173 1075.8301,294.3167 1070.8301,294.3167 L1041.5,294.3167 C1036.5,294.3167 1036.5,282.4173 1036.5,282.4173 C1036.5,282.4173 1036.5,270.5179 1041.5,270.5179 " fill="#FFFFFF" style="stroke:#000000;stroke-width:1.0;"/><path d="M1070.8301,270.5179 C1065.8301,270.5179 1065.8301,282.4173 1065.8301,282.4173 C1065.8301,294.3167 1070.8301,294.3167 1070.8301,294.3167 " fill="none" style="stroke:#000000;stroke-width:1.0;"/><text fill="#000000" font-family="Arial" font-size="12" lengthAdjust="spacing" textLength="19.3301" x="1041.5" y="286.7737">MQ</text></g><!--entity consumer--><g id="elem_consumer"><rect fill="#FFFFFF" height="33.7988" rx="2.5" ry="2.5" style="stroke:#000000;stroke-width:1.0;" width="75.3535" x="1018.5" y="397.0179"/><text fill="#000000" font-family="Arial" font-size="12" lengthAdjust="spacing" textLength="55.3535" x="1028.5" y="418.2737">Consumer</text></g><g id="elem_GMN43"><path d="M938,145.5179 L938,183.1155 L1031.6973,183.1155 L1031.6973,155.5179 L1021.6973,145.5179 L938,145.5179 " fill="#FFFFFF" style="stroke:#000000;stroke-width:1.0;"/><path d="M1021.6973,145.5179 L1021.6973,155.5179 L1031.6973,155.5179 L1021.6973,145.5179 " fill="#FFFFFF" style="stroke:#000000;stroke-width:1.0;"/><text fill="#000000" font-family="Arial" font-size="12" lengthAdjust="spacing" textLength="69.3809" x="944" y="161.7737">Best balance</text><text fill="#000000" font-family="Arial" font-size="12" lengthAdjust="spacing" textLength="72.6973" x="944" y="175.5725">for most apps</text></g><!--link tm_xa to db1_xa--><g id="link_tm_xa_db1_xa"><path d="M202.28,177.3279 C188.26,186.7279 169.15,200.8079 155,216.0179 C142.4,229.5679 134.0601,242.0076 126.1901,255.5776 " fill="none" id="tm_xa-to-db1_xa" style="stroke:#000000;stroke-width:1.0;"/><polygon fill="#000000" points="123.18,260.7679,131.1554,254.9892,125.6884,256.4426,124.235,250.9757,123.18,260.7679" style="stroke:#000000;stroke-width:1.0;"/><text fill="#000000" font-family="Arial" font-size="12" lengthAdjust="spacing" textLength="42.6914" x="156" y="228.2737">Prepare</text></g><!--link tm_xa to db2_xa--><g id="link_tm_xa_db2_xa"><path d="M217.52,181.6479 C213.07,202.3179 206.6032,232.3023 201.7232,254.9623 " fill="none" id="tm_xa-to-db2_xa" style="stroke:#000000;stroke-width:1.0;"/><polygon fill="#000000" points="200.46,260.8279,206.2651,252.8717,201.5127,255.9399,198.4444,251.1874,200.46,260.8279" style="stroke:#000000;stroke-width:1.0;"/><text fill="#000000" font-family="Arial" font-size="12" lengthAdjust="spacing" textLength="42.6914" x="210" y="228.2737">Prepare</text></g><!--link xa to GMN8--><g id="link_xa_GMN8"><path d="M101,82.0779 C101,83.7779 101,121.6279 101,145.1279 " fill="none" id="xa-GMN8" style="stroke:#000000;stroke-width:1.0;stroke-dasharray:7.0,7.0;"/></g><!--link app_tcc to try_tcc--><g id="link_app_tcc_try_tcc"><path d="M534.52,181.6479 C529.77,203.6879 522.5626,237.1222 517.7926,259.2822 " fill="none" id="app_tcc-to-try_tcc" style="stroke:#000000;stroke-width:1.0;"/><polygon fill="#000000" points="516.53,265.1479,522.3343,257.1911,517.5822,260.2598,514.5135,255.5076,516.53,265.1479" style="stroke:#000000;stroke-width:1.0;"/><text fill="#000000" font-family="Arial" font-size="12" lengthAdjust="spacing" textLength="44.6836" x="527" y="228.2737">Reserve</text></g><!--link try_tcc to confirm_tcc--><g id="link_try_tcc_confirm_tcc"><path d="M500.13,299.7679 C489.5,313.4279 474.23,333.6179 462,352.0179 C452.13,366.8679 444.8334,379.2394 437.8134,391.7094 " fill="none" id="try_tcc-to-confirm_tcc" style="stroke:#000000;stroke-width:1.0;"/><polygon fill="#000000" points="434.87,396.9379,442.7707,391.0574,437.3228,392.5808,435.7994,387.1329,434.87,396.9379" style="stroke:#000000;stroke-width:1.0;"/><text fill="#000000" font-family="Arial" font-size="12" lengthAdjust="spacing" textLength="45.3516" x="463" y="364.2737">Success</text></g><!--link try_tcc to cancel_tcc--><g id="link_try_tcc_cancel_tcc"><path d="M514,299.6579 C515.53,324.4779 518.0802,365.7493 519.6202,390.6893 " fill="none" id="try_tcc-to-cancel_tcc" style="stroke:#000000;stroke-width:1.0;"/><polygon fill="#000000" points="519.99,396.6779,523.4277,387.4484,519.6818,391.6874,515.4429,387.9415,519.99,396.6779" style="stroke:#000000;stroke-width:1.0;"/><text fill="#000000" font-family="Arial" font-size="12" lengthAdjust="spacing" textLength="36.6797" x="518" y="364.2737">Failure</text></g><!--link tcc to GMN19--><g id="link_tcc_GMN19"><path d="M405,82.0779 C405,83.7779 405,121.6279 405,145.1279 " fill="none" id="tcc-GMN19" style="stroke:#000000;stroke-width:1.0;stroke-dasharray:7.0,7.0;"/></g><!--link t1 to t2--><g id="link_t1_t2"><path d="M832.86,181.6479 C832.67,203.6879 832.3814,236.9881 832.1914,259.1481 " fill="none" id="t1-to-t2" style="stroke:#000000;stroke-width:1.0;"/><polygon fill="#000000" points="832.14,265.1479,836.217,256.1825,832.1829,260.148,828.2173,256.1139,832.14,265.1479" style="stroke:#000000;stroke-width:1.0;"/></g><!--link t2 to t3--><g id="link_t2_t3"><path d="M831.75,299.6579 C831.37,324.4779 830.7338,365.7386 830.3438,390.6786 " fill="none" id="t2-to-t3" style="stroke:#000000;stroke-width:1.0;"/><polygon fill="#000000" points="830.25,396.6779,834.3902,387.7415,830.3282,391.6785,826.3912,387.6164,830.25,396.6779" style="stroke:#000000;stroke-width:1.0;"/></g><!--link t3 to c3--><g id="link_t3_c3"><path d="M829.87,431.1079 C829.68,455.1079 829.3676,494.028 829.1776,517.998 " fill="none" id="t3-to-c3" style="stroke:#FF0000;stroke-width:1.0;"/><polygon fill="#FF0000" points="829.13,523.9979,833.2012,515.0298,829.1696,518.998,825.2015,514.9664,829.13,523.9979" style="stroke:#FF0000;stroke-width:1.0;"/><text fill="#000000" font-family="Arial" font-size="12" lengthAdjust="spacing" textLength="19.3359" x="830" y="491.2737">Fail</text></g><!--link c3 to c2--><g id="link_c3_c2"><path d="M829,558.2179 C829,575.2879 829,596.0079 829,613.0079 " fill="none" id="c3-to-c2" style="stroke:#FF0000;stroke-width:1.0;"/><polygon fill="#FF0000" points="829,619.0079,833,610.0079,829,614.0079,825,610.0079,829,619.0079" style="stroke:#FF0000;stroke-width:1.0;"/></g><!--link c2 to c1--><g id="link_c2_c1"><path d="M829,653.2179 C829,670.2879 829,691.0079 829,708.0079 " fill="none" id="c2-to-c1" style="stroke:#FF0000;stroke-width:1.0;"/><polygon fill="#FF0000" points="829,714.0079,833,705.0079,829,709.0079,825,705.0079,829,714.0079" style="stroke:#FF0000;stroke-width:1.0;"/></g><!--link saga to GMN34--><g id="link_saga_GMN34"><path d="M714,82.0779 C714,83.7779 714,121.6279 714,145.1279 " fill="none" id="saga-GMN34" style="stroke:#000000;stroke-width:1.0;stroke-dasharray:7.0,7.0;"/></g><!--link db_msg to mq--><g id="link_db_msg_mq"><path d="M1095.42,186.2579 C1085.23,210.8879 1070.8959,245.5345 1062.8859,264.8745 " fill="none" id="db_msg-to-mq" style="stroke:#000000;stroke-width:1.0;"/><polygon fill="#000000" points="1060.59,270.4179,1067.7294,263.6334,1062.5032,265.7984,1060.3382,260.5722,1060.59,270.4179" style="stroke:#000000;stroke-width:1.0;"/><text fill="#000000" font-family="Arial" font-size="12" lengthAdjust="spacing" textLength="83.3906" x="1083" y="228.2737">Background job</text></g><!--link mq to consumer--><g id="link_mq_consumer"><path d="M1056,294.5579 C1056,317.4379 1056,364.0979 1056,390.8279 " fill="none" id="mq-to-consumer" style="stroke:#000000;stroke-width:1.0;"/><polygon fill="#000000" points="1056,396.8279,1060,387.8279,1056,391.8279,1052,387.8279,1056,396.8279" style="stroke:#000000;stroke-width:1.0;"/><text fill="#000000" font-family="Arial" font-size="12" lengthAdjust="spacing" textLength="43.3477" x="1057" y="364.2737">Process</text></g><!--link lmt to GMN43--><g id="link_lmt_GMN43"><path d="M985,82.0779 C985,83.7779 985,121.6279 985,145.1279 " fill="none" id="lmt-GMN43" style="stroke:#000000;stroke-width:1.0;stroke-dasharray:7.0,7.0;"/></g><!--SRC=[TPHDRzim38Rl_XLSUXoAmSvEFWnet7QNPklM73giGw78ZAjL7wv4Tys6_lVHabQai9S0YQNt5Iaz9lM6xj0Wz5eeMuHxPNlXXO6jaFUTTuDj6wUTXwFpi_5xu6Xn9mPDvyxI9y4HJhmIUbw_KhyHogeeI956E5M1lDeEX2rilB11I5BEmkT-_0j5qNDoqI4iqWoKDLoVlAikcmM804y2ZYvKTqUDyqB3dmBuur6Ii1r7NspMqKRczab4hHKajYAmTBegezPkopcnoc8rYb6DGU3u-4DU0ZLSUkG3uaIkNijHjuuGjex86N0xtdaDL-ITxK3oGHa3Mhc_iHlqp8FttgFVEM-4bLWyJpbKDMoQ186ap1I-eTRkrnJ3ITz7f-ZxMtPFAFbz2kJtStBZx4vv4oqoFS_Qngtgv8gFqHHTEM-aavCmdgyOq3zcUdbsT1paODVL82M6C7Mzv63JkL1w-0zfTjImGYBqXr1lx5g4e1wHyxNZZ-arFYdQpz5UyZv49-BX0ZzatXyzefsfkbHPL4w4L5LKJOHb4fOJg4cGKo65afDGJKekororPQAUV5IbKGf7IpZ-VkIn_J7oN6QEKPAlfBHOLeTpvIpi4KuDpHtV8EDGEybjkRc-iMUFQ6dWmK6rpv5-NyD5NBJcbpuA6y7T48-a3MNkAprWndxOi_0Mrg7BZNjhGXST3mEoUx7-4WNpC5FUOJ3e_zLt7AJ3fIWHcNbWFAkNcn1-kcsqy7oksRWkThsB1Jk7Xuymrc8WlbHrgaAkHp2EPxX90XFv2m00]--></g></svg>