<svg xmlns="http://www.w3.org/2000/svg" xmlns:xlink="http://www.w3.org/1999/xlink" contentStyleType="text/css" data-diagram-type="DESCRIPTION" height="650px" preserveAspectRatio="none" style="width:1583px;height:650px;background:#FFFFFF;" version="1.1" viewBox="0 0 1583 650" width="1583px" zoomAndPan="magnify"><title>Composite Index B+Tree (LastName, FirstName)</title><defs/><g><g class="title" data-source-line="3"><text fill="#000000" font-family="Verdana" font-size="22" font-weight="bold" lengthAdjust="spacing" textLength="605.3545" x="484.3533" y="37.1182">Composite Index B+Tree (LastName, FirstName)</text></g><!--cluster Root Page--><g class="cluster" data-entity="Root Page" data-source-line="5" data-uid="ent0002" id="cluster_Root Page"><path d="M648.5,58.7373 L729.5352,58.7373 A3.75,3.75 0 0 1 732.0352,61.2373 L739.0352,81.752 L825.5,81.752 A2.5,2.5 0 0 1 828,84.252 L828,196.2373 A2.5,2.5 0 0 1 825.5,198.7373 L648.5,198.7373 A2.5,2.5 0 0 1 646,196.2373 L646,61.2373 A2.5,2.5 0 0 1 648.5,58.7373" fill="#FFFFFF" style="stroke:#000000;stroke-width:1;"/><line style="stroke:#000000;stroke-width:1;" x1="646" x2="739.0352" y1="81.752" y2="81.752"/><text fill="#000000" font-family="Verdana" font-size="14" font-weight="bold" lengthAdjust="spacing" textLength="80.0352" x="650" y="74.8125">Root Page</text></g><!--cluster Internal Pages--><g class="cluster" data-entity="Internal Pages" data-source-line="9" data-uid="ent0004" id="cluster_Internal Pages"><path d="M477.5,222.7373 L594.6494,222.7373 A3.75,3.75 0 0 1 597.1494,225.2373 L604.1494,245.752 L994.5,245.752 A2.5,2.5 0 0 1 997,248.252 L997,360.2373 A2.5,2.5 0 0 1 994.5,362.7373 L477.5,362.7373 A2.5,2.5 0 0 1 475,360.2373 L475,225.2373 A2.5,2.5 0 0 1 477.5,222.7373" fill="#FFFFFF" style="stroke:#000000;stroke-width:1;"/><line style="stroke:#000000;stroke-width:1;" x1="475" x2="604.1494" y1="245.752" y2="245.752"/><text fill="#000000" font-family="Verdana" font-size="14" font-weight="bold" lengthAdjust="spacing" textLength="116.1494" x="479" y="238.8125">Internal Pages</text></g><!--cluster Leaf Pages (Data)--><g class="cluster" data-entity="Leaf Pages .Data." data-source-line="15" data-uid="ent0008" id="cluster_Leaf Pages .Data."><path d="M13.5,386.7373 L156.4756,386.7373 A3.75,3.75 0 0 1 158.9756,389.2373 L165.9756,409.752 L1460.5,409.752 A2.5,2.5 0 0 1 1463,412.252 L1463,524.2373 A2.5,2.5 0 0 1 1460.5,526.7373 L13.5,526.7373 A2.5,2.5 0 0 1 11,524.2373 L11,389.2373 A2.5,2.5 0 0 1 13.5,386.7373" fill="#FFFFFF" style="stroke:#000000;stroke-width:1;"/><line style="stroke:#000000;stroke-width:1;" x1="11" x2="165.9756" y1="409.752" y2="409.752"/><text fill="#000000" font-family="Verdana" font-size="14" font-weight="bold" lengthAdjust="spacing" textLength="141.9756" x="15" y="402.8125">Leaf Pages (Data)</text></g><!--entity root--><g class="entity" data-entity="root" data-source-line="6" data-uid="ent0003" id="entity_root"><rect fill="#FFFFFF" height="88.0586" rx="2.5" ry="2.5" style="stroke:#000000;stroke-width:1;" width="148.8369" x="662.5" y="94.7373"/><text fill="#000000" font-family="Verdana" font-size="14" lengthAdjust="spacing" textLength="128.8369" x="672.5" y="118.8125">Keys: (Johnson,*)</text><text fill="#000000" font-family="Verdana" font-size="14" lengthAdjust="spacing" textLength="68.1133" x="672.5" y="135.8271">(Smith,*)</text><text fill="#000000" font-family="Verdana" font-size="14" lengthAdjust="spacing" textLength="63.123" x="672.5" y="152.8418">Pointers:</text><text fill="#000000" font-family="Verdana" font-size="14" lengthAdjust="spacing" textLength="64.7432" x="672.5" y="169.8564">P1|P2|P3</text></g><!--entity internal1--><g class="entity" data-entity="internal1" data-source-line="10" data-uid="ent0005" id="entity_internal1"><rect fill="#FFFFFF" height="88.0586" rx="2.5" ry="2.5" style="stroke:#000000;stroke-width:1;" width="135.9922" x="491" y="258.7373"/><text fill="#000000" font-family="Verdana" font-size="14" lengthAdjust="spacing" textLength="115.9922" x="501" y="282.8125">Keys: (Brown,*)</text><text fill="#000000" font-family="Verdana" font-size="14" lengthAdjust="spacing" textLength="65.3242" x="501" y="299.8271">(Davis,*)</text><text fill="#000000" font-family="Verdana" font-size="14" lengthAdjust="spacing" textLength="63.123" x="501" y="316.8418">Pointers:</text><text fill="#000000" font-family="Verdana" font-size="14" lengthAdjust="spacing" textLength="64.7432" x="501" y="333.8564">P4|P5|P6</text></g><!--entity internal2--><g class="entity" data-entity="internal2" data-source-line="11" data-uid="ent0006" id="entity_internal2"><rect fill="#FFFFFF" height="88.0586" rx="2.5" ry="2.5" style="stroke:#000000;stroke-width:1;" width="149.5068" x="662" y="258.7373"/><text fill="#000000" font-family="Verdana" font-size="14" lengthAdjust="spacing" textLength="129.5068" x="672" y="282.8125">Keys: (Johnson,A)</text><text fill="#000000" font-family="Verdana" font-size="14" lengthAdjust="spacing" textLength="86.8369" x="672" y="299.8271">(Johnson,M)</text><text fill="#000000" font-family="Verdana" font-size="14" lengthAdjust="spacing" textLength="63.123" x="672" y="316.8418">Pointers:</text><text fill="#000000" font-family="Verdana" font-size="14" lengthAdjust="spacing" textLength="64.7432" x="672" y="333.8564">P7|P8|P9</text></g><!--entity internal3--><g class="entity" data-entity="internal3" data-source-line="12" data-uid="ent0007" id="entity_internal3"><rect fill="#FFFFFF" height="88.0586" rx="2.5" ry="2.5" style="stroke:#000000;stroke-width:1;" width="133.709" x="847" y="258.7373"/><text fill="#000000" font-family="Verdana" font-size="14" lengthAdjust="spacing" textLength="113.709" x="857" y="282.8125">Keys: (Smith,B)</text><text fill="#000000" font-family="Verdana" font-size="14" lengthAdjust="spacing" textLength="72.8848" x="857" y="299.8271">(Wilson,*)</text><text fill="#000000" font-family="Verdana" font-size="14" lengthAdjust="spacing" textLength="63.123" x="857" y="316.8418">Pointers:</text><text fill="#000000" font-family="Verdana" font-size="14" lengthAdjust="spacing" textLength="91.4443" x="857" y="333.8564">P10|P11|P12</text></g><!--entity leaf1--><g class="entity" data-entity="leaf1" data-source-line="16" data-uid="ent0009" id="entity_leaf1"><rect fill="#FFFFFF" height="88.0586" rx="2.5" ry="2.5" style="stroke:#000000;stroke-width:1;" width="118" x="27" y="422.7373"/><text fill="#000000" font-family="Verdana" font-size="14" lengthAdjust="spacing" textLength="98" x="37" y="446.8125">(Adams,John)</text><text fill="#000000" font-family="Verdana" font-size="14" lengthAdjust="spacing" textLength="95.0811" x="37" y="463.8271">(Brown,Alice)</text><text fill="#000000" font-family="Verdana" font-size="14" lengthAdjust="spacing" textLength="89.0107" x="37" y="480.8418">(Brown,Bob)</text><text fill="#000000" font-family="Verdana" font-size="14" lengthAdjust="spacing" textLength="73.2949" x="37" y="497.8564">+Row Ptrs</text></g><!--entity leaf2--><g class="entity" data-entity="leaf2" data-source-line="17" data-uid="ent0010" id="entity_leaf2"><rect fill="#FFFFFF" height="88.0586" rx="2.5" ry="2.5" style="stroke:#000000;stroke-width:1;" width="125.4648" x="180.5" y="422.7373"/><text fill="#000000" font-family="Verdana" font-size="14" lengthAdjust="spacing" textLength="105.4648" x="190.5" y="446.8125">(Davis,Charlie)</text><text fill="#000000" font-family="Verdana" font-size="14" lengthAdjust="spacing" textLength="81.9014" x="190.5" y="463.8271">(Davis,Eve)</text><text fill="#000000" font-family="Verdana" font-size="14" lengthAdjust="spacing" textLength="102.1631" x="190.5" y="480.8418">(Garcia,Frank)</text><text fill="#000000" font-family="Verdana" font-size="14" lengthAdjust="spacing" textLength="73.2949" x="190.5" y="497.8564">+Row Ptrs</text></g><!--entity leaf3--><g class="entity" data-entity="leaf3" data-source-line="18" data-uid="ent0011" id="entity_leaf3"><rect fill="#FFFFFF" height="88.0586" rx="2.5" ry="2.5" style="stroke:#000000;stroke-width:1;" width="127.9258" x="341" y="422.7373"/><text fill="#000000" font-family="Verdana" font-size="14" lengthAdjust="spacing" textLength="103.4619" x="351" y="446.8125">(Garcia,Grace)</text><text fill="#000000" font-family="Verdana" font-size="14" lengthAdjust="spacing" textLength="107.9258" x="351" y="463.8271">(Johnson,Alice)</text><text fill="#000000" font-family="Verdana" font-size="14" lengthAdjust="spacing" textLength="101.8555" x="351" y="480.8418">(Johnson,Bob)</text><text fill="#000000" font-family="Verdana" font-size="14" lengthAdjust="spacing" textLength="73.2949" x="351" y="497.8564">+Row Ptrs</text></g><!--entity leaf4--><g class="entity" data-entity="leaf4" data-source-line="19" data-uid="ent0012" id="entity_leaf4"><rect fill="#FFFFFF" height="88.0586" rx="2.5" ry="2.5" style="stroke:#000000;stroke-width:1;" width="144.0791" x="504" y="422.7373"/><text fill="#000000" font-family="Verdana" font-size="14" lengthAdjust="spacing" textLength="124.0791" x="514" y="446.8125">(Johnson,Charlie)</text><text fill="#000000" font-family="Verdana" font-size="14" lengthAdjust="spacing" textLength="115.083" x="514" y="463.8271">(Johnson,David)</text><text fill="#000000" font-family="Verdana" font-size="14" lengthAdjust="spacing" textLength="109.5049" x="514" y="480.8418">(Johnson,Mary)</text><text fill="#000000" font-family="Verdana" font-size="14" lengthAdjust="spacing" textLength="73.2949" x="514" y="497.8564">+Row Ptrs</text></g><!--entity leaf5--><g class="entity" data-entity="leaf5" data-source-line="20" data-uid="ent0013" id="entity_leaf5"><rect fill="#FFFFFF" height="88.0586" rx="2.5" ry="2.5" style="stroke:#000000;stroke-width:1;" width="108.334" x="683" y="422.7373"/><text fill="#000000" font-family="Verdana" font-size="14" lengthAdjust="spacing" textLength="88.334" x="693" y="446.8125">(Miller,Alice)</text><text fill="#000000" font-family="Verdana" font-size="14" lengthAdjust="spacing" textLength="88.0264" x="693" y="463.8271">(Miller,John)</text><text fill="#000000" font-family="Verdana" font-size="14" lengthAdjust="spacing" textLength="86.0303" x="693" y="480.8418">(Smith,Bob)</text><text fill="#000000" font-family="Verdana" font-size="14" lengthAdjust="spacing" textLength="73.2949" x="693" y="497.8564">+Row Ptrs</text></g><!--entity leaf6--><g class="entity" data-entity="leaf6" data-source-line="21" data-uid="ent0014" id="entity_leaf6"><rect fill="#FFFFFF" height="88.0586" rx="2.5" ry="2.5" style="stroke:#000000;stroke-width:1;" width="128.2539" x="826" y="422.7373"/><text fill="#000000" font-family="Verdana" font-size="14" lengthAdjust="spacing" textLength="108.2539" x="836" y="446.8125">(Smith,Charlie)</text><text fill="#000000" font-family="Verdana" font-size="14" lengthAdjust="spacing" textLength="91.793" x="836" y="463.8271">(Smith,John)</text><text fill="#000000" font-family="Verdana" font-size="14" lengthAdjust="spacing" textLength="93.6797" x="836" y="480.8418">(Smith,Mary)</text><text fill="#000000" font-family="Verdana" font-size="14" lengthAdjust="spacing" textLength="73.2949" x="836" y="497.8564">+Row Ptrs</text></g><!--entity leaf7--><g class="entity" data-entity="leaf7" data-source-line="22" data-uid="ent0015" id="entity_leaf7"><rect fill="#FFFFFF" height="88.0586" rx="2.5" ry="2.5" style="stroke:#000000;stroke-width:1;" width="133.0254" x="989.5" y="422.7373"/><text fill="#000000" font-family="Verdana" font-size="14" lengthAdjust="spacing" textLength="94.3291" x="999.5" y="446.8125">(Taylor,Alice)</text><text fill="#000000" font-family="Verdana" font-size="14" lengthAdjust="spacing" textLength="88.2588" x="999.5" y="463.8271">(Taylor,Bob)</text><text fill="#000000" font-family="Verdana" font-size="14" lengthAdjust="spacing" textLength="113.0254" x="999.5" y="480.8418">(Wilson,Charlie)</text><text fill="#000000" font-family="Verdana" font-size="14" lengthAdjust="spacing" textLength="73.2949" x="999.5" y="497.8564">+Row Ptrs</text></g><!--entity leaf8--><g class="entity" data-entity="leaf8" data-source-line="23" data-uid="ent0016" id="entity_leaf8"><rect fill="#FFFFFF" height="88.0586" rx="2.5" ry="2.5" style="stroke:#000000;stroke-width:1;" width="124.0293" x="1158" y="422.7373"/><text fill="#000000" font-family="Verdana" font-size="14" lengthAdjust="spacing" textLength="104.0293" x="1168" y="446.8125">(Wilson,David)</text><text fill="#000000" font-family="Verdana" font-size="14" lengthAdjust="spacing" textLength="96.5645" x="1168" y="463.8271">(Wilson,John)</text><text fill="#000000" font-family="Verdana" font-size="14" lengthAdjust="spacing" textLength="98.4512" x="1168" y="480.8418">(Wilson,Mary)</text><text fill="#000000" font-family="Verdana" font-size="14" lengthAdjust="spacing" textLength="73.2949" x="1168" y="497.8564">+Row Ptrs</text></g><!--entity leaf9--><g class="entity" data-entity="leaf9" data-source-line="24" data-uid="ent0017" id="entity_leaf9"><rect fill="#FFFFFF" height="88.0586" rx="2.5" ry="2.5" style="stroke:#000000;stroke-width:1;" width="130.4004" x="1317" y="422.7373"/><text fill="#000000" font-family="Verdana" font-size="14" lengthAdjust="spacing" textLength="94.2471" x="1327" y="446.8125">(Young,Alice)</text><text fill="#000000" font-family="Verdana" font-size="14" lengthAdjust="spacing" textLength="88.1768" x="1327" y="463.8271">(Young,Bob)</text><text fill="#000000" font-family="Verdana" font-size="14" lengthAdjust="spacing" textLength="110.4004" x="1327" y="480.8418">(Young,Charlie)</text><text fill="#000000" font-family="Verdana" font-size="14" lengthAdjust="spacing" textLength="73.2949" x="1327" y="497.8564">+Row Ptrs</text></g><g class="entity" data-entity="GMN38" data-source-line="55" data-uid="ent0039" id="entity_GMN38"><path d="M1187.5,570.7373 L1187.5,643.9346 A0,0 0 0 0 1187.5,643.9346 L1576.061,643.9346 A0,0 0 0 0 1576.061,643.9346 L1576.061,580.7373 L1566.061,570.7373 L1386,570.7373 L1382,510.7973 L1378,570.7373 L1187.5,570.7373 A0,0 0 0 0 1187.5,570.7373" fill="#FFFFFF" style="stroke:#000000;stroke-width:1;"/><path d="M1566.061,570.7373 L1566.061,580.7373 L1576.061,580.7373 L1566.061,570.7373" fill="#FFFFFF" style="stroke:#000000;stroke-width:1;"/><text fill="#000000" font-family="Verdana" font-size="13" lengthAdjust="spacing" textLength="296.8101" x="1193.5" y="588.8071">- Composite index on (LastName, FirstName)</text><text fill="#000000" font-family="Verdana" font-size="13" lengthAdjust="spacing" textLength="303.6655" x="1193.5" y="604.6064">- Sorted first by LastName, then by FirstName</text><text fill="#000000" font-family="Verdana" font-size="13" lengthAdjust="spacing" textLength="367.561" x="1193.5" y="620.4058">- Efficient for queries on both columns or just LastName</text><text fill="#000000" font-family="Verdana" font-size="13" lengthAdjust="spacing" textLength="293.9155" x="1193.5" y="636.2051">- Less efficient for queries on FirstName only</text></g><!--link root to internal1--><g class="link" data-entity-1="root" data-entity-2="internal1" data-source-line="28" data-uid="lnk18" id="link_root_internal1"><path d="M681.02,183.1073 C668.6,193.2173 655.66,204.1373 644,214.7373 C628.84,228.5173 617.1414,240.0346 603.2714,254.3746" fill="none" id="root-to-internal1" style="stroke:#000000;stroke-width:1;"/><polygon fill="#000000" points="599.1,258.6873,608.2322,254.9991,602.5761,255.0934,602.4819,249.4373,599.1,258.6873" style="stroke:#000000;stroke-width:1;"/></g><!--link root to internal2--><g class="link" data-entity-1="root" data-entity-2="internal2" data-source-line="29" data-uid="lnk19" id="link_root_internal2"><path d="M737,183.1473 C737,206.4873 737,229.1773 737,252.4873" fill="none" id="root-to-internal2" style="stroke:#000000;stroke-width:1;"/><polygon fill="#000000" points="737,258.4873,741,249.4873,737,253.4873,733,249.4873,737,258.4873" style="stroke:#000000;stroke-width:1;"/></g><!--link root to internal3--><g class="link" data-entity-1="root" data-entity-2="internal3" data-source-line="30" data-uid="lnk20" id="link_root_internal3"><path d="M791.86,182.7573 C804.3,192.9773 817.29,204.0373 829,214.7373 C844.12,228.5573 855.8071,240.0861 869.6871,254.4261" fill="none" id="root-to-internal3" style="stroke:#000000;stroke-width:1;"/><polygon fill="#000000" points="873.86,258.7373,870.4748,249.4885,870.3826,255.1446,864.7265,255.0524,873.86,258.7373" style="stroke:#000000;stroke-width:1;"/></g><!--link internal1 to leaf1--><g class="link" data-entity-1="internal1" data-entity-2="leaf1" data-source-line="32" data-uid="lnk21" id="link_internal1_leaf1"><path d="M490.7,303.5273 C407.94,306.0973 266.73,319.7973 163,378.7373 C144.24,389.3973 131.4571,401.6612 118.5671,417.7812" fill="none" id="internal1-to-leaf1" style="stroke:#000000;stroke-width:1;"/><polygon fill="#000000" points="114.82,422.4673,123.5647,417.9363,117.9426,418.5623,117.3166,412.9401,114.82,422.4673" style="stroke:#000000;stroke-width:1;"/></g><!--link internal1 to leaf2--><g class="link" data-entity-1="internal1" data-entity-2="leaf2" data-source-line="33" data-uid="lnk22" id="link_internal1_leaf2"><path d="M490.91,315.5873 C441.46,326.4373 374.48,345.9273 323,378.7373 C304.83,390.3173 292.0083,402.4762 278.5983,418.1662" fill="none" id="internal1-to-leaf2" style="stroke:#000000;stroke-width:1;"/><polygon fill="#000000" points="274.7,422.7273,283.5881,418.4845,277.9486,418.9264,277.5067,413.2868,274.7,422.7273" style="stroke:#000000;stroke-width:1;"/></g><!--link internal1 to leaf3--><g class="link" data-entity-1="internal1" data-entity-2="leaf3" data-source-line="34" data-uid="lnk23" id="link_internal1_leaf3"><path d="M516.76,346.8073 C506.64,357.2173 495.9,368.3373 486,378.7373 C472.48,392.9373 461.9234,404.1812 448.8634,418.2412" fill="none" id="internal1-to-leaf3" style="stroke:#000000;stroke-width:1;"/><polygon fill="#000000" points="444.78,422.6373,453.8359,418.7654,448.1829,418.9739,447.9744,413.3209,444.78,422.6373" style="stroke:#000000;stroke-width:1;"/></g><!--link internal2 to leaf4--><g class="link" data-entity-1="internal2" data-entity-2="leaf4" data-source-line="36" data-uid="lnk24" id="link_internal2_leaf4"><path d="M693.85,347.1473 C670.66,370.4873 646.3798,394.9219 623.2098,418.2319" fill="none" id="internal2-to-leaf4" style="stroke:#000000;stroke-width:1;"/><polygon fill="#000000" points="618.98,422.4873,628.1617,418.9241,622.5049,418.9411,622.4878,413.2843,618.98,422.4873" style="stroke:#000000;stroke-width:1;"/></g><!--link internal2 to leaf5--><g class="link" data-entity-1="internal2" data-entity-2="leaf5" data-source-line="37" data-uid="lnk25" id="link_internal2_leaf5"><path d="M737,347.1473 C737,370.4873 737,393.1773 737,416.4873" fill="none" id="internal2-to-leaf5" style="stroke:#000000;stroke-width:1;"/><polygon fill="#000000" points="737,422.4873,741,413.4873,737,417.4873,733,413.4873,737,422.4873" style="stroke:#000000;stroke-width:1;"/></g><!--link internal2 to leaf6--><g class="link" data-entity-1="internal2" data-entity-2="leaf6" data-source-line="38" data-uid="lnk26" id="link_internal2_leaf6"><path d="M777.94,346.9473 C787.79,357.3573 798.27,368.4373 808,378.7373 C821.4,392.9173 831.8946,404.0511 845.0246,417.9811" fill="none" id="internal2-to-leaf6" style="stroke:#000000;stroke-width:1;"/><polygon fill="#000000" points="849.14,422.3473,845.8777,413.0545,845.7105,418.7088,840.0561,418.5417,849.14,422.3473" style="stroke:#000000;stroke-width:1;"/></g><!--link internal3 to leaf7--><g class="link" data-entity-1="internal3" data-entity-2="leaf7" data-source-line="40" data-uid="lnk27" id="link_internal3_leaf7"><path d="M952.05,347.1473 C972.51,370.4873 993.6942,394.666 1014.1342,417.976" fill="none" id="internal3-to-leaf7" style="stroke:#000000;stroke-width:1;"/><polygon fill="#000000" points="1018.09,422.4873,1015.1638,413.0832,1014.7935,418.7279,1009.1488,418.3576,1018.09,422.4873" style="stroke:#000000;stroke-width:1;"/></g><!--link internal3 to leaf8--><g class="link" data-entity-1="internal3" data-entity-2="leaf8" data-source-line="41" data-uid="lnk28" id="link_internal3_leaf8"><path d="M981.22,316.6273 C1028.36,327.8373 1091.39,347.3173 1140,378.7373 C1157.92,390.3173 1170.5802,402.3061 1183.9302,417.8461" fill="none" id="internal3-to-leaf8" style="stroke:#000000;stroke-width:1;"/><polygon fill="#000000" points="1187.84,422.3973,1185.0094,412.964,1184.5818,418.6046,1178.9412,418.1771,1187.84,422.3973" style="stroke:#000000;stroke-width:1;"/></g><!--link internal3 to leaf9--><g class="link" data-entity-1="internal3" data-entity-2="leaf9" data-source-line="42" data-uid="lnk29" id="link_internal3_leaf9"><path d="M981.13,304.6473 C1061.39,308.3773 1197.59,323.2473 1299,378.7373 C1318.6,389.4573 1332.3775,401.8857 1346.3575,417.9957" fill="none" id="internal3-to-leaf9" style="stroke:#000000;stroke-width:1;"/><polygon fill="#000000" points="1350.29,422.5273,1347.4124,413.1082,1347.0129,418.7509,1341.3702,418.3515,1350.29,422.5273" style="stroke:#000000;stroke-width:1;"/></g><!--link leaf1 to leaf2--><g class="link" data-entity-1="leaf1" data-entity-2="leaf2" data-source-line="45" data-uid="lnk30" id="link_leaf1_leaf2"><path d="M145.18,466.7373 C156.9,466.7373 162.62,466.7373 174.34,466.7373" fill="none" id="leaf1-to-leaf2" style="stroke:#000000;stroke-width:1;"/><polygon fill="#000000" points="180.34,466.7373,171.34,462.7373,175.34,466.7373,171.34,470.7373,180.34,466.7373" style="stroke:#000000;stroke-width:1;"/></g><!--link leaf2 to leaf3--><g class="link" data-entity-1="leaf2" data-entity-2="leaf3" data-source-line="46" data-uid="lnk31" id="link_leaf2_leaf3"><path d="M305.65,466.7373 C317.42,466.7373 323.19,466.7373 334.96,466.7373" fill="none" id="leaf2-to-leaf3" style="stroke:#000000;stroke-width:1;"/><polygon fill="#000000" points="340.96,466.7373,331.96,462.7373,335.96,466.7373,331.96,470.7373,340.96,466.7373" style="stroke:#000000;stroke-width:1;"/></g><!--link leaf3 to leaf4--><g class="link" data-entity-1="leaf3" data-entity-2="leaf4" data-source-line="47" data-uid="lnk32" id="link_leaf3_leaf4"><path d="M469.12,466.7373 C480.68,466.7373 486.23,466.7373 497.78,466.7373" fill="none" id="leaf3-to-leaf4" style="stroke:#000000;stroke-width:1;"/><polygon fill="#000000" points="503.78,466.7373,494.78,462.7373,498.78,466.7373,494.78,470.7373,503.78,466.7373" style="stroke:#000000;stroke-width:1;"/></g><!--link leaf4 to leaf5--><g class="link" data-entity-1="leaf4" data-entity-2="leaf5" data-source-line="48" data-uid="lnk33" id="link_leaf4_leaf5"><path d="M648.01,466.7373 C659.6,466.7373 665.18,466.7373 676.77,466.7373" fill="none" id="leaf4-to-leaf5" style="stroke:#000000;stroke-width:1;"/><polygon fill="#000000" points="682.77,466.7373,673.77,462.7373,677.77,466.7373,673.77,470.7373,682.77,466.7373" style="stroke:#000000;stroke-width:1;"/></g><!--link leaf5 to leaf6--><g class="link" data-entity-1="leaf5" data-entity-2="leaf6" data-source-line="49" data-uid="lnk34" id="link_leaf5_leaf6"><path d="M791.09,466.7373 C802.68,466.7373 808.27,466.7373 819.86,466.7373" fill="none" id="leaf5-to-leaf6" style="stroke:#000000;stroke-width:1;"/><polygon fill="#000000" points="825.86,466.7373,816.86,462.7373,820.86,466.7373,816.86,470.7373,825.86,466.7373" style="stroke:#000000;stroke-width:1;"/></g><!--link leaf6 to leaf7--><g class="link" data-entity-1="leaf6" data-entity-2="leaf7" data-source-line="50" data-uid="lnk35" id="link_leaf6_leaf7"><path d="M954.2,466.7373 C965.86,466.7373 971.53,466.7373 983.19,466.7373" fill="none" id="leaf6-to-leaf7" style="stroke:#000000;stroke-width:1;"/><polygon fill="#000000" points="989.19,466.7373,980.19,462.7373,984.19,466.7373,980.19,470.7373,989.19,466.7373" style="stroke:#000000;stroke-width:1;"/></g><!--link leaf7 to leaf8--><g class="link" data-entity-1="leaf7" data-entity-2="leaf8" data-source-line="51" data-uid="lnk36" id="link_leaf7_leaf8"><path d="M1122.62,466.7373 C1134.42,466.7373 1140.21,466.7373 1152,466.7373" fill="none" id="leaf7-to-leaf8" style="stroke:#000000;stroke-width:1;"/><polygon fill="#000000" points="1158,466.7373,1149,462.7373,1153,466.7373,1149,470.7373,1158,466.7373" style="stroke:#000000;stroke-width:1;"/></g><!--link leaf8 to leaf9--><g class="link" data-entity-1="leaf8" data-entity-2="leaf9" data-source-line="52" data-uid="lnk37" id="link_leaf8_leaf9"><path d="M1282.02,466.7373 C1293.6,466.7373 1299.19,466.7373 1310.78,466.7373" fill="none" id="leaf8-to-leaf9" style="stroke:#000000;stroke-width:1;"/><polygon fill="#000000" points="1316.78,466.7373,1307.78,462.7373,1311.78,466.7373,1307.78,470.7373,1316.78,466.7373" style="stroke:#000000;stroke-width:1;"/></g><!--SRC=[VLLTRzem57tFhxZZPNG5QH0- -p09khRgHgUehJHDsej93F5mR6QRTcZPVv_jV3gGle3loRtdddlYsEzKZ1CCUue8ypn55CLmpPCzbqHXk6SH_WFBosU1CNHNIAflAC4zk2KYMrvutXw5ExJ5q7daN46Wbntuwm4872h4jfglynKVvHLql_2OISvw7ov-ikvJGbHibm4dJ64Xh_Hoa0R3DF0xW2G8pUVzgpMuDsaCKTj4jdLP2lwQz_YCNeWywJ5AWt4QJ6mFabCEtXIyC6H5yD2WcwR1B0tc3jtmB5qsyjAGVIUqSC8P_sCQ3BG7Ww53vpish33QP1Q0db2XYnCdkei89R9d59jccICBIa9SXKk-ri7b8t-5G0bf-r7Dt70Yz_0wHe8IN9bwysA3EoH2Wdgt0h7TMRg64qN1dK2PcDBYGbq1jEdp6uH5VarX0HcbaVFga3YU9HqrI1y8fLXKelAuC3H_aIqAnmsoBBkcBmDSibPfamRRCpfINfEMnvcOObzLpKu9fmt2lAGqAuyBUNdOgc_MeFl13snRoSl2N5qMl2LkRdRwUx3dZLJY4Ag3m9uv2Q0VwMtR_rJxPC_2m_EmxtbbOVams-_dyM4BNYCQEWz6BVYu1PzKHBxpODg2prhmkN7C7WgKi1sEz9zKdfqD-e9iOrMEP7zTqBUWxu8Z2uvSS6p1iGjEB3XnmQa5fouui-3C1RLsnlL5i-PAyKHlfNxjzY7szk6ivUOnoKzSA3tnng2mFaALgEyrPf2omERVR3Oa99Wfs701lmzO47sCwXPQG0mXfuU4wLZ0huCcBDXiwGfB2RYjlcoZ0thqC8l03ERz1m00]--></g></svg>