<svg xmlns="http://www.w3.org/2000/svg" xmlns:xlink="http://www.w3.org/1999/xlink" contentStyleType="text/css" data-diagram-type="DESCRIPTION" height="666px" preserveAspectRatio="none" style="width:1581px;height:666px;background:#FFFFFF;" version="1.1" viewBox="0 0 1581 666" width="1581px" zoomAndPan="magnify"><title>B-Tree Index Structure (Order 3)</title><defs/><g><g class="title" data-source-line="3"><text fill="#000000" font-family="Verdana" font-size="22" font-weight="bold" lengthAdjust="spacing" textLength="411.501" x="580.4995" y="37.1182">B-Tree Index Structure (Order 3)</text></g><!--cluster Root Node--><g class="cluster" data-entity="Root Node" data-source-line="5" data-uid="ent0002" id="cluster_Root Node"><path d="M781,58.7373 L863.8877,58.7373 A3.75,3.75 0 0 1 866.3877,61.2373 L873.3877,81.752 L936,81.752 A2.5,2.5 0 0 1 938.5,84.252 L938.5,196.2373 A2.5,2.5 0 0 1 936,198.7373 L781,198.7373 A2.5,2.5 0 0 1 778.5,196.2373 L778.5,61.2373 A2.5,2.5 0 0 1 781,58.7373" fill="#FFFFFF" style="stroke:#000000;stroke-width:1;"/><line style="stroke:#000000;stroke-width:1;" x1="778.5" x2="873.3877" y1="81.752" y2="81.752"/><text fill="#000000" font-family="Verdana" font-size="14" font-weight="bold" lengthAdjust="spacing" textLength="81.8877" x="782.5" y="74.8125">Root Node</text></g><!--cluster Internal Nodes--><g class="cluster" data-entity="Internal Nodes" data-source-line="9" data-uid="ent0004" id="cluster_Internal Nodes"><path d="M618,222.7373 L737.002,222.7373 A3.75,3.75 0 0 1 739.502,225.2373 L746.502,245.752 L1099,245.752 A2.5,2.5 0 0 1 1101.5,248.252 L1101.5,360.2373 A2.5,2.5 0 0 1 1099,362.7373 L618,362.7373 A2.5,2.5 0 0 1 615.5,360.2373 L615.5,225.2373 A2.5,2.5 0 0 1 618,222.7373" fill="#FFFFFF" style="stroke:#000000;stroke-width:1;"/><line style="stroke:#000000;stroke-width:1;" x1="615.5" x2="746.502" y1="245.752" y2="245.752"/><text fill="#000000" font-family="Verdana" font-size="14" font-weight="bold" lengthAdjust="spacing" textLength="118.002" x="619.5" y="238.8125">Internal Nodes</text></g><!--cluster Leaf Nodes--><g class="cluster" data-entity="Leaf Nodes" data-source-line="15" data-uid="ent0008" id="cluster_Leaf Nodes"><path d="M129,386.7373 L217.124,386.7373 A3.75,3.75 0 0 1 219.624,389.2373 L226.624,409.752 L1572,409.752 A2.5,2.5 0 0 1 1574.5,412.252 L1574.5,524.2373 A2.5,2.5 0 0 1 1572,526.7373 L129,526.7373 A2.5,2.5 0 0 1 126.5,524.2373 L126.5,389.2373 A2.5,2.5 0 0 1 129,386.7373" fill="#FFFFFF" style="stroke:#000000;stroke-width:1;"/><line style="stroke:#000000;stroke-width:1;" x1="126.5" x2="226.624" y1="409.752" y2="409.752"/><text fill="#000000" font-family="Verdana" font-size="14" font-weight="bold" lengthAdjust="spacing" textLength="87.124" x="130.5" y="402.8125">Leaf Nodes</text></g><!--entity root--><g class="entity" data-entity="root" data-source-line="6" data-uid="ent0003" id="entity_root"><rect fill="#FFFFFF" height="88.0586" rx="2.5" ry="2.5" style="stroke:#000000;stroke-width:1;" width="127.9326" x="794.5" y="94.7373"/><text fill="#000000" font-family="Verdana" font-size="14" lengthAdjust="spacing" textLength="86.8574" x="804.5" y="118.8125">Keys: 30|60</text><text fill="#000000" font-family="Verdana" font-size="14" lengthAdjust="spacing" textLength="107.9326" x="804.5" y="135.8271">Data: D30|D60</text><text fill="#000000" font-family="Verdana" font-size="14" lengthAdjust="spacing" textLength="63.123" x="804.5" y="152.8418">Pointers:</text><text fill="#000000" font-family="Verdana" font-size="14" lengthAdjust="spacing" textLength="64.7432" x="804.5" y="169.8564">P1|P2|P3</text></g><!--entity internal1--><g class="entity" data-entity="internal1" data-source-line="10" data-uid="ent0005" id="entity_internal1"><rect fill="#FFFFFF" height="88.0586" rx="2.5" ry="2.5" style="stroke:#000000;stroke-width:1;" width="127.9326" x="957.5" y="258.7373"/><text fill="#000000" font-family="Verdana" font-size="14" lengthAdjust="spacing" textLength="86.8574" x="967.5" y="282.8125">Keys: 10|20</text><text fill="#000000" font-family="Verdana" font-size="14" lengthAdjust="spacing" textLength="107.9326" x="967.5" y="299.8271">Data: D10|D20</text><text fill="#000000" font-family="Verdana" font-size="14" lengthAdjust="spacing" textLength="63.123" x="967.5" y="316.8418">Pointers:</text><text fill="#000000" font-family="Verdana" font-size="14" lengthAdjust="spacing" textLength="64.7432" x="967.5" y="333.8564">P4|P5|P6</text></g><!--entity internal2--><g class="entity" data-entity="internal2" data-source-line="11" data-uid="ent0006" id="entity_internal2"><rect fill="#FFFFFF" height="88.0586" rx="2.5" ry="2.5" style="stroke:#000000;stroke-width:1;" width="127.9326" x="794.5" y="258.7373"/><text fill="#000000" font-family="Verdana" font-size="14" lengthAdjust="spacing" textLength="86.8574" x="804.5" y="282.8125">Keys: 40|50</text><text fill="#000000" font-family="Verdana" font-size="14" lengthAdjust="spacing" textLength="107.9326" x="804.5" y="299.8271">Data: D40|D50</text><text fill="#000000" font-family="Verdana" font-size="14" lengthAdjust="spacing" textLength="63.123" x="804.5" y="316.8418">Pointers:</text><text fill="#000000" font-family="Verdana" font-size="14" lengthAdjust="spacing" textLength="64.7432" x="804.5" y="333.8564">P7|P8|P9</text></g><!--entity internal3--><g class="entity" data-entity="internal3" data-source-line="12" data-uid="ent0007" id="entity_internal3"><rect fill="#FFFFFF" height="88.0586" rx="2.5" ry="2.5" style="stroke:#000000;stroke-width:1;" width="127.9326" x="631.5" y="258.7373"/><text fill="#000000" font-family="Verdana" font-size="14" lengthAdjust="spacing" textLength="86.8574" x="641.5" y="282.8125">Keys: 70|80</text><text fill="#000000" font-family="Verdana" font-size="14" lengthAdjust="spacing" textLength="107.9326" x="641.5" y="299.8271">Data: D70|D80</text><text fill="#000000" font-family="Verdana" font-size="14" lengthAdjust="spacing" textLength="63.123" x="641.5" y="316.8418">Pointers:</text><text fill="#000000" font-family="Verdana" font-size="14" lengthAdjust="spacing" textLength="91.4443" x="641.5" y="333.8564">P10|P11|P12</text></g><!--entity leaf1--><g class="entity" data-entity="leaf1" data-source-line="16" data-uid="ent0009" id="entity_leaf1"><rect fill="#FFFFFF" height="88.0586" rx="2.5" ry="2.5" style="stroke:#000000;stroke-width:1;" width="111.4443" x="1447" y="422.7373"/><text fill="#000000" font-family="Verdana" font-size="14" lengthAdjust="spacing" textLength="69.0566" x="1457" y="446.8125">Keys: 5|8</text><text fill="#000000" font-family="Verdana" font-size="14" lengthAdjust="spacing" textLength="90.1318" x="1457" y="463.8271">Data: D5|D8</text><text fill="#000000" font-family="Verdana" font-size="14" lengthAdjust="spacing" textLength="63.123" x="1457" y="480.8418">Pointers:</text><text fill="#000000" font-family="Verdana" font-size="14" lengthAdjust="spacing" textLength="91.4443" x="1457" y="497.8564">P13|P14|P15</text></g><!--entity leaf2--><g class="entity" data-entity="leaf2" data-source-line="17" data-uid="ent0010" id="entity_leaf2"><rect fill="#FFFFFF" height="88.0586" rx="2.5" ry="2.5" style="stroke:#000000;stroke-width:1;" width="127.9326" x="1283.5" y="422.7373"/><text fill="#000000" font-family="Verdana" font-size="14" lengthAdjust="spacing" textLength="86.8574" x="1293.5" y="446.8125">Keys: 15|18</text><text fill="#000000" font-family="Verdana" font-size="14" lengthAdjust="spacing" textLength="107.9326" x="1293.5" y="463.8271">Data: D15|D18</text><text fill="#000000" font-family="Verdana" font-size="14" lengthAdjust="spacing" textLength="63.123" x="1293.5" y="480.8418">Pointers:</text><text fill="#000000" font-family="Verdana" font-size="14" lengthAdjust="spacing" textLength="91.4443" x="1293.5" y="497.8564">P16|P17|P18</text></g><!--entity leaf3--><g class="entity" data-entity="leaf3" data-source-line="18" data-uid="ent0011" id="entity_leaf3"><rect fill="#FFFFFF" height="88.0586" rx="2.5" ry="2.5" style="stroke:#000000;stroke-width:1;" width="127.9326" x="1120.5" y="422.7373"/><text fill="#000000" font-family="Verdana" font-size="14" lengthAdjust="spacing" textLength="86.8574" x="1130.5" y="446.8125">Keys: 25|28</text><text fill="#000000" font-family="Verdana" font-size="14" lengthAdjust="spacing" textLength="107.9326" x="1130.5" y="463.8271">Data: D25|D28</text><text fill="#000000" font-family="Verdana" font-size="14" lengthAdjust="spacing" textLength="63.123" x="1130.5" y="480.8418">Pointers:</text><text fill="#000000" font-family="Verdana" font-size="14" lengthAdjust="spacing" textLength="91.4443" x="1130.5" y="497.8564">P19|P20|P21</text></g><!--entity leaf4--><g class="entity" data-entity="leaf4" data-source-line="19" data-uid="ent0012" id="entity_leaf4"><rect fill="#FFFFFF" height="88.0586" rx="2.5" ry="2.5" style="stroke:#000000;stroke-width:1;" width="127.9326" x="957.5" y="422.7373"/><text fill="#000000" font-family="Verdana" font-size="14" lengthAdjust="spacing" textLength="86.8574" x="967.5" y="446.8125">Keys: 35|38</text><text fill="#000000" font-family="Verdana" font-size="14" lengthAdjust="spacing" textLength="107.9326" x="967.5" y="463.8271">Data: D35|D38</text><text fill="#000000" font-family="Verdana" font-size="14" lengthAdjust="spacing" textLength="63.123" x="967.5" y="480.8418">Pointers:</text><text fill="#000000" font-family="Verdana" font-size="14" lengthAdjust="spacing" textLength="91.4443" x="967.5" y="497.8564">P22|P23|P24</text></g><!--entity leaf5--><g class="entity" data-entity="leaf5" data-source-line="20" data-uid="ent0013" id="entity_leaf5"><rect fill="#FFFFFF" height="88.0586" rx="2.5" ry="2.5" style="stroke:#000000;stroke-width:1;" width="127.9326" x="794.5" y="422.7373"/><text fill="#000000" font-family="Verdana" font-size="14" lengthAdjust="spacing" textLength="86.8574" x="804.5" y="446.8125">Keys: 45|48</text><text fill="#000000" font-family="Verdana" font-size="14" lengthAdjust="spacing" textLength="107.9326" x="804.5" y="463.8271">Data: D45|D48</text><text fill="#000000" font-family="Verdana" font-size="14" lengthAdjust="spacing" textLength="63.123" x="804.5" y="480.8418">Pointers:</text><text fill="#000000" font-family="Verdana" font-size="14" lengthAdjust="spacing" textLength="91.4443" x="804.5" y="497.8564">P25|P26|P27</text></g><!--entity leaf6--><g class="entity" data-entity="leaf6" data-source-line="21" data-uid="ent0014" id="entity_leaf6"><rect fill="#FFFFFF" height="88.0586" rx="2.5" ry="2.5" style="stroke:#000000;stroke-width:1;" width="127.9326" x="631.5" y="422.7373"/><text fill="#000000" font-family="Verdana" font-size="14" lengthAdjust="spacing" textLength="86.8574" x="641.5" y="446.8125">Keys: 55|58</text><text fill="#000000" font-family="Verdana" font-size="14" lengthAdjust="spacing" textLength="107.9326" x="641.5" y="463.8271">Data: D55|D58</text><text fill="#000000" font-family="Verdana" font-size="14" lengthAdjust="spacing" textLength="63.123" x="641.5" y="480.8418">Pointers:</text><text fill="#000000" font-family="Verdana" font-size="14" lengthAdjust="spacing" textLength="91.4443" x="641.5" y="497.8564">P28|P29|P30</text></g><!--entity leaf7--><g class="entity" data-entity="leaf7" data-source-line="22" data-uid="ent0015" id="entity_leaf7"><rect fill="#FFFFFF" height="88.0586" rx="2.5" ry="2.5" style="stroke:#000000;stroke-width:1;" width="127.9326" x="468.5" y="422.7373"/><text fill="#000000" font-family="Verdana" font-size="14" lengthAdjust="spacing" textLength="86.8574" x="478.5" y="446.8125">Keys: 65|68</text><text fill="#000000" font-family="Verdana" font-size="14" lengthAdjust="spacing" textLength="107.9326" x="478.5" y="463.8271">Data: D65|D68</text><text fill="#000000" font-family="Verdana" font-size="14" lengthAdjust="spacing" textLength="63.123" x="478.5" y="480.8418">Pointers:</text><text fill="#000000" font-family="Verdana" font-size="14" lengthAdjust="spacing" textLength="91.4443" x="478.5" y="497.8564">P31|P32|P33</text></g><!--entity leaf8--><g class="entity" data-entity="leaf8" data-source-line="23" data-uid="ent0016" id="entity_leaf8"><rect fill="#FFFFFF" height="88.0586" rx="2.5" ry="2.5" style="stroke:#000000;stroke-width:1;" width="127.9326" x="305.5" y="422.7373"/><text fill="#000000" font-family="Verdana" font-size="14" lengthAdjust="spacing" textLength="86.8574" x="315.5" y="446.8125">Keys: 75|78</text><text fill="#000000" font-family="Verdana" font-size="14" lengthAdjust="spacing" textLength="107.9326" x="315.5" y="463.8271">Data: D75|D78</text><text fill="#000000" font-family="Verdana" font-size="14" lengthAdjust="spacing" textLength="63.123" x="315.5" y="480.8418">Pointers:</text><text fill="#000000" font-family="Verdana" font-size="14" lengthAdjust="spacing" textLength="91.4443" x="315.5" y="497.8564">P34|P35|P36</text></g><!--entity leaf9--><g class="entity" data-entity="leaf9" data-source-line="24" data-uid="ent0017" id="entity_leaf9"><rect fill="#FFFFFF" height="88.0586" rx="2.5" ry="2.5" style="stroke:#000000;stroke-width:1;" width="127.9326" x="142.5" y="422.7373"/><text fill="#000000" font-family="Verdana" font-size="14" lengthAdjust="spacing" textLength="86.8574" x="152.5" y="446.8125">Keys: 85|88</text><text fill="#000000" font-family="Verdana" font-size="14" lengthAdjust="spacing" textLength="107.9326" x="152.5" y="463.8271">Data: D85|D88</text><text fill="#000000" font-family="Verdana" font-size="14" lengthAdjust="spacing" textLength="63.123" x="152.5" y="480.8418">Pointers:</text><text fill="#000000" font-family="Verdana" font-size="14" lengthAdjust="spacing" textLength="91.4443" x="152.5" y="497.8564">P37|P38|P39</text></g><g class="entity" data-entity="GMN30" data-source-line="45" data-uid="ent0031" id="entity_GMN30"><path d="M11,570.7373 L11,659.7339 A0,0 0 0 0 11,659.7339 L402.0176,659.7339 A0,0 0 0 0 402.0176,659.7339 L402.0176,580.7373 L392.0176,570.7373 L210.5,570.7373 L206.5,510.8973 L202.5,570.7373 L11,570.7373 A0,0 0 0 0 11,570.7373" fill="#FFFFFF" style="stroke:#000000;stroke-width:1;"/><path d="M392.0176,570.7373 L392.0176,580.7373 L402.0176,580.7373 L392.0176,570.7373" fill="#FFFFFF" style="stroke:#000000;stroke-width:1;"/><text fill="#000000" font-family="Verdana" font-size="13" lengthAdjust="spacing" textLength="329.418" x="17" y="588.8071">- B-Tree stores data in ALL nodes (internal + leaf)</text><text fill="#000000" font-family="Verdana" font-size="13" lengthAdjust="spacing" textLength="318.062" x="17" y="604.6064">- Each node can have multiple keys and children</text><text fill="#000000" font-family="Verdana" font-size="13" lengthAdjust="spacing" textLength="241.3188" x="17" y="620.4058">- All leaf nodes are at the same level</text><text fill="#000000" font-family="Verdana" font-size="13" lengthAdjust="spacing" textLength="310.7559" x="17" y="636.2051">- Supports range queries and sequential access</text><text fill="#000000" font-family="Verdana" font-size="13" lengthAdjust="spacing" textLength="370.0176" x="17" y="652.0044">- Different from B+Tree which only stores data in leaves</text></g><!--link root to internal1--><g class="link" data-entity-1="root" data-entity-2="internal1" data-source-line="28" data-uid="lnk18" id="link_root_internal1"><path d="M907.23,183.1273 C918.33,193.3273 929.95,204.2773 940.5,214.7373 C954.57,228.6873 965.4049,240.0035 978.5449,254.2035" fill="none" id="root-to-internal1" style="stroke:#000000;stroke-width:1;"/><polygon fill="#000000" points="982.62,258.6073,979.4433,249.2848,979.2241,254.9375,973.5715,254.7183,982.62,258.6073" style="stroke:#000000;stroke-width:1;"/></g><!--link root to internal2--><g class="link" data-entity-1="root" data-entity-2="internal2" data-source-line="29" data-uid="lnk19" id="link_root_internal2"><path d="M858.5,183.1473 C858.5,206.4873 858.5,229.1773 858.5,252.4873" fill="none" id="root-to-internal2" style="stroke:#000000;stroke-width:1;"/><polygon fill="#000000" points="858.5,258.4873,862.5,249.4873,858.5,253.4873,854.5,249.4873,858.5,258.4873" style="stroke:#000000;stroke-width:1;"/></g><!--link root to internal3--><g class="link" data-entity-1="root" data-entity-2="internal3" data-source-line="30" data-uid="lnk20" id="link_root_internal3"><path d="M810.88,182.8273 C799.78,193.1373 788.12,204.2173 777.5,214.7373 C763.35,228.7673 752.3832,240.1297 739.0732,254.3297" fill="none" id="root-to-internal3" style="stroke:#000000;stroke-width:1;"/><polygon fill="#000000" points="734.97,258.7073,744.0433,254.8764,738.3894,255.0593,738.2064,249.4054,734.97,258.7073" style="stroke:#000000;stroke-width:1;"/></g><!--link internal1 to leaf1--><g class="link" data-entity-1="internal1" data-entity-2="leaf1" data-source-line="32" data-uid="lnk21" id="link_internal1_leaf1"><path d="M1085.77,310.1973 C1185.51,321.1073 1372.08,345.3073 1429.5,378.7373 C1447.73,389.3473 1459.8686,401.5059 1472.0186,417.6259" fill="none" id="internal1-to-leaf1" style="stroke:#000000;stroke-width:1;"/><polygon fill="#000000" points="1475.63,422.4173,1473.4072,412.8226,1472.6205,418.4244,1467.0186,417.6378,1475.63,422.4173" style="stroke:#000000;stroke-width:1;"/></g><!--link internal1 to leaf2--><g class="link" data-entity-1="internal1" data-entity-2="leaf2" data-source-line="33" data-uid="lnk22" id="link_internal1_leaf2"><path d="M1085.72,313.8773 C1137.52,324.2073 1210.69,343.8173 1266.5,378.7373 C1284.87,390.2273 1297.8779,402.3867 1311.4479,418.0967" fill="none" id="internal1-to-leaf2" style="stroke:#000000;stroke-width:1;"/><polygon fill="#000000" points="1315.37,422.6373,1312.5139,413.2117,1312.1016,418.8535,1306.4598,418.4411,1315.37,422.6373" style="stroke:#000000;stroke-width:1;"/></g><!--link internal1 to leaf3--><g class="link" data-entity-1="internal1" data-entity-2="leaf3" data-source-line="34" data-uid="lnk23" id="link_internal1_leaf3"><path d="M1070.23,347.1273 C1081.33,357.3273 1092.95,368.2773 1103.5,378.7373 C1117.57,392.6873 1128.4049,404.0035 1141.5449,418.2035" fill="none" id="internal1-to-leaf3" style="stroke:#000000;stroke-width:1;"/><polygon fill="#000000" points="1145.62,422.6073,1142.4433,413.2848,1142.2241,418.9375,1136.5715,418.7183,1145.62,422.6073" style="stroke:#000000;stroke-width:1;"/></g><!--link internal2 to leaf4--><g class="link" data-entity-1="internal2" data-entity-2="leaf4" data-source-line="36" data-uid="lnk24" id="link_internal2_leaf4"><path d="M907.23,347.1273 C918.33,357.3273 929.95,368.2773 940.5,378.7373 C954.57,392.6873 965.4049,404.0035 978.5449,418.2035" fill="none" id="internal2-to-leaf4" style="stroke:#000000;stroke-width:1;"/><polygon fill="#000000" points="982.62,422.6073,979.4433,413.2848,979.2241,418.9375,973.5715,418.7183,982.62,422.6073" style="stroke:#000000;stroke-width:1;"/></g><!--link internal2 to leaf5--><g class="link" data-entity-1="internal2" data-entity-2="leaf5" data-source-line="37" data-uid="lnk25" id="link_internal2_leaf5"><path d="M858.5,347.1473 C858.5,370.4873 858.5,393.1773 858.5,416.4873" fill="none" id="internal2-to-leaf5" style="stroke:#000000;stroke-width:1;"/><polygon fill="#000000" points="858.5,422.4873,862.5,413.4873,858.5,417.4873,854.5,413.4873,858.5,422.4873" style="stroke:#000000;stroke-width:1;"/></g><!--link internal2 to leaf6--><g class="link" data-entity-1="internal2" data-entity-2="leaf6" data-source-line="38" data-uid="lnk26" id="link_internal2_leaf6"><path d="M810.88,346.8273 C799.78,357.1373 788.12,368.2173 777.5,378.7373 C763.35,392.7673 752.3832,404.1297 739.0732,418.3297" fill="none" id="internal2-to-leaf6" style="stroke:#000000;stroke-width:1;"/><polygon fill="#000000" points="734.97,422.7073,744.0433,418.8764,738.3894,419.0593,738.2064,413.4054,734.97,422.7073" style="stroke:#000000;stroke-width:1;"/></g><!--link internal3 to leaf7--><g class="link" data-entity-1="internal3" data-entity-2="leaf7" data-source-line="40" data-uid="lnk27" id="link_internal3_leaf7"><path d="M647.88,346.8273 C636.78,357.1373 625.12,368.2173 614.5,378.7373 C600.35,392.7673 589.3832,404.1297 576.0732,418.3297" fill="none" id="internal3-to-leaf7" style="stroke:#000000;stroke-width:1;"/><polygon fill="#000000" points="571.97,422.7073,581.0433,418.8764,575.3894,419.0593,575.2064,413.4054,571.97,422.7073" style="stroke:#000000;stroke-width:1;"/></g><!--link internal3 to leaf8--><g class="link" data-entity-1="internal3" data-entity-2="leaf8" data-source-line="41" data-uid="lnk28" id="link_internal3_leaf8"><path d="M631.33,314.0673 C579.79,324.4973 507.1,344.1473 451.5,378.7373 C433,390.2473 419.8347,402.4451 406.0747,418.1451" fill="none" id="internal3-to-leaf8" style="stroke:#000000;stroke-width:1;"/><polygon fill="#000000" points="402.12,422.6573,411.0602,418.5254,405.4156,418.8971,405.0439,413.2525,402.12,422.6573" style="stroke:#000000;stroke-width:1;"/></g><!--link internal3 to leaf9--><g class="link" data-entity-1="internal3" data-entity-2="leaf9" data-source-line="42" data-uid="lnk29" id="link_internal3_leaf9"><path d="M631.49,303.4673 C547.72,305.7173 398.61,318.7773 288.5,378.7373 C269,389.3573 255.3703,401.738 241.5803,417.858" fill="none" id="internal3-to-leaf9" style="stroke:#000000;stroke-width:1;"/><polygon fill="#000000" points="237.68,422.4173,246.57,418.1785,240.9303,418.6179,240.4909,412.9781,237.68,422.4173" style="stroke:#000000;stroke-width:1;"/></g><!--SRC=[VPN1Rfmm48RlVehfNfeeMWbi36mEbHAvXwXHYv8UUt5XDel2cgtn9etgldi7ai0kylR6ZErl_8z_cmzkWrk4NQDhmvYhNODmlVnk4U76LFWRxftTbsvl4Sw-sGejY7F6Thfyr0y8YxksTV2rhN01VnY0nT9fyq2CnHTywIv1H3wDVXYbdRu4HP7gmwAjZKFRNT9dx0lk2x40tO4b6ljxWB_ffndT32Mw4pNYoFEf1aMApsealf2-I8SQzHio3g6IoCi9HP6ICrJcYzmNgoCK3w6ooESJYYALpvL7leX9VioFQEAe0xUer_zLBtq-Lf5KP5P349_antAeqH0jA3oMFfuu5AbuJag9GkhZV2G5TNFf-KIYIF4vQKL7JjfvF994q3lIYub4aH8p4YVdS5B8av6K18zL-cGYKQIIEOdymKaXpqQI37PRUddGRoB9EOdimKcXY4PI6YAbqgSJYIALpaY2l27wko56KXPqclJPHA98PNCIEO3wLuXq9EKXKavccaXvRwSvYHmWIA5OZQHLxzUFC3mPtVjZmVgh3CkgVJRBJmTtBfZcuRHWR5mu3huwE9pd9_8787uqa9p8onFvT0A9eu7iH3u_aLynPbg7yBDrhjtIKIpV7ztEjHOxgEW8g15mTNiBfh_zSFPEWei1SJwi-gpBpJ01IcrWevyGjll6rJiwr4SwKz2cWd9JDvL5CwouQffX_HjMqyEk7T1V03fDFu86dx0P9jxlTxlMEdgLoIC8l_PeQtm5TaYHSJLjHfSbTjsmGDNhDL8P1slRRk7wOX3qlAbfYwrfNkRQQ1TFs34aODyCzWy0]--></g></svg>