<svg xmlns="http://www.w3.org/2000/svg" xmlns:xlink="http://www.w3.org/1999/xlink" contentStyleType="text/css" data-diagram-type="MINDMAP" height="608px" preserveAspectRatio="none" style="width:425px;height:608px;background:#FFFFFF;" version="1.1" viewBox="0 0 425 608" width="425px" zoomAndPan="magnify"><defs/><g><rect fill="#000000" height="38.6211" rx="12.5" ry="12.5" style="stroke:#181818;stroke-width:1.5;" width="39.4619" x="10" y="283.7949"/><text fill="#FFFFFF" font-family="sans-serif" font-size="14" lengthAdjust="spacing" textLength="15.5723" x="20" y="308.9023">30</text><rect fill="#FF0000" height="38.6211" rx="12.5" ry="12.5" style="stroke:#181818;stroke-width:1.5;" width="39.4619" x="99.4619" y="107.9316"/><text fill="#FFFFFF" font-family="sans-serif" font-size="14" lengthAdjust="spacing" textLength="15.5723" x="109.4619" y="133.0391">20</text><rect fill="#000000" height="38.6211" rx="12.5" ry="12.5" style="stroke:#181818;stroke-width:1.5;" width="39.4619" x="188.9238" y="49.3105"/><text fill="#FFFFFF" font-family="sans-serif" font-size="14" lengthAdjust="spacing" textLength="15.5723" x="198.9238" y="74.418">10</text><rect fill="#000000" height="38.6211" rx="12.5" ry="12.5" style="stroke:#181818;stroke-width:1.5;" width="45.6758" x="278.3857" y="20"/><text fill="#FFFFFF" font-family="sans-serif" font-size="14" lengthAdjust="spacing" textLength="21.7861" x="288.3857" y="45.1074">NIL</text><path d="M228.3857,68.6211 L238.3857,68.6211 C253.3857,68.6211 253.3857,39.3105 268.3857,39.3105 L278.3857,39.3105" fill="none" style="stroke:#181818;stroke-width:1;"/><rect fill="#000000" height="38.6211" rx="12.5" ry="12.5" style="stroke:#181818;stroke-width:1.5;" width="45.6758" x="278.3857" y="78.6211"/><text fill="#FFFFFF" font-family="sans-serif" font-size="14" lengthAdjust="spacing" textLength="21.7861" x="288.3857" y="103.7285">NIL</text><path d="M228.3857,68.6211 L238.3857,68.6211 C253.3857,68.6211 253.3857,97.9316 268.3857,97.9316 L278.3857,97.9316" fill="none" style="stroke:#181818;stroke-width:1;"/><path d="M138.9238,127.2422 L148.9238,127.2422 C163.9238,127.2422 163.9238,68.6211 178.9238,68.6211 L188.9238,68.6211" fill="none" style="stroke:#181818;stroke-width:1;"/><rect fill="#000000" height="38.6211" rx="12.5" ry="12.5" style="stroke:#181818;stroke-width:1.5;" width="39.4619" x="188.9238" y="166.5527"/><text fill="#FFFFFF" font-family="sans-serif" font-size="14" lengthAdjust="spacing" textLength="15.5723" x="198.9238" y="191.6602">25</text><rect fill="#000000" height="38.6211" rx="12.5" ry="12.5" style="stroke:#181818;stroke-width:1.5;" width="45.6758" x="278.3857" y="137.2422"/><text fill="#FFFFFF" font-family="sans-serif" font-size="14" lengthAdjust="spacing" textLength="21.7861" x="288.3857" y="162.3496">NIL</text><path d="M228.3857,185.8633 L238.3857,185.8633 C253.3857,185.8633 253.3857,156.5527 268.3857,156.5527 L278.3857,156.5527" fill="none" style="stroke:#181818;stroke-width:1;"/><rect fill="#000000" height="38.6211" rx="12.5" ry="12.5" style="stroke:#181818;stroke-width:1.5;" width="45.6758" x="278.3857" y="195.8633"/><text fill="#FFFFFF" font-family="sans-serif" font-size="14" lengthAdjust="spacing" textLength="21.7861" x="288.3857" y="220.9707">NIL</text><path d="M228.3857,185.8633 L238.3857,185.8633 C253.3857,185.8633 253.3857,215.1738 268.3857,215.1738 L278.3857,215.1738" fill="none" style="stroke:#181818;stroke-width:1;"/><path d="M138.9238,127.2422 L148.9238,127.2422 C163.9238,127.2422 163.9238,185.8633 178.9238,185.8633 L188.9238,185.8633" fill="none" style="stroke:#181818;stroke-width:1;"/><path d="M49.4619,303.1055 L59.4619,303.1055 C74.4619,303.1055 74.4619,127.2422 89.4619,127.2422 L99.4619,127.2422" fill="none" style="stroke:#181818;stroke-width:1;"/><rect fill="#FF0000" height="38.6211" rx="12.5" ry="12.5" style="stroke:#181818;stroke-width:1.5;" width="39.4619" x="99.4619" y="401.0371"/><text fill="#FFFFFF" font-family="sans-serif" font-size="14" lengthAdjust="spacing" textLength="15.5723" x="109.4619" y="426.1445">50</text><rect fill="#000000" height="38.6211" rx="12.5" ry="12.5" style="stroke:#181818;stroke-width:1.5;" width="39.4619" x="188.9238" y="283.7949"/><text fill="#FFFFFF" font-family="sans-serif" font-size="14" lengthAdjust="spacing" textLength="15.5723" x="198.9238" y="308.9023">40</text><rect fill="#000000" height="38.6211" rx="12.5" ry="12.5" style="stroke:#181818;stroke-width:1.5;" width="45.6758" x="278.3857" y="254.4844"/><text fill="#FFFFFF" font-family="sans-serif" font-size="14" lengthAdjust="spacing" textLength="21.7861" x="288.3857" y="279.5918">NIL</text><path d="M228.3857,303.1055 L238.3857,303.1055 C253.3857,303.1055 253.3857,273.7949 268.3857,273.7949 L278.3857,273.7949" fill="none" style="stroke:#181818;stroke-width:1;"/><rect fill="#000000" height="38.6211" rx="12.5" ry="12.5" style="stroke:#181818;stroke-width:1.5;" width="45.6758" x="278.3857" y="313.1055"/><text fill="#FFFFFF" font-family="sans-serif" font-size="14" lengthAdjust="spacing" textLength="21.7861" x="288.3857" y="338.2129">NIL</text><path d="M228.3857,303.1055 L238.3857,303.1055 C253.3857,303.1055 253.3857,332.416 268.3857,332.416 L278.3857,332.416" fill="none" style="stroke:#181818;stroke-width:1;"/><path d="M138.9238,420.3477 L148.9238,420.3477 C163.9238,420.3477 163.9238,303.1055 178.9238,303.1055 L188.9238,303.1055" fill="none" style="stroke:#181818;stroke-width:1;"/><rect fill="#000000" height="38.6211" rx="12.5" ry="12.5" style="stroke:#181818;stroke-width:1.5;" width="39.4619" x="188.9238" y="459.6582"/><text fill="#FFFFFF" font-family="sans-serif" font-size="14" lengthAdjust="spacing" textLength="15.5723" x="198.9238" y="484.7656">70</text><rect fill="#FF0000" height="38.6211" rx="12.5" ry="12.5" style="stroke:#181818;stroke-width:1.5;" width="39.4619" x="278.3857" y="401.0371"/><text fill="#FFFFFF" font-family="sans-serif" font-size="14" lengthAdjust="spacing" textLength="15.5723" x="288.3857" y="426.1445">60</text><rect fill="#000000" height="38.6211" rx="12.5" ry="12.5" style="stroke:#181818;stroke-width:1.5;" width="45.6758" x="367.8477" y="371.7266"/><text fill="#FFFFFF" font-family="sans-serif" font-size="14" lengthAdjust="spacing" textLength="21.7861" x="377.8477" y="396.834">NIL</text><path d="M317.8477,420.3477 L327.8477,420.3477 C342.8477,420.3477 342.8477,391.0371 357.8477,391.0371 L367.8477,391.0371" fill="none" style="stroke:#181818;stroke-width:1;"/><rect fill="#000000" height="38.6211" rx="12.5" ry="12.5" style="stroke:#181818;stroke-width:1.5;" width="45.6758" x="367.8477" y="430.3477"/><text fill="#FFFFFF" font-family="sans-serif" font-size="14" lengthAdjust="spacing" textLength="21.7861" x="377.8477" y="455.4551">NIL</text><path d="M317.8477,420.3477 L327.8477,420.3477 C342.8477,420.3477 342.8477,449.6582 357.8477,449.6582 L367.8477,449.6582" fill="none" style="stroke:#181818;stroke-width:1;"/><path d="M228.3857,478.9688 L238.3857,478.9688 C253.3857,478.9688 253.3857,420.3477 268.3857,420.3477 L278.3857,420.3477" fill="none" style="stroke:#181818;stroke-width:1;"/><rect fill="#FF0000" height="38.6211" rx="12.5" ry="12.5" style="stroke:#181818;stroke-width:1.5;" width="39.4619" x="278.3857" y="518.2793"/><text fill="#FFFFFF" font-family="sans-serif" font-size="14" lengthAdjust="spacing" textLength="15.5723" x="288.3857" y="543.3867">80</text><rect fill="#000000" height="38.6211" rx="12.5" ry="12.5" style="stroke:#181818;stroke-width:1.5;" width="45.6758" x="367.8477" y="488.9688"/><text fill="#FFFFFF" font-family="sans-serif" font-size="14" lengthAdjust="spacing" textLength="21.7861" x="377.8477" y="514.0762">NIL</text><path d="M317.8477,537.5898 L327.8477,537.5898 C342.8477,537.5898 342.8477,508.2793 357.8477,508.2793 L367.8477,508.2793" fill="none" style="stroke:#181818;stroke-width:1;"/><rect fill="#000000" height="38.6211" rx="12.5" ry="12.5" style="stroke:#181818;stroke-width:1.5;" width="45.6758" x="367.8477" y="547.5898"/><text fill="#FFFFFF" font-family="sans-serif" font-size="14" lengthAdjust="spacing" textLength="21.7861" x="377.8477" y="572.6973">NIL</text><path d="M317.8477,537.5898 L327.8477,537.5898 C342.8477,537.5898 342.8477,566.9004 357.8477,566.9004 L367.8477,566.9004" fill="none" style="stroke:#181818;stroke-width:1;"/><path d="M228.3857,478.9688 L238.3857,478.9688 C253.3857,478.9688 253.3857,537.5898 268.3857,537.5898 L278.3857,537.5898" fill="none" style="stroke:#181818;stroke-width:1;"/><path d="M138.9238,420.3477 L148.9238,420.3477 C163.9238,420.3477 163.9238,478.9688 178.9238,478.9688 L188.9238,478.9688" fill="none" style="stroke:#181818;stroke-width:1;"/><path d="M49.4619,303.1055 L59.4619,303.1055 C74.4619,303.1055 74.4619,420.3477 89.4619,420.3477 L99.4619,420.3477" fill="none" style="stroke:#181818;stroke-width:1;"/><!--SRC=[dLBTQy8m47-_l-8UjQ3JJfsM8cATO6VTc1_lqMGrh4qaJHnE_DyNgsN876C-17A_hpkIwsMQA9roGLEo0J_JkuHruLmFE8aLIN4FY49IbbyG-r9HfWAPI8NBXApUStGeXJvX7skkcSKEzbGLeuNDAcCbZQ0dcMKAKPxoYwpeS803-7Vd0S71-nhwVavsk-0uw1vhcvbN3jOlQOjCHkC_8NIRDzYmUTcxSLllXn-sraNkrPohsUt_-w37x9-Vzm1U4YBqF1hZbgcCIu7rgbjpczL6QKeqXaQWsyPwnwjrFFjYmNI6HxeCfMWqmqmQjM98UQOLNnfj_MK8oPRWgn6Qfyp3vmqJuU2f0F1HRBcI8cL2GxY8lWMjHgNFDKwPifFW8e81UoCcqTQnafIBsCFvR5XfmvY8s93OPd-k8R3hezNEms3o1G00]--></g></svg>