<svg xmlns="http://www.w3.org/2000/svg" xmlns:xlink="http://www.w3.org/1999/xlink" contentStyleType="text/css" data-diagram-type="DESCRIPTION" height="363px" preserveAspectRatio="none" style="width:586px;height:363px;background:#FEFEFE;" version="1.1" viewBox="0 0 586 363" width="586px" zoomAndPan="magnify"><title>Master-Slave Replication</title><defs/><g><rect fill="#FEFEFE" height="363" style="stroke:none;stroke-width:1;" width="586" x="0" y="0"/><g class="title" data-source-line="6"><text fill="#000000" font-family="Helvetica" font-size="22" font-weight="bold" lengthAdjust="spacing" textLength="260.4229" x="158.728" y="38.7402">Master-Slave Replication</text></g><!--entity app--><g class="entity" data-entity="app" data-source-line="8" data-uid="ent0002" id="entity_app"><rect fill="#E3F2FD" height="38.6211" rx="2.5" ry="2.5" style="stroke:#000000;stroke-width:1;" width="88.4893" x="331.5" y="62.2617"/><text fill="#000000" font-family="Helvetica" font-size="14" lengthAdjust="spacing" textLength="68.4893" x="341.5" y="87.3691">Application</text></g><!--entity master--><g class="entity" data-entity="master" data-source-line="10" data-uid="ent0003" id="entity_master"><path d="M114.5,210.2617 C114.5,200.2617 165.7344,200.2617 165.7344,200.2617 C165.7344,200.2617 216.9688,200.2617 216.9688,210.2617 L216.9688,237.8828 C216.9688,247.8828 165.7344,247.8828 165.7344,247.8828 C165.7344,247.8828 114.5,247.8828 114.5,237.8828 L114.5,210.2617" fill="#FFCDD2" style="stroke:#000000;stroke-width:1;"/><path d="M114.5,210.2617 C114.5,220.2617 165.7344,220.2617 165.7344,220.2617 C165.7344,220.2617 216.9688,220.2617 216.9688,210.2617" fill="none" style="stroke:#000000;stroke-width:1;"/><text fill="#000000" font-family="Helvetica" font-size="14" lengthAdjust="spacing" textLength="82.4688" x="124.5" y="239.3691">Redis Master</text></g><!--entity slave1--><g class="entity" data-entity="slave1" data-source-line="11" data-uid="ent0004" id="entity_slave1"><path d="M322.5,210.2617 C322.5,200.2617 375.6895,200.2617 375.6895,200.2617 C375.6895,200.2617 428.8789,200.2617 428.8789,210.2617 L428.8789,237.8828 C428.8789,247.8828 375.6895,247.8828 375.6895,247.8828 C375.6895,247.8828 322.5,247.8828 322.5,237.8828 L322.5,210.2617" fill="#C8E6C9" style="stroke:#000000;stroke-width:1;"/><path d="M322.5,210.2617 C322.5,220.2617 375.6895,220.2617 375.6895,220.2617 C375.6895,220.2617 428.8789,220.2617 428.8789,210.2617" fill="none" style="stroke:#000000;stroke-width:1;"/><text fill="#000000" font-family="Helvetica" font-size="14" lengthAdjust="spacing" textLength="86.3789" x="332.5" y="239.3691">Redis Slave 1</text></g><!--entity slave2--><g class="entity" data-entity="slave2" data-source-line="12" data-uid="ent0005" id="entity_slave2"><path d="M463.5,210.2617 C463.5,200.2617 516.6895,200.2617 516.6895,200.2617 C516.6895,200.2617 569.8789,200.2617 569.8789,210.2617 L569.8789,237.8828 C569.8789,247.8828 516.6895,247.8828 516.6895,247.8828 C516.6895,247.8828 463.5,247.8828 463.5,237.8828 L463.5,210.2617" fill="#C8E6C9" style="stroke:#000000;stroke-width:1;"/><path d="M463.5,210.2617 C463.5,220.2617 516.6895,220.2617 516.6895,220.2617 C516.6895,220.2617 569.8789,220.2617 569.8789,210.2617" fill="none" style="stroke:#000000;stroke-width:1;"/><text fill="#000000" font-family="Helvetica" font-size="14" lengthAdjust="spacing" textLength="86.3789" x="473.5" y="239.3691">Redis Slave 2</text></g><g class="entity" data-entity="GMN11" data-source-line="22" data-uid="ent0012" id="entity_GMN11"><path d="M11,309.2617 L11,356.5039 A0,0 0 0 0 11,356.5039 L319.875,356.5039 A0,0 0 0 0 319.875,356.5039 L319.875,319.2617 L309.875,309.2617 L169.5,309.2617 L165.5,248.3717 L161.5,309.2617 L11,309.2617 A0,0 0 0 0 11,309.2617" fill="#FFFFFF" style="stroke:#000000;stroke-width:1;"/><path d="M309.875,309.2617 L309.875,319.2617 L319.875,319.2617 L309.875,309.2617" fill="#FFFFFF" style="stroke:#000000;stroke-width:1;"/><text fill="#000000" font-family="Helvetica" font-size="14" font-weight="bold" lengthAdjust="spacing" textLength="50.5654" x="17" y="329.3691">Solved:</text><text fill="#000000" font-family="Helvetica" font-size="14" lengthAdjust="spacing" textLength="184.4336" x="71.4551" y="329.3691">Read scalability, Data backup</text><text fill="#000000" font-family="Helvetica" font-size="14" font-weight="bold" lengthAdjust="spacing" textLength="77.7793" x="17" y="347.9902">Not Solved:</text><text fill="#000000" font-family="Helvetica" font-size="14" lengthAdjust="spacing" textLength="206.2061" x="98.6689" y="347.9902">No auto failover, Write bottleneck</text></g><!--link app to master--><g class="link" data-entity-1="app" data-entity-2="master" data-source-line="14" data-uid="lnk6" id="link_app_master"><path d="M331.46,85.2417 C294.18,89.5117 241.4,100.9217 206.5,131.2617 C186.04,149.0417 176.7983,173.2042 171.5283,194.0842" fill="none" id="app-to-master" style="stroke:#000000;stroke-width:1;"/><polygon fill="#000000" points="170.06,199.9017,176.1409,192.1543,171.2836,195.0538,168.3841,190.1965,170.06,199.9017" style="stroke:#000000;stroke-width:1;"/><text fill="#000000" font-family="Helvetica" font-size="14" lengthAdjust="spacing" textLength="32.6621" x="207.5" y="156.8691">Write</text></g><!--link app to slave1--><g class="link" data-entity-1="app" data-entity-2="slave1" data-source-line="15" data-uid="lnk7" id="link_app_slave1"><path d="M375.5,101.4217 C375.5,126.8017 375.5,166.2017 375.5,193.8417" fill="none" id="app-to-slave1" style="stroke:#000000;stroke-width:1;"/><polygon fill="#000000" points="375.5,199.8417,379.5,190.8417,375.5,194.8417,371.5,190.8417,375.5,199.8417" style="stroke:#000000;stroke-width:1;"/><text fill="#000000" font-family="Helvetica" font-size="14" lengthAdjust="spacing" textLength="33.4688" x="376.5" y="156.8691">Read</text></g><!--link app to slave2--><g class="link" data-entity-1="app" data-entity-2="slave2" data-source-line="16" data-uid="lnk8" id="link_app_slave2"><path d="M394.22,101.4217 C419.69,126.8017 461.0097,167.9667 488.7497,195.6067" fill="none" id="app-to-slave2" style="stroke:#000000;stroke-width:1;"/><polygon fill="#000000" points="493,199.8417,489.4479,190.6557,489.4581,196.3126,483.8012,196.3228,493,199.8417" style="stroke:#000000;stroke-width:1;"/><text fill="#000000" font-family="Helvetica" font-size="14" lengthAdjust="spacing" textLength="33.4688" x="463.5" y="156.8691">Read</text></g><!--link master to slave1--><g class="link" data-entity-1="master" data-entity-2="slave1" data-source-line="18" data-uid="lnk9" id="link_master_slave1"><path d="M216.6,224.2617 C248.65,224.2617 283.9,224.2617 316.33,224.2617" fill="none" id="master-to-slave1" style="stroke:#000000;stroke-width:1;"/><polygon fill="#000000" points="322.33,224.2617,313.33,220.2617,317.33,224.2617,313.33,228.2617,322.33,224.2617" style="stroke:#000000;stroke-width:1;"/><text fill="#000000" font-family="Helvetica" font-size="14" lengthAdjust="spacing" textLength="38.124" x="250.5688" y="198.3691">Async</text><text fill="#000000" font-family="Helvetica" font-size="14" lengthAdjust="spacing" textLength="69.2617" x="235" y="216.9902">Replication</text></g><!--link master to slave2--><g class="link" data-entity-1="master" data-entity-2="slave2" data-source-line="19" data-uid="lnk10" id="link_master_slave2"><path d="M182.15,199.9517 C197.08,180.4917 220.92,154.6417 249,143.2617 C331.29,109.9017 427.6568,162.275 478.7568,196.765" fill="none" id="master-to-slave2" style="stroke:#000000;stroke-width:1;"/><polygon fill="#000000" points="483.73,200.1217,478.508,191.7712,479.5857,197.3245,474.0324,198.4022,483.73,200.1217" style="stroke:#000000;stroke-width:1;"/><text fill="#000000" font-family="Helvetica" font-size="14" lengthAdjust="spacing" textLength="38.124" x="265.5688" y="147.3691">Async</text><text fill="#000000" font-family="Helvetica" font-size="14" lengthAdjust="spacing" textLength="69.2617" x="250" y="165.9902">Replication</text></g><!--SRC=[TPB1Ri8m38RlUGglNAackcdQ4492BTKkum27NNPn6mCHQL8bBXDx-gMbR9rWoiMAF_l_xUIEzrGHr1gL4VwWJ8qEAoYmFEoSROnChROEHlcoFGD2qXORpRarlCBG8NebVIHM9KQtgOtw8fWy2i6ADS4RUYONRpGU2TPKwr39oXeX79MCPXUOQ57_t4U07h2kORHyo9Cy4q8YOu4-O6kIolSTEwxgmk0wJxCikIBFefCEzMqyWL7wl7nAN_v1aryq-K55woQMzjF4yulY5DwTOlgJwXMcOKgKrvdaaX5zZzYftPw7XGj_CkM76Mxf9flSPeMnJ51OPbk1tVPU1S2ic6ziU3KvdTqNyyu5-18r5aehFeqX2zle_a9Jd_6LPHYMh2nWmnQsgBGzaXkVv-_4D1ag3uACXDQ0-0O0]--></g></svg>