<svg xmlns="http://www.w3.org/2000/svg" xmlns:xlink="http://www.w3.org/1999/xlink" contentStyleType="text/css" data-diagram-type="DESCRIPTION" height="373px" preserveAspectRatio="none" style="width:715px;height:373px;background:#FEFEFE;" version="1.1" viewBox="0 0 715 373" width="715px" zoomAndPan="magnify"><title>Sentinel Mode - High Availability</title><defs/><g><rect fill="#FEFEFE" height="373" style="stroke:none;stroke-width:1;" width="715" x="0" y="0"/><g class="title" data-source-line="6"><text fill="#000000" font-family="Helvetica" font-size="22" font-weight="bold" lengthAdjust="spacing" textLength="339.8184" x="183.499" y="38.7402">Sentinel Mode - High Availability</text></g><!--cluster sentinel_group--><g class="cluster" data-entity="sentinel_group" data-source-line="8" data-uid="ent0002" id="cluster_sentinel_group"><rect fill="#FFF9C4" height="129" rx="2.5" ry="2.5" style="stroke:#000000;stroke-width:1;" width="453" x="12" y="106.2754"/><text fill="#000000" font-family="Helvetica" font-size="14" font-weight="bold" lengthAdjust="spacing" textLength="106.5791" x="185.2104" y="123.3828">Sentinel Cluster</text></g><!--entity s1--><g class="entity" data-entity="s1" data-source-line="9" data-uid="ent0003" id="entity_s1"><rect fill="#FFFFFF" height="38.6211" rx="2.5" ry="2.5" style="stroke:#000000;stroke-width:1;" width="82.2686" x="153" y="172.2754"/><text fill="#000000" font-family="Helvetica" font-size="14" lengthAdjust="spacing" textLength="62.2686" x="163" y="197.3828">Sentinel 1</text></g><!--entity s2--><g class="entity" data-entity="s2" data-source-line="10" data-uid="ent0004" id="entity_s2"><rect fill="#FFFFFF" height="38.6211" rx="2.5" ry="2.5" style="stroke:#000000;stroke-width:1;" width="82.2686" x="340" y="172.2754"/><text fill="#000000" font-family="Helvetica" font-size="14" lengthAdjust="spacing" textLength="62.2686" x="350" y="197.3828">Sentinel 2</text></g><!--entity s3--><g class="entity" data-entity="s3" data-source-line="11" data-uid="ent0005" id="entity_s3"><rect fill="#FFFFFF" height="38.6211" rx="2.5" ry="2.5" style="stroke:#000000;stroke-width:1;" width="82.2686" x="36" y="172.2754"/><text fill="#000000" font-family="Helvetica" font-size="14" lengthAdjust="spacing" textLength="62.2686" x="46" y="197.3828">Sentinel 3</text></g><!--entity app--><g class="entity" data-entity="app" data-source-line="14" data-uid="ent0006" id="entity_app"><rect fill="#E3F2FD" height="38.6211" rx="2.5" ry="2.5" style="stroke:#000000;stroke-width:1;" width="88.4893" x="522" y="172.2754"/><text fill="#000000" font-family="Helvetica" font-size="14" lengthAdjust="spacing" textLength="68.4893" x="532" y="197.3828">Application</text></g><!--entity master--><g class="entity" data-entity="master" data-source-line="16" data-uid="ent0007" id="entity_master"><path d="M78,319.2754 C78,309.2754 129.2344,309.2754 129.2344,309.2754 C129.2344,309.2754 180.4688,309.2754 180.4688,319.2754 L180.4688,346.8965 C180.4688,356.8965 129.2344,356.8965 129.2344,356.8965 C129.2344,356.8965 78,356.8965 78,346.8965 L78,319.2754" fill="#FFCDD2" style="stroke:#000000;stroke-width:1;"/><path d="M78,319.2754 C78,329.2754 129.2344,329.2754 129.2344,329.2754 C129.2344,329.2754 180.4688,329.2754 180.4688,319.2754" fill="none" style="stroke:#000000;stroke-width:1;"/><text fill="#000000" font-family="Helvetica" font-size="14" lengthAdjust="spacing" textLength="82.4688" x="88" y="348.3828">Redis Master</text></g><!--entity slave--><g class="entity" data-entity="slave" data-source-line="17" data-uid="ent0008" id="entity_slave"><path d="M285.5,319.2754 C285.5,309.2754 332.8516,309.2754 332.8516,309.2754 C332.8516,309.2754 380.2031,309.2754 380.2031,319.2754 L380.2031,346.8965 C380.2031,356.8965 332.8516,356.8965 332.8516,356.8965 C332.8516,356.8965 285.5,356.8965 285.5,346.8965 L285.5,319.2754" fill="#C8E6C9" style="stroke:#000000;stroke-width:1;"/><path d="M285.5,319.2754 C285.5,329.2754 332.8516,329.2754 332.8516,329.2754 C332.8516,329.2754 380.2031,329.2754 380.2031,319.2754" fill="none" style="stroke:#000000;stroke-width:1;"/><text fill="#000000" font-family="Helvetica" font-size="14" lengthAdjust="spacing" textLength="74.7031" x="295.5" y="348.3828">Redis Slave</text></g><g class="entity" data-entity="GMN16" data-source-line="30" data-uid="ent0017" id="entity_GMN16"><path d="M415.5,309.7754 L415.5,357.0176 L708.8164,357.0176 L708.8164,319.7754 L698.8164,309.7754 L415.5,309.7754" fill="#FFFFFF" style="stroke:#000000;stroke-width:1;"/><path d="M698.8164,309.7754 L698.8164,319.7754 L708.8164,319.7754 L698.8164,309.7754" fill="#FFFFFF" style="stroke:#000000;stroke-width:1;"/><text fill="#000000" font-family="Helvetica" font-size="14" font-weight="bold" lengthAdjust="spacing" textLength="50.5654" x="421.5" y="329.8828">Solved:</text><text fill="#000000" font-family="Helvetica" font-size="14" lengthAdjust="spacing" textLength="148.5928" x="475.9551" y="329.8828">Automatic Failover (HA)</text><text fill="#000000" font-family="Helvetica" font-size="14" font-weight="bold" lengthAdjust="spacing" textLength="31.8896" x="421.5" y="348.5039">Gap:</text><text fill="#000000" font-family="Helvetica" font-size="14" lengthAdjust="spacing" textLength="236.5371" x="457.2793" y="348.5039">Still single master, cannot scale writes</text></g><!--link app to master--><g class="link" data-entity-1="app" data-entity-2="master" data-source-line="19" data-uid="lnk9" id="link_app_master"><path d="M541.58,211.2954 C523.5,224.1954 497.81,240.8954 473,251.2754 C420.36,273.3054 268.5062,304.9222 186.1762,321.1922" fill="none" id="app-to-master" style="stroke:#000000;stroke-width:1;"/><polygon fill="#000000" points="180.29,322.3554,189.8947,324.5347,185.1951,321.386,188.3438,316.6865,180.29,322.3554" style="stroke:#000000;stroke-width:1;"/><text fill="#000000" font-family="Helvetica" font-size="14" lengthAdjust="spacing" textLength="70.0205" x="446" y="275.3828">Read/Write</text></g><!--link master to slave--><g class="link" data-entity-1="master" data-entity-2="slave" data-source-line="20" data-uid="lnk10" id="link_master_slave"><path d="M180.21,333.2754 C212.44,333.2754 247.73,333.2754 279.27,333.2754" fill="none" id="master-to-slave" style="stroke:#000000;stroke-width:1;"/><polygon fill="#000000" points="285.27,333.2754,276.27,329.2754,280.27,333.2754,276.27,337.2754,285.27,333.2754" style="stroke:#000000;stroke-width:1;"/><text fill="#000000" font-family="Helvetica" font-size="14" lengthAdjust="spacing" textLength="69.2617" x="198.25" y="326.3828">Replication</text></g><!--link s1 to master--><g class="link" data-entity-1="s1" data-entity-2="master" data-source-line="22" data-uid="lnk11" id="link_s1_master"><path d="M185.37,211.2954 C173.63,236.4954 155.1541,276.1368 142.3641,303.5868" fill="none" id="s1-to-master" style="stroke:#000000;stroke-width:1;"/><polygon fill="#000000" points="139.83,309.0254,147.2568,302.5568,141.9417,304.4932,140.0053,299.1781,139.83,309.0254" style="stroke:#000000;stroke-width:1;"/><text fill="#000000" font-family="Helvetica" font-size="14" lengthAdjust="spacing" textLength="46.6826" x="163" y="275.3828">Monitor</text></g><!--link s2 to master--><g class="link" data-entity-1="s2" data-entity-2="master" data-source-line="23" data-uid="lnk12" id="link_s2_master"><path d="M347.54,211.2954 C301.88,236.5754 225.3493,278.9394 175.8193,306.3594" fill="none" id="s2-to-master" style="stroke:#000000;stroke-width:1;"/><polygon fill="#000000" points="170.57,309.2654,180.3813,308.4059,174.9444,306.8437,176.5066,301.4068,170.57,309.2654" style="stroke:#000000;stroke-width:1;"/><text fill="#000000" font-family="Helvetica" font-size="14" lengthAdjust="spacing" textLength="46.6826" x="256" y="275.3828">Monitor</text></g><!--link s3 to master--><g class="link" data-entity-1="s3" data-entity-2="master" data-source-line="24" data-uid="lnk13" id="link_s3_master"><path d="M76.9,211.3654 C77.42,229.3754 79.84,257.1354 89,279.2754 C93.41,289.9254 96.7258,295.657 103.7058,304.397" fill="none" id="s3-to-master" style="stroke:#000000;stroke-width:1;"/><polygon fill="#000000" points="107.45,309.0854,104.9592,299.5567,104.3298,305.1784,98.7081,304.549,107.45,309.0854" style="stroke:#000000;stroke-width:1;"/><text fill="#000000" font-family="Helvetica" font-size="14" lengthAdjust="spacing" textLength="46.6826" x="90" y="275.3828">Monitor</text></g><!--link s1 to s2--><g class="link" data-entity-1="s1" data-entity-2="s2" data-source-line="26" data-uid="lnk14" id="link_s1_s2"><path d="M241.04,191.7754 C272.11,191.7754 302.61,191.7754 333.74,191.7754" fill="none" id="s1-s2" style="stroke:#000000;stroke-width:1;"/><polygon fill="#000000" points="235.04,191.7754,244.04,195.7754,240.04,191.7754,244.04,187.7754,235.04,191.7754" style="stroke:#000000;stroke-width:1;"/><polygon fill="#000000" points="339.74,191.7754,330.74,187.7754,334.74,191.7754,330.74,195.7754,339.74,191.7754" style="stroke:#000000;stroke-width:1;"/><text fill="#000000" font-family="Helvetica" font-size="14" lengthAdjust="spacing" textLength="68.4893" x="253.5" y="184.8828">Coordinate</text></g><!--link s2 to s3--><g class="link" data-entity-1="s2" data-entity-2="s3" data-source-line="27" data-uid="lnk15" id="link_s2_s3"><path d="M362.5251,167.1696 C342.5851,142.0996 308.13,104.9954 264,88.2754 C262,87.5154 142.23,85.9154 135,90.2754 C105.11,108.3054 90.9245,142.1786 83.7045,166.2386" fill="none" id="s2-s3" style="stroke:#000000;stroke-width:1;"/><polygon fill="#000000" points="366.26,171.8654,363.7882,162.3318,363.1476,167.9522,357.5271,167.3116,366.26,171.8654" style="stroke:#000000;stroke-width:1;"/><polygon fill="#000000" points="81.98,171.9854,88.398,164.5148,83.4171,167.1964,80.7356,162.2155,81.98,171.9854" style="stroke:#000000;stroke-width:1;"/><text fill="#000000" font-family="Helvetica" font-size="14" lengthAdjust="spacing" textLength="68.4893" x="195" y="78.3828">Coordinate</text></g><!--link sentinel_group to GMN16--><g class="link" data-entity-1="sentinel_group" data-entity-2="GMN16" data-source-line="30" data-uid="lnk18" id="link_sentinel_group_GMN16"><path d="M465.014,203.4205 C465.1821,203.6439 465.3525,203.8703 465.5251,204.0996 C466.2154,205.017 466.9412,205.9814 467.6998,206.9895 C473.7691,215.0541 481.9444,225.9166 490.9563,237.8904 C508.98,261.8379 530.35,290.2304 544.91,309.5754" fill="none" id="sentinel_group-GMN16" style="stroke:#000000;stroke-width:1;stroke-dasharray:7,7;"/></g><!--SRC=[VPB1Rjim38RlV0eklMp0WY9sCQn5421mukQI7Uh3ZWDjiQbGHJ8a9iKsxDr7nMtMhasbYqH-97-A-Y1tl6Ni7LaFwTxwdY9jiQNkVXF3pfigk13nh5xc_OmmV4ix9tNmyeqqmsZ5RizYEngzJJNs5-Fa0a2iECQ6lLZF3jV1C8vnPJTtED-JTTHQP-KdGEHEo6yK7XtfoksIS1mX9KoFnXzPQQyQw_goki3VWBhU2fuCOPEJG340nKcW780I_hoGD-zxfvsB3Vu0KAzobcLTr0i0Gq8j9SLksDY4Qpfsi3qSi_9giIXUaOsZFGyLymdFgg_BBzKbGCu_Dk71ZsTFEQxmXicSVuzM61vjuwYFAieCuHavwWH8azSvri5R2H5IyOwlFEtBIQV_oXRggaA8ndfIMNf_vYnVEi47OMo3IDXYkFrlkZgHQJjhWlunSpKzRsSutocehNHOwwS9UzNnSJN_D83Nr0zK8zOvJFOmfq7kP-p8Qp5C7Qdn8RzO0lO6imBu2m00]--></g></svg>