<svg xmlns="http://www.w3.org/2000/svg" xmlns:xlink="http://www.w3.org/1999/xlink" contentStyleType="text/css" data-diagram-type="DESCRIPTION" height="365px" preserveAspectRatio="none" style="width:878px;height:365px;background:#FEFEFE;" version="1.1" viewBox="0 0 878 365" width="878px" zoomAndPan="magnify"><title>Redis Cluster - Multi-Master Architecture</title><defs/><g><rect fill="#FEFEFE" height="365" style="stroke:none;stroke-width:1;" width="878" x="0" y="0"/><g class="title" data-source-line="6"><text fill="#000000" font-family="Helvetica" font-size="22" font-weight="bold" lengthAdjust="spacing" textLength="426.6367" x="221.2349" y="38.7402">Redis Cluster - Multi-Master Architecture</text></g><!--cluster cluster--><g class="cluster" data-entity="cluster" data-source-line="8" data-uid="ent0002" id="cluster_cluster"><rect fill="#F3E5F5" height="297" rx="2.5" ry="2.5" style="stroke:#000000;stroke-width:1;" width="602" x="12" y="62.2617"/><text fill="#000000" font-family="Helvetica" font-size="14" font-weight="bold" lengthAdjust="spacing" textLength="90.248" x="267.876" y="79.3691">Redis Cluster</text></g><!--entity masterA--><g class="entity" data-entity="masterA" data-source-line="10" data-uid="ent0003" id="entity_masterA"><path d="M44.5,125.2617 C44.5,115.2617 93.8032,115.2617 93.8032,115.2617 C93.8032,115.2617 143.1064,115.2617 143.1064,125.2617 L143.1064,171.5039 C143.1064,181.5039 93.8032,181.5039 93.8032,181.5039 C93.8032,181.5039 44.5,181.5039 44.5,171.5039 L44.5,125.2617" fill="#FFCDD2" style="stroke:#000000;stroke-width:1;"/><path d="M44.5,125.2617 C44.5,135.2617 93.8032,135.2617 93.8032,135.2617 C93.8032,135.2617 143.1064,135.2617 143.1064,125.2617" fill="none" style="stroke:#000000;stroke-width:1;"/><text fill="#000000" font-family="Helvetica" font-size="14" lengthAdjust="spacing" textLength="56.0137" x="54.5" y="154.3691">Master A</text><text fill="#000000" font-family="Helvetica" font-size="14" lengthAdjust="spacing" textLength="78.6064" x="54.5" y="172.9902">Slots 0-5460</text></g><!--entity masterB--><g class="entity" data-entity="masterB" data-source-line="11" data-uid="ent0004" id="entity_masterB"><path d="M223,125.2617 C223,115.2617 287.8755,115.2617 287.8755,115.2617 C287.8755,115.2617 352.751,115.2617 352.751,125.2617 L352.751,171.5039 C352.751,181.5039 287.8755,181.5039 287.8755,181.5039 C287.8755,181.5039 223,181.5039 223,171.5039 L223,125.2617" fill="#FFCDD2" style="stroke:#000000;stroke-width:1;"/><path d="M223,125.2617 C223,135.2617 287.8755,135.2617 287.8755,135.2617 C287.8755,135.2617 352.751,135.2617 352.751,125.2617" fill="none" style="stroke:#000000;stroke-width:1;"/><text fill="#000000" font-family="Helvetica" font-size="14" lengthAdjust="spacing" textLength="56.0137" x="233" y="154.3691">Master B</text><text fill="#000000" font-family="Helvetica" font-size="14" lengthAdjust="spacing" textLength="109.751" x="233" y="172.9902">Slots 5461-10922</text></g><!--entity masterC--><g class="entity" data-entity="masterC" data-source-line="12" data-uid="ent0005" id="entity_masterC"><path d="M433,125.2617 C433,115.2617 501.7686,115.2617 501.7686,115.2617 C501.7686,115.2617 570.5371,115.2617 570.5371,125.2617 L570.5371,171.5039 C570.5371,181.5039 501.7686,181.5039 501.7686,181.5039 C501.7686,181.5039 433,181.5039 433,171.5039 L433,125.2617" fill="#FFCDD2" style="stroke:#000000;stroke-width:1;"/><path d="M433,125.2617 C433,135.2617 501.7686,135.2617 501.7686,135.2617 C501.7686,135.2617 570.5371,135.2617 570.5371,125.2617" fill="none" style="stroke:#000000;stroke-width:1;"/><text fill="#000000" font-family="Helvetica" font-size="14" lengthAdjust="spacing" textLength="56.7861" x="443" y="154.3691">Master C</text><text fill="#000000" font-family="Helvetica" font-size="14" lengthAdjust="spacing" textLength="117.5371" x="443" y="172.9902">Slots 10923-16383</text></g><!--entity slaveA--><g class="entity" data-entity="slaveA" data-source-line="16" data-uid="ent0006" id="entity_slaveA"><path d="M139,289.2617 C139,279.2617 177.0171,279.2617 177.0171,279.2617 C177.0171,279.2617 215.0342,279.2617 215.0342,289.2617 L215.0342,316.8828 C215.0342,326.8828 177.0171,326.8828 177.0171,326.8828 C177.0171,326.8828 139,326.8828 139,316.8828 L139,289.2617" fill="#C8E6C9" style="stroke:#000000;stroke-width:1;"/><path d="M139,289.2617 C139,299.2617 177.0171,299.2617 177.0171,299.2617 C177.0171,299.2617 215.0342,299.2617 215.0342,289.2617" fill="none" style="stroke:#000000;stroke-width:1;"/><text fill="#000000" font-family="Helvetica" font-size="14" lengthAdjust="spacing" textLength="56.0342" x="149" y="318.3691">Slave A1</text></g><!--entity slaveB--><g class="entity" data-entity="slaveB" data-source-line="17" data-uid="ent0007" id="entity_slaveB"><path d="M250,289.2617 C250,279.2617 288.0171,279.2617 288.0171,279.2617 C288.0171,279.2617 326.0342,279.2617 326.0342,289.2617 L326.0342,316.8828 C326.0342,326.8828 288.0171,326.8828 288.0171,326.8828 C288.0171,326.8828 250,326.8828 250,316.8828 L250,289.2617" fill="#C8E6C9" style="stroke:#000000;stroke-width:1;"/><path d="M250,289.2617 C250,299.2617 288.0171,299.2617 288.0171,299.2617 C288.0171,299.2617 326.0342,299.2617 326.0342,289.2617" fill="none" style="stroke:#000000;stroke-width:1;"/><text fill="#000000" font-family="Helvetica" font-size="14" lengthAdjust="spacing" textLength="56.0342" x="260" y="318.3691">Slave B1</text></g><!--entity slaveC--><g class="entity" data-entity="slaveC" data-source-line="18" data-uid="ent0008" id="entity_slaveC"><path d="M361.5,289.2617 C361.5,279.2617 399.9033,279.2617 399.9033,279.2617 C399.9033,279.2617 438.3066,279.2617 438.3066,289.2617 L438.3066,316.8828 C438.3066,326.8828 399.9033,326.8828 399.9033,326.8828 C399.9033,326.8828 361.5,326.8828 361.5,316.8828 L361.5,289.2617" fill="#C8E6C9" style="stroke:#000000;stroke-width:1;"/><path d="M361.5,289.2617 C361.5,299.2617 399.9033,299.2617 399.9033,299.2617 C399.9033,299.2617 438.3066,299.2617 438.3066,289.2617" fill="none" style="stroke:#000000;stroke-width:1;"/><text fill="#000000" font-family="Helvetica" font-size="14" lengthAdjust="spacing" textLength="56.8066" x="371.5" y="318.3691">Slave C1</text></g><g class="entity" data-entity="GMN14" data-source-line="30" data-uid="ent0015" id="entity_GMN14"><path d="M638.5,261.2617 L638.5,345.7461 L871.1064,345.7461 L871.1064,271.2617 L861.1064,261.2617 L638.5,261.2617" fill="#FFFFFF" style="stroke:#000000;stroke-width:1;"/><path d="M861.1064,261.2617 L861.1064,271.2617 L871.1064,271.2617 L861.1064,261.2617" fill="#FFFFFF" style="stroke:#000000;stroke-width:1;"/><text fill="#000000" font-family="Helvetica" font-size="14" font-weight="bold" lengthAdjust="spacing" textLength="92.5928" x="644.5" y="281.3691">Key Features:</text><text fill="#000000" font-family="Helvetica" font-size="14" lengthAdjust="spacing" textLength="198.4199" x="644.5" y="299.9902">- Decentralized (No ZooKeeper)</text><text fill="#000000" font-family="Helvetica" font-size="14" lengthAdjust="spacing" textLength="211.6064" x="644.5" y="318.6113">- Multi-Master (Horizontal Scaling)</text><text fill="#000000" font-family="Helvetica" font-size="14" lengthAdjust="spacing" textLength="124.4824" x="644.5" y="337.2324">- Automatic Failover</text></g><!--link masterA to slaveA--><g class="link" data-entity-1="masterA" data-entity-2="slaveA" data-source-line="22" data-uid="lnk9" id="link_masterA_slaveA"><path d="M111.4,181.3317 C127.28,210.6017 147.5008,247.8668 161.6208,273.9168" fill="none" id="masterA-to-slaveA" style="stroke:#000000;stroke-width:1;"/><polygon fill="#000000" points="164.48,279.1917,163.7078,269.3732,162.0973,274.7959,156.6746,273.1854,164.48,279.1917" style="stroke:#000000;stroke-width:1;"/><text fill="#000000" font-family="Helvetica" font-size="14" lengthAdjust="spacing" textLength="58.3652" x="139" y="227.3691">Replicate</text></g><!--link masterB to slaveB--><g class="link" data-entity-1="masterB" data-entity-2="slaveB" data-source-line="23" data-uid="lnk10" id="link_masterB_slaveB"><path d="M288,181.3317 C288,210.6017 288,247.1417 288,273.1917" fill="none" id="masterB-to-slaveB" style="stroke:#000000;stroke-width:1;"/><polygon fill="#000000" points="288,279.1917,292,270.1917,288,274.1917,284,270.1917,288,279.1917" style="stroke:#000000;stroke-width:1;"/><text fill="#000000" font-family="Helvetica" font-size="14" lengthAdjust="spacing" textLength="58.3652" x="289" y="227.3691">Replicate</text></g><!--link masterC to slaveC--><g class="link" data-entity-1="masterC" data-entity-2="slaveC" data-source-line="24" data-uid="lnk11" id="link_masterC_slaveC"><path d="M480.62,181.3317 C461.11,210.6017 436.0673,248.1488 418.7073,274.1988" fill="none" id="masterC-to-slaveC" style="stroke:#000000;stroke-width:1;"/><polygon fill="#000000" points="415.38,279.1917,423.6996,273.9206,418.1528,275.031,417.0424,269.4842,415.38,279.1917" style="stroke:#000000;stroke-width:1;"/><text fill="#000000" font-family="Helvetica" font-size="14" lengthAdjust="spacing" textLength="58.3652" x="462" y="227.3691">Replicate</text></g><!--link masterA to masterB--><g class="link" data-entity-1="masterA" data-entity-2="masterB" data-source-line="26" data-uid="lnk12" id="link_masterA_masterB"><path d="M149.71,148.2617 C173.73,148.2617 190.88,148.2617 216.67,148.2617" fill="none" id="masterA-masterB" style="stroke:#000000;stroke-width:1;"/><polygon fill="#000000" points="143.71,148.2617,152.71,152.2617,148.71,148.2617,152.71,144.2617,143.71,148.2617" style="stroke:#000000;stroke-width:1;"/><polygon fill="#000000" points="222.67,148.2617,213.67,144.2617,217.67,148.2617,213.67,152.2617,222.67,148.2617" style="stroke:#000000;stroke-width:1;"/><text fill="#000000" font-family="Helvetica" font-size="14" lengthAdjust="spacing" textLength="43.5723" x="161.75" y="141.3691">Gossip</text></g><!--link masterB to masterC--><g class="link" data-entity-1="masterB" data-entity-2="masterC" data-source-line="27" data-uid="lnk13" id="link_masterB_masterC"><path d="M359.08,148.2617 C384.29,148.2617 401.18,148.2617 426.77,148.2617" fill="none" id="masterB-masterC" style="stroke:#000000;stroke-width:1;"/><polygon fill="#000000" points="353.08,148.2617,362.08,152.2617,358.08,148.2617,362.08,144.2617,353.08,148.2617" style="stroke:#000000;stroke-width:1;"/><polygon fill="#000000" points="432.77,148.2617,423.77,144.2617,427.77,148.2617,423.77,152.2617,432.77,148.2617" style="stroke:#000000;stroke-width:1;"/><text fill="#000000" font-family="Helvetica" font-size="14" lengthAdjust="spacing" textLength="43.5723" x="371.5" y="141.3691">Gossip</text></g><!--link cluster to GMN14--><g class="link" data-entity-1="cluster" data-entity-2="GMN14" data-source-line="30" data-uid="lnk16" id="link_cluster_GMN14"><path d="M614.098,157.5748 C614.2801,157.7618 614.4648,157.9515 614.6523,158.144 C615.0271,158.529 615.4127,158.9249 615.8086,159.3314 C616.6004,160.1445 617.4336,161.0002 618.3059,161.8959 C625.2844,169.062 634.7613,178.7936 645.4925,189.813 C666.955,211.8517 693.435,239.0417 714.98,261.1617" fill="none" id="cluster-GMN14" style="stroke:#000000;stroke-width:1;stroke-dasharray:7,7;"/></g><!--SRC=[XPD1J-Cm48Nl_XL3kS0XsgQb5LHLfSPj5Wd1ONj3UvaaGshXsf7jTBMi-EyxoH98Lg0wbqpolJSUv-KixEb0K6bKHlXdPIfqU80Cy-VIsTeKqchhu3pTDbUFAEW9QnrIQy83iiFeblIHWifnz3crKoy4yPKGGGLDy8CAvK7gsWTo4C4zOogwnxPSktol0kMXTYI4uniq9Oj60zK8q4F-vd2UJhUpT0P_1F0AjYIUpBsLpIemO8QUJRecFyrEs-1X7CskvkFMxT2-MhDRAZURoTVYf1EpD8xYySraqZD8JXl8pg3HJgDuFhsUzXpamE5Ld9vgf_58i8vR4zyKF8QytixbpPTqqgEJaxJiqN90lmhUONTsKM5_cMZLxM71dxhId8j0eZkT0P9yWiWX8WV8UwTbv5Iv3qnrnWluRhrNrNkd_n7vWGXZ0q5cGx07i4zTadYWPRQwez-G4ZO1z8lbjsp5ZoFOK4ucEDISvG8k7YmyMdj7L96xR851YYzkhLCl77tKiCjPPCf_rBhcbiZ_2gIej3roKp85DFiHVm40]--></g></svg>