<svg xmlns="http://www.w3.org/2000/svg" xmlns:xlink="http://www.w3.org/1999/xlink" contentStyleType="text/css" height="396px" preserveAspectRatio="none" style="width:1666px;height:396px;background:#FEFEFE;" version="1.1" viewBox="0 0 1666 396" width="1666px" zoomAndPan="magnify"><title>Hash Tags - Forcing Keys to Same Slot</title><defs/><g><rect fill="#FEFEFE" height="396" style="stroke:none;stroke-width:1.0;" width="1666" x="0" y="0"/><text fill="#000000" font-family="Helvetica" font-size="22" font-weight="bold" lengthAdjust="spacing" textLength="409.5352" x="624.208" y="40.2119">Hash Tags - Forcing Keys to Same Slot</text><!--cluster without--><g id="cluster_without"><rect fill="#FFEBEE" height="109" rx="2.5" ry="2.5" style="stroke:#000000;stroke-width:1.0;" width="715" x="12" y="143.7359"/><text fill="#000000" font-family="Helvetica" font-size="14" font-weight="bold" lengthAdjust="spacing" textLength="126.7725" x="306.1138" y="161.7798">Without Hash Tags</text></g><!--cluster with--><g id="cluster_with"><rect fill="#E8F5E9" height="109" rx="2.5" ry="2.5" style="stroke:#000000;stroke-width:1.0;" width="526" x="938" y="143.7359"/><text fill="#000000" font-family="Helvetica" font-size="14" font-weight="bold" lengthAdjust="spacing" textLength="105.0068" x="1148.4966" y="161.7798">With Hash Tags</text></g><!--entity k1--><g id="elem_k1"><rect fill="#FFFFFF" height="39.1201" rx="2.5" ry="2.5" style="stroke:#000000;stroke-width:1.0;" width="202.1094" x="55" y="189.7359"/><text fill="#000000" font-family="Helvetica" font-size="14" lengthAdjust="spacing" textLength="182.1094" x="65" y="215.7798">user:1001:profile (slot 12345)</text></g><!--entity k2--><g id="elem_k2"><rect fill="#FFFFFF" height="39.1201" rx="2.5" ry="2.5" style="stroke:#000000;stroke-width:1.0;" width="195.875" x="292" y="189.7359"/><text fill="#000000" font-family="Helvetica" font-size="14" lengthAdjust="spacing" textLength="175.875" x="302" y="215.7798">user:1001:orders (slot 8976)</text></g><!--entity k3--><g id="elem_k3"><rect fill="#FFFFFF" height="39.1201" rx="2.5" ry="2.5" style="stroke:#000000;stroke-width:1.0;" width="179.5303" x="523" y="189.7359"/><text fill="#000000" font-family="Helvetica" font-size="14" lengthAdjust="spacing" textLength="159.5303" x="533" y="215.7798">user:1001:cart (slot 3421)</text></g><!--entity t1--><g id="elem_t1"><rect fill="#FFFFFF" height="39.1201" rx="2.5" ry="2.5" style="stroke:#000000;stroke-width:1.0;" width="133.6406" x="1306" y="189.7359"/><text fill="#000000" font-family="Helvetica" font-size="14" lengthAdjust="spacing" textLength="113.6406" x="1316" y="215.7798">{user:1001}:profile</text></g><!--entity t2--><g id="elem_t2"><rect fill="#FFFFFF" height="39.1201" rx="2.5" ry="2.5" style="stroke:#000000;stroke-width:1.0;" width="135.1924" x="1135.5" y="189.7359"/><text fill="#000000" font-family="Helvetica" font-size="14" lengthAdjust="spacing" textLength="115.1924" x="1145.5" y="215.7798">{user:1001}:orders</text></g><!--entity t3--><g id="elem_t3"><rect fill="#FFFFFF" height="39.1201" rx="2.5" ry="2.5" style="stroke:#000000;stroke-width:1.0;" width="118.8477" x="981.5" y="189.7359"/><text fill="#000000" font-family="Helvetica" font-size="14" lengthAdjust="spacing" textLength="98.8477" x="991.5" y="215.7798">{user:1001}:cart</text></g><!--entity nodeA1--><g id="elem_nodeA1"><path d="M122.5,331.7359 C122.5,321.7359 155.8481,321.7359 155.8481,321.7359 C155.8481,321.7359 189.1963,321.7359 189.1963,331.7359 L189.1963,359.856 C189.1963,369.856 155.8481,369.856 155.8481,369.856 C155.8481,369.856 122.5,369.856 122.5,359.856 L122.5,331.7359 " fill="#FFCDD2" style="stroke:#000000;stroke-width:1.0;"/><path d="M122.5,331.7359 C122.5,341.7359 155.8481,341.7359 155.8481,341.7359 C155.8481,341.7359 189.1963,341.7359 189.1963,331.7359 " fill="none" style="stroke:#000000;stroke-width:1.0;"/><text fill="#000000" font-family="Helvetica" font-size="14" lengthAdjust="spacing" textLength="46.6963" x="132.5" y="361.7798">Node A</text></g><!--entity nodeB1--><g id="elem_nodeB1"><path d="M356.5,331.7359 C356.5,321.7359 389.8481,321.7359 389.8481,321.7359 C389.8481,321.7359 423.1963,321.7359 423.1963,331.7359 L423.1963,359.856 C423.1963,369.856 389.8481,369.856 389.8481,369.856 C389.8481,369.856 356.5,369.856 356.5,359.856 L356.5,331.7359 " fill="#C8E6C9" style="stroke:#000000;stroke-width:1.0;"/><path d="M356.5,331.7359 C356.5,341.7359 389.8481,341.7359 389.8481,341.7359 C389.8481,341.7359 423.1963,341.7359 423.1963,331.7359 " fill="none" style="stroke:#000000;stroke-width:1.0;"/><text fill="#000000" font-family="Helvetica" font-size="14" lengthAdjust="spacing" textLength="46.6963" x="366.5" y="361.7798">Node B</text></g><!--entity nodeC1--><g id="elem_nodeC1"><path d="M579.5,331.7359 C579.5,321.7359 613.2344,321.7359 613.2344,321.7359 C613.2344,321.7359 646.9688,321.7359 646.9688,331.7359 L646.9688,359.856 C646.9688,369.856 613.2344,369.856 613.2344,369.856 C613.2344,369.856 579.5,369.856 579.5,359.856 L579.5,331.7359 " fill="#BBDEFB" style="stroke:#000000;stroke-width:1.0;"/><path d="M579.5,331.7359 C579.5,341.7359 613.2344,341.7359 613.2344,341.7359 C613.2344,341.7359 646.9688,341.7359 646.9688,331.7359 " fill="none" style="stroke:#000000;stroke-width:1.0;"/><text fill="#000000" font-family="Helvetica" font-size="14" lengthAdjust="spacing" textLength="47.4688" x="589.5" y="361.7798">Node C</text></g><g id="elem_GMN12"><path d="M751.5,166.2359 L751.5,252.7164 L910.2236,252.7164 L910.2236,176.2359 L900.2236,166.2359 L751.5,166.2359 " fill="#FFFFFF" style="stroke:#000000;stroke-width:1.0;"/><path d="M900.2236,166.2359 L900.2236,176.2359 L910.2236,176.2359 L900.2236,166.2359 " fill="#FFFFFF" style="stroke:#000000;stroke-width:1.0;"/><text fill="#FF0000" font-family="Helvetica" font-size="14" font-weight="bold" lengthAdjust="spacing" textLength="60.6758" x="757.5" y="187.2798">Problem:</text><text fill="#000000" font-family="Helvetica" font-size="14" lengthAdjust="spacing" textLength="137.7236" x="757.5" y="206.4">Keys scattered across</text><text fill="#000000" font-family="Helvetica" font-size="14" lengthAdjust="spacing" textLength="96.5098" x="757.5" y="225.5201">different nodes!</text><text fill="#000000" font-family="Helvetica" font-size="14" lengthAdjust="spacing" textLength="136.1855" x="757.5" y="244.6402">Cannot do MGET/Lua</text></g><!--entity nodeA2--><g id="elem_nodeA2"><path d="M1146.5,322.2359 C1146.5,312.2359 1203.1792,312.2359 1203.1792,312.2359 C1203.1792,312.2359 1259.8584,312.2359 1259.8584,322.2359 L1259.8584,369.4761 C1259.8584,379.4761 1203.1792,379.4761 1203.1792,379.4761 C1203.1792,379.4761 1146.5,379.4761 1146.5,369.4761 L1146.5,322.2359 " fill="#C8E6C9" style="stroke:#000000;stroke-width:1.0;"/><path d="M1146.5,322.2359 C1146.5,332.2359 1203.1792,332.2359 1203.1792,332.2359 C1203.1792,332.2359 1259.8584,332.2359 1259.8584,322.2359 " fill="none" style="stroke:#000000;stroke-width:1.0;"/><text fill="#000000" font-family="Helvetica" font-size="14" lengthAdjust="spacing" textLength="46.6963" x="1156.5" y="352.2798">Node A</text><text fill="#000000" font-family="Helvetica" font-size="14" lengthAdjust="spacing" textLength="93.3584" x="1156.5" y="371.4">(All Same Slot)</text></g><g id="elem_GMN23"><path d="M1488,166.2359 L1488,252.7164 L1659.9512,252.7164 L1659.9512,176.2359 L1649.9512,166.2359 L1488,166.2359 " fill="#FFFFFF" style="stroke:#000000;stroke-width:1.0;"/><path d="M1649.9512,166.2359 L1649.9512,176.2359 L1659.9512,176.2359 L1649.9512,166.2359 " fill="#FFFFFF" style="stroke:#000000;stroke-width:1.0;"/><text fill="#008000" font-family="Helvetica" font-size="14" font-weight="bold" lengthAdjust="spacing" textLength="60.6484" x="1494" y="187.2798">Solution:</text><text fill="#000000" font-family="Helvetica" font-size="14" lengthAdjust="spacing" textLength="140.875" x="1494" y="206.4">Only hash content in {}</text><text fill="#000000" font-family="Helvetica" font-size="14" lengthAdjust="spacing" textLength="150.9512" x="1494" y="225.5201">All keys go to same slot!</text><text fill="#000000" font-family="Helvetica" font-size="14" lengthAdjust="spacing" textLength="112.0273" x="1494" y="244.6402">MGET/Lua works!</text></g><!--link k1 to nodeA1--><g id="link_k1_nodeA1"><path d="M156,228.9359 C156,253.1859 156,289.4859 156,315.6959 " fill="none" id="k1-to-nodeA1" style="stroke:#000000;stroke-width:1.0;"/><polygon fill="#000000" points="156,321.6959,160,312.6959,156,316.6959,152,312.6959,156,321.6959" style="stroke:#000000;stroke-width:1.0;"/></g><!--link k2 to nodeB1--><g id="link_k2_nodeB1"><path d="M390,228.9359 C390,253.1859 390,289.4859 390,315.6959 " fill="none" id="k2-to-nodeB1" style="stroke:#000000;stroke-width:1.0;"/><polygon fill="#000000" points="390,321.6959,394,312.6959,390,316.6959,386,312.6959,390,321.6959" style="stroke:#000000;stroke-width:1.0;"/></g><!--link k3 to nodeC1--><g id="link_k3_nodeC1"><path d="M613,228.9359 C613,253.1859 613,289.4859 613,315.6959 " fill="none" id="k3-to-nodeC1" style="stroke:#000000;stroke-width:1.0;"/><polygon fill="#000000" points="613,321.6959,617,312.6959,613,316.6959,609,312.6959,613,321.6959" style="stroke:#000000;stroke-width:1.0;"/></g><!--link without to GMN12--><g id="link_without_GMN12"><path d="M25.3438,143.4607 C25.3958,143.2739 25.4483,143.0873 25.5011,142.9007 C25.6069,142.5275 25.7143,142.1547 25.8235,141.7823 C27.5709,135.8241 29.766,129.9752 32.5148,124.4811 C38.0125,113.4928 45.725,103.9234 56.5,97.7359 C118.65,62.0459 634.31,72.7959 701.5,97.7359 C738.35,111.4159 771.75,140.8059 795.39,165.9759 " fill="none" id="without-GMN12" style="stroke:#000000;stroke-width:1.0;stroke-dasharray:7.0,7.0;"/></g><!--link t1 to nodeA2--><g id="link_t1_nodeA2"><path d="M1349.36,228.9359 C1322.17,250.4459 1281.7558,282.4235 1248.7858,308.5035 " fill="none" id="t1-to-nodeA2" style="stroke:#000000;stroke-width:1.0;"/><polygon fill="#000000" points="1244.08,312.2259,1253.6202,309.7795,1248.0015,309.1239,1248.6571,303.5052,1244.08,312.2259" style="stroke:#000000;stroke-width:1.0;"/></g><!--link t2 to nodeA2--><g id="link_t2_nodeA2"><path d="M1203,228.9359 C1203,250.4459 1203,280.1459 1203,306.2259 " fill="none" id="t2-to-nodeA2" style="stroke:#000000;stroke-width:1.0;"/><polygon fill="#000000" points="1203,312.2259,1207,303.2259,1203,307.2259,1199,303.2259,1203,312.2259" style="stroke:#000000;stroke-width:1.0;"/></g><!--link t3 to nodeA2--><g id="link_t3_nodeA2"><path d="M1063.53,228.9359 C1089.43,250.4459 1127.8132,282.3138 1159.2332,308.3938 " fill="none" id="t3-to-nodeA2" style="stroke:#000000;stroke-width:1.0;"/><polygon fill="#000000" points="1163.85,312.2259,1159.4796,303.3998,1160.0027,309.0324,1154.3701,309.5555,1163.85,312.2259" style="stroke:#000000;stroke-width:1.0;"/></g><!--link with to GMN23--><g id="link_with_GMN23"><path d="M951.3438,143.4607 C951.3958,143.2739 951.4483,143.0873 951.5011,142.9007 C951.6069,142.5275 951.7143,142.1547 951.8235,141.7823 C953.5709,135.8241 955.766,129.9752 958.5148,124.4811 C964.0125,113.4928 971.725,103.9234 982.5,97.7359 C1026.44,72.4959 1390.81,80.6359 1438.5,97.7359 C1476.64,111.4159 1511.72,140.9759 1536.63,166.2259 " fill="none" id="with-GMN23" style="stroke:#000000;stroke-width:1.0;stroke-dasharray:7.0,7.0;"/></g><!--SRC=[VPDHRzem58NV_IjkuQLzG3G9xG0X91AILThMJQBINlPY4fDOCJQoRuOwn7-V7K9eWJP-YOxFkTVsPzzWmTOCDe9oIKp9vOPgkeObJSjSgqfcaH9AGpU9tNZZoDYALW8J9V6PsWgT9oR-CkGfxLntBVW_1jw04EGe63nHKy0BpGtq854wvJA7R-pL02fOk88BeP0GpLAaChU1pc-EXQhmbEm0DR1jr6wIn64Smuw0_Tx4AiFqsBk_zyORhLRSIhV6bWRF3mOFTtMDqliuf7J6j6aomz6NnoRYVnn9gSOc40nyhma4P4z8Hf4kgR7sPvKncDLJqlxEFBU3Q3xtpprXwmcj9nh6Zz7et1ErdiXwmd0U9o4XfGUzJ6rbRzgq8AN_JWcj4hnJ8eyGgP21vdc1e5R7yxMxdQJkAemrowQJvVINLal1rkD9VpcTzEkfgJNL24rA4Par0asrCiRg6L-jh2AnRcDkh1HHQLj1fk37r_Yb_xsYXCaCNFiBxbUWGpSU9W_nw9BuhaMnFpAlK-XzvZo0FXZzpumExy5s5UaVUJiJudI7xqwC_POVmJCsFa7_GWdEbIjiJc1opPXqQ1PALCYLF6VpKufNADn1flOzEXPSmcvlPzo2IqSkL-xz6RTsTtyTfYCSs2fTMd0je_y0]--></g></svg>