<svg xmlns="http://www.w3.org/2000/svg" xmlns:xlink="http://www.w3.org/1999/xlink" contentStyleType="text/css" height="422px" preserveAspectRatio="none" style="width:716px;height:422px;background:#FEFEFE;" version="1.1" viewBox="0 0 716 422" width="716px" zoomAndPan="magnify"><title>Gossip Protocol - Decentralized Communication</title><defs/><g><rect fill="#FEFEFE" height="422" style="stroke:none;stroke-width:1.0;" width="716" x="0" y="0"/><text fill="#000000" font-family="Helvetica" font-size="22" font-weight="bold" lengthAdjust="spacing" textLength="504.8506" x="101.287" y="40.2119">Gossip Protocol - Decentralized Communication</text><!--entity nodeA--><g id="elem_nodeA"><rect fill="#FFCDD2" height="39.1201" rx="2.5" ry="2.5" style="stroke:#000000;stroke-width:1.0;" width="66.6963" x="237.07" y="76.0459"/><text fill="#000000" font-family="Helvetica" font-size="14" lengthAdjust="spacing" textLength="46.6963" x="247.07" y="102.0898">Node A</text></g><!--entity nodeB--><g id="elem_nodeB"><rect fill="#C8E6C9" height="39.1201" rx="2.5" ry="2.5" style="stroke:#000000;stroke-width:1.0;" width="66.6963" x="405.07" y="233.5459"/><text fill="#000000" font-family="Helvetica" font-size="14" lengthAdjust="spacing" textLength="46.6963" x="415.07" y="259.5898">Node B</text></g><!--entity nodeC--><g id="elem_nodeC"><rect fill="#BBDEFB" height="39.1201" rx="2.5" ry="2.5" style="stroke:#000000;stroke-width:1.0;" width="67.4688" x="588.07" y="233.5459"/><text fill="#000000" font-family="Helvetica" font-size="14" lengthAdjust="spacing" textLength="47.4688" x="598.07" y="259.5898">Node C</text></g><!--entity nodeD--><g id="elem_nodeD"><rect fill="#FFF9C4" height="39.1201" rx="2.5" ry="2.5" style="stroke:#000000;stroke-width:1.0;" width="67.4688" x="405.07" y="377.0459"/><text fill="#000000" font-family="Helvetica" font-size="14" lengthAdjust="spacing" textLength="47.4688" x="415.07" y="403.0898">Node D</text></g><g id="elem_GMN13"><path d="M133.07,210.0459 L133.07,296.5264 A0,0 0 0 0 133.07,296.5264 L370.4274,296.5264 A0,0 0 0 0 370.4274,296.5264 L370.4274,220.0459 L360.4274,210.0459 L260.74,210.0459 L268.28,115.3059 L252.74,210.0459 L133.07,210.0459 A0,0 0 0 0 133.07,210.0459 " fill="#FFFFFF" style="stroke:#000000;stroke-width:1.0;"/><path d="M360.4274,210.0459 L360.4274,220.0459 L370.4274,220.0459 L360.4274,210.0459 " fill="#FFFFFF" style="stroke:#000000;stroke-width:1.0;"/><text fill="#000000" font-family="Helvetica" font-size="14" font-weight="bold" lengthAdjust="spacing" textLength="182.8135" x="139.07" y="231.0898">Each PING/PONG contains:</text><text fill="#000000" font-family="Helvetica" font-size="14" lengthAdjust="spacing" textLength="147.8135" x="139.07" y="250.21">- My Slots (2KB bitmap)</text><text fill="#000000" font-family="Helvetica" font-size="14" lengthAdjust="spacing" textLength="111.2686" x="139.07" y="269.3301">- My ConfigEpoch</text><text fill="#000000" font-family="Helvetica" font-size="14" lengthAdjust="spacing" textLength="216.3574" x="139.07" y="288.4502">- Gossip about 10% of other nodes</text></g><g id="elem_GMN16"><path d="M533.57,62.0459 L533.57,129.4063 A0,0 0 0 0 533.57,129.4063 L617.57,129.4063 L621.57,233.1659 L625.57,129.4063 L709.4245,129.4063 A0,0 0 0 0 709.4245,129.4063 L709.4245,72.0459 L699.4245,62.0459 L533.57,62.0459 A0,0 0 0 0 533.57,62.0459 " fill="#FFFFFF" style="stroke:#000000;stroke-width:1.0;"/><path d="M699.4245,62.0459 L699.4245,72.0459 L709.4245,72.0459 L699.4245,62.0459 " fill="#FFFFFF" style="stroke:#000000;stroke-width:1.0;"/><text fill="#000000" font-family="Helvetica" font-size="14" font-weight="bold" lengthAdjust="spacing" textLength="154.793" x="539.57" y="83.0898">No central coordinator!</text><text fill="#000000" font-family="Helvetica" font-size="14" lengthAdjust="spacing" textLength="154.8545" x="539.57" y="102.21">Nodes learn cluster state</text><text fill="#000000" font-family="Helvetica" font-size="14" lengthAdjust="spacing" textLength="144.7578" x="539.57" y="121.3301">through periodic gossip</text></g><!--link nodeA to nodeB--><g id="link_nodeA_nodeB"><path d="M295.2427,119.3822 C327.6127,149.3522 381.8367,199.5302 414.0967,229.3902 " fill="none" id="nodeA-nodeB" style="stroke:#000000;stroke-width:1.0;"/><polygon fill="#000000" points="290.84,115.3059,294.7265,124.3555,294.5089,118.7028,300.1616,118.4852,290.84,115.3059" style="stroke:#000000;stroke-width:1.0;"/><polygon fill="#000000" points="418.5,233.4659,414.6122,224.4169,414.8306,230.0695,409.178,230.2879,418.5,233.4659" style="stroke:#000000;stroke-width:1.0;"/><text fill="#000000" font-family="Helvetica" font-size="14" lengthAdjust="spacing" textLength="79.3447" x="361.57" y="176.0898">PING/PONG</text></g><!--link nodeB to nodeC--><g id="link_nodeB_nodeC"><path d="M478.14,253.0459 C511.05,253.0459 548.96,253.0459 581.91,253.0459 " fill="none" id="nodeB-nodeC" style="stroke:#000000;stroke-width:1.0;"/><polygon fill="#000000" points="472.14,253.0459,481.14,257.0459,477.14,253.0459,481.14,249.0459,472.14,253.0459" style="stroke:#000000;stroke-width:1.0;"/><polygon fill="#000000" points="587.91,253.0459,578.91,249.0459,582.91,253.0459,578.91,257.0459,587.91,253.0459" style="stroke:#000000;stroke-width:1.0;"/><text fill="#000000" font-family="Helvetica" font-size="14" lengthAdjust="spacing" textLength="79.3447" x="490.57" y="246.0898">PING/PONG</text></g><!--link nodeC to nodeD--><g id="link_nodeC_nodeD"><path d="M601.6,277.2258 C583.88,297.2158 557.78,324.5759 527.57,347.0459 C510.49,359.7559 495.0341,368.5976 477.8341,377.2176 " fill="none" id="nodeC-nodeD" style="stroke:#000000;stroke-width:1.0;"/><polygon fill="#000000" points="605.58,272.7359,596.6167,276.8174,602.2633,276.4775,602.6032,282.1241,605.58,272.7359" style="stroke:#000000;stroke-width:1.0;"/><polygon fill="#000000" points="472.47,379.9059,482.3083,379.4495,476.9401,377.6657,478.7239,372.2974,472.47,379.9059" style="stroke:#000000;stroke-width:1.0;"/><text fill="#000000" font-family="Helvetica" font-size="14" lengthAdjust="spacing" textLength="79.3447" x="553.57" y="343.0898">PING/PONG</text></g><!--link nodeA to nodeD--><g id="link_nodeA_nodeD"><path d="M231.0462,102.4559 C177.3062,112.1959 79.46,138.6459 34.57,210.0459 C14.23,242.4059 11,265.9559 34.57,296.0459 C80.68,354.8959 310.3998,383.0291 398.9298,391.8791 " fill="none" id="nodeA-nodeD" style="stroke:#000000;stroke-width:1.0;"/><polygon fill="#000000" points="236.95,101.3859,227.3809,99.0551,232.0302,102.2776,228.8076,106.9268,236.95,101.3859" style="stroke:#000000;stroke-width:1.0;"/><polygon fill="#000000" points="404.9,392.4759,396.3425,387.6005,399.9248,391.9785,395.5468,395.5608,404.9,392.4759" style="stroke:#000000;stroke-width:1.0;"/><text fill="#000000" font-family="Helvetica" font-size="14" lengthAdjust="spacing" textLength="79.3447" x="35.57" y="259.5898">PING/PONG</text></g><!--link nodeA to nodeC--><g id="link_nodeA_nodeC"><path d="M309.9148,108.2801 C346.3548,119.4901 400.19,137.2459 449.57,159.0459 C500.66,181.6059 551.9437,210.5147 585.7737,230.4947 " fill="none" id="nodeA-nodeC" style="stroke:#000000;stroke-width:1.0;"/><polygon fill="#000000" points="304.18,106.5159,311.606,112.9854,308.959,107.9861,313.9583,105.339,304.18,106.5159" style="stroke:#000000;stroke-width:1.0;"/><polygon fill="#000000" points="590.94,233.5459,585.2247,225.5249,586.6348,231.0032,581.1565,232.4133,590.94,233.5459" style="stroke:#000000;stroke-width:1.0;"/><text fill="#000000" font-family="Helvetica" font-size="14" lengthAdjust="spacing" textLength="79.3447" x="493.57" y="176.0898">PING/PONG</text></g><!--link nodeB to nodeD--><g id="link_nodeB_nodeD"><path d="M438.57,278.8359 C438.57,305.8959 438.57,343.5759 438.57,370.6759 " fill="none" id="nodeB-nodeD" style="stroke:#000000;stroke-width:1.0;"/><polygon fill="#000000" points="438.57,272.8359,434.57,281.8359,438.57,277.8359,442.57,281.8359,438.57,272.8359" style="stroke:#000000;stroke-width:1.0;"/><polygon fill="#000000" points="438.57,376.6759,442.57,367.6759,438.57,371.6759,434.57,367.6759,438.57,376.6759" style="stroke:#000000;stroke-width:1.0;"/><text fill="#000000" font-family="Helvetica" font-size="14" lengthAdjust="spacing" textLength="79.3447" x="439.57" y="343.0898">PING/PONG</text></g><!--SRC=[TPBTIiD044RlynHZYw0NnHz4L4gXsIHLn5Zm2JQRRRAusGcx4qMVtacRLYLARiBkoVUTC7D4jMuqj5OQ5uLNurhfPGE5LA-LnywL0Yrwc6Pf__mWIhsHdQKC7UMI4oRtshvfCafE_gPUpAU6Ywie8aDMmmf3C2siFH8gj323H2ljo4lBO0a2cwPp74S6NHHvhKYwYZ-Sv5XgM4v01d3ykcIvJ2J9vOY93qmCKt6JNelR4ICEZ81f72Tf5e-OvC0aVLTsA_WlTjNpcJTLJRF5K7C7wuTyTRP-pbVHxkGt8KQ4OAB4TpS0oGX86B1wiqzOZe3bxmJnfyI_5KoGXWA9i07Sx3eYW7cnIAMglqbGF4JUad0tFoiMJCpWwGDUB5A0ayl760f3ZMnFzpS2tSPKQOkgtXuD0vS5TWGNvyTz6VBs-MrbYBGheNSPZ0ZRlOxOwUG8muAm2lhIE4deZmQRVb81h9RUWR9T80uE93aFW6fUvQg6Ldk3fL5GRLs-Axy0]--></g></svg>