<svg xmlns="http://www.w3.org/2000/svg" xmlns:xlink="http://www.w3.org/1999/xlink" contentStyleType="text/css" height="719px" preserveAspectRatio="none" style="width:526px;height:719px;background:#FEFEFE;" version="1.1" viewBox="0 0 526 719" width="526px" zoomAndPan="magnify"><title>Asynchronous Replication - Data Loss Window</title><defs/><g><rect fill="#FEFEFE" height="719" style="stroke:none;stroke-width:1.0;" width="526" x="0" y="0"/><text fill="#000000" font-family="Helvetica" font-size="22" font-weight="bold" lengthAdjust="spacing" textLength="493.8184" x="15" y="40.2119">Asynchronous Replication - Data Loss Window</text><line style="stroke:#000000;stroke-width:1.0;" x1="126.4958" x2="126.4958" y1="136.166" y2="634.9678"/><line style="stroke:#000000;stroke-width:1.0;" x1="216.3645" x2="216.3645" y1="136.166" y2="634.9678"/><line style="stroke:#000000;stroke-width:1.0;" x1="387.302" x2="387.302" y1="136.166" y2="634.9678"/><text fill="#000000" font-family="Helvetica" font-size="14" lengthAdjust="spacing" textLength="35.793" x="106.4958" y="133.0898">Client</text><ellipse cx="127.3923" cy="65.0459" fill="#FFFFFF" rx="8" ry="8" style="stroke:#000000;stroke-width:1.0;"/><path d="M127.3923,73.0459 L127.3923,100.0459 M114.3923,81.0459 L140.3923,81.0459 M127.3923,100.0459 L114.3923,115.0459 M127.3923,100.0459 L140.3923,115.0459 " fill="none" style="stroke:#000000;stroke-width:1.0;"/><text fill="#000000" font-family="Helvetica" font-size="14" lengthAdjust="spacing" textLength="35.793" x="106.4958" y="650.0117">Client</text><ellipse cx="127.3923" cy="662.0879" fill="#FFFFFF" rx="8" ry="8" style="stroke:#000000;stroke-width:1.0;"/><path d="M127.3923,670.0879 L127.3923,697.0879 M114.3923,678.0879 L140.3923,678.0879 M127.3923,697.0879 L114.3923,712.0879 M127.3923,697.0879 L140.3923,712.0879 " fill="none" style="stroke:#000000;stroke-width:1.0;"/><rect fill="#FFCDD2" height="33.1201" rx="2.5" ry="2.5" style="stroke:#000000;stroke-width:1.0;" width="56.7861" x="188.3645" y="102.0459"/><text fill="#000000" font-family="Helvetica" font-size="14" lengthAdjust="spacing" textLength="42.7861" x="195.3645" y="125.0898">Master</text><rect fill="#FFCDD2" height="33.1201" rx="2.5" ry="2.5" style="stroke:#000000;stroke-width:1.0;" width="56.7861" x="188.3645" y="633.9678"/><text fill="#000000" font-family="Helvetica" font-size="14" lengthAdjust="spacing" textLength="42.7861" x="195.3645" y="657.0117">Master</text><rect fill="#C8E6C9" height="33.1201" rx="2.5" ry="2.5" style="stroke:#000000;stroke-width:1.0;" width="49.0205" x="363.302" y="102.0459"/><text fill="#000000" font-family="Helvetica" font-size="14" lengthAdjust="spacing" textLength="35.0205" x="370.302" y="125.0898">Slave</text><rect fill="#C8E6C9" height="33.1201" rx="2.5" ry="2.5" style="stroke:#000000;stroke-width:1.0;" width="49.0205" x="363.302" y="633.9678"/><text fill="#000000" font-family="Helvetica" font-size="14" lengthAdjust="spacing" textLength="35.0205" x="370.302" y="657.0117">Slave</text><polygon fill="#000000" points="204.7576,167.2861,214.7576,171.2861,204.7576,175.2861,208.7576,171.2861" style="stroke:#000000;stroke-width:1.0;"/><line style="stroke:#000000;stroke-width:1.0;" x1="127.3923" x2="210.7576" y1="171.2861" y2="171.2861"/><text fill="#000000" font-family="Helvetica" font-size="14" lengthAdjust="spacing" textLength="65.3652" x="139.3923" y="166.21">SET x 100</text><polygon fill="#000000" points="138.3923,200.4063,128.3923,204.4063,138.3923,208.4063,134.3923,204.4063" style="stroke:#000000;stroke-width:1.0;"/><line style="stroke:#000000;stroke-width:1.0;stroke-dasharray:2.0,2.0;" x1="132.3923" x2="215.7576" y1="204.4063" y2="204.4063"/><text fill="#008000" font-family="Helvetica" font-size="14" lengthAdjust="spacing" textLength="20.2275" x="161.9612" y="199.3301">OK</text><path d="M131.4958,217.4063 L131.4958,265.4063 L281.4958,265.4063 L281.4958,227.4063 L271.4958,217.4063 L131.4958,217.4063 " fill="#E8F5E9" style="stroke:#000000;stroke-width:1.0;"/><path d="M271.4958,217.4063 L271.4958,227.4063 L281.4958,227.4063 L271.4958,217.4063 " fill="#E8F5E9" style="stroke:#000000;stroke-width:1.0;"/><text fill="#000000" font-family="Helvetica" font-size="14" lengthAdjust="spacing" textLength="90.2617" x="137.4958" y="238.4502">Client gets OK</text><text fill="#000000" font-family="Helvetica" font-size="14" font-weight="bold" lengthAdjust="spacing" textLength="58.3379" x="137.4958" y="257.5703">BEFORE</text><text fill="#000000" font-family="Helvetica" font-size="14" lengthAdjust="spacing" textLength="67.7031" x="199.7234" y="257.5703">replication!</text><polygon fill="#000000" points="375.8123,291.7666,385.8123,295.7666,375.8123,299.7666,379.8123,295.7666" style="stroke:#000000;stroke-width:1.0;"/><line style="stroke:#000000;stroke-width:1.0;" x1="216.7576" x2="381.8123" y1="295.7666" y2="295.7666"/><text fill="#000000" font-family="Helvetica" font-size="14" lengthAdjust="spacing" textLength="147.0547" x="228.7576" y="290.6904">REPLICATE SET x 100</text><path d="M153.4958,308.7666 L153.4958,356.7666 L278.4958,356.7666 L278.4958,318.7666 L268.4958,308.7666 L153.4958,308.7666 " fill="#FFEBEE" style="stroke:#000000;stroke-width:1.0;"/><path d="M268.4958,308.7666 L268.4958,318.7666 L278.4958,318.7666 L268.4958,308.7666 " fill="#FFEBEE" style="stroke:#000000;stroke-width:1.0;"/><text fill="#FF0000" font-family="Helvetica" font-size="14" font-weight="bold" lengthAdjust="spacing" textLength="54.4414" x="159.4958" y="329.8105">CRASH!</text><text fill="#000000" font-family="Helvetica" font-size="14" lengthAdjust="spacing" textLength="104.2686" x="159.4958" y="348.9307">Master dies here</text><polygon fill="#000000" points="227.7576,383.127,217.7576,387.127,227.7576,391.127,223.7576,387.127" style="stroke:#000000;stroke-width:1.0;"/><line style="stroke:#000000;stroke-width:1.0;stroke-dasharray:2.0,2.0;" x1="221.7576" x2="386.8123" y1="387.127" y2="387.127"/><text fill="#000000" font-family="Helvetica" font-size="14" lengthAdjust="spacing" textLength="28.7861" x="287.8918" y="382.0508">ACK</text><path d="M182.4958,400.127 L182.4958,429.127 L420.4958,429.127 L420.4958,410.127 L410.4958,400.127 L182.4958,400.127 " fill="#FFFFFF" style="stroke:#000000;stroke-width:1.0;"/><path d="M410.4958,400.127 L410.4958,410.127 L420.4958,410.127 L410.4958,400.127 " fill="#FFFFFF" style="stroke:#000000;stroke-width:1.0;"/><text fill="#000000" font-family="Helvetica" font-size="14" lengthAdjust="spacing" textLength="180.5439" x="207.2029" y="421.1709">Replication never completed!</text><rect fill="#FFFFFF" height="3" style="stroke:#FFFFFF;stroke-width:1.0;" width="329.8267" x="97.4958" y="456.8071"/><line style="stroke:#000000;stroke-width:0.5;" x1="97.4958" x2="427.3225" y1="456.8071" y2="456.8071"/><line style="stroke:#000000;stroke-width:0.5;" x1="97.4958" x2="427.3225" y1="459.8071" y2="459.8071"/><rect fill="#FFFFFF" height="27.1201" style="stroke:#000000;stroke-width:1.0;" width="108.1377" x="208.3403" y="444.2471"/><text fill="#000000" font-family="Helvetica" font-size="14" font-weight="bold" lengthAdjust="spacing" textLength="90.248" x="214.3403" y="464.291">After Failover</text><polygon fill="#000000" points="375.8123,502.4873,385.8123,506.4873,375.8123,510.4873,379.8123,506.4873" style="stroke:#000000;stroke-width:1.0;"/><line style="stroke:#000000;stroke-width:1.0;" x1="127.3923" x2="381.8123" y1="506.4873" y2="506.4873"/><text fill="#000000" font-family="Helvetica" font-size="14" lengthAdjust="spacing" textLength="39.6689" x="237.7678" y="501.4111">GET x</text><polygon fill="#000000" points="138.3923,535.6074,128.3923,539.6074,138.3923,543.6074,134.3923,539.6074" style="stroke:#000000;stroke-width:1.0;"/><line style="stroke:#000000;stroke-width:1.0;stroke-dasharray:2.0,2.0;" x1="132.3923" x2="386.8123" y1="539.6074" y2="539.6074"/><text fill="#FF0000" font-family="Helvetica" font-size="14" lengthAdjust="spacing" textLength="23.3311" x="245.9368" y="534.5313">(nil)</text><path d="M102.4958,552.6074 L102.4958,619.6074 L412.4958,619.6074 L412.4958,562.6074 L402.4958,552.6074 L102.4958,552.6074 " fill="#FFEBEE" style="stroke:#000000;stroke-width:1.0;"/><path d="M402.4958,552.6074 L402.4958,562.6074 L412.4958,562.6074 L402.4958,552.6074 " fill="#FFEBEE" style="stroke:#000000;stroke-width:1.0;"/><text fill="#000000" font-family="Helvetica" font-size="14" font-weight="bold" lengthAdjust="spacing" textLength="76.2275" x="151.4717" y="573.6514">Data LOST!</text><text fill="#000000" font-family="Helvetica" font-size="14" lengthAdjust="spacing" textLength="203.875" x="151.4717" y="592.7715">Write was acknowledged but lost</text><text fill="#000000" font-family="Helvetica" font-size="14" lengthAdjust="spacing" textLength="123.7168" x="151.4717" y="611.8916">during master crash</text><!--SRC=[RLFHRjem57ttLrpWPPEAsaxRr2A8b0PddMX7HP3wxCINnAgnCzk1RLy_Eo4bxQQyEDV7vvnxhZro5UuHQic48lP5g9ePjeUS5I-bqOtYYPRQm2IbuHiWEEvO8rsgbVl1FCFu7kK1dIZO-F-eJFn1kFuysBJuiq5Lu2DQoqgCfIWL5AWS6aASS18XjhzLKHcjT6DXWxNq_4ve1LDOCiVWGLiBpq9nVII45SvRJQJm5C0i5EsAU35lIzJCLyUFp7hwSTZUjqlVMfeibv_UmZB93jYYR5Z19BcXNvDRGZfEc4RzyHbaT0k_uFhgYfnAKxzxmirWNeG0PwL1LD5wDRzi_oD2b7O8HfIL0xthyHDwatwXjmJwDafq5jOhNvZdqHrDrniwlymZCESiHWGLXq17NXr49zypsD2dX-z9lAK3dvssFdZaEGHwHscGwVmQv95NJ3PnTZyAYg_60ReCWGkqKA71WNwdEXt64oUhVmKlEd-UR3XKXG5Hw7qjqI4VDhPOGBmBX2aJiYLQB8RJwDlz5feSs7W_Xz3N1oNantU3Q2axy4K_ytCcUTJTjdMsRSFmjMSZ_B6Zlo7-gIXzbCXBv90t3gIspYDuOuGg-o0AmsnrRkWl]--></g></svg>