<svg xmlns="http://www.w3.org/2000/svg" xmlns:xlink="http://www.w3.org/1999/xlink" contentStyleType="text/css" height="409px" preserveAspectRatio="none" style="width:982px;height:409px;background:#FEFEFE;" version="1.1" viewBox="0 0 982 409" width="982px" zoomAndPan="magnify"><title>Production Topology - 6 Node Minimum</title><defs/><g><rect fill="#FEFEFE" height="409" style="stroke:none;stroke-width:1.0;" width="982" x="0" y="0"/><text fill="#000000" font-family="Helvetica" font-size="22" font-weight="bold" lengthAdjust="spacing" textLength="416.7539" x="278.373" y="40.2119">Production Topology - 6 Node Minimum</text><!--cluster az1--><g id="cluster_az1"><rect fill="#FFCDD2" height="140" rx="2.5" ry="2.5" style="stroke:#000000;stroke-width:1.0;" width="256" x="148.5" y="159.1559"/><text fill="#000000" font-family="Helvetica" font-size="14" font-weight="bold" lengthAdjust="spacing" textLength="122.9238" x="215.0381" y="177.1998">Availability Zone 1</text></g><!--cluster az2--><g id="cluster_az2"><rect fill="#C8E6C9" height="124" rx="2.5" ry="2.5" style="stroke:#000000;stroke-width:1.0;" width="219" x="466.5" y="167.1559"/><text fill="#000000" font-family="Helvetica" font-size="14" font-weight="bold" lengthAdjust="spacing" textLength="122.9238" x="514.5381" y="185.1998">Availability Zone 2</text></g><!--cluster az3--><g id="cluster_az3"><rect fill="#BBDEFB" height="124" rx="2.5" ry="2.5" style="stroke:#000000;stroke-width:1.0;" width="221" x="755.5" y="167.1559"/><text fill="#000000" font-family="Helvetica" font-size="14" font-weight="bold" lengthAdjust="spacing" textLength="122.9238" x="804.5381" y="185.1998">Availability Zone 3</text></g><!--entity masterA--><g id="elem_masterA"><path d="M304.5,237.1559 C304.5,227.1559 342.5068,227.1559 342.5068,227.1559 C342.5068,227.1559 380.5137,227.1559 380.5137,237.1559 L380.5137,265.276 C380.5137,275.276 342.5068,275.276 342.5068,275.276 C342.5068,275.276 304.5,275.276 304.5,265.276 L304.5,237.1559 " fill="#FFFFFF" style="stroke:#000000;stroke-width:1.0;"/><path d="M304.5,237.1559 C304.5,247.1559 342.5068,247.1559 342.5068,247.1559 C342.5068,247.1559 380.5137,247.1559 380.5137,237.1559 " fill="none" style="stroke:#000000;stroke-width:1.0;"/><text fill="#000000" font-family="Helvetica" font-size="14" lengthAdjust="spacing" textLength="56.0137" x="314.5" y="267.1998">Master A</text></g><!--entity slaveC--><g id="elem_slaveC"><path d="M192,237.1559 C192,227.1559 230.4033,227.1559 230.4033,227.1559 C230.4033,227.1559 268.8066,227.1559 268.8066,237.1559 L268.8066,265.276 C268.8066,275.276 230.4033,275.276 230.4033,275.276 C230.4033,275.276 192,275.276 192,265.276 L192,237.1559 " fill="#FFFFFF" style="stroke:#000000;stroke-width:1.0;"/><path d="M192,237.1559 C192,247.1559 230.4033,247.1559 230.4033,247.1559 C230.4033,247.1559 268.8066,247.1559 268.8066,237.1559 " fill="none" style="stroke:#000000;stroke-width:1.0;"/><text fill="#000000" font-family="Helvetica" font-size="14" lengthAdjust="spacing" textLength="56.8066" x="202" y="267.1998">Slave C1</text></g><!--entity masterB--><g id="elem_masterB"><path d="M593.5,237.1559 C593.5,227.1559 631.5068,227.1559 631.5068,227.1559 C631.5068,227.1559 669.5137,227.1559 669.5137,237.1559 L669.5137,265.276 C669.5137,275.276 631.5068,275.276 631.5068,275.276 C631.5068,275.276 593.5,275.276 593.5,265.276 L593.5,237.1559 " fill="#FFFFFF" style="stroke:#000000;stroke-width:1.0;"/><path d="M593.5,237.1559 C593.5,247.1559 631.5068,247.1559 631.5068,247.1559 C631.5068,247.1559 669.5137,247.1559 669.5137,237.1559 " fill="none" style="stroke:#000000;stroke-width:1.0;"/><text fill="#000000" font-family="Helvetica" font-size="14" lengthAdjust="spacing" textLength="56.0137" x="603.5" y="267.1998">Master B</text></g><!--entity slaveA--><g id="elem_slaveA"><path d="M482.5,237.1559 C482.5,227.1559 520.5171,227.1559 520.5171,227.1559 C520.5171,227.1559 558.5342,227.1559 558.5342,237.1559 L558.5342,265.276 C558.5342,275.276 520.5171,275.276 520.5171,275.276 C520.5171,275.276 482.5,275.276 482.5,265.276 L482.5,237.1559 " fill="#FFFFFF" style="stroke:#000000;stroke-width:1.0;"/><path d="M482.5,237.1559 C482.5,247.1559 520.5171,247.1559 520.5171,247.1559 C520.5171,247.1559 558.5342,247.1559 558.5342,237.1559 " fill="none" style="stroke:#000000;stroke-width:1.0;"/><text fill="#000000" font-family="Helvetica" font-size="14" lengthAdjust="spacing" textLength="56.0342" x="492.5" y="267.1998">Slave A1</text></g><!--entity masterC--><g id="elem_masterC"><path d="M883,237.1559 C883,227.1559 921.3931,227.1559 921.3931,227.1559 C921.3931,227.1559 959.7861,227.1559 959.7861,237.1559 L959.7861,265.276 C959.7861,275.276 921.3931,275.276 921.3931,275.276 C921.3931,275.276 883,275.276 883,265.276 L883,237.1559 " fill="#FFFFFF" style="stroke:#000000;stroke-width:1.0;"/><path d="M883,237.1559 C883,247.1559 921.3931,247.1559 921.3931,247.1559 C921.3931,247.1559 959.7861,247.1559 959.7861,237.1559 " fill="none" style="stroke:#000000;stroke-width:1.0;"/><text fill="#000000" font-family="Helvetica" font-size="14" lengthAdjust="spacing" textLength="56.7861" x="893" y="267.1998">Master C</text></g><!--entity slaveB--><g id="elem_slaveB"><path d="M771.5,237.1559 C771.5,227.1559 809.5171,227.1559 809.5171,227.1559 C809.5171,227.1559 847.5342,227.1559 847.5342,237.1559 L847.5342,265.276 C847.5342,275.276 809.5171,275.276 809.5171,275.276 C809.5171,275.276 771.5,275.276 771.5,265.276 L771.5,237.1559 " fill="#FFFFFF" style="stroke:#000000;stroke-width:1.0;"/><path d="M771.5,237.1559 C771.5,247.1559 809.5171,247.1559 809.5171,247.1559 C809.5171,247.1559 847.5342,247.1559 847.5342,237.1559 " fill="none" style="stroke:#000000;stroke-width:1.0;"/><text fill="#000000" font-family="Helvetica" font-size="14" lengthAdjust="spacing" textLength="56.0342" x="781.5" y="267.1998">Slave B1</text></g><g id="elem_GMN16"><path d="M11,354.1559 L11,402.3961 L302.2861,402.3961 L302.2861,364.1559 L292.2861,354.1559 L11,354.1559 " fill="#FFFFFF" style="stroke:#000000;stroke-width:1.0;"/><path d="M292.2861,354.1559 L292.2861,364.1559 L302.2861,364.1559 L292.2861,354.1559 " fill="#FFFFFF" style="stroke:#000000;stroke-width:1.0;"/><text fill="#000000" font-family="Helvetica" font-size="14" lengthAdjust="spacing" textLength="165.293" x="17" y="375.1998">Each master's slave is in a</text><text fill="#000000" font-family="Helvetica" font-size="14" font-weight="bold" lengthAdjust="spacing" textLength="101.1035" x="186.1826" y="375.1998">DIFFERENT AZ</text><text fill="#000000" font-family="Helvetica" font-size="14" lengthAdjust="spacing" textLength="215.1406" x="17" y="394.32">Single AZ failure = cluster survives</text></g><!--link masterA to slaveA--><g id="link_masterA_slaveA"><path d="M380.69,251.1559 C410.72,251.1559 446.36,251.1559 476.38,251.1559 " fill="none" id="masterA-to-slaveA" style="stroke:#000000;stroke-width:1.0;"/><polygon fill="#000000" points="482.38,251.1559,473.38,247.1559,477.38,251.1559,473.38,255.1559,482.38,251.1559" style="stroke:#000000;stroke-width:1.0;"/><text fill="#000000" font-family="Helvetica" font-size="14" lengthAdjust="spacing" textLength="58.3652" x="402.4795" y="225.1998">Replicate</text><text fill="#000000" font-family="Helvetica" font-size="14" lengthAdjust="spacing" textLength="65.3242" x="399" y="244.32">(cross-AZ)</text></g><!--link masterB to slaveB--><g id="link_masterB_slaveB"><path d="M669.69,251.1559 C699.72,251.1559 735.36,251.1559 765.38,251.1559 " fill="none" id="masterB-to-slaveB" style="stroke:#000000;stroke-width:1.0;"/><polygon fill="#000000" points="771.38,251.1559,762.38,247.1559,766.38,251.1559,762.38,255.1559,771.38,251.1559" style="stroke:#000000;stroke-width:1.0;"/><text fill="#000000" font-family="Helvetica" font-size="14" lengthAdjust="spacing" textLength="58.3652" x="691.4795" y="225.1998">Replicate</text><text fill="#000000" font-family="Helvetica" font-size="14" lengthAdjust="spacing" textLength="65.3242" x="688" y="244.32">(cross-AZ)</text></g><!--link masterC to slaveC--><g id="link_masterC_slaveC"><path d="M916.2,226.7259 C909.26,201.1859 894.41,162.2259 865.5,143.1559 C774.91,83.4059 730.44,129.1559 622,125.1559 C473.22,119.6659 412.34,62.0459 287.5,143.1559 C258.17,162.2159 244.5753,195.7946 237.4753,221.3646 " fill="none" id="masterC-to-slaveC" style="stroke:#000000;stroke-width:1.0;"/><polygon fill="#000000" points="235.87,227.1459,242.1321,219.5442,237.2077,222.3282,234.4237,217.4038,235.87,227.1459" style="stroke:#000000;stroke-width:1.0;"/><text fill="#000000" font-family="Helvetica" font-size="14" lengthAdjust="spacing" textLength="58.3652" x="559.4795" y="112.1998">Replicate</text><text fill="#000000" font-family="Helvetica" font-size="14" lengthAdjust="spacing" textLength="65.3242" x="556" y="131.32">(cross-AZ)</text></g><!--link masterA to masterB--><g id="link_masterA_masterB"><path d="M353.17,221.5597 C364.45,193.5297 385.19,154.0959 422,134.6559 C439.68,125.3159 447.02,133.8859 467,134.6559 C515.78,136.5459 535.9,116.0559 576.5,143.1559 C605.2,162.3159 618.1716,195.4438 624.8916,220.9538 " fill="none" id="masterA-masterB" style="stroke:#000000;stroke-width:1.0;"/><polygon fill="#000000" points="350.93,227.1259,358.0008,220.2699,352.7967,222.4874,350.5792,217.2833,350.93,227.1259" style="stroke:#000000;stroke-width:1.0;"/><polygon fill="#000000" points="626.42,226.7559,627.9954,217.0339,625.1463,221.9208,620.2593,219.0717,626.42,226.7559" style="stroke:#000000;stroke-width:1.0;"/><text fill="#000000" font-family="Helvetica" font-size="14" lengthAdjust="spacing" textLength="43.5723" x="423" y="121.6998">Gossip</text></g><!--link masterB to masterC--><g id="link_masterB_masterC"><path d="M651.3512,221.965 C671.9812,193.625 706.9,153.1859 753,134.6559 C799.52,115.9559 824.37,114.4759 865.5,143.1559 C893.91,162.9659 907.2767,195.9397 914.3867,221.2397 " fill="none" id="masterB-masterC" style="stroke:#000000;stroke-width:1.0;"/><polygon fill="#000000" points="647.82,226.8159,656.3507,221.8937,650.7626,222.7735,649.8828,217.1855,647.82,226.8159" style="stroke:#000000;stroke-width:1.0;"/><polygon fill="#000000" points="916.01,227.0159,917.4259,217.2693,914.6573,222.2024,909.7242,219.4337,916.01,227.0159" style="stroke:#000000;stroke-width:1.0;"/><text fill="#000000" font-family="Helvetica" font-size="14" lengthAdjust="spacing" textLength="43.5723" x="754" y="121.6998">Gossip</text></g><!--link az1 to GMN16--><g id="link_az1_GMN16"><path d="M156.5,299.3185 C156.5,299.487 156.5,299.6557 156.5,299.8244 C156.5,300.162 156.5,300.5002 156.5,300.839 C156.5,301.5165 156.5,302.1963 156.5,302.8781 C156.5,304.2416 156.5,305.6129 156.5,306.9892 C156.5,312.4944 156.5,318.0802 156.5,323.5723 C156.5,334.5565 156.5,345.1659 156.5,354.0059 " fill="none" id="az1-GMN16" style="stroke:#000000;stroke-width:1.0;stroke-dasharray:7.0,7.0;"/></g><!--SRC=[XPB1Rjim38RlUWekEMmx64FJeTYAB82bsDiE3OQcfs0NscOIeh9aIBA7TjYxLywypYqIH3e9-CYF-AatOKyrGQEHZV3tR1fqM4E1vVtEsTPKochhO9fd_HqH5MsnrI6t9gmmTfXy8zrHu18dnwarFn9SV1GYSD04FvojsZAmDN1dcoZPFK02Lx2o5S4D6wxRMWX7PK2pY_maxP0r5gmvFC36cjXi0kW17o_YUBbQBcVmMq0y5GOiqCUQ6_I17AG7i3uyqbV8McD7eFxsylr3YJzdnBD1F8Ef-fHTgS-dn78abaV5wKYSdXLV3k9Bc4gvp79vIgn6OdLKB4TYsOk7U22fx2-JB8QHu1fkgT5nhO5-cdUbizudwURzWCkNk3o3gvUuEea_JpDF7E_s8LRy4rx3rqXnypp1QqJzHuInWQ2m8TWQxBR_Ap6C3ClzmBuT4W3sm0OGviLY-JtFizjiTGVfPlwXMCIADHysacvW6rVIEe8lKEhs4BLlNSSTUK6cWjuddW00]--></g></svg>