<svg xmlns="http://www.w3.org/2000/svg" xmlns:xlink="http://www.w3.org/1999/xlink" contentStyleType="text/css" height="374px" preserveAspectRatio="none" style="width:1843px;height:374px;background:#FEFEFE;" version="1.1" viewBox="0 0 1843 374" width="1843px" zoomAndPan="magnify"><title>Redis Cluster Design Philosophy</title><defs/><g><rect fill="#FEFEFE" height="374" style="stroke:none;stroke-width:1.0;" width="1843" x="0" y="0"/><text fill="#000000" font-family="Helvetica" font-size="22" font-weight="bold" lengthAdjust="spacing" textLength="345.9521" x="744.0239" y="40.2119">Redis Cluster Design Philosophy</text><!--cluster choices--><g id="cluster_choices"><rect fill="#E3F2FD" height="106" rx="2.5" ry="2.5" style="stroke:#000000;stroke-width:1.0;" width="1687" x="150" y="63.0459"/><text fill="#000000" font-family="Helvetica" font-size="13" font-weight="bold" lengthAdjust="spacing" textLength="97.5254" x="944.7373" y="79.9438">Design Choices</text></g><!--cluster good--><g id="cluster_good"><rect fill="#E8F5E9" height="159" rx="2.5" ry="2.5" style="stroke:#000000;stroke-width:1.0;" width="237" x="12" y="209.0459"/><text fill="#000000" font-family="Helvetica" font-size="13" font-weight="bold" lengthAdjust="spacing" textLength="68.6309" x="96.1846" y="225.9438">Perfect For</text></g><!--cluster bad--><g id="cluster_bad"><rect fill="#FFEBEE" height="141" rx="2.5" ry="2.5" style="stroke:#000000;stroke-width:1.0;" width="231" x="289" y="218.0459"/><text fill="#000000" font-family="Helvetica" font-size="13" font-weight="bold" lengthAdjust="spacing" textLength="79.4473" x="364.7764" y="234.9438">Not Ideal For</text></g><!--entity g1--><g id="elem_g1"><rect fill="#C8E6C9" height="37.7544" rx="2.5" ry="2.5" style="stroke:#000000;stroke-width:1.0;" width="197.0171" x="1382.5" y="107.0459"/><text fill="#000000" font-family="Helvetica" font-size="13" lengthAdjust="spacing" textLength="177.0171" x="1392.5" y="131.9438">Chose: Decentralized (Gossip)</text></g><!--entity g1b--><g id="elem_g1b"><rect fill="#FFCDD2" height="37.7544" rx="2.5" ry="2.5" style="stroke:#000000;stroke-width:1.0;" width="197.7407" x="1615" y="107.0459"/><text fill="#000000" font-family="Helvetica" font-size="13" lengthAdjust="spacing" textLength="177.7407" x="1625" y="131.9438">Over: Centralized (ZooKeeper)</text></g><!--entity g2--><g id="elem_g2"><rect fill="#C8E6C9" height="37.7544" rx="2.5" ry="2.5" style="stroke:#000000;stroke-width:1.0;" width="155.8271" x="999" y="107.0459"/><text fill="#000000" font-family="Helvetica" font-size="13" lengthAdjust="spacing" textLength="135.8271" x="1009" y="131.9438">Chose: Availability (AP)</text></g><!--entity g2b--><g id="elem_g2b"><rect fill="#FFCDD2" height="37.7544" rx="2.5" ry="2.5" style="stroke:#000000;stroke-width:1.0;" width="156.5317" x="1190.5" y="107.0459"/><text fill="#000000" font-family="Helvetica" font-size="13" lengthAdjust="spacing" textLength="136.5317" x="1200.5" y="131.9438">Over: Consistency (CP)</text></g><!--entity g3--><g id="elem_g3"><rect fill="#C8E6C9" height="37.7544" rx="2.5" ry="2.5" style="stroke:#000000;stroke-width:1.0;" width="168.1289" x="609" y="107.0459"/><text fill="#000000" font-family="Helvetica" font-size="13" lengthAdjust="spacing" textLength="148.1289" x="619" y="131.9438">Chose: Async Replication</text></g><!--entity g3b--><g id="elem_g3b"><rect fill="#FFCDD2" height="37.7544" rx="2.5" ry="2.5" style="stroke:#000000;stroke-width:1.0;" width="152.2217" x="812" y="107.0459"/><text fill="#000000" font-family="Helvetica" font-size="13" lengthAdjust="spacing" textLength="132.2217" x="822" y="131.9438">Over: Sync Replication</text></g><!--entity g4--><g id="elem_g4"><rect fill="#C8E6C9" height="37.7544" rx="2.5" ry="2.5" style="stroke:#000000;stroke-width:1.0;" width="177.5234" x="193" y="107.0459"/><text fill="#000000" font-family="Helvetica" font-size="13" lengthAdjust="spacing" textLength="157.5234" x="203" y="131.9438">Chose: Fixed Slots (16384)</text></g><!--entity g4b--><g id="elem_g4b"><rect fill="#FFCDD2" height="37.7544" rx="2.5" ry="2.5" style="stroke:#000000;stroke-width:1.0;" width="168.1226" x="406" y="107.0459"/><text fill="#000000" font-family="Helvetica" font-size="13" lengthAdjust="spacing" textLength="148.1226" x="416" y="131.9438">Over: Consistent Hashing</text></g><!--entity goodUse--><g id="elem_goodUse"><rect fill="#FFFFFF" height="91.0176" rx="2.5" ry="2.5" style="stroke:#000000;stroke-width:1.0;" width="169.5889" x="55" y="253.0459"/><text fill="#000000" font-family="Helvetica" font-size="13" lengthAdjust="spacing" textLength="149.5889" x="65" y="277.9438">- High-throughput caching</text><text fill="#000000" font-family="Helvetica" font-size="13" lengthAdjust="spacing" textLength="101.1626" x="65" y="295.6982">- Session storage</text><text fill="#000000" font-family="Helvetica" font-size="13" lengthAdjust="spacing" textLength="117.7554" x="65" y="313.4526">- Real-time analytics</text><text fill="#000000" font-family="Helvetica" font-size="13" lengthAdjust="spacing" textLength="88.1689" x="65" y="331.207">- Leaderboards</text></g><!--entity badUse--><g id="elem_badUse"><rect fill="#FFFFFF" height="73.2632" rx="2.5" ry="2.5" style="stroke:#000000;stroke-width:1.0;" width="163.0825" x="332.5" y="262.0459"/><text fill="#000000" font-family="Helvetica" font-size="13" lengthAdjust="spacing" textLength="133.6689" x="342.5" y="286.9438">- Financial transactions</text><text fill="#000000" font-family="Helvetica" font-size="13" lengthAdjust="spacing" textLength="140.9053" x="342.5" y="304.6982">- Inventory management</text><text fill="#000000" font-family="Helvetica" font-size="13" lengthAdjust="spacing" textLength="143.0825" x="342.5" y="322.4526">- Data loss unacceptable</text></g><!--link g1 to g1b--><g id="link_g1_g1b"><path d="M1579.75,126.0459 C1591.46,126.0459 1597.18,126.0459 1608.89,126.0459 " fill="none" id="g1-to-g1b" style="stroke:#000000;stroke-width:1.0;"/><polygon fill="#000000" points="1614.89,126.0459,1605.89,122.0459,1609.89,126.0459,1605.89,130.0459,1614.89,126.0459" style="stroke:#000000;stroke-width:1.0;"/></g><!--link g2 to g2b--><g id="link_g2_g2b"><path d="M1155.38,126.0459 C1167.06,126.0459 1172.75,126.0459 1184.44,126.0459 " fill="none" id="g2-to-g2b" style="stroke:#000000;stroke-width:1.0;"/><polygon fill="#000000" points="1190.44,126.0459,1181.44,122.0459,1185.44,126.0459,1181.44,130.0459,1190.44,126.0459" style="stroke:#000000;stroke-width:1.0;"/></g><!--link g3 to g3b--><g id="link_g3_g3b"><path d="M777.17,126.0459 C788.71,126.0459 794.26,126.0459 805.8,126.0459 " fill="none" id="g3-to-g3b" style="stroke:#000000;stroke-width:1.0;"/><polygon fill="#000000" points="811.8,126.0459,802.8,122.0459,806.8,126.0459,802.8,130.0459,811.8,126.0459" style="stroke:#000000;stroke-width:1.0;"/></g><!--link g4 to g4b--><g id="link_g4_g4b"><path d="M371.38,126.0459 C382.81,126.0459 388.24,126.0459 399.67,126.0459 " fill="none" id="g4-to-g4b" style="stroke:#000000;stroke-width:1.0;"/><polygon fill="#000000" points="405.67,126.0459,396.67,122.0459,400.67,126.0459,396.67,130.0459,405.67,126.0459" style="stroke:#000000;stroke-width:1.0;"/></g><!--link choices to good--><g id="link_choices_good"><path d="M149.9435,128.9461 C149.8401,128.9726 149.7358,128.9995 149.6306,129.0266 C149.4203,129.0809 149.2066,129.1364 148.9894,129.193 C147.2521,129.6462 145.2981,130.175 143.1581,130.7828 C134.5981,133.214 123.0625,136.9109 110.5225,142.1034 C85.4425,152.4884 56.345,168.8559 39,193.0459 C35.615,197.7659 32.7753,202.9065 30.398,208.2928 C30.3237,208.4611 32.6423,203.1273 32.5689,203.2961 " fill="none" id="choices-to-good" style="stroke:#000000;stroke-width:1.0;"/><polygon fill="#000000" points="30.1765,208.7985,37.4333,202.1398,32.1701,204.2131,30.0968,198.9499,30.1765,208.7985" style="stroke:#000000;stroke-width:1.0;"/></g><!--link choices to bad--><g id="link_choices_bad"><path d="M165.4616,169.2901 C168.2013,175.3121 171.93,180.8684 177,185.0459 C199.12,203.2759 217.37,176.8259 241,193.0459 C262.38,207.7259 276.28,233.2709 284.8837,255.4296 C285.9592,258.1995 286.9519,260.9164 287.8662,263.5526 C288.0947,264.2117 288.3184,264.8657 288.5372,265.5142 C288.6466,265.8384 286.86,260.4684 286.967,260.7898 " fill="none" id="choices-to-bad" style="stroke:#000000;stroke-width:1.0;"/><polygon fill="#000000" points="288.8618,266.4828,289.8148,256.6802,287.2828,261.7387,282.2243,259.2066,288.8618,266.4828" style="stroke:#000000;stroke-width:1.0;"/></g><!--SRC=[ZLDDRzD04BtxLmp99HnyI1ogj0UauWzIWKhKY0lYCbvFxLKtizRk9X0G_xtZvgEc189zyQpdpNlxzkshqD2Ae3MeEV8Fcbjqk88IrKFjx9ghr1hhO5ZatTlhgEWUroOKbiCjoeJ1dCo6WbOuEDsrr3y8naaK1HqCmHrLsaDgrZwGWuoyhXaMZJRMsxRPHf4Z5P1hQHti_wQDrOhy0D23sdt3C4-AIP71poW2UNeWwVPq9PCLSN1eXBw2qNlhlMvVFysenp1CP_b5UlaI-sb3xWhIFl2BjH-8Md87R2cc56cMJVx6VBr1RR3KHeSjZAuNU-3a3AbbhyKJLW9AZw3pR7xBIbnjZHn1q9PtmEJVRClJeBDiXVukfYoD3Hv6uujaDjqBdVxdxWBCqJUQwpticV5N5Cd1n4xNJOZVTaP7ujbpFP4wwTM9rDDUFIr_oyw2tBrKK5YtexAsajJCYZVvfQJcXSeOvZ8d3eralsxQTG25gfFvbMDOacJ7ClXW7TRKBTqHcZXeoJyocgt4ttVB7mahSgL5L_aZwsTFtUPwRBSsm4qb8uxgIgmw8_9tUNvANA4PMMa1I33Pe-hEx8dnXZTYgdLRM8cIMkuqXsuzmu0WTyh3cb4fQWEMXWvSUqc7onHNzXjt7ehQFnQbFNe4]--></g></svg>