<svg xmlns="http://www.w3.org/2000/svg" xmlns:xlink="http://www.w3.org/1999/xlink" contentStyleType="text/css" height="366px" preserveAspectRatio="none" style="width:586px;height:366px;background:#FEFEFE;" version="1.1" viewBox="0 0 586 366" width="586px" zoomAndPan="magnify"><title>Master-Slave Replication</title><defs/><g><rect fill="#FEFEFE" height="366" style="stroke:none;stroke-width:1.0;" width="586" x="0" y="0"/><text fill="#000000" font-family="Helvetica" font-size="22" font-weight="bold" lengthAdjust="spacing" textLength="260.4229" x="158.728" y="40.2119">Master-Slave Replication</text><!--entity app--><g id="elem_app"><rect fill="#E3F2FD" height="39.1201" rx="2.5" ry="2.5" style="stroke:#000000;stroke-width:1.0;" width="88.4893" x="331.5" y="63.0459"/><text fill="#000000" font-family="Helvetica" font-size="14" lengthAdjust="spacing" textLength="68.4893" x="341.5" y="89.0898">Application</text></g><!--entity master--><g id="elem_master"><path d="M114.5,212.0459 C114.5,202.0459 165.7344,202.0459 165.7344,202.0459 C165.7344,202.0459 216.9688,202.0459 216.9688,212.0459 L216.9688,240.166 C216.9688,250.166 165.7344,250.166 165.7344,250.166 C165.7344,250.166 114.5,250.166 114.5,240.166 L114.5,212.0459 " fill="#FFCDD2" style="stroke:#000000;stroke-width:1.0;"/><path d="M114.5,212.0459 C114.5,222.0459 165.7344,222.0459 165.7344,222.0459 C165.7344,222.0459 216.9688,222.0459 216.9688,212.0459 " fill="none" style="stroke:#000000;stroke-width:1.0;"/><text fill="#000000" font-family="Helvetica" font-size="14" lengthAdjust="spacing" textLength="82.4688" x="124.5" y="242.0898">Redis Master</text></g><!--entity slave1--><g id="elem_slave1"><path d="M322.5,212.0459 C322.5,202.0459 375.6895,202.0459 375.6895,202.0459 C375.6895,202.0459 428.8789,202.0459 428.8789,212.0459 L428.8789,240.166 C428.8789,250.166 375.6895,250.166 375.6895,250.166 C375.6895,250.166 322.5,250.166 322.5,240.166 L322.5,212.0459 " fill="#C8E6C9" style="stroke:#000000;stroke-width:1.0;"/><path d="M322.5,212.0459 C322.5,222.0459 375.6895,222.0459 375.6895,222.0459 C375.6895,222.0459 428.8789,222.0459 428.8789,212.0459 " fill="none" style="stroke:#000000;stroke-width:1.0;"/><text fill="#000000" font-family="Helvetica" font-size="14" lengthAdjust="spacing" textLength="86.3789" x="332.5" y="242.0898">Redis Slave 1</text></g><!--entity slave2--><g id="elem_slave2"><path d="M463.5,212.0459 C463.5,202.0459 516.6895,202.0459 516.6895,202.0459 C516.6895,202.0459 569.8789,202.0459 569.8789,212.0459 L569.8789,240.166 C569.8789,250.166 516.6895,250.166 516.6895,250.166 C516.6895,250.166 463.5,250.166 463.5,240.166 L463.5,212.0459 " fill="#C8E6C9" style="stroke:#000000;stroke-width:1.0;"/><path d="M463.5,212.0459 C463.5,222.0459 516.6895,222.0459 516.6895,222.0459 C516.6895,222.0459 569.8789,222.0459 569.8789,212.0459 " fill="none" style="stroke:#000000;stroke-width:1.0;"/><text fill="#000000" font-family="Helvetica" font-size="14" lengthAdjust="spacing" textLength="86.3789" x="473.5" y="242.0898">Redis Slave 2</text></g><g id="elem_GMN11"><path d="M11,311.0459 L11,359.2861 A0,0 0 0 0 11,359.2861 L319.875,359.2861 A0,0 0 0 0 319.875,359.2861 L319.875,321.0459 L309.875,311.0459 L169.5,311.0459 L165.5,250.2659 L161.5,311.0459 L11,311.0459 A0,0 0 0 0 11,311.0459 " fill="#FFFFFF" style="stroke:#000000;stroke-width:1.0;"/><path d="M309.875,311.0459 L309.875,321.0459 L319.875,321.0459 L309.875,311.0459 " fill="#FFFFFF" style="stroke:#000000;stroke-width:1.0;"/><text fill="#000000" font-family="Helvetica" font-size="14" font-weight="bold" lengthAdjust="spacing" textLength="50.5654" x="17" y="332.0898">Solved:</text><text fill="#000000" font-family="Helvetica" font-size="14" lengthAdjust="spacing" textLength="184.4336" x="71.4551" y="332.0898">Read scalability, Data backup</text><text fill="#000000" font-family="Helvetica" font-size="14" font-weight="bold" lengthAdjust="spacing" textLength="77.7793" x="17" y="351.21">Not Solved:</text><text fill="#000000" font-family="Helvetica" font-size="14" lengthAdjust="spacing" textLength="206.2061" x="98.6689" y="351.21">No auto failover, Write bottleneck</text></g><!--link app to master--><g id="link_app_master"><path d="M331.43,85.9959 C294.13,90.2359 241.34,101.6359 206.5,132.0459 C185.76,150.1459 176.4986,174.8885 171.3186,196.0185 " fill="none" id="app-to-master" style="stroke:#000000;stroke-width:1.0;"/><polygon fill="#000000" points="169.89,201.8459,175.9179,194.0571,171.0805,196.9897,168.1479,192.1523,169.89,201.8459" style="stroke:#000000;stroke-width:1.0;"/><text fill="#000000" font-family="Helvetica" font-size="14" lengthAdjust="spacing" textLength="32.6621" x="207.5" y="158.5898">Write</text></g><!--link app to slave1--><g id="link_app_slave1"><path d="M375.5,102.3359 C375.5,128.0459 375.5,168.1559 375.5,195.9459 " fill="none" id="app-to-slave1" style="stroke:#000000;stroke-width:1.0;"/><polygon fill="#000000" points="375.5,201.9459,379.5,192.9459,375.5,196.9459,371.5,192.9459,375.5,201.9459" style="stroke:#000000;stroke-width:1.0;"/><text fill="#000000" font-family="Helvetica" font-size="14" lengthAdjust="spacing" textLength="33.4688" x="376.5" y="158.5898">Read</text></g><!--link app to slave2--><g id="link_app_slave2"><path d="M394.22,102.3359 C419.84,128.0459 461.555,169.9056 489.245,197.6956 " fill="none" id="app-to-slave2" style="stroke:#000000;stroke-width:1.0;"/><polygon fill="#000000" points="493.48,201.9459,489.961,192.7472,489.9508,198.404,484.294,198.3938,493.48,201.9459" style="stroke:#000000;stroke-width:1.0;"/><text fill="#000000" font-family="Helvetica" font-size="14" lengthAdjust="spacing" textLength="33.4688" x="463.5" y="158.5898">Read</text></g><!--link master to slave1--><g id="link_master_slave1"><path d="M216.6,226.0459 C248.65,226.0459 283.9,226.0459 316.33,226.0459 " fill="none" id="master-to-slave1" style="stroke:#000000;stroke-width:1.0;"/><polygon fill="#000000" points="322.33,226.0459,313.33,222.0459,317.33,226.0459,313.33,230.0459,322.33,226.0459" style="stroke:#000000;stroke-width:1.0;"/><text fill="#000000" font-family="Helvetica" font-size="14" lengthAdjust="spacing" textLength="38.124" x="250.5688" y="200.0898">Async</text><text fill="#000000" font-family="Helvetica" font-size="14" lengthAdjust="spacing" textLength="69.2617" x="235" y="219.21">Replication</text></g><!--link master to slave2--><g id="link_master_slave2"><path d="M181.79,201.8359 C196.65,182.0959 220.6,155.6559 249,144.0459 C331.5,110.3059 428.2175,163.6787 479.1875,198.5387 " fill="none" id="master-to-slave2" style="stroke:#000000;stroke-width:1.0;"/><polygon fill="#000000" points="484.14,201.9259,478.9694,193.5435,480.0129,199.1033,474.4532,200.1468,484.14,201.9259" style="stroke:#000000;stroke-width:1.0;"/><text fill="#000000" font-family="Helvetica" font-size="14" lengthAdjust="spacing" textLength="38.124" x="265.5688" y="149.0898">Async</text><text fill="#000000" font-family="Helvetica" font-size="14" lengthAdjust="spacing" textLength="69.2617" x="250" y="168.21">Replication</text></g><!--SRC=[TPB1Ri8m38RlUGglNAackcdQ4492BTKkum27NNPn6mCHQL8bBXDx-gMbR9rWoiMAF_l_xUIEzrGHr1gL4VwWJ8qEAoYmFEoSROnChROEHlcoFGD2qXORpRarlCBG8NebVIHM9KQtgOtw8fWy2i6ADS4RUYONRpGU2TPKwr39oXeX79MCPXUOQ57_t4U07h2kORHyo9Cy4q8YOu4-O6kIolSTEwxgmk0wJxCikIBFefCEzMqyWL7wl7nAN_v1aryq-K55woQMzjF4yulY5DwTOlgJwXMcOKgKrvdaaX5zZzYftPw7XGj_CkM76Mxf9flSPeMnJ51OPbk1tVPU1S2ic6ziU3KvdTqNyyu5-18r5aehFeqX2zle_a9Jd_6LPHYMh2nWmnQsgBGzaXkVv-_4D1ag3uACXDQ0-0O0]--></g></svg>