<svg xmlns="http://www.w3.org/2000/svg" xmlns:xlink="http://www.w3.org/1999/xlink" contentStyleType="text/css" height="378px" preserveAspectRatio="none" style="width:715px;height:378px;background:#FEFEFE;" version="1.1" viewBox="0 0 715 378" width="715px" zoomAndPan="magnify"><title>Sentinel Mode - High Availability</title><defs/><g><rect fill="#FEFEFE" height="378" style="stroke:none;stroke-width:1.0;" width="715" x="0" y="0"/><text fill="#000000" font-family="Helvetica" font-size="22" font-weight="bold" lengthAdjust="spacing" textLength="339.8184" x="183.499" y="40.2119">Sentinel Mode - High Availability</text><!--cluster sentinel_group--><g id="cluster_sentinel_group"><rect fill="#FFF9C4" height="131" rx="2.5" ry="2.5" style="stroke:#000000;stroke-width:1.0;" width="453" x="12" y="107.6221"/><text fill="#000000" font-family="Helvetica" font-size="14" font-weight="bold" lengthAdjust="spacing" textLength="106.5791" x="185.2104" y="125.666">Sentinel Cluster</text></g><!--entity s1--><g id="elem_s1"><rect fill="#FFFFFF" height="39.1201" rx="2.5" ry="2.5" style="stroke:#000000;stroke-width:1.0;" width="82.2686" x="153" y="175.6221"/><text fill="#000000" font-family="Helvetica" font-size="14" lengthAdjust="spacing" textLength="62.2686" x="163" y="201.666">Sentinel 1</text></g><!--entity s2--><g id="elem_s2"><rect fill="#FFFFFF" height="39.1201" rx="2.5" ry="2.5" style="stroke:#000000;stroke-width:1.0;" width="82.2686" x="340" y="175.6221"/><text fill="#000000" font-family="Helvetica" font-size="14" lengthAdjust="spacing" textLength="62.2686" x="350" y="201.666">Sentinel 2</text></g><!--entity s3--><g id="elem_s3"><rect fill="#FFFFFF" height="39.1201" rx="2.5" ry="2.5" style="stroke:#000000;stroke-width:1.0;" width="82.2686" x="36" y="175.6221"/><text fill="#000000" font-family="Helvetica" font-size="14" lengthAdjust="spacing" textLength="62.2686" x="46" y="201.666">Sentinel 3</text></g><!--entity app--><g id="elem_app"><rect fill="#E3F2FD" height="39.1201" rx="2.5" ry="2.5" style="stroke:#000000;stroke-width:1.0;" width="88.4893" x="522" y="175.6221"/><text fill="#000000" font-family="Helvetica" font-size="14" lengthAdjust="spacing" textLength="68.4893" x="532" y="201.666">Application</text></g><!--entity master--><g id="elem_master"><path d="M78,323.6221 C78,313.6221 129.2344,313.6221 129.2344,313.6221 C129.2344,313.6221 180.4688,313.6221 180.4688,323.6221 L180.4688,351.7422 C180.4688,361.7422 129.2344,361.7422 129.2344,361.7422 C129.2344,361.7422 78,361.7422 78,351.7422 L78,323.6221 " fill="#FFCDD2" style="stroke:#000000;stroke-width:1.0;"/><path d="M78,323.6221 C78,333.6221 129.2344,333.6221 129.2344,333.6221 C129.2344,333.6221 180.4688,333.6221 180.4688,323.6221 " fill="none" style="stroke:#000000;stroke-width:1.0;"/><text fill="#000000" font-family="Helvetica" font-size="14" lengthAdjust="spacing" textLength="82.4688" x="88" y="353.666">Redis Master</text></g><!--entity slave--><g id="elem_slave"><path d="M285.5,323.6221 C285.5,313.6221 332.8516,313.6221 332.8516,313.6221 C332.8516,313.6221 380.2031,313.6221 380.2031,323.6221 L380.2031,351.7422 C380.2031,361.7422 332.8516,361.7422 332.8516,361.7422 C332.8516,361.7422 285.5,361.7422 285.5,351.7422 L285.5,323.6221 " fill="#C8E6C9" style="stroke:#000000;stroke-width:1.0;"/><path d="M285.5,323.6221 C285.5,333.6221 332.8516,333.6221 332.8516,333.6221 C332.8516,333.6221 380.2031,333.6221 380.2031,323.6221 " fill="none" style="stroke:#000000;stroke-width:1.0;"/><text fill="#000000" font-family="Helvetica" font-size="14" lengthAdjust="spacing" textLength="74.7031" x="295.5" y="353.666">Redis Slave</text></g><g id="elem_GMN16"><path d="M415.5,313.6221 L415.5,361.8623 L708.8164,361.8623 L708.8164,323.6221 L698.8164,313.6221 L415.5,313.6221 " fill="#FFFFFF" style="stroke:#000000;stroke-width:1.0;"/><path d="M698.8164,313.6221 L698.8164,323.6221 L708.8164,323.6221 L698.8164,313.6221 " fill="#FFFFFF" style="stroke:#000000;stroke-width:1.0;"/><text fill="#000000" font-family="Helvetica" font-size="14" font-weight="bold" lengthAdjust="spacing" textLength="50.5654" x="421.5" y="334.666">Solved:</text><text fill="#000000" font-family="Helvetica" font-size="14" lengthAdjust="spacing" textLength="148.5928" x="475.9551" y="334.666">Automatic Failover (HA)</text><text fill="#000000" font-family="Helvetica" font-size="14" font-weight="bold" lengthAdjust="spacing" textLength="31.8896" x="421.5" y="353.7861">Gap:</text><text fill="#000000" font-family="Helvetica" font-size="14" lengthAdjust="spacing" textLength="236.5371" x="457.2793" y="353.7861">Still single master, cannot scale writes</text></g><!--link app to master--><g id="link_app_master"><path d="M541.57,214.6221 C523.49,227.5121 497.8,244.2021 473,254.6221 C420.36,276.7421 268.5025,308.8203 186.1725,325.3603 " fill="none" id="app-to-master" style="stroke:#000000;stroke-width:1.0;"/><polygon fill="#000000" points="180.29,326.5421,189.9016,328.691,185.1921,325.5573,188.3258,320.8478,180.29,326.5421" style="stroke:#000000;stroke-width:1.0;"/><text fill="#000000" font-family="Helvetica" font-size="14" lengthAdjust="spacing" textLength="70.0205" x="446" y="279.666">Read/Write</text></g><!--link master to slave--><g id="link_master_slave"><path d="M180.21,337.6221 C212.44,337.6221 247.73,337.6221 279.27,337.6221 " fill="none" id="master-to-slave" style="stroke:#000000;stroke-width:1.0;"/><polygon fill="#000000" points="285.27,337.6221,276.27,333.6221,280.27,337.6221,276.27,341.6221,285.27,337.6221" style="stroke:#000000;stroke-width:1.0;"/><text fill="#000000" font-family="Helvetica" font-size="14" lengthAdjust="spacing" textLength="69.2617" x="198.25" y="330.666">Replication</text></g><!--link s1 to master--><g id="link_s1_master"><path d="M185.37,214.7821 C173.63,240.1621 155.1397,280.1168 142.3497,307.7568 " fill="none" id="s1-to-master" style="stroke:#000000;stroke-width:1.0;"/><polygon fill="#000000" points="139.83,313.2021,147.2398,306.714,141.9298,308.6643,139.9794,303.3543,139.83,313.2021" style="stroke:#000000;stroke-width:1.0;"/><text fill="#000000" font-family="Helvetica" font-size="14" lengthAdjust="spacing" textLength="46.6826" x="163" y="279.666">Monitor</text></g><!--link s2 to master--><g id="link_s2_master"><path d="M347.8,214.6321 C302.22,240.0421 225.5408,282.8008 175.9008,310.4708 " fill="none" id="s2-to-master" style="stroke:#000000;stroke-width:1.0;"/><polygon fill="#000000" points="170.66,313.3921,180.4687,312.504,175.0273,310.9577,176.5737,305.5163,170.66,313.3921" style="stroke:#000000;stroke-width:1.0;"/><text fill="#000000" font-family="Helvetica" font-size="14" lengthAdjust="spacing" textLength="46.6826" x="256" y="279.666">Monitor</text></g><!--link s3 to master--><g id="link_s3_master"><path d="M76.87,214.9321 C77.35,233.1421 79.76,261.2321 89,283.6221 C93.4,294.2821 96.7158,300.0037 103.6958,308.7437 " fill="none" id="s3-to-master" style="stroke:#000000;stroke-width:1.0;"/><polygon fill="#000000" points="107.44,313.4321,104.9492,303.9034,104.3198,309.5251,98.6981,308.8957,107.44,313.4321" style="stroke:#000000;stroke-width:1.0;"/><text fill="#000000" font-family="Helvetica" font-size="14" lengthAdjust="spacing" textLength="46.6826" x="90" y="279.666">Monitor</text></g><!--link s1 to s2--><g id="link_s1_s2"><path d="M241.04,195.1221 C272.11,195.1221 302.61,195.1221 333.74,195.1221 " fill="none" id="s1-s2" style="stroke:#000000;stroke-width:1.0;"/><polygon fill="#000000" points="235.04,195.1221,244.04,199.1221,240.04,195.1221,244.04,191.1221,235.04,195.1221" style="stroke:#000000;stroke-width:1.0;"/><polygon fill="#000000" points="339.74,195.1221,330.74,191.1221,334.74,195.1221,330.74,199.1221,339.74,195.1221" style="stroke:#000000;stroke-width:1.0;"/><text fill="#000000" font-family="Helvetica" font-size="14" lengthAdjust="spacing" textLength="68.4893" x="253.5" y="188.166">Coordinate</text></g><!--link s2 to s3--><g id="link_s2_s3"><path d="M363.0163,170.5283 C343.2763,145.0383 308.68,106.7921 264,89.6221 C261.96,88.8321 142.2,87.2421 135,91.6221 C104.56,110.1521 90.4383,145.1358 83.3983,169.6158 " fill="none" id="s2-s3" style="stroke:#000000;stroke-width:1.0;"/><polygon fill="#000000" points="366.69,175.2721,364.342,165.7072,363.6286,171.3189,358.0169,170.6055,366.69,175.2721" style="stroke:#000000;stroke-width:1.0;"/><polygon fill="#000000" points="81.74,175.3821,88.0716,167.8382,83.1219,170.5768,80.3832,165.6271,81.74,175.3821" style="stroke:#000000;stroke-width:1.0;"/><text fill="#000000" font-family="Helvetica" font-size="14" lengthAdjust="spacing" textLength="68.4893" x="195" y="79.666">Coordinate</text></g><!--link sentinel_group to GMN16--><g id="link_sentinel_group_GMN16"><path d="M465.229,207.1311 C465.3138,207.2446 465.3991,207.3589 465.485,207.4738 C466.1722,208.3935 466.8946,209.3604 467.6498,210.3711 C473.6916,218.4571 481.8319,229.3508 490.8113,241.3671 C508.77,265.3996 530.085,293.9221 544.68,313.4521 " fill="none" id="sentinel_group-GMN16" style="stroke:#000000;stroke-width:1.0;stroke-dasharray:7.0,7.0;"/></g><!--SRC=[VPB1Rjim38RlV0eklMp0WY9sCQn5421mukQI7Uh3ZWDjiQbGHJ8a9iKsxDr7nMtMhasbYqH-97-A-Y1tl6Ni7LaFwTxwdY9jiQNkVXF3pfigk13nh5xc_OmmV4ix9tNmyeqqmsZ5RizYEngzJJNs5-Fa0a2iECQ6lLZF3jV1C8vnPJTtED-JTTHQP-KdGEHEo6yK7XtfoksIS1mX9KoFnXzPQQyQw_goki3VWBhU2fuCOPEJG340nKcW780I_hoGD-zxfvsB3Vu0KAzobcLTr0i0Gq8j9SLksDY4Qpfsi3qSi_9giIXUaOsZFGyLymdFgg_BBzKbGCu_Dk71ZsTFEQxmXicSVuzM61vjuwYFAieCuHavwWH8azSvri5R2H5IyOwlFEtBIQV_oXRggaA8ndfIMNf_vYnVEi47OMo3IDXYkFrlkZgHQJjhWlunSpKzRsSutocehNHOwwS9UzNnSJN_D83Nr0zK8zOvJFOmfq7kP-p8Qp5C7Qdn8RzO0lO6imBu2m00]--></g></svg>