<svg xmlns="http://www.w3.org/2000/svg" xmlns:xlink="http://www.w3.org/1999/xlink" contentStyleType="text/css" height="370px" preserveAspectRatio="none" style="width:878px;height:370px;background:#FEFEFE;" version="1.1" viewBox="0 0 878 370" width="878px" zoomAndPan="magnify"><title>Redis Cluster - Multi-Master Architecture</title><defs/><g><rect fill="#FEFEFE" height="370" style="stroke:none;stroke-width:1.0;" width="878" x="0" y="0"/><text fill="#000000" font-family="Helvetica" font-size="22" font-weight="bold" lengthAdjust="spacing" textLength="426.6367" x="221.2349" y="40.2119">Redis Cluster - Multi-Master Architecture</text><!--cluster cluster--><g id="cluster_cluster"><rect fill="#F3E5F5" height="301" rx="2.5" ry="2.5" style="stroke:#000000;stroke-width:1.0;" width="602" x="12" y="63.0459"/><text fill="#000000" font-family="Helvetica" font-size="14" font-weight="bold" lengthAdjust="spacing" textLength="90.248" x="267.876" y="81.0898">Redis Cluster</text></g><!--entity masterA--><g id="elem_masterA"><path d="M44.5,127.0459 C44.5,117.0459 93.8032,117.0459 93.8032,117.0459 C93.8032,117.0459 143.1064,117.0459 143.1064,127.0459 L143.1064,174.2861 C143.1064,184.2861 93.8032,184.2861 93.8032,184.2861 C93.8032,184.2861 44.5,184.2861 44.5,174.2861 L44.5,127.0459 " fill="#FFCDD2" style="stroke:#000000;stroke-width:1.0;"/><path d="M44.5,127.0459 C44.5,137.0459 93.8032,137.0459 93.8032,137.0459 C93.8032,137.0459 143.1064,137.0459 143.1064,127.0459 " fill="none" style="stroke:#000000;stroke-width:1.0;"/><text fill="#000000" font-family="Helvetica" font-size="14" lengthAdjust="spacing" textLength="56.0137" x="54.5" y="157.0898">Master A</text><text fill="#000000" font-family="Helvetica" font-size="14" lengthAdjust="spacing" textLength="78.6064" x="54.5" y="176.21">Slots 0-5460</text></g><!--entity masterB--><g id="elem_masterB"><path d="M223,127.0459 C223,117.0459 287.8755,117.0459 287.8755,117.0459 C287.8755,117.0459 352.751,117.0459 352.751,127.0459 L352.751,174.2861 C352.751,184.2861 287.8755,184.2861 287.8755,184.2861 C287.8755,184.2861 223,184.2861 223,174.2861 L223,127.0459 " fill="#FFCDD2" style="stroke:#000000;stroke-width:1.0;"/><path d="M223,127.0459 C223,137.0459 287.8755,137.0459 287.8755,137.0459 C287.8755,137.0459 352.751,137.0459 352.751,127.0459 " fill="none" style="stroke:#000000;stroke-width:1.0;"/><text fill="#000000" font-family="Helvetica" font-size="14" lengthAdjust="spacing" textLength="56.0137" x="233" y="157.0898">Master B</text><text fill="#000000" font-family="Helvetica" font-size="14" lengthAdjust="spacing" textLength="109.751" x="233" y="176.21">Slots 5461-10922</text></g><!--entity masterC--><g id="elem_masterC"><path d="M433,127.0459 C433,117.0459 501.7686,117.0459 501.7686,117.0459 C501.7686,117.0459 570.5371,117.0459 570.5371,127.0459 L570.5371,174.2861 C570.5371,184.2861 501.7686,184.2861 501.7686,184.2861 C501.7686,184.2861 433,184.2861 433,174.2861 L433,127.0459 " fill="#FFCDD2" style="stroke:#000000;stroke-width:1.0;"/><path d="M433,127.0459 C433,137.0459 501.7686,137.0459 501.7686,137.0459 C501.7686,137.0459 570.5371,137.0459 570.5371,127.0459 " fill="none" style="stroke:#000000;stroke-width:1.0;"/><text fill="#000000" font-family="Helvetica" font-size="14" lengthAdjust="spacing" textLength="56.7861" x="443" y="157.0898">Master C</text><text fill="#000000" font-family="Helvetica" font-size="14" lengthAdjust="spacing" textLength="117.5371" x="443" y="176.21">Slots 10923-16383</text></g><!--entity slaveA--><g id="elem_slaveA"><path d="M139,294.0459 C139,284.0459 177.0171,284.0459 177.0171,284.0459 C177.0171,284.0459 215.0342,284.0459 215.0342,294.0459 L215.0342,322.166 C215.0342,332.166 177.0171,332.166 177.0171,332.166 C177.0171,332.166 139,332.166 139,322.166 L139,294.0459 " fill="#C8E6C9" style="stroke:#000000;stroke-width:1.0;"/><path d="M139,294.0459 C139,304.0459 177.0171,304.0459 177.0171,304.0459 C177.0171,304.0459 215.0342,304.0459 215.0342,294.0459 " fill="none" style="stroke:#000000;stroke-width:1.0;"/><text fill="#000000" font-family="Helvetica" font-size="14" lengthAdjust="spacing" textLength="56.0342" x="149" y="324.0898">Slave A1</text></g><!--entity slaveB--><g id="elem_slaveB"><path d="M250,294.0459 C250,284.0459 288.0171,284.0459 288.0171,284.0459 C288.0171,284.0459 326.0342,284.0459 326.0342,294.0459 L326.0342,322.166 C326.0342,332.166 288.0171,332.166 288.0171,332.166 C288.0171,332.166 250,332.166 250,322.166 L250,294.0459 " fill="#C8E6C9" style="stroke:#000000;stroke-width:1.0;"/><path d="M250,294.0459 C250,304.0459 288.0171,304.0459 288.0171,304.0459 C288.0171,304.0459 326.0342,304.0459 326.0342,294.0459 " fill="none" style="stroke:#000000;stroke-width:1.0;"/><text fill="#000000" font-family="Helvetica" font-size="14" lengthAdjust="spacing" textLength="56.0342" x="260" y="324.0898">Slave B1</text></g><!--entity slaveC--><g id="elem_slaveC"><path d="M361.5,294.0459 C361.5,284.0459 399.9033,284.0459 399.9033,284.0459 C399.9033,284.0459 438.3066,284.0459 438.3066,294.0459 L438.3066,322.166 C438.3066,332.166 399.9033,332.166 399.9033,332.166 C399.9033,332.166 361.5,332.166 361.5,322.166 L361.5,294.0459 " fill="#C8E6C9" style="stroke:#000000;stroke-width:1.0;"/><path d="M361.5,294.0459 C361.5,304.0459 399.9033,304.0459 399.9033,304.0459 C399.9033,304.0459 438.3066,304.0459 438.3066,294.0459 " fill="none" style="stroke:#000000;stroke-width:1.0;"/><text fill="#000000" font-family="Helvetica" font-size="14" lengthAdjust="spacing" textLength="56.8066" x="371.5" y="324.0898">Slave C1</text></g><g id="elem_GMN14"><path d="M638.5,265.0459 L638.5,351.5264 L871.1064,351.5264 L871.1064,275.0459 L861.1064,265.0459 L638.5,265.0459 " fill="#FFFFFF" style="stroke:#000000;stroke-width:1.0;"/><path d="M861.1064,265.0459 L861.1064,275.0459 L871.1064,275.0459 L861.1064,265.0459 " fill="#FFFFFF" style="stroke:#000000;stroke-width:1.0;"/><text fill="#000000" font-family="Helvetica" font-size="14" font-weight="bold" lengthAdjust="spacing" textLength="92.5928" x="644.5" y="286.0898">Key Features:</text><text fill="#000000" font-family="Helvetica" font-size="14" lengthAdjust="spacing" textLength="198.4199" x="644.5" y="305.21">- Decentralized (No ZooKeeper)</text><text fill="#000000" font-family="Helvetica" font-size="14" lengthAdjust="spacing" textLength="211.6064" x="644.5" y="324.3301">- Multi-Master (Horizontal Scaling)</text><text fill="#000000" font-family="Helvetica" font-size="14" lengthAdjust="spacing" textLength="124.4824" x="644.5" y="343.4502">- Automatic Failover</text></g><!--link masterA to slaveA--><g id="link_masterA_slaveA"><path d="M111.4,184.1459 C127.28,213.8859 147.5361,251.832 161.6561,278.302 " fill="none" id="masterA-to-slaveA" style="stroke:#000000;stroke-width:1.0;"/><polygon fill="#000000" points="164.48,283.5959,163.7733,273.7724,162.1267,279.1843,156.7148,277.5377,164.48,283.5959" style="stroke:#000000;stroke-width:1.0;"/><text fill="#000000" font-family="Helvetica" font-size="14" lengthAdjust="spacing" textLength="58.3652" x="139" y="231.0898">Replicate</text></g><!--link masterB to slaveB--><g id="link_masterB_slaveB"><path d="M288,184.1459 C288,213.8859 288,251.1259 288,277.5959 " fill="none" id="masterB-to-slaveB" style="stroke:#000000;stroke-width:1.0;"/><polygon fill="#000000" points="288,283.5959,292,274.5959,288,278.5959,284,274.5959,288,283.5959" style="stroke:#000000;stroke-width:1.0;"/><text fill="#000000" font-family="Helvetica" font-size="14" lengthAdjust="spacing" textLength="58.3652" x="289" y="231.0898">Replicate</text></g><!--link masterC to slaveC--><g id="link_masterC_slaveC"><path d="M480.62,184.1459 C461.11,213.8859 436.0305,252.1087 418.6705,278.5787 " fill="none" id="masterC-to-slaveC" style="stroke:#000000;stroke-width:1.0;"/><polygon fill="#000000" points="415.38,283.5959,423.6606,278.2637,418.1221,279.4149,416.9709,273.8764,415.38,283.5959" style="stroke:#000000;stroke-width:1.0;"/><text fill="#000000" font-family="Helvetica" font-size="14" lengthAdjust="spacing" textLength="58.3652" x="462" y="231.0898">Replicate</text></g><!--link masterA to masterB--><g id="link_masterA_masterB"><path d="M149.71,150.5459 C173.73,150.5459 190.88,150.5459 216.67,150.5459 " fill="none" id="masterA-masterB" style="stroke:#000000;stroke-width:1.0;"/><polygon fill="#000000" points="143.71,150.5459,152.71,154.5459,148.71,150.5459,152.71,146.5459,143.71,150.5459" style="stroke:#000000;stroke-width:1.0;"/><polygon fill="#000000" points="222.67,150.5459,213.67,146.5459,217.67,150.5459,213.67,154.5459,222.67,150.5459" style="stroke:#000000;stroke-width:1.0;"/><text fill="#000000" font-family="Helvetica" font-size="14" lengthAdjust="spacing" textLength="43.5723" x="161.75" y="143.5898">Gossip</text></g><!--link masterB to masterC--><g id="link_masterB_masterC"><path d="M359.08,150.5459 C384.29,150.5459 401.18,150.5459 426.77,150.5459 " fill="none" id="masterB-masterC" style="stroke:#000000;stroke-width:1.0;"/><polygon fill="#000000" points="353.08,150.5459,362.08,154.5459,358.08,150.5459,362.08,146.5459,353.08,150.5459" style="stroke:#000000;stroke-width:1.0;"/><polygon fill="#000000" points="432.77,150.5459,423.77,146.5459,427.77,150.5459,423.77,154.5459,432.77,150.5459" style="stroke:#000000;stroke-width:1.0;"/><text fill="#000000" font-family="Helvetica" font-size="14" lengthAdjust="spacing" textLength="43.5723" x="371.5" y="143.5898">Gossip</text></g><!--link cluster to GMN14--><g id="link_cluster_GMN14"><path d="M614.0572,159.9502 C614.2384,160.1393 614.4222,160.3311 614.6086,160.5257 C614.9816,160.9149 615.3651,161.3152 615.759,161.7262 C616.5467,162.5483 617.3757,163.4135 618.2436,164.3192 C625.1866,171.565 634.6169,181.4065 645.3013,192.5571 C666.67,214.8584 693.055,242.3959 714.59,264.8759 " fill="none" id="cluster-GMN14" style="stroke:#000000;stroke-width:1.0;stroke-dasharray:7.0,7.0;"/></g><!--SRC=[XPD1J-Cm48Nl_XL3kS0XsgQb5LHLfSPj5Wd1ONj3UvaaGshXsf7jTBMi-EyxoH98Lg0wbqpolJSUv-KixEb0K6bKHlXdPIfqU80Cy-VIsTeKqchhu3pTDbUFAEW9QnrIQy83iiFeblIHWifnz3crKoy4yPKGGGLDy8CAvK7gsWTo4C4zOogwnxPSktol0kMXTYI4uniq9Oj60zK8q4F-vd2UJhUpT0P_1F0AjYIUpBsLpIemO8QUJRecFyrEs-1X7CskvkFMxT2-MhDRAZURoTVYf1EpD8xYySraqZD8JXl8pg3HJgDuFhsUzXpamE5Ld9vgf_58i8vR4zyKF8QytixbpPTqqgEJaxJiqN90lmhUONTsKM5_cMZLxM71dxhId8j0eZkT0P9yWiWX8WV8UwTbv5Iv3qnrnWluRhrNrNkd_n7vWGXZ0q5cGx07i4zTadYWPRQwez-G4ZO1z8lbjsp5ZoFOK4ucEDISvG8k7YmyMdj7L96xR851YYzkhLCl77tKiCjPPCf_rBhcbiZ_2gIej3roKp85DFiHVm40]--></g></svg>