<svg xmlns="http://www.w3.org/2000/svg" xmlns:xlink="http://www.w3.org/1999/xlink" contentStyleType="text/css" data-diagram-type="DESCRIPTION" height="365px" preserveAspectRatio="none" style="width:1426px;height:365px;background:#FEFEFE;" version="1.1" viewBox="0 0 1426 365" width="1426px" zoomAndPan="magnify"><title>Redis Cluster - Multi-Master Architecture - Special</title><defs/><g><rect fill="#FEFEFE" height="365" style="stroke:none;stroke-width:1;" width="1426" x="0" y="0"/><g class="title" data-source-line="6"><text fill="#000000" font-family="Helvetica" font-size="22" font-weight="bold" lengthAdjust="spacing" textLength="523.2305" x="446.938" y="38.7402">Redis Cluster - Multi-Master Architecture - Special</text></g><!--cluster cluster--><g class="cluster" data-entity="cluster" data-source-line="8" data-uid="ent0002" id="cluster_cluster"><rect fill="#F3E5F5" height="297" rx="2.5" ry="2.5" style="stroke:#000000;stroke-width:1;" width="1150" x="12" y="62.2617"/><text fill="#000000" font-family="Helvetica" font-size="14" font-weight="bold" lengthAdjust="spacing" textLength="90.248" x="541.876" y="79.3691">Redis Cluster</text></g><!--entity masterA--><g class="entity" data-entity="masterA" data-source-line="10" data-uid="ent0003" id="entity_masterA"><path d="M519.5,125.2617 C519.5,115.2617 561.0171,115.2617 561.0171,115.2617 C561.0171,115.2617 602.5342,115.2617 602.5342,125.2617 L602.5342,171.5039 C602.5342,181.5039 561.0171,181.5039 561.0171,181.5039 C561.0171,181.5039 519.5,181.5039 519.5,171.5039 L519.5,125.2617" fill="#FFCDD2" style="stroke:#000000;stroke-width:1;"/><path d="M519.5,125.2617 C519.5,135.2617 561.0171,135.2617 561.0171,135.2617 C561.0171,135.2617 602.5342,135.2617 602.5342,125.2617" fill="none" style="stroke:#000000;stroke-width:1;"/><text fill="#000000" font-family="Helvetica" font-size="14" lengthAdjust="spacing" textLength="56.0137" x="529.5" y="154.3691">Master A</text><text fill="#000000" font-family="Helvetica" font-size="14" lengthAdjust="spacing" textLength="63.0342" x="529.5" y="172.9902">Slots 0-99</text></g><!--entity masterB--><g class="entity" data-entity="masterB" data-source-line="11" data-uid="ent0004" id="entity_masterB"><path d="M682,125.2617 C682,115.2617 735.1963,115.2617 735.1963,115.2617 C735.1963,115.2617 788.3926,115.2617 788.3926,125.2617 L788.3926,171.5039 C788.3926,181.5039 735.1963,181.5039 735.1963,181.5039 C735.1963,181.5039 682,181.5039 682,171.5039 L682,125.2617" fill="#FFCDD2" style="stroke:#000000;stroke-width:1;"/><path d="M682,125.2617 C682,135.2617 735.1963,135.2617 735.1963,135.2617 C735.1963,135.2617 788.3926,135.2617 788.3926,125.2617" fill="none" style="stroke:#000000;stroke-width:1;"/><text fill="#000000" font-family="Helvetica" font-size="14" lengthAdjust="spacing" textLength="56.0137" x="692" y="154.3691">Master B</text><text fill="#000000" font-family="Helvetica" font-size="14" lengthAdjust="spacing" textLength="86.3926" x="692" y="172.9902">Slots 100-199</text></g><!--entity masterC--><g class="entity" data-entity="masterC" data-source-line="12" data-uid="ent0005" id="entity_masterC"><path d="M868,125.2617 C868,115.2617 928.9824,115.2617 928.9824,115.2617 C928.9824,115.2617 989.9648,115.2617 989.9648,125.2617 L989.9648,171.5039 C989.9648,181.5039 928.9824,181.5039 928.9824,181.5039 C928.9824,181.5039 868,181.5039 868,171.5039 L868,125.2617" fill="#FFCDD2" style="stroke:#000000;stroke-width:1;"/><path d="M868,125.2617 C868,135.2617 928.9824,135.2617 928.9824,135.2617 C928.9824,135.2617 989.9648,135.2617 989.9648,125.2617" fill="none" style="stroke:#000000;stroke-width:1;"/><text fill="#000000" font-family="Helvetica" font-size="14" lengthAdjust="spacing" textLength="56.7861" x="878" y="154.3691">Master C</text><text fill="#000000" font-family="Helvetica" font-size="14" lengthAdjust="spacing" textLength="101.9648" x="878" y="172.9902">Slots 200-16383</text></g><!--entity slaveA1--><g class="entity" data-entity="slaveA1" data-source-line="16" data-uid="ent0006" id="entity_slaveA1"><path d="M44,289.2617 C44,279.2617 82.0171,279.2617 82.0171,279.2617 C82.0171,279.2617 120.0342,279.2617 120.0342,289.2617 L120.0342,316.8828 C120.0342,326.8828 82.0171,326.8828 82.0171,326.8828 C82.0171,326.8828 44,326.8828 44,316.8828 L44,289.2617" fill="#C8E6C9" style="stroke:#000000;stroke-width:1;"/><path d="M44,289.2617 C44,299.2617 82.0171,299.2617 82.0171,299.2617 C82.0171,299.2617 120.0342,299.2617 120.0342,289.2617" fill="none" style="stroke:#000000;stroke-width:1;"/><text fill="#000000" font-family="Helvetica" font-size="14" lengthAdjust="spacing" textLength="56.0342" x="54" y="318.3691">Slave A1</text></g><!--entity slaveA2--><g class="entity" data-entity="slaveA2" data-source-line="17" data-uid="ent0007" id="entity_slaveA2"><path d="M155,289.2617 C155,279.2617 193.0171,279.2617 193.0171,279.2617 C193.0171,279.2617 231.0342,279.2617 231.0342,289.2617 L231.0342,316.8828 C231.0342,326.8828 193.0171,326.8828 193.0171,326.8828 C193.0171,326.8828 155,326.8828 155,316.8828 L155,289.2617" fill="#C8E6C9" style="stroke:#000000;stroke-width:1;"/><path d="M155,289.2617 C155,299.2617 193.0171,299.2617 193.0171,299.2617 C193.0171,299.2617 231.0342,299.2617 231.0342,289.2617" fill="none" style="stroke:#000000;stroke-width:1;"/><text fill="#000000" font-family="Helvetica" font-size="14" lengthAdjust="spacing" textLength="56.0342" x="165" y="318.3691">Slave A2</text></g><!--entity slaveA3--><g class="entity" data-entity="slaveA3" data-source-line="18" data-uid="ent0008" id="entity_slaveA3"><path d="M266,289.2617 C266,279.2617 304.0171,279.2617 304.0171,279.2617 C304.0171,279.2617 342.0342,279.2617 342.0342,289.2617 L342.0342,316.8828 C342.0342,326.8828 304.0171,326.8828 304.0171,326.8828 C304.0171,326.8828 266,326.8828 266,316.8828 L266,289.2617" fill="#C8E6C9" style="stroke:#000000;stroke-width:1;"/><path d="M266,289.2617 C266,299.2617 304.0171,299.2617 304.0171,299.2617 C304.0171,299.2617 342.0342,299.2617 342.0342,289.2617" fill="none" style="stroke:#000000;stroke-width:1;"/><text fill="#000000" font-family="Helvetica" font-size="14" lengthAdjust="spacing" textLength="56.0342" x="276" y="318.3691">Slave A3</text></g><!--entity slaveA4--><g class="entity" data-entity="slaveA4" data-source-line="19" data-uid="ent0009" id="entity_slaveA4"><path d="M377,289.2617 C377,279.2617 415.0171,279.2617 415.0171,279.2617 C415.0171,279.2617 453.0342,279.2617 453.0342,289.2617 L453.0342,316.8828 C453.0342,326.8828 415.0171,326.8828 415.0171,326.8828 C415.0171,326.8828 377,326.8828 377,316.8828 L377,289.2617" fill="#C8E6C9" style="stroke:#000000;stroke-width:1;"/><path d="M377,289.2617 C377,299.2617 415.0171,299.2617 415.0171,299.2617 C415.0171,299.2617 453.0342,299.2617 453.0342,289.2617" fill="none" style="stroke:#000000;stroke-width:1;"/><text fill="#000000" font-family="Helvetica" font-size="14" lengthAdjust="spacing" textLength="56.0342" x="387" y="318.3691">Slave A4</text></g><!--entity slaveA5--><g class="entity" data-entity="slaveA5" data-source-line="20" data-uid="ent0010" id="entity_slaveA5"><path d="M488,289.2617 C488,279.2617 526.0171,279.2617 526.0171,279.2617 C526.0171,279.2617 564.0342,279.2617 564.0342,289.2617 L564.0342,316.8828 C564.0342,326.8828 526.0171,326.8828 526.0171,326.8828 C526.0171,326.8828 488,326.8828 488,316.8828 L488,289.2617" fill="#C8E6C9" style="stroke:#000000;stroke-width:1;"/><path d="M488,289.2617 C488,299.2617 526.0171,299.2617 526.0171,299.2617 C526.0171,299.2617 564.0342,299.2617 564.0342,289.2617" fill="none" style="stroke:#000000;stroke-width:1;"/><text fill="#000000" font-family="Helvetica" font-size="14" lengthAdjust="spacing" textLength="56.0342" x="498" y="318.3691">Slave A5</text></g><!--entity slaveA6--><g class="entity" data-entity="slaveA6" data-source-line="21" data-uid="ent0011" id="entity_slaveA6"><path d="M599,289.2617 C599,279.2617 637.0171,279.2617 637.0171,279.2617 C637.0171,279.2617 675.0342,279.2617 675.0342,289.2617 L675.0342,316.8828 C675.0342,326.8828 637.0171,326.8828 637.0171,326.8828 C637.0171,326.8828 599,326.8828 599,316.8828 L599,289.2617" fill="#C8E6C9" style="stroke:#000000;stroke-width:1;"/><path d="M599,289.2617 C599,299.2617 637.0171,299.2617 637.0171,299.2617 C637.0171,299.2617 675.0342,299.2617 675.0342,289.2617" fill="none" style="stroke:#000000;stroke-width:1;"/><text fill="#000000" font-family="Helvetica" font-size="14" lengthAdjust="spacing" textLength="56.0342" x="609" y="318.3691">Slave A6</text></g><!--entity slaveA7--><g class="entity" data-entity="slaveA7" data-source-line="22" data-uid="ent0012" id="entity_slaveA7"><path d="M710,289.2617 C710,279.2617 748.0171,279.2617 748.0171,279.2617 C748.0171,279.2617 786.0342,279.2617 786.0342,289.2617 L786.0342,316.8828 C786.0342,326.8828 748.0171,326.8828 748.0171,326.8828 C748.0171,326.8828 710,326.8828 710,316.8828 L710,289.2617" fill="#C8E6C9" style="stroke:#000000;stroke-width:1;"/><path d="M710,289.2617 C710,299.2617 748.0171,299.2617 748.0171,299.2617 C748.0171,299.2617 786.0342,299.2617 786.0342,289.2617" fill="none" style="stroke:#000000;stroke-width:1;"/><text fill="#000000" font-family="Helvetica" font-size="14" lengthAdjust="spacing" textLength="56.0342" x="720" y="318.3691">Slave A7</text></g><!--entity slaveB1--><g class="entity" data-entity="slaveB1" data-source-line="23" data-uid="ent0013" id="entity_slaveB1"><path d="M821,289.2617 C821,279.2617 859.0171,279.2617 859.0171,279.2617 C859.0171,279.2617 897.0342,279.2617 897.0342,289.2617 L897.0342,316.8828 C897.0342,326.8828 859.0171,326.8828 859.0171,326.8828 C859.0171,326.8828 821,326.8828 821,316.8828 L821,289.2617" fill="#C8E6C9" style="stroke:#000000;stroke-width:1;"/><path d="M821,289.2617 C821,299.2617 859.0171,299.2617 859.0171,299.2617 C859.0171,299.2617 897.0342,299.2617 897.0342,289.2617" fill="none" style="stroke:#000000;stroke-width:1;"/><text fill="#000000" font-family="Helvetica" font-size="14" lengthAdjust="spacing" textLength="56.0342" x="831" y="318.3691">Slave B1</text></g><!--entity slaveC1--><g class="entity" data-entity="slaveC1" data-source-line="24" data-uid="ent0014" id="entity_slaveC1"><path d="M932.5,289.2617 C932.5,279.2617 970.9033,279.2617 970.9033,279.2617 C970.9033,279.2617 1009.3066,279.2617 1009.3066,289.2617 L1009.3066,316.8828 C1009.3066,326.8828 970.9033,326.8828 970.9033,326.8828 C970.9033,326.8828 932.5,326.8828 932.5,316.8828 L932.5,289.2617" fill="#C8E6C9" style="stroke:#000000;stroke-width:1;"/><path d="M932.5,289.2617 C932.5,299.2617 970.9033,299.2617 970.9033,299.2617 C970.9033,299.2617 1009.3066,299.2617 1009.3066,289.2617" fill="none" style="stroke:#000000;stroke-width:1;"/><text fill="#000000" font-family="Helvetica" font-size="14" lengthAdjust="spacing" textLength="56.8066" x="942.5" y="318.3691">Slave C1</text></g><!--entity slaveC2--><g class="entity" data-entity="slaveC2" data-source-line="25" data-uid="ent0015" id="entity_slaveC2"><path d="M1044.5,289.2617 C1044.5,279.2617 1082.9033,279.2617 1082.9033,279.2617 C1082.9033,279.2617 1121.3066,279.2617 1121.3066,289.2617 L1121.3066,316.8828 C1121.3066,326.8828 1082.9033,326.8828 1082.9033,326.8828 C1082.9033,326.8828 1044.5,326.8828 1044.5,316.8828 L1044.5,289.2617" fill="#C8E6C9" style="stroke:#000000;stroke-width:1;"/><path d="M1044.5,289.2617 C1044.5,299.2617 1082.9033,299.2617 1082.9033,299.2617 C1082.9033,299.2617 1121.3066,299.2617 1121.3066,289.2617" fill="none" style="stroke:#000000;stroke-width:1;"/><text fill="#000000" font-family="Helvetica" font-size="14" lengthAdjust="spacing" textLength="56.8066" x="1054.5" y="318.3691">Slave C2</text></g><g class="entity" data-entity="GMN28" data-source-line="44" data-uid="ent0029" id="entity_GMN28"><path d="M1186.5,261.2617 L1186.5,345.7461 L1419.1064,345.7461 L1419.1064,271.2617 L1409.1064,261.2617 L1186.5,261.2617" fill="#FFFFFF" style="stroke:#000000;stroke-width:1;"/><path d="M1409.1064,261.2617 L1409.1064,271.2617 L1419.1064,271.2617 L1409.1064,261.2617" fill="#FFFFFF" style="stroke:#000000;stroke-width:1;"/><text fill="#000000" font-family="Helvetica" font-size="14" font-weight="bold" lengthAdjust="spacing" textLength="92.5928" x="1192.5" y="281.3691">Key Features:</text><text fill="#000000" font-family="Helvetica" font-size="14" lengthAdjust="spacing" textLength="198.4199" x="1192.5" y="299.9902">- Decentralized (No ZooKeeper)</text><text fill="#000000" font-family="Helvetica" font-size="14" lengthAdjust="spacing" textLength="211.6064" x="1192.5" y="318.6113">- Multi-Master (Horizontal Scaling)</text><text fill="#000000" font-family="Helvetica" font-size="14" lengthAdjust="spacing" textLength="124.4824" x="1192.5" y="337.2324">- Automatic Failover</text></g><!--link masterA to slaveA1--><g class="link" data-entity-1="masterA" data-entity-2="slaveA1" data-source-line="29" data-uid="lnk16" id="link_masterA_slaveA1"><path d="M519.38,149.4917 C449.17,151.3317 304.09,161.4517 194,211.2617 C158.16,227.4717 128.3764,253.763 107.4364,274.963" fill="none" id="masterA-to-slaveA1" style="stroke:#000000;stroke-width:1;"/><polygon fill="#000000" points="103.22,279.2317,112.3904,275.6395,106.7337,275.6744,106.6988,270.0177,103.22,279.2317" style="stroke:#000000;stroke-width:1;"/><text fill="#000000" font-family="Helvetica" font-size="14" lengthAdjust="spacing" textLength="58.3652" x="195" y="227.3691">Replicate</text></g><!--link masterA to slaveA2--><g class="link" data-entity-1="masterA" data-entity-2="slaveA2" data-source-line="30" data-uid="lnk17" id="link_masterA_slaveA2"><path d="M519.46,151.9017 C463.97,156.9017 363.94,171.1517 289,211.2617 C257.41,228.1617 232.5467,253.6738 214.9067,274.6038" fill="none" id="masterA-to-slaveA2" style="stroke:#000000;stroke-width:1;"/><polygon fill="#000000" points="211.04,279.1917,219.8986,274.8877,214.2623,275.3685,213.7815,269.7321,211.04,279.1917" style="stroke:#000000;stroke-width:1;"/><text fill="#000000" font-family="Helvetica" font-size="14" lengthAdjust="spacing" textLength="58.3652" x="290" y="227.3691">Replicate</text></g><!--link masterA to slaveA3--><g class="link" data-entity-1="masterA" data-entity-2="slaveA3" data-source-line="31" data-uid="lnk18" id="link_masterA_slaveA3"><path d="M519.47,156.4217 C480.28,164.6917 421.25,181.2017 378,211.2617 C352.25,229.1617 333.9262,253.3929 320.8462,273.9029" fill="none" id="masterA-to-slaveA3" style="stroke:#000000;stroke-width:1;"/><polygon fill="#000000" points="317.62,278.9617,325.8318,273.5243,320.3085,274.746,319.0868,269.2227,317.62,278.9617" style="stroke:#000000;stroke-width:1;"/><text fill="#000000" font-family="Helvetica" font-size="14" lengthAdjust="spacing" textLength="58.3652" x="379" y="227.3691">Replicate</text></g><!--link masterA to slaveA4--><g class="link" data-entity-1="masterA" data-entity-2="slaveA4" data-source-line="32" data-uid="lnk19" id="link_masterA_slaveA4"><path d="M519.36,167.9917 C499.49,178.5117 476.5,193.1717 460,211.2617 C441.94,231.0517 431.5022,253.78 424.3422,273.56" fill="none" id="masterA-to-slaveA4" style="stroke:#000000;stroke-width:1;"/><polygon fill="#000000" points="422.3,279.2017,429.1245,272.1006,424.0018,274.5003,421.6021,269.3776,422.3,279.2017" style="stroke:#000000;stroke-width:1;"/><text fill="#000000" font-family="Helvetica" font-size="14" lengthAdjust="spacing" textLength="58.3652" x="461" y="227.3691">Replicate</text></g><!--link masterA to slaveA5--><g class="link" data-entity-1="masterA" data-entity-2="slaveA5" data-source-line="33" data-uid="lnk20" id="link_masterA_slaveA5"><path d="M542.44,181.4817 C537.9,190.8017 533.6,201.1917 531,211.2617 C525.18,233.7817 524.2776,254.443 524.6576,273.063" fill="none" id="masterA-to-slaveA5" style="stroke:#000000;stroke-width:1;"/><polygon fill="#000000" points="524.78,279.0617,528.5955,269.982,524.678,274.0628,520.5972,270.1452,524.78,279.0617" style="stroke:#000000;stroke-width:1;"/><text fill="#000000" font-family="Helvetica" font-size="14" lengthAdjust="spacing" textLength="58.3652" x="532" y="227.3691">Replicate</text></g><!--link masterA to slaveA6--><g class="link" data-entity-1="masterA" data-entity-2="slaveA6" data-source-line="34" data-uid="lnk21" id="link_masterA_slaveA6"><path d="M579.25,181.5317 C584.47,191.0417 590.08,201.5017 595,211.2617 C606.52,234.1017 616.2096,255.2304 624.4596,273.7604" fill="none" id="masterA-to-slaveA6" style="stroke:#000000;stroke-width:1;"/><polygon fill="#000000" points="626.9,279.2417,626.8936,269.3929,624.8663,274.674,619.5852,272.6467,626.9,279.2417" style="stroke:#000000;stroke-width:1;"/><text fill="#000000" font-family="Helvetica" font-size="14" lengthAdjust="spacing" textLength="58.3652" x="606" y="227.3691">Replicate</text></g><!--link masterA to slaveA7--><g class="link" data-entity-1="masterA" data-entity-2="slaveA7" data-source-line="35" data-uid="lnk22" id="link_masterA_slaveA7"><path d="M602.72,167.6617 C624.87,178.5517 651.81,193.6417 673,211.2617 C696.93,231.1517 715.4296,254.5931 729.3196,274.3531" fill="none" id="masterA-to-slaveA7" style="stroke:#000000;stroke-width:1;"/><polygon fill="#000000" points="732.77,279.2617,730.8668,269.5985,729.8946,275.1712,724.3219,274.1991,732.77,279.2617" style="stroke:#000000;stroke-width:1;"/><text fill="#000000" font-family="Helvetica" font-size="14" lengthAdjust="spacing" textLength="58.3652" x="696" y="227.3691">Replicate</text></g><!--link masterB to slaveB1--><g class="link" data-entity-1="masterB" data-entity-2="slaveB1" data-source-line="36" data-uid="lnk23" id="link_masterB_slaveB1"><path d="M779.67,181.4117 C790.36,190.3417 801.21,200.5517 810,211.2617 C827.07,232.0717 838.5292,254.2562 847.0992,273.5962" fill="none" id="masterB-to-slaveB1" style="stroke:#000000;stroke-width:1;"/><polygon fill="#000000" points="849.53,279.0817,849.5409,269.2329,847.5044,274.5104,842.2268,272.4739,849.53,279.0817" style="stroke:#000000;stroke-width:1;"/><text fill="#000000" font-family="Helvetica" font-size="14" lengthAdjust="spacing" textLength="58.3652" x="825" y="227.3691">Replicate</text></g><!--link masterC to slaveC1--><g class="link" data-entity-1="masterC" data-entity-2="slaveC1" data-source-line="37" data-uid="lnk24" id="link_masterC_slaveC1"><path d="M937.8,181.3317 C945.84,210.6017 955.9319,247.3557 963.0819,273.4057" fill="none" id="masterC-to-slaveC1" style="stroke:#000000;stroke-width:1;"/><polygon fill="#000000" points="964.67,279.1917,966.1452,269.454,963.3466,274.37,958.4305,271.5714,964.67,279.1917" style="stroke:#000000;stroke-width:1;"/><text fill="#000000" font-family="Helvetica" font-size="14" lengthAdjust="spacing" textLength="58.3652" x="953" y="227.3691">Replicate</text></g><!--link masterC to slaveC2--><g class="link" data-entity-1="masterC" data-entity-2="slaveC2" data-source-line="38" data-uid="lnk25" id="link_masterC_slaveC2"><path d="M979.68,181.4717 C996.6,192.7117 1012.94,204.2617 1020,211.2617 C1040.59,231.7017 1055.7683,254.5198 1067.2483,274.0398" fill="none" id="masterC-to-slaveC2" style="stroke:#000000;stroke-width:1;"/><polygon fill="#000000" points="1070.29,279.2117,1069.1754,269.4261,1067.7553,274.9018,1062.2796,273.4817,1070.29,279.2117" style="stroke:#000000;stroke-width:1;"/><text fill="#000000" font-family="Helvetica" font-size="14" lengthAdjust="spacing" textLength="58.3652" x="1038" y="227.3691">Replicate</text></g><!--link masterA to masterB--><g class="link" data-entity-1="masterA" data-entity-2="masterB" data-source-line="40" data-uid="lnk26" id="link_masterA_masterB"><path d="M608.68,148.2617 C632.4,148.2617 650.37,148.2617 675.79,148.2617" fill="none" id="masterA-masterB" style="stroke:#000000;stroke-width:1;"/><polygon fill="#000000" points="602.68,148.2617,611.68,152.2617,607.68,148.2617,611.68,144.2617,602.68,148.2617" style="stroke:#000000;stroke-width:1;"/><polygon fill="#000000" points="681.79,148.2617,672.79,144.2617,676.79,148.2617,672.79,152.2617,681.79,148.2617" style="stroke:#000000;stroke-width:1;"/><text fill="#000000" font-family="Helvetica" font-size="14" lengthAdjust="spacing" textLength="43.5723" x="620.75" y="141.3691">Gossip</text></g><!--link masterB to masterC--><g class="link" data-entity-1="masterB" data-entity-2="masterC" data-source-line="41" data-uid="lnk27" id="link_masterB_masterC"><path d="M794.01,148.2617 C818.69,148.2617 836.19,148.2617 861.82,148.2617" fill="none" id="masterB-masterC" style="stroke:#000000;stroke-width:1;"/><polygon fill="#000000" points="788.01,148.2617,797.01,152.2617,793.01,148.2617,797.01,144.2617,788.01,148.2617" style="stroke:#000000;stroke-width:1;"/><polygon fill="#000000" points="867.82,148.2617,858.82,144.2617,862.82,148.2617,858.82,152.2617,867.82,148.2617" style="stroke:#000000;stroke-width:1;"/><text fill="#000000" font-family="Helvetica" font-size="14" lengthAdjust="spacing" textLength="43.5723" x="806.5" y="141.3691">Gossip</text></g><!--link cluster to GMN28--><g class="link" data-entity-1="cluster" data-entity-2="GMN28" data-source-line="44" data-uid="lnk30" id="link_cluster_GMN28"><path d="M1162.098,157.5748 C1162.2801,157.7618 1162.4648,157.9515 1162.6523,158.144 C1163.0271,158.529 1163.4127,158.9249 1163.8086,159.3314 C1164.6004,160.1445 1165.4336,161.0002 1166.3059,161.8959 C1173.2844,169.062 1182.7613,178.7936 1193.4925,189.813 C1214.955,211.8517 1241.435,239.0417 1262.98,261.1617" fill="none" id="cluster-GMN28" style="stroke:#000000;stroke-width:1;stroke-dasharray:7,7;"/></g><!--SRC=[ZTJFZvf050VmEt_5grws1r85nTKO4ncbcsns3_NMz3B0MvtiE4E6qQRRxF_U1rtiq6W0Jy3d- -QNl4_sW4U4GdAXlF9Lg88RVeIKPwzxeqygPrfg0yDaM_qSaUCBFqcRQ6MVELKOFA0yenKP7rnNE_66C9vudXLM8dp3N9J0vAcqQC279sB2V-BrxTfa1s4nioU3z6vNO2Quz3n3ZxZQKtpGoW-0bv1zr1ecuNQQJE6t1tHPlKTQe_cuhQwSMvxoaeeqm_rGEwbj2ID_Fgzh7UiNQwgLiCqck1sDc-XuDFB7hNJSdMPDEgZIKNWVEddMohzxtSlPINv6M8_h8cLrinx3aDrl8pQ_pGE71zqyT7ZOpISEdtJpgSEdtJnoUDJDPmwVTVBOsSYuUoEPmraFxkmxQ-_xkqUdtVm5_Lp_LFxgSfuB-dGAIT-PnHicw6727cRImqnxcAY7cLqnSTl4rzREseRrCUtzkKnewHknFrXYpV0B-AhBKXIN-VnFs3_YAMqHKcsjFe9-QReHdUSoNJtYBqYGL-siN2o_f2jwxCC6CrJMS4cTCOUxPmtVjNv4BD1yha6h9zuzQ2FUg95o2RkCGch_LwrFD2IdpWi95rAVQL1KELJpyVu0]--></g></svg>