<svg xmlns="http://www.w3.org/2000/svg" xmlns:xlink="http://www.w3.org/1999/xlink" contentStyleType="text/css" height="527px" preserveAspectRatio="none" style="width:474px;height:527px;background:#FEFEFE;" version="1.1" viewBox="0 0 474 527" width="474px" zoomAndPan="magnify"><title>MOVED Redirect - Permanent Redirection</title><defs/><g><rect fill="#FEFEFE" height="527" style="stroke:none;stroke-width:1.0;" width="474" x="0" y="0"/><text fill="#000000" font-family="Helvetica" font-size="22" font-weight="bold" lengthAdjust="spacing" textLength="435.209" x="21.7395" y="40.2119">MOVED Redirect - Permanent Redirection</text><line style="stroke:#000000;stroke-width:1.0;" x1="48" x2="48" y1="136.166" y2="443.3672"/><line style="stroke:#000000;stroke-width:1.0;" x1="271.1919" x2="271.1919" y1="136.166" y2="443.3672"/><line style="stroke:#000000;stroke-width:1.0;" x1="406.1089" x2="406.1089" y1="136.166" y2="443.3672"/><text fill="#000000" font-family="Helvetica" font-size="14" lengthAdjust="spacing" textLength="35.793" x="28" y="133.0898">Client</text><ellipse cx="48.8965" cy="65.0459" fill="#FFFFFF" rx="8" ry="8" style="stroke:#000000;stroke-width:1.0;"/><path d="M48.8965,73.0459 L48.8965,100.0459 M35.8965,81.0459 L61.8965,81.0459 M48.8965,100.0459 L35.8965,115.0459 M48.8965,100.0459 L61.8965,115.0459 " fill="none" style="stroke:#000000;stroke-width:1.0;"/><text fill="#000000" font-family="Helvetica" font-size="14" lengthAdjust="spacing" textLength="35.793" x="28" y="458.4111">Client</text><ellipse cx="48.8965" cy="470.4873" fill="#FFFFFF" rx="8" ry="8" style="stroke:#000000;stroke-width:1.0;"/><path d="M48.8965,478.4873 L48.8965,505.4873 M35.8965,486.4873 L61.8965,486.4873 M48.8965,505.4873 L35.8965,520.4873 M48.8965,505.4873 L61.8965,520.4873 " fill="none" style="stroke:#000000;stroke-width:1.0;"/><rect fill="#FFCDD2" height="52.2402" rx="2.5" ry="2.5" style="stroke:#000000;stroke-width:1.0;" width="101.917" x="221.1919" y="82.9258"/><text fill="#000000" font-family="Helvetica" font-size="14" lengthAdjust="spacing" textLength="46.6963" x="248.8022" y="105.9697">Node A</text><text fill="#000000" font-family="Helvetica" font-size="14" lengthAdjust="spacing" textLength="87.917" x="228.1919" y="125.0898">(Wrong Node)</text><rect fill="#FFCDD2" height="52.2402" rx="2.5" ry="2.5" style="stroke:#000000;stroke-width:1.0;" width="101.917" x="221.1919" y="442.3672"/><text fill="#000000" font-family="Helvetica" font-size="14" lengthAdjust="spacing" textLength="46.6963" x="248.8022" y="465.4111">Node A</text><text fill="#000000" font-family="Helvetica" font-size="14" lengthAdjust="spacing" textLength="87.917" x="228.1919" y="484.5313">(Wrong Node)</text><rect fill="#C8E6C9" height="52.2402" rx="2.5" ry="2.5" style="stroke:#000000;stroke-width:1.0;" width="106.5791" x="353.1089" y="82.9258"/><text fill="#000000" font-family="Helvetica" font-size="14" lengthAdjust="spacing" textLength="46.6963" x="383.0503" y="105.9697">Node B</text><text fill="#000000" font-family="Helvetica" font-size="14" lengthAdjust="spacing" textLength="92.5791" x="360.1089" y="125.0898">(Correct Node)</text><rect fill="#C8E6C9" height="52.2402" rx="2.5" ry="2.5" style="stroke:#000000;stroke-width:1.0;" width="106.5791" x="353.1089" y="442.3672"/><text fill="#000000" font-family="Helvetica" font-size="14" lengthAdjust="spacing" textLength="46.6963" x="383.0503" y="465.4111">Node B</text><text fill="#000000" font-family="Helvetica" font-size="14" lengthAdjust="spacing" textLength="92.5791" x="360.1089" y="484.5313">(Correct Node)</text><polygon fill="#000000" points="260.1504,186.4063,270.1504,190.4063,260.1504,194.4063,264.1504,190.4063" style="stroke:#000000;stroke-width:1.0;"/><line style="stroke:#000000;stroke-width:1.0;" x1="48.8965" x2="266.1504" y1="190.4063" y2="190.4063"/><text fill="#000000" font-family="Helvetica" font-size="14" lengthAdjust="spacing" textLength="94.9375" x="113.0547" y="166.21">GET user:1001</text><text fill="#000000" font-family="Helvetica" font-size="14" lengthAdjust="spacing" textLength="133.834" x="93.6064" y="185.3301">(thinks slot 9999 is A)</text><polygon fill="#000000" points="59.8965,219.5264,49.8965,223.5264,59.8965,227.5264,55.8965,223.5264" style="stroke:#000000;stroke-width:1.0;"/><line style="stroke:#000000;stroke-width:1.0;stroke-dasharray:2.0,2.0;" x1="53.8965" x2="271.1504" y1="223.5264" y2="223.5264"/><text fill="#FF0000" font-family="Helvetica" font-size="14" lengthAdjust="spacing" textLength="199.2539" x="60.8965" y="218.4502">MOVED 9999 192.168.1.2:6379</text><path d="M53,236.5264 L53,303.5264 L254,303.5264 L254,246.5264 L244,236.5264 L53,236.5264 " fill="#FFFFFF" style="stroke:#000000;stroke-width:1.0;"/><path d="M244,236.5264 L244,246.5264 L254,246.5264 L244,236.5264 " fill="#FFFFFF" style="stroke:#000000;stroke-width:1.0;"/><text fill="#000000" font-family="Helvetica" font-size="14" font-weight="bold" lengthAdjust="spacing" textLength="180.4961" x="59" y="257.5703">Client updates local cache:</text><text fill="#000000" font-family="Helvetica" font-size="14" lengthAdjust="spacing" textLength="149.0713" x="59" y="276.6904">Slot 9999 = 192.168.1.2</text><text fill="#000000" font-family="Helvetica" font-size="14" lengthAdjust="spacing" textLength="124.5166" x="59" y="295.8105">(Permanent update)</text><polygon fill="#000000" points="394.3984,330.0068,404.3984,334.0068,394.3984,338.0068,398.3984,334.0068" style="stroke:#000000;stroke-width:1.0;"/><line style="stroke:#000000;stroke-width:1.0;" x1="48.8965" x2="400.3984" y1="334.0068" y2="334.0068"/><text fill="#000000" font-family="Helvetica" font-size="14" lengthAdjust="spacing" textLength="94.9375" x="180.1787" y="328.9307">GET user:1001</text><polygon fill="#000000" points="59.8965,363.127,49.8965,367.127,59.8965,371.127,55.8965,367.127" style="stroke:#000000;stroke-width:1.0;"/><line style="stroke:#000000;stroke-width:1.0;stroke-dasharray:2.0,2.0;" x1="53.8965" x2="405.3984" y1="367.127" y2="367.127"/><text fill="#000000" font-family="Helvetica" font-size="14" lengthAdjust="spacing" textLength="69.8701" x="192.7124" y="362.0508">"John Doe"</text><path d="M10,380.127 L10,428.127 L446,428.127 L446,390.127 L436,380.127 L10,380.127 " fill="#FFFFFF" style="stroke:#000000;stroke-width:1.0;"/><path d="M436,380.127 L436,390.127 L446,390.127 L436,380.127 " fill="#FFFFFF" style="stroke:#000000;stroke-width:1.0;"/><text fill="#000000" font-family="Helvetica" font-size="14" lengthAdjust="spacing" textLength="160.3096" x="143.6892" y="401.1709">Next request for slot 9999</text><text fill="#000000" font-family="Helvetica" font-size="14" lengthAdjust="spacing" textLength="144.7441" x="143.6892" y="420.291">goes directly to Node B</text><!--SRC=[RLB1JkCm4BtxAuPmeTAsa88AZRgHshHTX4H1omekUt6TQMBLjRls105VlvCcb89mBixCcpVlpVY8IjmWR8tKLeIrjblfvGQMKgqBxogRPyuu3yVpMVqT879SoShGt5bQI6Q8hj4y8sabe-zH3_eD8RuuI0RyLw5LU8iXo0B7HXSM55f2BmHfCWYtTu-pAVp6N7jK15suHx-HbZ7xe7PM2Ac8LMP6rnaPGErkWlkm8hsL78qMBaSO_xKdJzxP0khVJbI3BT_6R76UJQVzRsecN9CvlrFmkMe2nzdLR90DXMWwGZTjwHBuDVi3LK2Vn6TdCLDGgUqwG32EOCW7T81nHpJmBXUs50cCL3tqn6EUDWFOmUDXlnSFhdfnhvyCpY-7ezCTB1LCGGXU5oM1Mxrx1nWjqtOYrJQNX06CKzA0agh4P7IwJ1dqi9Vpyx03Pqu-PjtKTmJQ7EfcN-rEljeLJVIJg-Z6bHQc3gDMiNj6twP_D3JSTO4l1Bv-6O5WnKlTpukJXMCJpThDAv23PZyVklu3]--></g></svg>