<svg xmlns="http://www.w3.org/2000/svg" xmlns:xlink="http://www.w3.org/1999/xlink" contentStyleType="text/css" height="618px" preserveAspectRatio="none" style="width:524px;height:618px;background:#FEFEFE;" version="1.1" viewBox="0 0 524 618" width="524px" zoomAndPan="magnify"><title>ASK Redirect - During Slot Migration</title><defs/><g><rect fill="#FEFEFE" height="618" style="stroke:none;stroke-width:1.0;" width="524" x="0" y="0"/><text fill="#000000" font-family="Helvetica" font-size="22" font-weight="bold" lengthAdjust="spacing" textLength="383.7861" x="76.6665" y="40.2119">ASK Redirect - During Slot Migration</text><line style="stroke:#000000;stroke-width:1.0;" x1="59" x2="59" y1="136.166" y2="534.7275"/><line style="stroke:#000000;stroke-width:1.0;" x1="259.4297" x2="259.4297" y1="136.166" y2="534.7275"/><line style="stroke:#000000;stroke-width:1.0;" x1="442.2227" x2="442.2227" y1="136.166" y2="534.7275"/><text fill="#000000" font-family="Helvetica" font-size="14" lengthAdjust="spacing" textLength="35.793" x="39" y="133.0898">Client</text><ellipse cx="59.8965" cy="65.0459" fill="#FFFFFF" rx="8" ry="8" style="stroke:#000000;stroke-width:1.0;"/><path d="M59.8965,73.0459 L59.8965,100.0459 M46.8965,81.0459 L72.8965,81.0459 M59.8965,100.0459 L46.8965,115.0459 M59.8965,100.0459 L72.8965,115.0459 " fill="none" style="stroke:#000000;stroke-width:1.0;"/><text fill="#000000" font-family="Helvetica" font-size="14" lengthAdjust="spacing" textLength="35.793" x="39" y="549.7715">Client</text><ellipse cx="59.8965" cy="561.8477" fill="#FFFFFF" rx="8" ry="8" style="stroke:#000000;stroke-width:1.0;"/><path d="M59.8965,569.8477 L59.8965,596.8477 M46.8965,577.8477 L72.8965,577.8477 M59.8965,596.8477 L46.8965,611.8477 M59.8965,596.8477 L72.8965,611.8477 " fill="none" style="stroke:#000000;stroke-width:1.0;"/><rect fill="#FFCDD2" height="52.2402" rx="2.5" ry="2.5" style="stroke:#000000;stroke-width:1.0;" width="154.793" x="182.4297" y="82.9258"/><text fill="#000000" font-family="Helvetica" font-size="14" lengthAdjust="spacing" textLength="46.6963" x="236.478" y="105.9697">Node A</text><text fill="#000000" font-family="Helvetica" font-size="14" lengthAdjust="spacing" textLength="140.793" x="189.4297" y="125.0898">(Source, MIGRATING)</text><rect fill="#FFCDD2" height="52.2402" rx="2.5" ry="2.5" style="stroke:#000000;stroke-width:1.0;" width="154.793" x="182.4297" y="533.7275"/><text fill="#000000" font-family="Helvetica" font-size="14" lengthAdjust="spacing" textLength="46.6963" x="236.478" y="556.7715">Node A</text><text fill="#000000" font-family="Helvetica" font-size="14" lengthAdjust="spacing" textLength="140.793" x="189.4297" y="575.8916">(Source, MIGRATING)</text><rect fill="#C8E6C9" height="52.2402" rx="2.5" ry="2.5" style="stroke:#000000;stroke-width:1.0;" width="150.8965" x="367.2227" y="82.9258"/><text fill="#000000" font-family="Helvetica" font-size="14" lengthAdjust="spacing" textLength="46.6963" x="419.3228" y="105.9697">Node B</text><text fill="#000000" font-family="Helvetica" font-size="14" lengthAdjust="spacing" textLength="136.8965" x="374.2227" y="125.0898">(Target, IMPORTING)</text><rect fill="#C8E6C9" height="52.2402" rx="2.5" ry="2.5" style="stroke:#000000;stroke-width:1.0;" width="150.8965" x="367.2227" y="533.7275"/><text fill="#000000" font-family="Helvetica" font-size="14" lengthAdjust="spacing" textLength="46.6963" x="419.3228" y="556.7715">Node B</text><text fill="#000000" font-family="Helvetica" font-size="14" lengthAdjust="spacing" textLength="136.8965" x="374.2227" y="575.8916">(Target, IMPORTING)</text><polygon fill="#000000" points="247.8262,186.4063,257.8262,190.4063,247.8262,194.4063,251.8262,190.4063" style="stroke:#000000;stroke-width:1.0;"/><line style="stroke:#000000;stroke-width:1.0;" x1="59.8965" x2="253.8262" y1="190.4063" y2="190.4063"/><text fill="#000000" font-family="Helvetica" font-size="14" lengthAdjust="spacing" textLength="94.9375" x="112.3926" y="166.21">GET user:1001</text><text fill="#000000" font-family="Helvetica" font-size="14" lengthAdjust="spacing" textLength="127.6133" x="96.0547" y="185.3301">(slot 9999 migrating)</text><path d="M264,203.4063 L264,251.4063 L417,251.4063 L417,213.4063 L407,203.4063 L264,203.4063 " fill="#FFFFFF" style="stroke:#000000;stroke-width:1.0;"/><path d="M407,203.4063 L407,213.4063 L417,213.4063 L407,203.4063 " fill="#FFFFFF" style="stroke:#000000;stroke-width:1.0;"/><text fill="#000000" font-family="Helvetica" font-size="14" lengthAdjust="spacing" textLength="132.2891" x="270" y="224.4502">Key already migrated</text><text fill="#000000" font-family="Helvetica" font-size="14" lengthAdjust="spacing" textLength="62.2617" x="270" y="243.5703">to Node B</text><polygon fill="#000000" points="70.8965,277.7666,60.8965,281.7666,70.8965,285.7666,66.8965,281.7666" style="stroke:#000000;stroke-width:1.0;"/><line style="stroke:#000000;stroke-width:1.0;stroke-dasharray:2.0,2.0;" x1="64.8965" x2="258.8262" y1="281.7666" y2="281.7666"/><text fill="#FFA500" font-family="Helvetica" font-size="14" lengthAdjust="spacing" textLength="175.9297" x="71.8965" y="276.6904">ASK 9999 192.168.1.2:6379</text><path d="M64,294.7666 L64,342.7666 L237,342.7666 L237,304.7666 L227,294.7666 L64,294.7666 " fill="#FFFDE7" style="stroke:#000000;stroke-width:1.0;"/><path d="M227,294.7666 L227,304.7666 L237,304.7666 L227,294.7666 " fill="#FFFDE7" style="stroke:#000000;stroke-width:1.0;"/><text fill="#000000" font-family="Helvetica" font-size="14" font-weight="bold" lengthAdjust="spacing" textLength="152.4688" x="70" y="315.8105">DO NOT update cache!</text><text fill="#000000" font-family="Helvetica" font-size="14" lengthAdjust="spacing" textLength="107.3584" x="70" y="334.9307">This is temporary</text><polygon fill="#000000" points="430.6709,369.127,440.6709,373.127,430.6709,377.127,434.6709,373.127" style="stroke:#000000;stroke-width:1.0;"/><line style="stroke:#000000;stroke-width:1.0;" x1="59.8965" x2="436.6709" y1="373.127" y2="373.127"/><text fill="#0000FF" font-family="Helvetica" font-size="14" lengthAdjust="spacing" textLength="52.9033" x="224.832" y="368.0508">ASKING</text><polygon fill="#000000" points="430.6709,402.2471,440.6709,406.2471,430.6709,410.2471,434.6709,406.2471" style="stroke:#000000;stroke-width:1.0;"/><line style="stroke:#000000;stroke-width:1.0;" x1="59.8965" x2="436.6709" y1="406.2471" y2="406.2471"/><text fill="#000000" font-family="Helvetica" font-size="14" lengthAdjust="spacing" textLength="94.9375" x="203.8149" y="401.1709">GET user:1001</text><polygon fill="#000000" points="70.8965,435.3672,60.8965,439.3672,70.8965,443.3672,66.8965,439.3672" style="stroke:#000000;stroke-width:1.0;"/><line style="stroke:#000000;stroke-width:1.0;stroke-dasharray:2.0,2.0;" x1="64.8965" x2="441.6709" y1="439.3672" y2="439.3672"/><text fill="#000000" font-family="Helvetica" font-size="14" lengthAdjust="spacing" textLength="69.8701" x="216.3486" y="434.291">"John Doe"</text><path d="M10,452.3672 L10,519.3672 L494,519.3672 L494,462.3672 L484,452.3672 L10,452.3672 " fill="#FFFFFF" style="stroke:#000000;stroke-width:1.0;"/><path d="M484,452.3672 L484,462.3672 L494,462.3672 L484,452.3672 " fill="#FFFFFF" style="stroke:#000000;stroke-width:1.0;"/><text fill="#000000" font-family="Helvetica" font-size="14" lengthAdjust="spacing" textLength="160.3096" x="167.4048" y="473.4111">Next request for slot 9999</text><text fill="#000000" font-family="Helvetica" font-size="14" font-weight="bold" lengthAdjust="spacing" textLength="140.8066" x="167.4048" y="492.5313">still tries Node A first</text><text fill="#000000" font-family="Helvetica" font-size="14" lengthAdjust="spacing" textLength="119.8613" x="167.4048" y="511.6514">(cache unchanged)</text><!--SRC=[RL9VRzem47_tfxYcBqK2sh295eIGW03hAc027lTYd2EnQcncNwgnJxyBYLhOckGXkhlVlxDlACS3mj58RKLurVOelJp0JghNpBl2fXDdd8VRsRHyBoPItCl2qCnPMafcYBwXUKFIIaQVJstq7uJuwqKpuAy2hS85XY0p71cTML1e2RqGfCaWZ3OliCPKUrG4BKWAhsq66-C85ZhpahIpGaX5x75YD6D11b3dFy4gx4SV9LUZfKkPxgUzsxZ2Asp2udc-7csVb_D6L68izqUSSpP9aiudq353jz9dI4ruNlnOhQ-XOxYTF4sxavuGbJgqXZLd7-RJBHG1VJz-U8YP9vJ-U_p0eGfXiuOGrX62rrbEuFOLLW2yu0cayIZJKpsDAPV9GMLBe4sXX9O4fLoBXMiBVHYeylZwpakRuR3SvbasxdNQSVUf7RSx_UwNnzxW_Zmt_DT4pSDRcINJHvOTx8R92fOhpdDCsGeegNAy6TplXjpTvZe0VuI78qlwquMvwwsCFxpjJ75snkjyj_7_yDKAHLMzIXfzTxc5n65KXt1lwEjsiw9XXqlyJU3BUnS8zdnfte-Y2XT86mFaDOPgloFOQn-e3dXtZWk5LNcvqBJn4V0l]--></g></svg>